<?xml version="1.0" encoding="UTF-8"?>
<svg xmlns="http://www.w3.org/2000/svg" xmlns:xlink="http://www.w3.org/1999/xlink" width="157.2951pt" height="54.357pt" viewBox="0 0 157.2951 54.357" version="1.1">
<defs>
<clipPath id="clip1">
  <path d="M 47 20 L 83 20 L 83 54.355469 L 47 54.355469 Z M 47 20 "/>
</clipPath>
<clipPath id="clip2">
  <path d="M 46 20 L 83 20 L 83 54.355469 L 46 54.355469 Z M 46 20 "/>
</clipPath>
<clipPath id="clip3">
  <path d="M 125 21 L 157.296875 21 L 157.296875 54.355469 L 125 54.355469 Z M 125 21 "/>
</clipPath>
<clipPath id="clip4">
  <path d="M 125 21 L 157.296875 21 L 157.296875 54.355469 L 125 54.355469 Z M 125 21 "/>
</clipPath>
</defs>
<g id="surface1">
<path style="fill:none;stroke-width:2;stroke-linecap:butt;stroke-linejoin:round;stroke:rgb(0%,0%,0%);stroke-opacity:1;stroke-miterlimit:10;" d="M 62.4279 239.8415 C 62.4279 239.8415 62.4279 239.8415 62.95915 240.849312 C 63.486494 241.861031 64.548994 243.880562 66.279462 246.579781 C 68.006025 249.279 70.404462 252.661812 72.580244 255.661812 C 74.752119 258.661812 76.705244 261.282906 77.6779 262.595406 C 78.654462 263.904 78.654462 263.904 78.654462 263.904 C 78.654462 263.904 78.654462 263.904 79.638837 263.505562 C 80.623212 263.103219 82.588056 262.302437 85.931806 261.025094 C 89.275556 259.74775 93.998212 257.989937 97.916181 256.37275 C 101.83415 254.751656 104.943525 253.271187 106.502119 252.529 C 108.056806 251.790719 108.056806 251.790719 108.056806 251.790719 C 108.056806 251.790719 108.056806 251.790719 107.041181 250.49775 C 106.025556 249.204781 103.9904 246.62275 101.838056 243.779 C 99.685712 240.939156 97.408369 237.837594 95.45915 235.056344 C 93.506025 232.279 91.877119 229.821969 91.064619 228.595406 C 90.252119 227.368844 90.252119 227.368844 90.252119 227.368844 C 90.252119 227.368844 90.252119 227.368844 89.119306 227.892281 C 87.986494 228.415719 85.720869 229.4665 82.517744 230.927437 C 79.314619 232.384469 75.1779 234.24775 71.670087 235.802437 C 68.166181 237.357125 65.298994 238.599312 63.861494 239.220406 C 62.4279 239.8415 62.4279 239.8415 62.4279 239.8415 Z M 62.4279 239.8415 " transform="matrix(1,0,0,-1,-60.9279,265.404)"/>
<path style="fill:none;stroke-width:2;stroke-linecap:butt;stroke-linejoin:round;stroke:rgb(0%,0%,0%);stroke-opacity:1;stroke-miterlimit:10;" d="M 111.045087 250.294625 C 111.045087 250.294625 111.045087 250.294625 110.131025 249.134469 C 109.213056 247.970406 107.384931 245.650094 105.228681 242.81025 C 103.076337 239.9665 100.599775 236.603219 98.548994 233.693062 C 96.494306 230.782906 94.869306 228.329781 94.056806 227.099312 C 93.2404 225.87275 93.2404 225.87275 93.2404 225.87275 C 93.2404 225.87275 93.2404 225.87275 94.310712 225.368844 C 95.381025 224.868844 97.52165 223.864937 100.658369 222.37275 C 103.795087 220.884469 107.9279 218.907906 111.494306 217.193062 C 115.060712 215.478219 118.056806 214.025094 119.564619 213.294625 C 121.076337 212.56025 121.095869 212.552437 121.107587 212.548531 C 121.1154 212.540719 121.1154 212.540719 121.732587 213.470406 C 122.349775 214.400094 123.580244 216.255562 125.7404 219.454781 C 127.904462 222.654 130.998212 227.193062 133.213056 230.361031 C 135.431806 233.529 136.767744 235.329781 137.435712 236.232125 C 138.103681 237.130562 138.103681 237.130562 138.103681 237.130562 C 138.103681 237.130562 138.103681 237.130562 136.943525 237.74775 C 135.787275 238.364937 133.466962 239.595406 130.1779 241.263375 C 126.884931 242.93525 122.6154 245.048531 119.267744 246.626656 C 115.916181 248.204781 113.482587 249.251656 112.263837 249.771187 C 111.045087 250.294625 111.045087 250.294625 111.045087 250.294625 Z M 111.045087 250.294625 " transform="matrix(1,0,0,-1,-60.9279,265.404)"/>
<path style="fill:none;stroke-width:2;stroke-linecap:butt;stroke-linejoin:round;stroke:rgb(0%,0%,0%);stroke-opacity:1;stroke-miterlimit:10;" d="M 216.724775 237.876656 C 216.724775 237.876656 216.724775 237.876656 215.564619 238.493844 C 214.404462 239.111031 212.08415 240.3415 208.791181 242.013375 C 205.502119 243.68525 201.236494 245.794625 197.884931 247.37275 C 194.533369 248.950875 192.099775 249.99775 189.326337 251.259469 C 186.5529 252.521187 183.443525 254.005562 179.525556 255.62275 C 175.607587 257.243844 170.884931 258.99775 167.541181 260.279 C 164.197431 261.556344 162.232587 262.357125 161.248212 262.755562 C 160.263837 263.157906 160.263837 263.157906 160.263837 263.157906 C 160.263837 263.157906 160.263837 263.157906 159.287275 261.845406 C 158.314619 260.536812 156.361494 257.915719 154.189619 254.915719 C 152.013837 251.911812 149.6154 248.532906 147.888837 245.829781 C 146.158369 243.130562 145.095869 241.111031 144.568525 240.103219 C 144.037275 239.0915 144.037275 239.0915 144.037275 239.0915 C 144.037275 239.0915 144.037275 239.0915 145.470869 238.470406 C 146.904462 237.849312 149.775556 236.607125 152.939619 235.204781 C 156.107587 233.802437 159.572431 232.236031 162.775556 230.779 C 165.978681 229.318062 168.920087 227.970406 172.02165 226.521187 C 175.127119 225.075875 178.392744 223.532906 181.529462 222.040719 C 184.666181 220.552437 187.673994 219.114937 190.6779 217.669625 C 193.6779 216.228219 196.6779 214.771187 198.173994 214.044625 C 199.673994 213.318062 199.673994 213.318062 199.673994 213.318062 C 199.673994 213.318062 199.673994 213.318062 200.298994 214.243844 C 200.923994 215.165719 202.1779 217.013375 204.349775 220.208687 C 206.525556 223.400094 209.619306 227.939156 211.83415 231.107125 C 214.048994 234.275094 215.384931 236.079781 216.0529 236.978219 C 216.724775 237.876656 216.724775 237.876656 216.724775 237.876656 Z M 216.724775 237.876656 " transform="matrix(1,0,0,-1,-60.9279,265.404)"/>
<path style="fill:none;stroke-width:2;stroke-linecap:butt;stroke-linejoin:round;stroke:rgb(0%,0%,0%);stroke-opacity:1;stroke-dasharray:4;stroke-miterlimit:10;" d="M 189.666181 251.040719 L 186.658369 247.208687 L 183.564619 243.290719 L 180.017744 238.407906 L 176.744306 233.986031 L 171.861494 226.618844 " transform="matrix(1,0,0,-1,-60.9279,265.404)"/>
<path style="fill:none;stroke-width:1.2;stroke-linecap:butt;stroke-linejoin:round;stroke:rgb(0%,0%,0%);stroke-opacity:1;stroke-miterlimit:10;" d="M 70.892744 239.978219 C 74.447431 238.392281 81.556806 235.228219 85.111494 233.646187 C 88.666181 232.06025 88.666181 232.06025 90.904462 235.169625 C 93.14665 238.275094 97.627119 244.486031 99.8654 247.595406 C 102.107587 250.700875 102.107587 250.700875 98.431806 252.165719 C 94.759931 253.626656 87.412275 256.556344 83.736494 258.017281 C 80.064619 259.482125 80.064619 259.482125 77.943525 256.493844 C 75.822431 253.509469 71.580244 247.532906 69.45915 244.548531 C 67.338056 241.56025 67.338056 241.56025 70.892744 239.978219 Z M 70.892744 239.978219 " transform="matrix(1,0,0,-1,-60.9279,265.404)"/>
<path style="fill:none;stroke-width:1.2;stroke-linecap:butt;stroke-linejoin:round;stroke:rgb(0%,0%,0%);stroke-opacity:1;stroke-miterlimit:10;" d="M 101.9279 225.579781 C 105.513837 223.93525 112.681806 220.650094 116.263837 219.009469 C 119.849775 217.364937 119.849775 217.364937 121.970869 220.501656 C 124.091962 223.638375 128.330244 229.911812 130.451337 233.048531 C 132.572431 236.18525 132.572431 236.18525 129.197431 237.798531 C 125.822431 239.411812 119.072431 242.634469 115.697431 244.24775 C 112.322431 245.861031 112.322431 245.861031 109.9904 242.755562 C 107.662275 239.650094 103.002119 233.43525 100.673994 230.329781 C 98.341962 227.224312 98.341962 227.224312 101.9279 225.579781 Z M 101.9279 225.579781 " transform="matrix(1,0,0,-1,-60.9279,265.404)"/>
<path style="fill:none;stroke-width:1.2;stroke-linecap:butt;stroke-linejoin:miter;stroke:rgb(0%,0%,0%);stroke-opacity:1;stroke-miterlimit:10;" d="M 75.517744 253.083687 L 73.720869 250.548531 " transform="matrix(1,0,0,-1,-60.9279,265.404)"/>
<path style="fill-rule:evenodd;fill:rgb(0%,0%,0%);fill-opacity:1;stroke-width:1.2;stroke-linecap:butt;stroke-linejoin:miter;stroke:rgb(0%,0%,0%);stroke-opacity:1;stroke-miterlimit:10;" d="M 73.720869 250.548531 L 76.27165 252.415719 L 74.642744 253.571969 Z M 73.720869 250.548531 " transform="matrix(1,0,0,-1,-60.9279,265.404)"/>
<path style="fill:none;stroke-width:1.2;stroke-linecap:butt;stroke-linejoin:miter;stroke:rgb(0%,0%,0%);stroke-opacity:1;stroke-miterlimit:10;" d="M 95.127119 241.021187 L 96.95915 243.564156 " transform="matrix(1,0,0,-1,-60.9279,265.404)"/>
<path style="fill-rule:evenodd;fill:rgb(0%,0%,0%);fill-opacity:1;stroke-width:1.2;stroke-linecap:butt;stroke-linejoin:miter;stroke:rgb(0%,0%,0%);stroke-opacity:1;stroke-miterlimit:10;" d="M 96.95915 243.564156 L 94.392744 241.712594 L 96.013837 240.544625 Z M 96.95915 243.564156 " transform="matrix(1,0,0,-1,-60.9279,265.404)"/>
<path style="fill:none;stroke-width:1.2;stroke-linecap:butt;stroke-linejoin:miter;stroke:rgb(0%,0%,0%);stroke-opacity:1;stroke-miterlimit:10;" d="M 106.849775 238.568062 L 105.060712 236.181344 " transform="matrix(1,0,0,-1,-60.9279,265.404)"/>
<path style="fill-rule:evenodd;fill:rgb(0%,0%,0%);fill-opacity:1;stroke-width:1.2;stroke-linecap:butt;stroke-linejoin:miter;stroke:rgb(0%,0%,0%);stroke-opacity:1;stroke-miterlimit:10;" d="M 105.060712 236.181344 L 107.662275 237.982125 L 106.064619 239.181344 Z M 105.060712 236.181344 " transform="matrix(1,0,0,-1,-60.9279,265.404)"/>
<g clip-path="url(#clip1)" clip-rule="nonzero">
<path style="fill:none;stroke-width:1.2;stroke-linecap:butt;stroke-linejoin:miter;stroke:rgb(0%,0%,0%);stroke-opacity:1;stroke-miterlimit:10;" d="M 125.435712 225.626656 L 126.951337 227.868844 " transform="matrix(1,0,0,-1,-60.9279,265.404)"/>
</g>
<path style=" stroke:none;fill-rule:evenodd;fill:rgb(0%,0%,0%);fill-opacity:1;" d="M 66.023438 37.535156 L 63.515625 39.464844 L 65.167969 40.582031 Z M 66.023438 37.535156 "/>
<g clip-path="url(#clip2)" clip-rule="nonzero">
<path style="fill:none;stroke-width:1.2;stroke-linecap:butt;stroke-linejoin:miter;stroke:rgb(0%,0%,0%);stroke-opacity:1;stroke-miterlimit:10;" d="M 126.951337 227.868844 L 124.443525 225.939156 L 126.095869 224.821969 Z M 126.951337 227.868844 " transform="matrix(1,0,0,-1,-60.9279,265.404)"/>
</g>
<path style="fill:none;stroke-width:1.2;stroke-linecap:butt;stroke-linejoin:round;stroke:rgb(0%,0%,0%);stroke-opacity:1;stroke-miterlimit:10;" d="M 152.384931 238.587594 C 156.631025 236.724312 165.123212 232.993844 173.498212 229.087594 C 181.877119 225.181344 190.142744 221.099312 194.27165 219.056344 C 198.404462 217.013375 198.404462 217.013375 200.720869 220.353219 C 203.033369 223.696969 207.666181 230.376656 209.982587 233.7165 C 212.295087 237.056344 212.295087 237.056344 208.27165 239.068062 C 204.248212 241.079781 196.201337 245.095406 187.685712 248.845406 C 179.166181 252.5915 170.173994 256.064156 165.6779 257.802437 C 161.181806 259.540719 161.181806 259.540719 159.009931 256.357125 C 156.83415 253.177437 152.486494 246.814156 150.314619 243.630562 C 148.138837 240.450875 148.138837 240.450875 152.384931 238.587594 Z M 152.384931 238.587594 " transform="matrix(1,0,0,-1,-60.9279,265.404)"/>
<path style="fill:none;stroke-width:1.2;stroke-linecap:butt;stroke-linejoin:miter;stroke:rgb(0%,0%,0%);stroke-opacity:1;stroke-miterlimit:10;" d="M 155.58415 251.349312 L 154.416181 249.634469 " transform="matrix(1,0,0,-1,-60.9279,265.404)"/>
<path style="fill-rule:evenodd;fill:rgb(0%,0%,0%);fill-opacity:1;stroke-width:1.2;stroke-linecap:butt;stroke-linejoin:miter;stroke:rgb(0%,0%,0%);stroke-opacity:1;stroke-miterlimit:10;" d="M 154.416181 249.634469 L 156.931806 251.548531 L 155.283369 252.677437 Z M 154.416181 249.634469 " transform="matrix(1,0,0,-1,-60.9279,265.404)"/>
<g clip-path="url(#clip3)" clip-rule="nonzero">
<path style="fill:none;stroke-width:1.2;stroke-linecap:butt;stroke-linejoin:miter;stroke:rgb(0%,0%,0%);stroke-opacity:1;stroke-miterlimit:10;" d="M 203.853681 224.876656 L 205.611494 227.411812 " transform="matrix(1,0,0,-1,-60.9279,265.404)"/>
</g>
<path style=" stroke:none;fill-rule:evenodd;fill:rgb(0%,0%,0%);fill-opacity:1;" d="M 144.683594 37.992188 L 142.152344 39.890625 L 143.792969 41.027344 Z M 144.683594 37.992188 "/>
<g clip-path="url(#clip4)" clip-rule="nonzero">
<path style="fill:none;stroke-width:1.2;stroke-linecap:butt;stroke-linejoin:miter;stroke:rgb(0%,0%,0%);stroke-opacity:1;stroke-miterlimit:10;" d="M 205.611494 227.411812 L 203.080244 225.513375 L 204.720869 224.376656 Z M 205.611494 227.411812 " transform="matrix(1,0,0,-1,-60.9279,265.404)"/>
</g>
</g>
</svg>
