<?xml version="1.0" encoding="UTF-8"?>
<svg xmlns="http://www.w3.org/2000/svg" xmlns:xlink="http://www.w3.org/1999/xlink" width="512.3998pt" height="512.4pt" viewBox="0 0 512.3998 512.4" version="1.1">
<defs>
<clipPath id="clip1">
  <path d="M 0 0 L 512.398438 0 L 512.398438 512.398438 L 0 512.398438 Z M 0 0 "/>
</clipPath>
</defs>
<g id="surface1">
<g clip-path="url(#clip1)" clip-rule="nonzero">
<path style=" stroke:none;fill-rule:evenodd;fill:rgb(100%,100%,100%);fill-opacity:1;" d="M 0.199219 0.199219 L 0.199219 512.199219 L 512.199219 512.199219 L 512.199219 0.199219 Z M 0.199219 0.199219 "/>
</g>
<path style="fill:none;stroke-width:4;stroke-linecap:butt;stroke-linejoin:round;stroke:rgb(12.89978%,58.799744%,95.298767%);stroke-opacity:1;stroke-miterlimit:10;" d="M 387.073638 431.585906 C 387.073638 445.417937 375.858794 456.628875 362.026763 456.628875 C 348.194731 456.628875 336.983794 445.417937 336.983794 431.585906 C 336.983794 417.753875 348.194731 406.539031 362.026763 406.539031 C 375.858794 406.539031 387.073638 417.753875 387.073638 431.585906 " transform="matrix(1,0,0,-1,-41.3002,616.082)"/>
<path style="fill:none;stroke-width:4;stroke-linecap:butt;stroke-linejoin:round;stroke:rgb(12.89978%,58.799744%,95.298767%);stroke-opacity:1;stroke-miterlimit:10;" d="M 516.83145 403.507781 C 516.83145 423.6445 500.507231 439.968719 480.370513 439.968719 C 460.233794 439.968719 443.909575 423.6445 443.909575 403.507781 C 443.909575 383.371062 460.233794 367.046844 480.370513 367.046844 C 500.507231 367.046844 516.83145 383.371062 516.83145 403.507781 " transform="matrix(1,0,0,-1,-41.3002,616.082)"/>
<path style="fill:none;stroke-width:4;stroke-linecap:butt;stroke-linejoin:round;stroke:rgb(12.89978%,58.799744%,95.298767%);stroke-opacity:1;stroke-miterlimit:10;" d="M 407.186919 348.546844 C 407.186919 357.464812 399.95645 364.691375 391.042388 364.691375 C 382.124419 364.691375 374.897856 357.464812 374.897856 348.546844 C 374.897856 339.632781 382.124419 332.402312 391.042388 332.402312 C 399.95645 332.402312 407.186919 339.632781 407.186919 348.546844 " transform="matrix(1,0,0,-1,-41.3002,616.082)"/>
<path style=" stroke:none;fill-rule:evenodd;fill:rgb(0%,0%,0%);fill-opacity:1;" d="M 342.484375 199.628906 C 342.484375 198.632812 341.679688 197.828125 340.6875 197.828125 C 339.691406 197.828125 338.886719 198.632812 338.886719 199.628906 C 338.886719 200.621094 339.691406 201.429688 340.6875 201.429688 C 341.679688 201.429688 342.484375 200.621094 342.484375 199.628906 "/>
<path style=" stroke:none;fill-rule:evenodd;fill:rgb(0%,0%,0%);fill-opacity:1;" d="M 404.628906 216.558594 C 404.628906 215.5625 403.820312 214.757812 402.828125 214.757812 C 401.832031 214.757812 401.027344 215.5625 401.027344 216.558594 C 401.027344 217.550781 401.832031 218.355469 402.828125 218.355469 C 403.820312 218.355469 404.628906 217.550781 404.628906 216.558594 "/>
<path style=" stroke:none;fill-rule:evenodd;fill:rgb(0%,0%,0%);fill-opacity:1;" d="M 357.460938 252.515625 C 357.460938 251.519531 356.652344 250.714844 355.660156 250.714844 C 354.664062 250.714844 353.859375 251.519531 353.859375 252.515625 C 353.859375 253.507812 354.664062 254.3125 355.660156 254.3125 C 356.652344 254.3125 357.460938 253.507812 357.460938 252.515625 "/>
<path style=" stroke:none;fill-rule:evenodd;fill:rgb(0%,0%,0%);fill-opacity:1;" d="M 343.976562 281.796875 C 343.976562 280.804688 343.171875 279.996094 342.175781 279.996094 C 341.183594 279.996094 340.375 280.804688 340.375 281.796875 C 340.375 282.792969 341.183594 283.597656 342.175781 283.597656 C 343.171875 283.597656 343.976562 282.792969 343.976562 281.796875 "/>
<path style=" stroke:none;fill-rule:evenodd;fill:rgb(0%,0%,0%);fill-opacity:1;" d="M 298.234375 178.40625 C 298.234375 177.410156 297.429688 176.605469 296.4375 176.605469 C 295.441406 176.605469 294.636719 177.410156 294.636719 178.40625 C 294.636719 179.398438 295.441406 180.207031 296.4375 180.207031 C 297.429688 180.207031 298.234375 179.398438 298.234375 178.40625 "/>
<path style=" stroke:none;fill-rule:evenodd;fill:rgb(0%,0%,0%);fill-opacity:1;" d="M 476.488281 220.371094 C 476.488281 219.378906 475.679688 218.574219 474.6875 218.574219 C 473.691406 218.574219 472.886719 219.378906 472.886719 220.371094 C 472.886719 221.367188 473.691406 222.171875 474.6875 222.171875 C 475.679688 222.171875 476.488281 221.367188 476.488281 220.371094 "/>
<path style="fill:none;stroke-width:4;stroke-linecap:butt;stroke-linejoin:round;stroke:rgb(91.398621%,11.799622%,38.798523%);stroke-opacity:1;stroke-miterlimit:10;" d="M 444.335356 395.742156 C 444.335356 414.859344 428.835356 430.359344 409.722075 430.359344 C 390.604888 430.359344 375.108794 414.859344 375.108794 395.742156 C 375.108794 376.628875 390.604888 361.128875 409.722075 361.128875 C 428.835356 361.128875 444.335356 376.628875 444.335356 395.742156 " transform="matrix(1,0,0,-1,-41.3002,616.082)"/>
<path style="fill:none;stroke-width:4;stroke-linecap:butt;stroke-linejoin:round;stroke:rgb(91.398621%,11.799622%,38.798523%);stroke-opacity:1;stroke-miterlimit:10;" d="M 518.069731 415.128875 C 518.069731 465.707 477.069731 506.707 426.491606 506.707 C 375.917388 506.707 334.917388 465.707 334.917388 415.128875 C 334.917388 364.554656 375.917388 323.554656 426.491606 323.554656 C 477.069731 323.554656 518.069731 364.554656 518.069731 415.128875 " transform="matrix(1,0,0,-1,-41.3002,616.082)"/>
<path style="fill:none;stroke-width:4;stroke-linecap:butt;stroke-linejoin:round;stroke:rgb(37.599182%,48.999023%,54.499817%);stroke-opacity:1;stroke-miterlimit:10;" d="M 66.909575 530.457 L 477.858794 164.066375 " transform="matrix(1,0,0,-1,-41.3002,616.082)"/>
<path style="fill:none;stroke-width:2;stroke-linecap:butt;stroke-linejoin:round;stroke:rgb(0%,0%,0%);stroke-opacity:1;stroke-miterlimit:10;" d="M 81.780669 501.199187 L 528.093169 348.378875 " transform="matrix(1,0,0,-1,-41.3002,616.082)"/>
<path style="fill:none;stroke-width:2;stroke-linecap:butt;stroke-linejoin:round;stroke:rgb(0%,0%,0%);stroke-opacity:1;stroke-miterlimit:10;" d="M 80.995512 495.195281 L 526.647856 434.179656 " transform="matrix(1,0,0,-1,-41.3002,616.082)"/>
<path style="fill:none;stroke-width:2;stroke-linecap:butt;stroke-linejoin:round;stroke:rgb(0%,0%,0%);stroke-opacity:1;stroke-miterlimit:10;" d="M 162.382231 246.718719 L 524.100981 380.527312 " transform="matrix(1,0,0,-1,-41.3002,616.082)"/>
<path style="fill:none;stroke-width:2;stroke-linecap:butt;stroke-linejoin:round;stroke:rgb(0%,0%,0%);stroke-opacity:1;stroke-miterlimit:10;" d="M 191.530669 186.124969 L 508.241606 479.207 " transform="matrix(1,0,0,-1,-41.3002,616.082)"/>
<path style="fill:none;stroke-width:2;stroke-linecap:butt;stroke-linejoin:round;stroke:rgb(0%,0%,0%);stroke-opacity:1;stroke-miterlimit:10;" d="M 459.2377 163.421844 L 292.347075 522.082 " transform="matrix(1,0,0,-1,-41.3002,616.082)"/>
<path style="fill:none;stroke-width:2;stroke-linecap:butt;stroke-linejoin:round;stroke:rgb(0%,0%,0%);stroke-opacity:1;stroke-miterlimit:10;" d="M 452.835356 163.382781 L 357.565825 556.382781 " transform="matrix(1,0,0,-1,-41.3002,616.082)"/>
<path style="fill:none;stroke-width:2;stroke-linecap:butt;stroke-linejoin:round;stroke:rgb(100%,59.599304%,0%);stroke-opacity:1;stroke-miterlimit:10;" d="M 434.624419 487.039031 L 406.64395 369.183562 " transform="matrix(1,0,0,-1,-41.3002,616.082)"/>
<path style="fill:none;stroke-width:2;stroke-linecap:butt;stroke-linejoin:round;stroke:rgb(29.798889%,68.598938%,31.399536%);stroke-opacity:1;stroke-miterlimit:10;" d="M 414.323638 401.093719 L 370.546294 306.570281 " transform="matrix(1,0,0,-1,-41.3002,616.082)"/>
<path style="fill:none;stroke-width:2;stroke-linecap:butt;stroke-linejoin:round;stroke:rgb(100%,59.599304%,0%);stroke-opacity:1;stroke-miterlimit:10;" d="M 436.542388 408.980437 L 353.280669 379.816375 " transform="matrix(1,0,0,-1,-41.3002,616.082)"/>
<path style="fill:none;stroke-width:2;stroke-linecap:butt;stroke-linejoin:round;stroke:rgb(29.798889%,68.598938%,31.399536%);stroke-opacity:1;stroke-miterlimit:10;" d="M 527.01895 395.074187 L 414.323638 401.093719 " transform="matrix(1,0,0,-1,-41.3002,616.082)"/>
<path style="fill:none;stroke-width:2;stroke-linecap:butt;stroke-linejoin:round;stroke:rgb(29.798889%,68.598938%,31.399536%);stroke-opacity:1;stroke-miterlimit:10;" d="M 414.323638 401.093719 L 308.390044 451.874969 " transform="matrix(1,0,0,-1,-41.3002,616.082)"/>
<path style="fill:none;stroke-width:2;stroke-linecap:butt;stroke-linejoin:round;stroke:rgb(100%,59.599304%,0%);stroke-opacity:1;stroke-miterlimit:10;" d="M 451.565825 340.433562 L 401.933013 421.265594 " transform="matrix(1,0,0,-1,-41.3002,616.082)"/>
<path style=" stroke:none;fill-rule:evenodd;fill:rgb(93.699646%,42.399597%,0%);fill-opacity:1;" d="M 378.023438 214.988281 C 378.023438 212.226562 375.785156 209.988281 373.023438 209.988281 C 370.261719 209.988281 368.023438 212.226562 368.023438 214.988281 C 368.023438 217.746094 370.261719 219.988281 373.023438 219.988281 C 375.785156 219.988281 378.023438 217.746094 378.023438 214.988281 "/>
<path style=" stroke:none;fill-rule:evenodd;fill:rgb(100%,100%,100%);fill-opacity:1;" d="M 379.023438 214.988281 C 379.023438 211.671875 376.335938 208.988281 373.023438 208.988281 C 369.710938 208.988281 367.023438 211.671875 367.023438 214.988281 C 367.023438 218.300781 369.710938 220.988281 373.023438 220.988281 C 376.335938 220.988281 379.023438 218.300781 379.023438 214.988281 M 377.023438 214.988281 C 377.023438 212.777344 375.234375 210.988281 373.023438 210.988281 C 370.8125 210.988281 369.023438 212.777344 369.023438 214.988281 C 369.023438 217.195312 370.8125 218.988281 373.023438 218.988281 C 375.234375 218.988281 377.023438 217.195312 377.023438 214.988281 "/>
<path style=" stroke:none;fill-rule:evenodd;fill:rgb(21.598816%,27.799988%,30.999756%);fill-opacity:1;" d="M 322.382812 188.3125 C 322.382812 185.550781 320.144531 183.3125 317.382812 183.3125 C 314.621094 183.3125 312.382812 185.550781 312.382812 188.3125 C 312.382812 191.074219 314.621094 193.3125 317.382812 193.3125 C 320.144531 193.3125 322.382812 191.074219 322.382812 188.3125 "/>
<path style=" stroke:none;fill-rule:evenodd;fill:rgb(100%,100%,100%);fill-opacity:1;" d="M 323.382812 188.3125 C 323.382812 185 320.695312 182.3125 317.382812 182.3125 C 314.066406 182.3125 311.382812 185 311.382812 188.3125 C 311.382812 191.628906 314.066406 194.3125 317.382812 194.3125 C 320.695312 194.3125 323.382812 191.628906 323.382812 188.3125 M 321.382812 188.3125 C 321.382812 186.105469 319.589844 184.3125 317.382812 184.3125 C 315.171875 184.3125 313.382812 186.105469 313.382812 188.3125 C 313.382812 190.523438 315.171875 192.3125 317.382812 192.3125 C 319.589844 192.3125 321.382812 190.523438 321.382812 188.3125 "/>
<path style=" stroke:none;fill-rule:evenodd;fill:rgb(21.598816%,27.799988%,30.999756%);fill-opacity:1;" d="M 352.683594 269.703125 C 352.683594 266.941406 350.445312 264.703125 347.683594 264.703125 C 344.921875 264.703125 342.683594 266.941406 342.683594 269.703125 C 342.683594 272.464844 344.921875 274.703125 347.683594 274.703125 C 350.445312 274.703125 352.683594 272.464844 352.683594 269.703125 "/>
<path style=" stroke:none;fill-rule:evenodd;fill:rgb(100%,100%,100%);fill-opacity:1;" d="M 353.683594 269.703125 C 353.683594 266.386719 350.996094 263.703125 347.683594 263.703125 C 344.367188 263.703125 341.683594 266.386719 341.683594 269.703125 C 341.683594 273.015625 344.367188 275.703125 347.683594 275.703125 C 350.996094 275.703125 353.683594 273.015625 353.683594 269.703125 M 351.683594 269.703125 C 351.683594 267.492188 349.890625 265.703125 347.683594 265.703125 C 345.472656 265.703125 343.683594 267.492188 343.683594 269.703125 C 343.683594 271.910156 345.472656 273.703125 347.683594 273.703125 C 349.890625 273.703125 351.683594 271.910156 351.683594 269.703125 "/>
<path style=" stroke:none;fill-rule:evenodd;fill:rgb(21.598816%,27.799988%,30.999756%);fill-opacity:1;" d="M 438.800781 218.234375 C 438.800781 215.472656 436.5625 213.234375 433.800781 213.234375 C 431.039062 213.234375 428.800781 215.472656 428.800781 218.234375 C 428.800781 220.996094 431.039062 223.234375 433.800781 223.234375 C 436.5625 223.234375 438.800781 220.996094 438.800781 218.234375 "/>
<path style=" stroke:none;fill-rule:evenodd;fill:rgb(100%,100%,100%);fill-opacity:1;" d="M 439.800781 218.234375 C 439.800781 214.921875 437.113281 212.234375 433.800781 212.234375 C 430.484375 212.234375 427.800781 214.921875 427.800781 218.234375 C 427.800781 221.546875 430.484375 224.234375 433.800781 224.234375 C 437.113281 224.234375 439.800781 221.546875 439.800781 218.234375 M 437.800781 218.234375 C 437.800781 216.023438 436.007812 214.234375 433.800781 214.234375 C 431.589844 214.234375 429.800781 216.023438 429.800781 218.234375 C 429.800781 220.441406 431.589844 222.234375 433.800781 222.234375 C 436.007812 222.234375 437.800781 220.441406 437.800781 218.234375 "/>
<path style=" stroke:none;fill-rule:evenodd;fill:rgb(21.598816%,27.799988%,30.999756%);fill-opacity:1;" d="M 74.613281 124.855469 C 74.613281 122.097656 72.375 119.855469 69.613281 119.855469 C 66.851562 119.855469 64.613281 122.097656 64.613281 124.855469 C 64.613281 127.617188 66.851562 129.855469 69.613281 129.855469 C 72.375 129.855469 74.613281 127.617188 74.613281 124.855469 "/>
<path style=" stroke:none;fill-rule:evenodd;fill:rgb(100%,100%,100%);fill-opacity:1;" d="M 75.613281 124.855469 C 75.613281 121.542969 72.925781 118.855469 69.613281 118.855469 C 66.296875 118.855469 63.613281 121.542969 63.613281 124.855469 C 63.613281 128.171875 66.296875 130.855469 69.613281 130.855469 C 72.925781 130.855469 75.613281 128.171875 75.613281 124.855469 M 73.613281 124.855469 C 73.613281 122.648438 71.820312 120.855469 69.613281 120.855469 C 67.402344 120.855469 65.613281 122.648438 65.613281 124.855469 C 65.613281 127.066406 67.402344 128.855469 69.613281 128.855469 C 71.820312 128.855469 73.613281 127.066406 73.613281 124.855469 "/>
<path style=" stroke:none;fill-rule:evenodd;fill:rgb(21.598816%,27.799988%,30.999756%);fill-opacity:1;" d="M 283.589844 311.175781 C 283.589844 308.414062 281.351562 306.175781 278.589844 306.175781 C 275.828125 306.175781 273.589844 308.414062 273.589844 311.175781 C 273.589844 313.933594 275.828125 316.175781 278.589844 316.175781 C 281.351562 316.175781 283.589844 313.933594 283.589844 311.175781 "/>
<path style=" stroke:none;fill-rule:evenodd;fill:rgb(100%,100%,100%);fill-opacity:1;" d="M 284.589844 311.175781 C 284.589844 307.859375 281.902344 305.175781 278.589844 305.175781 C 275.277344 305.175781 272.589844 307.859375 272.589844 311.175781 C 272.589844 314.488281 275.277344 317.175781 278.589844 317.175781 C 281.902344 317.175781 284.589844 314.488281 284.589844 311.175781 M 282.589844 311.175781 C 282.589844 308.964844 280.796875 307.175781 278.589844 307.175781 C 276.378906 307.175781 274.589844 308.964844 274.589844 311.175781 C 274.589844 313.382812 276.378906 315.175781 278.589844 315.175781 C 280.796875 315.175781 282.589844 313.382812 282.589844 311.175781 "/>
<path style=" stroke:none;fill-rule:evenodd;fill:rgb(21.598816%,27.799988%,30.999756%);fill-opacity:1;" d="M 409.550781 423.886719 C 409.550781 421.125 407.3125 418.886719 404.550781 418.886719 C 401.789062 418.886719 399.550781 421.125 399.550781 423.886719 C 399.550781 426.644531 401.789062 428.886719 404.550781 428.886719 C 407.3125 428.886719 409.550781 426.644531 409.550781 423.886719 "/>
<path style=" stroke:none;fill-rule:evenodd;fill:rgb(100%,100%,100%);fill-opacity:1;" d="M 410.550781 423.886719 C 410.550781 420.570312 407.863281 417.886719 404.550781 417.886719 C 401.234375 417.886719 398.550781 420.570312 398.550781 423.886719 C 398.550781 427.199219 401.234375 429.886719 404.550781 429.886719 C 407.863281 429.886719 410.550781 427.199219 410.550781 423.886719 M 408.550781 423.886719 C 408.550781 421.675781 406.757812 419.886719 404.550781 419.886719 C 402.339844 419.886719 400.550781 421.675781 400.550781 423.886719 C 400.550781 426.09375 402.339844 427.886719 404.550781 427.886719 C 406.757812 427.886719 408.550781 426.09375 408.550781 423.886719 "/>
</g>
</svg>
