<?xml version="1.0" encoding="UTF-8"?>
<svg xmlns="http://www.w3.org/2000/svg" xmlns:xlink="http://www.w3.org/1999/xlink" width="513pt" height="513pt" viewBox="0 0 513 513" version="1.1">
<g id="surface25195">
<path style="fill:none;stroke-width:4;stroke-linecap:butt;stroke-linejoin:round;stroke:rgb(12.9%,58.8%,95.3%);stroke-opacity:1;stroke-miterlimit:10;" d="M 387.074219 431.585938 C 387.074219 445.417969 375.859375 456.628906 362.027344 456.628906 C 348.195312 456.628906 336.984375 445.417969 336.984375 431.585938 C 336.984375 417.753906 348.195312 406.539062 362.027344 406.539062 C 375.859375 406.539062 387.074219 417.753906 387.074219 431.585938 Z M 387.074219 431.585938 " transform="matrix(1,0,0,-1,-41,616)"/>
<path style="fill:none;stroke-width:4;stroke-linecap:butt;stroke-linejoin:round;stroke:rgb(12.9%,58.8%,95.3%);stroke-opacity:1;stroke-miterlimit:10;" d="M 516.828125 403.507812 C 516.828125 423.644531 500.507812 439.96875 480.371094 439.96875 C 460.234375 439.96875 443.910156 423.644531 443.910156 403.507812 C 443.910156 383.371094 460.234375 367.046875 480.371094 367.046875 C 500.507812 367.046875 516.828125 383.371094 516.828125 403.507812 Z M 516.828125 403.507812 " transform="matrix(1,0,0,-1,-41,616)"/>
<path style="fill:none;stroke-width:4;stroke-linecap:butt;stroke-linejoin:round;stroke:rgb(12.9%,58.8%,95.3%);stroke-opacity:1;stroke-miterlimit:10;" d="M 407.1875 348.546875 C 407.1875 357.464844 399.957031 364.691406 391.042969 364.691406 C 382.125 364.691406 374.898438 357.464844 374.898438 348.546875 C 374.898438 339.628906 382.125 332.402344 391.042969 332.402344 C 399.957031 332.402344 407.1875 339.628906 407.1875 348.546875 Z M 407.1875 348.546875 " transform="matrix(1,0,0,-1,-41,616)"/>
<path style=" stroke:none;fill-rule:evenodd;fill:rgb(0%,0%,0%);fill-opacity:1;" d="M 342.785156 199.546875 C 342.785156 197.144531 339.1875 197.144531 339.1875 199.546875 C 339.1875 201.945312 342.785156 201.945312 342.785156 199.546875 Z M 342.785156 199.546875 "/>
<path style=" stroke:none;fill-rule:evenodd;fill:rgb(0%,0%,0%);fill-opacity:1;" d="M 404.925781 216.476562 C 404.925781 214.074219 401.328125 214.074219 401.328125 216.476562 C 401.328125 218.875 404.925781 218.875 404.925781 216.476562 Z M 404.925781 216.476562 "/>
<path style=" stroke:none;fill-rule:evenodd;fill:rgb(0%,0%,0%);fill-opacity:1;" d="M 357.757812 252.433594 C 357.757812 250.03125 354.160156 250.03125 354.160156 252.433594 C 354.160156 254.832031 357.757812 254.832031 357.757812 252.433594 Z M 357.757812 252.433594 "/>
<path style=" stroke:none;fill-rule:evenodd;fill:rgb(0%,0%,0%);fill-opacity:1;" d="M 344.277344 281.714844 C 344.277344 279.316406 340.675781 279.316406 340.675781 281.714844 C 340.675781 284.117188 344.277344 284.117188 344.277344 281.714844 Z M 344.277344 281.714844 "/>
<path style=" stroke:none;fill-rule:evenodd;fill:rgb(0%,0%,0%);fill-opacity:1;" d="M 298.535156 178.324219 C 298.535156 175.921875 294.9375 175.921875 294.9375 178.324219 C 294.9375 180.722656 298.535156 180.722656 298.535156 178.324219 Z M 298.535156 178.324219 "/>
<path style=" stroke:none;fill-rule:evenodd;fill:rgb(0%,0%,0%);fill-opacity:1;" d="M 476.785156 220.289062 C 476.785156 217.890625 473.1875 217.890625 473.1875 220.289062 C 473.1875 222.691406 476.785156 222.691406 476.785156 220.289062 Z M 476.785156 220.289062 "/>
<path style="fill:none;stroke-width:4;stroke-linecap:butt;stroke-linejoin:round;stroke:rgb(91.4%,11.8%,38.8%);stroke-opacity:1;stroke-miterlimit:10;" d="M 444.335938 395.746094 C 444.335938 414.859375 428.835938 430.359375 409.71875 430.359375 C 390.605469 430.359375 375.105469 414.859375 375.105469 395.746094 C 375.105469 376.628906 390.605469 361.128906 409.71875 361.128906 C 428.835938 361.128906 444.335938 376.628906 444.335938 395.746094 Z M 444.335938 395.746094 " transform="matrix(1,0,0,-1,-41,616)"/>
<path style="fill:none;stroke-width:4;stroke-linecap:butt;stroke-linejoin:round;stroke:rgb(91.4%,11.8%,38.8%);stroke-opacity:1;stroke-miterlimit:10;" d="M 518.070312 415.128906 C 518.070312 465.707031 477.070312 506.707031 426.492188 506.707031 C 375.917969 506.707031 334.917969 465.707031 334.917969 415.128906 C 334.917969 364.554688 375.917969 323.550781 426.492188 323.550781 C 477.070312 323.550781 518.070312 364.554688 518.070312 415.128906 Z M 518.070312 415.128906 " transform="matrix(1,0,0,-1,-41,616)"/>
<path style="fill:none;stroke-width:4;stroke-linecap:butt;stroke-linejoin:round;stroke:rgb(37.6%,49%,54.5%);stroke-opacity:1;stroke-miterlimit:10;" d="M 66.90625 530.457031 L 477.859375 164.066406 " transform="matrix(1,0,0,-1,-41,616)"/>
<path style="fill:none;stroke-width:2;stroke-linecap:butt;stroke-linejoin:round;stroke:rgb(0%,0%,0%);stroke-opacity:1;stroke-miterlimit:10;" d="M 81.777344 501.203125 L 528.09375 348.378906 " transform="matrix(1,0,0,-1,-41,616)"/>
<path style="fill:none;stroke-width:2;stroke-linecap:butt;stroke-linejoin:round;stroke:rgb(0%,0%,0%);stroke-opacity:1;stroke-miterlimit:10;" d="M 80.992188 495.195312 L 526.648438 434.179688 " transform="matrix(1,0,0,-1,-41,616)"/>
<path style="fill:none;stroke-width:2;stroke-linecap:butt;stroke-linejoin:round;stroke:rgb(0%,0%,0%);stroke-opacity:1;stroke-miterlimit:10;" d="M 162.382812 246.71875 L 524.101562 380.527344 " transform="matrix(1,0,0,-1,-41,616)"/>
<path style="fill:none;stroke-width:2;stroke-linecap:butt;stroke-linejoin:round;stroke:rgb(0%,0%,0%);stroke-opacity:1;stroke-miterlimit:10;" d="M 191.53125 186.125 L 508.242188 479.207031 " transform="matrix(1,0,0,-1,-41,616)"/>
<path style="fill:none;stroke-width:2;stroke-linecap:butt;stroke-linejoin:round;stroke:rgb(0%,0%,0%);stroke-opacity:1;stroke-miterlimit:10;" d="M 459.238281 163.421875 L 292.347656 522.082031 " transform="matrix(1,0,0,-1,-41,616)"/>
<path style="fill:none;stroke-width:2;stroke-linecap:butt;stroke-linejoin:round;stroke:rgb(0%,0%,0%);stroke-opacity:1;stroke-miterlimit:10;" d="M 452.832031 163.382812 L 357.566406 556.382812 " transform="matrix(1,0,0,-1,-41,616)"/>
<path style="fill:none;stroke-width:2;stroke-linecap:butt;stroke-linejoin:round;stroke:rgb(100%,59.6%,0%);stroke-opacity:1;stroke-miterlimit:10;" d="M 434.625 487.039062 L 406.640625 369.183594 " transform="matrix(1,0,0,-1,-41,616)"/>
<path style="fill:none;stroke-width:2;stroke-linecap:butt;stroke-linejoin:round;stroke:rgb(29.8%,68.6%,31.4%);stroke-opacity:1;stroke-miterlimit:10;" d="M 414.324219 401.09375 L 370.546875 306.570312 " transform="matrix(1,0,0,-1,-41,616)"/>
<path style="fill:none;stroke-width:2;stroke-linecap:butt;stroke-linejoin:round;stroke:rgb(100%,59.6%,0%);stroke-opacity:1;stroke-miterlimit:10;" d="M 436.542969 408.980469 L 353.28125 379.816406 " transform="matrix(1,0,0,-1,-41,616)"/>
<path style="fill:none;stroke-width:2;stroke-linecap:butt;stroke-linejoin:round;stroke:rgb(29.8%,68.6%,31.4%);stroke-opacity:1;stroke-miterlimit:10;" d="M 527.019531 395.074219 L 414.324219 401.09375 " transform="matrix(1,0,0,-1,-41,616)"/>
<path style="fill:none;stroke-width:2;stroke-linecap:butt;stroke-linejoin:round;stroke:rgb(29.8%,68.6%,31.4%);stroke-opacity:1;stroke-miterlimit:10;" d="M 414.324219 401.09375 L 308.390625 451.875 " transform="matrix(1,0,0,-1,-41,616)"/>
<path style="fill:none;stroke-width:2;stroke-linecap:butt;stroke-linejoin:round;stroke:rgb(100%,59.6%,0%);stroke-opacity:1;stroke-miterlimit:10;" d="M 451.566406 340.433594 L 401.933594 421.265625 " transform="matrix(1,0,0,-1,-41,616)"/>
<path style=" stroke:none;fill-rule:evenodd;fill:rgb(93.7%,42.4%,0%);fill-opacity:1;" d="M 378.324219 214.90625 C 378.324219 208.238281 368.324219 208.238281 368.324219 214.90625 C 368.324219 221.570312 378.324219 221.570312 378.324219 214.90625 Z M 378.324219 214.90625 "/>
<path style=" stroke:none;fill-rule:evenodd;fill:rgb(100%,100%,100%);fill-opacity:1;" d="M 379.324219 214.90625 C 379.324219 211.589844 376.636719 208.90625 373.324219 208.90625 C 370.011719 208.90625 367.324219 211.589844 367.324219 214.90625 C 367.324219 218.21875 370.011719 220.90625 373.324219 220.90625 C 376.636719 220.90625 379.324219 218.21875 379.324219 214.90625 Z M 377.324219 214.90625 C 377.324219 209.570312 369.324219 209.570312 369.324219 214.90625 C 369.324219 220.238281 377.324219 220.238281 377.324219 214.90625 Z M 377.324219 214.90625 "/>
<path style=" stroke:none;fill-rule:evenodd;fill:rgb(21.6%,27.8%,31%);fill-opacity:1;" d="M 322.679688 188.230469 C 322.679688 181.566406 312.679688 181.566406 312.679688 188.230469 C 312.679688 194.898438 322.679688 194.898438 322.679688 188.230469 Z M 322.679688 188.230469 "/>
<path style=" stroke:none;fill-rule:evenodd;fill:rgb(100%,100%,100%);fill-opacity:1;" d="M 323.679688 188.230469 C 323.679688 184.917969 320.996094 182.230469 317.679688 182.230469 C 314.367188 182.230469 311.679688 184.917969 311.679688 188.230469 C 311.679688 191.546875 314.367188 194.230469 317.679688 194.230469 C 320.996094 194.230469 323.679688 191.546875 323.679688 188.230469 Z M 321.679688 188.230469 C 321.679688 182.898438 313.679688 182.898438 313.679688 188.230469 C 313.679688 193.566406 321.679688 193.566406 321.679688 188.230469 Z M 321.679688 188.230469 "/>
<path style=" stroke:none;fill-rule:evenodd;fill:rgb(21.6%,27.8%,31%);fill-opacity:1;" d="M 352.984375 269.621094 C 352.984375 262.953125 342.984375 262.953125 342.984375 269.621094 C 342.984375 276.285156 352.984375 276.285156 352.984375 269.621094 Z M 352.984375 269.621094 "/>
<path style=" stroke:none;fill-rule:evenodd;fill:rgb(100%,100%,100%);fill-opacity:1;" d="M 353.984375 269.621094 C 353.984375 266.304688 351.296875 263.621094 347.984375 263.621094 C 344.667969 263.621094 341.984375 266.304688 341.984375 269.621094 C 341.984375 272.933594 344.667969 275.621094 347.984375 275.621094 C 351.296875 275.621094 353.984375 272.933594 353.984375 269.621094 Z M 351.984375 269.621094 C 351.984375 264.285156 343.984375 264.285156 343.984375 269.621094 C 343.984375 274.953125 351.984375 274.953125 351.984375 269.621094 Z M 351.984375 269.621094 "/>
<path style=" stroke:none;fill-rule:evenodd;fill:rgb(21.6%,27.8%,31%);fill-opacity:1;" d="M 439.101562 218.152344 C 439.101562 211.484375 429.101562 211.484375 429.101562 218.152344 C 429.101562 224.820312 439.101562 224.820312 439.101562 218.152344 Z M 439.101562 218.152344 "/>
<path style=" stroke:none;fill-rule:evenodd;fill:rgb(100%,100%,100%);fill-opacity:1;" d="M 440.101562 218.152344 C 440.101562 214.839844 437.414062 212.152344 434.101562 212.152344 C 430.785156 212.152344 428.101562 214.839844 428.101562 218.152344 C 428.101562 221.464844 430.785156 224.152344 434.101562 224.152344 C 437.414062 224.152344 440.101562 221.464844 440.101562 218.152344 Z M 438.101562 218.152344 C 438.101562 212.820312 430.101562 212.820312 430.101562 218.152344 C 430.101562 223.484375 438.101562 223.484375 438.101562 218.152344 Z M 438.101562 218.152344 "/>
<path style=" stroke:none;fill-rule:evenodd;fill:rgb(21.6%,27.8%,31%);fill-opacity:1;" d="M 74.914062 124.773438 C 74.914062 118.109375 64.914062 118.109375 64.914062 124.773438 C 64.914062 131.441406 74.914062 131.441406 74.914062 124.773438 Z M 74.914062 124.773438 "/>
<path style=" stroke:none;fill-rule:evenodd;fill:rgb(100%,100%,100%);fill-opacity:1;" d="M 75.914062 124.773438 C 75.914062 121.460938 73.226562 118.773438 69.914062 118.773438 C 66.597656 118.773438 63.914062 121.460938 63.914062 124.773438 C 63.914062 128.089844 66.597656 130.773438 69.914062 130.773438 C 73.226562 130.773438 75.914062 128.089844 75.914062 124.773438 Z M 73.914062 124.773438 C 73.914062 119.441406 65.914062 119.441406 65.914062 124.773438 C 65.914062 130.109375 73.914062 130.109375 73.914062 124.773438 Z M 73.914062 124.773438 "/>
<path style=" stroke:none;fill-rule:evenodd;fill:rgb(21.6%,27.8%,31%);fill-opacity:1;" d="M 283.890625 311.09375 C 283.890625 304.425781 273.890625 304.425781 273.890625 311.09375 C 273.890625 317.757812 283.890625 317.757812 283.890625 311.09375 Z M 283.890625 311.09375 "/>
<path style=" stroke:none;fill-rule:evenodd;fill:rgb(100%,100%,100%);fill-opacity:1;" d="M 284.890625 311.09375 C 284.890625 307.777344 282.203125 305.09375 278.890625 305.09375 C 275.578125 305.09375 272.890625 307.777344 272.890625 311.09375 C 272.890625 314.40625 275.578125 317.09375 278.890625 317.09375 C 282.203125 317.09375 284.890625 314.40625 284.890625 311.09375 Z M 282.890625 311.09375 C 282.890625 305.757812 274.890625 305.757812 274.890625 311.09375 C 274.890625 316.425781 282.890625 316.425781 282.890625 311.09375 Z M 282.890625 311.09375 "/>
<path style=" stroke:none;fill-rule:evenodd;fill:rgb(21.6%,27.8%,31%);fill-opacity:1;" d="M 409.851562 423.804688 C 409.851562 417.136719 399.851562 417.136719 399.851562 423.804688 C 399.851562 430.46875 409.851562 430.46875 409.851562 423.804688 Z M 409.851562 423.804688 "/>
<path style=" stroke:none;fill-rule:evenodd;fill:rgb(100%,100%,100%);fill-opacity:1;" d="M 410.851562 423.804688 C 410.851562 420.488281 408.164062 417.804688 404.851562 417.804688 C 401.535156 417.804688 398.851562 420.488281 398.851562 423.804688 C 398.851562 427.117188 401.535156 429.804688 404.851562 429.804688 C 408.164062 429.804688 410.851562 427.117188 410.851562 423.804688 Z M 408.851562 423.804688 C 408.851562 418.46875 400.851562 418.46875 400.851562 423.804688 C 400.851562 429.136719 408.851562 429.136719 408.851562 423.804688 Z M 408.851562 423.804688 "/>
</g>
</svg>
