<?xml version="1.0" encoding="UTF-8"?>
<svg xmlns="http://www.w3.org/2000/svg" xmlns:xlink="http://www.w3.org/1999/xlink" width="100pt" height="52pt" viewBox="0 0 100 52" version="1.1">
<g id="surface25840">
<path style="fill-rule:evenodd;fill:rgb(87.8%,87.8%,87.8%);fill-opacity:1;stroke-width:0.4;stroke-linecap:butt;stroke-linejoin:round;stroke:rgb(0%,0%,0%);stroke-opacity:1;stroke-miterlimit:10;" d="M 297.507812 696.070312 C 297.507812 696.070312 297.507812 696.070312 297.972656 696.390625 C 298.441406 696.707031 299.375 697.339844 300.179688 697.988281 C 300.988281 698.636719 301.667969 699.292969 302.261719 700.191406 C 302.859375 701.089844 303.375 702.222656 303.589844 703.230469 C 303.800781 704.238281 303.710938 705.121094 303.296875 706.09375 C 302.878906 707.070312 302.132812 708.136719 301.015625 709.199219 C 299.902344 710.257812 298.414062 711.308594 296.726562 712.25 C 295.035156 713.191406 293.144531 714.027344 291.425781 714.6875 C 289.703125 715.347656 288.160156 715.835938 286.394531 716.3125 C 284.632812 716.789062 282.652344 717.257812 280.800781 717.640625 C 278.949219 718.023438 277.230469 718.320312 275.292969 718.601562 C 273.355469 718.878906 271.207031 719.136719 269.210938 719.335938 C 267.214844 719.53125 265.375 719.667969 263.183594 719.765625 C 260.996094 719.867188 258.453125 719.933594 256.191406 719.945312 C 253.925781 719.957031 251.9375 719.914062 249.949219 719.828125 C 247.960938 719.746094 245.96875 719.617188 244.136719 719.464844 C 242.304688 719.3125 240.632812 719.136719 239.105469 718.945312 C 237.582031 718.757812 236.203125 718.558594 234.453125 718.25 C 232.703125 717.941406 230.582031 717.523438 228.609375 717.066406 C 226.636719 716.609375 224.816406 716.113281 223.027344 715.539062 C 221.242188 714.964844 219.488281 714.3125 218.003906 713.675781 C 216.519531 713.039062 215.300781 712.417969 214.101562 711.664062 C 212.902344 710.910156 211.722656 710.023438 210.808594 709.148438 C 209.898438 708.269531 209.25 707.402344 208.832031 706.449219 C 208.414062 705.496094 208.222656 704.457031 208.242188 703.574219 C 208.265625 702.6875 208.496094 701.953125 208.890625 701.21875 C 209.28125 700.484375 209.835938 699.75 210.476562 699.09375 C 211.121094 698.4375 211.855469 697.863281 212.566406 697.355469 C 213.277344 696.847656 213.964844 696.414062 214.308594 696.195312 C 214.652344 695.980469 214.652344 695.980469 214.652344 695.980469 C 214.652344 695.980469 214.652344 695.980469 215.378906 696.347656 C 216.101562 696.714844 217.546875 697.453125 218.9375 698.058594 C 220.324219 698.664062 221.660156 699.140625 223.175781 699.613281 C 224.6875 700.082031 226.386719 700.550781 228.117188 700.964844 C 229.847656 701.382812 231.613281 701.746094 233.179688 702.039062 C 234.75 702.328125 236.121094 702.546875 237.65625 702.753906 C 239.1875 702.960938 240.882812 703.160156 242.539062 703.324219 C 244.199219 703.488281 245.820312 703.617188 247.28125 703.710938 C 248.746094 703.804688 250.050781 703.863281 251.460938 703.90625 C 252.875 703.949219 254.394531 703.976562 255.761719 703.980469 C 257.125 703.984375 258.332031 703.96875 259.433594 703.945312 C 260.539062 703.921875 261.542969 703.886719 262.898438 703.8125 C 264.257812 703.738281 265.972656 703.628906 267.632812 703.492188 C 269.292969 703.355469 270.894531 703.1875 272.550781 702.984375 C 274.203125 702.777344 275.910156 702.53125 277.574219 702.25 C 279.242188 701.96875 280.871094 701.65625 282.40625 701.320312 C 283.9375 700.984375 285.375 700.625 286.636719 700.28125 C 287.898438 699.9375 288.984375 699.601562 290.121094 699.214844 C 291.257812 698.824219 292.453125 698.375 293.691406 697.84375 C 294.929688 697.308594 296.21875 696.691406 296.863281 696.382812 C 297.507812 696.070312 297.507812 696.070312 297.507812 696.070312 Z M 297.507812 696.070312 " transform="matrix(1,0,0,-1,-206,722)"/>
<path style="fill:none;stroke-width:2;stroke-linecap:butt;stroke-linejoin:round;stroke:rgb(0%,0%,0%);stroke-opacity:1;stroke-miterlimit:10;" d="M 304 704 C 304 712.835938 282.507812 720 256 720 C 229.492188 720 208 712.835938 208 704 C 208 695.164062 229.492188 688 256 688 C 282.507812 688 304 695.164062 304 704 Z M 304 704 " transform="matrix(1,0,0,-1,-206,722)"/>
<path style="fill:none;stroke-width:2;stroke-linecap:butt;stroke-linejoin:round;stroke:rgb(0%,0%,0%);stroke-opacity:1;stroke-miterlimit:10;" d="M 304 688 C 304 696.835938 282.507812 704 256 704 C 229.492188 704 208 696.835938 208 688 C 208 679.164062 229.492188 672 256 672 C 282.507812 672 304 679.164062 304 688 Z M 304 688 " transform="matrix(1,0,0,-1,-206,722)"/>
<path style="fill:none;stroke-width:2;stroke-linecap:butt;stroke-linejoin:round;stroke:rgb(0%,0%,0%);stroke-opacity:1;stroke-miterlimit:10;" d="M 208 704 L 208 688 " transform="matrix(1,0,0,-1,-206,722)"/>
<path style="fill:none;stroke-width:2;stroke-linecap:butt;stroke-linejoin:round;stroke:rgb(0%,0%,0%);stroke-opacity:1;stroke-miterlimit:10;" d="M 304 704 L 304 688 " transform="matrix(1,0,0,-1,-206,722)"/>
<path style="fill:none;stroke-width:0.4;stroke-linecap:butt;stroke-linejoin:round;stroke:rgb(0%,0%,0%);stroke-opacity:1;stroke-miterlimit:10;" d="M 208 696 C 208 704.835938 229.492188 712 256 712 C 282.507812 712 304 704.835938 304 696 " transform="matrix(1,0,0,-1,-206,722)"/>
<path style="fill-rule:evenodd;fill:rgb(45.9%,45.9%,45.9%);fill-opacity:1;stroke-width:2;stroke-linecap:butt;stroke-linejoin:round;stroke:rgb(0%,0%,0%);stroke-opacity:1;stroke-miterlimit:10;" d="M 208 703.960938 C 208 703.929688 208 703.929688 208 703.191406 C 208 702.457031 208 700.984375 208 699.050781 C 208 697.117188 208 694.722656 208.003906 692.726562 C 208.007812 690.734375 208.011719 689.140625 208.015625 688.34375 C 208.019531 687.546875 208.019531 687.546875 208.019531 687.546875 C 208.019531 687.546875 208.019531 687.546875 208.050781 687.371094 C 208.082031 687.199219 208.148438 686.847656 208.246094 686.507812 C 208.34375 686.167969 208.476562 685.832031 208.675781 685.453125 C 208.875 685.074219 209.136719 684.652344 209.582031 684.097656 C 210.027344 683.546875 210.652344 682.867188 211.648438 682.074219 C 212.644531 681.285156 214.011719 680.378906 215.195312 679.691406 C 216.378906 679.003906 217.378906 678.535156 218.507812 678.0625 C 219.636719 677.59375 220.898438 677.121094 222.292969 676.664062 C 223.6875 676.207031 225.210938 675.761719 226.707031 675.371094 C 228.203125 674.984375 229.667969 674.648438 231.21875 674.335938 C 232.773438 674.023438 234.410156 673.738281 235.835938 673.511719 C 237.261719 673.28125 238.472656 673.117188 240.0625 672.941406 C 241.648438 672.761719 243.617188 672.570312 245.59375 672.425781 C 247.566406 672.277344 249.554688 672.171875 251.40625 672.109375 C 253.257812 672.046875 254.972656 672.023438 256.847656 672.039062 C 258.722656 672.054688 260.753906 672.109375 262.929688 672.21875 C 265.105469 672.332031 267.421875 672.5 269.421875 672.6875 C 271.417969 672.871094 273.097656 673.074219 274.671875 673.292969 C 276.246094 673.515625 277.71875 673.753906 279.207031 674.027344 C 280.695312 674.304688 282.191406 674.617188 283.535156 674.929688 C 284.878906 675.238281 286.0625 675.546875 287.179688 675.863281 C 288.296875 676.183594 289.351562 676.511719 290.308594 676.839844 C 291.265625 677.164062 292.128906 677.484375 293.332031 678.015625 C 294.53125 678.542969 296.070312 679.28125 296.996094 679.746094 C 297.921875 680.210938 298.234375 680.402344 298.96875 680.972656 C 299.703125 681.542969 300.859375 682.496094 301.648438 683.28125 C 302.433594 684.066406 302.855469 684.683594 303.152344 685.203125 C 303.449219 685.722656 303.628906 686.144531 303.75 686.609375 C 303.871094 687.074219 303.9375 687.582031 303.96875 687.835938 C 304 688.09375 304 688.09375 304 688.09375 C 304 688.09375 304 688.09375 304 688.738281 C 304 689.382812 304 690.671875 304 692.265625 C 304 693.863281 304 695.765625 304 697.792969 C 304 699.816406 304 701.964844 304 703.039062 C 304 704.113281 304 704.113281 304 704.113281 C 304 704.113281 304 704.113281 303.960938 703.832031 C 303.921875 703.554688 303.847656 702.996094 303.714844 702.503906 C 303.582031 702.007812 303.394531 701.582031 303.117188 701.101562 C 302.84375 700.625 302.480469 700.09375 302.039062 699.574219 C 301.59375 699.054688 301.0625 698.542969 300.1875 697.882812 C 299.308594 697.222656 298.082031 696.410156 297.09375 695.820312 C 296.101562 695.230469 295.347656 694.859375 294.511719 694.484375 C 293.675781 694.109375 292.757812 693.734375 291.898438 693.40625 C 291.035156 693.078125 290.238281 692.800781 289.492188 692.554688 C 288.746094 692.308594 288.050781 692.097656 286.957031 691.800781 C 285.863281 691.503906 284.367188 691.125 282.78125 690.769531 C 281.195312 690.414062 279.519531 690.082031 278.023438 689.816406 C 276.523438 689.554688 275.207031 689.351562 273.417969 689.132812 C 271.628906 688.914062 269.367188 688.671875 267.316406 688.5 C 265.265625 688.324219 263.421875 688.21875 261.433594 688.144531 C 259.449219 688.074219 257.316406 688.039062 255.414062 688.039062 C 253.515625 688.039062 251.851562 688.078125 250.257812 688.140625 C 248.664062 688.203125 247.144531 688.292969 245.40625 688.429688 C 243.667969 688.566406 241.710938 688.753906 239.667969 689.007812 C 237.625 689.257812 235.492188 689.574219 233.769531 689.863281 C 232.046875 690.152344 230.734375 690.414062 229.722656 690.628906 C 228.707031 690.84375 227.996094 691.011719 226.988281 691.277344 C 225.976562 691.542969 224.671875 691.902344 223.339844 692.324219 C 222.007812 692.742188 220.648438 693.214844 219.53125 693.644531 C 218.414062 694.070312 217.539062 694.449219 216.496094 694.980469 C 215.453125 695.507812 214.242188 696.191406 213.238281 696.84375 C 212.234375 697.5 211.445312 698.128906 210.800781 698.742188 C 210.15625 699.355469 209.65625 699.960938 209.300781 700.449219 C 208.945312 700.9375 208.734375 701.3125 208.570312 701.65625 C 208.40625 701.996094 208.292969 702.300781 208.207031 702.707031 C 208.121094 703.109375 208.0625 703.609375 208.03125 703.832031 C 208 704.050781 208 703.992188 208 703.960938 Z M 208 703.960938 " transform="matrix(1,0,0,-1,-206,722)"/>
<path style="fill:none;stroke-width:0.4;stroke-linecap:butt;stroke-linejoin:round;stroke:rgb(0%,0%,0%);stroke-opacity:1;stroke-miterlimit:10;" d="M 208 696 C 208 687.164062 229.492188 680 256 680 C 282.507812 680 304 687.164062 304 696 " transform="matrix(1,0,0,-1,-206,722)"/>
<path style="fill:none;stroke-width:1.2;stroke-linecap:round;stroke-linejoin:round;stroke:rgb(0%,0%,0%);stroke-opacity:1;stroke-miterlimit:10;" d="M 214.863281 692.566406 C 214.863281 692.566406 214.863281 692.566406 214.886719 691.007812 C 214.910156 689.449219 214.957031 686.332031 215.640625 684.46875 C 216.328125 682.601562 217.648438 681.988281 218.78125 682.699219 C 219.914062 683.40625 220.859375 685.4375 222.417969 686.523438 C 223.976562 687.609375 226.148438 687.75 227.730469 686.804688 C 229.3125 685.863281 230.304688 683.832031 231.53125 682.34375 C 232.757812 680.855469 234.222656 679.910156 236.300781 679.652344 C 238.378906 679.390625 241.070312 679.816406 242.417969 680.03125 C 243.761719 680.242188 243.761719 680.242188 243.761719 680.242188 " transform="matrix(1,0,0,-1,-206,722)"/>
<path style="fill-rule:evenodd;fill:rgb(0%,0%,0%);fill-opacity:1;stroke-width:1.2;stroke-linecap:round;stroke-linejoin:round;stroke:rgb(0%,0%,0%);stroke-opacity:1;stroke-miterlimit:10;" d="M 243.761719 680.242188 L 238.5625 681.105469 L 239.082031 677.816406 Z M 243.761719 680.242188 " transform="matrix(1,0,0,-1,-206,722)"/>
<path style="fill:none;stroke-width:1.2;stroke-linecap:round;stroke-linejoin:round;stroke:rgb(0%,0%,0%);stroke-opacity:1;stroke-miterlimit:10;" d="M 297.136719 699.433594 C 297.136719 699.433594 297.136719 699.433594 297.113281 700.992188 C 297.089844 702.550781 297.042969 705.667969 296.359375 707.53125 C 295.671875 709.398438 294.351562 710.011719 293.21875 709.300781 C 292.085938 708.59375 291.140625 706.5625 289.582031 705.476562 C 288.023438 704.390625 285.851562 704.25 284.269531 705.195312 C 282.6875 706.136719 281.695312 708.167969 280.46875 709.65625 C 279.242188 711.144531 277.777344 712.089844 275.699219 712.347656 C 273.621094 712.609375 270.929688 712.183594 269.582031 711.96875 C 268.238281 711.757812 268.238281 711.757812 268.238281 711.757812 " transform="matrix(1,0,0,-1,-206,722)"/>
<path style="fill-rule:evenodd;fill:rgb(0%,0%,0%);fill-opacity:1;stroke-width:1.2;stroke-linecap:round;stroke-linejoin:round;stroke:rgb(0%,0%,0%);stroke-opacity:1;stroke-miterlimit:10;" d="M 268.238281 711.757812 L 273.4375 710.894531 L 272.917969 714.183594 Z M 268.238281 711.757812 " transform="matrix(1,0,0,-1,-206,722)"/>
<path style="fill:none;stroke-width:0.4;stroke-linecap:butt;stroke-linejoin:round;stroke:rgb(0%,0%,0%);stroke-opacity:1;stroke-miterlimit:10;" d="M 270.832031 675.824219 L 270.832031 685.824219 " transform="matrix(1,0,0,-1,-206,722)"/>
<path style="fill-rule:evenodd;fill:rgb(0%,0%,0%);fill-opacity:1;stroke-width:0.4;stroke-linecap:butt;stroke-linejoin:round;stroke:rgb(0%,0%,0%);stroke-opacity:1;stroke-miterlimit:10;" d="M 270.832031 685.824219 L 269.835938 682.824219 L 271.832031 682.824219 Z M 270.832031 685.824219 " transform="matrix(1,0,0,-1,-206,722)"/>
<path style="fill:none;stroke-width:0.4;stroke-linecap:butt;stroke-linejoin:round;stroke:rgb(0%,0%,0%);stroke-opacity:1;stroke-miterlimit:10;" d="M 280 677.179688 L 280 687.179688 " transform="matrix(1,0,0,-1,-206,722)"/>
<path style="fill-rule:evenodd;fill:rgb(0%,0%,0%);fill-opacity:1;stroke-width:0.4;stroke-linecap:butt;stroke-linejoin:round;stroke:rgb(0%,0%,0%);stroke-opacity:1;stroke-miterlimit:10;" d="M 280 687.179688 L 279 684.179688 L 281 684.179688 Z M 280 687.179688 " transform="matrix(1,0,0,-1,-206,722)"/>
<path style="fill:none;stroke-width:0.4;stroke-linecap:butt;stroke-linejoin:round;stroke:rgb(0%,0%,0%);stroke-opacity:1;stroke-miterlimit:10;" d="M 288.117188 679.136719 L 288.117188 689.136719 " transform="matrix(1,0,0,-1,-206,722)"/>
<path style="fill-rule:evenodd;fill:rgb(0%,0%,0%);fill-opacity:1;stroke-width:0.4;stroke-linecap:butt;stroke-linejoin:round;stroke:rgb(0%,0%,0%);stroke-opacity:1;stroke-miterlimit:10;" d="M 288.117188 689.136719 L 287.117188 686.136719 L 289.117188 686.136719 Z M 288.117188 689.136719 " transform="matrix(1,0,0,-1,-206,722)"/>
<path style="fill:none;stroke-width:0.4;stroke-linecap:butt;stroke-linejoin:round;stroke:rgb(0%,0%,0%);stroke-opacity:1;stroke-miterlimit:10;" d="M 294.832031 681.613281 L 294.832031 691.613281 " transform="matrix(1,0,0,-1,-206,722)"/>
<path style="fill-rule:evenodd;fill:rgb(0%,0%,0%);fill-opacity:1;stroke-width:0.4;stroke-linecap:butt;stroke-linejoin:round;stroke:rgb(0%,0%,0%);stroke-opacity:1;stroke-miterlimit:10;" d="M 294.832031 691.613281 L 293.835938 688.613281 L 295.832031 688.613281 Z M 294.832031 691.613281 " transform="matrix(1,0,0,-1,-206,722)"/>
<path style="fill:none;stroke-width:0.4;stroke-linecap:butt;stroke-linejoin:round;stroke:rgb(0%,0%,0%);stroke-opacity:1;stroke-miterlimit:10;" d="M 217.167969 710.34375 L 217.167969 700.34375 " transform="matrix(1,0,0,-1,-206,722)"/>
<path style="fill-rule:evenodd;fill:rgb(0%,0%,0%);fill-opacity:1;stroke-width:0.4;stroke-linecap:butt;stroke-linejoin:round;stroke:rgb(0%,0%,0%);stroke-opacity:1;stroke-miterlimit:10;" d="M 217.167969 700.34375 L 218.164062 703.34375 L 216.167969 703.34375 Z M 217.167969 700.34375 " transform="matrix(1,0,0,-1,-206,722)"/>
<path style="fill:none;stroke-width:0.4;stroke-linecap:butt;stroke-linejoin:round;stroke:rgb(0%,0%,0%);stroke-opacity:1;stroke-miterlimit:10;" d="M 223.882812 712.820312 L 223.882812 702.820312 " transform="matrix(1,0,0,-1,-206,722)"/>
<path style="fill-rule:evenodd;fill:rgb(0%,0%,0%);fill-opacity:1;stroke-width:0.4;stroke-linecap:butt;stroke-linejoin:round;stroke:rgb(0%,0%,0%);stroke-opacity:1;stroke-miterlimit:10;" d="M 223.882812 702.820312 L 224.882812 705.820312 L 222.882812 705.820312 Z M 223.882812 702.820312 " transform="matrix(1,0,0,-1,-206,722)"/>
<path style="fill:none;stroke-width:0.4;stroke-linecap:butt;stroke-linejoin:round;stroke:rgb(0%,0%,0%);stroke-opacity:1;stroke-miterlimit:10;" d="M 232 714.777344 L 232 704.777344 " transform="matrix(1,0,0,-1,-206,722)"/>
<path style="fill-rule:evenodd;fill:rgb(0%,0%,0%);fill-opacity:1;stroke-width:0.4;stroke-linecap:butt;stroke-linejoin:round;stroke:rgb(0%,0%,0%);stroke-opacity:1;stroke-miterlimit:10;" d="M 232 704.777344 L 233 707.777344 L 231 707.777344 Z M 232 704.777344 " transform="matrix(1,0,0,-1,-206,722)"/>
<path style="fill:none;stroke-width:0.4;stroke-linecap:butt;stroke-linejoin:round;stroke:rgb(0%,0%,0%);stroke-opacity:1;stroke-miterlimit:10;" d="M 241.167969 716.132812 L 241.167969 706.132812 " transform="matrix(1,0,0,-1,-206,722)"/>
<path style="fill-rule:evenodd;fill:rgb(0%,0%,0%);fill-opacity:1;stroke-width:0.4;stroke-linecap:butt;stroke-linejoin:round;stroke:rgb(0%,0%,0%);stroke-opacity:1;stroke-miterlimit:10;" d="M 241.167969 706.132812 L 242.164062 709.132812 L 240.167969 709.132812 Z M 241.167969 706.132812 " transform="matrix(1,0,0,-1,-206,722)"/>
</g>
</svg>
