<?xml version="1.0" encoding="UTF-8"?>
<svg xmlns="http://www.w3.org/2000/svg" xmlns:xlink="http://www.w3.org/1999/xlink" width="165pt" height="165pt" viewBox="0 0 165 165" version="1.1">
<g id="surface1">
<path style="fill:none;stroke-width:1.2;stroke-linecap:butt;stroke-linejoin:round;stroke:rgb(0%,0%,0%);stroke-opacity:1;stroke-miterlimit:10;" d="M 63.998438 351.998438 L 63.998438 191.998438 L 223.998437 191.998438 " transform="matrix(1,0,0,-1,-59.6,352.6)"/>
<path style="fill:none;stroke-width:0.4;stroke-linecap:butt;stroke-linejoin:round;stroke:rgb(0%,0%,0%);stroke-opacity:1;stroke-miterlimit:10;" d="M 63.990625 344.7875 L 74.014062 191.834375 " transform="matrix(1,0,0,-1,-59.6,352.6)"/>
<path style="fill:none;stroke-width:0.4;stroke-linecap:butt;stroke-linejoin:round;stroke:rgb(0%,0%,0%);stroke-opacity:1;stroke-miterlimit:10;" d="M 63.998438 343.967188 L 84.00625 191.998438 " transform="matrix(1,0,0,-1,-59.6,352.6)"/>
<path style="fill:none;stroke-width:0.4;stroke-linecap:butt;stroke-linejoin:round;stroke:rgb(0%,0%,0%);stroke-opacity:1;stroke-miterlimit:10;" d="M 63.967188 342.174219 L 93.869531 191.838281 " transform="matrix(1,0,0,-1,-59.6,352.6)"/>
<path style="fill:none;stroke-width:0.4;stroke-linecap:butt;stroke-linejoin:round;stroke:rgb(0%,0%,0%);stroke-opacity:1;stroke-miterlimit:10;" d="M 63.998438 340.057031 L 103.670312 191.998438 " transform="matrix(1,0,0,-1,-59.6,352.6)"/>
<path style="fill:none;stroke-width:0.4;stroke-linecap:butt;stroke-linejoin:round;stroke:rgb(0%,0%,0%);stroke-opacity:1;stroke-miterlimit:10;" d="M 63.947656 336.990625 L 113.217187 191.846094 " transform="matrix(1,0,0,-1,-59.6,352.6)"/>
<path style="fill:none;stroke-width:0.4;stroke-linecap:butt;stroke-linejoin:round;stroke:rgb(0%,0%,0%);stroke-opacity:1;stroke-miterlimit:10;" d="M 63.998438 333.611719 L 122.658594 191.998438 " transform="matrix(1,0,0,-1,-59.6,352.6)"/>
<path style="fill:none;stroke-width:0.4;stroke-linecap:butt;stroke-linejoin:round;stroke:rgb(0%,0%,0%);stroke-opacity:1;stroke-miterlimit:10;" d="M 63.928125 329.326563 L 131.721094 191.853906 " transform="matrix(1,0,0,-1,-59.6,352.6)"/>
<path style="fill:none;stroke-width:0.4;stroke-linecap:butt;stroke-linejoin:round;stroke:rgb(0%,0%,0%);stroke-opacity:1;stroke-miterlimit:10;" d="M 63.998438 324.744531 L 140.639062 191.998438 " transform="matrix(1,0,0,-1,-59.6,352.6)"/>
<path style="fill:none;stroke-width:0.4;stroke-linecap:butt;stroke-linejoin:round;stroke:rgb(0%,0%,0%);stroke-opacity:1;stroke-miterlimit:10;" d="M 63.908594 319.310938 L 149.06875 191.865625 " transform="matrix(1,0,0,-1,-59.6,352.6)"/>
<path style="fill:none;stroke-width:0.4;stroke-linecap:butt;stroke-linejoin:round;stroke:rgb(0%,0%,0%);stroke-opacity:1;stroke-miterlimit:10;" d="M 63.998438 313.603906 L 157.310937 191.998438 " transform="matrix(1,0,0,-1,-59.6,352.6)"/>
<path style="fill:none;stroke-width:0.4;stroke-linecap:butt;stroke-linejoin:round;stroke:rgb(0%,0%,0%);stroke-opacity:1;stroke-miterlimit:10;" d="M 63.892969 307.119531 L 164.955469 191.877344 " transform="matrix(1,0,0,-1,-59.6,352.6)"/>
<path style="fill:none;stroke-width:0.4;stroke-linecap:butt;stroke-linejoin:round;stroke:rgb(0%,0%,0%);stroke-opacity:1;stroke-miterlimit:10;" d="M 63.998438 300.385156 L 172.385156 191.998438 " transform="matrix(1,0,0,-1,-59.6,352.6)"/>
<path style="fill:none;stroke-width:0.4;stroke-linecap:butt;stroke-linejoin:round;stroke:rgb(0%,0%,0%);stroke-opacity:1;stroke-miterlimit:10;" d="M 63.877344 292.955469 L 179.119531 191.892969 " transform="matrix(1,0,0,-1,-59.6,352.6)"/>
<path style="fill:none;stroke-width:0.4;stroke-linecap:butt;stroke-linejoin:round;stroke:rgb(0%,0%,0%);stroke-opacity:1;stroke-miterlimit:10;" d="M 63.998438 285.310938 L 185.603906 191.998438 " transform="matrix(1,0,0,-1,-59.6,352.6)"/>
<path style="fill:none;stroke-width:0.4;stroke-linecap:butt;stroke-linejoin:round;stroke:rgb(0%,0%,0%);stroke-opacity:1;stroke-miterlimit:10;" d="M 63.861719 277.06875 L 191.310937 191.908594 " transform="matrix(1,0,0,-1,-59.6,352.6)"/>
<path style="fill:none;stroke-width:0.4;stroke-linecap:butt;stroke-linejoin:round;stroke:rgb(0%,0%,0%);stroke-opacity:1;stroke-miterlimit:10;" d="M 63.998438 268.639063 L 196.744531 191.998438 " transform="matrix(1,0,0,-1,-59.6,352.6)"/>
<path style="fill:none;stroke-width:0.4;stroke-linecap:butt;stroke-linejoin:round;stroke:rgb(0%,0%,0%);stroke-opacity:1;stroke-miterlimit:10;" d="M 63.853906 259.721094 L 201.326562 191.928125 " transform="matrix(1,0,0,-1,-59.6,352.6)"/>
<path style="fill:none;stroke-width:0.4;stroke-linecap:butt;stroke-linejoin:round;stroke:rgb(0%,0%,0%);stroke-opacity:1;stroke-miterlimit:10;" d="M 63.998438 250.658594 L 205.611719 191.998438 " transform="matrix(1,0,0,-1,-59.6,352.6)"/>
<path style="fill:none;stroke-width:0.4;stroke-linecap:butt;stroke-linejoin:round;stroke:rgb(0%,0%,0%);stroke-opacity:1;stroke-miterlimit:10;" d="M 63.846094 241.217188 L 208.990625 191.947656 " transform="matrix(1,0,0,-1,-59.6,352.6)"/>
<path style="fill:none;stroke-width:0.4;stroke-linecap:butt;stroke-linejoin:round;stroke:rgb(0%,0%,0%);stroke-opacity:1;stroke-miterlimit:10;" d="M 63.998438 231.670313 L 212.057031 191.998438 " transform="matrix(1,0,0,-1,-59.6,352.6)"/>
<path style="fill:none;stroke-width:0.4;stroke-linecap:butt;stroke-linejoin:round;stroke:rgb(0%,0%,0%);stroke-opacity:1;stroke-miterlimit:10;" d="M 63.838281 221.869531 L 214.174219 191.967188 " transform="matrix(1,0,0,-1,-59.6,352.6)"/>
<path style="fill:none;stroke-width:0.4;stroke-linecap:butt;stroke-linejoin:round;stroke:rgb(0%,0%,0%);stroke-opacity:1;stroke-miterlimit:10;" d="M 63.998438 212.00625 L 215.967187 191.998438 " transform="matrix(1,0,0,-1,-59.6,352.6)"/>
<path style="fill:none;stroke-width:0.4;stroke-linecap:butt;stroke-linejoin:round;stroke:rgb(0%,0%,0%);stroke-opacity:1;stroke-miterlimit:10;" d="M 63.834375 202.014063 L 216.7875 191.990625 " transform="matrix(1,0,0,-1,-59.6,352.6)"/>
<path style="fill:none;stroke-width:0.8;stroke-linecap:butt;stroke-linejoin:round;stroke:rgb(0%,0%,0%);stroke-opacity:1;stroke-dasharray:4;stroke-miterlimit:10;" d="M 143.998437 223.998438 L 143.998437 187.998438 " transform="matrix(1,0,0,-1,-59.6,352.6)"/>
<path style="fill:none;stroke-width:0.8;stroke-linecap:butt;stroke-linejoin:round;stroke:rgb(0%,0%,0%);stroke-opacity:1;stroke-dasharray:4;stroke-miterlimit:10;" d="M 143.998437 223.998438 L 59.998438 223.998438 " transform="matrix(1,0,0,-1,-59.6,352.6)"/>
<path style=" stroke:none;fill-rule:evenodd;fill:rgb(87.799072%,87.799072%,87.799072%);fill-opacity:1;" d="M 85.898438 128.601562 C 85.898438 127.773438 85.226562 127.101562 84.398438 127.101562 C 83.570312 127.101562 82.898438 127.773438 82.898438 128.601562 C 82.898438 129.429688 83.570312 130.101562 84.398438 130.101562 C 85.226562 130.101562 85.898438 129.429688 85.898438 128.601562 "/>
<path style=" stroke:none;fill-rule:evenodd;fill:rgb(0%,0%,0%);fill-opacity:1;" d="M 86.199219 128.601562 C 86.199219 127.605469 85.394531 126.800781 84.398438 126.800781 C 83.40625 126.800781 82.601562 127.605469 82.601562 128.601562 C 82.601562 129.59375 83.40625 130.398438 84.398438 130.398438 C 85.394531 130.398438 86.199219 129.59375 86.199219 128.601562 M 85.601562 128.601562 C 85.601562 127.9375 85.0625 127.398438 84.398438 127.398438 C 83.738281 127.398438 83.199219 127.9375 83.199219 128.601562 C 83.199219 129.261719 83.738281 129.800781 84.398438 129.800781 C 85.0625 129.800781 85.601562 129.261719 85.601562 128.601562 "/>
</g>
</svg>
