<?xml version="1.0" encoding="UTF-8"?>
<svg xmlns="http://www.w3.org/2000/svg" xmlns:xlink="http://www.w3.org/1999/xlink" width="65pt" height="65pt" viewBox="0 0 65 65" version="1.1">
<g id="surface662">
<path style="fill:none;stroke-width:2;stroke-linecap:butt;stroke-linejoin:round;stroke:rgb(0%,0%,0%);stroke-opacity:1;stroke-miterlimit:10;" d="M 176 678.628906 L 154.480469 662.992188 L 162.699219 637.695312 L 189.300781 637.695312 L 197.519531 662.992188 Z M 176 678.628906 " transform="matrix(1,0,0,-1,-144,688)"/>
<path style=" stroke:none;fill-rule:evenodd;fill:rgb(0%,0%,0%);fill-opacity:1;" d="M 35 9.371094 C 35 5.371094 29 5.371094 29 9.371094 C 29 13.371094 35 13.371094 35 9.371094 Z M 35 9.371094 "/>
<path style=" stroke:none;fill-rule:evenodd;fill:rgb(0%,0%,0%);fill-opacity:1;" d="M 56.519531 25.007812 C 56.519531 21.007812 50.519531 21.007812 50.519531 25.007812 C 50.519531 29.007812 56.519531 29.007812 56.519531 25.007812 Z M 56.519531 25.007812 "/>
<path style=" stroke:none;fill-rule:evenodd;fill:rgb(0%,0%,0%);fill-opacity:1;" d="M 48.300781 50.304688 C 48.300781 46.304688 42.300781 46.304688 42.300781 50.304688 C 42.300781 54.304688 48.300781 54.304688 48.300781 50.304688 Z M 48.300781 50.304688 "/>
<path style=" stroke:none;fill-rule:evenodd;fill:rgb(0%,0%,0%);fill-opacity:1;" d="M 21.699219 50.304688 C 21.699219 46.304688 15.699219 46.304688 15.699219 50.304688 C 15.699219 54.304688 21.699219 54.304688 21.699219 50.304688 Z M 21.699219 50.304688 "/>
<path style=" stroke:none;fill-rule:evenodd;fill:rgb(0%,0%,0%);fill-opacity:1;" d="M 13.480469 25.007812 C 13.480469 21.007812 7.480469 21.007812 7.480469 25.007812 C 7.480469 29.007812 13.480469 29.007812 13.480469 25.007812 Z M 13.480469 25.007812 "/>
</g>
</svg>
