<?xml version="1.0" encoding="UTF-8"?>
<svg xmlns="http://www.w3.org/2000/svg" xmlns:xlink="http://www.w3.org/1999/xlink" width="65pt" height="65pt" viewBox="0 0 65 65" version="1.1">
<g id="surface90296">
<path style=" stroke:none;fill-rule:evenodd;fill:rgb(59.6%,80.8%,87.8%);fill-opacity:1;" d="M 12.042969 14.761719 L 12.042969 41.980469 L 26.558594 52.867188 L 26.558594 25.648438 Z M 12.042969 14.761719 "/>
<path style=" stroke:none;fill-rule:evenodd;fill:rgb(31.4%,67.5%,79.6%);fill-opacity:1;" d="M 26.558594 25.648438 L 26.558594 52.867188 L 51.957031 49.238281 L 51.957031 22.019531 Z M 26.558594 25.648438 "/>
<path style=" stroke:none;fill-rule:evenodd;fill:rgb(45.5%,74.1%,83.9%);fill-opacity:1;" d="M 26.558594 25.648438 L 12.042969 14.761719 L 37.441406 11.132812 L 51.957031 22.019531 Z M 26.558594 25.648438 "/>
<path style=" stroke:none;fill-rule:evenodd;fill:rgb(0%,0%,0%);fill-opacity:1;" d="M 15.042969 14.761719 C 15.042969 10.761719 9.042969 10.761719 9.042969 14.761719 C 9.042969 18.761719 15.042969 18.761719 15.042969 14.761719 Z M 15.042969 14.761719 "/>
<path style=" stroke:none;fill-rule:evenodd;fill:rgb(0%,0%,0%);fill-opacity:1;" d="M 40.441406 11.132812 C 40.441406 7.132812 34.441406 7.132812 34.441406 11.132812 C 34.441406 15.132812 40.441406 15.132812 40.441406 11.132812 Z M 40.441406 11.132812 "/>
<path style=" stroke:none;fill-rule:evenodd;fill:rgb(0%,0%,0%);fill-opacity:1;" d="M 54.957031 22.019531 C 54.957031 18.019531 48.957031 18.019531 48.957031 22.019531 C 48.957031 26.019531 54.957031 26.019531 54.957031 22.019531 Z M 54.957031 22.019531 "/>
<path style=" stroke:none;fill-rule:evenodd;fill:rgb(0%,0%,0%);fill-opacity:1;" d="M 29.554688 25.648438 C 29.554688 21.648438 23.554688 21.648438 23.554688 25.648438 C 23.554688 29.648438 29.554688 29.648438 29.554688 25.648438 Z M 29.554688 25.648438 "/>
<path style=" stroke:none;fill-rule:evenodd;fill:rgb(0%,0%,0%);fill-opacity:1;" d="M 15.042969 41.980469 C 15.042969 37.980469 9.042969 37.980469 9.042969 41.980469 C 9.042969 45.980469 15.042969 45.980469 15.042969 41.980469 Z M 15.042969 41.980469 "/>
<path style=" stroke:none;fill-rule:evenodd;fill:rgb(0%,0%,0%);fill-opacity:1;" d="M 29.554688 52.867188 C 29.554688 48.867188 23.554688 48.867188 23.554688 52.867188 C 23.554688 56.867188 29.554688 56.867188 29.554688 52.867188 Z M 29.554688 52.867188 "/>
<path style=" stroke:none;fill-rule:evenodd;fill:rgb(0%,0%,0%);fill-opacity:1;" d="M 40.441406 38.351562 C 40.441406 34.351562 34.441406 34.351562 34.441406 38.351562 C 34.441406 42.351562 40.441406 42.351562 40.441406 38.351562 Z M 40.441406 38.351562 "/>
<path style=" stroke:none;fill-rule:evenodd;fill:rgb(0%,0%,0%);fill-opacity:1;" d="M 54.957031 49.238281 C 54.957031 45.238281 48.957031 45.238281 48.957031 49.238281 C 48.957031 53.238281 54.957031 53.238281 54.957031 49.238281 Z M 54.957031 49.238281 "/>
<path style="fill:none;stroke-width:2;stroke-linecap:butt;stroke-linejoin:round;stroke:rgb(0%,0%,0%);stroke-opacity:1;stroke-miterlimit:10;" d="M 156.042969 513.238281 L 156.042969 486.019531 " transform="matrix(1,0,0,-1,-144,528)"/>
<path style="fill:none;stroke-width:2;stroke-linecap:butt;stroke-linejoin:round;stroke:rgb(0%,0%,0%);stroke-opacity:1;stroke-miterlimit:10;" d="M 156.042969 486.019531 L 170.558594 475.132812 " transform="matrix(1,0,0,-1,-144,528)"/>
<path style="fill:none;stroke-width:2;stroke-linecap:butt;stroke-linejoin:round;stroke:rgb(0%,0%,0%);stroke-opacity:1;stroke-miterlimit:10;" d="M 170.558594 475.132812 L 195.957031 478.761719 " transform="matrix(1,0,0,-1,-144,528)"/>
<path style="fill:none;stroke-width:2;stroke-linecap:butt;stroke-linejoin:round;stroke:rgb(0%,0%,0%);stroke-opacity:1;stroke-miterlimit:10;" d="M 195.957031 478.761719 L 195.957031 505.980469 " transform="matrix(1,0,0,-1,-144,528)"/>
<path style="fill:none;stroke-width:2;stroke-linecap:butt;stroke-linejoin:round;stroke:rgb(0%,0%,0%);stroke-opacity:1;stroke-miterlimit:10;" d="M 195.957031 505.980469 L 170.558594 502.351562 " transform="matrix(1,0,0,-1,-144,528)"/>
<path style="fill:none;stroke-width:2;stroke-linecap:butt;stroke-linejoin:round;stroke:rgb(0%,0%,0%);stroke-opacity:1;stroke-miterlimit:10;" d="M 170.558594 502.351562 L 170.558594 475.132812 " transform="matrix(1,0,0,-1,-144,528)"/>
<path style="fill:none;stroke-width:2;stroke-linecap:butt;stroke-linejoin:round;stroke:rgb(0%,0%,0%);stroke-opacity:1;stroke-miterlimit:10;" d="M 170.558594 502.351562 L 156.042969 513.238281 " transform="matrix(1,0,0,-1,-144,528)"/>
<path style="fill:none;stroke-width:2;stroke-linecap:butt;stroke-linejoin:round;stroke:rgb(0%,0%,0%);stroke-opacity:1;stroke-miterlimit:10;" d="M 156.042969 513.238281 L 181.441406 516.867188 " transform="matrix(1,0,0,-1,-144,528)"/>
<path style="fill:none;stroke-width:2;stroke-linecap:butt;stroke-linejoin:round;stroke:rgb(0%,0%,0%);stroke-opacity:1;stroke-miterlimit:10;" d="M 181.441406 516.867188 L 195.957031 505.980469 " transform="matrix(1,0,0,-1,-144,528)"/>
<path style="fill:none;stroke-width:1.2;stroke-linecap:butt;stroke-linejoin:round;stroke:rgb(0%,0%,0%);stroke-opacity:1;stroke-dasharray:4;stroke-miterlimit:10;" d="M 181.441406 516.867188 L 181.441406 489.648438 " transform="matrix(1,0,0,-1,-144,528)"/>
<path style="fill:none;stroke-width:1.2;stroke-linecap:butt;stroke-linejoin:round;stroke:rgb(0%,0%,0%);stroke-opacity:1;stroke-dasharray:4;stroke-miterlimit:10;" d="M 181.441406 489.648438 L 195.957031 478.761719 " transform="matrix(1,0,0,-1,-144,528)"/>
<path style="fill:none;stroke-width:1.2;stroke-linecap:butt;stroke-linejoin:round;stroke:rgb(0%,0%,0%);stroke-opacity:1;stroke-dasharray:4;stroke-miterlimit:10;" d="M 181.441406 489.648438 L 156.042969 486.019531 " transform="matrix(1,0,0,-1,-144,528)"/>
</g>
</svg>
