<?xml version="1.0" encoding="UTF-8"?>
<svg xmlns="http://www.w3.org/2000/svg" xmlns:xlink="http://www.w3.org/1999/xlink" width="65pt" height="65pt" viewBox="0 0 65 65" version="1.1">
<g id="surface615">
<path style="fill:none;stroke-width:2;stroke-linecap:butt;stroke-linejoin:round;stroke:rgb(0%,0%,0%);stroke-opacity:1;stroke-miterlimit:10;" d="M 359.78125 747.09375 L 347.527344 756.84375 L 336.785156 753.648438 L 332.21875 740.550781 L 332.058594 724.425781 L 321.808594 718.714844 L 311.75 726.804688 " transform="matrix(1,0,0,-1,-304,768)"/>
<path style=" stroke:none;fill-rule:evenodd;fill:rgb(0%,0%,0%);fill-opacity:1;" d="M 10.75 41.195312 C 10.75 37.195312 4.75 37.195312 4.75 41.195312 C 4.75 45.195312 10.75 45.195312 10.75 41.195312 Z M 10.75 41.195312 "/>
<path style=" stroke:none;fill-rule:evenodd;fill:rgb(0%,0%,0%);fill-opacity:1;" d="M 20.808594 49.285156 C 20.808594 45.285156 14.808594 45.285156 14.808594 49.285156 C 14.808594 53.285156 20.808594 53.285156 20.808594 49.285156 Z M 20.808594 49.285156 "/>
<path style=" stroke:none;fill-rule:evenodd;fill:rgb(0%,0%,0%);fill-opacity:1;" d="M 31.058594 43.574219 C 31.058594 39.574219 25.058594 39.574219 25.058594 43.574219 C 25.058594 47.574219 31.058594 47.574219 31.058594 43.574219 Z M 31.058594 43.574219 "/>
<path style=" stroke:none;fill-rule:evenodd;fill:rgb(0%,0%,0%);fill-opacity:1;" d="M 31.21875 27.449219 C 31.21875 23.449219 25.21875 23.449219 25.21875 27.449219 C 25.21875 31.449219 31.21875 31.449219 31.21875 27.449219 Z M 31.21875 27.449219 "/>
<path style=" stroke:none;fill-rule:evenodd;fill:rgb(0%,0%,0%);fill-opacity:1;" d="M 35.785156 14.351562 C 35.785156 10.351562 29.785156 10.351562 29.785156 14.351562 C 29.785156 18.351562 35.785156 18.351562 35.785156 14.351562 Z M 35.785156 14.351562 "/>
<path style=" stroke:none;fill-rule:evenodd;fill:rgb(0%,0%,0%);fill-opacity:1;" d="M 46.527344 11.15625 C 46.527344 7.15625 40.527344 7.15625 40.527344 11.15625 C 40.527344 15.15625 46.527344 15.15625 46.527344 11.15625 Z M 46.527344 11.15625 "/>
<path style=" stroke:none;fill-rule:evenodd;fill:rgb(0%,0%,0%);fill-opacity:1;" d="M 58.78125 20.90625 C 58.78125 16.90625 52.78125 16.90625 52.78125 20.90625 C 52.78125 24.90625 58.78125 24.90625 58.78125 20.90625 Z M 58.78125 20.90625 "/>
</g>
</svg>
