<?xml version="1.0" encoding="UTF-8"?>
<svg xmlns="http://www.w3.org/2000/svg" xmlns:xlink="http://www.w3.org/1999/xlink" width="161.2pt" height="161.2pt" viewBox="0 0 161.2 161.2" version="1.1">
<defs>
<clipPath id="clip1">
  <path d="M 16 16 L 161.199219 16 L 161.199219 18 L 16 18 Z M 16 16 "/>
</clipPath>
<clipPath id="clip2">
  <path d="M 0 32 L 161.199219 32 L 161.199219 34 L 0 34 Z M 0 32 "/>
</clipPath>
<clipPath id="clip3">
  <path d="M 0 48 L 161.199219 48 L 161.199219 50 L 0 50 Z M 0 48 "/>
</clipPath>
<clipPath id="clip4">
  <path d="M 0 64 L 161.199219 64 L 161.199219 66 L 0 66 Z M 0 64 "/>
</clipPath>
<clipPath id="clip5">
  <path d="M 0 80 L 161.199219 80 L 161.199219 82 L 0 82 Z M 0 80 "/>
</clipPath>
<clipPath id="clip6">
  <path d="M 0 96 L 161.199219 96 L 161.199219 98 L 0 98 Z M 0 96 "/>
</clipPath>
<clipPath id="clip7">
  <path d="M 0 112 L 161.199219 112 L 161.199219 114 L 0 114 Z M 0 112 "/>
</clipPath>
<clipPath id="clip8">
  <path d="M 0 128 L 161.199219 128 L 161.199219 130 L 0 130 Z M 0 128 "/>
</clipPath>
<clipPath id="clip9">
  <path d="M 16 16 L 18 16 L 18 161.199219 L 16 161.199219 Z M 16 16 "/>
</clipPath>
<clipPath id="clip10">
  <path d="M 32 0 L 34 0 L 34 161.199219 L 32 161.199219 Z M 32 0 "/>
</clipPath>
<clipPath id="clip11">
  <path d="M 48 0 L 50 0 L 50 161.199219 L 48 161.199219 Z M 48 0 "/>
</clipPath>
<clipPath id="clip12">
  <path d="M 64 0 L 66 0 L 66 161.199219 L 64 161.199219 Z M 64 0 "/>
</clipPath>
<clipPath id="clip13">
  <path d="M 80 0 L 82 0 L 82 161.199219 L 80 161.199219 Z M 80 0 "/>
</clipPath>
<clipPath id="clip14">
  <path d="M 96 0 L 98 0 L 98 161.199219 L 96 161.199219 Z M 96 0 "/>
</clipPath>
<clipPath id="clip15">
  <path d="M 112 0 L 114 0 L 114 161.199219 L 112 161.199219 Z M 112 0 "/>
</clipPath>
<clipPath id="clip16">
  <path d="M 128 0 L 130 0 L 130 161.199219 L 128 161.199219 Z M 128 0 "/>
</clipPath>
<clipPath id="clip17">
  <path d="M 0 0 L 161.199219 0 L 161.199219 161.199219 L 0 161.199219 Z M 0 0 "/>
</clipPath>
</defs>
<g id="surface1">
<path style=" stroke:none;fill-rule:evenodd;fill:rgb(0%,0%,0%);fill-opacity:1;" d="M 16.601562 0.601562 L 16.601562 16.601562 L 32.601562 16.601562 L 32.601562 0.601562 Z M 16.601562 0.601562 "/>
<path style=" stroke:none;fill-rule:evenodd;fill:rgb(0%,0%,0%);fill-opacity:1;" d="M 48.601562 0.601562 L 48.601562 16.601562 L 64.601562 16.601562 L 64.601562 0.601562 Z M 48.601562 0.601562 "/>
<path style=" stroke:none;fill-rule:evenodd;fill:rgb(0%,0%,0%);fill-opacity:1;" d="M 80.601562 0.601562 L 80.601562 16.601562 L 96.601562 16.601562 L 96.601562 0.601562 Z M 80.601562 0.601562 "/>
<path style=" stroke:none;fill-rule:evenodd;fill:rgb(0%,0%,0%);fill-opacity:1;" d="M 112.601562 0.601562 L 112.601562 16.601562 L 128.601562 16.601562 L 128.601562 0.601562 Z M 112.601562 0.601562 "/>
<path style=" stroke:none;fill-rule:evenodd;fill:rgb(0%,0%,0%);fill-opacity:1;" d="M 144.601562 0.601562 L 144.601562 16.601562 L 160.601562 16.601562 L 160.601562 0.601562 Z M 144.601562 0.601562 "/>
<path style=" stroke:none;fill-rule:evenodd;fill:rgb(0%,0%,0%);fill-opacity:1;" d="M 0.601562 16.601562 L 0.601562 32.601562 L 16.601562 32.601562 L 16.601562 16.601562 Z M 0.601562 16.601562 "/>
<path style=" stroke:none;fill-rule:evenodd;fill:rgb(0%,0%,0%);fill-opacity:1;" d="M 32.601562 16.601562 L 32.601562 32.601562 L 48.601562 32.601562 L 48.601562 16.601562 Z M 32.601562 16.601562 "/>
<path style=" stroke:none;fill-rule:evenodd;fill:rgb(0%,0%,0%);fill-opacity:1;" d="M 64.601562 16.601562 L 64.601562 32.601562 L 80.601562 32.601562 L 80.601562 16.601562 Z M 64.601562 16.601562 "/>
<path style=" stroke:none;fill-rule:evenodd;fill:rgb(0%,0%,0%);fill-opacity:1;" d="M 96.601562 16.601562 L 96.601562 32.601562 L 112.601562 32.601562 L 112.601562 16.601562 Z M 96.601562 16.601562 "/>
<path style=" stroke:none;fill-rule:evenodd;fill:rgb(0%,0%,0%);fill-opacity:1;" d="M 128.601562 16.601562 L 128.601562 32.601562 L 144.601562 32.601562 L 144.601562 16.601562 Z M 128.601562 16.601562 "/>
<path style=" stroke:none;fill-rule:evenodd;fill:rgb(0%,0%,0%);fill-opacity:1;" d="M 16.601562 32.601562 L 16.601562 48.601562 L 32.601562 48.601562 L 32.601562 32.601562 Z M 16.601562 32.601562 "/>
<path style=" stroke:none;fill-rule:evenodd;fill:rgb(0%,0%,0%);fill-opacity:1;" d="M 48.601562 32.601562 L 48.601562 48.601562 L 64.601562 48.601562 L 64.601562 32.601562 Z M 48.601562 32.601562 "/>
<path style=" stroke:none;fill-rule:evenodd;fill:rgb(0%,0%,0%);fill-opacity:1;" d="M 80.601562 32.601562 L 80.601562 48.601562 L 96.601562 48.601562 L 96.601562 32.601562 Z M 80.601562 32.601562 "/>
<path style=" stroke:none;fill-rule:evenodd;fill:rgb(0%,0%,0%);fill-opacity:1;" d="M 112.601562 32.601562 L 112.601562 48.601562 L 128.601562 48.601562 L 128.601562 32.601562 Z M 112.601562 32.601562 "/>
<path style=" stroke:none;fill-rule:evenodd;fill:rgb(0%,0%,0%);fill-opacity:1;" d="M 144.601562 32.601562 L 144.601562 48.601562 L 160.601562 48.601562 L 160.601562 32.601562 Z M 144.601562 32.601562 "/>
<path style=" stroke:none;fill-rule:evenodd;fill:rgb(0%,0%,0%);fill-opacity:1;" d="M 0.601562 48.601562 L 0.601562 64.601562 L 16.601562 64.601562 L 16.601562 48.601562 Z M 0.601562 48.601562 "/>
<path style=" stroke:none;fill-rule:evenodd;fill:rgb(0%,0%,0%);fill-opacity:1;" d="M 32.601562 48.601562 L 32.601562 64.601562 L 48.601562 64.601562 L 48.601562 48.601562 Z M 32.601562 48.601562 "/>
<path style=" stroke:none;fill-rule:evenodd;fill:rgb(0%,0%,0%);fill-opacity:1;" d="M 64.601562 48.601562 L 64.601562 64.601562 L 80.601562 64.601562 L 80.601562 48.601562 Z M 64.601562 48.601562 "/>
<path style=" stroke:none;fill-rule:evenodd;fill:rgb(0%,0%,0%);fill-opacity:1;" d="M 96.601562 48.601562 L 96.601562 64.601562 L 112.601562 64.601562 L 112.601562 48.601562 Z M 96.601562 48.601562 "/>
<path style=" stroke:none;fill-rule:evenodd;fill:rgb(0%,0%,0%);fill-opacity:1;" d="M 128.601562 48.601562 L 128.601562 64.601562 L 144.601562 64.601562 L 144.601562 48.601562 Z M 128.601562 48.601562 "/>
<path style=" stroke:none;fill-rule:evenodd;fill:rgb(0%,0%,0%);fill-opacity:1;" d="M 16.601562 64.601562 L 16.601562 80.601562 L 32.601562 80.601562 L 32.601562 64.601562 Z M 16.601562 64.601562 "/>
<path style=" stroke:none;fill-rule:evenodd;fill:rgb(0%,0%,0%);fill-opacity:1;" d="M 48.601562 64.601562 L 48.601562 80.601562 L 64.601562 80.601562 L 64.601562 64.601562 Z M 48.601562 64.601562 "/>
<path style=" stroke:none;fill-rule:evenodd;fill:rgb(0%,0%,0%);fill-opacity:1;" d="M 80.601562 64.601562 L 80.601562 80.601562 L 96.601562 80.601562 L 96.601562 64.601562 Z M 80.601562 64.601562 "/>
<path style=" stroke:none;fill-rule:evenodd;fill:rgb(0%,0%,0%);fill-opacity:1;" d="M 112.601562 64.601562 L 112.601562 80.601562 L 128.601562 80.601562 L 128.601562 64.601562 Z M 112.601562 64.601562 "/>
<path style=" stroke:none;fill-rule:evenodd;fill:rgb(0%,0%,0%);fill-opacity:1;" d="M 144.601562 64.601562 L 144.601562 80.601562 L 160.601562 80.601562 L 160.601562 64.601562 Z M 144.601562 64.601562 "/>
<path style=" stroke:none;fill-rule:evenodd;fill:rgb(0%,0%,0%);fill-opacity:1;" d="M 0.601562 80.601562 L 0.601562 96.601562 L 16.601562 96.601562 L 16.601562 80.601562 Z M 0.601562 80.601562 "/>
<path style=" stroke:none;fill-rule:evenodd;fill:rgb(0%,0%,0%);fill-opacity:1;" d="M 32.601562 80.601562 L 32.601562 96.601562 L 48.601562 96.601562 L 48.601562 80.601562 Z M 32.601562 80.601562 "/>
<path style=" stroke:none;fill-rule:evenodd;fill:rgb(0%,0%,0%);fill-opacity:1;" d="M 64.601562 80.601562 L 64.601562 96.601562 L 80.601562 96.601562 L 80.601562 80.601562 Z M 64.601562 80.601562 "/>
<path style=" stroke:none;fill-rule:evenodd;fill:rgb(0%,0%,0%);fill-opacity:1;" d="M 96.601562 80.601562 L 96.601562 96.601562 L 112.601562 96.601562 L 112.601562 80.601562 Z M 96.601562 80.601562 "/>
<path style=" stroke:none;fill-rule:evenodd;fill:rgb(0%,0%,0%);fill-opacity:1;" d="M 128.601562 80.601562 L 128.601562 96.601562 L 144.601562 96.601562 L 144.601562 80.601562 Z M 128.601562 80.601562 "/>
<path style=" stroke:none;fill-rule:evenodd;fill:rgb(0%,0%,0%);fill-opacity:1;" d="M 16.601562 96.601562 L 16.601562 112.601562 L 32.601562 112.601562 L 32.601562 96.601562 Z M 16.601562 96.601562 "/>
<path style=" stroke:none;fill-rule:evenodd;fill:rgb(0%,0%,0%);fill-opacity:1;" d="M 48.601562 96.601562 L 48.601562 112.601562 L 64.601562 112.601562 L 64.601562 96.601562 Z M 48.601562 96.601562 "/>
<path style=" stroke:none;fill-rule:evenodd;fill:rgb(0%,0%,0%);fill-opacity:1;" d="M 80.601562 96.601562 L 80.601562 112.601562 L 96.601562 112.601562 L 96.601562 96.601562 Z M 80.601562 96.601562 "/>
<path style=" stroke:none;fill-rule:evenodd;fill:rgb(0%,0%,0%);fill-opacity:1;" d="M 112.601562 96.601562 L 112.601562 112.601562 L 128.601562 112.601562 L 128.601562 96.601562 Z M 112.601562 96.601562 "/>
<path style=" stroke:none;fill-rule:evenodd;fill:rgb(0%,0%,0%);fill-opacity:1;" d="M 144.601562 96.601562 L 144.601562 112.601562 L 160.601562 112.601562 L 160.601562 96.601562 Z M 144.601562 96.601562 "/>
<path style=" stroke:none;fill-rule:evenodd;fill:rgb(0%,0%,0%);fill-opacity:1;" d="M 0.601562 112.601562 L 0.601562 128.601562 L 16.601562 128.601562 L 16.601562 112.601562 Z M 0.601562 112.601562 "/>
<path style=" stroke:none;fill-rule:evenodd;fill:rgb(0%,0%,0%);fill-opacity:1;" d="M 32.601562 112.601562 L 32.601562 128.601562 L 48.601562 128.601562 L 48.601562 112.601562 Z M 32.601562 112.601562 "/>
<path style=" stroke:none;fill-rule:evenodd;fill:rgb(0%,0%,0%);fill-opacity:1;" d="M 64.601562 112.601562 L 64.601562 128.601562 L 80.601562 128.601562 L 80.601562 112.601562 Z M 64.601562 112.601562 "/>
<path style=" stroke:none;fill-rule:evenodd;fill:rgb(0%,0%,0%);fill-opacity:1;" d="M 96.601562 112.601562 L 96.601562 128.601562 L 112.601562 128.601562 L 112.601562 112.601562 Z M 96.601562 112.601562 "/>
<path style=" stroke:none;fill-rule:evenodd;fill:rgb(0%,0%,0%);fill-opacity:1;" d="M 128.601562 112.601562 L 128.601562 128.601562 L 144.601562 128.601562 L 144.601562 112.601562 Z M 128.601562 112.601562 "/>
<path style=" stroke:none;fill-rule:evenodd;fill:rgb(0%,0%,0%);fill-opacity:1;" d="M 16.601562 128.601562 L 16.601562 144.601562 L 32.601562 144.601562 L 32.601562 128.601562 Z M 16.601562 128.601562 "/>
<path style=" stroke:none;fill-rule:evenodd;fill:rgb(0%,0%,0%);fill-opacity:1;" d="M 48.601562 128.601562 L 48.601562 144.601562 L 64.601562 144.601562 L 64.601562 128.601562 Z M 48.601562 128.601562 "/>
<path style=" stroke:none;fill-rule:evenodd;fill:rgb(0%,0%,0%);fill-opacity:1;" d="M 80.601562 128.601562 L 80.601562 144.601562 L 96.601562 144.601562 L 96.601562 128.601562 Z M 80.601562 128.601562 "/>
<path style=" stroke:none;fill-rule:evenodd;fill:rgb(0%,0%,0%);fill-opacity:1;" d="M 112.601562 128.601562 L 112.601562 144.601562 L 128.601562 144.601562 L 128.601562 128.601562 Z M 112.601562 128.601562 "/>
<path style=" stroke:none;fill-rule:evenodd;fill:rgb(0%,0%,0%);fill-opacity:1;" d="M 144.601562 128.601562 L 144.601562 144.601562 L 160.601562 144.601562 L 160.601562 128.601562 Z M 144.601562 128.601562 "/>
<path style=" stroke:none;fill-rule:evenodd;fill:rgb(0%,0%,0%);fill-opacity:1;" d="M 0.601562 144.601562 L 0.601562 160.601562 L 16.601562 160.601562 L 16.601562 144.601562 Z M 0.601562 144.601562 "/>
<path style=" stroke:none;fill-rule:evenodd;fill:rgb(0%,0%,0%);fill-opacity:1;" d="M 32.601562 144.601562 L 32.601562 160.601562 L 48.601562 160.601562 L 48.601562 144.601562 Z M 32.601562 144.601562 "/>
<path style=" stroke:none;fill-rule:evenodd;fill:rgb(0%,0%,0%);fill-opacity:1;" d="M 64.601562 144.601562 L 64.601562 160.601562 L 80.601562 160.601562 L 80.601562 144.601562 Z M 64.601562 144.601562 "/>
<path style=" stroke:none;fill-rule:evenodd;fill:rgb(0%,0%,0%);fill-opacity:1;" d="M 96.601562 144.601562 L 96.601562 160.601562 L 112.601562 160.601562 L 112.601562 144.601562 Z M 96.601562 144.601562 "/>
<path style=" stroke:none;fill-rule:evenodd;fill:rgb(0%,0%,0%);fill-opacity:1;" d="M 128.601562 144.601562 L 128.601562 160.601562 L 144.601562 160.601562 L 144.601562 144.601562 Z M 128.601562 144.601562 "/>
<g clip-path="url(#clip1)" clip-rule="nonzero">
<path style="fill:none;stroke-width:1.2;stroke-linecap:butt;stroke-linejoin:round;stroke:rgb(66.299438%,66.299438%,66.299438%);stroke-opacity:1;stroke-miterlimit:10;" d="M 144.001563 751.998438 L 288.001562 751.998438 " transform="matrix(1,0,0,-1,-127.4,768.6)"/>
</g>
<g clip-path="url(#clip2)" clip-rule="nonzero">
<path style="fill:none;stroke-width:1.2;stroke-linecap:butt;stroke-linejoin:round;stroke:rgb(66.299438%,66.299438%,66.299438%);stroke-opacity:1;stroke-miterlimit:10;" d="M 128.001563 735.998438 L 288.001562 735.998438 " transform="matrix(1,0,0,-1,-127.4,768.6)"/>
</g>
<g clip-path="url(#clip3)" clip-rule="nonzero">
<path style="fill:none;stroke-width:1.2;stroke-linecap:butt;stroke-linejoin:round;stroke:rgb(66.299438%,66.299438%,66.299438%);stroke-opacity:1;stroke-miterlimit:10;" d="M 128.001563 719.998438 L 288.001562 719.998438 " transform="matrix(1,0,0,-1,-127.4,768.6)"/>
</g>
<g clip-path="url(#clip4)" clip-rule="nonzero">
<path style="fill:none;stroke-width:1.2;stroke-linecap:butt;stroke-linejoin:round;stroke:rgb(66.299438%,66.299438%,66.299438%);stroke-opacity:1;stroke-miterlimit:10;" d="M 128.001563 703.998438 L 288.001562 703.998438 " transform="matrix(1,0,0,-1,-127.4,768.6)"/>
</g>
<g clip-path="url(#clip5)" clip-rule="nonzero">
<path style="fill:none;stroke-width:1.2;stroke-linecap:butt;stroke-linejoin:round;stroke:rgb(66.299438%,66.299438%,66.299438%);stroke-opacity:1;stroke-miterlimit:10;" d="M 128.001563 687.998438 L 288.001562 687.998438 " transform="matrix(1,0,0,-1,-127.4,768.6)"/>
</g>
<g clip-path="url(#clip6)" clip-rule="nonzero">
<path style="fill:none;stroke-width:1.2;stroke-linecap:butt;stroke-linejoin:round;stroke:rgb(66.299438%,66.299438%,66.299438%);stroke-opacity:1;stroke-miterlimit:10;" d="M 128.001563 671.998438 L 288.001562 671.998438 " transform="matrix(1,0,0,-1,-127.4,768.6)"/>
</g>
<g clip-path="url(#clip7)" clip-rule="nonzero">
<path style="fill:none;stroke-width:1.2;stroke-linecap:butt;stroke-linejoin:round;stroke:rgb(66.299438%,66.299438%,66.299438%);stroke-opacity:1;stroke-miterlimit:10;" d="M 128.001563 655.998438 L 288.001562 655.998438 " transform="matrix(1,0,0,-1,-127.4,768.6)"/>
</g>
<g clip-path="url(#clip8)" clip-rule="nonzero">
<path style="fill:none;stroke-width:1.2;stroke-linecap:butt;stroke-linejoin:round;stroke:rgb(66.299438%,66.299438%,66.299438%);stroke-opacity:1;stroke-miterlimit:10;" d="M 128.001563 639.998438 L 288.001562 639.998438 " transform="matrix(1,0,0,-1,-127.4,768.6)"/>
</g>
<path style="fill:none;stroke-width:1.2;stroke-linecap:butt;stroke-linejoin:round;stroke:rgb(66.299438%,66.299438%,66.299438%);stroke-opacity:1;stroke-miterlimit:10;" d="M 128.001563 623.998438 L 272.001562 623.998438 " transform="matrix(1,0,0,-1,-127.4,768.6)"/>
<g clip-path="url(#clip9)" clip-rule="nonzero">
<path style="fill:none;stroke-width:1.2;stroke-linecap:butt;stroke-linejoin:round;stroke:rgb(66.299438%,66.299438%,66.299438%);stroke-opacity:1;stroke-miterlimit:10;" d="M 144.001563 751.998438 L 144.001563 607.998438 " transform="matrix(1,0,0,-1,-127.4,768.6)"/>
</g>
<g clip-path="url(#clip10)" clip-rule="nonzero">
<path style="fill:none;stroke-width:1.2;stroke-linecap:butt;stroke-linejoin:round;stroke:rgb(66.299438%,66.299438%,66.299438%);stroke-opacity:1;stroke-miterlimit:10;" d="M 160.001563 767.998438 L 160.001563 607.998438 " transform="matrix(1,0,0,-1,-127.4,768.6)"/>
</g>
<g clip-path="url(#clip11)" clip-rule="nonzero">
<path style="fill:none;stroke-width:1.2;stroke-linecap:butt;stroke-linejoin:round;stroke:rgb(66.299438%,66.299438%,66.299438%);stroke-opacity:1;stroke-miterlimit:10;" d="M 176.001563 767.998438 L 176.001563 607.998438 " transform="matrix(1,0,0,-1,-127.4,768.6)"/>
</g>
<g clip-path="url(#clip12)" clip-rule="nonzero">
<path style="fill:none;stroke-width:1.2;stroke-linecap:butt;stroke-linejoin:round;stroke:rgb(66.299438%,66.299438%,66.299438%);stroke-opacity:1;stroke-miterlimit:10;" d="M 192.001563 767.998438 L 192.001563 607.998438 " transform="matrix(1,0,0,-1,-127.4,768.6)"/>
</g>
<g clip-path="url(#clip13)" clip-rule="nonzero">
<path style="fill:none;stroke-width:1.2;stroke-linecap:butt;stroke-linejoin:round;stroke:rgb(66.299438%,66.299438%,66.299438%);stroke-opacity:1;stroke-miterlimit:10;" d="M 208.001563 767.998438 L 208.001563 607.998438 " transform="matrix(1,0,0,-1,-127.4,768.6)"/>
</g>
<g clip-path="url(#clip14)" clip-rule="nonzero">
<path style="fill:none;stroke-width:1.2;stroke-linecap:butt;stroke-linejoin:round;stroke:rgb(66.299438%,66.299438%,66.299438%);stroke-opacity:1;stroke-miterlimit:10;" d="M 224.001563 767.998438 L 224.001563 607.998438 " transform="matrix(1,0,0,-1,-127.4,768.6)"/>
</g>
<g clip-path="url(#clip15)" clip-rule="nonzero">
<path style="fill:none;stroke-width:1.2;stroke-linecap:butt;stroke-linejoin:round;stroke:rgb(66.299438%,66.299438%,66.299438%);stroke-opacity:1;stroke-miterlimit:10;" d="M 240.001563 767.998438 L 240.001563 607.998438 " transform="matrix(1,0,0,-1,-127.4,768.6)"/>
</g>
<g clip-path="url(#clip16)" clip-rule="nonzero">
<path style="fill:none;stroke-width:1.2;stroke-linecap:butt;stroke-linejoin:round;stroke:rgb(66.299438%,66.299438%,66.299438%);stroke-opacity:1;stroke-miterlimit:10;" d="M 256.001562 767.998438 L 256.001562 607.998438 " transform="matrix(1,0,0,-1,-127.4,768.6)"/>
</g>
<path style="fill:none;stroke-width:1.2;stroke-linecap:butt;stroke-linejoin:round;stroke:rgb(66.299438%,66.299438%,66.299438%);stroke-opacity:1;stroke-miterlimit:10;" d="M 272.001562 767.998438 L 272.001562 623.998438 " transform="matrix(1,0,0,-1,-127.4,768.6)"/>
<g clip-path="url(#clip17)" clip-rule="nonzero">
<path style="fill:none;stroke-width:1.2;stroke-linecap:butt;stroke-linejoin:round;stroke:rgb(0%,0%,0%);stroke-opacity:1;stroke-miterlimit:10;" d="M 128.001563 751.998438 L 144.001563 751.998438 L 144.001563 767.998438 L 288.001562 767.998438 L 288.001562 623.998438 L 272.001562 623.998438 L 272.001562 607.998438 L 128.001563 607.998438 Z M 128.001563 751.998438 " transform="matrix(1,0,0,-1,-127.4,768.6)"/>
</g>
<path style="fill-rule:evenodd;fill:rgb(0%,73.699951%,83.099365%);fill-opacity:0.5;stroke-width:1.2;stroke-linecap:butt;stroke-linejoin:round;stroke:rgb(0%,51.399231%,56.098938%);stroke-opacity:1;stroke-miterlimit:10;" d="M 161.165625 750.834375 C 161.001563 750.666406 161.001563 750.334375 161.001563 748.166406 C 161.001563 745.998438 161.001563 741.998438 161.001563 739.834375 C 161.001563 737.666406 161.001563 737.334375 161.165625 737.166406 C 161.333594 736.998438 161.665625 736.998438 166.501563 736.998438 C 171.333594 736.998438 180.665625 736.998438 185.501563 736.998438 C 190.333594 736.998438 190.665625 736.998438 190.833594 737.166406 C 191.001563 737.334375 191.001563 737.666406 191.001563 739.834375 C 191.001563 741.998438 191.001563 745.998438 191.001563 748.166406 C 191.001563 750.334375 191.001563 750.666406 190.833594 750.834375 C 190.665625 750.998438 190.333594 750.998438 185.501563 750.998438 C 180.665625 750.998438 171.333594 750.998438 166.501563 750.998438 C 161.665625 750.998438 161.333594 750.998438 161.165625 750.834375 Z M 161.165625 750.834375 " transform="matrix(1,0,0,-1,-127.4,768.6)"/>
<path style="fill-rule:evenodd;fill:rgb(91.398621%,11.799622%,38.798523%);fill-opacity:0.5;stroke-width:1.2;stroke-linecap:butt;stroke-linejoin:round;stroke:rgb(67.799377%,7.798767%,34.098816%);stroke-opacity:1;stroke-miterlimit:10;" d="M 193.165625 721.166406 C 193.333594 720.998438 193.665625 720.998438 195.833594 720.998438 C 198.001563 720.998438 202.001563 720.998438 204.165625 720.998438 C 206.333594 720.998438 206.665625 720.998438 206.833594 721.166406 C 207.001563 721.334375 207.001563 721.666406 207.001563 726.498438 C 207.001563 731.334375 207.001563 740.666406 207.001563 745.498438 C 207.001563 750.334375 207.001563 750.666406 206.833594 750.834375 C 206.665625 750.998438 206.333594 750.998438 204.165625 750.998438 C 202.001563 750.998438 198.001563 750.998438 195.833594 750.998438 C 193.665625 750.998438 193.333594 750.998438 193.165625 750.834375 C 193.001563 750.666406 193.001563 750.334375 193.001563 745.498438 C 193.001563 740.666406 193.001563 731.334375 193.001563 726.498438 C 193.001563 721.666406 193.001563 721.334375 193.165625 721.166406 Z M 193.165625 721.166406 " transform="matrix(1,0,0,-1,-127.4,768.6)"/>
<path style="fill-rule:evenodd;fill:rgb(100%,59.599304%,0%);fill-opacity:0.5;stroke-width:1.2;stroke-linecap:butt;stroke-linejoin:round;stroke:rgb(93.699646%,42.399597%,0%);stroke-opacity:1;stroke-miterlimit:10;" d="M 177.165625 705.166406 C 177.333594 704.998438 177.665625 704.998438 179.833594 704.998438 C 182.001563 704.998438 186.001563 704.998438 188.165625 704.998438 C 190.333594 704.998438 190.665625 704.998438 190.833594 705.166406 C 191.001563 705.334375 191.001563 705.666406 191.001563 710.498438 C 191.001563 715.334375 191.001563 724.666406 191.001563 729.498438 C 191.001563 734.334375 191.001563 734.666406 190.833594 734.834375 C 190.665625 734.998438 190.333594 734.998438 188.165625 734.998438 C 186.001563 734.998438 182.001563 734.998438 179.833594 734.998438 C 177.665625 734.998438 177.333594 734.998438 177.165625 734.834375 C 177.001563 734.666406 177.001563 734.334375 177.001563 729.498438 C 177.001563 724.666406 177.001563 715.334375 177.001563 710.498438 C 177.001563 705.666406 177.001563 705.334375 177.165625 705.166406 Z M 177.165625 705.166406 " transform="matrix(1,0,0,-1,-127.4,768.6)"/>
<path style="fill-rule:evenodd;fill:rgb(29.798889%,68.598938%,31.399536%);fill-opacity:0.5;stroke-width:1.2;stroke-linecap:butt;stroke-linejoin:round;stroke:rgb(17.999268%,48.999023%,19.599915%);stroke-opacity:1;stroke-miterlimit:10;" d="M 193.165625 718.834375 C 193.001563 718.666406 193.001563 718.334375 193.001563 716.166406 C 193.001563 713.998438 193.001563 709.998438 193.001563 707.834375 C 193.001563 705.666406 193.001563 705.334375 193.165625 705.166406 C 193.333594 704.998438 193.665625 704.998438 198.501563 704.998438 C 203.333594 704.998438 212.665625 704.998438 217.501563 704.998438 C 222.333594 704.998438 222.665625 704.998438 222.833594 705.166406 C 223.001563 705.334375 223.001563 705.666406 223.001563 707.834375 C 223.001563 709.998438 223.001563 713.998438 223.001563 716.166406 C 223.001563 718.334375 223.001563 718.666406 222.833594 718.834375 C 222.665625 718.998438 222.333594 718.998438 217.501563 718.998438 C 212.665625 718.998438 203.333594 718.998438 198.501563 718.998438 C 193.665625 718.998438 193.333594 718.998438 193.165625 718.834375 Z M 193.165625 718.834375 " transform="matrix(1,0,0,-1,-127.4,768.6)"/>
<path style="fill-rule:evenodd;fill:rgb(61.199951%,15.299988%,68.998718%);fill-opacity:0.5;stroke-width:1.2;stroke-linecap:butt;stroke-linejoin:round;stroke:rgb(41.598511%,10.598755%,60.398865%);stroke-opacity:1;stroke-miterlimit:10;" d="M 177.165625 702.834375 C 177.001563 702.666406 177.001563 702.334375 177.001563 700.166406 C 177.001563 697.998438 177.001563 693.998438 177.001563 691.834375 C 177.001563 689.666406 177.001563 689.334375 177.165625 689.166406 C 177.333594 688.998438 177.665625 688.998438 182.501563 688.998438 C 187.333594 688.998438 196.665625 688.998438 201.501563 688.998438 C 206.333594 688.998438 206.665625 688.998438 206.833594 689.166406 C 207.001563 689.334375 207.001563 689.666406 207.001563 691.834375 C 207.001563 693.998438 207.001563 697.998438 207.001563 700.166406 C 207.001563 702.334375 207.001563 702.666406 206.833594 702.834375 C 206.665625 702.998438 206.333594 702.998438 201.501563 702.998438 C 196.665625 702.998438 187.333594 702.998438 182.501563 702.998438 C 177.665625 702.998438 177.333594 702.998438 177.165625 702.834375 Z M 177.165625 702.834375 " transform="matrix(1,0,0,-1,-127.4,768.6)"/>
<path style="fill-rule:evenodd;fill:rgb(95.698547%,26.298523%,21.199036%);fill-opacity:0.5;stroke-width:1.2;stroke-linecap:butt;stroke-linejoin:round;stroke:rgb(77.598572%,15.699768%,15.699768%);stroke-opacity:1;stroke-miterlimit:10;" d="M 209.165625 702.834375 C 209.001563 702.666406 209.001563 702.334375 209.001563 700.166406 C 209.001563 697.998438 209.001563 693.998438 209.001563 691.834375 C 209.001563 689.666406 209.001563 689.334375 209.165625 689.166406 C 209.333594 688.998438 209.665625 688.998438 214.501563 688.998438 C 219.333594 688.998438 228.665625 688.998438 233.501563 688.998438 C 238.333594 688.998438 238.665625 688.998438 238.833594 689.166406 C 239.001563 689.334375 239.001563 689.666406 239.001563 691.834375 C 239.001563 693.998438 239.001563 697.998438 239.001563 700.166406 C 239.001563 702.334375 239.001563 702.666406 238.833594 702.834375 C 238.665625 702.998438 238.333594 702.998438 233.501563 702.998438 C 228.665625 702.998438 219.333594 702.998438 214.501563 702.998438 C 209.665625 702.998438 209.333594 702.998438 209.165625 702.834375 Z M 209.165625 702.834375 " transform="matrix(1,0,0,-1,-127.4,768.6)"/>
<path style="fill-rule:evenodd;fill:rgb(37.599182%,48.999023%,54.499817%);fill-opacity:0.5;stroke-width:1.2;stroke-linecap:butt;stroke-linejoin:round;stroke:rgb(21.598816%,27.799988%,30.999756%);stroke-opacity:1;stroke-miterlimit:10;" d="M 241.165625 673.166406 C 241.333594 672.998438 241.665625 672.998438 243.833594 672.998438 C 246.001563 672.998438 250.001563 672.998438 252.165625 672.998438 C 254.333594 672.998438 254.665625 672.998438 254.833594 673.166406 C 255.001563 673.334375 255.001563 673.666406 255.001563 678.498438 C 255.001563 683.334375 255.001563 692.666406 255.001563 697.498438 C 255.001563 702.334375 255.001563 702.666406 254.833594 702.834375 C 254.665625 702.998438 254.333594 702.998438 252.165625 702.998438 C 250.001563 702.998438 246.001563 702.998438 243.833594 702.998438 C 241.665625 702.998438 241.333594 702.998438 241.165625 702.834375 C 241.001563 702.666406 241.001563 702.334375 241.001563 697.498438 C 241.001563 692.666406 241.001563 683.334375 241.001563 678.498438 C 241.001563 673.666406 241.001563 673.334375 241.165625 673.166406 Z M 241.165625 673.166406 " transform="matrix(1,0,0,-1,-127.4,768.6)"/>
<path style="fill-rule:evenodd;fill:rgb(100%,92.199707%,23.098755%);fill-opacity:0.5;stroke-width:1.2;stroke-linecap:butt;stroke-linejoin:round;stroke:rgb(100%,83.898926%,0%);stroke-opacity:1;stroke-miterlimit:10;" d="M 225.165625 705.166406 C 225.333594 704.998438 225.665625 704.998438 227.833594 704.998438 C 230.001563 704.998438 234.001563 704.998438 236.165625 704.998438 C 238.333594 704.998438 238.665625 704.998438 238.833594 705.166406 C 239.001563 705.334375 239.001563 705.666406 239.001563 710.498438 C 239.001563 715.334375 239.001563 724.666406 239.001563 729.498438 C 239.001563 734.334375 239.001563 734.666406 238.833594 734.834375 C 238.665625 734.998438 238.333594 734.998438 236.165625 734.998438 C 234.001563 734.998438 230.001563 734.998438 227.833594 734.998438 C 225.665625 734.998438 225.333594 734.998438 225.165625 734.834375 C 225.001563 734.666406 225.001563 734.334375 225.001563 729.498438 C 225.001563 724.666406 225.001563 715.334375 225.001563 710.498438 C 225.001563 705.666406 225.001563 705.334375 225.165625 705.166406 Z M 225.165625 705.166406 " transform="matrix(1,0,0,-1,-127.4,768.6)"/>
<path style="fill:none;stroke-width:1.2;stroke-linecap:butt;stroke-linejoin:round;stroke:rgb(66.299438%,66.299438%,66.299438%);stroke-opacity:1;stroke-miterlimit:10;" d="M 144.001563 747.998438 L 144.001563 751.998438 L 148.001563 751.998438 " transform="matrix(1,0,0,-1,-127.4,768.6)"/>
<path style="fill:none;stroke-width:1.2;stroke-linecap:butt;stroke-linejoin:round;stroke:rgb(66.299438%,66.299438%,66.299438%);stroke-opacity:1;stroke-miterlimit:10;" d="M 268.001562 623.998438 L 272.001562 623.998438 L 272.001562 627.998438 " transform="matrix(1,0,0,-1,-127.4,768.6)"/>
</g>
</svg>
