<?xml version="1.0" encoding="UTF-8"?>
<svg xmlns="http://www.w3.org/2000/svg" xmlns:xlink="http://www.w3.org/1999/xlink" width="67pt" height="67pt" viewBox="0 0 67 67" version="1.1">
<g id="surface27566">
<path style="fill-rule:evenodd;fill:rgb(87.8%,87.8%,87.8%);fill-opacity:1;stroke-width:2;stroke-linecap:butt;stroke-linejoin:round;stroke:rgb(0%,0%,0%);stroke-opacity:1;stroke-miterlimit:10;" d="M 58.675781 775.703125 C 59.148438 768.691406 65.082031 760.195312 72.636719 758.914062 C 80.1875 757.632812 89.359375 763.566406 93.066406 769.90625 C 96.777344 776.242188 95.023438 782.988281 89.964844 787.035156 C 84.910156 791.078125 76.546875 792.429688 69.871094 790.335938 C 63.195312 788.246094 58.203125 782.71875 58.675781 775.703125 Z M 58.675781 775.703125 " transform="matrix(1,0,0,-1,-43,810)"/>
<path style="fill-rule:evenodd;fill:rgb(0%,0%,0%);fill-opacity:1;stroke-width:1.2;stroke-linecap:butt;stroke-linejoin:round;stroke:rgb(0%,0%,0%);stroke-opacity:1;stroke-miterlimit:10;" d="M 62.734375 765.503906 C 62.734375 765.503906 62.734375 765.503906 62.921875 765.273438 C 63.113281 765.046875 63.488281 764.585938 63.859375 764.167969 C 64.230469 763.753906 64.59375 763.378906 64.773438 763.191406 C 64.953125 763.007812 64.953125 763.007812 64.953125 763.007812 " transform="matrix(1,0,0,-1,-43,810)"/>
<path style="fill-rule:evenodd;fill:rgb(0%,0%,0%);fill-opacity:1;stroke-width:1.2;stroke-linecap:butt;stroke-linejoin:round;stroke:rgb(0%,0%,0%);stroke-opacity:1;stroke-miterlimit:10;" d="M 64.953125 763.007812 L 61.757812 769.65625 L 58.410156 766.410156 Z M 64.953125 763.007812 " transform="matrix(1,0,0,-1,-43,810)"/>
<path style="fill-rule:evenodd;fill:rgb(0%,0%,0%);fill-opacity:1;stroke-width:1.2;stroke-linecap:butt;stroke-linejoin:round;stroke:rgb(0%,0%,0%);stroke-opacity:1;stroke-miterlimit:10;" d="M 90.902344 786.21875 C 90.902344 786.21875 90.902344 786.21875 90.671875 786.414062 C 90.4375 786.609375 89.96875 787 89.597656 787.289062 C 89.226562 787.582031 88.953125 787.769531 88.816406 787.867188 C 88.675781 787.960938 88.675781 787.960938 88.675781 787.960938 " transform="matrix(1,0,0,-1,-43,810)"/>
<path style="fill-rule:evenodd;fill:rgb(0%,0%,0%);fill-opacity:1;stroke-width:1.2;stroke-linecap:butt;stroke-linejoin:round;stroke:rgb(0%,0%,0%);stroke-opacity:1;stroke-miterlimit:10;" d="M 88.675781 787.960938 L 93.109375 782.0625 L 95.761719 785.894531 Z M 88.675781 787.960938 " transform="matrix(1,0,0,-1,-43,810)"/>
<path style="fill-rule:evenodd;fill:rgb(0%,0%,0%);fill-opacity:1;stroke-width:1.2;stroke-linecap:butt;stroke-linejoin:round;stroke:rgb(0%,0%,0%);stroke-opacity:1;stroke-miterlimit:10;" d="M 85.863281 762.523438 C 85.863281 762.523438 85.863281 762.523438 86.1875 762.765625 C 86.515625 763.007812 87.167969 763.488281 87.796875 764 C 88.425781 764.507812 89.03125 765.046875 89.332031 765.316406 C 89.636719 765.585938 89.636719 765.585938 89.636719 765.585938 " transform="matrix(1,0,0,-1,-43,810)"/>
<path style="fill-rule:evenodd;fill:rgb(0%,0%,0%);fill-opacity:1;stroke-width:1.2;stroke-linecap:butt;stroke-linejoin:round;stroke:rgb(0%,0%,0%);stroke-opacity:1;stroke-miterlimit:10;" d="M 89.636719 765.585938 L 82.859375 762.667969 L 85.960938 759.1875 Z M 89.636719 765.585938 " transform="matrix(1,0,0,-1,-43,810)"/>
<path style="fill-rule:evenodd;fill:rgb(0%,0%,0%);fill-opacity:1;stroke-width:1.2;stroke-linecap:butt;stroke-linejoin:round;stroke:rgb(0%,0%,0%);stroke-opacity:1;stroke-miterlimit:10;" d="M 66.679688 789.011719 C 66.679688 789.011719 66.679688 789.011719 66.410156 788.847656 C 66.144531 788.6875 65.605469 788.367188 65.113281 788.035156 C 64.617188 787.703125 64.160156 787.359375 63.933594 787.1875 C 63.707031 787.019531 63.707031 787.019531 63.707031 787.019531 " transform="matrix(1,0,0,-1,-43,810)"/>
<path style="fill-rule:evenodd;fill:rgb(0%,0%,0%);fill-opacity:1;stroke-width:1.2;stroke-linecap:butt;stroke-linejoin:round;stroke:rgb(0%,0%,0%);stroke-opacity:1;stroke-miterlimit:10;" d="M 63.707031 787.019531 L 70.703125 789.363281 L 67.898438 793.089844 Z M 63.707031 787.019531 " transform="matrix(1,0,0,-1,-43,810)"/>
<path style="fill:none;stroke-width:0.4;stroke-linecap:butt;stroke-linejoin:round;stroke:rgb(0%,0%,0%);stroke-opacity:1;stroke-miterlimit:10;" d="M 69.707031 786.480469 L 84.375 765.273438 " transform="matrix(1,0,0,-1,-43,810)"/>
<path style="fill-rule:evenodd;fill:rgb(0%,0%,0%);fill-opacity:1;stroke-width:0.4;stroke-linecap:butt;stroke-linejoin:round;stroke:rgb(0%,0%,0%);stroke-opacity:1;stroke-miterlimit:10;" d="M 84.375 765.273438 L 83.488281 768.308594 L 81.847656 767.171875 Z M 84.375 765.273438 " transform="matrix(1,0,0,-1,-43,810)"/>
<path style="fill-rule:evenodd;fill:rgb(0%,0%,0%);fill-opacity:1;stroke-width:0.4;stroke-linecap:butt;stroke-linejoin:round;stroke:rgb(0%,0%,0%);stroke-opacity:1;stroke-miterlimit:10;" d="M 69.707031 786.480469 L 70.589844 783.445312 L 72.234375 784.582031 Z M 69.707031 786.480469 " transform="matrix(1,0,0,-1,-43,810)"/>
<path style="fill:none;stroke-width:0.4;stroke-linecap:butt;stroke-linejoin:round;stroke:rgb(0%,0%,0%);stroke-opacity:1;stroke-miterlimit:10;" d="M 65.179688 768.125 L 89.070312 783.046875 " transform="matrix(1,0,0,-1,-43,810)"/>
<path style="fill-rule:evenodd;fill:rgb(0%,0%,0%);fill-opacity:1;stroke-width:0.4;stroke-linecap:butt;stroke-linejoin:round;stroke:rgb(0%,0%,0%);stroke-opacity:1;stroke-miterlimit:10;" d="M 89.070312 783.046875 L 85.996094 782.304688 L 87.054688 780.609375 Z M 89.070312 783.046875 " transform="matrix(1,0,0,-1,-43,810)"/>
<path style="fill-rule:evenodd;fill:rgb(0%,0%,0%);fill-opacity:1;stroke-width:0.4;stroke-linecap:butt;stroke-linejoin:round;stroke:rgb(0%,0%,0%);stroke-opacity:1;stroke-miterlimit:10;" d="M 65.179688 768.125 L 68.253906 768.867188 L 67.195312 770.558594 Z M 65.179688 768.125 " transform="matrix(1,0,0,-1,-43,810)"/>
<path style="fill:none;stroke-width:0.4;stroke-linecap:butt;stroke-linejoin:round;stroke:rgb(0%,0%,0%);stroke-opacity:1;stroke-miterlimit:10;" d="M 77.207031 798.292969 L 77.207031 808.933594 " transform="matrix(1,0,0,-1,-43,810)"/>
<path style="fill-rule:evenodd;fill:rgb(0%,0%,0%);fill-opacity:1;stroke-width:0.4;stroke-linecap:butt;stroke-linejoin:round;stroke:rgb(0%,0%,0%);stroke-opacity:1;stroke-miterlimit:10;" d="M 77.207031 808.933594 L 76.207031 805.933594 L 78.207031 805.933594 Z M 77.207031 808.933594 " transform="matrix(1,0,0,-1,-43,810)"/>
<path style="fill:none;stroke-width:0.4;stroke-linecap:butt;stroke-linejoin:round;stroke:rgb(0%,0%,0%);stroke-opacity:1;stroke-miterlimit:10;" d="M 88.535156 795.257812 L 93.855469 804.472656 " transform="matrix(1,0,0,-1,-43,810)"/>
<path style="fill-rule:evenodd;fill:rgb(0%,0%,0%);fill-opacity:1;stroke-width:0.4;stroke-linecap:butt;stroke-linejoin:round;stroke:rgb(0%,0%,0%);stroke-opacity:1;stroke-miterlimit:10;" d="M 93.855469 804.472656 L 91.488281 802.371094 L 93.21875 801.375 Z M 93.855469 804.472656 " transform="matrix(1,0,0,-1,-43,810)"/>
<path style="fill:none;stroke-width:0.4;stroke-linecap:butt;stroke-linejoin:round;stroke:rgb(0%,0%,0%);stroke-opacity:1;stroke-miterlimit:10;" d="M 96.828125 786.964844 L 106.042969 792.285156 " transform="matrix(1,0,0,-1,-43,810)"/>
<path style="fill-rule:evenodd;fill:rgb(0%,0%,0%);fill-opacity:1;stroke-width:0.4;stroke-linecap:butt;stroke-linejoin:round;stroke:rgb(0%,0%,0%);stroke-opacity:1;stroke-miterlimit:10;" d="M 106.042969 792.285156 L 102.945312 791.648438 L 103.941406 789.917969 Z M 106.042969 792.285156 " transform="matrix(1,0,0,-1,-43,810)"/>
<path style="fill:none;stroke-width:0.4;stroke-linecap:butt;stroke-linejoin:round;stroke:rgb(0%,0%,0%);stroke-opacity:1;stroke-miterlimit:10;" d="M 99.863281 775.636719 L 110.503906 775.636719 " transform="matrix(1,0,0,-1,-43,810)"/>
<path style="fill-rule:evenodd;fill:rgb(0%,0%,0%);fill-opacity:1;stroke-width:0.4;stroke-linecap:butt;stroke-linejoin:round;stroke:rgb(0%,0%,0%);stroke-opacity:1;stroke-miterlimit:10;" d="M 110.503906 775.636719 L 107.503906 776.636719 L 107.503906 774.636719 Z M 110.503906 775.636719 " transform="matrix(1,0,0,-1,-43,810)"/>
<path style="fill:none;stroke-width:0.4;stroke-linecap:butt;stroke-linejoin:round;stroke:rgb(0%,0%,0%);stroke-opacity:1;stroke-miterlimit:10;" d="M 96.828125 764.308594 L 106.042969 758.988281 " transform="matrix(1,0,0,-1,-43,810)"/>
<path style="fill-rule:evenodd;fill:rgb(0%,0%,0%);fill-opacity:1;stroke-width:0.4;stroke-linecap:butt;stroke-linejoin:round;stroke:rgb(0%,0%,0%);stroke-opacity:1;stroke-miterlimit:10;" d="M 106.042969 758.988281 L 103.945312 761.351562 L 102.945312 759.621094 Z M 106.042969 758.988281 " transform="matrix(1,0,0,-1,-43,810)"/>
<path style="fill:none;stroke-width:0.4;stroke-linecap:butt;stroke-linejoin:round;stroke:rgb(0%,0%,0%);stroke-opacity:1;stroke-miterlimit:10;" d="M 88.535156 756.015625 L 93.855469 746.800781 " transform="matrix(1,0,0,-1,-43,810)"/>
<path style="fill-rule:evenodd;fill:rgb(0%,0%,0%);fill-opacity:1;stroke-width:0.4;stroke-linecap:butt;stroke-linejoin:round;stroke:rgb(0%,0%,0%);stroke-opacity:1;stroke-miterlimit:10;" d="M 93.855469 746.800781 L 93.21875 749.898438 L 91.488281 748.898438 Z M 93.855469 746.800781 " transform="matrix(1,0,0,-1,-43,810)"/>
<path style="fill:none;stroke-width:0.4;stroke-linecap:butt;stroke-linejoin:round;stroke:rgb(0%,0%,0%);stroke-opacity:1;stroke-miterlimit:10;" d="M 77.207031 752.980469 L 77.207031 742.339844 " transform="matrix(1,0,0,-1,-43,810)"/>
<path style="fill-rule:evenodd;fill:rgb(0%,0%,0%);fill-opacity:1;stroke-width:0.4;stroke-linecap:butt;stroke-linejoin:round;stroke:rgb(0%,0%,0%);stroke-opacity:1;stroke-miterlimit:10;" d="M 77.207031 742.339844 L 78.207031 745.339844 L 76.207031 745.339844 Z M 77.207031 742.339844 " transform="matrix(1,0,0,-1,-43,810)"/>
<path style="fill:none;stroke-width:0.4;stroke-linecap:butt;stroke-linejoin:round;stroke:rgb(0%,0%,0%);stroke-opacity:1;stroke-miterlimit:10;" d="M 65.878906 756.015625 L 60.558594 746.800781 " transform="matrix(1,0,0,-1,-43,810)"/>
<path style="fill-rule:evenodd;fill:rgb(0%,0%,0%);fill-opacity:1;stroke-width:0.4;stroke-linecap:butt;stroke-linejoin:round;stroke:rgb(0%,0%,0%);stroke-opacity:1;stroke-miterlimit:10;" d="M 60.558594 746.800781 L 62.925781 748.898438 L 61.195312 749.898438 Z M 60.558594 746.800781 " transform="matrix(1,0,0,-1,-43,810)"/>
<path style="fill:none;stroke-width:0.4;stroke-linecap:butt;stroke-linejoin:round;stroke:rgb(0%,0%,0%);stroke-opacity:1;stroke-miterlimit:10;" d="M 57.585938 764.308594 L 48.371094 758.988281 " transform="matrix(1,0,0,-1,-43,810)"/>
<path style="fill-rule:evenodd;fill:rgb(0%,0%,0%);fill-opacity:1;stroke-width:0.4;stroke-linecap:butt;stroke-linejoin:round;stroke:rgb(0%,0%,0%);stroke-opacity:1;stroke-miterlimit:10;" d="M 48.371094 758.988281 L 51.46875 759.621094 L 50.46875 761.351562 Z M 48.371094 758.988281 " transform="matrix(1,0,0,-1,-43,810)"/>
<path style="fill:none;stroke-width:0.4;stroke-linecap:butt;stroke-linejoin:round;stroke:rgb(0%,0%,0%);stroke-opacity:1;stroke-miterlimit:10;" d="M 54.550781 775.636719 L 43.910156 775.636719 " transform="matrix(1,0,0,-1,-43,810)"/>
<path style="fill-rule:evenodd;fill:rgb(0%,0%,0%);fill-opacity:1;stroke-width:0.4;stroke-linecap:butt;stroke-linejoin:round;stroke:rgb(0%,0%,0%);stroke-opacity:1;stroke-miterlimit:10;" d="M 43.910156 775.636719 L 46.910156 774.636719 L 46.910156 776.636719 Z M 43.910156 775.636719 " transform="matrix(1,0,0,-1,-43,810)"/>
<path style="fill:none;stroke-width:0.4;stroke-linecap:butt;stroke-linejoin:round;stroke:rgb(0%,0%,0%);stroke-opacity:1;stroke-miterlimit:10;" d="M 57.585938 786.964844 L 48.371094 792.285156 " transform="matrix(1,0,0,-1,-43,810)"/>
<path style="fill-rule:evenodd;fill:rgb(0%,0%,0%);fill-opacity:1;stroke-width:0.4;stroke-linecap:butt;stroke-linejoin:round;stroke:rgb(0%,0%,0%);stroke-opacity:1;stroke-miterlimit:10;" d="M 48.371094 792.285156 L 50.46875 789.917969 L 51.46875 791.648438 Z M 48.371094 792.285156 " transform="matrix(1,0,0,-1,-43,810)"/>
<path style="fill:none;stroke-width:0.4;stroke-linecap:butt;stroke-linejoin:round;stroke:rgb(0%,0%,0%);stroke-opacity:1;stroke-miterlimit:10;" d="M 65.878906 795.257812 L 60.558594 804.472656 " transform="matrix(1,0,0,-1,-43,810)"/>
<path style="fill-rule:evenodd;fill:rgb(0%,0%,0%);fill-opacity:1;stroke-width:0.4;stroke-linecap:butt;stroke-linejoin:round;stroke:rgb(0%,0%,0%);stroke-opacity:1;stroke-miterlimit:10;" d="M 60.558594 804.472656 L 61.195312 801.375 L 62.925781 802.371094 Z M 60.558594 804.472656 " transform="matrix(1,0,0,-1,-43,810)"/>
</g>
</svg>
