<?xml version="1.0" encoding="UTF-8"?>
<svg xmlns="http://www.w3.org/2000/svg" xmlns:xlink="http://www.w3.org/1999/xlink" width="66.992pt" height="66.992pt" viewBox="0 0 66.992 66.992" version="1.1">
<defs>
<clipPath id="clip1">
  <path d="M 55 33 L 66.992188 33 L 66.992188 34 L 55 34 Z M 55 33 "/>
</clipPath>
<clipPath id="clip2">
  <path d="M 63 32 L 66.992188 32 L 66.992188 35 L 63 35 Z M 63 32 "/>
</clipPath>
<clipPath id="clip3">
  <path d="M 33 55 L 34 55 L 34 66.992188 L 33 66.992188 Z M 33 55 "/>
</clipPath>
<clipPath id="clip4">
  <path d="M 32 63 L 35 63 L 35 66.992188 L 32 66.992188 Z M 32 63 "/>
</clipPath>
</defs>
<g id="surface1">
<path style="fill-rule:evenodd;fill:rgb(86.999512%,86.999512%,86.999512%);fill-opacity:1;stroke-width:2;stroke-linecap:butt;stroke-linejoin:round;stroke:rgb(0%,0%,0%);stroke-opacity:1;stroke-miterlimit:10;" d="M 58.675844 775.702312 C 59.1485 768.690594 65.082094 760.1945 72.636781 758.91325 C 80.187562 757.632 89.359437 763.565594 93.066469 769.905437 C 96.777406 776.245281 95.0235 782.987469 89.964906 787.034344 C 84.910219 791.081219 76.546937 792.428875 69.871156 790.339031 C 63.195375 788.245281 58.203187 782.717937 58.675844 775.702312 Z M 58.675844 775.702312 " transform="matrix(1,0,0,-1,-43.711,809.132)"/>
<path style="fill-rule:evenodd;fill:rgb(86.999512%,86.999512%,86.999512%);fill-opacity:1;stroke-width:1.2;stroke-linecap:butt;stroke-linejoin:round;stroke:rgb(0%,0%,0%);stroke-opacity:1;stroke-miterlimit:10;" d="M 62.734437 765.503094 C 62.734437 765.503094 62.734437 765.503094 62.921937 765.276531 C 63.113344 765.046062 63.488344 764.585125 63.859437 764.167156 C 64.230531 763.753094 64.593812 763.378094 64.7735 763.1945 C 64.953187 763.007 64.953187 763.007 64.953187 763.007 " transform="matrix(1,0,0,-1,-43.711,809.132)"/>
<path style="fill-rule:evenodd;fill:rgb(0%,0%,0%);fill-opacity:1;stroke-width:1.2;stroke-linecap:butt;stroke-linejoin:round;stroke:rgb(0%,0%,0%);stroke-opacity:1;stroke-miterlimit:10;" d="M 64.953187 763.007 L 61.753969 769.655437 L 58.410219 766.409344 Z M 64.953187 763.007 " transform="matrix(1,0,0,-1,-43.711,809.132)"/>
<path style="fill-rule:evenodd;fill:rgb(86.999512%,86.999512%,86.999512%);fill-opacity:1;stroke-width:1.2;stroke-linecap:butt;stroke-linejoin:round;stroke:rgb(0%,0%,0%);stroke-opacity:1;stroke-miterlimit:10;" d="M 90.902406 786.217937 C 90.902406 786.217937 90.902406 786.217937 90.671937 786.41325 C 90.437562 786.608562 89.968812 786.999187 89.597719 787.28825 C 89.226625 787.581219 88.953187 787.772625 88.816469 787.866375 C 88.675844 787.960125 88.675844 787.960125 88.675844 787.960125 " transform="matrix(1,0,0,-1,-43.711,809.132)"/>
<path style="fill-rule:evenodd;fill:rgb(0%,0%,0%);fill-opacity:1;stroke-width:1.2;stroke-linecap:butt;stroke-linejoin:round;stroke:rgb(0%,0%,0%);stroke-opacity:1;stroke-miterlimit:10;" d="M 88.675844 787.960125 L 93.105531 782.057781 L 95.757875 785.893719 Z M 88.675844 787.960125 " transform="matrix(1,0,0,-1,-43.711,809.132)"/>
<path style="fill-rule:evenodd;fill:rgb(86.999512%,86.999512%,86.999512%);fill-opacity:1;stroke-width:1.2;stroke-linecap:butt;stroke-linejoin:round;stroke:rgb(0%,0%,0%);stroke-opacity:1;stroke-miterlimit:10;" d="M 85.863344 762.522625 C 85.863344 762.522625 85.863344 762.522625 86.187562 762.764812 C 86.515687 763.007 87.168031 763.487469 87.796937 763.999187 C 88.425844 764.510906 89.031312 765.049969 89.332094 765.3195 C 89.636781 765.585125 89.636781 765.585125 89.636781 765.585125 " transform="matrix(1,0,0,-1,-43.711,809.132)"/>
<path style="fill-rule:evenodd;fill:rgb(0%,0%,0%);fill-opacity:1;stroke-width:1.2;stroke-linecap:butt;stroke-linejoin:round;stroke:rgb(0%,0%,0%);stroke-opacity:1;stroke-miterlimit:10;" d="M 89.636781 765.585125 L 82.859437 762.671062 L 85.961 759.190594 Z M 89.636781 765.585125 " transform="matrix(1,0,0,-1,-43.711,809.132)"/>
<path style="fill-rule:evenodd;fill:rgb(86.999512%,86.999512%,86.999512%);fill-opacity:1;stroke-width:1.2;stroke-linecap:butt;stroke-linejoin:round;stroke:rgb(0%,0%,0%);stroke-opacity:1;stroke-miterlimit:10;" d="M 66.67975 789.010906 C 66.67975 789.010906 66.67975 789.010906 66.410219 788.85075 C 66.144594 788.686687 65.605531 788.366375 65.113344 788.034344 C 64.61725 787.702312 64.160219 787.358562 63.933656 787.190594 C 63.707094 787.018719 63.707094 787.018719 63.707094 787.018719 " transform="matrix(1,0,0,-1,-43.711,809.132)"/>
<path style="fill-rule:evenodd;fill:rgb(0%,0%,0%);fill-opacity:1;stroke-width:1.2;stroke-linecap:butt;stroke-linejoin:round;stroke:rgb(0%,0%,0%);stroke-opacity:1;stroke-miterlimit:10;" d="M 63.707094 787.018719 L 70.703187 789.362469 L 67.8985 793.089031 Z M 63.707094 787.018719 " transform="matrix(1,0,0,-1,-43.711,809.132)"/>
<path style="fill:none;stroke-width:0.4;stroke-linecap:butt;stroke-linejoin:round;stroke:rgb(0%,0%,0%);stroke-opacity:1;stroke-miterlimit:10;" d="M 69.707094 786.483562 L 84.375062 765.272625 " transform="matrix(1,0,0,-1,-43.711,809.132)"/>
<path style="fill-rule:evenodd;fill:rgb(0%,0%,0%);fill-opacity:1;stroke-width:0.4;stroke-linecap:butt;stroke-linejoin:round;stroke:rgb(0%,0%,0%);stroke-opacity:1;stroke-miterlimit:10;" d="M 84.375062 765.272625 L 83.488344 768.307781 L 81.847719 767.171062 Z M 84.375062 765.272625 " transform="matrix(1,0,0,-1,-43.711,809.132)"/>
<path style="fill-rule:evenodd;fill:rgb(0%,0%,0%);fill-opacity:1;stroke-width:0.4;stroke-linecap:butt;stroke-linejoin:round;stroke:rgb(0%,0%,0%);stroke-opacity:1;stroke-miterlimit:10;" d="M 69.707094 786.483562 L 70.589906 783.4445 L 72.234437 784.581219 Z M 69.707094 786.483562 " transform="matrix(1,0,0,-1,-43.711,809.132)"/>
<path style="fill:none;stroke-width:0.4;stroke-linecap:butt;stroke-linejoin:round;stroke:rgb(0%,0%,0%);stroke-opacity:1;stroke-miterlimit:10;" d="M 65.17975 768.124187 L 89.070375 783.046062 " transform="matrix(1,0,0,-1,-43.711,809.132)"/>
<path style="fill-rule:evenodd;fill:rgb(0%,0%,0%);fill-opacity:1;stroke-width:0.4;stroke-linecap:butt;stroke-linejoin:round;stroke:rgb(0%,0%,0%);stroke-opacity:1;stroke-miterlimit:10;" d="M 89.070375 783.046062 L 85.996156 782.303875 L 87.05475 780.608562 Z M 89.070375 783.046062 " transform="matrix(1,0,0,-1,-43.711,809.132)"/>
<path style="fill-rule:evenodd;fill:rgb(0%,0%,0%);fill-opacity:1;stroke-width:0.4;stroke-linecap:butt;stroke-linejoin:round;stroke:rgb(0%,0%,0%);stroke-opacity:1;stroke-miterlimit:10;" d="M 65.17975 768.124187 L 68.253969 768.866375 L 67.195375 770.561687 Z M 65.17975 768.124187 " transform="matrix(1,0,0,-1,-43.711,809.132)"/>
<path style="fill:none;stroke-width:0.4;stroke-linecap:butt;stroke-linejoin:round;stroke:rgb(0%,0%,0%);stroke-opacity:1;stroke-miterlimit:10;" d="M 77.207094 798.292156 L 77.207094 808.932781 " transform="matrix(1,0,0,-1,-43.711,809.132)"/>
<path style="fill-rule:evenodd;fill:rgb(0%,0%,0%);fill-opacity:1;stroke-width:0.4;stroke-linecap:butt;stroke-linejoin:round;stroke:rgb(0%,0%,0%);stroke-opacity:1;stroke-miterlimit:10;" d="M 77.207094 808.932781 L 76.207094 805.932781 L 78.207094 805.932781 Z M 77.207094 808.932781 " transform="matrix(1,0,0,-1,-43.711,809.132)"/>
<path style="fill:none;stroke-width:0.4;stroke-linecap:butt;stroke-linejoin:round;stroke:rgb(0%,0%,0%);stroke-opacity:1;stroke-miterlimit:10;" d="M 88.535219 795.257 L 93.855531 804.471844 " transform="matrix(1,0,0,-1,-43.711,809.132)"/>
<path style="fill-rule:evenodd;fill:rgb(0%,0%,0%);fill-opacity:1;stroke-width:0.4;stroke-linecap:butt;stroke-linejoin:round;stroke:rgb(0%,0%,0%);stroke-opacity:1;stroke-miterlimit:10;" d="M 93.855531 804.471844 L 91.488344 802.374187 L 93.218812 801.374187 Z M 93.855531 804.471844 " transform="matrix(1,0,0,-1,-43.711,809.132)"/>
<path style="fill:none;stroke-width:0.4;stroke-linecap:butt;stroke-linejoin:round;stroke:rgb(0%,0%,0%);stroke-opacity:1;stroke-miterlimit:10;" d="M 96.828187 786.964031 L 106.043031 792.284344 " transform="matrix(1,0,0,-1,-43.711,809.132)"/>
<path style="fill-rule:evenodd;fill:rgb(0%,0%,0%);fill-opacity:1;stroke-width:0.4;stroke-linecap:butt;stroke-linejoin:round;stroke:rgb(0%,0%,0%);stroke-opacity:1;stroke-miterlimit:10;" d="M 106.043031 792.284344 L 102.945375 791.647625 L 103.945375 789.917156 Z M 106.043031 792.284344 " transform="matrix(1,0,0,-1,-43.711,809.132)"/>
<g clip-path="url(#clip1)" clip-rule="nonzero">
<path style="fill:none;stroke-width:0.4;stroke-linecap:butt;stroke-linejoin:round;stroke:rgb(0%,0%,0%);stroke-opacity:1;stroke-miterlimit:10;" d="M 99.863344 775.635906 L 110.503969 775.635906 " transform="matrix(1,0,0,-1,-43.711,809.132)"/>
</g>
<g clip-path="url(#clip2)" clip-rule="nonzero">
<path style="fill-rule:evenodd;fill:rgb(0%,0%,0%);fill-opacity:1;stroke-width:0.4;stroke-linecap:butt;stroke-linejoin:round;stroke:rgb(0%,0%,0%);stroke-opacity:1;stroke-miterlimit:10;" d="M 110.503969 775.635906 L 107.503969 776.635906 L 107.503969 774.635906 Z M 110.503969 775.635906 " transform="matrix(1,0,0,-1,-43.711,809.132)"/>
</g>
<path style="fill:none;stroke-width:0.4;stroke-linecap:butt;stroke-linejoin:round;stroke:rgb(0%,0%,0%);stroke-opacity:1;stroke-miterlimit:10;" d="M 96.828187 764.307781 L 106.043031 758.987469 " transform="matrix(1,0,0,-1,-43.711,809.132)"/>
<path style="fill-rule:evenodd;fill:rgb(0%,0%,0%);fill-opacity:1;stroke-width:0.4;stroke-linecap:butt;stroke-linejoin:round;stroke:rgb(0%,0%,0%);stroke-opacity:1;stroke-miterlimit:10;" d="M 106.043031 758.987469 L 103.945375 761.354656 L 102.945375 759.624187 Z M 106.043031 758.987469 " transform="matrix(1,0,0,-1,-43.711,809.132)"/>
<path style="fill:none;stroke-width:0.4;stroke-linecap:butt;stroke-linejoin:round;stroke:rgb(0%,0%,0%);stroke-opacity:1;stroke-miterlimit:10;" d="M 88.535219 756.014812 L 93.855531 746.799969 " transform="matrix(1,0,0,-1,-43.711,809.132)"/>
<path style="fill-rule:evenodd;fill:rgb(0%,0%,0%);fill-opacity:1;stroke-width:0.4;stroke-linecap:butt;stroke-linejoin:round;stroke:rgb(0%,0%,0%);stroke-opacity:1;stroke-miterlimit:10;" d="M 93.855531 746.799969 L 93.218812 749.897625 L 91.488344 748.901531 Z M 93.855531 746.799969 " transform="matrix(1,0,0,-1,-43.711,809.132)"/>
<g clip-path="url(#clip3)" clip-rule="nonzero">
<path style="fill:none;stroke-width:0.4;stroke-linecap:butt;stroke-linejoin:round;stroke:rgb(0%,0%,0%);stroke-opacity:1;stroke-miterlimit:10;" d="M 77.207094 752.979656 L 77.207094 742.339031 " transform="matrix(1,0,0,-1,-43.711,809.132)"/>
</g>
<g clip-path="url(#clip4)" clip-rule="nonzero">
<path style="fill-rule:evenodd;fill:rgb(0%,0%,0%);fill-opacity:1;stroke-width:0.4;stroke-linecap:butt;stroke-linejoin:round;stroke:rgb(0%,0%,0%);stroke-opacity:1;stroke-miterlimit:10;" d="M 77.207094 742.339031 L 78.207094 745.339031 L 76.207094 745.339031 Z M 77.207094 742.339031 " transform="matrix(1,0,0,-1,-43.711,809.132)"/>
</g>
<path style="fill:none;stroke-width:0.4;stroke-linecap:butt;stroke-linejoin:round;stroke:rgb(0%,0%,0%);stroke-opacity:1;stroke-miterlimit:10;" d="M 65.878969 756.014812 L 60.558656 746.799969 " transform="matrix(1,0,0,-1,-43.711,809.132)"/>
<path style="fill-rule:evenodd;fill:rgb(0%,0%,0%);fill-opacity:1;stroke-width:0.4;stroke-linecap:butt;stroke-linejoin:round;stroke:rgb(0%,0%,0%);stroke-opacity:1;stroke-miterlimit:10;" d="M 60.558656 746.799969 L 62.925844 748.901531 L 61.195375 749.897625 Z M 60.558656 746.799969 " transform="matrix(1,0,0,-1,-43.711,809.132)"/>
<path style="fill:none;stroke-width:0.4;stroke-linecap:butt;stroke-linejoin:round;stroke:rgb(0%,0%,0%);stroke-opacity:1;stroke-miterlimit:10;" d="M 57.586 764.307781 L 48.371156 758.987469 " transform="matrix(1,0,0,-1,-43.711,809.132)"/>
<path style="fill-rule:evenodd;fill:rgb(0%,0%,0%);fill-opacity:1;stroke-width:0.4;stroke-linecap:butt;stroke-linejoin:round;stroke:rgb(0%,0%,0%);stroke-opacity:1;stroke-miterlimit:10;" d="M 48.371156 758.987469 L 51.468812 759.624187 L 50.468812 761.354656 Z M 48.371156 758.987469 " transform="matrix(1,0,0,-1,-43.711,809.132)"/>
<path style="fill:none;stroke-width:0.4;stroke-linecap:butt;stroke-linejoin:round;stroke:rgb(0%,0%,0%);stroke-opacity:1;stroke-miterlimit:10;" d="M 54.550844 775.635906 L 43.910219 775.635906 " transform="matrix(1,0,0,-1,-43.711,809.132)"/>
<path style="fill-rule:evenodd;fill:rgb(0%,0%,0%);fill-opacity:1;stroke-width:0.4;stroke-linecap:butt;stroke-linejoin:round;stroke:rgb(0%,0%,0%);stroke-opacity:1;stroke-miterlimit:10;" d="M 43.910219 775.635906 L 46.910219 774.635906 L 46.910219 776.635906 Z M 43.910219 775.635906 " transform="matrix(1,0,0,-1,-43.711,809.132)"/>
<path style="fill:none;stroke-width:0.4;stroke-linecap:butt;stroke-linejoin:round;stroke:rgb(0%,0%,0%);stroke-opacity:1;stroke-miterlimit:10;" d="M 57.586 786.964031 L 48.371156 792.284344 " transform="matrix(1,0,0,-1,-43.711,809.132)"/>
<path style="fill-rule:evenodd;fill:rgb(0%,0%,0%);fill-opacity:1;stroke-width:0.4;stroke-linecap:butt;stroke-linejoin:round;stroke:rgb(0%,0%,0%);stroke-opacity:1;stroke-miterlimit:10;" d="M 48.371156 792.284344 L 50.468812 789.917156 L 51.468812 791.647625 Z M 48.371156 792.284344 " transform="matrix(1,0,0,-1,-43.711,809.132)"/>
<path style="fill:none;stroke-width:0.4;stroke-linecap:butt;stroke-linejoin:round;stroke:rgb(0%,0%,0%);stroke-opacity:1;stroke-miterlimit:10;" d="M 65.878969 795.257 L 60.558656 804.471844 " transform="matrix(1,0,0,-1,-43.711,809.132)"/>
<path style="fill-rule:evenodd;fill:rgb(0%,0%,0%);fill-opacity:1;stroke-width:0.4;stroke-linecap:butt;stroke-linejoin:round;stroke:rgb(0%,0%,0%);stroke-opacity:1;stroke-miterlimit:10;" d="M 60.558656 804.471844 L 61.195375 801.374187 L 62.925844 802.374187 Z M 60.558656 804.471844 " transform="matrix(1,0,0,-1,-43.711,809.132)"/>
</g>
</svg>
