<?xml version="1.0" encoding="UTF-8"?>
<svg xmlns="http://www.w3.org/2000/svg" xmlns:xlink="http://www.w3.org/1999/xlink" width="251pt" height="114pt" viewBox="0 0 251 114" version="1.1">
<g id="surface36258">
<path style="fill-rule:evenodd;fill:rgb(87.8%,87.8%,87.8%);fill-opacity:1;stroke-width:2;stroke-linecap:butt;stroke-linejoin:round;stroke:rgb(0%,0%,0%);stroke-opacity:1;stroke-miterlimit:10;" d="M 263.1875 719.199219 C 256.023438 709.957031 256.359375 697.429688 262.792969 688.300781 C 269.226562 679.167969 281.753906 673.4375 296.8125 670.40625 C 311.867188 667.371094 329.453125 667.035156 344.652344 670.097656 C 359.847656 673.160156 372.65625 679.621094 379.117188 688.664062 C 385.578125 697.710938 385.691406 709.339844 379.203125 718.355469 C 372.714844 727.375 359.625 733.78125 345.269531 737.011719 C 330.914062 740.242188 315.296875 740.296875 300.152344 737.347656 C 285.011719 734.398438 270.347656 728.441406 263.1875 719.199219 Z M 316.355469 707.554688 C 314.6875 707.460938 312.816406 707.320312 311.003906 707.128906 C 309.191406 706.941406 307.441406 706.703125 305.894531 706.449219 C 304.347656 706.195312 303.007812 705.921875 301.769531 705.636719 C 300.53125 705.347656 299.398438 705.046875 298.378906 704.761719 C 297.363281 704.476562 296.460938 704.214844 295.832031 704.027344 C 295.207031 703.84375 294.851562 703.738281 294.671875 703.683594 C 294.492188 703.632812 294.492188 703.632812 295.164062 703.328125 C 295.835938 703.027344 297.175781 702.417969 298.621094 701.980469 C 300.066406 701.542969 301.617188 701.269531 303.089844 701.015625 C 304.566406 700.757812 305.960938 700.511719 307.351562 700.308594 C 308.742188 700.101562 310.128906 699.933594 311.808594 699.777344 C 313.492188 699.621094 315.472656 699.480469 317.386719 699.402344 C 319.300781 699.324219 321.148438 699.308594 322.964844 699.339844 C 324.777344 699.371094 326.558594 699.453125 328.257812 699.574219 C 329.957031 699.695312 331.570312 699.859375 333.160156 700.082031 C 334.753906 700.300781 336.320312 700.578125 337.664062 700.839844 C 339.003906 701.101562 340.125 701.347656 341.1875 701.601562 C 342.253906 701.859375 343.265625 702.125 344.253906 702.421875 C 345.238281 702.71875 346.203125 703.046875 346.6875 703.210938 C 347.171875 703.375 347.171875 703.375 346.71875 703.570312 C 346.269531 703.765625 345.371094 704.15625 344.148438 704.5625 C 342.929688 704.972656 341.390625 705.394531 339.953125 705.730469 C 338.515625 706.070312 337.183594 706.324219 335.578125 706.566406 C 333.976562 706.808594 332.101562 707.039062 330.1875 707.230469 C 328.269531 707.421875 326.308594 707.578125 324.761719 707.65625 C 323.214844 707.738281 322.082031 707.75 320.78125 707.726562 C 319.484375 707.703125 318.023438 707.652344 316.355469 707.554688 Z M 316.355469 707.554688 " transform="matrix(1,0,0,-1,-135,761)"/>
<path style=" stroke:none;fill-rule:evenodd;fill:rgb(62%,62%,62%);fill-opacity:1;" d="M 161.984375 60.257812 C 161.304688 60.765625 160.488281 61.378906 159.75 62.105469 C 159.015625 62.828125 158.359375 63.667969 157.878906 64.632812 C 157.394531 65.601562 157.085938 66.695312 157.066406 67.878906 C 157.050781 69.0625 157.324219 70.332031 157.664062 71.304688 C 158 72.28125 158.394531 72.957031 158.957031 73.753906 C 159.519531 74.546875 160.25 75.457031 160.933594 76.222656 C 161.617188 76.992188 162.261719 77.621094 163.0625 78.316406 C 163.863281 79.011719 164.828125 79.773438 165.886719 80.507812 C 166.945312 81.246094 168.101562 81.953125 169.332031 82.605469 C 170.5625 83.257812 171.871094 83.851562 173.289062 84.40625 C 174.707031 84.960938 176.242188 85.472656 177.792969 85.898438 C 179.34375 86.324219 180.910156 86.660156 182.464844 86.910156 C 184.015625 87.160156 185.554688 87.320312 187.1875 87.402344 C 188.820312 87.488281 190.542969 87.496094 192.242188 87.441406 C 193.941406 87.386719 195.609375 87.269531 197.289062 87.089844 C 198.96875 86.914062 200.65625 86.675781 202.363281 86.355469 C 204.066406 86.035156 205.796875 85.632812 207.359375 85.179688 C 208.925781 84.726562 210.324219 84.222656 211.75 83.589844 C 213.175781 82.960938 214.621094 82.195312 215.871094 81.421875 C 217.125 80.648438 218.183594 79.863281 219.226562 78.9375 C 220.265625 78.011719 221.289062 76.949219 222.25 75.742188 C 223.210938 74.535156 224.109375 73.183594 224.875 71.828125 C 225.636719 70.476562 226.269531 69.117188 226.761719 67.882812 C 227.25 66.648438 227.601562 65.539062 227.890625 64.132812 C 228.175781 62.722656 228.402344 61.015625 228.421875 59.382812 C 228.441406 57.75 228.25 56.195312 227.878906 54.691406 C 227.503906 53.191406 226.945312 51.738281 226.296875 50.496094 C 225.644531 49.257812 224.90625 48.222656 224.042969 47.265625 C 223.179688 46.308594 222.1875 45.425781 221.203125 44.71875 C 220.21875 44.007812 219.238281 43.472656 217.839844 42.875 C 216.445312 42.277344 214.632812 41.617188 212.964844 41.289062 C 211.296875 40.964844 209.773438 40.96875 208.527344 41.265625 C 207.277344 41.558594 206.304688 42.140625 205.613281 42.796875 C 204.917969 43.449219 204.503906 44.179688 204.214844 44.972656 C 203.925781 45.761719 203.765625 46.617188 203.734375 47.632812 C 203.703125 48.652344 203.800781 49.835938 203.925781 50.691406 C 204.050781 51.546875 204.199219 52.074219 204.316406 52.453125 C 204.4375 52.835938 204.523438 53.074219 204.652344 53.367188 C 204.777344 53.660156 204.945312 54.011719 205.511719 54.460938 C 206.078125 54.910156 207.046875 55.457031 207.871094 55.839844 C 208.699219 56.222656 209.390625 56.4375 209.957031 56.757812 C 210.523438 57.074219 210.96875 57.492188 210.660156 57.867188 C 210.351562 58.242188 209.285156 58.574219 208.164062 58.882812 C 207.042969 59.191406 205.863281 59.476562 204.628906 59.75 C 203.394531 60.027344 202.105469 60.292969 200.8125 60.535156 C 199.519531 60.777344 198.222656 60.992188 196.703125 61.167969 C 195.183594 61.339844 193.441406 61.472656 191.835938 61.5625 C 190.230469 61.652344 188.757812 61.703125 187.238281 61.722656 C 185.722656 61.742188 184.15625 61.730469 182.496094 61.660156 C 180.832031 61.59375 179.074219 61.46875 177.503906 61.328125 C 175.9375 61.191406 174.554688 61.035156 173.308594 60.867188 C 172.066406 60.695312 170.960938 60.515625 169.746094 60.285156 C 168.53125 60.054688 167.203125 59.773438 166.257812 59.5625 C 165.316406 59.351562 164.753906 59.210938 164.398438 59.121094 C 164.042969 59.03125 163.894531 58.988281 163.546875 59.167969 C 163.203125 59.347656 162.664062 59.75 161.984375 60.257812 Z M 161.984375 60.257812 "/>
<path style="fill:none;stroke-width:1.2;stroke-linecap:butt;stroke-linejoin:round;stroke:rgb(0%,0%,0%);stroke-opacity:1;stroke-miterlimit:10;" d="M 192 760 L 192 648 " transform="matrix(1,0,0,-1,-135,761)"/>
<path style="fill:none;stroke-width:1.2;stroke-linecap:butt;stroke-linejoin:round;stroke:rgb(0%,0%,0%);stroke-opacity:1;stroke-miterlimit:10;" d="M 136 704 L 248 704 " transform="matrix(1,0,0,-1,-135,761)"/>
<path style="fill:none;stroke-width:0.8;stroke-linecap:butt;stroke-linejoin:round;stroke:rgb(0%,0%,0%);stroke-opacity:1;stroke-miterlimit:10;" d="M 248 720 L 136 720 " transform="matrix(1,0,0,-1,-135,761)"/>
<path style="fill:none;stroke-width:0.8;stroke-linecap:butt;stroke-linejoin:round;stroke:rgb(0%,0%,0%);stroke-opacity:1;stroke-miterlimit:10;" d="M 136 736 L 248 736 " transform="matrix(1,0,0,-1,-135,761)"/>
<path style="fill:none;stroke-width:0.8;stroke-linecap:butt;stroke-linejoin:round;stroke:rgb(0%,0%,0%);stroke-opacity:1;stroke-miterlimit:10;" d="M 136 752 L 248 752 " transform="matrix(1,0,0,-1,-135,761)"/>
<path style="fill:none;stroke-width:0.8;stroke-linecap:butt;stroke-linejoin:round;stroke:rgb(0%,0%,0%);stroke-opacity:1;stroke-miterlimit:10;" d="M 136 688 L 248 688 " transform="matrix(1,0,0,-1,-135,761)"/>
<path style="fill:none;stroke-width:0.8;stroke-linecap:butt;stroke-linejoin:round;stroke:rgb(0%,0%,0%);stroke-opacity:1;stroke-miterlimit:10;" d="M 136 672 L 248 672 " transform="matrix(1,0,0,-1,-135,761)"/>
<path style="fill:none;stroke-width:0.8;stroke-linecap:butt;stroke-linejoin:round;stroke:rgb(0%,0%,0%);stroke-opacity:1;stroke-miterlimit:10;" d="M 136 656 L 248 656 " transform="matrix(1,0,0,-1,-135,761)"/>
<path style="fill:none;stroke-width:0.8;stroke-linecap:butt;stroke-linejoin:round;stroke:rgb(0%,0%,0%);stroke-opacity:1;stroke-miterlimit:10;" d="M 144 760 L 144 648 " transform="matrix(1,0,0,-1,-135,761)"/>
<path style="fill:none;stroke-width:0.8;stroke-linecap:butt;stroke-linejoin:round;stroke:rgb(0%,0%,0%);stroke-opacity:1;stroke-miterlimit:10;" d="M 160 760 L 160 648 " transform="matrix(1,0,0,-1,-135,761)"/>
<path style="fill:none;stroke-width:0.8;stroke-linecap:butt;stroke-linejoin:round;stroke:rgb(0%,0%,0%);stroke-opacity:1;stroke-miterlimit:10;" d="M 176 760 L 176 648 " transform="matrix(1,0,0,-1,-135,761)"/>
<path style="fill:none;stroke-width:0.8;stroke-linecap:butt;stroke-linejoin:round;stroke:rgb(0%,0%,0%);stroke-opacity:1;stroke-miterlimit:10;" d="M 208 760 L 208 648 " transform="matrix(1,0,0,-1,-135,761)"/>
<path style="fill:none;stroke-width:0.8;stroke-linecap:butt;stroke-linejoin:round;stroke:rgb(0%,0%,0%);stroke-opacity:1;stroke-miterlimit:10;" d="M 224 760 L 224 648 " transform="matrix(1,0,0,-1,-135,761)"/>
<path style="fill:none;stroke-width:0.8;stroke-linecap:butt;stroke-linejoin:round;stroke:rgb(0%,0%,0%);stroke-opacity:1;stroke-miterlimit:10;" d="M 240 760 L 240 648 " transform="matrix(1,0,0,-1,-135,761)"/>
<path style="fill:none;stroke-width:2;stroke-linecap:butt;stroke-linejoin:round;stroke:rgb(0%,0%,0%);stroke-opacity:1;stroke-miterlimit:10;" d="M 369.429688 708.617188 C 370.039062 720.109375 348.679688 729.425781 321.722656 729.425781 C 294.765625 729.425781 272.414062 720.109375 271.804688 708.617188 C 271.195312 697.121094 292.554688 687.804688 319.511719 687.804688 C 346.472656 687.804688 368.820312 697.121094 369.429688 708.617188 Z M 369.429688 708.617188 " transform="matrix(1,0,0,-1,-135,761)"/>
<path style="fill:none;stroke-width:2;stroke-linecap:butt;stroke-linejoin:round;stroke:rgb(0%,0%,0%);stroke-opacity:1;stroke-miterlimit:10;" d="M 320.847656 699.023438 L 320.847656 668.28125 " transform="matrix(1,0,0,-1,-135,761)"/>
<path style="fill-rule:evenodd;fill:rgb(62%,62%,62%);fill-opacity:1;stroke-width:1.2;stroke-linecap:butt;stroke-linejoin:round;stroke:rgb(0%,0%,0%);stroke-opacity:1;stroke-miterlimit:10;" d="M 191.996094 710.300781 C 190.667969 709.867188 189.144531 709.683594 188.308594 708.503906 C 187.472656 707.324219 187.328125 705.144531 188.472656 703.527344 C 189.617188 701.910156 192.050781 700.855469 193.847656 701.476562 C 195.644531 702.09375 196.808594 704.378906 196.988281 706.433594 C 197.171875 708.484375 196.371094 710.300781 195.410156 710.863281 C 194.445312 711.429688 193.320312 710.738281 191.996094 710.300781 Z M 191.996094 710.300781 " transform="matrix(1,0,0,-1,-135,761)"/>
<path style="fill:none;stroke-width:0.8;stroke-linecap:butt;stroke-linejoin:round;stroke:rgb(0%,0%,0%);stroke-opacity:1;stroke-miterlimit:10;" d="M 207.996094 710.300781 C 206.667969 709.867188 205.144531 709.683594 204.308594 708.503906 C 203.472656 707.324219 203.328125 705.144531 204.472656 703.527344 C 205.617188 701.910156 208.050781 700.855469 209.847656 701.476562 C 211.644531 702.09375 212.808594 704.378906 212.988281 706.433594 C 213.171875 708.484375 212.371094 710.300781 211.410156 710.863281 C 210.445312 711.429688 209.320312 710.738281 207.996094 710.300781 Z M 207.996094 710.300781 " transform="matrix(1,0,0,-1,-135,761)"/>
<path style="fill:none;stroke-width:0.8;stroke-linecap:butt;stroke-linejoin:round;stroke:rgb(0%,0%,0%);stroke-opacity:1;stroke-miterlimit:10;" d="M 223.996094 710.300781 C 222.667969 709.867188 221.144531 709.683594 220.308594 708.503906 C 219.472656 707.324219 219.328125 705.144531 220.472656 703.527344 C 221.617188 701.910156 224.050781 700.855469 225.847656 701.476562 C 227.644531 702.09375 228.808594 704.378906 228.988281 706.433594 C 229.171875 708.484375 228.371094 710.300781 227.410156 710.863281 C 226.445312 711.429688 225.320312 710.738281 223.996094 710.300781 Z M 223.996094 710.300781 " transform="matrix(1,0,0,-1,-135,761)"/>
<path style="fill:none;stroke-width:0.8;stroke-linecap:butt;stroke-linejoin:round;stroke:rgb(0%,0%,0%);stroke-opacity:1;stroke-miterlimit:10;" d="M 239.996094 710.300781 C 238.667969 709.867188 237.144531 709.683594 236.308594 708.503906 C 235.472656 707.324219 235.328125 705.144531 236.472656 703.527344 C 237.617188 701.910156 240.050781 700.855469 241.847656 701.476562 C 243.644531 702.09375 244.808594 704.378906 244.988281 706.433594 C 245.171875 708.484375 244.371094 710.300781 243.410156 710.863281 C 242.445312 711.429688 241.320312 710.738281 239.996094 710.300781 Z M 239.996094 710.300781 " transform="matrix(1,0,0,-1,-135,761)"/>
<path style="fill:none;stroke-width:0.8;stroke-linecap:butt;stroke-linejoin:round;stroke:rgb(0%,0%,0%);stroke-opacity:1;stroke-miterlimit:10;" d="M 239.996094 726.300781 C 238.667969 725.867188 237.144531 725.683594 236.308594 724.503906 C 235.472656 723.324219 235.328125 721.144531 236.472656 719.527344 C 237.617188 717.910156 240.050781 716.855469 241.847656 717.476562 C 243.644531 718.09375 244.808594 720.378906 244.988281 722.433594 C 245.171875 724.484375 244.371094 726.300781 243.410156 726.863281 C 242.445312 727.429688 241.320312 726.738281 239.996094 726.300781 Z M 239.996094 726.300781 " transform="matrix(1,0,0,-1,-135,761)"/>
<path style="fill:none;stroke-width:0.8;stroke-linecap:butt;stroke-linejoin:round;stroke:rgb(0%,0%,0%);stroke-opacity:1;stroke-miterlimit:10;" d="M 223.996094 726.300781 C 222.667969 725.867188 221.144531 725.683594 220.308594 724.503906 C 219.472656 723.324219 219.328125 721.144531 220.472656 719.527344 C 221.617188 717.910156 224.050781 716.855469 225.847656 717.476562 C 227.644531 718.09375 228.808594 720.378906 228.988281 722.433594 C 229.171875 724.484375 228.371094 726.300781 227.410156 726.863281 C 226.445312 727.429688 225.320312 726.738281 223.996094 726.300781 Z M 223.996094 726.300781 " transform="matrix(1,0,0,-1,-135,761)"/>
<path style="fill:none;stroke-width:0.8;stroke-linecap:butt;stroke-linejoin:round;stroke:rgb(0%,0%,0%);stroke-opacity:1;stroke-miterlimit:10;" d="M 207.996094 726.300781 C 206.667969 725.867188 205.144531 725.683594 204.308594 724.503906 C 203.472656 723.324219 203.328125 721.144531 204.472656 719.527344 C 205.617188 717.910156 208.050781 716.855469 209.847656 717.476562 C 211.644531 718.09375 212.808594 720.378906 212.988281 722.433594 C 213.171875 724.484375 212.371094 726.300781 211.410156 726.863281 C 210.445312 727.429688 209.320312 726.738281 207.996094 726.300781 Z M 207.996094 726.300781 " transform="matrix(1,0,0,-1,-135,761)"/>
<path style="fill:none;stroke-width:0.8;stroke-linecap:butt;stroke-linejoin:round;stroke:rgb(0%,0%,0%);stroke-opacity:1;stroke-miterlimit:10;" d="M 191.996094 726.300781 C 190.667969 725.867188 189.144531 725.683594 188.308594 724.503906 C 187.472656 723.324219 187.328125 721.144531 188.472656 719.527344 C 189.617188 717.910156 192.050781 716.855469 193.847656 717.476562 C 195.644531 718.09375 196.808594 720.378906 196.988281 722.433594 C 197.171875 724.484375 196.371094 726.300781 195.410156 726.863281 C 194.445312 727.429688 193.320312 726.738281 191.996094 726.300781 Z M 191.996094 726.300781 " transform="matrix(1,0,0,-1,-135,761)"/>
<path style="fill:none;stroke-width:0.8;stroke-linecap:butt;stroke-linejoin:round;stroke:rgb(0%,0%,0%);stroke-opacity:1;stroke-miterlimit:10;" d="M 175.996094 726.300781 C 174.667969 725.867188 173.144531 725.683594 172.308594 724.503906 C 171.472656 723.324219 171.328125 721.144531 172.472656 719.527344 C 173.617188 717.910156 176.050781 716.855469 177.847656 717.476562 C 179.644531 718.09375 180.808594 720.378906 180.988281 722.433594 C 181.171875 724.484375 180.371094 726.300781 179.410156 726.863281 C 178.445312 727.429688 177.320312 726.738281 175.996094 726.300781 Z M 175.996094 726.300781 " transform="matrix(1,0,0,-1,-135,761)"/>
<path style="fill:none;stroke-width:0.8;stroke-linecap:butt;stroke-linejoin:round;stroke:rgb(0%,0%,0%);stroke-opacity:1;stroke-miterlimit:10;" d="M 175.996094 710.300781 C 174.667969 709.867188 173.144531 709.683594 172.308594 708.503906 C 171.472656 707.324219 171.328125 705.144531 172.472656 703.527344 C 173.617188 701.910156 176.050781 700.855469 177.847656 701.476562 C 179.644531 702.09375 180.808594 704.378906 180.988281 706.433594 C 181.171875 708.484375 180.371094 710.300781 179.410156 710.863281 C 178.445312 711.429688 177.320312 710.738281 175.996094 710.300781 Z M 175.996094 710.300781 " transform="matrix(1,0,0,-1,-135,761)"/>
<path style="fill:none;stroke-width:0.8;stroke-linecap:butt;stroke-linejoin:round;stroke:rgb(0%,0%,0%);stroke-opacity:1;stroke-miterlimit:10;" d="M 175.996094 694.300781 C 174.667969 693.867188 173.144531 693.683594 172.308594 692.503906 C 171.472656 691.324219 171.328125 689.144531 172.472656 687.527344 C 173.617188 685.910156 176.050781 684.855469 177.847656 685.476562 C 179.644531 686.09375 180.808594 688.378906 180.988281 690.433594 C 181.171875 692.484375 180.371094 694.300781 179.410156 694.863281 C 178.445312 695.429688 177.320312 694.738281 175.996094 694.300781 Z M 175.996094 694.300781 " transform="matrix(1,0,0,-1,-135,761)"/>
<path style="fill:none;stroke-width:0.8;stroke-linecap:butt;stroke-linejoin:round;stroke:rgb(0%,0%,0%);stroke-opacity:1;stroke-miterlimit:10;" d="M 191.996094 694.300781 C 190.667969 693.867188 189.144531 693.683594 188.308594 692.503906 C 187.472656 691.324219 187.328125 689.144531 188.472656 687.527344 C 189.617188 685.910156 192.050781 684.855469 193.847656 685.476562 C 195.644531 686.09375 196.808594 688.378906 196.988281 690.433594 C 197.171875 692.484375 196.371094 694.300781 195.410156 694.863281 C 194.445312 695.429688 193.320312 694.738281 191.996094 694.300781 Z M 191.996094 694.300781 " transform="matrix(1,0,0,-1,-135,761)"/>
<path style="fill:none;stroke-width:0.8;stroke-linecap:butt;stroke-linejoin:round;stroke:rgb(0%,0%,0%);stroke-opacity:1;stroke-miterlimit:10;" d="M 207.996094 694.300781 C 206.667969 693.867188 205.144531 693.683594 204.308594 692.503906 C 203.472656 691.324219 203.328125 689.144531 204.472656 687.527344 C 205.617188 685.910156 208.050781 684.855469 209.847656 685.476562 C 211.644531 686.09375 212.808594 688.378906 212.988281 690.433594 C 213.171875 692.484375 212.371094 694.300781 211.410156 694.863281 C 210.445312 695.429688 209.320312 694.738281 207.996094 694.300781 Z M 207.996094 694.300781 " transform="matrix(1,0,0,-1,-135,761)"/>
<path style="fill:none;stroke-width:0.8;stroke-linecap:butt;stroke-linejoin:round;stroke:rgb(0%,0%,0%);stroke-opacity:1;stroke-miterlimit:10;" d="M 223.996094 694.300781 C 222.667969 693.867188 221.144531 693.683594 220.308594 692.503906 C 219.472656 691.324219 219.328125 689.144531 220.472656 687.527344 C 221.617188 685.910156 224.050781 684.855469 225.847656 685.476562 C 227.644531 686.09375 228.808594 688.378906 228.988281 690.433594 C 229.171875 692.484375 228.371094 694.300781 227.410156 694.863281 C 226.445312 695.429688 225.320312 694.738281 223.996094 694.300781 Z M 223.996094 694.300781 " transform="matrix(1,0,0,-1,-135,761)"/>
<path style="fill:none;stroke-width:0.8;stroke-linecap:butt;stroke-linejoin:round;stroke:rgb(0%,0%,0%);stroke-opacity:1;stroke-miterlimit:10;" d="M 239.996094 694.300781 C 238.667969 693.867188 237.144531 693.683594 236.308594 692.503906 C 235.472656 691.324219 235.328125 689.144531 236.472656 687.527344 C 237.617188 685.910156 240.050781 684.855469 241.847656 685.476562 C 243.644531 686.09375 244.808594 688.378906 244.988281 690.433594 C 245.171875 692.484375 244.371094 694.300781 243.410156 694.863281 C 242.445312 695.429688 241.320312 694.738281 239.996094 694.300781 Z M 239.996094 694.300781 " transform="matrix(1,0,0,-1,-135,761)"/>
<path style="fill:none;stroke-width:0.8;stroke-linecap:butt;stroke-linejoin:round;stroke:rgb(0%,0%,0%);stroke-opacity:1;stroke-miterlimit:10;" d="M 239.996094 678.300781 C 238.667969 677.867188 237.144531 677.683594 236.308594 676.503906 C 235.472656 675.324219 235.328125 673.144531 236.472656 671.527344 C 237.617188 669.910156 240.050781 668.855469 241.847656 669.476562 C 243.644531 670.09375 244.808594 672.378906 244.988281 674.433594 C 245.171875 676.484375 244.371094 678.300781 243.410156 678.863281 C 242.445312 679.429688 241.320312 678.738281 239.996094 678.300781 Z M 239.996094 678.300781 " transform="matrix(1,0,0,-1,-135,761)"/>
<path style="fill:none;stroke-width:0.8;stroke-linecap:butt;stroke-linejoin:round;stroke:rgb(0%,0%,0%);stroke-opacity:1;stroke-miterlimit:10;" d="M 223.996094 678.300781 C 222.667969 677.867188 221.144531 677.683594 220.308594 676.503906 C 219.472656 675.324219 219.328125 673.144531 220.472656 671.527344 C 221.617188 669.910156 224.050781 668.855469 225.847656 669.476562 C 227.644531 670.09375 228.808594 672.378906 228.988281 674.433594 C 229.171875 676.484375 228.371094 678.300781 227.410156 678.863281 C 226.445312 679.429688 225.320312 678.738281 223.996094 678.300781 Z M 223.996094 678.300781 " transform="matrix(1,0,0,-1,-135,761)"/>
<path style="fill:none;stroke-width:0.8;stroke-linecap:butt;stroke-linejoin:round;stroke:rgb(0%,0%,0%);stroke-opacity:1;stroke-miterlimit:10;" d="M 207.996094 678.300781 C 206.667969 677.867188 205.144531 677.683594 204.308594 676.503906 C 203.472656 675.324219 203.328125 673.144531 204.472656 671.527344 C 205.617188 669.910156 208.050781 668.855469 209.847656 669.476562 C 211.644531 670.09375 212.808594 672.378906 212.988281 674.433594 C 213.171875 676.484375 212.371094 678.300781 211.410156 678.863281 C 210.445312 679.429688 209.320312 678.738281 207.996094 678.300781 Z M 207.996094 678.300781 " transform="matrix(1,0,0,-1,-135,761)"/>
<path style="fill:none;stroke-width:0.8;stroke-linecap:butt;stroke-linejoin:round;stroke:rgb(0%,0%,0%);stroke-opacity:1;stroke-miterlimit:10;" d="M 191.996094 678.300781 C 190.667969 677.867188 189.144531 677.683594 188.308594 676.503906 C 187.472656 675.324219 187.328125 673.144531 188.472656 671.527344 C 189.617188 669.910156 192.050781 668.855469 193.847656 669.476562 C 195.644531 670.09375 196.808594 672.378906 196.988281 674.433594 C 197.171875 676.484375 196.371094 678.300781 195.410156 678.863281 C 194.445312 679.429688 193.320312 678.738281 191.996094 678.300781 Z M 191.996094 678.300781 " transform="matrix(1,0,0,-1,-135,761)"/>
<path style="fill:none;stroke-width:0.8;stroke-linecap:butt;stroke-linejoin:round;stroke:rgb(0%,0%,0%);stroke-opacity:1;stroke-miterlimit:10;" d="M 175.996094 678.300781 C 174.667969 677.867188 173.144531 677.683594 172.308594 676.503906 C 171.472656 675.324219 171.328125 673.144531 172.472656 671.527344 C 173.617188 669.910156 176.050781 668.855469 177.847656 669.476562 C 179.644531 670.09375 180.808594 672.378906 180.988281 674.433594 C 181.171875 676.484375 180.371094 678.300781 179.410156 678.863281 C 178.445312 679.429688 177.320312 678.738281 175.996094 678.300781 Z M 175.996094 678.300781 " transform="matrix(1,0,0,-1,-135,761)"/>
<path style="fill:none;stroke-width:0.8;stroke-linecap:butt;stroke-linejoin:round;stroke:rgb(0%,0%,0%);stroke-opacity:1;stroke-miterlimit:10;" d="M 159.996094 678.300781 C 158.667969 677.867188 157.144531 677.683594 156.308594 676.503906 C 155.472656 675.324219 155.328125 673.144531 156.472656 671.527344 C 157.617188 669.910156 160.050781 668.855469 161.847656 669.476562 C 163.644531 670.09375 164.808594 672.378906 164.988281 674.433594 C 165.171875 676.484375 164.371094 678.300781 163.410156 678.863281 C 162.445312 679.429688 161.320312 678.738281 159.996094 678.300781 Z M 159.996094 678.300781 " transform="matrix(1,0,0,-1,-135,761)"/>
<path style="fill:none;stroke-width:0.8;stroke-linecap:butt;stroke-linejoin:round;stroke:rgb(0%,0%,0%);stroke-opacity:1;stroke-miterlimit:10;" d="M 159.996094 694.300781 C 158.667969 693.867188 157.144531 693.683594 156.308594 692.503906 C 155.472656 691.324219 155.328125 689.144531 156.472656 687.527344 C 157.617188 685.910156 160.050781 684.855469 161.847656 685.476562 C 163.644531 686.09375 164.808594 688.378906 164.988281 690.433594 C 165.171875 692.484375 164.371094 694.300781 163.410156 694.863281 C 162.445312 695.429688 161.320312 694.738281 159.996094 694.300781 Z M 159.996094 694.300781 " transform="matrix(1,0,0,-1,-135,761)"/>
<path style="fill:none;stroke-width:0.8;stroke-linecap:butt;stroke-linejoin:round;stroke:rgb(0%,0%,0%);stroke-opacity:1;stroke-miterlimit:10;" d="M 159.996094 710.300781 C 158.667969 709.867188 157.144531 709.683594 156.308594 708.503906 C 155.472656 707.324219 155.328125 705.144531 156.472656 703.527344 C 157.617188 701.910156 160.050781 700.855469 161.847656 701.476562 C 163.644531 702.09375 164.808594 704.378906 164.988281 706.433594 C 165.171875 708.484375 164.371094 710.300781 163.410156 710.863281 C 162.445312 711.429688 161.320312 710.738281 159.996094 710.300781 Z M 159.996094 710.300781 " transform="matrix(1,0,0,-1,-135,761)"/>
<path style="fill:none;stroke-width:0.8;stroke-linecap:butt;stroke-linejoin:round;stroke:rgb(0%,0%,0%);stroke-opacity:1;stroke-miterlimit:10;" d="M 159.996094 726.300781 C 158.667969 725.867188 157.144531 725.683594 156.308594 724.503906 C 155.472656 723.324219 155.328125 721.144531 156.472656 719.527344 C 157.617188 717.910156 160.050781 716.855469 161.847656 717.476562 C 163.644531 718.09375 164.808594 720.378906 164.988281 722.433594 C 165.171875 724.484375 164.371094 726.300781 163.410156 726.863281 C 162.445312 727.429688 161.320312 726.738281 159.996094 726.300781 Z M 159.996094 726.300781 " transform="matrix(1,0,0,-1,-135,761)"/>
<path style="fill:none;stroke-width:0.8;stroke-linecap:butt;stroke-linejoin:round;stroke:rgb(0%,0%,0%);stroke-opacity:1;stroke-miterlimit:10;" d="M 159.996094 742.300781 C 158.667969 741.867188 157.144531 741.683594 156.308594 740.503906 C 155.472656 739.324219 155.328125 737.144531 156.472656 735.527344 C 157.617188 733.910156 160.050781 732.855469 161.847656 733.476562 C 163.644531 734.09375 164.808594 736.378906 164.988281 738.433594 C 165.171875 740.484375 164.371094 742.300781 163.410156 742.863281 C 162.445312 743.429688 161.320312 742.738281 159.996094 742.300781 Z M 159.996094 742.300781 " transform="matrix(1,0,0,-1,-135,761)"/>
<path style="fill:none;stroke-width:0.8;stroke-linecap:butt;stroke-linejoin:round;stroke:rgb(0%,0%,0%);stroke-opacity:1;stroke-miterlimit:10;" d="M 175.996094 742.300781 C 174.667969 741.867188 173.144531 741.683594 172.308594 740.503906 C 171.472656 739.324219 171.328125 737.144531 172.472656 735.527344 C 173.617188 733.910156 176.050781 732.855469 177.847656 733.476562 C 179.644531 734.09375 180.808594 736.378906 180.988281 738.433594 C 181.171875 740.484375 180.371094 742.300781 179.410156 742.863281 C 178.445312 743.429688 177.320312 742.738281 175.996094 742.300781 Z M 175.996094 742.300781 " transform="matrix(1,0,0,-1,-135,761)"/>
<path style="fill:none;stroke-width:0.8;stroke-linecap:butt;stroke-linejoin:round;stroke:rgb(0%,0%,0%);stroke-opacity:1;stroke-miterlimit:10;" d="M 191.996094 742.300781 C 190.667969 741.867188 189.144531 741.683594 188.308594 740.503906 C 187.472656 739.324219 187.328125 737.144531 188.472656 735.527344 C 189.617188 733.910156 192.050781 732.855469 193.847656 733.476562 C 195.644531 734.09375 196.808594 736.378906 196.988281 738.433594 C 197.171875 740.484375 196.371094 742.300781 195.410156 742.863281 C 194.445312 743.429688 193.320312 742.738281 191.996094 742.300781 Z M 191.996094 742.300781 " transform="matrix(1,0,0,-1,-135,761)"/>
<path style="fill:none;stroke-width:0.8;stroke-linecap:butt;stroke-linejoin:round;stroke:rgb(0%,0%,0%);stroke-opacity:1;stroke-miterlimit:10;" d="M 207.996094 742.300781 C 206.667969 741.867188 205.144531 741.683594 204.308594 740.503906 C 203.472656 739.324219 203.328125 737.144531 204.472656 735.527344 C 205.617188 733.910156 208.050781 732.855469 209.847656 733.476562 C 211.644531 734.09375 212.808594 736.378906 212.988281 738.433594 C 213.171875 740.484375 212.371094 742.300781 211.410156 742.863281 C 210.445312 743.429688 209.320312 742.738281 207.996094 742.300781 Z M 207.996094 742.300781 " transform="matrix(1,0,0,-1,-135,761)"/>
<path style="fill:none;stroke-width:0.8;stroke-linecap:butt;stroke-linejoin:round;stroke:rgb(0%,0%,0%);stroke-opacity:1;stroke-miterlimit:10;" d="M 143.996094 726.300781 C 142.667969 725.867188 141.144531 725.683594 140.308594 724.503906 C 139.472656 723.324219 139.328125 721.144531 140.472656 719.527344 C 141.617188 717.910156 144.050781 716.855469 145.847656 717.476562 C 147.644531 718.09375 148.808594 720.378906 148.988281 722.433594 C 149.171875 724.484375 148.371094 726.300781 147.410156 726.863281 C 146.445312 727.429688 145.320312 726.738281 143.996094 726.300781 Z M 143.996094 726.300781 " transform="matrix(1,0,0,-1,-135,761)"/>
<path style="fill:none;stroke-width:0.8;stroke-linecap:butt;stroke-linejoin:round;stroke:rgb(0%,0%,0%);stroke-opacity:1;stroke-miterlimit:10;" d="M 143.996094 742.300781 C 142.667969 741.867188 141.144531 741.683594 140.308594 740.503906 C 139.472656 739.324219 139.328125 737.144531 140.472656 735.527344 C 141.617188 733.910156 144.050781 732.855469 145.847656 733.476562 C 147.644531 734.09375 148.808594 736.378906 148.988281 738.433594 C 149.171875 740.484375 148.371094 742.300781 147.410156 742.863281 C 146.445312 743.429688 145.320312 742.738281 143.996094 742.300781 Z M 143.996094 742.300781 " transform="matrix(1,0,0,-1,-135,761)"/>
<path style="fill:none;stroke-width:0.8;stroke-linecap:butt;stroke-linejoin:round;stroke:rgb(0%,0%,0%);stroke-opacity:1;stroke-miterlimit:10;" d="M 143.996094 758.300781 C 142.667969 757.867188 141.144531 757.683594 140.308594 756.503906 C 139.472656 755.324219 139.328125 753.144531 140.472656 751.527344 C 141.617188 749.910156 144.050781 748.855469 145.847656 749.476562 C 147.644531 750.09375 148.808594 752.378906 148.988281 754.433594 C 149.171875 756.484375 148.371094 758.300781 147.410156 758.863281 C 146.445312 759.429688 145.320312 758.738281 143.996094 758.300781 Z M 143.996094 758.300781 " transform="matrix(1,0,0,-1,-135,761)"/>
<path style="fill:none;stroke-width:0.8;stroke-linecap:butt;stroke-linejoin:round;stroke:rgb(0%,0%,0%);stroke-opacity:1;stroke-miterlimit:10;" d="M 159.996094 758.300781 C 158.667969 757.867188 157.144531 757.683594 156.308594 756.503906 C 155.472656 755.324219 155.328125 753.144531 156.472656 751.527344 C 157.617188 749.910156 160.050781 748.855469 161.847656 749.476562 C 163.644531 750.09375 164.808594 752.378906 164.988281 754.433594 C 165.171875 756.484375 164.371094 758.300781 163.410156 758.863281 C 162.445312 759.429688 161.320312 758.738281 159.996094 758.300781 Z M 159.996094 758.300781 " transform="matrix(1,0,0,-1,-135,761)"/>
<path style="fill:none;stroke-width:0.8;stroke-linecap:butt;stroke-linejoin:round;stroke:rgb(0%,0%,0%);stroke-opacity:1;stroke-miterlimit:10;" d="M 175.996094 758.300781 C 174.667969 757.867188 173.144531 757.683594 172.308594 756.503906 C 171.472656 755.324219 171.328125 753.144531 172.472656 751.527344 C 173.617188 749.910156 176.050781 748.855469 177.847656 749.476562 C 179.644531 750.09375 180.808594 752.378906 180.988281 754.433594 C 181.171875 756.484375 180.371094 758.300781 179.410156 758.863281 C 178.445312 759.429688 177.320312 758.738281 175.996094 758.300781 Z M 175.996094 758.300781 " transform="matrix(1,0,0,-1,-135,761)"/>
<path style="fill:none;stroke-width:0.8;stroke-linecap:butt;stroke-linejoin:round;stroke:rgb(0%,0%,0%);stroke-opacity:1;stroke-miterlimit:10;" d="M 191.996094 758.300781 C 190.667969 757.867188 189.144531 757.683594 188.308594 756.503906 C 187.472656 755.324219 187.328125 753.144531 188.472656 751.527344 C 189.617188 749.910156 192.050781 748.855469 193.847656 749.476562 C 195.644531 750.09375 196.808594 752.378906 196.988281 754.433594 C 197.171875 756.484375 196.371094 758.300781 195.410156 758.863281 C 194.445312 759.429688 193.320312 758.738281 191.996094 758.300781 Z M 191.996094 758.300781 " transform="matrix(1,0,0,-1,-135,761)"/>
<path style="fill:none;stroke-width:0.8;stroke-linecap:butt;stroke-linejoin:round;stroke:rgb(0%,0%,0%);stroke-opacity:1;stroke-miterlimit:10;" d="M 207.996094 758.300781 C 206.667969 757.867188 205.144531 757.683594 204.308594 756.503906 C 203.472656 755.324219 203.328125 753.144531 204.472656 751.527344 C 205.617188 749.910156 208.050781 748.855469 209.847656 749.476562 C 211.644531 750.09375 212.808594 752.378906 212.988281 754.433594 C 213.171875 756.484375 212.371094 758.300781 211.410156 758.863281 C 210.445312 759.429688 209.320312 758.738281 207.996094 758.300781 Z M 207.996094 758.300781 " transform="matrix(1,0,0,-1,-135,761)"/>
<path style="fill:none;stroke-width:0.8;stroke-linecap:butt;stroke-linejoin:round;stroke:rgb(0%,0%,0%);stroke-opacity:1;stroke-miterlimit:10;" d="M 223.996094 758.300781 C 222.667969 757.867188 221.144531 757.683594 220.308594 756.503906 C 219.472656 755.324219 219.328125 753.144531 220.472656 751.527344 C 221.617188 749.910156 224.050781 748.855469 225.847656 749.476562 C 227.644531 750.09375 228.808594 752.378906 228.988281 754.433594 C 229.171875 756.484375 228.371094 758.300781 227.410156 758.863281 C 226.445312 759.429688 225.320312 758.738281 223.996094 758.300781 Z M 223.996094 758.300781 " transform="matrix(1,0,0,-1,-135,761)"/>
<path style="fill:none;stroke-width:0.8;stroke-linecap:butt;stroke-linejoin:round;stroke:rgb(0%,0%,0%);stroke-opacity:1;stroke-miterlimit:10;" d="M 239.996094 758.300781 C 238.667969 757.867188 237.144531 757.683594 236.308594 756.503906 C 235.472656 755.324219 235.328125 753.144531 236.472656 751.527344 C 237.617188 749.910156 240.050781 748.855469 241.847656 749.476562 C 243.644531 750.09375 244.808594 752.378906 244.988281 754.433594 C 245.171875 756.484375 244.371094 758.300781 243.410156 758.863281 C 242.445312 759.429688 241.320312 758.738281 239.996094 758.300781 Z M 239.996094 758.300781 " transform="matrix(1,0,0,-1,-135,761)"/>
<path style="fill:none;stroke-width:0.8;stroke-linecap:butt;stroke-linejoin:round;stroke:rgb(0%,0%,0%);stroke-opacity:1;stroke-miterlimit:10;" d="M 239.996094 742.300781 C 238.667969 741.867188 237.144531 741.683594 236.308594 740.503906 C 235.472656 739.324219 235.328125 737.144531 236.472656 735.527344 C 237.617188 733.910156 240.050781 732.855469 241.847656 733.476562 C 243.644531 734.09375 244.808594 736.378906 244.988281 738.433594 C 245.171875 740.484375 244.371094 742.300781 243.410156 742.863281 C 242.445312 743.429688 241.320312 742.738281 239.996094 742.300781 Z M 239.996094 742.300781 " transform="matrix(1,0,0,-1,-135,761)"/>
<path style="fill:none;stroke-width:0.8;stroke-linecap:butt;stroke-linejoin:round;stroke:rgb(0%,0%,0%);stroke-opacity:1;stroke-miterlimit:10;" d="M 223.996094 742.300781 C 222.667969 741.867188 221.144531 741.683594 220.308594 740.503906 C 219.472656 739.324219 219.328125 737.144531 220.472656 735.527344 C 221.617188 733.910156 224.050781 732.855469 225.847656 733.476562 C 227.644531 734.09375 228.808594 736.378906 228.988281 738.433594 C 229.171875 740.484375 228.371094 742.300781 227.410156 742.863281 C 226.445312 743.429688 225.320312 742.738281 223.996094 742.300781 Z M 223.996094 742.300781 " transform="matrix(1,0,0,-1,-135,761)"/>
<path style="fill:none;stroke-width:0.8;stroke-linecap:butt;stroke-linejoin:round;stroke:rgb(0%,0%,0%);stroke-opacity:1;stroke-miterlimit:10;" d="M 143.996094 710.300781 C 142.667969 709.867188 141.144531 709.683594 140.308594 708.503906 C 139.472656 707.324219 139.328125 705.144531 140.472656 703.527344 C 141.617188 701.910156 144.050781 700.855469 145.847656 701.476562 C 147.644531 702.09375 148.808594 704.378906 148.988281 706.433594 C 149.171875 708.484375 148.371094 710.300781 147.410156 710.863281 C 146.445312 711.429688 145.320312 710.738281 143.996094 710.300781 Z M 143.996094 710.300781 " transform="matrix(1,0,0,-1,-135,761)"/>
<path style="fill:none;stroke-width:0.8;stroke-linecap:butt;stroke-linejoin:round;stroke:rgb(0%,0%,0%);stroke-opacity:1;stroke-miterlimit:10;" d="M 143.996094 694.300781 C 142.667969 693.867188 141.144531 693.683594 140.308594 692.503906 C 139.472656 691.324219 139.328125 689.144531 140.472656 687.527344 C 141.617188 685.910156 144.050781 684.855469 145.847656 685.476562 C 147.644531 686.09375 148.808594 688.378906 148.988281 690.433594 C 149.171875 692.484375 148.371094 694.300781 147.410156 694.863281 C 146.445312 695.429688 145.320312 694.738281 143.996094 694.300781 Z M 143.996094 694.300781 " transform="matrix(1,0,0,-1,-135,761)"/>
<path style="fill:none;stroke-width:0.8;stroke-linecap:butt;stroke-linejoin:round;stroke:rgb(0%,0%,0%);stroke-opacity:1;stroke-miterlimit:10;" d="M 143.996094 678.300781 C 142.667969 677.867188 141.144531 677.683594 140.308594 676.503906 C 139.472656 675.324219 139.328125 673.144531 140.472656 671.527344 C 141.617188 669.910156 144.050781 668.855469 145.847656 669.476562 C 147.644531 670.09375 148.808594 672.378906 148.988281 674.433594 C 149.171875 676.484375 148.371094 678.300781 147.410156 678.863281 C 146.445312 679.429688 145.320312 678.738281 143.996094 678.300781 Z M 143.996094 678.300781 " transform="matrix(1,0,0,-1,-135,761)"/>
<path style="fill:none;stroke-width:0.8;stroke-linecap:butt;stroke-linejoin:round;stroke:rgb(0%,0%,0%);stroke-opacity:1;stroke-miterlimit:10;" d="M 143.996094 662.300781 C 142.667969 661.867188 141.144531 661.683594 140.308594 660.503906 C 139.472656 659.324219 139.328125 657.144531 140.472656 655.527344 C 141.617188 653.910156 144.050781 652.855469 145.847656 653.476562 C 147.644531 654.09375 148.808594 656.378906 148.988281 658.433594 C 149.171875 660.484375 148.371094 662.300781 147.410156 662.863281 C 146.445312 663.429688 145.320312 662.738281 143.996094 662.300781 Z M 143.996094 662.300781 " transform="matrix(1,0,0,-1,-135,761)"/>
<path style="fill:none;stroke-width:0.8;stroke-linecap:butt;stroke-linejoin:round;stroke:rgb(0%,0%,0%);stroke-opacity:1;stroke-miterlimit:10;" d="M 159.996094 662.300781 C 158.667969 661.867188 157.144531 661.683594 156.308594 660.503906 C 155.472656 659.324219 155.328125 657.144531 156.472656 655.527344 C 157.617188 653.910156 160.050781 652.855469 161.847656 653.476562 C 163.644531 654.09375 164.808594 656.378906 164.988281 658.433594 C 165.171875 660.484375 164.371094 662.300781 163.410156 662.863281 C 162.445312 663.429688 161.320312 662.738281 159.996094 662.300781 Z M 159.996094 662.300781 " transform="matrix(1,0,0,-1,-135,761)"/>
<path style="fill:none;stroke-width:0.8;stroke-linecap:butt;stroke-linejoin:round;stroke:rgb(0%,0%,0%);stroke-opacity:1;stroke-miterlimit:10;" d="M 175.996094 662.300781 C 174.667969 661.867188 173.144531 661.683594 172.308594 660.503906 C 171.472656 659.324219 171.328125 657.144531 172.472656 655.527344 C 173.617188 653.910156 176.050781 652.855469 177.847656 653.476562 C 179.644531 654.09375 180.808594 656.378906 180.988281 658.433594 C 181.171875 660.484375 180.371094 662.300781 179.410156 662.863281 C 178.445312 663.429688 177.320312 662.738281 175.996094 662.300781 Z M 175.996094 662.300781 " transform="matrix(1,0,0,-1,-135,761)"/>
<path style="fill:none;stroke-width:0.8;stroke-linecap:butt;stroke-linejoin:round;stroke:rgb(0%,0%,0%);stroke-opacity:1;stroke-miterlimit:10;" d="M 191.996094 662.300781 C 190.667969 661.867188 189.144531 661.683594 188.308594 660.503906 C 187.472656 659.324219 187.328125 657.144531 188.472656 655.527344 C 189.617188 653.910156 192.050781 652.855469 193.847656 653.476562 C 195.644531 654.09375 196.808594 656.378906 196.988281 658.433594 C 197.171875 660.484375 196.371094 662.300781 195.410156 662.863281 C 194.445312 663.429688 193.320312 662.738281 191.996094 662.300781 Z M 191.996094 662.300781 " transform="matrix(1,0,0,-1,-135,761)"/>
<path style="fill:none;stroke-width:0.8;stroke-linecap:butt;stroke-linejoin:round;stroke:rgb(0%,0%,0%);stroke-opacity:1;stroke-miterlimit:10;" d="M 207.996094 662.300781 C 206.667969 661.867188 205.144531 661.683594 204.308594 660.503906 C 203.472656 659.324219 203.328125 657.144531 204.472656 655.527344 C 205.617188 653.910156 208.050781 652.855469 209.847656 653.476562 C 211.644531 654.09375 212.808594 656.378906 212.988281 658.433594 C 213.171875 660.484375 212.371094 662.300781 211.410156 662.863281 C 210.445312 663.429688 209.320312 662.738281 207.996094 662.300781 Z M 207.996094 662.300781 " transform="matrix(1,0,0,-1,-135,761)"/>
<path style="fill:none;stroke-width:0.8;stroke-linecap:butt;stroke-linejoin:round;stroke:rgb(0%,0%,0%);stroke-opacity:1;stroke-miterlimit:10;" d="M 223.996094 662.300781 C 222.667969 661.867188 221.144531 661.683594 220.308594 660.503906 C 219.472656 659.324219 219.328125 657.144531 220.472656 655.527344 C 221.617188 653.910156 224.050781 652.855469 225.847656 653.476562 C 227.644531 654.09375 228.808594 656.378906 228.988281 658.433594 C 229.171875 660.484375 228.371094 662.300781 227.410156 662.863281 C 226.445312 663.429688 225.320312 662.738281 223.996094 662.300781 Z M 223.996094 662.300781 " transform="matrix(1,0,0,-1,-135,761)"/>
<path style="fill:none;stroke-width:0.8;stroke-linecap:butt;stroke-linejoin:round;stroke:rgb(0%,0%,0%);stroke-opacity:1;stroke-miterlimit:10;" d="M 239.996094 662.300781 C 238.667969 661.867188 237.144531 661.683594 236.308594 660.503906 C 235.472656 659.324219 235.328125 657.144531 236.472656 655.527344 C 237.617188 653.910156 240.050781 652.855469 241.847656 653.476562 C 243.644531 654.09375 244.808594 656.378906 244.988281 658.433594 C 245.171875 660.484375 244.371094 662.300781 243.410156 662.863281 C 242.445312 663.429688 241.320312 662.738281 239.996094 662.300781 Z M 239.996094 662.300781 " transform="matrix(1,0,0,-1,-135,761)"/>
<path style="fill:none;stroke-width:0.8;stroke-linecap:butt;stroke-linejoin:round;stroke:rgb(0%,0%,0%);stroke-opacity:1;stroke-miterlimit:10;" d="M 239.996094 662.300781 C 238.667969 661.867188 237.144531 661.683594 236.308594 660.503906 C 235.472656 659.324219 235.328125 657.144531 236.472656 655.527344 C 237.617188 653.910156 240.050781 652.855469 241.847656 653.476562 C 243.644531 654.09375 244.808594 656.378906 244.988281 658.433594 C 245.171875 660.484375 244.371094 662.300781 243.410156 662.863281 C 242.445312 663.429688 241.320312 662.738281 239.996094 662.300781 Z M 239.996094 662.300781 " transform="matrix(1,0,0,-1,-135,761)"/>
<path style="fill:none;stroke-width:1.2;stroke-linecap:butt;stroke-linejoin:round;stroke:rgb(0%,0%,0%);stroke-opacity:1;stroke-miterlimit:10;" d="M 299.800781 701.769531 C 299.800781 701.769531 299.800781 701.769531 299.644531 701.8125 C 299.492188 701.851562 299.183594 701.933594 298.617188 701.703125 C 298.050781 701.472656 297.226562 700.929688 296.339844 700.304688 C 295.453125 699.679688 294.503906 698.972656 293.714844 698.011719 C 292.921875 697.050781 292.285156 695.835938 291.988281 694.683594 C 291.6875 693.535156 291.726562 692.449219 291.933594 691.421875 C 292.136719 690.394531 292.511719 689.429688 293.210938 688.265625 C 293.910156 687.101562 294.9375 685.734375 296.179688 684.417969 C 297.421875 683.101562 298.878906 681.835938 300.496094 680.675781 C 302.113281 679.511719 303.882812 678.453125 305.9375 677.503906 C 307.988281 676.554688 310.316406 675.71875 312.410156 675.117188 C 314.5 674.519531 316.355469 674.160156 318.035156 673.917969 C 319.714844 673.671875 321.222656 673.546875 322.875 673.488281 C 324.527344 673.429688 326.328125 673.445312 328.300781 673.542969 C 330.277344 673.640625 332.429688 673.824219 334.667969 674.136719 C 336.90625 674.449219 339.230469 674.886719 341.382812 675.453125 C 343.535156 676.019531 345.523438 676.714844 347.402344 677.578125 C 349.28125 678.441406 351.050781 679.476562 352.59375 680.605469 C 354.136719 681.734375 355.449219 682.960938 356.589844 684.253906 C 357.726562 685.550781 358.695312 686.914062 359.570312 688.402344 C 360.449219 689.886719 361.230469 691.496094 361.859375 693.128906 C 362.484375 694.761719 362.957031 696.421875 363.25 697.851562 C 363.539062 699.28125 363.65625 700.480469 363.625 701.921875 C 363.59375 703.359375 363.417969 705.039062 362.96875 706.734375 C 362.519531 708.429688 361.792969 710.144531 360.828125 711.648438 C 359.863281 713.152344 358.65625 714.441406 357.511719 715.433594 C 356.363281 716.425781 355.273438 717.113281 353.773438 717.828125 C 352.269531 718.539062 350.351562 719.277344 348.933594 719.726562 C 347.511719 720.175781 346.589844 720.332031 345.492188 720.3125 C 344.394531 720.292969 343.121094 720.097656 342.089844 719.613281 C 341.0625 719.128906 340.28125 718.355469 339.734375 717.464844 C 339.183594 716.574219 338.867188 715.566406 338.710938 714.511719 C 338.550781 713.453125 338.550781 712.347656 338.675781 711.292969 C 338.804688 710.234375 339.054688 709.226562 339.382812 708.296875 C 339.710938 707.367188 340.109375 706.511719 340.535156 706.027344 C 340.957031 705.542969 341.40625 705.429688 341.628906 705.375 C 341.851562 705.316406 341.851562 705.316406 341.851562 705.316406 " transform="matrix(1,0,0,-1,-135,761)"/>
<path style="fill:none;stroke-width:2;stroke-linecap:round;stroke-linejoin:round;stroke:rgb(0%,0%,0%);stroke-opacity:1;stroke-miterlimit:10;" d="M 288.863281 706.683594 C 288.863281 706.683594 288.863281 706.683594 289.402344 706.335938 C 289.945312 705.992188 291.023438 705.300781 292.320312 704.609375 C 293.617188 703.917969 295.128906 703.226562 296.835938 702.640625 C 298.542969 702.058594 300.445312 701.582031 302.457031 701.148438 C 304.464844 700.71875 306.582031 700.328125 308.699219 700.046875 C 310.816406 699.765625 312.933594 699.59375 314.6875 699.464844 C 316.4375 699.335938 317.820312 699.25 319.351562 699.226562 C 320.886719 699.207031 322.574219 699.25 324.519531 699.3125 C 326.460938 699.378906 328.667969 699.464844 330.523438 699.636719 C 332.382812 699.8125 333.894531 700.070312 335.6875 700.414062 C 337.484375 700.761719 339.558594 701.195312 341.285156 701.605469 C 343.015625 702.015625 344.398438 702.402344 345.628906 702.8125 C 346.859375 703.226562 347.941406 703.65625 349.195312 704.304688 C 350.449219 704.953125 351.875 705.816406 352.585938 706.25 C 353.300781 706.683594 353.300781 706.683594 353.300781 706.683594 " transform="matrix(1,0,0,-1,-135,761)"/>
<path style="fill:none;stroke-width:2;stroke-linecap:round;stroke-linejoin:round;stroke:rgb(0%,0%,0%);stroke-opacity:1;stroke-miterlimit:10;" d="M 294.386719 703.601562 C 294.386719 703.601562 294.386719 703.601562 295.023438 703.789062 C 295.65625 703.980469 296.929688 704.359375 298.191406 704.722656 C 299.453125 705.082031 300.703125 705.429688 302 705.730469 C 303.296875 706.035156 304.636719 706.292969 306.085938 706.53125 C 307.535156 706.769531 309.089844 706.984375 310.730469 707.15625 C 312.375 707.332031 314.101562 707.460938 315.59375 707.546875 C 317.085938 707.632812 318.335938 707.675781 319.65625 707.71875 C 320.972656 707.761719 322.355469 707.804688 324.085938 707.742188 C 325.8125 707.675781 327.886719 707.503906 330.027344 707.289062 C 332.167969 707.070312 334.371094 706.8125 336.164062 706.53125 C 337.957031 706.25 339.339844 705.949219 340.648438 705.625 C 341.953125 705.304688 343.183594 704.960938 344.304688 704.601562 C 345.421875 704.242188 346.433594 703.863281 346.9375 703.675781 C 347.445312 703.488281 347.445312 703.488281 347.445312 703.488281 " transform="matrix(1,0,0,-1,-135,761)"/>
</g>
</svg>
