<?xml version="1.0" encoding="UTF-8"?>
<svg xmlns="http://www.w3.org/2000/svg" xmlns:xlink="http://www.w3.org/1999/xlink" width="250.117pt" height="113.2pt" viewBox="0 0 250.117 113.2" version="1.1">
<defs>
<clipPath id="clip1">
  <path d="M 56 0 L 58 0 L 58 113.199219 L 56 113.199219 Z M 56 0 "/>
</clipPath>
</defs>
<g id="surface1">
<path style="fill-rule:evenodd;fill:rgb(86.999512%,86.999512%,86.999512%);fill-opacity:1;stroke-width:2;stroke-linecap:butt;stroke-linejoin:round;stroke:rgb(0%,0%,0%);stroke-opacity:1;stroke-miterlimit:10;" d="M 263.185156 719.201563 C 256.021094 709.959375 256.360937 697.428125 262.790625 688.299219 C 269.224219 679.170313 281.755469 673.439844 296.810156 670.404688 C 311.86875 667.373438 329.454687 667.033594 344.65 670.096094 C 359.849219 673.158594 372.657812 679.619531 379.11875 688.666406 C 385.579687 697.709375 385.692969 709.338281 379.204687 718.357813 C 372.7125 727.373438 359.622656 733.779688 345.267187 737.010156 C 330.915625 740.240625 315.294531 740.295313 300.153906 737.346094 C 285.013281 734.396875 270.349219 728.44375 263.185156 719.201563 Z M 316.353125 707.557031 C 314.689062 707.459375 312.814062 707.31875 311.005469 707.13125 C 309.192969 706.94375 307.439062 706.701563 305.896094 706.447656 C 304.349219 706.19375 303.005469 705.924219 301.767187 705.635156 C 300.532812 705.35 299.396094 705.045313 298.380469 704.760156 C 297.360937 704.478906 296.4625 704.213281 295.833594 704.029688 C 295.204687 703.842188 294.849219 703.736719 294.673437 703.685938 C 294.49375 703.63125 294.49375 703.63125 295.165625 703.330469 C 295.833594 703.025781 297.173437 702.420313 298.61875 701.982813 C 300.064062 701.541406 301.61875 701.271875 303.091406 701.014063 C 304.564062 700.75625 305.9625 700.514063 307.353125 700.307031 C 308.74375 700.1 310.126562 699.932031 311.810156 699.775781 C 313.49375 699.623438 315.470312 699.482813 317.384375 699.400781 C 319.298437 699.322656 321.146094 699.307031 322.9625 699.338281 C 324.778906 699.369531 326.560156 699.451563 328.259375 699.572656 C 329.954687 699.697656 331.571875 699.861719 333.161719 700.080469 C 334.751562 700.303125 336.317969 700.576563 337.661719 700.838281 C 339.005469 701.1 340.126562 701.346094 341.189062 701.603906 C 342.255469 701.857813 343.263281 702.123438 344.251562 702.420313 C 345.239844 702.717188 346.204687 703.045313 346.689062 703.209375 C 347.169531 703.373438 347.169531 703.373438 346.720312 703.572656 C 346.271094 703.764063 345.36875 704.158594 344.15 704.564844 C 342.93125 704.971094 341.392187 705.392969 339.954687 705.732813 C 338.517187 706.072656 337.18125 706.326563 335.579687 706.56875 C 333.974219 706.810938 332.103125 707.0375 330.185156 707.228906 C 328.271094 707.420313 326.310156 707.576563 324.763281 707.658594 C 323.216406 707.740625 322.079687 707.748438 320.782812 707.725 C 319.485937 707.705469 318.021094 707.650781 316.353125 707.557031 Z M 316.353125 707.557031 " transform="matrix(1,0,0,-1,-135.4,760.6)"/>
<path style=" stroke:none;fill-rule:evenodd;fill:rgb(66.299438%,66.299438%,66.299438%);fill-opacity:1;" d="M 161.585938 59.859375 C 160.90625 60.367188 160.089844 60.980469 159.351562 61.703125 C 158.613281 62.429688 157.960938 63.265625 157.476562 64.234375 C 156.996094 65.199219 156.683594 66.296875 156.667969 67.476562 C 156.648438 68.660156 156.925781 69.929688 157.261719 70.90625 C 157.597656 71.878906 157.996094 72.558594 158.558594 73.351562 C 159.121094 74.148438 159.847656 75.054688 160.535156 75.824219 C 161.21875 76.59375 161.859375 77.222656 162.660156 77.917969 C 163.464844 78.613281 164.425781 79.375 165.484375 80.109375 C 166.546875 80.84375 167.699219 81.554688 168.933594 82.207031 C 170.164062 82.859375 171.46875 83.453125 172.890625 84.007812 C 174.308594 84.558594 175.839844 85.070312 177.390625 85.496094 C 178.941406 85.921875 180.511719 86.261719 182.0625 86.511719 C 183.617188 86.757812 185.15625 86.917969 186.789062 87.003906 C 188.421875 87.085938 190.144531 87.09375 191.84375 87.039062 C 193.539062 86.984375 195.210938 86.867188 196.890625 86.691406 C 198.566406 86.515625 200.253906 86.273438 201.960938 85.953125 C 203.667969 85.632812 205.394531 85.234375 206.960938 84.78125 C 208.523438 84.328125 209.925781 83.824219 211.351562 83.191406 C 212.773438 82.558594 214.21875 81.796875 215.472656 81.023438 C 216.726562 80.25 217.785156 79.464844 218.824219 78.539062 C 219.867188 77.613281 220.890625 76.550781 221.847656 75.34375 C 222.808594 74.136719 223.707031 72.785156 224.472656 71.429688 C 225.238281 70.074219 225.871094 68.714844 226.359375 67.480469 C 226.851562 66.246094 227.203125 65.140625 227.488281 63.730469 C 227.777344 62.324219 228.003906 60.613281 228.023438 58.984375 C 228.039062 57.351562 227.851562 55.796875 227.476562 54.292969 C 227.105469 52.789062 226.542969 51.339844 225.894531 50.097656 C 225.246094 48.855469 224.507812 47.824219 223.644531 46.867188 C 222.777344 45.910156 221.789062 45.027344 220.800781 44.316406 C 219.816406 43.609375 218.839844 43.070312 217.441406 42.472656 C 216.046875 41.875 214.230469 41.21875 212.5625 40.890625 C 210.898438 40.5625 209.375 40.570312 208.125 40.863281 C 206.878906 41.15625 205.90625 41.738281 205.210938 42.394531 C 204.515625 43.050781 204.101562 43.78125 203.816406 44.570312 C 203.527344 45.363281 203.367188 46.21875 203.335938 47.234375 C 203.304688 48.253906 203.402344 49.433594 203.527344 50.289062 C 203.648438 51.144531 203.800781 51.671875 203.917969 52.054688 C 204.035156 52.4375 204.121094 52.671875 204.25 52.964844 C 204.378906 53.261719 204.546875 53.613281 205.113281 54.0625 C 205.679688 54.511719 206.644531 55.058594 207.472656 55.441406 C 208.300781 55.820312 208.988281 56.039062 209.558594 56.355469 C 210.125 56.675781 210.570312 57.09375 210.261719 57.46875 C 209.949219 57.84375 208.886719 58.175781 207.765625 58.484375 C 206.640625 58.792969 205.464844 59.074219 204.230469 59.351562 C 202.996094 59.628906 201.707031 59.894531 200.410156 60.136719 C 199.117188 60.375 197.820312 60.59375 196.304688 60.765625 C 194.785156 60.941406 193.042969 61.074219 191.4375 61.164062 C 189.828125 61.253906 188.359375 61.300781 186.839844 61.320312 C 185.320312 61.339844 183.757812 61.328125 182.09375 61.261719 C 180.433594 61.195312 178.675781 61.070312 177.105469 60.929688 C 175.535156 60.789062 174.152344 60.632812 172.910156 60.464844 C 171.664062 60.296875 170.5625 60.113281 169.34375 59.882812 C 168.128906 59.652344 166.804688 59.375 165.859375 59.164062 C 164.914062 58.953125 164.351562 58.8125 163.996094 58.722656 C 163.640625 58.628906 163.492188 58.589844 163.148438 58.769531 C 162.804688 58.949219 162.265625 59.351562 161.585938 59.859375 Z M 161.585938 59.859375 "/>
<g clip-path="url(#clip1)" clip-rule="nonzero">
<path style="fill:none;stroke-width:1.2;stroke-linecap:butt;stroke-linejoin:round;stroke:rgb(0%,0%,0%);stroke-opacity:1;stroke-miterlimit:10;" d="M 192.001563 759.998438 L 192.001563 647.998438 " transform="matrix(1,0,0,-1,-135.4,760.6)"/>
</g>
<path style="fill:none;stroke-width:1.2;stroke-linecap:butt;stroke-linejoin:round;stroke:rgb(0%,0%,0%);stroke-opacity:1;stroke-miterlimit:10;" d="M 136.001563 703.998438 L 248.001563 703.998438 " transform="matrix(1,0,0,-1,-135.4,760.6)"/>
<path style="fill:none;stroke-width:0.8;stroke-linecap:butt;stroke-linejoin:round;stroke:rgb(0%,0%,0%);stroke-opacity:1;stroke-miterlimit:10;" d="M 248.001563 719.998438 L 136.001563 719.998438 " transform="matrix(1,0,0,-1,-135.4,760.6)"/>
<path style="fill:none;stroke-width:0.8;stroke-linecap:butt;stroke-linejoin:round;stroke:rgb(0%,0%,0%);stroke-opacity:1;stroke-miterlimit:10;" d="M 136.001563 735.998438 L 248.001563 735.998438 " transform="matrix(1,0,0,-1,-135.4,760.6)"/>
<path style="fill:none;stroke-width:0.8;stroke-linecap:butt;stroke-linejoin:round;stroke:rgb(0%,0%,0%);stroke-opacity:1;stroke-miterlimit:10;" d="M 136.001563 751.998438 L 248.001563 751.998438 " transform="matrix(1,0,0,-1,-135.4,760.6)"/>
<path style="fill:none;stroke-width:0.8;stroke-linecap:butt;stroke-linejoin:round;stroke:rgb(0%,0%,0%);stroke-opacity:1;stroke-miterlimit:10;" d="M 136.001563 687.998438 L 248.001563 687.998438 " transform="matrix(1,0,0,-1,-135.4,760.6)"/>
<path style="fill:none;stroke-width:0.8;stroke-linecap:butt;stroke-linejoin:round;stroke:rgb(0%,0%,0%);stroke-opacity:1;stroke-miterlimit:10;" d="M 136.001563 671.998438 L 248.001563 671.998438 " transform="matrix(1,0,0,-1,-135.4,760.6)"/>
<path style="fill:none;stroke-width:0.8;stroke-linecap:butt;stroke-linejoin:round;stroke:rgb(0%,0%,0%);stroke-opacity:1;stroke-miterlimit:10;" d="M 136.001563 655.998438 L 248.001563 655.998438 " transform="matrix(1,0,0,-1,-135.4,760.6)"/>
<path style="fill:none;stroke-width:0.8;stroke-linecap:butt;stroke-linejoin:round;stroke:rgb(0%,0%,0%);stroke-opacity:1;stroke-miterlimit:10;" d="M 144.001563 759.998438 L 144.001563 647.998438 " transform="matrix(1,0,0,-1,-135.4,760.6)"/>
<path style="fill:none;stroke-width:0.8;stroke-linecap:butt;stroke-linejoin:round;stroke:rgb(0%,0%,0%);stroke-opacity:1;stroke-miterlimit:10;" d="M 160.001563 759.998438 L 160.001563 647.998438 " transform="matrix(1,0,0,-1,-135.4,760.6)"/>
<path style="fill:none;stroke-width:0.8;stroke-linecap:butt;stroke-linejoin:round;stroke:rgb(0%,0%,0%);stroke-opacity:1;stroke-miterlimit:10;" d="M 176.001563 759.998438 L 176.001563 647.998438 " transform="matrix(1,0,0,-1,-135.4,760.6)"/>
<path style="fill:none;stroke-width:0.8;stroke-linecap:butt;stroke-linejoin:round;stroke:rgb(0%,0%,0%);stroke-opacity:1;stroke-miterlimit:10;" d="M 208.001563 759.998438 L 208.001563 647.998438 " transform="matrix(1,0,0,-1,-135.4,760.6)"/>
<path style="fill:none;stroke-width:0.8;stroke-linecap:butt;stroke-linejoin:round;stroke:rgb(0%,0%,0%);stroke-opacity:1;stroke-miterlimit:10;" d="M 224.001563 759.998438 L 224.001563 647.998438 " transform="matrix(1,0,0,-1,-135.4,760.6)"/>
<path style="fill:none;stroke-width:0.8;stroke-linecap:butt;stroke-linejoin:round;stroke:rgb(0%,0%,0%);stroke-opacity:1;stroke-miterlimit:10;" d="M 240.001563 759.998438 L 240.001563 647.998438 " transform="matrix(1,0,0,-1,-135.4,760.6)"/>
<path style="fill:none;stroke-width:2;stroke-linecap:butt;stroke-linejoin:round;stroke:rgb(0%,0%,0%);stroke-opacity:1;stroke-miterlimit:10;" d="M 369.43125 708.615625 C 370.040625 720.107813 348.68125 729.428125 321.724219 729.428125 C 294.763281 729.428125 272.415625 720.107813 271.80625 708.615625 C 271.196875 697.123438 292.55625 687.803125 319.513281 687.803125 C 346.470312 687.803125 368.821875 697.123438 369.43125 708.615625 " transform="matrix(1,0,0,-1,-135.4,760.6)"/>
<path style="fill:none;stroke-width:2;stroke-linecap:butt;stroke-linejoin:round;stroke:rgb(0%,0%,0%);stroke-opacity:1;stroke-miterlimit:10;" d="M 320.845312 699.021875 L 320.845312 668.279688 " transform="matrix(1,0,0,-1,-135.4,760.6)"/>
<path style="fill-rule:evenodd;fill:rgb(66.299438%,66.299438%,66.299438%);fill-opacity:1;stroke-width:1.2;stroke-linecap:butt;stroke-linejoin:round;stroke:rgb(0%,0%,0%);stroke-opacity:1;stroke-miterlimit:10;" d="M 191.99375 710.303125 C 190.669531 709.865625 189.142188 709.685938 188.30625 708.502344 C 187.474219 707.322656 187.325781 705.142969 188.470313 703.525781 C 189.614844 701.9125 192.048438 700.857813 193.845313 701.475 C 195.646094 702.092188 196.80625 704.38125 196.989844 706.432031 C 197.173438 708.486719 196.372656 710.303125 195.411719 710.865625 C 194.446875 711.428125 193.321875 710.736719 191.99375 710.303125 Z M 191.99375 710.303125 " transform="matrix(1,0,0,-1,-135.4,760.6)"/>
<path style="fill:none;stroke-width:0.8;stroke-linecap:butt;stroke-linejoin:round;stroke:rgb(0%,0%,0%);stroke-opacity:1;stroke-miterlimit:10;" d="M 207.99375 710.303125 C 206.669531 709.865625 205.142188 709.685938 204.30625 708.502344 C 203.474219 707.322656 203.325781 705.142969 204.470313 703.525781 C 205.614844 701.9125 208.048438 700.857813 209.845313 701.475 C 211.646094 702.092188 212.80625 704.38125 212.989844 706.432031 C 213.173438 708.486719 212.372656 710.303125 211.411719 710.865625 C 210.446875 711.428125 209.321875 710.736719 207.99375 710.303125 Z M 207.99375 710.303125 " transform="matrix(1,0,0,-1,-135.4,760.6)"/>
<path style="fill:none;stroke-width:0.8;stroke-linecap:butt;stroke-linejoin:round;stroke:rgb(0%,0%,0%);stroke-opacity:1;stroke-miterlimit:10;" d="M 223.99375 710.303125 C 222.669531 709.865625 221.142188 709.685938 220.30625 708.502344 C 219.474219 707.322656 219.325781 705.142969 220.470313 703.525781 C 221.614844 701.9125 224.048438 700.857813 225.845313 701.475 C 227.646094 702.092188 228.80625 704.38125 228.989844 706.432031 C 229.173438 708.486719 228.372656 710.303125 227.411719 710.865625 C 226.446875 711.428125 225.321875 710.736719 223.99375 710.303125 Z M 223.99375 710.303125 " transform="matrix(1,0,0,-1,-135.4,760.6)"/>
<path style="fill:none;stroke-width:0.8;stroke-linecap:butt;stroke-linejoin:round;stroke:rgb(0%,0%,0%);stroke-opacity:1;stroke-miterlimit:10;" d="M 239.99375 710.303125 C 238.669531 709.865625 237.142188 709.685938 236.30625 708.502344 C 235.474219 707.322656 235.325781 705.142969 236.470313 703.525781 C 237.614844 701.9125 240.048438 700.857813 241.845313 701.475 C 243.646094 702.092188 244.80625 704.38125 244.989844 706.432031 C 245.173438 708.486719 244.372656 710.303125 243.411719 710.865625 C 242.446875 711.428125 241.321875 710.736719 239.99375 710.303125 Z M 239.99375 710.303125 " transform="matrix(1,0,0,-1,-135.4,760.6)"/>
<path style="fill:none;stroke-width:0.8;stroke-linecap:butt;stroke-linejoin:round;stroke:rgb(0%,0%,0%);stroke-opacity:1;stroke-miterlimit:10;" d="M 239.99375 726.303125 C 238.669531 725.865625 237.142188 725.685938 236.30625 724.502344 C 235.474219 723.322656 235.325781 721.142969 236.470313 719.525781 C 237.614844 717.9125 240.048438 716.857813 241.845313 717.475 C 243.646094 718.092188 244.80625 720.38125 244.989844 722.432031 C 245.173438 724.486719 244.372656 726.303125 243.411719 726.865625 C 242.446875 727.428125 241.321875 726.736719 239.99375 726.303125 Z M 239.99375 726.303125 " transform="matrix(1,0,0,-1,-135.4,760.6)"/>
<path style="fill:none;stroke-width:0.8;stroke-linecap:butt;stroke-linejoin:round;stroke:rgb(0%,0%,0%);stroke-opacity:1;stroke-miterlimit:10;" d="M 223.99375 726.303125 C 222.669531 725.865625 221.142188 725.685938 220.30625 724.502344 C 219.474219 723.322656 219.325781 721.142969 220.470313 719.525781 C 221.614844 717.9125 224.048438 716.857813 225.845313 717.475 C 227.646094 718.092188 228.80625 720.38125 228.989844 722.432031 C 229.173438 724.486719 228.372656 726.303125 227.411719 726.865625 C 226.446875 727.428125 225.321875 726.736719 223.99375 726.303125 Z M 223.99375 726.303125 " transform="matrix(1,0,0,-1,-135.4,760.6)"/>
<path style="fill:none;stroke-width:0.8;stroke-linecap:butt;stroke-linejoin:round;stroke:rgb(0%,0%,0%);stroke-opacity:1;stroke-miterlimit:10;" d="M 207.99375 726.303125 C 206.669531 725.865625 205.142188 725.685938 204.30625 724.502344 C 203.474219 723.322656 203.325781 721.142969 204.470313 719.525781 C 205.614844 717.9125 208.048438 716.857813 209.845313 717.475 C 211.646094 718.092188 212.80625 720.38125 212.989844 722.432031 C 213.173438 724.486719 212.372656 726.303125 211.411719 726.865625 C 210.446875 727.428125 209.321875 726.736719 207.99375 726.303125 Z M 207.99375 726.303125 " transform="matrix(1,0,0,-1,-135.4,760.6)"/>
<path style="fill:none;stroke-width:0.8;stroke-linecap:butt;stroke-linejoin:round;stroke:rgb(0%,0%,0%);stroke-opacity:1;stroke-miterlimit:10;" d="M 191.99375 726.303125 C 190.669531 725.865625 189.142188 725.685938 188.30625 724.502344 C 187.474219 723.322656 187.325781 721.142969 188.470313 719.525781 C 189.614844 717.9125 192.048438 716.857813 193.845313 717.475 C 195.646094 718.092188 196.80625 720.38125 196.989844 722.432031 C 197.173438 724.486719 196.372656 726.303125 195.411719 726.865625 C 194.446875 727.428125 193.321875 726.736719 191.99375 726.303125 Z M 191.99375 726.303125 " transform="matrix(1,0,0,-1,-135.4,760.6)"/>
<path style="fill:none;stroke-width:0.8;stroke-linecap:butt;stroke-linejoin:round;stroke:rgb(0%,0%,0%);stroke-opacity:1;stroke-miterlimit:10;" d="M 175.99375 726.303125 C 174.669531 725.865625 173.142188 725.685938 172.30625 724.502344 C 171.474219 723.322656 171.325781 721.142969 172.470313 719.525781 C 173.614844 717.9125 176.048438 716.857813 177.845313 717.475 C 179.646094 718.092188 180.80625 720.38125 180.989844 722.432031 C 181.173438 724.486719 180.372656 726.303125 179.411719 726.865625 C 178.446875 727.428125 177.321875 726.736719 175.99375 726.303125 Z M 175.99375 726.303125 " transform="matrix(1,0,0,-1,-135.4,760.6)"/>
<path style="fill:none;stroke-width:0.8;stroke-linecap:butt;stroke-linejoin:round;stroke:rgb(0%,0%,0%);stroke-opacity:1;stroke-miterlimit:10;" d="M 175.99375 710.303125 C 174.669531 709.865625 173.142188 709.685938 172.30625 708.502344 C 171.474219 707.322656 171.325781 705.142969 172.470313 703.525781 C 173.614844 701.9125 176.048438 700.857813 177.845313 701.475 C 179.646094 702.092188 180.80625 704.38125 180.989844 706.432031 C 181.173438 708.486719 180.372656 710.303125 179.411719 710.865625 C 178.446875 711.428125 177.321875 710.736719 175.99375 710.303125 Z M 175.99375 710.303125 " transform="matrix(1,0,0,-1,-135.4,760.6)"/>
<path style="fill:none;stroke-width:0.8;stroke-linecap:butt;stroke-linejoin:round;stroke:rgb(0%,0%,0%);stroke-opacity:1;stroke-miterlimit:10;" d="M 175.99375 694.303125 C 174.669531 693.865625 173.142188 693.685938 172.30625 692.502344 C 171.474219 691.322656 171.325781 689.142969 172.470313 687.525781 C 173.614844 685.9125 176.048438 684.857813 177.845313 685.475 C 179.646094 686.092188 180.80625 688.38125 180.989844 690.432031 C 181.173438 692.486719 180.372656 694.303125 179.411719 694.865625 C 178.446875 695.428125 177.321875 694.736719 175.99375 694.303125 Z M 175.99375 694.303125 " transform="matrix(1,0,0,-1,-135.4,760.6)"/>
<path style="fill:none;stroke-width:0.8;stroke-linecap:butt;stroke-linejoin:round;stroke:rgb(0%,0%,0%);stroke-opacity:1;stroke-miterlimit:10;" d="M 191.99375 694.303125 C 190.669531 693.865625 189.142188 693.685938 188.30625 692.502344 C 187.474219 691.322656 187.325781 689.142969 188.470313 687.525781 C 189.614844 685.9125 192.048438 684.857813 193.845313 685.475 C 195.646094 686.092188 196.80625 688.38125 196.989844 690.432031 C 197.173438 692.486719 196.372656 694.303125 195.411719 694.865625 C 194.446875 695.428125 193.321875 694.736719 191.99375 694.303125 Z M 191.99375 694.303125 " transform="matrix(1,0,0,-1,-135.4,760.6)"/>
<path style="fill:none;stroke-width:0.8;stroke-linecap:butt;stroke-linejoin:round;stroke:rgb(0%,0%,0%);stroke-opacity:1;stroke-miterlimit:10;" d="M 207.99375 694.303125 C 206.669531 693.865625 205.142188 693.685938 204.30625 692.502344 C 203.474219 691.322656 203.325781 689.142969 204.470313 687.525781 C 205.614844 685.9125 208.048438 684.857813 209.845313 685.475 C 211.646094 686.092188 212.80625 688.38125 212.989844 690.432031 C 213.173438 692.486719 212.372656 694.303125 211.411719 694.865625 C 210.446875 695.428125 209.321875 694.736719 207.99375 694.303125 Z M 207.99375 694.303125 " transform="matrix(1,0,0,-1,-135.4,760.6)"/>
<path style="fill:none;stroke-width:0.8;stroke-linecap:butt;stroke-linejoin:round;stroke:rgb(0%,0%,0%);stroke-opacity:1;stroke-miterlimit:10;" d="M 223.99375 694.303125 C 222.669531 693.865625 221.142188 693.685938 220.30625 692.502344 C 219.474219 691.322656 219.325781 689.142969 220.470313 687.525781 C 221.614844 685.9125 224.048438 684.857813 225.845313 685.475 C 227.646094 686.092188 228.80625 688.38125 228.989844 690.432031 C 229.173438 692.486719 228.372656 694.303125 227.411719 694.865625 C 226.446875 695.428125 225.321875 694.736719 223.99375 694.303125 Z M 223.99375 694.303125 " transform="matrix(1,0,0,-1,-135.4,760.6)"/>
<path style="fill:none;stroke-width:0.8;stroke-linecap:butt;stroke-linejoin:round;stroke:rgb(0%,0%,0%);stroke-opacity:1;stroke-miterlimit:10;" d="M 239.99375 694.303125 C 238.669531 693.865625 237.142188 693.685938 236.30625 692.502344 C 235.474219 691.322656 235.325781 689.142969 236.470313 687.525781 C 237.614844 685.9125 240.048438 684.857813 241.845313 685.475 C 243.646094 686.092188 244.80625 688.38125 244.989844 690.432031 C 245.173438 692.486719 244.372656 694.303125 243.411719 694.865625 C 242.446875 695.428125 241.321875 694.736719 239.99375 694.303125 Z M 239.99375 694.303125 " transform="matrix(1,0,0,-1,-135.4,760.6)"/>
<path style="fill:none;stroke-width:0.8;stroke-linecap:butt;stroke-linejoin:round;stroke:rgb(0%,0%,0%);stroke-opacity:1;stroke-miterlimit:10;" d="M 239.99375 678.303125 C 238.669531 677.865625 237.142188 677.685938 236.30625 676.502344 C 235.474219 675.322656 235.325781 673.142969 236.470313 671.525781 C 237.614844 669.9125 240.048438 668.857813 241.845313 669.475 C 243.646094 670.092188 244.80625 672.38125 244.989844 674.432031 C 245.173438 676.486719 244.372656 678.303125 243.411719 678.865625 C 242.446875 679.428125 241.321875 678.736719 239.99375 678.303125 Z M 239.99375 678.303125 " transform="matrix(1,0,0,-1,-135.4,760.6)"/>
<path style="fill:none;stroke-width:0.8;stroke-linecap:butt;stroke-linejoin:round;stroke:rgb(0%,0%,0%);stroke-opacity:1;stroke-miterlimit:10;" d="M 223.99375 678.303125 C 222.669531 677.865625 221.142188 677.685938 220.30625 676.502344 C 219.474219 675.322656 219.325781 673.142969 220.470313 671.525781 C 221.614844 669.9125 224.048438 668.857813 225.845313 669.475 C 227.646094 670.092188 228.80625 672.38125 228.989844 674.432031 C 229.173438 676.486719 228.372656 678.303125 227.411719 678.865625 C 226.446875 679.428125 225.321875 678.736719 223.99375 678.303125 Z M 223.99375 678.303125 " transform="matrix(1,0,0,-1,-135.4,760.6)"/>
<path style="fill:none;stroke-width:0.8;stroke-linecap:butt;stroke-linejoin:round;stroke:rgb(0%,0%,0%);stroke-opacity:1;stroke-miterlimit:10;" d="M 207.99375 678.303125 C 206.669531 677.865625 205.142188 677.685938 204.30625 676.502344 C 203.474219 675.322656 203.325781 673.142969 204.470313 671.525781 C 205.614844 669.9125 208.048438 668.857813 209.845313 669.475 C 211.646094 670.092188 212.80625 672.38125 212.989844 674.432031 C 213.173438 676.486719 212.372656 678.303125 211.411719 678.865625 C 210.446875 679.428125 209.321875 678.736719 207.99375 678.303125 Z M 207.99375 678.303125 " transform="matrix(1,0,0,-1,-135.4,760.6)"/>
<path style="fill:none;stroke-width:0.8;stroke-linecap:butt;stroke-linejoin:round;stroke:rgb(0%,0%,0%);stroke-opacity:1;stroke-miterlimit:10;" d="M 191.99375 678.303125 C 190.669531 677.865625 189.142188 677.685938 188.30625 676.502344 C 187.474219 675.322656 187.325781 673.142969 188.470313 671.525781 C 189.614844 669.9125 192.048438 668.857813 193.845313 669.475 C 195.646094 670.092188 196.80625 672.38125 196.989844 674.432031 C 197.173438 676.486719 196.372656 678.303125 195.411719 678.865625 C 194.446875 679.428125 193.321875 678.736719 191.99375 678.303125 Z M 191.99375 678.303125 " transform="matrix(1,0,0,-1,-135.4,760.6)"/>
<path style="fill:none;stroke-width:0.8;stroke-linecap:butt;stroke-linejoin:round;stroke:rgb(0%,0%,0%);stroke-opacity:1;stroke-miterlimit:10;" d="M 175.99375 678.303125 C 174.669531 677.865625 173.142188 677.685938 172.30625 676.502344 C 171.474219 675.322656 171.325781 673.142969 172.470313 671.525781 C 173.614844 669.9125 176.048438 668.857813 177.845313 669.475 C 179.646094 670.092188 180.80625 672.38125 180.989844 674.432031 C 181.173438 676.486719 180.372656 678.303125 179.411719 678.865625 C 178.446875 679.428125 177.321875 678.736719 175.99375 678.303125 Z M 175.99375 678.303125 " transform="matrix(1,0,0,-1,-135.4,760.6)"/>
<path style="fill:none;stroke-width:0.8;stroke-linecap:butt;stroke-linejoin:round;stroke:rgb(0%,0%,0%);stroke-opacity:1;stroke-miterlimit:10;" d="M 159.99375 678.303125 C 158.669531 677.865625 157.142188 677.685938 156.30625 676.502344 C 155.474219 675.322656 155.325781 673.142969 156.470313 671.525781 C 157.614844 669.9125 160.048438 668.857813 161.845313 669.475 C 163.646094 670.092188 164.80625 672.38125 164.989844 674.432031 C 165.173438 676.486719 164.372656 678.303125 163.411719 678.865625 C 162.446875 679.428125 161.321875 678.736719 159.99375 678.303125 Z M 159.99375 678.303125 " transform="matrix(1,0,0,-1,-135.4,760.6)"/>
<path style="fill:none;stroke-width:0.8;stroke-linecap:butt;stroke-linejoin:round;stroke:rgb(0%,0%,0%);stroke-opacity:1;stroke-miterlimit:10;" d="M 159.99375 694.303125 C 158.669531 693.865625 157.142188 693.685938 156.30625 692.502344 C 155.474219 691.322656 155.325781 689.142969 156.470313 687.525781 C 157.614844 685.9125 160.048438 684.857813 161.845313 685.475 C 163.646094 686.092188 164.80625 688.38125 164.989844 690.432031 C 165.173438 692.486719 164.372656 694.303125 163.411719 694.865625 C 162.446875 695.428125 161.321875 694.736719 159.99375 694.303125 Z M 159.99375 694.303125 " transform="matrix(1,0,0,-1,-135.4,760.6)"/>
<path style="fill:none;stroke-width:0.8;stroke-linecap:butt;stroke-linejoin:round;stroke:rgb(0%,0%,0%);stroke-opacity:1;stroke-miterlimit:10;" d="M 159.99375 710.303125 C 158.669531 709.865625 157.142188 709.685938 156.30625 708.502344 C 155.474219 707.322656 155.325781 705.142969 156.470313 703.525781 C 157.614844 701.9125 160.048438 700.857813 161.845313 701.475 C 163.646094 702.092188 164.80625 704.38125 164.989844 706.432031 C 165.173438 708.486719 164.372656 710.303125 163.411719 710.865625 C 162.446875 711.428125 161.321875 710.736719 159.99375 710.303125 Z M 159.99375 710.303125 " transform="matrix(1,0,0,-1,-135.4,760.6)"/>
<path style="fill:none;stroke-width:0.8;stroke-linecap:butt;stroke-linejoin:round;stroke:rgb(0%,0%,0%);stroke-opacity:1;stroke-miterlimit:10;" d="M 159.99375 726.303125 C 158.669531 725.865625 157.142188 725.685938 156.30625 724.502344 C 155.474219 723.322656 155.325781 721.142969 156.470313 719.525781 C 157.614844 717.9125 160.048438 716.857813 161.845313 717.475 C 163.646094 718.092188 164.80625 720.38125 164.989844 722.432031 C 165.173438 724.486719 164.372656 726.303125 163.411719 726.865625 C 162.446875 727.428125 161.321875 726.736719 159.99375 726.303125 Z M 159.99375 726.303125 " transform="matrix(1,0,0,-1,-135.4,760.6)"/>
<path style="fill:none;stroke-width:0.8;stroke-linecap:butt;stroke-linejoin:round;stroke:rgb(0%,0%,0%);stroke-opacity:1;stroke-miterlimit:10;" d="M 159.99375 742.303125 C 158.669531 741.865625 157.142188 741.685938 156.30625 740.502344 C 155.474219 739.322656 155.325781 737.142969 156.470313 735.525781 C 157.614844 733.9125 160.048438 732.857813 161.845313 733.475 C 163.646094 734.092188 164.80625 736.38125 164.989844 738.432031 C 165.173438 740.486719 164.372656 742.303125 163.411719 742.865625 C 162.446875 743.428125 161.321875 742.736719 159.99375 742.303125 Z M 159.99375 742.303125 " transform="matrix(1,0,0,-1,-135.4,760.6)"/>
<path style="fill:none;stroke-width:0.8;stroke-linecap:butt;stroke-linejoin:round;stroke:rgb(0%,0%,0%);stroke-opacity:1;stroke-miterlimit:10;" d="M 175.99375 742.303125 C 174.669531 741.865625 173.142188 741.685938 172.30625 740.502344 C 171.474219 739.322656 171.325781 737.142969 172.470313 735.525781 C 173.614844 733.9125 176.048438 732.857813 177.845313 733.475 C 179.646094 734.092188 180.80625 736.38125 180.989844 738.432031 C 181.173438 740.486719 180.372656 742.303125 179.411719 742.865625 C 178.446875 743.428125 177.321875 742.736719 175.99375 742.303125 Z M 175.99375 742.303125 " transform="matrix(1,0,0,-1,-135.4,760.6)"/>
<path style="fill:none;stroke-width:0.8;stroke-linecap:butt;stroke-linejoin:round;stroke:rgb(0%,0%,0%);stroke-opacity:1;stroke-miterlimit:10;" d="M 191.99375 742.303125 C 190.669531 741.865625 189.142188 741.685938 188.30625 740.502344 C 187.474219 739.322656 187.325781 737.142969 188.470313 735.525781 C 189.614844 733.9125 192.048438 732.857813 193.845313 733.475 C 195.646094 734.092188 196.80625 736.38125 196.989844 738.432031 C 197.173438 740.486719 196.372656 742.303125 195.411719 742.865625 C 194.446875 743.428125 193.321875 742.736719 191.99375 742.303125 Z M 191.99375 742.303125 " transform="matrix(1,0,0,-1,-135.4,760.6)"/>
<path style="fill:none;stroke-width:0.8;stroke-linecap:butt;stroke-linejoin:round;stroke:rgb(0%,0%,0%);stroke-opacity:1;stroke-miterlimit:10;" d="M 207.99375 742.303125 C 206.669531 741.865625 205.142188 741.685938 204.30625 740.502344 C 203.474219 739.322656 203.325781 737.142969 204.470313 735.525781 C 205.614844 733.9125 208.048438 732.857813 209.845313 733.475 C 211.646094 734.092188 212.80625 736.38125 212.989844 738.432031 C 213.173438 740.486719 212.372656 742.303125 211.411719 742.865625 C 210.446875 743.428125 209.321875 742.736719 207.99375 742.303125 Z M 207.99375 742.303125 " transform="matrix(1,0,0,-1,-135.4,760.6)"/>
<path style="fill:none;stroke-width:0.8;stroke-linecap:butt;stroke-linejoin:round;stroke:rgb(0%,0%,0%);stroke-opacity:1;stroke-miterlimit:10;" d="M 143.99375 726.303125 C 142.669531 725.865625 141.142188 725.685938 140.30625 724.502344 C 139.474219 723.322656 139.325781 721.142969 140.470313 719.525781 C 141.614844 717.9125 144.048438 716.857813 145.845313 717.475 C 147.646094 718.092188 148.80625 720.38125 148.989844 722.432031 C 149.173438 724.486719 148.372656 726.303125 147.411719 726.865625 C 146.446875 727.428125 145.321875 726.736719 143.99375 726.303125 Z M 143.99375 726.303125 " transform="matrix(1,0,0,-1,-135.4,760.6)"/>
<path style="fill:none;stroke-width:0.8;stroke-linecap:butt;stroke-linejoin:round;stroke:rgb(0%,0%,0%);stroke-opacity:1;stroke-miterlimit:10;" d="M 143.99375 742.303125 C 142.669531 741.865625 141.142188 741.685938 140.30625 740.502344 C 139.474219 739.322656 139.325781 737.142969 140.470313 735.525781 C 141.614844 733.9125 144.048438 732.857813 145.845313 733.475 C 147.646094 734.092188 148.80625 736.38125 148.989844 738.432031 C 149.173438 740.486719 148.372656 742.303125 147.411719 742.865625 C 146.446875 743.428125 145.321875 742.736719 143.99375 742.303125 Z M 143.99375 742.303125 " transform="matrix(1,0,0,-1,-135.4,760.6)"/>
<path style="fill:none;stroke-width:0.8;stroke-linecap:butt;stroke-linejoin:round;stroke:rgb(0%,0%,0%);stroke-opacity:1;stroke-miterlimit:10;" d="M 143.99375 758.303125 C 142.669531 757.865625 141.142188 757.685938 140.30625 756.502344 C 139.474219 755.322656 139.325781 753.142969 140.470313 751.525781 C 141.614844 749.9125 144.048438 748.857813 145.845313 749.475 C 147.646094 750.092188 148.80625 752.38125 148.989844 754.432031 C 149.173438 756.486719 148.372656 758.303125 147.411719 758.865625 C 146.446875 759.428125 145.321875 758.736719 143.99375 758.303125 Z M 143.99375 758.303125 " transform="matrix(1,0,0,-1,-135.4,760.6)"/>
<path style="fill:none;stroke-width:0.8;stroke-linecap:butt;stroke-linejoin:round;stroke:rgb(0%,0%,0%);stroke-opacity:1;stroke-miterlimit:10;" d="M 159.99375 758.303125 C 158.669531 757.865625 157.142188 757.685938 156.30625 756.502344 C 155.474219 755.322656 155.325781 753.142969 156.470313 751.525781 C 157.614844 749.9125 160.048438 748.857813 161.845313 749.475 C 163.646094 750.092188 164.80625 752.38125 164.989844 754.432031 C 165.173438 756.486719 164.372656 758.303125 163.411719 758.865625 C 162.446875 759.428125 161.321875 758.736719 159.99375 758.303125 Z M 159.99375 758.303125 " transform="matrix(1,0,0,-1,-135.4,760.6)"/>
<path style="fill:none;stroke-width:0.8;stroke-linecap:butt;stroke-linejoin:round;stroke:rgb(0%,0%,0%);stroke-opacity:1;stroke-miterlimit:10;" d="M 175.99375 758.303125 C 174.669531 757.865625 173.142188 757.685938 172.30625 756.502344 C 171.474219 755.322656 171.325781 753.142969 172.470313 751.525781 C 173.614844 749.9125 176.048438 748.857813 177.845313 749.475 C 179.646094 750.092188 180.80625 752.38125 180.989844 754.432031 C 181.173438 756.486719 180.372656 758.303125 179.411719 758.865625 C 178.446875 759.428125 177.321875 758.736719 175.99375 758.303125 Z M 175.99375 758.303125 " transform="matrix(1,0,0,-1,-135.4,760.6)"/>
<path style="fill:none;stroke-width:0.8;stroke-linecap:butt;stroke-linejoin:round;stroke:rgb(0%,0%,0%);stroke-opacity:1;stroke-miterlimit:10;" d="M 191.99375 758.303125 C 190.669531 757.865625 189.142188 757.685938 188.30625 756.502344 C 187.474219 755.322656 187.325781 753.142969 188.470313 751.525781 C 189.614844 749.9125 192.048438 748.857813 193.845313 749.475 C 195.646094 750.092188 196.80625 752.38125 196.989844 754.432031 C 197.173438 756.486719 196.372656 758.303125 195.411719 758.865625 C 194.446875 759.428125 193.321875 758.736719 191.99375 758.303125 Z M 191.99375 758.303125 " transform="matrix(1,0,0,-1,-135.4,760.6)"/>
<path style="fill:none;stroke-width:0.8;stroke-linecap:butt;stroke-linejoin:round;stroke:rgb(0%,0%,0%);stroke-opacity:1;stroke-miterlimit:10;" d="M 207.99375 758.303125 C 206.669531 757.865625 205.142188 757.685938 204.30625 756.502344 C 203.474219 755.322656 203.325781 753.142969 204.470313 751.525781 C 205.614844 749.9125 208.048438 748.857813 209.845313 749.475 C 211.646094 750.092188 212.80625 752.38125 212.989844 754.432031 C 213.173438 756.486719 212.372656 758.303125 211.411719 758.865625 C 210.446875 759.428125 209.321875 758.736719 207.99375 758.303125 Z M 207.99375 758.303125 " transform="matrix(1,0,0,-1,-135.4,760.6)"/>
<path style="fill:none;stroke-width:0.8;stroke-linecap:butt;stroke-linejoin:round;stroke:rgb(0%,0%,0%);stroke-opacity:1;stroke-miterlimit:10;" d="M 223.99375 758.303125 C 222.669531 757.865625 221.142188 757.685938 220.30625 756.502344 C 219.474219 755.322656 219.325781 753.142969 220.470313 751.525781 C 221.614844 749.9125 224.048438 748.857813 225.845313 749.475 C 227.646094 750.092188 228.80625 752.38125 228.989844 754.432031 C 229.173438 756.486719 228.372656 758.303125 227.411719 758.865625 C 226.446875 759.428125 225.321875 758.736719 223.99375 758.303125 Z M 223.99375 758.303125 " transform="matrix(1,0,0,-1,-135.4,760.6)"/>
<path style="fill:none;stroke-width:0.8;stroke-linecap:butt;stroke-linejoin:round;stroke:rgb(0%,0%,0%);stroke-opacity:1;stroke-miterlimit:10;" d="M 239.99375 758.303125 C 238.669531 757.865625 237.142188 757.685938 236.30625 756.502344 C 235.474219 755.322656 235.325781 753.142969 236.470313 751.525781 C 237.614844 749.9125 240.048438 748.857813 241.845313 749.475 C 243.646094 750.092188 244.80625 752.38125 244.989844 754.432031 C 245.173438 756.486719 244.372656 758.303125 243.411719 758.865625 C 242.446875 759.428125 241.321875 758.736719 239.99375 758.303125 Z M 239.99375 758.303125 " transform="matrix(1,0,0,-1,-135.4,760.6)"/>
<path style="fill:none;stroke-width:0.8;stroke-linecap:butt;stroke-linejoin:round;stroke:rgb(0%,0%,0%);stroke-opacity:1;stroke-miterlimit:10;" d="M 239.99375 742.303125 C 238.669531 741.865625 237.142188 741.685938 236.30625 740.502344 C 235.474219 739.322656 235.325781 737.142969 236.470313 735.525781 C 237.614844 733.9125 240.048438 732.857813 241.845313 733.475 C 243.646094 734.092188 244.80625 736.38125 244.989844 738.432031 C 245.173438 740.486719 244.372656 742.303125 243.411719 742.865625 C 242.446875 743.428125 241.321875 742.736719 239.99375 742.303125 Z M 239.99375 742.303125 " transform="matrix(1,0,0,-1,-135.4,760.6)"/>
<path style="fill:none;stroke-width:0.8;stroke-linecap:butt;stroke-linejoin:round;stroke:rgb(0%,0%,0%);stroke-opacity:1;stroke-miterlimit:10;" d="M 223.99375 742.303125 C 222.669531 741.865625 221.142188 741.685938 220.30625 740.502344 C 219.474219 739.322656 219.325781 737.142969 220.470313 735.525781 C 221.614844 733.9125 224.048438 732.857813 225.845313 733.475 C 227.646094 734.092188 228.80625 736.38125 228.989844 738.432031 C 229.173438 740.486719 228.372656 742.303125 227.411719 742.865625 C 226.446875 743.428125 225.321875 742.736719 223.99375 742.303125 Z M 223.99375 742.303125 " transform="matrix(1,0,0,-1,-135.4,760.6)"/>
<path style="fill:none;stroke-width:0.8;stroke-linecap:butt;stroke-linejoin:round;stroke:rgb(0%,0%,0%);stroke-opacity:1;stroke-miterlimit:10;" d="M 143.99375 710.303125 C 142.669531 709.865625 141.142188 709.685938 140.30625 708.502344 C 139.474219 707.322656 139.325781 705.142969 140.470313 703.525781 C 141.614844 701.9125 144.048438 700.857813 145.845313 701.475 C 147.646094 702.092188 148.80625 704.38125 148.989844 706.432031 C 149.173438 708.486719 148.372656 710.303125 147.411719 710.865625 C 146.446875 711.428125 145.321875 710.736719 143.99375 710.303125 Z M 143.99375 710.303125 " transform="matrix(1,0,0,-1,-135.4,760.6)"/>
<path style="fill:none;stroke-width:0.8;stroke-linecap:butt;stroke-linejoin:round;stroke:rgb(0%,0%,0%);stroke-opacity:1;stroke-miterlimit:10;" d="M 143.99375 694.303125 C 142.669531 693.865625 141.142188 693.685938 140.30625 692.502344 C 139.474219 691.322656 139.325781 689.142969 140.470313 687.525781 C 141.614844 685.9125 144.048438 684.857813 145.845313 685.475 C 147.646094 686.092188 148.80625 688.38125 148.989844 690.432031 C 149.173438 692.486719 148.372656 694.303125 147.411719 694.865625 C 146.446875 695.428125 145.321875 694.736719 143.99375 694.303125 Z M 143.99375 694.303125 " transform="matrix(1,0,0,-1,-135.4,760.6)"/>
<path style="fill:none;stroke-width:0.8;stroke-linecap:butt;stroke-linejoin:round;stroke:rgb(0%,0%,0%);stroke-opacity:1;stroke-miterlimit:10;" d="M 143.99375 678.303125 C 142.669531 677.865625 141.142188 677.685938 140.30625 676.502344 C 139.474219 675.322656 139.325781 673.142969 140.470313 671.525781 C 141.614844 669.9125 144.048438 668.857813 145.845313 669.475 C 147.646094 670.092188 148.80625 672.38125 148.989844 674.432031 C 149.173438 676.486719 148.372656 678.303125 147.411719 678.865625 C 146.446875 679.428125 145.321875 678.736719 143.99375 678.303125 Z M 143.99375 678.303125 " transform="matrix(1,0,0,-1,-135.4,760.6)"/>
<path style="fill:none;stroke-width:0.8;stroke-linecap:butt;stroke-linejoin:round;stroke:rgb(0%,0%,0%);stroke-opacity:1;stroke-miterlimit:10;" d="M 143.99375 662.303125 C 142.669531 661.865625 141.142188 661.685938 140.30625 660.502344 C 139.474219 659.322656 139.325781 657.142969 140.470313 655.525781 C 141.614844 653.9125 144.048438 652.857813 145.845313 653.475 C 147.646094 654.092188 148.80625 656.38125 148.989844 658.432031 C 149.173438 660.486719 148.372656 662.303125 147.411719 662.865625 C 146.446875 663.428125 145.321875 662.736719 143.99375 662.303125 Z M 143.99375 662.303125 " transform="matrix(1,0,0,-1,-135.4,760.6)"/>
<path style="fill:none;stroke-width:0.8;stroke-linecap:butt;stroke-linejoin:round;stroke:rgb(0%,0%,0%);stroke-opacity:1;stroke-miterlimit:10;" d="M 159.99375 662.303125 C 158.669531 661.865625 157.142188 661.685938 156.30625 660.502344 C 155.474219 659.322656 155.325781 657.142969 156.470313 655.525781 C 157.614844 653.9125 160.048438 652.857813 161.845313 653.475 C 163.646094 654.092188 164.80625 656.38125 164.989844 658.432031 C 165.173438 660.486719 164.372656 662.303125 163.411719 662.865625 C 162.446875 663.428125 161.321875 662.736719 159.99375 662.303125 Z M 159.99375 662.303125 " transform="matrix(1,0,0,-1,-135.4,760.6)"/>
<path style="fill:none;stroke-width:0.8;stroke-linecap:butt;stroke-linejoin:round;stroke:rgb(0%,0%,0%);stroke-opacity:1;stroke-miterlimit:10;" d="M 175.99375 662.303125 C 174.669531 661.865625 173.142188 661.685938 172.30625 660.502344 C 171.474219 659.322656 171.325781 657.142969 172.470313 655.525781 C 173.614844 653.9125 176.048438 652.857813 177.845313 653.475 C 179.646094 654.092188 180.80625 656.38125 180.989844 658.432031 C 181.173438 660.486719 180.372656 662.303125 179.411719 662.865625 C 178.446875 663.428125 177.321875 662.736719 175.99375 662.303125 Z M 175.99375 662.303125 " transform="matrix(1,0,0,-1,-135.4,760.6)"/>
<path style="fill:none;stroke-width:0.8;stroke-linecap:butt;stroke-linejoin:round;stroke:rgb(0%,0%,0%);stroke-opacity:1;stroke-miterlimit:10;" d="M 191.99375 662.303125 C 190.669531 661.865625 189.142188 661.685938 188.30625 660.502344 C 187.474219 659.322656 187.325781 657.142969 188.470313 655.525781 C 189.614844 653.9125 192.048438 652.857813 193.845313 653.475 C 195.646094 654.092188 196.80625 656.38125 196.989844 658.432031 C 197.173438 660.486719 196.372656 662.303125 195.411719 662.865625 C 194.446875 663.428125 193.321875 662.736719 191.99375 662.303125 Z M 191.99375 662.303125 " transform="matrix(1,0,0,-1,-135.4,760.6)"/>
<path style="fill:none;stroke-width:0.8;stroke-linecap:butt;stroke-linejoin:round;stroke:rgb(0%,0%,0%);stroke-opacity:1;stroke-miterlimit:10;" d="M 207.99375 662.303125 C 206.669531 661.865625 205.142188 661.685938 204.30625 660.502344 C 203.474219 659.322656 203.325781 657.142969 204.470313 655.525781 C 205.614844 653.9125 208.048438 652.857813 209.845313 653.475 C 211.646094 654.092188 212.80625 656.38125 212.989844 658.432031 C 213.173438 660.486719 212.372656 662.303125 211.411719 662.865625 C 210.446875 663.428125 209.321875 662.736719 207.99375 662.303125 Z M 207.99375 662.303125 " transform="matrix(1,0,0,-1,-135.4,760.6)"/>
<path style="fill:none;stroke-width:0.8;stroke-linecap:butt;stroke-linejoin:round;stroke:rgb(0%,0%,0%);stroke-opacity:1;stroke-miterlimit:10;" d="M 223.99375 662.303125 C 222.669531 661.865625 221.142188 661.685938 220.30625 660.502344 C 219.474219 659.322656 219.325781 657.142969 220.470313 655.525781 C 221.614844 653.9125 224.048438 652.857813 225.845313 653.475 C 227.646094 654.092188 228.80625 656.38125 228.989844 658.432031 C 229.173438 660.486719 228.372656 662.303125 227.411719 662.865625 C 226.446875 663.428125 225.321875 662.736719 223.99375 662.303125 Z M 223.99375 662.303125 " transform="matrix(1,0,0,-1,-135.4,760.6)"/>
<path style="fill:none;stroke-width:0.8;stroke-linecap:butt;stroke-linejoin:round;stroke:rgb(0%,0%,0%);stroke-opacity:1;stroke-miterlimit:10;" d="M 239.99375 662.303125 C 238.669531 661.865625 237.142188 661.685938 236.30625 660.502344 C 235.474219 659.322656 235.325781 657.142969 236.470313 655.525781 C 237.614844 653.9125 240.048438 652.857813 241.845313 653.475 C 243.646094 654.092188 244.80625 656.38125 244.989844 658.432031 C 245.173438 660.486719 244.372656 662.303125 243.411719 662.865625 C 242.446875 663.428125 241.321875 662.736719 239.99375 662.303125 Z M 239.99375 662.303125 " transform="matrix(1,0,0,-1,-135.4,760.6)"/>
<path style="fill:none;stroke-width:0.8;stroke-linecap:butt;stroke-linejoin:round;stroke:rgb(0%,0%,0%);stroke-opacity:1;stroke-miterlimit:10;" d="M 239.99375 662.303125 C 238.669531 661.865625 237.142188 661.685938 236.30625 660.502344 C 235.474219 659.322656 235.325781 657.142969 236.470313 655.525781 C 237.614844 653.9125 240.048438 652.857813 241.845313 653.475 C 243.646094 654.092188 244.80625 656.38125 244.989844 658.432031 C 245.173438 660.486719 244.372656 662.303125 243.411719 662.865625 C 242.446875 663.428125 241.321875 662.736719 239.99375 662.303125 Z M 239.99375 662.303125 " transform="matrix(1,0,0,-1,-135.4,760.6)"/>
<path style="fill:none;stroke-width:1.2;stroke-linecap:butt;stroke-linejoin:round;stroke:rgb(0%,0%,0%);stroke-opacity:1;stroke-miterlimit:10;" d="M 299.798437 701.771875 C 299.798437 701.771875 299.798437 701.771875 299.646094 701.810938 C 299.49375 701.853906 299.185156 701.932031 298.61875 701.701563 C 298.052344 701.471094 297.224219 700.928125 296.3375 700.303125 C 295.450781 699.682031 294.505469 698.975 293.7125 698.014063 C 292.923437 697.053125 292.286719 695.834375 291.985937 694.685938 C 291.689062 693.533594 291.724219 692.447656 291.93125 691.420313 C 292.138281 690.396875 292.513281 689.428125 293.2125 688.264063 C 293.911719 687.1 294.939062 685.732813 296.18125 684.416406 C 297.423437 683.103906 298.880469 681.834375 300.497656 680.674219 C 302.110937 679.510156 303.884375 678.451563 305.935156 677.50625 C 307.985937 676.557031 310.317969 675.717188 312.407812 675.119531 C 314.501562 674.521875 316.353125 674.158594 318.036719 673.916406 C 319.716406 673.674219 321.220312 673.545313 322.872656 673.486719 C 324.528906 673.428125 326.325781 673.44375 328.302344 673.541406 C 330.278906 673.639063 332.43125 673.826563 334.669531 674.135156 C 336.907812 674.447656 339.228125 674.885156 341.380469 675.451563 C 343.536719 676.017969 345.521094 676.713281 347.4 677.580469 C 349.278906 678.44375 351.052344 679.475 352.595312 680.603906 C 354.134375 681.732813 355.446875 682.959375 356.5875 684.25625 C 357.728125 685.549219 358.696875 686.916406 359.571875 688.400781 C 360.446875 689.889063 361.232031 691.494531 361.857031 693.127344 C 362.485937 694.760156 362.954687 696.424219 363.247656 697.853906 C 363.540625 699.283594 363.657812 700.482813 363.626562 701.920313 C 363.595312 703.361719 363.419531 705.0375 362.966406 706.732813 C 362.517187 708.428125 361.794531 710.146875 360.829687 711.646875 C 359.864844 713.150781 358.657812 714.44375 357.509375 715.435938 C 356.364844 716.424219 355.275 717.111719 353.771094 717.826563 C 352.267187 718.541406 350.353125 719.279688 348.93125 719.725 C 347.513281 720.174219 346.591406 720.330469 345.49375 720.310938 C 344.392187 720.291406 343.11875 720.096094 342.091406 719.611719 C 341.064062 719.127344 340.282812 718.357813 339.732031 717.467188 C 339.185156 716.576563 338.86875 715.56875 338.708594 714.510156 C 338.552344 713.451563 338.548437 712.346094 338.677344 711.291406 C 338.802344 710.236719 339.05625 709.228906 339.384375 708.295313 C 339.708594 707.365625 340.110937 706.514063 340.532812 706.029688 C 340.958594 705.545313 341.407812 705.428125 341.630469 705.373438 C 341.853125 705.314844 341.853125 705.314844 341.853125 705.314844 " transform="matrix(1,0,0,-1,-135.4,760.6)"/>
<path style="fill:none;stroke-width:2;stroke-linecap:round;stroke-linejoin:round;stroke:rgb(0%,0%,0%);stroke-opacity:1;stroke-miterlimit:10;" d="M 288.864844 706.682031 C 288.864844 706.682031 288.864844 706.682031 289.403906 706.334375 C 289.942969 705.990625 291.025 705.299219 292.321875 704.607813 C 293.61875 703.916406 295.130469 703.225 296.8375 702.639063 C 298.544531 702.057031 300.446875 701.584375 302.454687 701.150781 C 304.466406 700.717188 306.583594 700.330469 308.700781 700.049219 C 310.817969 699.767969 312.935156 699.592188 314.685156 699.463281 C 316.435156 699.334375 317.817969 699.248438 319.353125 699.228906 C 320.888281 699.205469 322.571875 699.248438 324.517187 699.314844 C 326.4625 699.377344 328.665625 699.463281 330.525 699.639063 C 332.384375 699.810938 333.896094 700.06875 335.689062 700.416406 C 337.482031 700.760156 339.55625 701.19375 341.286719 701.603906 C 343.013281 702.014063 344.396094 702.404688 345.630469 702.814844 C 346.860937 703.225 347.939062 703.658594 349.196875 704.303125 C 350.446875 704.955469 351.872656 705.81875 352.5875 706.248438 C 353.298437 706.682031 353.298437 706.682031 353.298437 706.682031 " transform="matrix(1,0,0,-1,-135.4,760.6)"/>
<path style="fill:none;stroke-width:2;stroke-linecap:round;stroke-linejoin:round;stroke:rgb(0%,0%,0%);stroke-opacity:1;stroke-miterlimit:10;" d="M 294.388281 703.6 C 294.388281 703.6 294.388281 703.6 295.021094 703.791406 C 295.657812 703.978906 296.927344 704.357813 298.189062 704.721094 C 299.450781 705.084375 300.704687 705.428125 302.001562 705.732813 C 303.298437 706.033594 304.638281 706.291406 306.083594 706.529688 C 307.532812 706.767969 309.0875 706.986719 310.732031 707.158594 C 312.372656 707.330469 314.103125 707.459375 315.591406 707.545313 C 317.083594 707.63125 318.3375 707.674219 319.657812 707.717188 C 320.974219 707.764063 322.357031 707.807031 324.0875 707.740625 C 325.814062 707.674219 327.888281 707.502344 330.028906 707.2875 C 332.165625 707.072656 334.372656 706.810938 336.165625 706.529688 C 337.958594 706.248438 339.341406 705.947656 340.646094 705.623438 C 341.954687 705.303125 343.18125 704.959375 344.302344 704.603906 C 345.423437 704.240625 346.435156 703.865625 346.939062 703.674219 C 347.446875 703.486719 347.446875 703.486719 347.446875 703.486719 " transform="matrix(1,0,0,-1,-135.4,760.6)"/>
</g>
</svg>
