<?xml version="1.0" encoding="UTF-8"?>
<svg xmlns="http://www.w3.org/2000/svg" xmlns:xlink="http://www.w3.org/1999/xlink" width="562pt" height="195pt" viewBox="0 0 562 195" version="1.1">
<g id="surface42963">
<path style="fill-rule:evenodd;fill:rgb(87.8%,87.8%,87.8%);fill-opacity:1;stroke-width:2;stroke-linecap:butt;stroke-linejoin:round;stroke:rgb(0%,0%,0%);stroke-opacity:1;stroke-miterlimit:10;" d="M 187.398438 233.855469 C 182.664062 209.296875 189.765625 176.160156 224.480469 162.453125 C 259.191406 148.746094 321.519531 154.464844 342.722656 183.953125 C 363.925781 213.441406 344.007812 266.695312 317.574219 288.390625 C 291.144531 310.085938 258.207031 300.222656 233.453125 287.304688 C 208.699219 274.386719 192.132812 258.410156 187.398438 233.855469 Z M 187.398438 233.855469 " transform="matrix(1,0,0,-1,-3,326)"/>
<path style="fill-rule:evenodd;fill:rgb(38%,38%,38%);fill-opacity:1;stroke-width:8;stroke-linecap:butt;stroke-linejoin:round;stroke:rgb(87.8%,87.8%,87.8%);stroke-opacity:1;stroke-miterlimit:10;" d="M 265.703125 264.03125 C 263.730469 257.425781 269.054688 243.421875 275.269531 229.613281 C 281.480469 215.808594 288.582031 202.199219 298.34375 201.605469 C 308.109375 201.011719 320.535156 213.441406 320.730469 221.328125 C 320.929688 229.21875 308.898438 232.570312 305.25 239.375 C 301.597656 246.179688 306.332031 256.4375 304.558594 261.960938 C 302.78125 267.484375 294.5 268.273438 285.722656 269.0625 C 276.945312 269.851562 267.675781 270.640625 265.703125 264.03125 Z M 265.703125 264.03125 " transform="matrix(1,0,0,-1,-3,326)"/>
<path style="fill-rule:evenodd;fill:rgb(100%,100%,100%);fill-opacity:1;stroke-width:2;stroke-linecap:butt;stroke-linejoin:round;stroke:rgb(0%,0%,0%);stroke-opacity:1;stroke-miterlimit:10;" d="M 220.730469 217.386719 C 217.378906 215.808594 215.996094 211.074219 218.859375 206.832031 C 221.71875 202.59375 228.816406 198.84375 232.171875 200.421875 C 235.523438 202 235.128906 208.902344 232.269531 213.144531 C 229.410156 217.382812 224.085938 218.960938 220.730469 217.386719 Z M 220.730469 217.386719 " transform="matrix(1,0,0,-1,-3,326)"/>
<path style="fill:none;stroke-width:2;stroke-linecap:butt;stroke-linejoin:round;stroke:rgb(0%,0%,0%);stroke-opacity:1;stroke-miterlimit:10;" d="M 206.925781 206.242188 C 207.121094 197.464844 212.644531 187.996094 223.097656 186.8125 C 233.550781 185.628906 248.9375 192.730469 251.699219 203.578125 C 254.460938 214.425781 244.597656 229.023438 236.707031 234.25 C 228.820312 239.476562 222.902344 235.332031 217.378906 229.21875 C 211.855469 223.105469 206.726562 215.019531 206.925781 206.242188 Z M 206.925781 206.242188 " transform="matrix(1,0,0,-1,-3,326)"/>
<path style="fill:none;stroke-width:2;stroke-linecap:butt;stroke-linejoin:round;stroke:rgb(0%,0%,0%);stroke-opacity:1;stroke-miterlimit:10;" d="M 249.492188 218.449219 C 249.492188 218.449219 249.492188 218.449219 249.28125 218.863281 C 249.074219 219.277344 248.660156 220.105469 248.222656 220.910156 C 247.785156 221.71875 247.324219 222.5 246.859375 223.238281 C 246.398438 223.976562 245.929688 224.671875 245.695312 225.019531 C 245.464844 225.367188 245.464844 225.367188 245.464844 225.367188 " transform="matrix(1,0,0,-1,-3,326)"/>
<path style="fill-rule:evenodd;fill:rgb(0%,0%,0%);fill-opacity:1;stroke-width:2;stroke-linecap:butt;stroke-linejoin:round;stroke:rgb(0%,0%,0%);stroke-opacity:1;stroke-miterlimit:10;" d="M 245.464844 225.367188 L 247.433594 218.253906 L 251.300781 220.855469 Z M 245.464844 225.367188 " transform="matrix(1,0,0,-1,-3,326)"/>
<path style="fill:none;stroke-width:2;stroke-linecap:butt;stroke-linejoin:round;stroke:rgb(0%,0%,0%);stroke-opacity:1;stroke-miterlimit:10;" d="M 265.703125 264.03125 C 263.730469 257.425781 269.054688 243.421875 275.269531 229.613281 C 281.480469 215.808594 288.582031 202.199219 298.34375 201.605469 C 308.109375 201.011719 320.535156 213.441406 320.730469 221.328125 C 320.929688 229.21875 308.898438 232.570312 305.25 239.375 C 301.597656 246.179688 306.332031 256.4375 304.558594 261.960938 C 302.78125 267.484375 294.5 268.273438 285.722656 269.0625 C 276.945312 269.851562 267.675781 270.640625 265.703125 264.03125 Z M 265.703125 264.03125 " transform="matrix(1,0,0,-1,-3,326)"/>
<path style="fill:none;stroke-width:2;stroke-linecap:butt;stroke-linejoin:round;stroke:rgb(0%,0%,0%);stroke-opacity:1;stroke-miterlimit:10;" d="M 270.738281 240.234375 C 270.738281 240.234375 270.738281 240.234375 271.0625 239.445312 C 271.386719 238.652344 272.039062 237.074219 272.542969 235.867188 C 273.050781 234.660156 273.410156 233.824219 273.722656 233.101562 C 274.039062 232.382812 274.308594 231.769531 274.441406 231.464844 C 274.574219 231.160156 274.574219 231.160156 274.574219 231.160156 " transform="matrix(1,0,0,-1,-3,326)"/>
<path style="fill-rule:evenodd;fill:rgb(0%,0%,0%);fill-opacity:1;stroke-width:2;stroke-linecap:butt;stroke-linejoin:round;stroke:rgb(0%,0%,0%);stroke-opacity:1;stroke-miterlimit:10;" d="M 274.574219 231.160156 L 273.886719 238.507812 L 269.621094 236.628906 Z M 274.574219 231.160156 " transform="matrix(1,0,0,-1,-3,326)"/>
<path style="fill-rule:evenodd;fill:rgb(87.8%,87.8%,87.8%);fill-opacity:1;stroke-width:2;stroke-linecap:butt;stroke-linejoin:round;stroke:rgb(0%,0%,0%);stroke-opacity:1;stroke-miterlimit:10;" d="M 395.164062 273.960938 C 380.277344 248.507812 375.949219 208.042969 395.417969 178.007812 C 414.890625 147.976562 458.15625 128.378906 494.804688 132.453125 C 531.453125 136.523438 561.488281 164.265625 564.414062 201.804688 C 567.339844 239.347656 543.160156 286.683594 521.402344 308.0625 C 499.640625 329.441406 480.296875 324.859375 457.902344 317.351562 C 435.503906 309.84375 410.054688 299.410156 395.164062 273.960938 Z M 395.164062 273.960938 " transform="matrix(1,0,0,-1,-3,326)"/>
<path style="fill:none;stroke-width:2;stroke-linecap:butt;stroke-linejoin:round;stroke:rgb(0%,0%,0%);stroke-opacity:1;stroke-dasharray:4;stroke-miterlimit:10;" d="M 382.363281 224.339844 C 382.363281 224.339844 382.363281 224.339844 382.46875 224.597656 C 382.574219 224.855469 382.785156 225.375 382.972656 225.765625 C 383.160156 226.15625 383.324219 226.425781 383.601562 226.777344 C 383.878906 227.128906 384.269531 227.570312 384.808594 228.054688 C 385.347656 228.542969 386.03125 229.074219 386.960938 229.667969 C 387.890625 230.257812 389.066406 230.910156 390.09375 231.425781 C 391.117188 231.941406 391.992188 232.320312 393.265625 232.804688 C 394.539062 233.289062 396.203125 233.878906 398.070312 234.457031 C 399.9375 235.039062 402.003906 235.613281 405 236.304688 C 408 236.992188 411.929688 237.800781 415.511719 238.449219 C 419.089844 239.09375 422.320312 239.574219 425.71875 240.011719 C 429.113281 240.449219 432.675781 240.84375 437.210938 241.234375 C 441.742188 241.625 447.246094 242.007812 451.960938 242.265625 C 456.671875 242.523438 460.597656 242.65625 464.789062 242.730469 C 468.984375 242.804688 473.453125 242.820312 478.058594 242.761719 C 482.664062 242.699219 487.410156 242.5625 492.0625 242.351562 C 496.710938 242.136719 501.269531 241.84375 504.691406 241.589844 C 508.113281 241.339844 510.40625 241.125 513.136719 240.828125 C 515.871094 240.53125 519.042969 240.152344 522.472656 239.660156 C 525.90625 239.171875 529.59375 238.574219 533.253906 237.863281 C 536.917969 237.152344 540.550781 236.328125 543.695312 235.488281 C 546.84375 234.648438 549.5 233.792969 551.746094 232.9375 C 553.996094 232.082031 555.835938 231.222656 557.230469 230.46875 C 558.625 229.710938 559.574219 229.054688 560.339844 228.410156 C 561.109375 227.761719 561.695312 227.121094 562.113281 226.53125 C 562.527344 225.9375 562.777344 225.394531 562.902344 225.121094 C 563.027344 224.847656 563.027344 224.847656 563.027344 224.847656 " transform="matrix(1,0,0,-1,-3,326)"/>
<path style="fill:none;stroke-width:2;stroke-linecap:butt;stroke-linejoin:round;stroke:rgb(0%,0%,0%);stroke-opacity:1;stroke-dasharray:4;stroke-miterlimit:10;" d="M 395.929688 224.769531 C 395.929688 224.769531 395.929688 224.769531 396.03125 224.941406 C 396.132812 225.113281 396.332031 225.457031 396.691406 225.804688 C 397.046875 226.152344 397.558594 226.5 398.15625 226.820312 C 398.753906 227.136719 399.441406 227.421875 400.429688 227.742188 C 401.417969 228.0625 402.714844 228.417969 403.796875 228.679688 C 404.878906 228.941406 405.75 229.109375 406.652344 229.261719 C 407.554688 229.417969 408.484375 229.558594 409.800781 229.71875 C 411.117188 229.878906 412.816406 230.058594 414.148438 230.183594 C 415.480469 230.304688 416.449219 230.371094 417.566406 230.429688 C 418.683594 230.488281 419.957031 230.542969 421.300781 230.578125 C 422.648438 230.609375 424.070312 230.628906 425.691406 230.613281 C 427.3125 230.597656 429.132812 230.554688 430.601562 230.5 C 432.066406 230.445312 433.179688 230.378906 434.753906 230.246094 C 436.328125 230.109375 438.359375 229.90625 440.0625 229.691406 C 441.765625 229.480469 443.132812 229.257812 444.292969 229.042969 C 445.457031 228.824219 446.410156 228.613281 447.222656 228.40625 C 448.03125 228.203125 448.695312 228.011719 449.222656 227.84375 C 449.753906 227.671875 450.152344 227.53125 450.621094 227.328125 C 451.085938 227.128906 451.628906 226.871094 452 226.675781 C 452.371094 226.480469 452.574219 226.347656 452.675781 226.28125 C 452.777344 226.214844 452.777344 226.214844 452.777344 226.214844 " transform="matrix(1,0,0,-1,-3,326)"/>
<path style="fill:none;stroke-width:4;stroke-linecap:butt;stroke-linejoin:round;stroke:rgb(87.8%,87.8%,87.8%);stroke-opacity:1;stroke-miterlimit:10;" d="M 408.417969 250.921875 C 408.300781 245.769531 412.355469 238.585938 412.472656 231.636719 C 412.589844 224.683594 408.765625 217.964844 410.445312 212.464844 C 412.125 206.960938 419.308594 202.675781 426.546875 203.660156 C 433.789062 204.644531 441.085938 210.898438 439.523438 221.558594 C 437.957031 232.214844 427.53125 247.273438 420.175781 253.238281 C 412.820312 259.207031 408.535156 256.078125 408.417969 250.921875 Z M 408.417969 250.921875 " transform="matrix(1,0,0,-1,-3,326)"/>
<path style="fill-rule:evenodd;fill:rgb(93.3%,93.3%,93.3%);fill-opacity:1;stroke-width:2;stroke-linecap:butt;stroke-linejoin:round;stroke:rgb(0%,0%,0%);stroke-opacity:1;stroke-miterlimit:10;" d="M 408.417969 250.921875 C 408.300781 245.769531 412.355469 238.585938 412.472656 231.636719 C 412.589844 224.683594 408.765625 217.964844 410.445312 212.464844 C 412.125 206.960938 419.308594 202.675781 426.546875 203.660156 C 433.789062 204.644531 441.085938 210.898438 439.523438 221.558594 C 437.957031 232.214844 427.53125 247.273438 420.175781 253.238281 C 412.820312 259.207031 408.535156 256.078125 408.417969 250.921875 Z M 408.417969 250.921875 " transform="matrix(1,0,0,-1,-3,326)"/>
<path style="fill:none;stroke-width:2;stroke-linecap:butt;stroke-linejoin:round;stroke:rgb(0%,0%,0%);stroke-opacity:1;stroke-dasharray:4;stroke-miterlimit:10;" d="M 411.621094 224.773438 C 411.621094 224.773438 411.621094 224.773438 411.632812 224.828125 C 411.644531 224.882812 411.667969 224.992188 411.691406 225.109375 C 411.714844 225.222656 411.742188 225.339844 411.980469 225.453125 C 412.222656 225.566406 412.675781 225.671875 413.03125 225.769531 C 413.386719 225.867188 413.644531 225.953125 414.117188 226.078125 C 414.589844 226.207031 415.277344 226.371094 416.1875 226.53125 C 417.097656 226.691406 418.226562 226.851562 419.734375 226.972656 C 421.238281 227.097656 423.121094 227.183594 424.941406 227.191406 C 426.761719 227.199219 428.523438 227.128906 430.011719 227.011719 C 431.496094 226.898438 432.707031 226.742188 433.824219 226.53125 C 434.941406 226.320312 435.964844 226.058594 436.65625 225.835938 C 437.347656 225.613281 437.710938 225.433594 437.980469 225.257812 C 438.246094 225.082031 438.414062 224.914062 438.511719 224.746094 C 438.609375 224.574219 438.632812 224.40625 438.644531 224.320312 C 438.65625 224.238281 438.65625 224.238281 438.65625 224.238281 " transform="matrix(1,0,0,-1,-3,326)"/>
<path style="fill:none;stroke-width:2;stroke-linecap:butt;stroke-linejoin:round;stroke:rgb(0%,0%,0%);stroke-opacity:1;stroke-miterlimit:10;" d="M 411.574219 224.566406 C 411.574219 224.566406 411.574219 224.566406 411.613281 224.433594 C 411.65625 224.300781 411.738281 224.035156 411.910156 223.816406 C 412.085938 223.601562 412.347656 223.433594 412.597656 223.296875 C 412.851562 223.164062 413.085938 223.066406 413.5625 222.917969 C 414.035156 222.773438 414.746094 222.578125 415.464844 222.417969 C 416.183594 222.257812 416.914062 222.132812 417.738281 222.023438 C 418.5625 221.914062 419.480469 221.816406 420.40625 221.742188 C 421.328125 221.667969 422.257812 221.621094 423.214844 221.59375 C 424.171875 221.5625 425.160156 221.558594 426.191406 221.578125 C 427.21875 221.597656 428.289062 221.644531 429.3125 221.714844 C 430.335938 221.785156 431.316406 221.882812 432.167969 221.992188 C 433.023438 222.097656 433.753906 222.21875 434.425781 222.355469 C 435.09375 222.488281 435.703125 222.640625 436.160156 222.773438 C 436.617188 222.902344 436.921875 223.011719 437.199219 223.128906 C 437.472656 223.246094 437.71875 223.367188 437.957031 223.554688 C 438.195312 223.742188 438.425781 223.996094 438.546875 224.148438 C 438.664062 224.300781 438.671875 224.351562 438.675781 224.378906 C 438.679688 224.40625 438.679688 224.40625 438.679688 224.40625 " transform="matrix(1,0,0,-1,-3,326)"/>
<path style="fill:none;stroke-width:4;stroke-linecap:butt;stroke-linejoin:round;stroke:rgb(87.8%,87.8%,87.8%);stroke-opacity:1;stroke-miterlimit:10;" d="M 398.542969 258.1875 C 395.488281 251.0625 395.234375 241.136719 395.742188 229.9375 C 396.25 218.738281 397.523438 206.269531 403.886719 194.433594 C 410.25 182.597656 421.703125 171.402344 434.683594 170 C 447.664062 168.601562 462.167969 177 461.40625 196.089844 C 460.644531 215.175781 444.609375 244.953125 434.046875 259.714844 C 423.484375 274.476562 418.394531 274.222656 412.921875 271.933594 C 407.449219 269.640625 401.597656 265.316406 398.542969 258.1875 Z M 398.542969 258.1875 " transform="matrix(1,0,0,-1,-3,326)"/>
<path style="fill:none;stroke-width:4;stroke-linecap:butt;stroke-linejoin:round;stroke:rgb(87.8%,87.8%,87.8%);stroke-opacity:1;stroke-miterlimit:10;" d="M 396.144531 223.757812 C 396.144531 223.757812 396.144531 223.757812 396.148438 223.683594 C 396.148438 223.605469 396.152344 223.457031 396.429688 223.222656 C 396.710938 222.988281 397.265625 222.671875 397.851562 222.375 C 398.4375 222.078125 399.050781 221.804688 399.824219 221.523438 C 400.597656 221.242188 401.53125 220.957031 402.457031 220.710938 C 403.378906 220.464844 404.296875 220.257812 405.050781 220.101562 C 405.804688 219.945312 406.394531 219.839844 407.585938 219.671875 C 408.78125 219.5 410.578125 219.265625 412.199219 219.089844 C 413.824219 218.910156 415.269531 218.792969 416.726562 218.703125 C 418.179688 218.613281 419.640625 218.546875 421.058594 218.507812 C 422.476562 218.464844 423.847656 218.449219 425.308594 218.453125 C 426.765625 218.460938 428.308594 218.488281 429.886719 218.550781 C 431.464844 218.609375 433.078125 218.699219 435.277344 218.90625 C 437.476562 219.117188 440.257812 219.445312 442.117188 219.699219 C 443.980469 219.953125 444.921875 220.136719 445.746094 220.3125 C 446.570312 220.492188 447.273438 220.664062 448.007812 220.875 C 448.746094 221.085938 449.511719 221.335938 450.175781 221.585938 C 450.839844 221.835938 451.398438 222.089844 451.988281 222.511719 C 452.574219 222.929688 453.191406 223.519531 453.46875 223.882812 C 453.75 224.25 453.6875 224.394531 453.65625 224.464844 C 453.625 224.535156 453.625 224.535156 453.625 224.535156 " transform="matrix(1,0,0,-1,-3,326)"/>
<path style="fill:none;stroke-width:2;stroke-linecap:butt;stroke-linejoin:round;stroke:rgb(0%,0%,0%);stroke-opacity:1;stroke-miterlimit:10;" d="M 398.542969 258.1875 C 395.488281 251.0625 395.234375 241.136719 395.742188 229.9375 C 396.25 218.738281 397.523438 206.269531 403.886719 194.433594 C 410.25 182.597656 421.703125 171.402344 434.683594 170 C 447.664062 168.601562 462.167969 177 461.40625 196.089844 C 460.644531 215.175781 444.609375 244.953125 434.046875 259.714844 C 423.484375 274.476562 418.394531 274.222656 412.921875 271.933594 C 407.449219 269.640625 401.597656 265.316406 398.542969 258.1875 Z M 398.542969 258.1875 " transform="matrix(1,0,0,-1,-3,326)"/>
<path style="fill:none;stroke-width:4;stroke-linecap:butt;stroke-linejoin:round;stroke:rgb(87.8%,87.8%,87.8%);stroke-opacity:1;stroke-miterlimit:10;" d="M 388.273438 217.121094 C 388.273438 217.121094 388.273438 217.121094 389.101562 216.738281 C 389.933594 216.355469 391.589844 215.585938 393.457031 214.851562 C 395.324219 214.117188 397.398438 213.421875 400.121094 212.65625 C 402.84375 211.894531 406.214844 211.066406 409.359375 210.390625 C 412.507812 209.710938 415.429688 209.179688 419.152344 208.617188 C 422.875 208.054688 427.402344 207.460938 431.683594 206.984375 C 435.964844 206.507812 440.007812 206.152344 444.484375 205.847656 C 448.964844 205.539062 453.882812 205.289062 458.765625 205.121094 C 463.648438 204.957031 468.492188 204.878906 473.039062 204.875 C 477.582031 204.871094 481.824219 204.941406 486.484375 205.101562 C 491.140625 205.265625 496.214844 205.519531 501.523438 205.910156 C 506.832031 206.296875 512.375 206.820312 516.46875 207.265625 C 520.5625 207.707031 523.210938 208.066406 526.867188 208.691406 C 530.527344 209.3125 535.199219 210.195312 538.78125 210.972656 C 542.363281 211.746094 544.855469 212.414062 547.273438 213.175781 C 549.695312 213.9375 552.042969 214.796875 553.21875 215.226562 C 554.390625 215.65625 554.390625 215.65625 554.390625 215.65625 " transform="matrix(1,0,0,-1,-3,326)"/>
<path style="fill:none;stroke-width:2;stroke-linecap:butt;stroke-linejoin:round;stroke:rgb(0%,0%,0%);stroke-opacity:1;stroke-miterlimit:10;" d="M 382.464844 223.757812 C 382.464844 223.757812 382.464844 223.757812 382.453125 223.496094 C 382.441406 223.230469 382.417969 222.703125 382.578125 222.253906 C 382.738281 221.804688 383.082031 221.433594 383.457031 221.023438 C 383.828125 220.609375 384.226562 220.152344 384.65625 219.738281 C 385.082031 219.320312 385.539062 218.945312 386.148438 218.515625 C 386.753906 218.085938 387.511719 217.605469 388.722656 216.980469 C 389.933594 216.355469 391.589844 215.585938 393.457031 214.851562 C 395.324219 214.117188 397.398438 213.421875 400.121094 212.65625 C 402.84375 211.894531 406.214844 211.066406 409.359375 210.390625 C 412.507812 209.710938 415.429688 209.179688 419.152344 208.617188 C 422.875 208.054688 427.402344 207.460938 431.683594 206.984375 C 435.964844 206.507812 440.007812 206.152344 444.484375 205.847656 C 448.964844 205.539062 453.882812 205.289062 458.765625 205.121094 C 463.648438 204.957031 468.492188 204.878906 473.039062 204.875 C 477.582031 204.871094 481.824219 204.941406 486.484375 205.101562 C 491.140625 205.265625 496.214844 205.519531 501.523438 205.910156 C 506.832031 206.296875 512.375 206.820312 516.46875 207.265625 C 520.5625 207.707031 523.210938 208.066406 526.867188 208.691406 C 530.527344 209.3125 535.199219 210.195312 538.78125 210.972656 C 542.363281 211.746094 544.855469 212.414062 547.273438 213.175781 C 549.695312 213.9375 552.042969 214.796875 554.0625 215.691406 C 556.078125 216.585938 557.769531 217.515625 559.007812 218.335938 C 560.246094 219.152344 561.03125 219.863281 561.519531 220.347656 C 562.011719 220.835938 562.203125 221.101562 562.367188 221.367188 C 562.53125 221.628906 562.667969 221.894531 562.792969 222.246094 C 562.917969 222.601562 563.03125 223.046875 563.085938 223.269531 C 563.144531 223.488281 563.144531 223.488281 563.144531 223.488281 " transform="matrix(1,0,0,-1,-3,326)"/>
<path style="fill:none;stroke-width:2;stroke-linecap:butt;stroke-linejoin:round;stroke:rgb(0%,0%,0%);stroke-opacity:1;stroke-miterlimit:10;" d="M 396.144531 223.757812 C 396.144531 223.757812 396.144531 223.757812 396.148438 223.683594 C 396.148438 223.605469 396.152344 223.457031 396.429688 223.222656 C 396.710938 222.988281 397.265625 222.671875 397.851562 222.375 C 398.4375 222.078125 399.050781 221.804688 399.824219 221.523438 C 400.597656 221.242188 401.53125 220.957031 402.457031 220.710938 C 403.378906 220.464844 404.296875 220.257812 405.050781 220.101562 C 405.804688 219.945312 406.394531 219.839844 407.585938 219.671875 C 408.78125 219.5 410.578125 219.265625 412.199219 219.089844 C 413.824219 218.910156 415.269531 218.792969 416.726562 218.703125 C 418.179688 218.613281 419.640625 218.546875 421.058594 218.507812 C 422.476562 218.464844 423.847656 218.449219 425.308594 218.453125 C 426.765625 218.460938 428.308594 218.488281 429.886719 218.550781 C 431.464844 218.609375 433.078125 218.699219 435.277344 218.90625 C 437.476562 219.117188 440.257812 219.445312 442.117188 219.699219 C 443.980469 219.953125 444.921875 220.136719 445.746094 220.3125 C 446.570312 220.492188 447.273438 220.664062 448.007812 220.875 C 448.746094 221.085938 449.511719 221.335938 450.175781 221.585938 C 450.839844 221.835938 451.398438 222.089844 451.988281 222.511719 C 452.574219 222.929688 453.191406 223.519531 453.46875 223.882812 C 453.75 224.25 453.6875 224.394531 453.65625 224.464844 C 453.625 224.535156 453.625 224.535156 453.625 224.535156 " transform="matrix(1,0,0,-1,-3,326)"/>
<path style="fill-rule:evenodd;fill:rgb(38%,38%,38%);fill-opacity:1;stroke-width:8;stroke-linecap:butt;stroke-linejoin:round;stroke:rgb(87.8%,87.8%,87.8%);stroke-opacity:1;stroke-miterlimit:10;" d="M 474.585938 281.070312 C 470.519531 274.445312 471.875 266.761719 477.597656 262.546875 C 483.320312 258.328125 493.410156 257.574219 498.980469 251.851562 C 504.554688 246.128906 505.609375 235.4375 513.363281 231.222656 C 521.121094 227.003906 535.578125 229.261719 536.632812 241.988281 C 537.6875 254.714844 525.335938 277.90625 516.601562 289.125 C 507.867188 300.347656 502.746094 299.59375 495.445312 296.429688 C 488.140625 293.269531 478.652344 287.695312 474.585938 281.070312 Z M 474.585938 281.070312 " transform="matrix(1,0,0,-1,-3,326)"/>
<path style="fill:none;stroke-width:2;stroke-linecap:butt;stroke-linejoin:round;stroke:rgb(0%,0%,0%);stroke-opacity:1;stroke-miterlimit:10;" d="M 474.585938 281.070312 C 470.519531 274.445312 471.875 266.761719 477.597656 262.546875 C 483.320312 258.328125 493.410156 257.574219 498.980469 251.851562 C 504.554688 246.128906 505.609375 235.4375 513.363281 231.222656 C 521.121094 227.003906 535.578125 229.261719 536.632812 241.988281 C 537.6875 254.714844 525.335938 277.90625 516.601562 289.125 C 507.867188 300.347656 502.746094 299.59375 495.445312 296.429688 C 488.140625 293.269531 478.652344 287.695312 474.585938 281.070312 Z M 474.585938 281.070312 " transform="matrix(1,0,0,-1,-3,326)"/>
<path style="fill:none;stroke-width:2;stroke-linecap:butt;stroke-linejoin:round;stroke:rgb(0%,0%,0%);stroke-opacity:1;stroke-miterlimit:10;" d="M 472.402344 273.617188 C 472.402344 273.617188 472.402344 273.617188 472.410156 273.582031 C 472.414062 273.546875 472.425781 273.480469 472.484375 273.339844 C 472.539062 273.199219 472.648438 272.988281 472.773438 272.808594 C 472.902344 272.625 473.046875 272.476562 473.230469 272.324219 C 473.410156 272.171875 473.625 272.019531 473.832031 271.886719 C 474.039062 271.753906 474.242188 271.640625 474.789062 271.414062 C 475.332031 271.183594 476.222656 270.839844 477.390625 270.492188 C 478.5625 270.148438 480.007812 269.804688 482 269.464844 C 483.988281 269.128906 486.523438 268.796875 488.566406 268.582031 C 490.609375 268.363281 492.160156 268.265625 493.8125 268.195312 C 495.464844 268.125 497.21875 268.085938 499.097656 268.085938 C 500.980469 268.089844 502.992188 268.132812 505 268.230469 C 507.007812 268.328125 509.019531 268.476562 510.703125 268.636719 C 512.390625 268.796875 513.753906 268.972656 515.207031 269.210938 C 516.65625 269.453125 518.195312 269.757812 519.484375 270.070312 C 520.773438 270.386719 521.8125 270.707031 522.652344 271.03125 C 523.488281 271.351562 524.128906 271.671875 524.566406 271.929688 C 525.003906 272.1875 525.246094 272.386719 525.445312 272.621094 C 525.648438 272.859375 525.808594 273.132812 525.894531 273.339844 C 525.980469 273.546875 525.992188 273.683594 525.996094 273.753906 C 526 273.820312 526 273.820312 526 273.820312 " transform="matrix(1,0,0,-1,-3,326)"/>
<path style="fill:none;stroke-width:2;stroke-linecap:butt;stroke-linejoin:round;stroke:rgb(0%,0%,0%);stroke-opacity:1;stroke-dasharray:4;stroke-miterlimit:10;" d="M 472.265625 273.988281 C 472.265625 273.988281 472.265625 273.988281 472.289062 274.199219 C 472.3125 274.410156 472.359375 274.832031 472.675781 275.117188 C 472.988281 275.402344 473.574219 275.550781 474.101562 275.734375 C 474.628906 275.917969 475.101562 276.136719 475.957031 276.429688 C 476.8125 276.726562 478.054688 277.097656 479.140625 277.378906 C 480.230469 277.660156 481.164062 277.847656 482.1875 278.027344 C 483.210938 278.203125 484.324219 278.367188 485.628906 278.527344 C 486.933594 278.6875 488.429688 278.835938 489.851562 278.953125 C 491.277344 279.066406 492.628906 279.148438 494.058594 279.207031 C 495.488281 279.265625 496.996094 279.300781 498.585938 279.304688 C 500.171875 279.3125 501.84375 279.285156 503.519531 279.226562 C 505.195312 279.167969 506.878906 279.074219 508.191406 278.984375 C 509.5 278.894531 510.441406 278.808594 511.570312 278.675781 C 512.695312 278.546875 514.011719 278.375 515.066406 278.214844 C 516.117188 278.058594 516.902344 277.917969 518.089844 277.636719 C 519.28125 277.351562 520.871094 276.921875 521.917969 276.601562 C 522.96875 276.28125 523.472656 276.0625 523.855469 275.878906 C 524.238281 275.695312 524.5 275.542969 524.726562 275.390625 C 524.957031 275.238281 525.152344 275.085938 525.316406 274.9375 C 525.476562 274.789062 525.601562 274.648438 525.664062 274.574219 C 525.726562 274.503906 525.726562 274.503906 525.726562 274.503906 " transform="matrix(1,0,0,-1,-3,326)"/>
<path style="fill-rule:evenodd;fill:rgb(87.8%,87.8%,87.8%);fill-opacity:1;stroke-width:2;stroke-linecap:butt;stroke-linejoin:round;stroke:rgb(0%,0%,0%);stroke-opacity:1;stroke-miterlimit:10;" d="M 13.089844 189.382812 C 12.695312 181.890625 22.554688 175.773438 32.515625 171.929688 C 42.476562 168.082031 52.535156 166.503906 54.410156 173.113281 C 56.285156 179.71875 49.972656 194.511719 45.335938 202.796875 C 40.703125 211.078125 37.742188 212.855469 30.9375 209.304688 C 24.132812 205.753906 13.484375 196.878906 13.089844 189.382812 Z M 13.089844 189.382812 " transform="matrix(1,0,0,-1,-3,326)"/>
<path style="fill-rule:evenodd;fill:rgb(87.8%,87.8%,87.8%);fill-opacity:1;stroke-width:2;stroke-linecap:butt;stroke-linejoin:round;stroke:rgb(0%,0%,0%);stroke-opacity:1;stroke-miterlimit:10;" d="M 65.75 218.675781 C 66.34375 202.992188 70.683594 186.621094 87.347656 177.15625 C 104.015625 167.6875 133.011719 165.125 146.421875 186.917969 C 159.835938 208.714844 157.664062 254.867188 142.574219 271.828125 C 127.488281 288.792969 99.480469 276.5625 83.898438 262.953125 C 68.316406 249.34375 65.160156 234.355469 65.75 218.675781 Z M 65.75 218.675781 " transform="matrix(1,0,0,-1,-3,326)"/>
<path style="fill-rule:evenodd;fill:rgb(87.8%,87.8%,87.8%);fill-opacity:1;stroke-width:2;stroke-linecap:butt;stroke-linejoin:round;stroke:rgb(0%,0%,0%);stroke-opacity:1;stroke-miterlimit:10;" d="M 5.59375 248.257812 C 7.566406 236.722656 17.625 222.125 28.472656 221.929688 C 39.320312 221.730469 50.957031 235.933594 50.367188 243.527344 C 49.777344 251.121094 36.953125 252.105469 29.164062 256.542969 C 21.375 260.980469 18.613281 268.871094 14.175781 268.574219 C 9.734375 268.277344 3.621094 259.796875 5.59375 248.257812 Z M 5.59375 248.257812 " transform="matrix(1,0,0,-1,-3,326)"/>
<path style=" stroke:none;fill-rule:evenodd;fill:rgb(12.9%,58.8%,95.3%);fill-opacity:1;" d="M 17.175781 78.941406 C 17.175781 76.941406 14.175781 76.941406 14.175781 78.941406 C 14.175781 80.941406 17.175781 80.941406 17.175781 78.941406 Z M 17.175781 78.941406 "/>
<path style=" stroke:none;fill-rule:evenodd;fill:rgb(0%,0%,0%);fill-opacity:1;" d="M 17.476562 78.941406 C 17.476562 76.542969 13.878906 76.542969 13.878906 78.941406 C 13.878906 81.34375 17.476562 81.34375 17.476562 78.941406 Z M 16.878906 78.941406 C 16.878906 77.34375 14.476562 77.34375 14.476562 78.941406 C 14.476562 80.542969 16.878906 80.542969 16.878906 78.941406 Z M 16.878906 78.941406 "/>
<path style=" stroke:none;fill-rule:evenodd;fill:rgb(91.4%,11.8%,38.8%);fill-opacity:1;" d="M 36.292969 139.480469 C 36.292969 137.480469 33.292969 137.480469 33.292969 139.480469 C 33.292969 141.480469 36.292969 141.480469 36.292969 139.480469 Z M 36.292969 139.480469 "/>
<path style=" stroke:none;fill-rule:evenodd;fill:rgb(0%,0%,0%);fill-opacity:1;" d="M 36.59375 139.480469 C 36.59375 137.078125 32.996094 137.078125 32.996094 139.480469 C 32.996094 141.878906 36.59375 141.878906 36.59375 139.480469 Z M 35.996094 139.480469 C 35.996094 137.878906 33.59375 137.878906 33.59375 139.480469 C 33.59375 141.078125 35.996094 141.078125 35.996094 139.480469 Z M 35.996094 139.480469 "/>
<path style="fill:none;stroke-width:2;stroke-linecap:butt;stroke-linejoin:round;stroke:rgb(25.9%,25.9%,25.9%);stroke-opacity:1;stroke-miterlimit:10;" d="M 85.671875 196.289062 C 85.671875 196.289062 85.671875 196.289062 87.347656 198.65625 C 89.027344 201.019531 92.378906 205.753906 96.914062 207.824219 C 101.453125 209.898438 107.171875 209.304688 112.597656 207.035156 C 118.019531 204.769531 123.148438 200.824219 127.09375 202.402344 C 131.039062 203.980469 133.796875 211.078125 131.234375 216.207031 C 128.671875 221.335938 120.78125 224.492188 114.273438 228.535156 C 107.765625 232.578125 102.636719 237.511719 102.242188 241.75 C 101.847656 245.992188 106.1875 249.542969 110.722656 252.894531 C 115.257812 256.246094 119.992188 259.402344 122.359375 260.980469 C 124.726562 262.558594 124.726562 262.558594 124.726562 262.558594 " transform="matrix(1,0,0,-1,-3,326)"/>
<path style="fill-rule:evenodd;fill:rgb(25.9%,25.9%,25.9%);fill-opacity:1;stroke-width:2;stroke-linecap:butt;stroke-linejoin:round;stroke:rgb(25.9%,25.9%,25.9%);stroke-opacity:1;stroke-miterlimit:10;" d="M 124.726562 262.558594 L 117.609375 260.617188 L 120.195312 256.738281 Z M 124.726562 262.558594 " transform="matrix(1,0,0,-1,-3,326)"/>
<path style=" stroke:none;fill-rule:evenodd;fill:rgb(91.4%,11.8%,38.8%);fill-opacity:1;" d="M 84.171875 129.714844 C 84.171875 127.714844 81.171875 127.714844 81.171875 129.714844 C 81.171875 131.714844 84.171875 131.714844 84.171875 129.714844 Z M 84.171875 129.714844 "/>
<path style=" stroke:none;fill-rule:evenodd;fill:rgb(0%,0%,0%);fill-opacity:1;" d="M 84.472656 129.714844 C 84.472656 127.3125 80.871094 127.3125 80.871094 129.714844 C 80.871094 132.113281 84.472656 132.113281 84.472656 129.714844 Z M 83.871094 129.714844 C 83.871094 128.113281 81.472656 128.113281 81.472656 129.714844 C 81.472656 131.3125 83.871094 131.3125 83.871094 129.714844 Z M 83.871094 129.714844 "/>
<path style=" stroke:none;fill-rule:evenodd;fill:rgb(12.9%,58.8%,95.3%);fill-opacity:1;" d="M 123.226562 63.441406 C 123.226562 61.441406 120.226562 61.441406 120.226562 63.441406 C 120.226562 65.441406 123.226562 65.441406 123.226562 63.441406 Z M 123.226562 63.441406 "/>
<path style=" stroke:none;fill-rule:evenodd;fill:rgb(0%,0%,0%);fill-opacity:1;" d="M 123.527344 63.441406 C 123.527344 61.039062 119.925781 61.039062 119.925781 63.441406 C 119.925781 65.839844 123.527344 65.839844 123.527344 63.441406 Z M 122.925781 63.441406 C 122.925781 61.839844 120.527344 61.839844 120.527344 63.441406 C 120.527344 65.039062 122.925781 65.039062 122.925781 63.441406 Z M 122.925781 63.441406 "/>
</g>
</svg>
