<?xml version="1.0" encoding="UTF-8"?>
<svg xmlns="http://www.w3.org/2000/svg" xmlns:xlink="http://www.w3.org/1999/xlink" width="65pt" height="65pt" viewBox="0 0 65 65" version="1.1">
<g id="surface55250">
<path style=" stroke:none;fill-rule:evenodd;fill:rgb(0%,73.7%,83.1%);fill-opacity:0.7;" d="M 21.496094 51.742188 L 10.289062 30.6875 L 22.042969 13.203125 L 45.640625 12.082031 L 53.566406 29.652344 L 53.710938 32.828125 L 46.121094 51.917969 Z M 21.496094 51.742188 "/>
<path style="fill:none;stroke-width:2;stroke-linecap:butt;stroke-linejoin:round;stroke:rgb(0%,0%,0%);stroke-opacity:1;stroke-miterlimit:10;" d="M 326.042969 514.796875 L 349.640625 515.917969 " transform="matrix(1,0,0,-1,-304,528)"/>
<path style="fill:none;stroke-width:2;stroke-linecap:butt;stroke-linejoin:round;stroke:rgb(0%,0%,0%);stroke-opacity:1;stroke-miterlimit:10;" d="M 349.640625 515.917969 L 333.535156 513.285156 " transform="matrix(1,0,0,-1,-304,528)"/>
<path style="fill:none;stroke-width:2;stroke-linecap:butt;stroke-linejoin:round;stroke:rgb(0%,0%,0%);stroke-opacity:1;stroke-miterlimit:10;" d="M 333.535156 513.285156 L 326.042969 514.796875 " transform="matrix(1,0,0,-1,-304,528)"/>
<path style="fill:none;stroke-width:2;stroke-linecap:butt;stroke-linejoin:round;stroke:rgb(0%,0%,0%);stroke-opacity:1;stroke-miterlimit:10;" d="M 326.042969 514.796875 L 314.289062 497.3125 " transform="matrix(1,0,0,-1,-304,528)"/>
<path style="fill:none;stroke-width:2;stroke-linecap:butt;stroke-linejoin:round;stroke:rgb(0%,0%,0%);stroke-opacity:1;stroke-miterlimit:10;" d="M 314.289062 497.3125 L 333.535156 513.285156 " transform="matrix(1,0,0,-1,-304,528)"/>
<path style="fill:none;stroke-width:2;stroke-linecap:butt;stroke-linejoin:round;stroke:rgb(0%,0%,0%);stroke-opacity:1;stroke-miterlimit:10;" d="M 333.535156 513.285156 L 357.5625 498.347656 " transform="matrix(1,0,0,-1,-304,528)"/>
<path style="fill:none;stroke-width:2;stroke-linecap:butt;stroke-linejoin:round;stroke:rgb(0%,0%,0%);stroke-opacity:1;stroke-miterlimit:10;" d="M 357.5625 498.347656 L 349.640625 515.917969 " transform="matrix(1,0,0,-1,-304,528)"/>
<path style="fill:none;stroke-width:0.8;stroke-linecap:butt;stroke-linejoin:round;stroke:rgb(0%,0%,0%);stroke-opacity:1;stroke-dasharray:4;stroke-miterlimit:10;" d="M 349.640625 515.917969 L 340.464844 504.429688 " transform="matrix(1,0,0,-1,-304,528)"/>
<path style="fill:none;stroke-width:0.8;stroke-linecap:butt;stroke-linejoin:round;stroke:rgb(0%,0%,0%);stroke-opacity:1;stroke-dasharray:4;stroke-miterlimit:10;" d="M 340.464844 504.429688 L 357.710938 495.171875 " transform="matrix(1,0,0,-1,-304,528)"/>
<path style="fill:none;stroke-width:2;stroke-linecap:butt;stroke-linejoin:round;stroke:rgb(0%,0%,0%);stroke-opacity:1;stroke-miterlimit:10;" d="M 333.535156 513.285156 L 333.417969 484.269531 " transform="matrix(1,0,0,-1,-304,528)"/>
<path style="fill:none;stroke-width:2;stroke-linecap:butt;stroke-linejoin:round;stroke:rgb(0%,0%,0%);stroke-opacity:1;stroke-miterlimit:10;" d="M 333.417969 484.269531 L 314.289062 497.3125 " transform="matrix(1,0,0,-1,-304,528)"/>
<path style="fill:none;stroke-width:2;stroke-linecap:butt;stroke-linejoin:round;stroke:rgb(0%,0%,0%);stroke-opacity:1;stroke-miterlimit:10;" d="M 314.289062 497.3125 L 325.496094 476.257812 " transform="matrix(1,0,0,-1,-304,528)"/>
<path style="fill:none;stroke-width:0.8;stroke-linecap:butt;stroke-linejoin:round;stroke:rgb(0%,0%,0%);stroke-opacity:1;stroke-dasharray:4;stroke-miterlimit:10;" d="M 325.496094 476.257812 L 322.542969 494.660156 " transform="matrix(1,0,0,-1,-304,528)"/>
<path style="fill:none;stroke-width:2;stroke-linecap:butt;stroke-linejoin:round;stroke:rgb(0%,0%,0%);stroke-opacity:1;stroke-miterlimit:10;" d="M 325.496094 476.257812 L 333.417969 484.269531 " transform="matrix(1,0,0,-1,-304,528)"/>
<path style="fill:none;stroke-width:0.8;stroke-linecap:butt;stroke-linejoin:round;stroke:rgb(0%,0%,0%);stroke-opacity:1;stroke-dasharray:4;stroke-miterlimit:10;" d="M 325.496094 476.257812 L 340.550781 483.578125 " transform="matrix(1,0,0,-1,-304,528)"/>
<path style="fill:none;stroke-width:2;stroke-linecap:butt;stroke-linejoin:round;stroke:rgb(0%,0%,0%);stroke-opacity:1;stroke-miterlimit:10;" d="M 325.496094 476.257812 L 350.121094 476.082031 " transform="matrix(1,0,0,-1,-304,528)"/>
<path style="fill:none;stroke-width:0.8;stroke-linecap:butt;stroke-linejoin:round;stroke:rgb(0%,0%,0%);stroke-opacity:1;stroke-dasharray:4;stroke-miterlimit:10;" d="M 350.121094 476.082031 L 340.550781 483.578125 " transform="matrix(1,0,0,-1,-304,528)"/>
<path style="fill:none;stroke-width:2;stroke-linecap:butt;stroke-linejoin:round;stroke:rgb(0%,0%,0%);stroke-opacity:1;stroke-miterlimit:10;" d="M 350.121094 476.082031 L 333.417969 484.269531 " transform="matrix(1,0,0,-1,-304,528)"/>
<path style="fill:none;stroke-width:2;stroke-linecap:butt;stroke-linejoin:round;stroke:rgb(0%,0%,0%);stroke-opacity:1;stroke-miterlimit:10;" d="M 350.121094 476.082031 L 357.710938 495.171875 " transform="matrix(1,0,0,-1,-304,528)"/>
<path style="fill:none;stroke-width:0.8;stroke-linecap:butt;stroke-linejoin:round;stroke:rgb(0%,0%,0%);stroke-opacity:1;stroke-dasharray:4;stroke-miterlimit:10;" d="M 340.550781 483.578125 L 357.710938 495.171875 " transform="matrix(1,0,0,-1,-304,528)"/>
<path style="fill:none;stroke-width:0.8;stroke-linecap:butt;stroke-linejoin:round;stroke:rgb(0%,0%,0%);stroke-opacity:1;stroke-dasharray:4;stroke-miterlimit:10;" d="M 340.550781 483.578125 L 340.464844 504.429688 " transform="matrix(1,0,0,-1,-304,528)"/>
<path style="fill:none;stroke-width:2;stroke-linecap:butt;stroke-linejoin:round;stroke:rgb(0%,0%,0%);stroke-opacity:1;stroke-miterlimit:10;" d="M 333.417969 484.269531 L 357.5625 498.347656 " transform="matrix(1,0,0,-1,-304,528)"/>
<path style="fill:none;stroke-width:0.8;stroke-linecap:butt;stroke-linejoin:round;stroke:rgb(0%,0%,0%);stroke-opacity:1;stroke-dasharray:4;stroke-miterlimit:10;" d="M 340.464844 504.429688 L 322.542969 494.660156 " transform="matrix(1,0,0,-1,-304,528)"/>
<path style="fill:none;stroke-width:0.8;stroke-linecap:butt;stroke-linejoin:round;stroke:rgb(0%,0%,0%);stroke-opacity:1;stroke-dasharray:4;stroke-miterlimit:10;" d="M 322.542969 494.660156 L 340.550781 483.578125 " transform="matrix(1,0,0,-1,-304,528)"/>
<path style="fill:none;stroke-width:0.8;stroke-linecap:butt;stroke-linejoin:round;stroke:rgb(0%,0%,0%);stroke-opacity:1;stroke-dasharray:4;stroke-miterlimit:10;" d="M 322.542969 494.660156 L 326.042969 514.796875 " transform="matrix(1,0,0,-1,-304,528)"/>
<path style="fill:none;stroke-width:0.8;stroke-linecap:butt;stroke-linejoin:round;stroke:rgb(0%,0%,0%);stroke-opacity:1;stroke-dasharray:4;stroke-miterlimit:10;" d="M 322.542969 494.660156 L 314.289062 497.3125 " transform="matrix(1,0,0,-1,-304,528)"/>
<path style="fill:none;stroke-width:0.8;stroke-linecap:butt;stroke-linejoin:round;stroke:rgb(0%,0%,0%);stroke-opacity:1;stroke-dasharray:4;stroke-miterlimit:10;" d="M 340.464844 504.429688 L 326.042969 514.796875 " transform="matrix(1,0,0,-1,-304,528)"/>
<path style="fill:none;stroke-width:2;stroke-linecap:butt;stroke-linejoin:round;stroke:rgb(0%,0%,0%);stroke-opacity:1;stroke-miterlimit:10;" d="M 357.710938 495.171875 L 357.5625 498.347656 " transform="matrix(1,0,0,-1,-304,528)"/>
<path style="fill:none;stroke-width:2;stroke-linecap:butt;stroke-linejoin:round;stroke:rgb(0%,0%,0%);stroke-opacity:1;stroke-miterlimit:10;" d="M 357.5625 498.347656 L 350.121094 476.082031 " transform="matrix(1,0,0,-1,-304,528)"/>
<path style="fill:none;stroke-width:0.8;stroke-linecap:butt;stroke-linejoin:round;stroke:rgb(0%,0%,0%);stroke-opacity:1;stroke-miterlimit:10;" d="M 349.640625 515.917969 L 357.710938 495.171875 " transform="matrix(1,0,0,-1,-304,528)"/>
<path style=" stroke:none;fill-rule:evenodd;fill:rgb(0%,0%,0%);fill-opacity:1;" d="M 23.84375 13.203125 C 23.84375 10.800781 20.242188 10.800781 20.242188 13.203125 C 20.242188 15.601562 23.84375 15.601562 23.84375 13.203125 Z M 23.84375 13.203125 "/>
<path style=" stroke:none;fill-rule:evenodd;fill:rgb(0%,0%,0%);fill-opacity:1;" d="M 31.335938 14.714844 C 31.335938 12.316406 27.738281 12.316406 27.738281 14.714844 C 27.738281 17.117188 31.335938 17.117188 31.335938 14.714844 Z M 31.335938 14.714844 "/>
<path style=" stroke:none;fill-rule:evenodd;fill:rgb(0%,0%,0%);fill-opacity:1;" d="M 47.441406 12.082031 C 47.441406 9.683594 43.839844 9.683594 43.839844 12.082031 C 43.839844 14.484375 47.441406 14.484375 47.441406 12.082031 Z M 47.441406 12.082031 "/>
<path style=" stroke:none;fill-rule:evenodd;fill:rgb(0%,0%,0%);fill-opacity:1;" d="M 38.265625 23.570312 C 38.265625 21.167969 34.664062 21.167969 34.664062 23.570312 C 34.664062 25.96875 38.265625 25.96875 38.265625 23.570312 Z M 38.265625 23.570312 "/>
<path style=" stroke:none;fill-rule:evenodd;fill:rgb(0%,0%,0%);fill-opacity:1;" d="M 12.089844 30.6875 C 12.089844 28.289062 8.488281 28.289062 8.488281 30.6875 C 8.488281 33.085938 12.089844 33.085938 12.089844 30.6875 Z M 12.089844 30.6875 "/>
<path style=" stroke:none;fill-rule:evenodd;fill:rgb(0%,0%,0%);fill-opacity:1;" d="M 20.34375 33.339844 C 20.34375 30.941406 16.742188 30.941406 16.742188 33.339844 C 16.742188 35.738281 20.34375 35.738281 20.34375 33.339844 Z M 20.34375 33.339844 "/>
<path style=" stroke:none;fill-rule:evenodd;fill:rgb(0%,0%,0%);fill-opacity:1;" d="M 55.363281 29.652344 C 55.363281 27.25 51.765625 27.25 51.765625 29.652344 C 51.765625 32.050781 55.363281 32.050781 55.363281 29.652344 Z M 55.363281 29.652344 "/>
<path style=" stroke:none;fill-rule:evenodd;fill:rgb(0%,0%,0%);fill-opacity:1;" d="M 55.511719 32.828125 C 55.511719 30.425781 51.910156 30.425781 51.910156 32.828125 C 51.910156 35.226562 55.511719 35.226562 55.511719 32.828125 Z M 55.511719 32.828125 "/>
<path style=" stroke:none;fill-rule:evenodd;fill:rgb(0%,0%,0%);fill-opacity:1;" d="M 31.21875 43.730469 C 31.21875 41.332031 27.617188 41.332031 27.617188 43.730469 C 27.617188 46.128906 31.21875 46.128906 31.21875 43.730469 Z M 31.21875 43.730469 "/>
<path style=" stroke:none;fill-rule:evenodd;fill:rgb(0%,0%,0%);fill-opacity:1;" d="M 38.347656 44.421875 C 38.347656 42.023438 34.75 42.023438 34.75 44.421875 C 34.75 46.824219 38.347656 46.824219 38.347656 44.421875 Z M 38.347656 44.421875 "/>
<path style=" stroke:none;fill-rule:evenodd;fill:rgb(0%,0%,0%);fill-opacity:1;" d="M 23.296875 51.742188 C 23.296875 49.339844 19.695312 49.339844 19.695312 51.742188 C 19.695312 54.140625 23.296875 54.140625 23.296875 51.742188 Z M 23.296875 51.742188 "/>
<path style=" stroke:none;fill-rule:evenodd;fill:rgb(0%,0%,0%);fill-opacity:1;" d="M 47.917969 51.917969 C 47.917969 49.515625 44.320312 49.515625 44.320312 51.917969 C 44.320312 54.316406 47.917969 54.316406 47.917969 51.917969 Z M 47.917969 51.917969 "/>
</g>
</svg>
