<?xml version="1.0" encoding="UTF-8"?>
<svg xmlns="http://www.w3.org/2000/svg" xmlns:xlink="http://www.w3.org/1999/xlink" width="246.348pt" height="392.063pt" viewBox="0 0 246.348 392.063" version="1.1">
<defs>
<clipPath id="clip1">
  <path d="M 0 177 L 246.347656 177 L 246.347656 392.0625 L 0 392.0625 Z M 0 177 "/>
</clipPath>
<clipPath id="clip2">
  <path d="M 0 174 L 246.347656 174 L 246.347656 392.0625 L 0 392.0625 Z M 0 174 "/>
</clipPath>
<clipPath id="clip3">
  <path d="M 58 226 L 240 226 L 240 392.0625 L 58 392.0625 Z M 58 226 "/>
</clipPath>
<clipPath id="clip4">
  <path d="M 59 223 L 240 223 L 240 392.0625 L 59 392.0625 Z M 59 223 "/>
</clipPath>
<clipPath id="clip5">
  <path d="M 57 300 L 236 300 L 236 392.0625 L 57 392.0625 Z M 57 300 "/>
</clipPath>
<clipPath id="clip6">
  <path d="M 55 297 L 236 297 L 236 392.0625 L 55 392.0625 Z M 55 297 "/>
</clipPath>
</defs>
<g id="surface1">
<path style="fill:none;stroke-width:6;stroke-linecap:butt;stroke-linejoin:round;stroke:rgb(0%,0%,0%);stroke-opacity:1;stroke-miterlimit:10;" d="M 347.9315 607.227406 C 347.21275 608.770375 346.505719 610.180531 345.595563 611.664906 C 344.685406 613.149281 343.576031 614.707875 342.548688 615.797719 C 341.517438 616.891469 340.568219 617.520375 339.615094 617.520375 C 338.665875 617.524281 337.716656 616.899281 336.447125 615.446156 C 335.177594 613.996937 333.58775 611.7235 331.841656 608.758656 C 330.095563 605.793812 328.193219 602.141469 326.767438 599.395375 C 325.341656 596.653187 324.388531 594.81725 322.810406 591.793812 C 321.228375 588.774281 319.021344 584.563344 316.747906 580.270375 C 314.478375 575.977406 312.142438 571.5985 310.259625 568.078969 C 308.376813 564.559437 306.947125 561.899281 305.267438 558.75475 C 303.583844 555.606312 301.65025 551.977406 300.0565 548.965687 C 298.46275 545.953969 297.208844 543.563344 295.744 540.75475 C 294.279156 537.94225 292.607281 534.707875 291.185406 531.957875 C 289.767438 529.203969 288.603375 526.934437 287.365094 524.528187 C 286.130719 522.121937 284.818219 519.582875 283.372906 516.793812 C 281.923688 514.008656 280.333844 510.977406 278.6815 507.891469 C 277.029156 504.805531 275.314313 501.657094 273.853375 499.00475 C 272.388531 496.3485 271.173688 494.184437 269.833844 491.508656 C 268.494 488.828969 267.02525 485.633656 265.470563 482.453969 C 263.915875 479.270375 262.27525 476.0985 260.622906 472.125844 C 258.970563 468.153187 257.314313 463.37975 255.861187 458.3485 C 254.408062 453.31725 253.161969 448.028187 251.740094 442.063344 C 250.318219 436.0985 248.716656 429.457875 247.513531 422.551625 C 246.314312 415.649281 245.509625 408.477406 245.0565 402.727406 C 244.603375 396.981312 244.501812 392.657094 244.494 388.383656 C 244.490094 384.106312 244.583844 379.87975 244.798687 376.024281 C 245.017437 372.168812 245.357281 368.680531 245.970562 364.200062 C 246.579937 359.7235 247.458844 354.246937 248.845562 348.321156 C 250.232281 342.391469 252.130719 336.012562 254.122906 330.512562 C 256.115094 325.016469 258.21275 320.399281 260.001813 316.793812 C 261.790875 313.188344 263.27525 310.586781 266.548688 306.153187 C 269.822125 301.719594 274.884625 295.446156 279.607281 290.207875 C 284.329938 284.969594 288.716656 280.762562 293.271344 276.993031 C 297.833844 273.2235 302.564313 269.891469 307.607281 266.69225 C 312.646344 263.489125 317.994 260.422719 322.576031 258.055531 C 327.158063 255.69225 330.974469 254.032094 335.548688 252.301625 C 340.126813 250.56725 345.454938 248.75475 350.8065 247.250844 C 356.154156 245.746937 361.517438 244.547719 367.158063 243.750844 C 372.794781 242.957875 378.704938 242.571156 383.423688 242.37975 C 388.146344 242.19225 391.677594 242.196156 396.415875 242.56725 C 401.15025 242.938344 407.091656 243.668812 412.341656 244.668812 C 417.58775 245.668812 422.146344 246.938344 426.986188 248.789906 C 431.826031 250.641469 436.947125 253.082875 440.947125 255.246937 C 444.951031 257.414906 447.83775 259.305531 450.783063 261.551625 C 453.728375 263.801625 456.736188 266.403187 459.494 269.250844 C 462.255719 272.094594 464.771344 275.180531 467.451031 279.325062 C 470.130719 283.469594 472.970563 288.676625 475.001813 292.969594 C 477.033063 297.258656 478.251813 300.633656 479.349469 304.559437 C 480.443219 308.485219 481.415875 312.957875 482.216656 318.828969 C 483.017438 324.700062 483.646344 331.969594 483.841656 338.860219 C 484.036969 345.750844 483.798688 352.262562 483.126813 359.610219 C 482.451031 366.957875 481.341656 375.137562 480.076031 382.825062 C 478.8065 390.512562 477.380719 397.703969 475.693219 404.735219 C 474.009625 411.770375 472.064313 418.649281 469.826031 425.926625 C 467.58775 433.203969 465.052594 440.87975 462.251813 449.305531 C 459.447125 457.731312 456.376813 466.903187 453.357281 475.977406 C 450.33775 485.047719 447.365094 494.020375 444.951031 501.496937 C 442.540875 508.9735 440.685406 514.950062 439.470563 518.887562 C 438.251813 522.821156 437.673688 524.715687 436.193219 530.12975 C 434.716656 535.543812 432.33775 544.481312 430.720563 551.446156 C 429.099469 558.411 428.236188 563.403187 427.619 568.883656 C 427.001813 574.360219 426.630719 580.321156 426.693219 585.282094 C 426.755719 590.243031 427.255719 594.203969 427.997906 597.606312 C 428.736188 601.008656 429.716656 603.8485 430.798688 605.797719 C 431.884625 607.746937 433.072125 608.801625 434.396344 609.532094 C 435.716656 610.266469 437.173688 610.676625 438.244 609.981312 C 439.318219 609.286 440.005719 607.489125 440.517438 604.871937 C 441.033063 602.25475 441.369 598.821156 441.208844 593.563344 C 441.048688 588.305531 440.388531 581.2235 439.576031 575.477406 C 438.767438 569.735219 437.802594 565.325062 435.954938 558.707875 C 434.103375 552.090687 431.369 543.262562 428.923688 536.250844 C 426.478375 529.243031 424.322125 524.051625 422.029156 518.94225 C 419.732281 513.832875 417.298688 508.801625 415.263531 504.676625 C 413.228375 500.551625 411.591656 497.328969 408.724469 491.727406 C 405.857281 486.125844 401.759625 478.137562 397.658063 470.211781 C 393.5565 462.289906 389.447125 454.430531 385.497906 447.258656 C 381.544781 440.082875 377.755719 433.5985 374.068219 427.703969 C 370.380719 421.809437 366.798688 416.50475 363.376813 411.262562 C 359.954938 406.016469 356.689313 400.828969 353.994 395.414906 C 351.298688 390.000844 349.173688 384.360219 347.927594 378.950062 C 346.677594 373.543812 346.310406 368.368031 346.454938 363.164906 C 346.595563 357.961781 347.255719 352.731312 348.71275 348.06725 C 350.165875 343.403187 352.419781 339.309437 355.478375 335.520375 C 358.540875 331.731312 362.404156 328.243031 366.451031 325.426625 C 370.497906 322.606312 374.728375 320.457875 378.939313 318.711781 C 383.146344 316.965687 387.341656 315.621937 391.189313 314.688344 C 395.040875 313.758656 398.552594 313.239125 403.329938 313.450062 C 408.111188 313.664906 414.158063 314.610219 419.111188 316.246937 C 424.064313 317.87975 427.919781 320.203969 431.091656 323.551625 C 434.263531 326.899281 436.751813 331.270375 438.361188 336.036 C 439.974469 340.805531 440.701031 345.969594 440.951031 351.258656 C 441.197125 356.547719 440.96275 361.965687 440.560406 366.875844 C 440.154156 371.789906 439.583844 376.19225 438.704938 381.141469 C 437.829938 386.090687 436.646344 391.582875 435.329938 396.590687 C 434.009625 401.594594 432.5565 406.118031 430.579938 411.961781 C 428.599469 417.809437 426.091656 424.9735 423.869 431.274281 C 421.646344 437.575062 419.704938 443.008656 417.490094 448.989125 C 415.27525 454.9735 412.783063 461.50475 409.08775 470.56725 C 405.392438 479.625844 400.494 491.215687 396.490094 500.4735 C 392.482281 509.735219 389.372906 516.664906 386.548688 522.87975 C 383.728375 529.094594 381.193219 534.5985 377.505719 542.571156 C 373.814313 550.543812 368.970563 560.985219 364.505719 570.69225 C 360.044781 580.399281 355.96275 589.375844 353.626813 594.524281 C 351.286969 599.676625 350.697125 601.00475 350.036969 602.50475 C 349.380719 604.008656 348.65025 605.684437 347.9315 607.227406 Z M 347.9315 607.227406 " transform="matrix(1,0,0,-1,-240.994,627.911)"/>
<path style="fill:none;stroke-width:12;stroke-linecap:butt;stroke-linejoin:round;stroke:rgb(0%,0%,0%);stroke-opacity:1;stroke-miterlimit:10;" d="M 393.966656 603.422719 C 392.951031 609.375844 391.634625 615.707875 389.783063 618.977406 C 387.9315 622.246937 385.548688 622.457875 383.21275 618.200062 C 380.880719 613.946156 378.595563 605.235219 375.02525 593.536 C 371.454938 581.836781 366.595563 567.153187 360.040875 549.899281 C 353.486188 532.645375 345.232281 512.821156 337.552594 495.946156 C 329.869 479.071156 322.759625 465.141469 316.091656 447.215687 C 309.423688 429.289906 303.201031 407.364125 301.888531 387.860219 C 300.576031 368.360219 304.173688 351.286 309.630719 336.641469 C 315.091656 322.000844 322.408063 309.786 332.33775 300.715687 C 342.267438 291.645375 354.802594 285.719594 369.845563 282.758656 C 384.888531 279.793812 402.439313 279.793812 417.369 283.782094 C 432.298688 287.770375 444.607281 295.750844 452.814313 308.286 C 461.017438 320.821156 465.122906 337.914906 463.638531 358.31725 C 462.158063 378.715687 455.091656 402.418812 448.310406 423.536 C 441.533063 444.653187 435.036969 463.184437 428.255719 482.250844 C 421.474469 501.31725 414.408063 520.918812 409.052594 538.356312 C 403.697125 555.789906 400.048688 571.063344 397.869 581.481312 C 395.689313 591.903187 394.978375 597.469594 393.966656 603.422719 Z M 393.966656 603.422719 " transform="matrix(1,0,0,-1,-240.994,627.911)"/>
<path style="fill:none;stroke-width:12;stroke-linecap:butt;stroke-linejoin:round;stroke:rgb(100%,100%,100%);stroke-opacity:1;stroke-miterlimit:10;" d="M 410.939313 465.989125 C 410.939313 465.989125 410.939313 465.989125 410.423688 467.262562 C 409.904156 468.532094 408.872906 471.075062 407.919781 473.395375 C 406.970563 475.711781 406.099469 477.809437 405.189313 479.989125 C 404.279156 482.168812 403.329938 484.426625 402.27525 486.918812 C 401.224469 489.411 400.064313 492.133656 399.486188 493.496937 C 398.904156 494.856312 398.904156 494.856312 398.904156 494.856312 " transform="matrix(1,0,0,-1,-240.994,627.911)"/>
<path style="fill:none;stroke-width:6;stroke-linecap:butt;stroke-linejoin:round;stroke:rgb(0%,0%,0%);stroke-opacity:1;stroke-miterlimit:10;" d="M 414.638531 456.56725 C 414.638531 456.56725 414.638531 456.56725 413.505719 459.407094 C 412.372906 462.250844 410.103375 467.934437 408.536969 471.821156 C 406.970563 475.711781 406.099469 477.809437 405.189313 479.989125 C 404.279156 482.168812 403.329938 484.426625 401.646344 488.383656 C 399.958844 492.336781 397.536969 497.985219 396.329938 500.809437 C 395.115094 503.637562 395.115094 503.637562 395.115094 503.637562 " transform="matrix(1,0,0,-1,-240.994,627.911)"/>
<path style="fill:none;stroke-width:18;stroke-linecap:butt;stroke-linejoin:round;stroke:rgb(100%,100%,100%);stroke-opacity:1;stroke-miterlimit:10;" d="M 425.259625 490.664906 C 425.259625 490.664906 425.259625 490.664906 424.853375 491.805531 C 424.447125 492.946156 423.638531 495.231312 422.579938 498.227406 C 421.521344 501.2235 420.216656 504.930531 418.736188 509.196156 C 417.259625 513.465687 415.607281 518.289906 414.408063 521.844594 C 413.204938 525.403187 412.454938 527.688344 412.076031 528.828969 C 411.701031 529.9735 411.701031 529.9735 411.701031 529.9735 " transform="matrix(1,0,0,-1,-240.994,627.911)"/>
<path style="fill:none;stroke-width:12;stroke-linecap:butt;stroke-linejoin:round;stroke:rgb(0%,0%,0%);stroke-opacity:1;stroke-miterlimit:10;" d="M 428.583844 481.332875 C 428.583844 481.332875 428.583844 481.332875 428.0565 482.813344 C 427.529156 484.297719 426.474469 487.258656 425.392438 490.301625 C 424.314313 493.344594 423.208844 496.465687 422.122906 499.532094 C 421.040875 502.602406 419.974469 505.621937 418.876813 508.782094 C 417.77525 511.94225 416.638531 515.246937 415.595563 518.309437 C 414.5565 521.375844 413.611188 524.196156 412.607281 527.266469 C 411.603375 530.336781 410.540875 533.649281 410.009625 535.309437 C 409.482281 536.969594 409.482281 536.969594 409.482281 536.969594 " transform="matrix(1,0,0,-1,-240.994,627.911)"/>
<path style="fill:none;stroke-width:12;stroke-linecap:butt;stroke-linejoin:round;stroke:rgb(100%,100%,100%);stroke-opacity:1;stroke-miterlimit:10;" d="M 436.697125 528.301625 C 436.697125 528.301625 436.697125 528.301625 436.236188 530.016469 C 435.77525 531.731312 434.853375 535.161 434.201031 537.614125 C 433.548688 540.06725 433.169781 541.543812 432.747906 543.207875 C 432.326031 544.871937 431.865094 546.7235 431.4315 548.532094 C 430.997906 550.344594 430.58775 552.114125 430.036969 554.871937 C 429.482281 557.625844 428.790875 561.371937 428.443219 563.243031 C 428.095563 565.114125 428.095563 565.114125 428.095563 565.114125 " transform="matrix(1,0,0,-1,-240.994,627.911)"/>
<path style="fill:none;stroke-width:6;stroke-linecap:butt;stroke-linejoin:round;stroke:rgb(0%,0%,0%);stroke-opacity:1;stroke-miterlimit:10;" d="M 439.833844 517.700062 C 439.833844 517.700062 439.833844 517.700062 439.349469 519.344594 C 438.861188 520.989125 437.892438 524.278187 437.115094 526.989125 C 436.341656 529.700062 435.763531 531.832875 435.076031 534.407094 C 434.388531 536.985219 433.58775 540.000844 432.958844 542.434437 C 432.326031 544.871937 431.865094 546.7235 431.392438 548.782094 C 430.915875 550.840687 430.427594 553.106312 429.923688 555.543812 C 429.419781 557.981312 428.896344 560.590687 428.451031 563.450062 C 428.001813 566.309437 427.626813 569.414906 427.439313 570.969594 C 427.251813 572.520375 427.251813 572.520375 427.251813 572.520375 " transform="matrix(1,0,0,-1,-240.994,627.911)"/>
<path style="fill:none;stroke-width:12;stroke-linecap:butt;stroke-linejoin:round;stroke:rgb(100%,100%,100%);stroke-opacity:1;stroke-miterlimit:10;" d="M 375.279156 547.37975 C 375.279156 547.37975 375.279156 547.37975 374.572125 548.903187 C 373.865094 550.430531 372.454938 553.477406 371.130719 556.340687 C 369.8065 559.200062 368.572125 561.875844 367.353375 564.512562 C 366.138531 567.153187 364.939313 569.750844 363.384625 573.149281 C 361.826031 576.547719 359.904156 580.739125 358.947125 582.836781 C 357.986188 584.934437 357.986188 584.934437 357.986188 584.934437 " transform="matrix(1,0,0,-1,-240.994,627.911)"/>
<path style="fill:none;stroke-width:6;stroke-linecap:butt;stroke-linejoin:round;stroke:rgb(0%,0%,0%);stroke-opacity:1;stroke-miterlimit:10;" d="M 378.595563 540.215687 C 378.595563 540.215687 378.595563 540.215687 377.673688 542.207875 C 376.751813 544.200062 374.908063 548.184437 373.029156 552.239125 C 371.154156 556.293812 369.244 560.422719 367.33775 564.56725 C 365.427594 568.711781 363.517438 572.871937 361.392438 577.512562 C 359.267438 582.153187 356.927594 587.274281 355.759625 589.836781 C 354.591656 592.395375 354.591656 592.395375 354.591656 592.395375 " transform="matrix(1,0,0,-1,-240.994,627.911)"/>
<g clip-path="url(#clip1)" clip-rule="nonzero">
<path style="fill:none;stroke-width:12;stroke-linecap:butt;stroke-linejoin:miter;stroke:rgb(0%,0%,0%);stroke-opacity:1;stroke-miterlimit:10;" d="M 380.96275 281.157094 C 380.96275 281.157094 380.96275 281.157094 381.849469 281.094594 C 382.736188 281.032094 384.513531 280.907094 386.716656 280.825062 C 388.919781 280.746937 391.552594 280.707875 392.869 280.688344 C 394.185406 280.672719 394.185406 280.672719 394.185406 280.672719 " transform="matrix(1,0,0,-1,-240.994,627.911)"/>
</g>
<path style=" stroke:none;fill-rule:evenodd;fill:rgb(0%,0%,0%);fill-opacity:1;" d="M 153.191406 347.238281 L 143.238281 343.769531 L 143.148438 350.429688 Z M 153.191406 347.238281 "/>
<g clip-path="url(#clip2)" clip-rule="nonzero">
<path style="fill:none;stroke-width:12;stroke-linecap:butt;stroke-linejoin:miter;stroke:rgb(0%,0%,0%);stroke-opacity:1;stroke-miterlimit:10;" d="M 394.185406 280.672719 L 384.232281 284.141469 L 384.142438 277.481312 Z M 394.185406 280.672719 " transform="matrix(1,0,0,-1,-240.994,627.911)"/>
</g>
<g clip-path="url(#clip3)" clip-rule="nonzero">
<path style="fill:none;stroke-width:6;stroke-linecap:butt;stroke-linejoin:miter;stroke:rgb(0%,0%,0%);stroke-opacity:1;stroke-miterlimit:10;" d="M 384.533063 316.614125 C 384.533063 316.614125 384.533063 316.614125 385.419781 316.403187 C 386.302594 316.19225 388.072125 315.770375 389.997906 315.344594 C 391.919781 314.922719 393.997906 314.496937 395.036969 314.282094 C 396.076031 314.071156 396.076031 314.071156 396.076031 314.071156 " transform="matrix(1,0,0,-1,-240.994,627.911)"/>
</g>
<path style=" stroke:none;fill-rule:evenodd;fill:rgb(0%,0%,0%);fill-opacity:1;" d="M 155.082031 313.839844 L 145.949219 308.570312 L 144.617188 315.097656 Z M 155.082031 313.839844 "/>
<g clip-path="url(#clip4)" clip-rule="nonzero">
<path style="fill:none;stroke-width:6;stroke-linecap:butt;stroke-linejoin:miter;stroke:rgb(0%,0%,0%);stroke-opacity:1;stroke-miterlimit:10;" d="M 396.076031 314.071156 L 386.943219 319.340687 L 385.611188 312.813344 Z M 396.076031 314.071156 " transform="matrix(1,0,0,-1,-240.994,627.911)"/>
</g>
<g clip-path="url(#clip5)" clip-rule="nonzero">
<path style="fill:none;stroke-width:6;stroke-linecap:butt;stroke-linejoin:miter;stroke:rgb(0%,0%,0%);stroke-opacity:1;stroke-miterlimit:10;" d="M 383.240094 242.387562 L 388.224469 242.258656 L 391.716656 242.305531 " transform="matrix(1,0,0,-1,-240.994,627.911)"/>
</g>
<path style=" stroke:none;fill-rule:evenodd;fill:rgb(0%,0%,0%);fill-opacity:1;" d="M 150.722656 385.605469 L 140.683594 382.402344 L 140.765625 389.0625 Z M 150.722656 385.605469 "/>
<g clip-path="url(#clip6)" clip-rule="nonzero">
<path style="fill:none;stroke-width:6;stroke-linecap:butt;stroke-linejoin:miter;stroke:rgb(0%,0%,0%);stroke-opacity:1;stroke-miterlimit:10;" d="M 391.716656 242.305531 L 381.677594 245.508656 L 381.759625 238.8485 Z M 391.716656 242.305531 " transform="matrix(1,0,0,-1,-240.994,627.911)"/>
</g>
</g>
</svg>
