<?xml version="1.0" encoding="UTF-8"?>
<svg xmlns="http://www.w3.org/2000/svg" xmlns:xlink="http://www.w3.org/1999/xlink" width="284pt" height="130pt" viewBox="0 0 284 130" version="1.1">
<g id="surface35202">
<path style="fill:none;stroke-width:2;stroke-linecap:butt;stroke-linejoin:round;stroke:rgb(0%,0%,0%);stroke-opacity:1;stroke-miterlimit:10;" d="M 135.101562 204.671875 C 135.101562 204.671875 135.101562 204.671875 137.152344 207.328125 C 139.199219 209.984375 143.296875 215.292969 147.925781 219.996094 C 152.550781 224.699219 157.710938 228.796875 163.398438 231.601562 C 169.089844 234.410156 175.308594 235.925781 180.46875 233.726562 C 185.625 231.527344 189.722656 225.609375 189.265625 221.210938 C 188.8125 216.808594 183.804688 213.925781 181.300781 210.285156 C 178.800781 206.644531 178.800781 202.246094 181.832031 200.046875 C 184.867188 197.84375 190.9375 197.84375 196.625 200.121094 C 202.316406 202.398438 207.625 206.949219 210.28125 209.222656 C 212.9375 211.5 212.9375 211.5 212.9375 211.5 " transform="matrix(1,0,0,-1,-131,237)"/>
<path style="fill-rule:evenodd;fill:rgb(0%,0%,0%);fill-opacity:1;stroke-width:2;stroke-linecap:butt;stroke-linejoin:round;stroke:rgb(0%,0%,0%);stroke-opacity:1;stroke-miterlimit:10;" d="M 212.9375 211.5 L 206.105469 208.714844 L 209.136719 205.175781 Z M 212.9375 211.5 " transform="matrix(1,0,0,-1,-131,237)"/>
<path style="fill-rule:evenodd;fill:rgb(87.8%,87.8%,87.8%);fill-opacity:1;stroke-width:2;stroke-linecap:butt;stroke-linejoin:round;stroke:rgb(0%,0%,0%);stroke-opacity:1;stroke-miterlimit:10;" d="M 139.125 166.96875 C 132.523438 160.671875 129.945312 152.175781 137.453125 139.128906 C 144.964844 126.082031 162.5625 108.480469 183.578125 108.179688 C 204.589844 107.875 229.019531 124.867188 226.820312 139.964844 C 224.617188 155.058594 195.792969 168.257812 176.066406 172.8125 C 156.34375 177.363281 145.722656 173.265625 139.125 166.96875 Z M 139.125 166.96875 " transform="matrix(1,0,0,-1,-131,237)"/>
<path style="fill:none;stroke-width:0.8;stroke-linecap:butt;stroke-linejoin:round;stroke:rgb(0%,0%,0%);stroke-opacity:1;stroke-miterlimit:10;" d="M 157.703125 174.640625 C 157.703125 174.640625 157.703125 174.640625 155.902344 172.628906 C 154.097656 170.621094 150.492188 166.597656 147.96875 163.285156 C 145.449219 159.972656 144.015625 157.367188 142.132812 154.054688 C 140.253906 150.742188 137.925781 146.714844 136.761719 144.703125 C 135.597656 142.691406 135.597656 142.691406 135.597656 142.691406 " transform="matrix(1,0,0,-1,-131,237)"/>
<path style="fill:none;stroke-width:0.8;stroke-linecap:butt;stroke-linejoin:round;stroke:rgb(0%,0%,0%);stroke-opacity:1;stroke-miterlimit:10;" d="M 167.976562 174.273438 C 167.976562 174.273438 167.976562 174.273438 166.109375 171.847656 C 164.242188 169.417969 160.503906 164.5625 157.226562 159.902344 C 153.949219 155.242188 151.132812 150.78125 148.609375 146.304688 C 146.085938 141.828125 143.855469 137.335938 142.742188 135.089844 C 141.625 132.847656 141.625 132.847656 141.625 132.847656 " transform="matrix(1,0,0,-1,-131,237)"/>
<path style="fill:none;stroke-width:0.8;stroke-linecap:butt;stroke-linejoin:round;stroke:rgb(0%,0%,0%);stroke-opacity:1;stroke-miterlimit:10;" d="M 179.535156 171.945312 C 179.535156 171.945312 179.535156 171.945312 176.988281 168.980469 C 174.4375 166.011719 169.335938 160.082031 165.265625 154.460938 C 161.199219 148.839844 158.164062 143.527344 155.675781 138.535156 C 153.183594 133.539062 151.238281 128.855469 150.265625 126.515625 C 149.292969 124.175781 149.292969 124.175781 149.292969 124.175781 " transform="matrix(1,0,0,-1,-131,237)"/>
<path style="fill:none;stroke-width:0.8;stroke-linecap:butt;stroke-linejoin:round;stroke:rgb(0%,0%,0%);stroke-opacity:1;stroke-miterlimit:10;" d="M 190.761719 168.351562 C 190.761719 168.351562 190.761719 168.351562 188.085938 165.378906 C 185.40625 162.40625 180.054688 156.457031 175.9375 151.054688 C 171.820312 145.652344 168.9375 140.796875 166.308594 135.113281 C 163.679688 129.429688 161.300781 122.917969 160.113281 119.660156 C 158.925781 116.40625 158.925781 116.40625 158.925781 116.40625 " transform="matrix(1,0,0,-1,-131,237)"/>
<path style="fill:none;stroke-width:0.8;stroke-linecap:butt;stroke-linejoin:round;stroke:rgb(0%,0%,0%);stroke-opacity:1;stroke-miterlimit:10;" d="M 200.097656 164.453125 C 200.097656 164.453125 200.097656 164.453125 197.460938 161.371094 C 194.820312 158.285156 189.539062 152.121094 185.382812 146.382812 C 181.226562 140.644531 178.191406 135.335938 175.796875 129.476562 C 173.402344 123.617188 171.648438 117.207031 170.769531 114 C 169.894531 110.796875 169.894531 110.796875 169.894531 110.796875 " transform="matrix(1,0,0,-1,-131,237)"/>
<path style="fill:none;stroke-width:0.8;stroke-linecap:butt;stroke-linejoin:round;stroke:rgb(0%,0%,0%);stroke-opacity:1;stroke-miterlimit:10;" d="M 209.203125 159.640625 C 209.203125 159.640625 209.203125 159.640625 206.335938 156.070312 C 203.46875 152.5 197.734375 145.359375 193.726562 139.589844 C 189.722656 133.820312 187.445312 129.417969 185.53125 124.441406 C 183.617188 119.460938 182.066406 113.902344 181.289062 111.125 C 180.511719 108.34375 180.511719 108.34375 180.511719 108.34375 " transform="matrix(1,0,0,-1,-131,237)"/>
<path style="fill:none;stroke-width:0.8;stroke-linecap:butt;stroke-linejoin:round;stroke:rgb(0%,0%,0%);stroke-opacity:1;stroke-miterlimit:10;" d="M 216.90625 154.308594 C 216.90625 154.308594 216.90625 154.308594 214.578125 151.09375 C 212.246094 147.882812 207.585938 141.457031 203.964844 136.121094 C 200.34375 130.785156 197.765625 126.535156 195.8125 122.160156 C 193.855469 117.785156 192.527344 113.28125 191.863281 111.027344 C 191.199219 108.777344 191.199219 108.777344 191.199219 108.777344 " transform="matrix(1,0,0,-1,-131,237)"/>
<path style="fill:none;stroke-width:0.8;stroke-linecap:butt;stroke-linejoin:round;stroke:rgb(0%,0%,0%);stroke-opacity:1;stroke-miterlimit:10;" d="M 224.292969 146.386719 C 224.292969 146.386719 224.292969 146.386719 222.550781 144.265625 C 220.8125 142.148438 217.328125 137.90625 214.523438 134.117188 C 211.722656 130.328125 209.597656 126.992188 208.046875 123.53125 C 206.5 120.066406 205.523438 116.484375 205.035156 114.691406 C 204.546875 112.898438 204.546875 112.898438 204.546875 112.898438 " transform="matrix(1,0,0,-1,-131,237)"/>
<path style="fill:none;stroke-width:0.8;stroke-linecap:butt;stroke-linejoin:round;stroke:rgb(0%,0%,0%);stroke-opacity:1;stroke-miterlimit:10;" d="M 145.855469 171.664062 C 145.855469 171.664062 145.855469 171.664062 148.890625 171.191406 C 151.921875 170.71875 157.992188 169.769531 164.445312 168.070312 C 170.902344 166.371094 177.746094 163.917969 184.335938 161.222656 C 190.925781 158.523438 197.257812 155.582031 203.109375 152.132812 C 208.960938 148.679688 214.328125 144.722656 218.179688 141.839844 C 222.03125 138.957031 224.367188 137.152344 225.535156 136.253906 C 226.699219 135.351562 226.699219 135.351562 226.699219 135.351562 " transform="matrix(1,0,0,-1,-131,237)"/>
<path style="fill:none;stroke-width:0.8;stroke-linecap:butt;stroke-linejoin:round;stroke:rgb(0%,0%,0%);stroke-opacity:1;stroke-miterlimit:10;" d="M 139.34375 167.179688 C 139.34375 167.179688 139.34375 167.179688 144.179688 165.738281 C 149.011719 164.296875 158.675781 161.417969 166.765625 158.511719 C 174.859375 155.601562 181.375 152.667969 187.5625 149.296875 C 193.753906 145.929688 199.613281 142.128906 205.488281 138.398438 C 211.363281 134.671875 217.25 131.015625 220.191406 129.191406 C 223.136719 127.363281 223.136719 127.363281 223.136719 127.363281 " transform="matrix(1,0,0,-1,-131,237)"/>
<path style="fill:none;stroke-width:0.8;stroke-linecap:butt;stroke-linejoin:round;stroke:rgb(0%,0%,0%);stroke-opacity:1;stroke-miterlimit:10;" d="M 133.925781 159.4375 C 133.925781 159.4375 133.925781 159.4375 137.242188 158.460938 C 140.554688 157.480469 147.183594 155.527344 153.535156 153.210938 C 159.886719 150.894531 165.960938 148.214844 172.21875 145.289062 C 178.476562 142.363281 184.914062 139.1875 191.191406 136.066406 C 197.46875 132.941406 203.582031 129.867188 207.953125 127.40625 C 212.324219 124.941406 214.953125 123.085938 216.265625 122.160156 C 217.578125 121.230469 217.578125 121.230469 217.578125 121.230469 " transform="matrix(1,0,0,-1,-131,237)"/>
<path style="fill:none;stroke-width:0.8;stroke-linecap:butt;stroke-linejoin:round;stroke:rgb(0%,0%,0%);stroke-opacity:1;stroke-miterlimit:10;" d="M 133.242188 149.769531 C 133.242188 149.769531 133.242188 149.769531 135.769531 148.996094 C 138.296875 148.21875 143.351562 146.671875 148.9375 144.386719 C 154.519531 142.101562 160.636719 139.082031 167.054688 136.191406 C 173.472656 133.304688 180.195312 130.546875 186.722656 127.496094 C 193.25 124.441406 199.582031 121.09375 203.308594 119.019531 C 207.039062 116.941406 208.164062 116.132812 208.726562 115.730469 C 209.289062 115.328125 209.289062 115.328125 209.289062 115.328125 " transform="matrix(1,0,0,-1,-131,237)"/>
<path style="fill:none;stroke-width:0.8;stroke-linecap:butt;stroke-linejoin:round;stroke:rgb(0%,0%,0%);stroke-opacity:1;stroke-miterlimit:10;" d="M 139.542969 135.777344 C 139.542969 135.777344 139.542969 135.777344 143.332031 134.054688 C 147.121094 132.332031 154.695312 128.886719 161.933594 125.746094 C 169.171875 122.601562 176.070312 119.757812 181.707031 117.15625 C 187.339844 114.558594 191.707031 112.199219 193.894531 111.019531 C 196.078125 109.84375 196.078125 109.84375 196.078125 109.84375 " transform="matrix(1,0,0,-1,-131,237)"/>
<path style="fill:none;stroke-width:2;stroke-linecap:butt;stroke-linejoin:round;stroke:rgb(0%,0%,0%);stroke-opacity:1;stroke-miterlimit:10;" d="M 248 176 L 296 176 " transform="matrix(1,0,0,-1,-131,237)"/>
<path style="fill-rule:evenodd;fill:rgb(0%,0%,0%);fill-opacity:1;stroke-width:2;stroke-linecap:butt;stroke-linejoin:round;stroke:rgb(0%,0%,0%);stroke-opacity:1;stroke-miterlimit:10;" d="M 296 176 L 289 178.332031 L 289 173.667969 Z M 296 176 " transform="matrix(1,0,0,-1,-131,237)"/>
<path style="fill:none;stroke-width:2;stroke-linecap:butt;stroke-linejoin:round;stroke:rgb(0%,0%,0%);stroke-opacity:1;stroke-miterlimit:10;" d="M 320 208 L 328 212 " transform="matrix(1,0,0,-1,-131,237)"/>
<path style="fill-rule:evenodd;fill:rgb(0%,0%,0%);fill-opacity:1;stroke-width:2;stroke-linecap:butt;stroke-linejoin:round;stroke:rgb(0%,0%,0%);stroke-opacity:1;stroke-miterlimit:10;" d="M 328 212 L 324.871094 211.550781 L 325.761719 209.765625 Z M 328 212 " transform="matrix(1,0,0,-1,-131,237)"/>
<path style="fill:none;stroke-width:2;stroke-linecap:butt;stroke-linejoin:round;stroke:rgb(0%,0%,0%);stroke-opacity:1;stroke-miterlimit:10;" d="M 352 144 L 360 140 " transform="matrix(1,0,0,-1,-131,237)"/>
<path style="fill-rule:evenodd;fill:rgb(0%,0%,0%);fill-opacity:1;stroke-width:2;stroke-linecap:butt;stroke-linejoin:round;stroke:rgb(0%,0%,0%);stroke-opacity:1;stroke-miterlimit:10;" d="M 360 140 L 357.761719 142.234375 L 356.871094 140.449219 Z M 360 140 " transform="matrix(1,0,0,-1,-131,237)"/>
<path style="fill:none;stroke-width:2;stroke-linecap:butt;stroke-linejoin:round;stroke:rgb(0%,0%,0%);stroke-opacity:1;stroke-miterlimit:10;" d="M 384 176 L 388 184 " transform="matrix(1,0,0,-1,-131,237)"/>
<path style="fill-rule:evenodd;fill:rgb(0%,0%,0%);fill-opacity:1;stroke-width:2;stroke-linecap:butt;stroke-linejoin:round;stroke:rgb(0%,0%,0%);stroke-opacity:1;stroke-miterlimit:10;" d="M 388 184 L 385.765625 181.761719 L 387.550781 180.871094 Z M 388 184 " transform="matrix(1,0,0,-1,-131,237)"/>
<path style="fill:none;stroke-width:2;stroke-linecap:butt;stroke-linejoin:round;stroke:rgb(0%,0%,0%);stroke-opacity:1;stroke-miterlimit:10;" d="M 360 176 L 356 184 " transform="matrix(1,0,0,-1,-131,237)"/>
<path style="fill-rule:evenodd;fill:rgb(0%,0%,0%);fill-opacity:1;stroke-width:2;stroke-linecap:butt;stroke-linejoin:round;stroke:rgb(0%,0%,0%);stroke-opacity:1;stroke-miterlimit:10;" d="M 356 184 L 356.449219 180.871094 L 358.234375 181.761719 Z M 356 184 " transform="matrix(1,0,0,-1,-131,237)"/>
<path style="fill:none;stroke-width:2;stroke-linecap:butt;stroke-linejoin:round;stroke:rgb(0%,0%,0%);stroke-opacity:1;stroke-miterlimit:10;" d="M 376 208 L 368 212 " transform="matrix(1,0,0,-1,-131,237)"/>
<path style="fill-rule:evenodd;fill:rgb(0%,0%,0%);fill-opacity:1;stroke-width:2;stroke-linecap:butt;stroke-linejoin:round;stroke:rgb(0%,0%,0%);stroke-opacity:1;stroke-miterlimit:10;" d="M 368 212 L 370.238281 209.765625 L 371.128906 211.550781 Z M 368 212 " transform="matrix(1,0,0,-1,-131,237)"/>
<path style="fill:none;stroke-width:2;stroke-linecap:butt;stroke-linejoin:round;stroke:rgb(0%,0%,0%);stroke-opacity:1;stroke-miterlimit:10;" d="M 392 144 L 400 148 " transform="matrix(1,0,0,-1,-131,237)"/>
<path style="fill-rule:evenodd;fill:rgb(0%,0%,0%);fill-opacity:1;stroke-width:2;stroke-linecap:butt;stroke-linejoin:round;stroke:rgb(0%,0%,0%);stroke-opacity:1;stroke-miterlimit:10;" d="M 400 148 L 396.871094 147.550781 L 397.761719 145.765625 Z M 400 148 " transform="matrix(1,0,0,-1,-131,237)"/>
<path style="fill-rule:evenodd;fill:rgb(87.8%,87.8%,87.8%);fill-opacity:1;stroke-width:0.8;stroke-linecap:butt;stroke-linejoin:round;stroke:rgb(0%,0%,0%);stroke-opacity:1;stroke-miterlimit:10;" d="M 328 172 L 336 176 L 340 172 L 332 168 Z M 328 172 " transform="matrix(1,0,0,-1,-131,237)"/>
<path style="fill-rule:evenodd;fill:rgb(87.8%,87.8%,87.8%);fill-opacity:1;stroke-width:0.8;stroke-linecap:butt;stroke-linejoin:round;stroke:rgb(0%,0%,0%);stroke-opacity:1;stroke-miterlimit:10;" d="M 348 220 L 344 224 L 348 232 L 352 228 Z M 348 220 " transform="matrix(1,0,0,-1,-131,237)"/>
<path style="fill-rule:evenodd;fill:rgb(87.8%,87.8%,87.8%);fill-opacity:1;stroke-width:0.8;stroke-linecap:butt;stroke-linejoin:round;stroke:rgb(0%,0%,0%);stroke-opacity:1;stroke-miterlimit:10;" d="M 400 192 L 400 200 L 408 200 L 408 192 Z M 400 192 " transform="matrix(1,0,0,-1,-131,237)"/>
<path style="fill-rule:evenodd;fill:rgb(87.8%,87.8%,87.8%);fill-opacity:1;stroke-width:0.8;stroke-linecap:butt;stroke-linejoin:round;stroke:rgb(0%,0%,0%);stroke-opacity:1;stroke-miterlimit:10;" d="M 380 152 L 372 160 L 376 164 L 384 156 Z M 380 152 " transform="matrix(1,0,0,-1,-131,237)"/>
<path style="fill-rule:evenodd;fill:rgb(87.8%,87.8%,87.8%);fill-opacity:1;stroke-width:0.8;stroke-linecap:butt;stroke-linejoin:round;stroke:rgb(0%,0%,0%);stroke-opacity:1;stroke-miterlimit:10;" d="M 360 124 L 364 128 L 372 128 L 368 124 Z M 360 124 " transform="matrix(1,0,0,-1,-131,237)"/>
<path style=" stroke:none;fill-rule:evenodd;fill:rgb(0%,0%,0%);fill-opacity:1;" d="M 190.5 77 C 190.5 75 187.5 75 187.5 77 C 187.5 79 190.5 79 190.5 77 Z M 190.5 77 "/>
<path style=" stroke:none;fill-rule:evenodd;fill:rgb(0%,0%,0%);fill-opacity:1;" d="M 190.800781 77 C 190.800781 74.601562 187.199219 74.601562 187.199219 77 C 187.199219 79.398438 190.800781 79.398438 190.800781 77 Z M 190.199219 77 C 190.199219 75.398438 187.800781 75.398438 187.800781 77 C 187.800781 78.601562 190.199219 78.601562 190.199219 77 Z M 190.199219 77 "/>
<path style=" stroke:none;fill-rule:evenodd;fill:rgb(0%,0%,0%);fill-opacity:1;" d="M 202.5 101 C 202.5 99 199.5 99 199.5 101 C 199.5 103 202.5 103 202.5 101 Z M 202.5 101 "/>
<path style=" stroke:none;fill-rule:evenodd;fill:rgb(0%,0%,0%);fill-opacity:1;" d="M 202.800781 101 C 202.800781 98.601562 199.199219 98.601562 199.199219 101 C 199.199219 103.398438 202.800781 103.398438 202.800781 101 Z M 202.199219 101 C 202.199219 99.398438 199.800781 99.398438 199.800781 101 C 199.800781 102.601562 202.199219 102.601562 202.199219 101 Z M 202.199219 101 "/>
<path style=" stroke:none;fill-rule:evenodd;fill:rgb(0%,0%,0%);fill-opacity:1;" d="M 262.5 109 C 262.5 107 259.5 107 259.5 109 C 259.5 111 262.5 111 262.5 109 Z M 262.5 109 "/>
<path style=" stroke:none;fill-rule:evenodd;fill:rgb(0%,0%,0%);fill-opacity:1;" d="M 262.800781 109 C 262.800781 106.601562 259.199219 106.601562 259.199219 109 C 259.199219 111.398438 262.800781 111.398438 262.800781 109 Z M 262.199219 109 C 262.199219 107.398438 259.800781 107.398438 259.800781 109 C 259.800781 110.601562 262.199219 110.601562 262.199219 109 Z M 262.199219 109 "/>
<path style=" stroke:none;fill-rule:evenodd;fill:rgb(0%,0%,0%);fill-opacity:1;" d="M 282.5 69 C 282.5 67 279.5 67 279.5 69 C 279.5 71 282.5 71 282.5 69 Z M 282.5 69 "/>
<path style=" stroke:none;fill-rule:evenodd;fill:rgb(0%,0%,0%);fill-opacity:1;" d="M 282.800781 69 C 282.800781 66.601562 279.199219 66.601562 279.199219 69 C 279.199219 71.398438 282.800781 71.398438 282.800781 69 Z M 282.199219 69 C 282.199219 67.398438 279.800781 67.398438 279.800781 69 C 279.800781 70.601562 282.199219 70.601562 282.199219 69 Z M 282.199219 69 "/>
<path style=" stroke:none;fill-rule:evenodd;fill:rgb(0%,0%,0%);fill-opacity:1;" d="M 270.5 29 C 270.5 27 267.5 27 267.5 29 C 267.5 31 270.5 31 270.5 29 Z M 270.5 29 "/>
<path style=" stroke:none;fill-rule:evenodd;fill:rgb(0%,0%,0%);fill-opacity:1;" d="M 270.800781 29 C 270.800781 26.601562 267.199219 26.601562 267.199219 29 C 267.199219 31.398438 270.800781 31.398438 270.800781 29 Z M 270.199219 29 C 270.199219 27.398438 267.800781 27.398438 267.800781 29 C 267.800781 30.601562 270.199219 30.601562 270.199219 29 Z M 270.199219 29 "/>
<path style=" stroke:none;fill-rule:evenodd;fill:rgb(0%,0%,0%);fill-opacity:1;" d="M 222.5 37 C 222.5 35 219.5 35 219.5 37 C 219.5 39 222.5 39 222.5 37 Z M 222.5 37 "/>
<path style=" stroke:none;fill-rule:evenodd;fill:rgb(0%,0%,0%);fill-opacity:1;" d="M 222.800781 37 C 222.800781 34.601562 219.199219 34.601562 219.199219 37 C 219.199219 39.398438 222.800781 39.398438 222.800781 37 Z M 222.199219 37 C 222.199219 35.398438 219.800781 35.398438 219.800781 37 C 219.800781 38.601562 222.199219 38.601562 222.199219 37 Z M 222.199219 37 "/>
</g>
</svg>
