<?xml version="1.0" encoding="UTF-8"?>
<svg xmlns="http://www.w3.org/2000/svg" xmlns:xlink="http://www.w3.org/1999/xlink" width="291pt" height="38pt" viewBox="0 0 291 38" version="1.1">
<g id="surface54588">
<path style=" stroke:none;fill-rule:evenodd;fill:rgb(0%,0%,0%);fill-opacity:1;" d="M 4.800781 3 C 4.800781 0.601562 1.199219 0.601562 1.199219 3 C 1.199219 5.398438 4.800781 5.398438 4.800781 3 Z M 4.800781 3 "/>
<path style=" stroke:none;fill-rule:evenodd;fill:rgb(0%,0%,0%);fill-opacity:1;" d="M 36.800781 3 C 36.800781 0.601562 33.199219 0.601562 33.199219 3 C 33.199219 5.398438 36.800781 5.398438 36.800781 3 Z M 36.800781 3 "/>
<path style=" stroke:none;fill-rule:evenodd;fill:rgb(0%,0%,0%);fill-opacity:1;" d="M 68.800781 3 C 68.800781 0.601562 65.199219 0.601562 65.199219 3 C 65.199219 5.398438 68.800781 5.398438 68.800781 3 Z M 68.800781 3 "/>
<path style=" stroke:none;fill-rule:evenodd;fill:rgb(0%,0%,0%);fill-opacity:1;" d="M 100.800781 3 C 100.800781 0.601562 97.199219 0.601562 97.199219 3 C 97.199219 5.398438 100.800781 5.398438 100.800781 3 Z M 100.800781 3 "/>
<path style=" stroke:none;fill-rule:evenodd;fill:rgb(0%,0%,0%);fill-opacity:1;" d="M 132.800781 3 C 132.800781 0.601562 129.199219 0.601562 129.199219 3 C 129.199219 5.398438 132.800781 5.398438 132.800781 3 Z M 132.800781 3 "/>
<path style=" stroke:none;fill-rule:evenodd;fill:rgb(0%,0%,0%);fill-opacity:1;" d="M 164.800781 3 C 164.800781 0.601562 161.199219 0.601562 161.199219 3 C 161.199219 5.398438 164.800781 5.398438 164.800781 3 Z M 164.800781 3 "/>
<path style=" stroke:none;fill-rule:evenodd;fill:rgb(0%,0%,0%);fill-opacity:1;" d="M 196.800781 3 C 196.800781 0.601562 193.199219 0.601562 193.199219 3 C 193.199219 5.398438 196.800781 5.398438 196.800781 3 Z M 196.800781 3 "/>
<path style=" stroke:none;fill-rule:evenodd;fill:rgb(0%,0%,0%);fill-opacity:1;" d="M 228.800781 3 C 228.800781 0.601562 225.199219 0.601562 225.199219 3 C 225.199219 5.398438 228.800781 5.398438 228.800781 3 Z M 228.800781 3 "/>
<path style="fill:none;stroke-width:0.8;stroke-linecap:butt;stroke-linejoin:round;stroke:rgb(0%,0%,0%);stroke-opacity:1;stroke-miterlimit:10;" d="M 68 768 L 92 768 " transform="matrix(1,0,0,-1,-61,771)"/>
<path style="fill-rule:evenodd;fill:rgb(0%,0%,0%);fill-opacity:1;stroke-width:0.8;stroke-linecap:butt;stroke-linejoin:round;stroke:rgb(0%,0%,0%);stroke-opacity:1;stroke-miterlimit:10;" d="M 92 768 L 89 769 L 89 767 Z M 92 768 " transform="matrix(1,0,0,-1,-61,771)"/>
<path style="fill:none;stroke-width:0.8;stroke-linecap:butt;stroke-linejoin:round;stroke:rgb(0%,0%,0%);stroke-opacity:1;stroke-miterlimit:10;" d="M 100 768 L 124 768 " transform="matrix(1,0,0,-1,-61,771)"/>
<path style="fill-rule:evenodd;fill:rgb(0%,0%,0%);fill-opacity:1;stroke-width:0.8;stroke-linecap:butt;stroke-linejoin:round;stroke:rgb(0%,0%,0%);stroke-opacity:1;stroke-miterlimit:10;" d="M 124 768 L 121 769 L 121 767 Z M 124 768 " transform="matrix(1,0,0,-1,-61,771)"/>
<path style="fill:none;stroke-width:0.8;stroke-linecap:butt;stroke-linejoin:round;stroke:rgb(0%,0%,0%);stroke-opacity:1;stroke-miterlimit:10;" d="M 132 768 L 156 768 " transform="matrix(1,0,0,-1,-61,771)"/>
<path style="fill-rule:evenodd;fill:rgb(0%,0%,0%);fill-opacity:1;stroke-width:0.8;stroke-linecap:butt;stroke-linejoin:round;stroke:rgb(0%,0%,0%);stroke-opacity:1;stroke-miterlimit:10;" d="M 156 768 L 153 769 L 153 767 Z M 156 768 " transform="matrix(1,0,0,-1,-61,771)"/>
<path style="fill:none;stroke-width:0.8;stroke-linecap:butt;stroke-linejoin:round;stroke:rgb(0%,0%,0%);stroke-opacity:1;stroke-miterlimit:10;" d="M 164 768 L 188 768 " transform="matrix(1,0,0,-1,-61,771)"/>
<path style="fill-rule:evenodd;fill:rgb(0%,0%,0%);fill-opacity:1;stroke-width:0.8;stroke-linecap:butt;stroke-linejoin:round;stroke:rgb(0%,0%,0%);stroke-opacity:1;stroke-miterlimit:10;" d="M 188 768 L 185 769 L 185 767 Z M 188 768 " transform="matrix(1,0,0,-1,-61,771)"/>
<path style="fill:none;stroke-width:0.8;stroke-linecap:butt;stroke-linejoin:round;stroke:rgb(0%,0%,0%);stroke-opacity:1;stroke-miterlimit:10;" d="M 196 768 L 220 768 " transform="matrix(1,0,0,-1,-61,771)"/>
<path style="fill-rule:evenodd;fill:rgb(0%,0%,0%);fill-opacity:1;stroke-width:0.8;stroke-linecap:butt;stroke-linejoin:round;stroke:rgb(0%,0%,0%);stroke-opacity:1;stroke-miterlimit:10;" d="M 220 768 L 217 769 L 217 767 Z M 220 768 " transform="matrix(1,0,0,-1,-61,771)"/>
<path style="fill:none;stroke-width:0.8;stroke-linecap:butt;stroke-linejoin:round;stroke:rgb(0%,0%,0%);stroke-opacity:1;stroke-miterlimit:10;" d="M 228 768 L 252 768 " transform="matrix(1,0,0,-1,-61,771)"/>
<path style="fill-rule:evenodd;fill:rgb(0%,0%,0%);fill-opacity:1;stroke-width:0.8;stroke-linecap:butt;stroke-linejoin:round;stroke:rgb(0%,0%,0%);stroke-opacity:1;stroke-miterlimit:10;" d="M 252 768 L 249 769 L 249 767 Z M 252 768 " transform="matrix(1,0,0,-1,-61,771)"/>
<path style="fill:none;stroke-width:0.8;stroke-linecap:butt;stroke-linejoin:round;stroke:rgb(0%,0%,0%);stroke-opacity:1;stroke-miterlimit:10;" d="M 260 768 L 284 768 " transform="matrix(1,0,0,-1,-61,771)"/>
<path style="fill-rule:evenodd;fill:rgb(0%,0%,0%);fill-opacity:1;stroke-width:0.8;stroke-linecap:butt;stroke-linejoin:round;stroke:rgb(0%,0%,0%);stroke-opacity:1;stroke-miterlimit:10;" d="M 284 768 L 281 769 L 281 767 Z M 284 768 " transform="matrix(1,0,0,-1,-61,771)"/>
<path style="fill:none;stroke-width:0.8;stroke-linecap:butt;stroke-linejoin:round;stroke:rgb(0%,0%,0%);stroke-opacity:1;stroke-miterlimit:10;" d="M 292 768 L 316 768 " transform="matrix(1,0,0,-1,-61,771)"/>
<path style="fill-rule:evenodd;fill:rgb(0%,0%,0%);fill-opacity:1;stroke-width:0.8;stroke-linecap:butt;stroke-linejoin:round;stroke:rgb(0%,0%,0%);stroke-opacity:1;stroke-miterlimit:10;" d="M 316 768 L 313 769 L 313 767 Z M 316 768 " transform="matrix(1,0,0,-1,-61,771)"/>
<path style=" stroke:none;fill-rule:evenodd;fill:rgb(0%,0%,0%);fill-opacity:1;" d="M 4.800781 35 C 4.800781 32.601562 1.199219 32.601562 1.199219 35 C 1.199219 37.398438 4.800781 37.398438 4.800781 35 Z M 4.800781 35 "/>
<path style=" stroke:none;fill-rule:evenodd;fill:rgb(0%,0%,0%);fill-opacity:1;" d="M 36.800781 35 C 36.800781 32.601562 33.199219 32.601562 33.199219 35 C 33.199219 37.398438 36.800781 37.398438 36.800781 35 Z M 36.800781 35 "/>
<path style=" stroke:none;fill-rule:evenodd;fill:rgb(0%,0%,0%);fill-opacity:1;" d="M 68.800781 35 C 68.800781 32.601562 65.199219 32.601562 65.199219 35 C 65.199219 37.398438 68.800781 37.398438 68.800781 35 Z M 68.800781 35 "/>
<path style=" stroke:none;fill-rule:evenodd;fill:rgb(0%,0%,0%);fill-opacity:1;" d="M 100.800781 35 C 100.800781 32.601562 97.199219 32.601562 97.199219 35 C 97.199219 37.398438 100.800781 37.398438 100.800781 35 Z M 100.800781 35 "/>
<path style="fill:none;stroke-width:0.8;stroke-linecap:butt;stroke-linejoin:round;stroke:rgb(0%,0%,0%);stroke-opacity:1;stroke-miterlimit:10;" d="M 68 736 L 92 736 " transform="matrix(1,0,0,-1,-61,771)"/>
<path style="fill-rule:evenodd;fill:rgb(0%,0%,0%);fill-opacity:1;stroke-width:0.8;stroke-linecap:butt;stroke-linejoin:round;stroke:rgb(0%,0%,0%);stroke-opacity:1;stroke-miterlimit:10;" d="M 92 736 L 89 737 L 89 735 Z M 92 736 " transform="matrix(1,0,0,-1,-61,771)"/>
<path style="fill:none;stroke-width:0.8;stroke-linecap:butt;stroke-linejoin:round;stroke:rgb(0%,0%,0%);stroke-opacity:1;stroke-miterlimit:10;" d="M 100 736 L 124 736 " transform="matrix(1,0,0,-1,-61,771)"/>
<path style="fill-rule:evenodd;fill:rgb(0%,0%,0%);fill-opacity:1;stroke-width:0.8;stroke-linecap:butt;stroke-linejoin:round;stroke:rgb(0%,0%,0%);stroke-opacity:1;stroke-miterlimit:10;" d="M 124 736 L 121 737 L 121 735 Z M 124 736 " transform="matrix(1,0,0,-1,-61,771)"/>
<path style="fill:none;stroke-width:0.8;stroke-linecap:butt;stroke-linejoin:round;stroke:rgb(0%,0%,0%);stroke-opacity:1;stroke-miterlimit:10;" d="M 132 736 L 156 736 " transform="matrix(1,0,0,-1,-61,771)"/>
<path style="fill-rule:evenodd;fill:rgb(0%,0%,0%);fill-opacity:1;stroke-width:0.8;stroke-linecap:butt;stroke-linejoin:round;stroke:rgb(0%,0%,0%);stroke-opacity:1;stroke-miterlimit:10;" d="M 156 736 L 153 737 L 153 735 Z M 156 736 " transform="matrix(1,0,0,-1,-61,771)"/>
<path style="fill:none;stroke-width:0.8;stroke-linecap:butt;stroke-linejoin:round;stroke:rgb(0%,0%,0%);stroke-opacity:1;stroke-dasharray:4;stroke-miterlimit:10;" d="M 320 768 L 352 768 " transform="matrix(1,0,0,-1,-61,771)"/>
</g>
</svg>
