<?xml version="1.0" encoding="UTF-8"?>
<svg xmlns="http://www.w3.org/2000/svg" xmlns:xlink="http://www.w3.org/1999/xlink" width="101pt" height="5pt" viewBox="0 0 101 5" version="1.1">
<g id="surface1">
<path style=" stroke:none;fill-rule:evenodd;fill:rgb(0%,0%,0%);fill-opacity:1;" d="M 4.300781 2.5 C 4.300781 1.507812 3.492188 0.699219 2.5 0.699219 C 1.507812 0.699219 0.699219 1.507812 0.699219 2.5 C 0.699219 3.492188 1.507812 4.300781 2.5 4.300781 C 3.492188 4.300781 4.300781 3.492188 4.300781 2.5 "/>
<path style=" stroke:none;fill-rule:evenodd;fill:rgb(0%,0%,0%);fill-opacity:1;" d="M 36.300781 2.5 C 36.300781 1.507812 35.492188 0.699219 34.5 0.699219 C 33.507812 0.699219 32.699219 1.507812 32.699219 2.5 C 32.699219 3.492188 33.507812 4.300781 34.5 4.300781 C 35.492188 4.300781 36.300781 3.492188 36.300781 2.5 "/>
<path style=" stroke:none;fill-rule:evenodd;fill:rgb(0%,0%,0%);fill-opacity:1;" d="M 68.300781 2.5 C 68.300781 1.507812 67.492188 0.699219 66.5 0.699219 C 65.507812 0.699219 64.699219 1.507812 64.699219 2.5 C 64.699219 3.492188 65.507812 4.300781 66.5 4.300781 C 67.492188 4.300781 68.300781 3.492188 68.300781 2.5 "/>
<path style=" stroke:none;fill-rule:evenodd;fill:rgb(0%,0%,0%);fill-opacity:1;" d="M 100.300781 2.5 C 100.300781 1.507812 99.492188 0.699219 98.5 0.699219 C 97.507812 0.699219 96.699219 1.507812 96.699219 2.5 C 96.699219 3.492188 97.507812 4.300781 98.5 4.300781 C 99.492188 4.300781 100.300781 3.492188 100.300781 2.5 "/>
<path style="fill:none;stroke-width:0.8;stroke-linecap:butt;stroke-linejoin:round;stroke:rgb(0%,0%,0%);stroke-opacity:1;stroke-miterlimit:10;" d="M 68 704 L 92 704 " transform="matrix(1,0,0,-1,-61.5,706.5)"/>
<path style="fill-rule:evenodd;fill:rgb(0%,0%,0%);fill-opacity:1;stroke-width:0.8;stroke-linecap:butt;stroke-linejoin:round;stroke:rgb(0%,0%,0%);stroke-opacity:1;stroke-miterlimit:10;" d="M 92 704 L 89 705 L 89 703 Z M 92 704 " transform="matrix(1,0,0,-1,-61.5,706.5)"/>
<path style="fill:none;stroke-width:0.8;stroke-linecap:butt;stroke-linejoin:round;stroke:rgb(0%,0%,0%);stroke-opacity:1;stroke-miterlimit:10;" d="M 100 704 L 124 704 " transform="matrix(1,0,0,-1,-61.5,706.5)"/>
<path style="fill-rule:evenodd;fill:rgb(0%,0%,0%);fill-opacity:1;stroke-width:0.8;stroke-linecap:butt;stroke-linejoin:round;stroke:rgb(0%,0%,0%);stroke-opacity:1;stroke-miterlimit:10;" d="M 124 704 L 121 705 L 121 703 Z M 124 704 " transform="matrix(1,0,0,-1,-61.5,706.5)"/>
<path style="fill:none;stroke-width:0.8;stroke-linecap:butt;stroke-linejoin:round;stroke:rgb(0%,0%,0%);stroke-opacity:1;stroke-miterlimit:10;" d="M 132 704 L 156 704 " transform="matrix(1,0,0,-1,-61.5,706.5)"/>
<path style="fill-rule:evenodd;fill:rgb(0%,0%,0%);fill-opacity:1;stroke-width:0.8;stroke-linecap:butt;stroke-linejoin:round;stroke:rgb(0%,0%,0%);stroke-opacity:1;stroke-miterlimit:10;" d="M 156 704 L 153 705 L 153 703 Z M 156 704 " transform="matrix(1,0,0,-1,-61.5,706.5)"/>
</g>
</svg>
