<?xml version="1.0" encoding="UTF-8"?>
<svg xmlns="http://www.w3.org/2000/svg" xmlns:xlink="http://www.w3.org/1999/xlink" width="290.9pt" height="37pt" viewBox="0 0 290.9 37" version="1.1">
<defs>
<clipPath id="clip1">
  <path d="M 258 2 L 290.898438 2 L 290.898438 3 L 258 3 Z M 258 2 "/>
</clipPath>
</defs>
<g id="surface1">
<path style=" stroke:none;fill-rule:evenodd;fill:rgb(0%,0%,0%);fill-opacity:1;" d="M 4.300781 2.5 C 4.300781 1.507812 3.492188 0.699219 2.5 0.699219 C 1.507812 0.699219 0.699219 1.507812 0.699219 2.5 C 0.699219 3.492188 1.507812 4.300781 2.5 4.300781 C 3.492188 4.300781 4.300781 3.492188 4.300781 2.5 "/>
<path style=" stroke:none;fill-rule:evenodd;fill:rgb(0%,0%,0%);fill-opacity:1;" d="M 36.300781 2.5 C 36.300781 1.507812 35.492188 0.699219 34.5 0.699219 C 33.507812 0.699219 32.699219 1.507812 32.699219 2.5 C 32.699219 3.492188 33.507812 4.300781 34.5 4.300781 C 35.492188 4.300781 36.300781 3.492188 36.300781 2.5 "/>
<path style=" stroke:none;fill-rule:evenodd;fill:rgb(0%,0%,0%);fill-opacity:1;" d="M 68.300781 2.5 C 68.300781 1.507812 67.492188 0.699219 66.5 0.699219 C 65.507812 0.699219 64.699219 1.507812 64.699219 2.5 C 64.699219 3.492188 65.507812 4.300781 66.5 4.300781 C 67.492188 4.300781 68.300781 3.492188 68.300781 2.5 "/>
<path style=" stroke:none;fill-rule:evenodd;fill:rgb(0%,0%,0%);fill-opacity:1;" d="M 100.300781 2.5 C 100.300781 1.507812 99.492188 0.699219 98.5 0.699219 C 97.507812 0.699219 96.699219 1.507812 96.699219 2.5 C 96.699219 3.492188 97.507812 4.300781 98.5 4.300781 C 99.492188 4.300781 100.300781 3.492188 100.300781 2.5 "/>
<path style=" stroke:none;fill-rule:evenodd;fill:rgb(0%,0%,0%);fill-opacity:1;" d="M 132.300781 2.5 C 132.300781 1.507812 131.492188 0.699219 130.5 0.699219 C 129.507812 0.699219 128.699219 1.507812 128.699219 2.5 C 128.699219 3.492188 129.507812 4.300781 130.5 4.300781 C 131.492188 4.300781 132.300781 3.492188 132.300781 2.5 "/>
<path style=" stroke:none;fill-rule:evenodd;fill:rgb(0%,0%,0%);fill-opacity:1;" d="M 164.300781 2.5 C 164.300781 1.507812 163.492188 0.699219 162.5 0.699219 C 161.507812 0.699219 160.699219 1.507812 160.699219 2.5 C 160.699219 3.492188 161.507812 4.300781 162.5 4.300781 C 163.492188 4.300781 164.300781 3.492188 164.300781 2.5 "/>
<path style=" stroke:none;fill-rule:evenodd;fill:rgb(0%,0%,0%);fill-opacity:1;" d="M 196.300781 2.5 C 196.300781 1.507812 195.492188 0.699219 194.5 0.699219 C 193.507812 0.699219 192.699219 1.507812 192.699219 2.5 C 192.699219 3.492188 193.507812 4.300781 194.5 4.300781 C 195.492188 4.300781 196.300781 3.492188 196.300781 2.5 "/>
<path style=" stroke:none;fill-rule:evenodd;fill:rgb(0%,0%,0%);fill-opacity:1;" d="M 228.300781 2.5 C 228.300781 1.507812 227.492188 0.699219 226.5 0.699219 C 225.507812 0.699219 224.699219 1.507812 224.699219 2.5 C 224.699219 3.492188 225.507812 4.300781 226.5 4.300781 C 227.492188 4.300781 228.300781 3.492188 228.300781 2.5 "/>
<path style="fill:none;stroke-width:0.8;stroke-linecap:butt;stroke-linejoin:round;stroke:rgb(0%,0%,0%);stroke-opacity:1;stroke-miterlimit:10;" d="M 68 768 L 92 768 " transform="matrix(1,0,0,-1,-61.5,770.5)"/>
<path style="fill-rule:evenodd;fill:rgb(0%,0%,0%);fill-opacity:1;stroke-width:0.8;stroke-linecap:butt;stroke-linejoin:round;stroke:rgb(0%,0%,0%);stroke-opacity:1;stroke-miterlimit:10;" d="M 92 768 L 89 769 L 89 767 Z M 92 768 " transform="matrix(1,0,0,-1,-61.5,770.5)"/>
<path style="fill:none;stroke-width:0.8;stroke-linecap:butt;stroke-linejoin:round;stroke:rgb(0%,0%,0%);stroke-opacity:1;stroke-miterlimit:10;" d="M 100 768 L 124 768 " transform="matrix(1,0,0,-1,-61.5,770.5)"/>
<path style="fill-rule:evenodd;fill:rgb(0%,0%,0%);fill-opacity:1;stroke-width:0.8;stroke-linecap:butt;stroke-linejoin:round;stroke:rgb(0%,0%,0%);stroke-opacity:1;stroke-miterlimit:10;" d="M 124 768 L 121 769 L 121 767 Z M 124 768 " transform="matrix(1,0,0,-1,-61.5,770.5)"/>
<path style="fill:none;stroke-width:0.8;stroke-linecap:butt;stroke-linejoin:round;stroke:rgb(0%,0%,0%);stroke-opacity:1;stroke-miterlimit:10;" d="M 132 768 L 156 768 " transform="matrix(1,0,0,-1,-61.5,770.5)"/>
<path style="fill-rule:evenodd;fill:rgb(0%,0%,0%);fill-opacity:1;stroke-width:0.8;stroke-linecap:butt;stroke-linejoin:round;stroke:rgb(0%,0%,0%);stroke-opacity:1;stroke-miterlimit:10;" d="M 156 768 L 153 769 L 153 767 Z M 156 768 " transform="matrix(1,0,0,-1,-61.5,770.5)"/>
<path style="fill:none;stroke-width:0.8;stroke-linecap:butt;stroke-linejoin:round;stroke:rgb(0%,0%,0%);stroke-opacity:1;stroke-miterlimit:10;" d="M 164 768 L 188 768 " transform="matrix(1,0,0,-1,-61.5,770.5)"/>
<path style="fill-rule:evenodd;fill:rgb(0%,0%,0%);fill-opacity:1;stroke-width:0.8;stroke-linecap:butt;stroke-linejoin:round;stroke:rgb(0%,0%,0%);stroke-opacity:1;stroke-miterlimit:10;" d="M 188 768 L 185 769 L 185 767 Z M 188 768 " transform="matrix(1,0,0,-1,-61.5,770.5)"/>
<path style="fill:none;stroke-width:0.8;stroke-linecap:butt;stroke-linejoin:round;stroke:rgb(0%,0%,0%);stroke-opacity:1;stroke-miterlimit:10;" d="M 196 768 L 220 768 " transform="matrix(1,0,0,-1,-61.5,770.5)"/>
<path style="fill-rule:evenodd;fill:rgb(0%,0%,0%);fill-opacity:1;stroke-width:0.8;stroke-linecap:butt;stroke-linejoin:round;stroke:rgb(0%,0%,0%);stroke-opacity:1;stroke-miterlimit:10;" d="M 220 768 L 217 769 L 217 767 Z M 220 768 " transform="matrix(1,0,0,-1,-61.5,770.5)"/>
<path style="fill:none;stroke-width:0.8;stroke-linecap:butt;stroke-linejoin:round;stroke:rgb(0%,0%,0%);stroke-opacity:1;stroke-miterlimit:10;" d="M 228 768 L 252 768 " transform="matrix(1,0,0,-1,-61.5,770.5)"/>
<path style="fill-rule:evenodd;fill:rgb(0%,0%,0%);fill-opacity:1;stroke-width:0.8;stroke-linecap:butt;stroke-linejoin:round;stroke:rgb(0%,0%,0%);stroke-opacity:1;stroke-miterlimit:10;" d="M 252 768 L 249 769 L 249 767 Z M 252 768 " transform="matrix(1,0,0,-1,-61.5,770.5)"/>
<path style="fill:none;stroke-width:0.8;stroke-linecap:butt;stroke-linejoin:round;stroke:rgb(0%,0%,0%);stroke-opacity:1;stroke-miterlimit:10;" d="M 260 768 L 284 768 " transform="matrix(1,0,0,-1,-61.5,770.5)"/>
<path style="fill-rule:evenodd;fill:rgb(0%,0%,0%);fill-opacity:1;stroke-width:0.8;stroke-linecap:butt;stroke-linejoin:round;stroke:rgb(0%,0%,0%);stroke-opacity:1;stroke-miterlimit:10;" d="M 284 768 L 281 769 L 281 767 Z M 284 768 " transform="matrix(1,0,0,-1,-61.5,770.5)"/>
<path style="fill:none;stroke-width:0.8;stroke-linecap:butt;stroke-linejoin:round;stroke:rgb(0%,0%,0%);stroke-opacity:1;stroke-miterlimit:10;" d="M 292 768 L 316 768 " transform="matrix(1,0,0,-1,-61.5,770.5)"/>
<path style="fill-rule:evenodd;fill:rgb(0%,0%,0%);fill-opacity:1;stroke-width:0.8;stroke-linecap:butt;stroke-linejoin:round;stroke:rgb(0%,0%,0%);stroke-opacity:1;stroke-miterlimit:10;" d="M 316 768 L 313 769 L 313 767 Z M 316 768 " transform="matrix(1,0,0,-1,-61.5,770.5)"/>
<path style=" stroke:none;fill-rule:evenodd;fill:rgb(0%,0%,0%);fill-opacity:1;" d="M 4.300781 34.5 C 4.300781 33.507812 3.492188 32.699219 2.5 32.699219 C 1.507812 32.699219 0.699219 33.507812 0.699219 34.5 C 0.699219 35.492188 1.507812 36.300781 2.5 36.300781 C 3.492188 36.300781 4.300781 35.492188 4.300781 34.5 "/>
<path style=" stroke:none;fill-rule:evenodd;fill:rgb(0%,0%,0%);fill-opacity:1;" d="M 36.300781 34.5 C 36.300781 33.507812 35.492188 32.699219 34.5 32.699219 C 33.507812 32.699219 32.699219 33.507812 32.699219 34.5 C 32.699219 35.492188 33.507812 36.300781 34.5 36.300781 C 35.492188 36.300781 36.300781 35.492188 36.300781 34.5 "/>
<path style=" stroke:none;fill-rule:evenodd;fill:rgb(0%,0%,0%);fill-opacity:1;" d="M 68.300781 34.5 C 68.300781 33.507812 67.492188 32.699219 66.5 32.699219 C 65.507812 32.699219 64.699219 33.507812 64.699219 34.5 C 64.699219 35.492188 65.507812 36.300781 66.5 36.300781 C 67.492188 36.300781 68.300781 35.492188 68.300781 34.5 "/>
<path style=" stroke:none;fill-rule:evenodd;fill:rgb(0%,0%,0%);fill-opacity:1;" d="M 100.300781 34.5 C 100.300781 33.507812 99.492188 32.699219 98.5 32.699219 C 97.507812 32.699219 96.699219 33.507812 96.699219 34.5 C 96.699219 35.492188 97.507812 36.300781 98.5 36.300781 C 99.492188 36.300781 100.300781 35.492188 100.300781 34.5 "/>
<path style="fill:none;stroke-width:0.8;stroke-linecap:butt;stroke-linejoin:round;stroke:rgb(0%,0%,0%);stroke-opacity:1;stroke-miterlimit:10;" d="M 68 736 L 92 736 " transform="matrix(1,0,0,-1,-61.5,770.5)"/>
<path style="fill-rule:evenodd;fill:rgb(0%,0%,0%);fill-opacity:1;stroke-width:0.8;stroke-linecap:butt;stroke-linejoin:round;stroke:rgb(0%,0%,0%);stroke-opacity:1;stroke-miterlimit:10;" d="M 92 736 L 89 737 L 89 735 Z M 92 736 " transform="matrix(1,0,0,-1,-61.5,770.5)"/>
<path style="fill:none;stroke-width:0.8;stroke-linecap:butt;stroke-linejoin:round;stroke:rgb(0%,0%,0%);stroke-opacity:1;stroke-miterlimit:10;" d="M 100 736 L 124 736 " transform="matrix(1,0,0,-1,-61.5,770.5)"/>
<path style="fill-rule:evenodd;fill:rgb(0%,0%,0%);fill-opacity:1;stroke-width:0.8;stroke-linecap:butt;stroke-linejoin:round;stroke:rgb(0%,0%,0%);stroke-opacity:1;stroke-miterlimit:10;" d="M 124 736 L 121 737 L 121 735 Z M 124 736 " transform="matrix(1,0,0,-1,-61.5,770.5)"/>
<path style="fill:none;stroke-width:0.8;stroke-linecap:butt;stroke-linejoin:round;stroke:rgb(0%,0%,0%);stroke-opacity:1;stroke-miterlimit:10;" d="M 132 736 L 156 736 " transform="matrix(1,0,0,-1,-61.5,770.5)"/>
<path style="fill-rule:evenodd;fill:rgb(0%,0%,0%);fill-opacity:1;stroke-width:0.8;stroke-linecap:butt;stroke-linejoin:round;stroke:rgb(0%,0%,0%);stroke-opacity:1;stroke-miterlimit:10;" d="M 156 736 L 153 737 L 153 735 Z M 156 736 " transform="matrix(1,0,0,-1,-61.5,770.5)"/>
<g clip-path="url(#clip1)" clip-rule="nonzero">
<path style="fill:none;stroke-width:0.8;stroke-linecap:butt;stroke-linejoin:round;stroke:rgb(0%,0%,0%);stroke-opacity:1;stroke-dasharray:4;stroke-miterlimit:10;" d="M 320 768 L 352 768 " transform="matrix(1,0,0,-1,-61.5,770.5)"/>
</g>
</g>
</svg>
