<?xml version="1.0" encoding="UTF-8"?>
<svg xmlns="http://www.w3.org/2000/svg" xmlns:xlink="http://www.w3.org/1999/xlink" width="290.9pt" height="290.9pt" viewBox="0 0 290.9 290.9" version="1.1">
<defs>
<clipPath id="clip1">
  <path d="M 258 98 L 290.898438 98 L 290.898438 99 L 258 99 Z M 258 98 "/>
</clipPath>
<clipPath id="clip2">
  <path d="M 258 66 L 290.898438 66 L 290.898438 67 L 258 67 Z M 258 66 "/>
</clipPath>
<clipPath id="clip3">
  <path d="M 258 34 L 290.898438 34 L 290.898438 35 L 258 35 Z M 258 34 "/>
</clipPath>
<clipPath id="clip4">
  <path d="M 258 2 L 290.898438 2 L 290.898438 3 L 258 3 Z M 258 2 "/>
</clipPath>
<clipPath id="clip5">
  <path d="M 258 226 L 290.898438 226 L 290.898438 227 L 258 227 Z M 258 226 "/>
</clipPath>
<clipPath id="clip6">
  <path d="M 258 194 L 290.898438 194 L 290.898438 195 L 258 195 Z M 258 194 "/>
</clipPath>
<clipPath id="clip7">
  <path d="M 258 162 L 290.898438 162 L 290.898438 163 L 258 163 Z M 258 162 "/>
</clipPath>
<clipPath id="clip8">
  <path d="M 258 130 L 290.898438 130 L 290.898438 131 L 258 131 Z M 258 130 "/>
</clipPath>
<clipPath id="clip9">
  <path d="M 2 258 L 290.898438 258 L 290.898438 259 L 2 259 Z M 2 258 "/>
</clipPath>
<clipPath id="clip10">
  <path d="M 2 290 L 290.898438 290 L 290.898438 290.898438 L 2 290.898438 Z M 2 290 "/>
</clipPath>
</defs>
<g id="surface1">
<path style=" stroke:none;fill-rule:evenodd;fill:rgb(0%,0%,0%);fill-opacity:1;" d="M 4.300781 98.5 C 4.300781 97.507812 3.492188 96.699219 2.5 96.699219 C 1.507812 96.699219 0.699219 97.507812 0.699219 98.5 C 0.699219 99.492188 1.507812 100.300781 2.5 100.300781 C 3.492188 100.300781 4.300781 99.492188 4.300781 98.5 "/>
<path style=" stroke:none;fill-rule:evenodd;fill:rgb(0%,0%,0%);fill-opacity:1;" d="M 36.300781 98.5 C 36.300781 97.507812 35.492188 96.699219 34.5 96.699219 C 33.507812 96.699219 32.699219 97.507812 32.699219 98.5 C 32.699219 99.492188 33.507812 100.300781 34.5 100.300781 C 35.492188 100.300781 36.300781 99.492188 36.300781 98.5 "/>
<path style=" stroke:none;fill-rule:evenodd;fill:rgb(0%,0%,0%);fill-opacity:1;" d="M 68.300781 98.5 C 68.300781 97.507812 67.492188 96.699219 66.5 96.699219 C 65.507812 96.699219 64.699219 97.507812 64.699219 98.5 C 64.699219 99.492188 65.507812 100.300781 66.5 100.300781 C 67.492188 100.300781 68.300781 99.492188 68.300781 98.5 "/>
<path style=" stroke:none;fill-rule:evenodd;fill:rgb(0%,0%,0%);fill-opacity:1;" d="M 100.300781 98.5 C 100.300781 97.507812 99.492188 96.699219 98.5 96.699219 C 97.507812 96.699219 96.699219 97.507812 96.699219 98.5 C 96.699219 99.492188 97.507812 100.300781 98.5 100.300781 C 99.492188 100.300781 100.300781 99.492188 100.300781 98.5 "/>
<path style=" stroke:none;fill-rule:evenodd;fill:rgb(0%,0%,0%);fill-opacity:1;" d="M 132.300781 98.5 C 132.300781 97.507812 131.492188 96.699219 130.5 96.699219 C 129.507812 96.699219 128.699219 97.507812 128.699219 98.5 C 128.699219 99.492188 129.507812 100.300781 130.5 100.300781 C 131.492188 100.300781 132.300781 99.492188 132.300781 98.5 "/>
<path style=" stroke:none;fill-rule:evenodd;fill:rgb(0%,0%,0%);fill-opacity:1;" d="M 164.300781 98.5 C 164.300781 97.507812 163.492188 96.699219 162.5 96.699219 C 161.507812 96.699219 160.699219 97.507812 160.699219 98.5 C 160.699219 99.492188 161.507812 100.300781 162.5 100.300781 C 163.492188 100.300781 164.300781 99.492188 164.300781 98.5 "/>
<path style=" stroke:none;fill-rule:evenodd;fill:rgb(0%,0%,0%);fill-opacity:1;" d="M 196.300781 98.5 C 196.300781 97.507812 195.492188 96.699219 194.5 96.699219 C 193.507812 96.699219 192.699219 97.507812 192.699219 98.5 C 192.699219 99.492188 193.507812 100.300781 194.5 100.300781 C 195.492188 100.300781 196.300781 99.492188 196.300781 98.5 "/>
<path style=" stroke:none;fill-rule:evenodd;fill:rgb(0%,0%,0%);fill-opacity:1;" d="M 228.300781 98.5 C 228.300781 97.507812 227.492188 96.699219 226.5 96.699219 C 225.507812 96.699219 224.699219 97.507812 224.699219 98.5 C 224.699219 99.492188 225.507812 100.300781 226.5 100.300781 C 227.492188 100.300781 228.300781 99.492188 228.300781 98.5 "/>
<path style="fill:none;stroke-width:0.8;stroke-linecap:butt;stroke-linejoin:round;stroke:rgb(0%,0%,0%);stroke-opacity:1;stroke-miterlimit:10;" d="M 68 672 L 92 672 " transform="matrix(1,0,0,-1,-61.5,770.5)"/>
<path style="fill-rule:evenodd;fill:rgb(0%,0%,0%);fill-opacity:1;stroke-width:0.8;stroke-linecap:butt;stroke-linejoin:round;stroke:rgb(0%,0%,0%);stroke-opacity:1;stroke-miterlimit:10;" d="M 92 672 L 89 673 L 89 671 Z M 92 672 " transform="matrix(1,0,0,-1,-61.5,770.5)"/>
<path style="fill:none;stroke-width:0.8;stroke-linecap:butt;stroke-linejoin:round;stroke:rgb(0%,0%,0%);stroke-opacity:1;stroke-miterlimit:10;" d="M 100 672 L 124 672 " transform="matrix(1,0,0,-1,-61.5,770.5)"/>
<path style="fill-rule:evenodd;fill:rgb(0%,0%,0%);fill-opacity:1;stroke-width:0.8;stroke-linecap:butt;stroke-linejoin:round;stroke:rgb(0%,0%,0%);stroke-opacity:1;stroke-miterlimit:10;" d="M 124 672 L 121 673 L 121 671 Z M 124 672 " transform="matrix(1,0,0,-1,-61.5,770.5)"/>
<path style="fill:none;stroke-width:0.8;stroke-linecap:butt;stroke-linejoin:round;stroke:rgb(0%,0%,0%);stroke-opacity:1;stroke-miterlimit:10;" d="M 132 672 L 156 672 " transform="matrix(1,0,0,-1,-61.5,770.5)"/>
<path style="fill-rule:evenodd;fill:rgb(0%,0%,0%);fill-opacity:1;stroke-width:0.8;stroke-linecap:butt;stroke-linejoin:round;stroke:rgb(0%,0%,0%);stroke-opacity:1;stroke-miterlimit:10;" d="M 156 672 L 153 673 L 153 671 Z M 156 672 " transform="matrix(1,0,0,-1,-61.5,770.5)"/>
<path style="fill:none;stroke-width:0.8;stroke-linecap:butt;stroke-linejoin:round;stroke:rgb(0%,0%,0%);stroke-opacity:1;stroke-miterlimit:10;" d="M 164 672 L 188 672 " transform="matrix(1,0,0,-1,-61.5,770.5)"/>
<path style="fill-rule:evenodd;fill:rgb(0%,0%,0%);fill-opacity:1;stroke-width:0.8;stroke-linecap:butt;stroke-linejoin:round;stroke:rgb(0%,0%,0%);stroke-opacity:1;stroke-miterlimit:10;" d="M 188 672 L 185 673 L 185 671 Z M 188 672 " transform="matrix(1,0,0,-1,-61.5,770.5)"/>
<path style="fill:none;stroke-width:0.8;stroke-linecap:butt;stroke-linejoin:round;stroke:rgb(0%,0%,0%);stroke-opacity:1;stroke-miterlimit:10;" d="M 196 672 L 220 672 " transform="matrix(1,0,0,-1,-61.5,770.5)"/>
<path style="fill-rule:evenodd;fill:rgb(0%,0%,0%);fill-opacity:1;stroke-width:0.8;stroke-linecap:butt;stroke-linejoin:round;stroke:rgb(0%,0%,0%);stroke-opacity:1;stroke-miterlimit:10;" d="M 220 672 L 217 673 L 217 671 Z M 220 672 " transform="matrix(1,0,0,-1,-61.5,770.5)"/>
<path style="fill:none;stroke-width:0.8;stroke-linecap:butt;stroke-linejoin:round;stroke:rgb(0%,0%,0%);stroke-opacity:1;stroke-miterlimit:10;" d="M 228 672 L 252 672 " transform="matrix(1,0,0,-1,-61.5,770.5)"/>
<path style="fill-rule:evenodd;fill:rgb(0%,0%,0%);fill-opacity:1;stroke-width:0.8;stroke-linecap:butt;stroke-linejoin:round;stroke:rgb(0%,0%,0%);stroke-opacity:1;stroke-miterlimit:10;" d="M 252 672 L 249 673 L 249 671 Z M 252 672 " transform="matrix(1,0,0,-1,-61.5,770.5)"/>
<path style="fill:none;stroke-width:0.8;stroke-linecap:butt;stroke-linejoin:round;stroke:rgb(0%,0%,0%);stroke-opacity:1;stroke-miterlimit:10;" d="M 260 672 L 284 672 " transform="matrix(1,0,0,-1,-61.5,770.5)"/>
<path style="fill-rule:evenodd;fill:rgb(0%,0%,0%);fill-opacity:1;stroke-width:0.8;stroke-linecap:butt;stroke-linejoin:round;stroke:rgb(0%,0%,0%);stroke-opacity:1;stroke-miterlimit:10;" d="M 284 672 L 281 673 L 281 671 Z M 284 672 " transform="matrix(1,0,0,-1,-61.5,770.5)"/>
<path style="fill:none;stroke-width:0.8;stroke-linecap:butt;stroke-linejoin:round;stroke:rgb(0%,0%,0%);stroke-opacity:1;stroke-miterlimit:10;" d="M 292 672 L 316 672 " transform="matrix(1,0,0,-1,-61.5,770.5)"/>
<path style="fill-rule:evenodd;fill:rgb(0%,0%,0%);fill-opacity:1;stroke-width:0.8;stroke-linecap:butt;stroke-linejoin:round;stroke:rgb(0%,0%,0%);stroke-opacity:1;stroke-miterlimit:10;" d="M 316 672 L 313 673 L 313 671 Z M 316 672 " transform="matrix(1,0,0,-1,-61.5,770.5)"/>
<g clip-path="url(#clip1)" clip-rule="nonzero">
<path style="fill:none;stroke-width:0.8;stroke-linecap:butt;stroke-linejoin:round;stroke:rgb(0%,0%,0%);stroke-opacity:1;stroke-dasharray:4;stroke-miterlimit:10;" d="M 320 672 L 352 672 " transform="matrix(1,0,0,-1,-61.5,770.5)"/>
</g>
<path style=" stroke:none;fill-rule:evenodd;fill:rgb(0%,0%,0%);fill-opacity:1;" d="M 4.300781 66.5 C 4.300781 65.507812 3.492188 64.699219 2.5 64.699219 C 1.507812 64.699219 0.699219 65.507812 0.699219 66.5 C 0.699219 67.492188 1.507812 68.300781 2.5 68.300781 C 3.492188 68.300781 4.300781 67.492188 4.300781 66.5 "/>
<path style=" stroke:none;fill-rule:evenodd;fill:rgb(0%,0%,0%);fill-opacity:1;" d="M 36.300781 66.5 C 36.300781 65.507812 35.492188 64.699219 34.5 64.699219 C 33.507812 64.699219 32.699219 65.507812 32.699219 66.5 C 32.699219 67.492188 33.507812 68.300781 34.5 68.300781 C 35.492188 68.300781 36.300781 67.492188 36.300781 66.5 "/>
<path style=" stroke:none;fill-rule:evenodd;fill:rgb(0%,0%,0%);fill-opacity:1;" d="M 68.300781 66.5 C 68.300781 65.507812 67.492188 64.699219 66.5 64.699219 C 65.507812 64.699219 64.699219 65.507812 64.699219 66.5 C 64.699219 67.492188 65.507812 68.300781 66.5 68.300781 C 67.492188 68.300781 68.300781 67.492188 68.300781 66.5 "/>
<path style=" stroke:none;fill-rule:evenodd;fill:rgb(0%,0%,0%);fill-opacity:1;" d="M 100.300781 66.5 C 100.300781 65.507812 99.492188 64.699219 98.5 64.699219 C 97.507812 64.699219 96.699219 65.507812 96.699219 66.5 C 96.699219 67.492188 97.507812 68.300781 98.5 68.300781 C 99.492188 68.300781 100.300781 67.492188 100.300781 66.5 "/>
<path style=" stroke:none;fill-rule:evenodd;fill:rgb(0%,0%,0%);fill-opacity:1;" d="M 132.300781 66.5 C 132.300781 65.507812 131.492188 64.699219 130.5 64.699219 C 129.507812 64.699219 128.699219 65.507812 128.699219 66.5 C 128.699219 67.492188 129.507812 68.300781 130.5 68.300781 C 131.492188 68.300781 132.300781 67.492188 132.300781 66.5 "/>
<path style=" stroke:none;fill-rule:evenodd;fill:rgb(0%,0%,0%);fill-opacity:1;" d="M 164.300781 66.5 C 164.300781 65.507812 163.492188 64.699219 162.5 64.699219 C 161.507812 64.699219 160.699219 65.507812 160.699219 66.5 C 160.699219 67.492188 161.507812 68.300781 162.5 68.300781 C 163.492188 68.300781 164.300781 67.492188 164.300781 66.5 "/>
<path style=" stroke:none;fill-rule:evenodd;fill:rgb(0%,0%,0%);fill-opacity:1;" d="M 196.300781 66.5 C 196.300781 65.507812 195.492188 64.699219 194.5 64.699219 C 193.507812 64.699219 192.699219 65.507812 192.699219 66.5 C 192.699219 67.492188 193.507812 68.300781 194.5 68.300781 C 195.492188 68.300781 196.300781 67.492188 196.300781 66.5 "/>
<path style=" stroke:none;fill-rule:evenodd;fill:rgb(0%,0%,0%);fill-opacity:1;" d="M 228.300781 66.5 C 228.300781 65.507812 227.492188 64.699219 226.5 64.699219 C 225.507812 64.699219 224.699219 65.507812 224.699219 66.5 C 224.699219 67.492188 225.507812 68.300781 226.5 68.300781 C 227.492188 68.300781 228.300781 67.492188 228.300781 66.5 "/>
<path style="fill:none;stroke-width:0.8;stroke-linecap:butt;stroke-linejoin:round;stroke:rgb(0%,0%,0%);stroke-opacity:1;stroke-miterlimit:10;" d="M 68 704 L 92 704 " transform="matrix(1,0,0,-1,-61.5,770.5)"/>
<path style="fill-rule:evenodd;fill:rgb(0%,0%,0%);fill-opacity:1;stroke-width:0.8;stroke-linecap:butt;stroke-linejoin:round;stroke:rgb(0%,0%,0%);stroke-opacity:1;stroke-miterlimit:10;" d="M 92 704 L 89 705 L 89 703 Z M 92 704 " transform="matrix(1,0,0,-1,-61.5,770.5)"/>
<path style="fill:none;stroke-width:0.8;stroke-linecap:butt;stroke-linejoin:round;stroke:rgb(0%,0%,0%);stroke-opacity:1;stroke-miterlimit:10;" d="M 100 704 L 124 704 " transform="matrix(1,0,0,-1,-61.5,770.5)"/>
<path style="fill-rule:evenodd;fill:rgb(0%,0%,0%);fill-opacity:1;stroke-width:0.8;stroke-linecap:butt;stroke-linejoin:round;stroke:rgb(0%,0%,0%);stroke-opacity:1;stroke-miterlimit:10;" d="M 124 704 L 121 705 L 121 703 Z M 124 704 " transform="matrix(1,0,0,-1,-61.5,770.5)"/>
<path style="fill:none;stroke-width:0.8;stroke-linecap:butt;stroke-linejoin:round;stroke:rgb(0%,0%,0%);stroke-opacity:1;stroke-miterlimit:10;" d="M 132 704 L 156 704 " transform="matrix(1,0,0,-1,-61.5,770.5)"/>
<path style="fill-rule:evenodd;fill:rgb(0%,0%,0%);fill-opacity:1;stroke-width:0.8;stroke-linecap:butt;stroke-linejoin:round;stroke:rgb(0%,0%,0%);stroke-opacity:1;stroke-miterlimit:10;" d="M 156 704 L 153 705 L 153 703 Z M 156 704 " transform="matrix(1,0,0,-1,-61.5,770.5)"/>
<path style="fill:none;stroke-width:0.8;stroke-linecap:butt;stroke-linejoin:round;stroke:rgb(0%,0%,0%);stroke-opacity:1;stroke-miterlimit:10;" d="M 164 704 L 188 704 " transform="matrix(1,0,0,-1,-61.5,770.5)"/>
<path style="fill-rule:evenodd;fill:rgb(0%,0%,0%);fill-opacity:1;stroke-width:0.8;stroke-linecap:butt;stroke-linejoin:round;stroke:rgb(0%,0%,0%);stroke-opacity:1;stroke-miterlimit:10;" d="M 188 704 L 185 705 L 185 703 Z M 188 704 " transform="matrix(1,0,0,-1,-61.5,770.5)"/>
<path style="fill:none;stroke-width:0.8;stroke-linecap:butt;stroke-linejoin:round;stroke:rgb(0%,0%,0%);stroke-opacity:1;stroke-miterlimit:10;" d="M 196 704 L 220 704 " transform="matrix(1,0,0,-1,-61.5,770.5)"/>
<path style="fill-rule:evenodd;fill:rgb(0%,0%,0%);fill-opacity:1;stroke-width:0.8;stroke-linecap:butt;stroke-linejoin:round;stroke:rgb(0%,0%,0%);stroke-opacity:1;stroke-miterlimit:10;" d="M 220 704 L 217 705 L 217 703 Z M 220 704 " transform="matrix(1,0,0,-1,-61.5,770.5)"/>
<path style="fill:none;stroke-width:0.8;stroke-linecap:butt;stroke-linejoin:round;stroke:rgb(0%,0%,0%);stroke-opacity:1;stroke-miterlimit:10;" d="M 228 704 L 252 704 " transform="matrix(1,0,0,-1,-61.5,770.5)"/>
<path style="fill-rule:evenodd;fill:rgb(0%,0%,0%);fill-opacity:1;stroke-width:0.8;stroke-linecap:butt;stroke-linejoin:round;stroke:rgb(0%,0%,0%);stroke-opacity:1;stroke-miterlimit:10;" d="M 252 704 L 249 705 L 249 703 Z M 252 704 " transform="matrix(1,0,0,-1,-61.5,770.5)"/>
<path style="fill:none;stroke-width:0.8;stroke-linecap:butt;stroke-linejoin:round;stroke:rgb(0%,0%,0%);stroke-opacity:1;stroke-miterlimit:10;" d="M 260 704 L 284 704 " transform="matrix(1,0,0,-1,-61.5,770.5)"/>
<path style="fill-rule:evenodd;fill:rgb(0%,0%,0%);fill-opacity:1;stroke-width:0.8;stroke-linecap:butt;stroke-linejoin:round;stroke:rgb(0%,0%,0%);stroke-opacity:1;stroke-miterlimit:10;" d="M 284 704 L 281 705 L 281 703 Z M 284 704 " transform="matrix(1,0,0,-1,-61.5,770.5)"/>
<path style="fill:none;stroke-width:0.8;stroke-linecap:butt;stroke-linejoin:round;stroke:rgb(0%,0%,0%);stroke-opacity:1;stroke-miterlimit:10;" d="M 292 704 L 316 704 " transform="matrix(1,0,0,-1,-61.5,770.5)"/>
<path style="fill-rule:evenodd;fill:rgb(0%,0%,0%);fill-opacity:1;stroke-width:0.8;stroke-linecap:butt;stroke-linejoin:round;stroke:rgb(0%,0%,0%);stroke-opacity:1;stroke-miterlimit:10;" d="M 316 704 L 313 705 L 313 703 Z M 316 704 " transform="matrix(1,0,0,-1,-61.5,770.5)"/>
<g clip-path="url(#clip2)" clip-rule="nonzero">
<path style="fill:none;stroke-width:0.8;stroke-linecap:butt;stroke-linejoin:round;stroke:rgb(0%,0%,0%);stroke-opacity:1;stroke-dasharray:4;stroke-miterlimit:10;" d="M 320 704 L 352 704 " transform="matrix(1,0,0,-1,-61.5,770.5)"/>
</g>
<path style=" stroke:none;fill-rule:evenodd;fill:rgb(0%,0%,0%);fill-opacity:1;" d="M 4.300781 34.5 C 4.300781 33.507812 3.492188 32.699219 2.5 32.699219 C 1.507812 32.699219 0.699219 33.507812 0.699219 34.5 C 0.699219 35.492188 1.507812 36.300781 2.5 36.300781 C 3.492188 36.300781 4.300781 35.492188 4.300781 34.5 "/>
<path style=" stroke:none;fill-rule:evenodd;fill:rgb(0%,0%,0%);fill-opacity:1;" d="M 36.300781 34.5 C 36.300781 33.507812 35.492188 32.699219 34.5 32.699219 C 33.507812 32.699219 32.699219 33.507812 32.699219 34.5 C 32.699219 35.492188 33.507812 36.300781 34.5 36.300781 C 35.492188 36.300781 36.300781 35.492188 36.300781 34.5 "/>
<path style=" stroke:none;fill-rule:evenodd;fill:rgb(0%,0%,0%);fill-opacity:1;" d="M 68.300781 34.5 C 68.300781 33.507812 67.492188 32.699219 66.5 32.699219 C 65.507812 32.699219 64.699219 33.507812 64.699219 34.5 C 64.699219 35.492188 65.507812 36.300781 66.5 36.300781 C 67.492188 36.300781 68.300781 35.492188 68.300781 34.5 "/>
<path style=" stroke:none;fill-rule:evenodd;fill:rgb(0%,0%,0%);fill-opacity:1;" d="M 100.300781 34.5 C 100.300781 33.507812 99.492188 32.699219 98.5 32.699219 C 97.507812 32.699219 96.699219 33.507812 96.699219 34.5 C 96.699219 35.492188 97.507812 36.300781 98.5 36.300781 C 99.492188 36.300781 100.300781 35.492188 100.300781 34.5 "/>
<path style=" stroke:none;fill-rule:evenodd;fill:rgb(0%,0%,0%);fill-opacity:1;" d="M 132.300781 34.5 C 132.300781 33.507812 131.492188 32.699219 130.5 32.699219 C 129.507812 32.699219 128.699219 33.507812 128.699219 34.5 C 128.699219 35.492188 129.507812 36.300781 130.5 36.300781 C 131.492188 36.300781 132.300781 35.492188 132.300781 34.5 "/>
<path style=" stroke:none;fill-rule:evenodd;fill:rgb(0%,0%,0%);fill-opacity:1;" d="M 164.300781 34.5 C 164.300781 33.507812 163.492188 32.699219 162.5 32.699219 C 161.507812 32.699219 160.699219 33.507812 160.699219 34.5 C 160.699219 35.492188 161.507812 36.300781 162.5 36.300781 C 163.492188 36.300781 164.300781 35.492188 164.300781 34.5 "/>
<path style=" stroke:none;fill-rule:evenodd;fill:rgb(0%,0%,0%);fill-opacity:1;" d="M 196.300781 34.5 C 196.300781 33.507812 195.492188 32.699219 194.5 32.699219 C 193.507812 32.699219 192.699219 33.507812 192.699219 34.5 C 192.699219 35.492188 193.507812 36.300781 194.5 36.300781 C 195.492188 36.300781 196.300781 35.492188 196.300781 34.5 "/>
<path style=" stroke:none;fill-rule:evenodd;fill:rgb(0%,0%,0%);fill-opacity:1;" d="M 228.300781 34.5 C 228.300781 33.507812 227.492188 32.699219 226.5 32.699219 C 225.507812 32.699219 224.699219 33.507812 224.699219 34.5 C 224.699219 35.492188 225.507812 36.300781 226.5 36.300781 C 227.492188 36.300781 228.300781 35.492188 228.300781 34.5 "/>
<path style="fill:none;stroke-width:0.8;stroke-linecap:butt;stroke-linejoin:round;stroke:rgb(0%,0%,0%);stroke-opacity:1;stroke-miterlimit:10;" d="M 68 736 L 92 736 " transform="matrix(1,0,0,-1,-61.5,770.5)"/>
<path style="fill-rule:evenodd;fill:rgb(0%,0%,0%);fill-opacity:1;stroke-width:0.8;stroke-linecap:butt;stroke-linejoin:round;stroke:rgb(0%,0%,0%);stroke-opacity:1;stroke-miterlimit:10;" d="M 92 736 L 89 737 L 89 735 Z M 92 736 " transform="matrix(1,0,0,-1,-61.5,770.5)"/>
<path style="fill:none;stroke-width:0.8;stroke-linecap:butt;stroke-linejoin:round;stroke:rgb(0%,0%,0%);stroke-opacity:1;stroke-miterlimit:10;" d="M 100 736 L 124 736 " transform="matrix(1,0,0,-1,-61.5,770.5)"/>
<path style="fill-rule:evenodd;fill:rgb(0%,0%,0%);fill-opacity:1;stroke-width:0.8;stroke-linecap:butt;stroke-linejoin:round;stroke:rgb(0%,0%,0%);stroke-opacity:1;stroke-miterlimit:10;" d="M 124 736 L 121 737 L 121 735 Z M 124 736 " transform="matrix(1,0,0,-1,-61.5,770.5)"/>
<path style="fill:none;stroke-width:0.8;stroke-linecap:butt;stroke-linejoin:round;stroke:rgb(0%,0%,0%);stroke-opacity:1;stroke-miterlimit:10;" d="M 132 736 L 156 736 " transform="matrix(1,0,0,-1,-61.5,770.5)"/>
<path style="fill-rule:evenodd;fill:rgb(0%,0%,0%);fill-opacity:1;stroke-width:0.8;stroke-linecap:butt;stroke-linejoin:round;stroke:rgb(0%,0%,0%);stroke-opacity:1;stroke-miterlimit:10;" d="M 156 736 L 153 737 L 153 735 Z M 156 736 " transform="matrix(1,0,0,-1,-61.5,770.5)"/>
<path style="fill:none;stroke-width:0.8;stroke-linecap:butt;stroke-linejoin:round;stroke:rgb(0%,0%,0%);stroke-opacity:1;stroke-miterlimit:10;" d="M 164 736 L 188 736 " transform="matrix(1,0,0,-1,-61.5,770.5)"/>
<path style="fill-rule:evenodd;fill:rgb(0%,0%,0%);fill-opacity:1;stroke-width:0.8;stroke-linecap:butt;stroke-linejoin:round;stroke:rgb(0%,0%,0%);stroke-opacity:1;stroke-miterlimit:10;" d="M 188 736 L 185 737 L 185 735 Z M 188 736 " transform="matrix(1,0,0,-1,-61.5,770.5)"/>
<path style="fill:none;stroke-width:0.8;stroke-linecap:butt;stroke-linejoin:round;stroke:rgb(0%,0%,0%);stroke-opacity:1;stroke-miterlimit:10;" d="M 196 736 L 220 736 " transform="matrix(1,0,0,-1,-61.5,770.5)"/>
<path style="fill-rule:evenodd;fill:rgb(0%,0%,0%);fill-opacity:1;stroke-width:0.8;stroke-linecap:butt;stroke-linejoin:round;stroke:rgb(0%,0%,0%);stroke-opacity:1;stroke-miterlimit:10;" d="M 220 736 L 217 737 L 217 735 Z M 220 736 " transform="matrix(1,0,0,-1,-61.5,770.5)"/>
<path style="fill:none;stroke-width:0.8;stroke-linecap:butt;stroke-linejoin:round;stroke:rgb(0%,0%,0%);stroke-opacity:1;stroke-miterlimit:10;" d="M 228 736 L 252 736 " transform="matrix(1,0,0,-1,-61.5,770.5)"/>
<path style="fill-rule:evenodd;fill:rgb(0%,0%,0%);fill-opacity:1;stroke-width:0.8;stroke-linecap:butt;stroke-linejoin:round;stroke:rgb(0%,0%,0%);stroke-opacity:1;stroke-miterlimit:10;" d="M 252 736 L 249 737 L 249 735 Z M 252 736 " transform="matrix(1,0,0,-1,-61.5,770.5)"/>
<path style="fill:none;stroke-width:0.8;stroke-linecap:butt;stroke-linejoin:round;stroke:rgb(0%,0%,0%);stroke-opacity:1;stroke-miterlimit:10;" d="M 260 736 L 284 736 " transform="matrix(1,0,0,-1,-61.5,770.5)"/>
<path style="fill-rule:evenodd;fill:rgb(0%,0%,0%);fill-opacity:1;stroke-width:0.8;stroke-linecap:butt;stroke-linejoin:round;stroke:rgb(0%,0%,0%);stroke-opacity:1;stroke-miterlimit:10;" d="M 284 736 L 281 737 L 281 735 Z M 284 736 " transform="matrix(1,0,0,-1,-61.5,770.5)"/>
<path style="fill:none;stroke-width:0.8;stroke-linecap:butt;stroke-linejoin:round;stroke:rgb(0%,0%,0%);stroke-opacity:1;stroke-miterlimit:10;" d="M 292 736 L 316 736 " transform="matrix(1,0,0,-1,-61.5,770.5)"/>
<path style="fill-rule:evenodd;fill:rgb(0%,0%,0%);fill-opacity:1;stroke-width:0.8;stroke-linecap:butt;stroke-linejoin:round;stroke:rgb(0%,0%,0%);stroke-opacity:1;stroke-miterlimit:10;" d="M 316 736 L 313 737 L 313 735 Z M 316 736 " transform="matrix(1,0,0,-1,-61.5,770.5)"/>
<g clip-path="url(#clip3)" clip-rule="nonzero">
<path style="fill:none;stroke-width:0.8;stroke-linecap:butt;stroke-linejoin:round;stroke:rgb(0%,0%,0%);stroke-opacity:1;stroke-dasharray:4;stroke-miterlimit:10;" d="M 320 736 L 352 736 " transform="matrix(1,0,0,-1,-61.5,770.5)"/>
</g>
<path style=" stroke:none;fill-rule:evenodd;fill:rgb(0%,0%,0%);fill-opacity:1;" d="M 4.300781 2.5 C 4.300781 1.507812 3.492188 0.699219 2.5 0.699219 C 1.507812 0.699219 0.699219 1.507812 0.699219 2.5 C 0.699219 3.492188 1.507812 4.300781 2.5 4.300781 C 3.492188 4.300781 4.300781 3.492188 4.300781 2.5 "/>
<path style=" stroke:none;fill-rule:evenodd;fill:rgb(0%,0%,0%);fill-opacity:1;" d="M 36.300781 2.5 C 36.300781 1.507812 35.492188 0.699219 34.5 0.699219 C 33.507812 0.699219 32.699219 1.507812 32.699219 2.5 C 32.699219 3.492188 33.507812 4.300781 34.5 4.300781 C 35.492188 4.300781 36.300781 3.492188 36.300781 2.5 "/>
<path style=" stroke:none;fill-rule:evenodd;fill:rgb(0%,0%,0%);fill-opacity:1;" d="M 68.300781 2.5 C 68.300781 1.507812 67.492188 0.699219 66.5 0.699219 C 65.507812 0.699219 64.699219 1.507812 64.699219 2.5 C 64.699219 3.492188 65.507812 4.300781 66.5 4.300781 C 67.492188 4.300781 68.300781 3.492188 68.300781 2.5 "/>
<path style=" stroke:none;fill-rule:evenodd;fill:rgb(0%,0%,0%);fill-opacity:1;" d="M 100.300781 2.5 C 100.300781 1.507812 99.492188 0.699219 98.5 0.699219 C 97.507812 0.699219 96.699219 1.507812 96.699219 2.5 C 96.699219 3.492188 97.507812 4.300781 98.5 4.300781 C 99.492188 4.300781 100.300781 3.492188 100.300781 2.5 "/>
<path style=" stroke:none;fill-rule:evenodd;fill:rgb(0%,0%,0%);fill-opacity:1;" d="M 132.300781 2.5 C 132.300781 1.507812 131.492188 0.699219 130.5 0.699219 C 129.507812 0.699219 128.699219 1.507812 128.699219 2.5 C 128.699219 3.492188 129.507812 4.300781 130.5 4.300781 C 131.492188 4.300781 132.300781 3.492188 132.300781 2.5 "/>
<path style=" stroke:none;fill-rule:evenodd;fill:rgb(0%,0%,0%);fill-opacity:1;" d="M 164.300781 2.5 C 164.300781 1.507812 163.492188 0.699219 162.5 0.699219 C 161.507812 0.699219 160.699219 1.507812 160.699219 2.5 C 160.699219 3.492188 161.507812 4.300781 162.5 4.300781 C 163.492188 4.300781 164.300781 3.492188 164.300781 2.5 "/>
<path style=" stroke:none;fill-rule:evenodd;fill:rgb(0%,0%,0%);fill-opacity:1;" d="M 196.300781 2.5 C 196.300781 1.507812 195.492188 0.699219 194.5 0.699219 C 193.507812 0.699219 192.699219 1.507812 192.699219 2.5 C 192.699219 3.492188 193.507812 4.300781 194.5 4.300781 C 195.492188 4.300781 196.300781 3.492188 196.300781 2.5 "/>
<path style=" stroke:none;fill-rule:evenodd;fill:rgb(0%,0%,0%);fill-opacity:1;" d="M 228.300781 2.5 C 228.300781 1.507812 227.492188 0.699219 226.5 0.699219 C 225.507812 0.699219 224.699219 1.507812 224.699219 2.5 C 224.699219 3.492188 225.507812 4.300781 226.5 4.300781 C 227.492188 4.300781 228.300781 3.492188 228.300781 2.5 "/>
<path style="fill:none;stroke-width:0.8;stroke-linecap:butt;stroke-linejoin:round;stroke:rgb(0%,0%,0%);stroke-opacity:1;stroke-miterlimit:10;" d="M 68 768 L 92 768 " transform="matrix(1,0,0,-1,-61.5,770.5)"/>
<path style="fill-rule:evenodd;fill:rgb(0%,0%,0%);fill-opacity:1;stroke-width:0.8;stroke-linecap:butt;stroke-linejoin:round;stroke:rgb(0%,0%,0%);stroke-opacity:1;stroke-miterlimit:10;" d="M 92 768 L 89 769 L 89 767 Z M 92 768 " transform="matrix(1,0,0,-1,-61.5,770.5)"/>
<path style="fill:none;stroke-width:0.8;stroke-linecap:butt;stroke-linejoin:round;stroke:rgb(0%,0%,0%);stroke-opacity:1;stroke-miterlimit:10;" d="M 100 768 L 124 768 " transform="matrix(1,0,0,-1,-61.5,770.5)"/>
<path style="fill-rule:evenodd;fill:rgb(0%,0%,0%);fill-opacity:1;stroke-width:0.8;stroke-linecap:butt;stroke-linejoin:round;stroke:rgb(0%,0%,0%);stroke-opacity:1;stroke-miterlimit:10;" d="M 124 768 L 121 769 L 121 767 Z M 124 768 " transform="matrix(1,0,0,-1,-61.5,770.5)"/>
<path style="fill:none;stroke-width:0.8;stroke-linecap:butt;stroke-linejoin:round;stroke:rgb(0%,0%,0%);stroke-opacity:1;stroke-miterlimit:10;" d="M 132 768 L 156 768 " transform="matrix(1,0,0,-1,-61.5,770.5)"/>
<path style="fill-rule:evenodd;fill:rgb(0%,0%,0%);fill-opacity:1;stroke-width:0.8;stroke-linecap:butt;stroke-linejoin:round;stroke:rgb(0%,0%,0%);stroke-opacity:1;stroke-miterlimit:10;" d="M 156 768 L 153 769 L 153 767 Z M 156 768 " transform="matrix(1,0,0,-1,-61.5,770.5)"/>
<path style="fill:none;stroke-width:0.8;stroke-linecap:butt;stroke-linejoin:round;stroke:rgb(0%,0%,0%);stroke-opacity:1;stroke-miterlimit:10;" d="M 164 768 L 188 768 " transform="matrix(1,0,0,-1,-61.5,770.5)"/>
<path style="fill-rule:evenodd;fill:rgb(0%,0%,0%);fill-opacity:1;stroke-width:0.8;stroke-linecap:butt;stroke-linejoin:round;stroke:rgb(0%,0%,0%);stroke-opacity:1;stroke-miterlimit:10;" d="M 188 768 L 185 769 L 185 767 Z M 188 768 " transform="matrix(1,0,0,-1,-61.5,770.5)"/>
<path style="fill:none;stroke-width:0.8;stroke-linecap:butt;stroke-linejoin:round;stroke:rgb(0%,0%,0%);stroke-opacity:1;stroke-miterlimit:10;" d="M 196 768 L 220 768 " transform="matrix(1,0,0,-1,-61.5,770.5)"/>
<path style="fill-rule:evenodd;fill:rgb(0%,0%,0%);fill-opacity:1;stroke-width:0.8;stroke-linecap:butt;stroke-linejoin:round;stroke:rgb(0%,0%,0%);stroke-opacity:1;stroke-miterlimit:10;" d="M 220 768 L 217 769 L 217 767 Z M 220 768 " transform="matrix(1,0,0,-1,-61.5,770.5)"/>
<path style="fill:none;stroke-width:0.8;stroke-linecap:butt;stroke-linejoin:round;stroke:rgb(0%,0%,0%);stroke-opacity:1;stroke-miterlimit:10;" d="M 228 768 L 252 768 " transform="matrix(1,0,0,-1,-61.5,770.5)"/>
<path style="fill-rule:evenodd;fill:rgb(0%,0%,0%);fill-opacity:1;stroke-width:0.8;stroke-linecap:butt;stroke-linejoin:round;stroke:rgb(0%,0%,0%);stroke-opacity:1;stroke-miterlimit:10;" d="M 252 768 L 249 769 L 249 767 Z M 252 768 " transform="matrix(1,0,0,-1,-61.5,770.5)"/>
<path style="fill:none;stroke-width:0.8;stroke-linecap:butt;stroke-linejoin:round;stroke:rgb(0%,0%,0%);stroke-opacity:1;stroke-miterlimit:10;" d="M 260 768 L 284 768 " transform="matrix(1,0,0,-1,-61.5,770.5)"/>
<path style="fill-rule:evenodd;fill:rgb(0%,0%,0%);fill-opacity:1;stroke-width:0.8;stroke-linecap:butt;stroke-linejoin:round;stroke:rgb(0%,0%,0%);stroke-opacity:1;stroke-miterlimit:10;" d="M 284 768 L 281 769 L 281 767 Z M 284 768 " transform="matrix(1,0,0,-1,-61.5,770.5)"/>
<path style="fill:none;stroke-width:0.8;stroke-linecap:butt;stroke-linejoin:round;stroke:rgb(0%,0%,0%);stroke-opacity:1;stroke-miterlimit:10;" d="M 292 768 L 316 768 " transform="matrix(1,0,0,-1,-61.5,770.5)"/>
<path style="fill-rule:evenodd;fill:rgb(0%,0%,0%);fill-opacity:1;stroke-width:0.8;stroke-linecap:butt;stroke-linejoin:round;stroke:rgb(0%,0%,0%);stroke-opacity:1;stroke-miterlimit:10;" d="M 316 768 L 313 769 L 313 767 Z M 316 768 " transform="matrix(1,0,0,-1,-61.5,770.5)"/>
<g clip-path="url(#clip4)" clip-rule="nonzero">
<path style="fill:none;stroke-width:0.8;stroke-linecap:butt;stroke-linejoin:round;stroke:rgb(0%,0%,0%);stroke-opacity:1;stroke-dasharray:4;stroke-miterlimit:10;" d="M 320 768 L 352 768 " transform="matrix(1,0,0,-1,-61.5,770.5)"/>
</g>
<path style=" stroke:none;fill-rule:evenodd;fill:rgb(0%,0%,0%);fill-opacity:1;" d="M 4.300781 226.5 C 4.300781 225.507812 3.492188 224.699219 2.5 224.699219 C 1.507812 224.699219 0.699219 225.507812 0.699219 226.5 C 0.699219 227.492188 1.507812 228.300781 2.5 228.300781 C 3.492188 228.300781 4.300781 227.492188 4.300781 226.5 "/>
<path style=" stroke:none;fill-rule:evenodd;fill:rgb(0%,0%,0%);fill-opacity:1;" d="M 36.300781 226.5 C 36.300781 225.507812 35.492188 224.699219 34.5 224.699219 C 33.507812 224.699219 32.699219 225.507812 32.699219 226.5 C 32.699219 227.492188 33.507812 228.300781 34.5 228.300781 C 35.492188 228.300781 36.300781 227.492188 36.300781 226.5 "/>
<path style=" stroke:none;fill-rule:evenodd;fill:rgb(0%,0%,0%);fill-opacity:1;" d="M 68.300781 226.5 C 68.300781 225.507812 67.492188 224.699219 66.5 224.699219 C 65.507812 224.699219 64.699219 225.507812 64.699219 226.5 C 64.699219 227.492188 65.507812 228.300781 66.5 228.300781 C 67.492188 228.300781 68.300781 227.492188 68.300781 226.5 "/>
<path style=" stroke:none;fill-rule:evenodd;fill:rgb(0%,0%,0%);fill-opacity:1;" d="M 100.300781 226.5 C 100.300781 225.507812 99.492188 224.699219 98.5 224.699219 C 97.507812 224.699219 96.699219 225.507812 96.699219 226.5 C 96.699219 227.492188 97.507812 228.300781 98.5 228.300781 C 99.492188 228.300781 100.300781 227.492188 100.300781 226.5 "/>
<path style=" stroke:none;fill-rule:evenodd;fill:rgb(0%,0%,0%);fill-opacity:1;" d="M 132.300781 226.5 C 132.300781 225.507812 131.492188 224.699219 130.5 224.699219 C 129.507812 224.699219 128.699219 225.507812 128.699219 226.5 C 128.699219 227.492188 129.507812 228.300781 130.5 228.300781 C 131.492188 228.300781 132.300781 227.492188 132.300781 226.5 "/>
<path style=" stroke:none;fill-rule:evenodd;fill:rgb(0%,0%,0%);fill-opacity:1;" d="M 164.300781 226.5 C 164.300781 225.507812 163.492188 224.699219 162.5 224.699219 C 161.507812 224.699219 160.699219 225.507812 160.699219 226.5 C 160.699219 227.492188 161.507812 228.300781 162.5 228.300781 C 163.492188 228.300781 164.300781 227.492188 164.300781 226.5 "/>
<path style=" stroke:none;fill-rule:evenodd;fill:rgb(0%,0%,0%);fill-opacity:1;" d="M 196.300781 226.5 C 196.300781 225.507812 195.492188 224.699219 194.5 224.699219 C 193.507812 224.699219 192.699219 225.507812 192.699219 226.5 C 192.699219 227.492188 193.507812 228.300781 194.5 228.300781 C 195.492188 228.300781 196.300781 227.492188 196.300781 226.5 "/>
<path style=" stroke:none;fill-rule:evenodd;fill:rgb(0%,0%,0%);fill-opacity:1;" d="M 228.300781 226.5 C 228.300781 225.507812 227.492188 224.699219 226.5 224.699219 C 225.507812 224.699219 224.699219 225.507812 224.699219 226.5 C 224.699219 227.492188 225.507812 228.300781 226.5 228.300781 C 227.492188 228.300781 228.300781 227.492188 228.300781 226.5 "/>
<path style="fill:none;stroke-width:0.8;stroke-linecap:butt;stroke-linejoin:round;stroke:rgb(0%,0%,0%);stroke-opacity:1;stroke-miterlimit:10;" d="M 68 544 L 92 544 " transform="matrix(1,0,0,-1,-61.5,770.5)"/>
<path style="fill-rule:evenodd;fill:rgb(0%,0%,0%);fill-opacity:1;stroke-width:0.8;stroke-linecap:butt;stroke-linejoin:round;stroke:rgb(0%,0%,0%);stroke-opacity:1;stroke-miterlimit:10;" d="M 92 544 L 89 545 L 89 543 Z M 92 544 " transform="matrix(1,0,0,-1,-61.5,770.5)"/>
<path style="fill:none;stroke-width:0.8;stroke-linecap:butt;stroke-linejoin:round;stroke:rgb(0%,0%,0%);stroke-opacity:1;stroke-miterlimit:10;" d="M 100 544 L 124 544 " transform="matrix(1,0,0,-1,-61.5,770.5)"/>
<path style="fill-rule:evenodd;fill:rgb(0%,0%,0%);fill-opacity:1;stroke-width:0.8;stroke-linecap:butt;stroke-linejoin:round;stroke:rgb(0%,0%,0%);stroke-opacity:1;stroke-miterlimit:10;" d="M 124 544 L 121 545 L 121 543 Z M 124 544 " transform="matrix(1,0,0,-1,-61.5,770.5)"/>
<path style="fill:none;stroke-width:0.8;stroke-linecap:butt;stroke-linejoin:round;stroke:rgb(0%,0%,0%);stroke-opacity:1;stroke-miterlimit:10;" d="M 132 544 L 156 544 " transform="matrix(1,0,0,-1,-61.5,770.5)"/>
<path style="fill-rule:evenodd;fill:rgb(0%,0%,0%);fill-opacity:1;stroke-width:0.8;stroke-linecap:butt;stroke-linejoin:round;stroke:rgb(0%,0%,0%);stroke-opacity:1;stroke-miterlimit:10;" d="M 156 544 L 153 545 L 153 543 Z M 156 544 " transform="matrix(1,0,0,-1,-61.5,770.5)"/>
<path style="fill:none;stroke-width:0.8;stroke-linecap:butt;stroke-linejoin:round;stroke:rgb(0%,0%,0%);stroke-opacity:1;stroke-miterlimit:10;" d="M 164 544 L 188 544 " transform="matrix(1,0,0,-1,-61.5,770.5)"/>
<path style="fill-rule:evenodd;fill:rgb(0%,0%,0%);fill-opacity:1;stroke-width:0.8;stroke-linecap:butt;stroke-linejoin:round;stroke:rgb(0%,0%,0%);stroke-opacity:1;stroke-miterlimit:10;" d="M 188 544 L 185 545 L 185 543 Z M 188 544 " transform="matrix(1,0,0,-1,-61.5,770.5)"/>
<path style="fill:none;stroke-width:0.8;stroke-linecap:butt;stroke-linejoin:round;stroke:rgb(0%,0%,0%);stroke-opacity:1;stroke-miterlimit:10;" d="M 196 544 L 220 544 " transform="matrix(1,0,0,-1,-61.5,770.5)"/>
<path style="fill-rule:evenodd;fill:rgb(0%,0%,0%);fill-opacity:1;stroke-width:0.8;stroke-linecap:butt;stroke-linejoin:round;stroke:rgb(0%,0%,0%);stroke-opacity:1;stroke-miterlimit:10;" d="M 220 544 L 217 545 L 217 543 Z M 220 544 " transform="matrix(1,0,0,-1,-61.5,770.5)"/>
<path style="fill:none;stroke-width:0.8;stroke-linecap:butt;stroke-linejoin:round;stroke:rgb(0%,0%,0%);stroke-opacity:1;stroke-miterlimit:10;" d="M 228 544 L 252 544 " transform="matrix(1,0,0,-1,-61.5,770.5)"/>
<path style="fill-rule:evenodd;fill:rgb(0%,0%,0%);fill-opacity:1;stroke-width:0.8;stroke-linecap:butt;stroke-linejoin:round;stroke:rgb(0%,0%,0%);stroke-opacity:1;stroke-miterlimit:10;" d="M 252 544 L 249 545 L 249 543 Z M 252 544 " transform="matrix(1,0,0,-1,-61.5,770.5)"/>
<path style="fill:none;stroke-width:0.8;stroke-linecap:butt;stroke-linejoin:round;stroke:rgb(0%,0%,0%);stroke-opacity:1;stroke-miterlimit:10;" d="M 260 544 L 284 544 " transform="matrix(1,0,0,-1,-61.5,770.5)"/>
<path style="fill-rule:evenodd;fill:rgb(0%,0%,0%);fill-opacity:1;stroke-width:0.8;stroke-linecap:butt;stroke-linejoin:round;stroke:rgb(0%,0%,0%);stroke-opacity:1;stroke-miterlimit:10;" d="M 284 544 L 281 545 L 281 543 Z M 284 544 " transform="matrix(1,0,0,-1,-61.5,770.5)"/>
<path style="fill:none;stroke-width:0.8;stroke-linecap:butt;stroke-linejoin:round;stroke:rgb(0%,0%,0%);stroke-opacity:1;stroke-miterlimit:10;" d="M 292 544 L 316 544 " transform="matrix(1,0,0,-1,-61.5,770.5)"/>
<path style="fill-rule:evenodd;fill:rgb(0%,0%,0%);fill-opacity:1;stroke-width:0.8;stroke-linecap:butt;stroke-linejoin:round;stroke:rgb(0%,0%,0%);stroke-opacity:1;stroke-miterlimit:10;" d="M 316 544 L 313 545 L 313 543 Z M 316 544 " transform="matrix(1,0,0,-1,-61.5,770.5)"/>
<g clip-path="url(#clip5)" clip-rule="nonzero">
<path style="fill:none;stroke-width:0.8;stroke-linecap:butt;stroke-linejoin:round;stroke:rgb(0%,0%,0%);stroke-opacity:1;stroke-dasharray:4;stroke-miterlimit:10;" d="M 320 544 L 352 544 " transform="matrix(1,0,0,-1,-61.5,770.5)"/>
</g>
<path style=" stroke:none;fill-rule:evenodd;fill:rgb(0%,0%,0%);fill-opacity:1;" d="M 4.300781 194.5 C 4.300781 193.507812 3.492188 192.699219 2.5 192.699219 C 1.507812 192.699219 0.699219 193.507812 0.699219 194.5 C 0.699219 195.492188 1.507812 196.300781 2.5 196.300781 C 3.492188 196.300781 4.300781 195.492188 4.300781 194.5 "/>
<path style=" stroke:none;fill-rule:evenodd;fill:rgb(0%,0%,0%);fill-opacity:1;" d="M 36.300781 194.5 C 36.300781 193.507812 35.492188 192.699219 34.5 192.699219 C 33.507812 192.699219 32.699219 193.507812 32.699219 194.5 C 32.699219 195.492188 33.507812 196.300781 34.5 196.300781 C 35.492188 196.300781 36.300781 195.492188 36.300781 194.5 "/>
<path style=" stroke:none;fill-rule:evenodd;fill:rgb(0%,0%,0%);fill-opacity:1;" d="M 68.300781 194.5 C 68.300781 193.507812 67.492188 192.699219 66.5 192.699219 C 65.507812 192.699219 64.699219 193.507812 64.699219 194.5 C 64.699219 195.492188 65.507812 196.300781 66.5 196.300781 C 67.492188 196.300781 68.300781 195.492188 68.300781 194.5 "/>
<path style=" stroke:none;fill-rule:evenodd;fill:rgb(0%,0%,0%);fill-opacity:1;" d="M 100.300781 194.5 C 100.300781 193.507812 99.492188 192.699219 98.5 192.699219 C 97.507812 192.699219 96.699219 193.507812 96.699219 194.5 C 96.699219 195.492188 97.507812 196.300781 98.5 196.300781 C 99.492188 196.300781 100.300781 195.492188 100.300781 194.5 "/>
<path style=" stroke:none;fill-rule:evenodd;fill:rgb(0%,0%,0%);fill-opacity:1;" d="M 132.300781 194.5 C 132.300781 193.507812 131.492188 192.699219 130.5 192.699219 C 129.507812 192.699219 128.699219 193.507812 128.699219 194.5 C 128.699219 195.492188 129.507812 196.300781 130.5 196.300781 C 131.492188 196.300781 132.300781 195.492188 132.300781 194.5 "/>
<path style=" stroke:none;fill-rule:evenodd;fill:rgb(0%,0%,0%);fill-opacity:1;" d="M 164.300781 194.5 C 164.300781 193.507812 163.492188 192.699219 162.5 192.699219 C 161.507812 192.699219 160.699219 193.507812 160.699219 194.5 C 160.699219 195.492188 161.507812 196.300781 162.5 196.300781 C 163.492188 196.300781 164.300781 195.492188 164.300781 194.5 "/>
<path style=" stroke:none;fill-rule:evenodd;fill:rgb(0%,0%,0%);fill-opacity:1;" d="M 196.300781 194.5 C 196.300781 193.507812 195.492188 192.699219 194.5 192.699219 C 193.507812 192.699219 192.699219 193.507812 192.699219 194.5 C 192.699219 195.492188 193.507812 196.300781 194.5 196.300781 C 195.492188 196.300781 196.300781 195.492188 196.300781 194.5 "/>
<path style=" stroke:none;fill-rule:evenodd;fill:rgb(0%,0%,0%);fill-opacity:1;" d="M 228.300781 194.5 C 228.300781 193.507812 227.492188 192.699219 226.5 192.699219 C 225.507812 192.699219 224.699219 193.507812 224.699219 194.5 C 224.699219 195.492188 225.507812 196.300781 226.5 196.300781 C 227.492188 196.300781 228.300781 195.492188 228.300781 194.5 "/>
<path style="fill:none;stroke-width:0.8;stroke-linecap:butt;stroke-linejoin:round;stroke:rgb(0%,0%,0%);stroke-opacity:1;stroke-miterlimit:10;" d="M 68 576 L 92 576 " transform="matrix(1,0,0,-1,-61.5,770.5)"/>
<path style="fill-rule:evenodd;fill:rgb(0%,0%,0%);fill-opacity:1;stroke-width:0.8;stroke-linecap:butt;stroke-linejoin:round;stroke:rgb(0%,0%,0%);stroke-opacity:1;stroke-miterlimit:10;" d="M 92 576 L 89 577 L 89 575 Z M 92 576 " transform="matrix(1,0,0,-1,-61.5,770.5)"/>
<path style="fill:none;stroke-width:0.8;stroke-linecap:butt;stroke-linejoin:round;stroke:rgb(0%,0%,0%);stroke-opacity:1;stroke-miterlimit:10;" d="M 100 576 L 124 576 " transform="matrix(1,0,0,-1,-61.5,770.5)"/>
<path style="fill-rule:evenodd;fill:rgb(0%,0%,0%);fill-opacity:1;stroke-width:0.8;stroke-linecap:butt;stroke-linejoin:round;stroke:rgb(0%,0%,0%);stroke-opacity:1;stroke-miterlimit:10;" d="M 124 576 L 121 577 L 121 575 Z M 124 576 " transform="matrix(1,0,0,-1,-61.5,770.5)"/>
<path style="fill:none;stroke-width:0.8;stroke-linecap:butt;stroke-linejoin:round;stroke:rgb(0%,0%,0%);stroke-opacity:1;stroke-miterlimit:10;" d="M 132 576 L 156 576 " transform="matrix(1,0,0,-1,-61.5,770.5)"/>
<path style="fill-rule:evenodd;fill:rgb(0%,0%,0%);fill-opacity:1;stroke-width:0.8;stroke-linecap:butt;stroke-linejoin:round;stroke:rgb(0%,0%,0%);stroke-opacity:1;stroke-miterlimit:10;" d="M 156 576 L 153 577 L 153 575 Z M 156 576 " transform="matrix(1,0,0,-1,-61.5,770.5)"/>
<path style="fill:none;stroke-width:0.8;stroke-linecap:butt;stroke-linejoin:round;stroke:rgb(0%,0%,0%);stroke-opacity:1;stroke-miterlimit:10;" d="M 164 576 L 188 576 " transform="matrix(1,0,0,-1,-61.5,770.5)"/>
<path style="fill-rule:evenodd;fill:rgb(0%,0%,0%);fill-opacity:1;stroke-width:0.8;stroke-linecap:butt;stroke-linejoin:round;stroke:rgb(0%,0%,0%);stroke-opacity:1;stroke-miterlimit:10;" d="M 188 576 L 185 577 L 185 575 Z M 188 576 " transform="matrix(1,0,0,-1,-61.5,770.5)"/>
<path style="fill:none;stroke-width:0.8;stroke-linecap:butt;stroke-linejoin:round;stroke:rgb(0%,0%,0%);stroke-opacity:1;stroke-miterlimit:10;" d="M 196 576 L 220 576 " transform="matrix(1,0,0,-1,-61.5,770.5)"/>
<path style="fill-rule:evenodd;fill:rgb(0%,0%,0%);fill-opacity:1;stroke-width:0.8;stroke-linecap:butt;stroke-linejoin:round;stroke:rgb(0%,0%,0%);stroke-opacity:1;stroke-miterlimit:10;" d="M 220 576 L 217 577 L 217 575 Z M 220 576 " transform="matrix(1,0,0,-1,-61.5,770.5)"/>
<path style="fill:none;stroke-width:0.8;stroke-linecap:butt;stroke-linejoin:round;stroke:rgb(0%,0%,0%);stroke-opacity:1;stroke-miterlimit:10;" d="M 228 576 L 252 576 " transform="matrix(1,0,0,-1,-61.5,770.5)"/>
<path style="fill-rule:evenodd;fill:rgb(0%,0%,0%);fill-opacity:1;stroke-width:0.8;stroke-linecap:butt;stroke-linejoin:round;stroke:rgb(0%,0%,0%);stroke-opacity:1;stroke-miterlimit:10;" d="M 252 576 L 249 577 L 249 575 Z M 252 576 " transform="matrix(1,0,0,-1,-61.5,770.5)"/>
<path style="fill:none;stroke-width:0.8;stroke-linecap:butt;stroke-linejoin:round;stroke:rgb(0%,0%,0%);stroke-opacity:1;stroke-miterlimit:10;" d="M 260 576 L 284 576 " transform="matrix(1,0,0,-1,-61.5,770.5)"/>
<path style="fill-rule:evenodd;fill:rgb(0%,0%,0%);fill-opacity:1;stroke-width:0.8;stroke-linecap:butt;stroke-linejoin:round;stroke:rgb(0%,0%,0%);stroke-opacity:1;stroke-miterlimit:10;" d="M 284 576 L 281 577 L 281 575 Z M 284 576 " transform="matrix(1,0,0,-1,-61.5,770.5)"/>
<path style="fill:none;stroke-width:0.8;stroke-linecap:butt;stroke-linejoin:round;stroke:rgb(0%,0%,0%);stroke-opacity:1;stroke-miterlimit:10;" d="M 292 576 L 316 576 " transform="matrix(1,0,0,-1,-61.5,770.5)"/>
<path style="fill-rule:evenodd;fill:rgb(0%,0%,0%);fill-opacity:1;stroke-width:0.8;stroke-linecap:butt;stroke-linejoin:round;stroke:rgb(0%,0%,0%);stroke-opacity:1;stroke-miterlimit:10;" d="M 316 576 L 313 577 L 313 575 Z M 316 576 " transform="matrix(1,0,0,-1,-61.5,770.5)"/>
<g clip-path="url(#clip6)" clip-rule="nonzero">
<path style="fill:none;stroke-width:0.8;stroke-linecap:butt;stroke-linejoin:round;stroke:rgb(0%,0%,0%);stroke-opacity:1;stroke-dasharray:4;stroke-miterlimit:10;" d="M 320 576 L 352 576 " transform="matrix(1,0,0,-1,-61.5,770.5)"/>
</g>
<path style=" stroke:none;fill-rule:evenodd;fill:rgb(0%,0%,0%);fill-opacity:1;" d="M 4.300781 162.5 C 4.300781 161.507812 3.492188 160.699219 2.5 160.699219 C 1.507812 160.699219 0.699219 161.507812 0.699219 162.5 C 0.699219 163.492188 1.507812 164.300781 2.5 164.300781 C 3.492188 164.300781 4.300781 163.492188 4.300781 162.5 "/>
<path style=" stroke:none;fill-rule:evenodd;fill:rgb(0%,0%,0%);fill-opacity:1;" d="M 36.300781 162.5 C 36.300781 161.507812 35.492188 160.699219 34.5 160.699219 C 33.507812 160.699219 32.699219 161.507812 32.699219 162.5 C 32.699219 163.492188 33.507812 164.300781 34.5 164.300781 C 35.492188 164.300781 36.300781 163.492188 36.300781 162.5 "/>
<path style=" stroke:none;fill-rule:evenodd;fill:rgb(0%,0%,0%);fill-opacity:1;" d="M 68.300781 162.5 C 68.300781 161.507812 67.492188 160.699219 66.5 160.699219 C 65.507812 160.699219 64.699219 161.507812 64.699219 162.5 C 64.699219 163.492188 65.507812 164.300781 66.5 164.300781 C 67.492188 164.300781 68.300781 163.492188 68.300781 162.5 "/>
<path style=" stroke:none;fill-rule:evenodd;fill:rgb(0%,0%,0%);fill-opacity:1;" d="M 100.300781 162.5 C 100.300781 161.507812 99.492188 160.699219 98.5 160.699219 C 97.507812 160.699219 96.699219 161.507812 96.699219 162.5 C 96.699219 163.492188 97.507812 164.300781 98.5 164.300781 C 99.492188 164.300781 100.300781 163.492188 100.300781 162.5 "/>
<path style=" stroke:none;fill-rule:evenodd;fill:rgb(0%,0%,0%);fill-opacity:1;" d="M 132.300781 162.5 C 132.300781 161.507812 131.492188 160.699219 130.5 160.699219 C 129.507812 160.699219 128.699219 161.507812 128.699219 162.5 C 128.699219 163.492188 129.507812 164.300781 130.5 164.300781 C 131.492188 164.300781 132.300781 163.492188 132.300781 162.5 "/>
<path style=" stroke:none;fill-rule:evenodd;fill:rgb(0%,0%,0%);fill-opacity:1;" d="M 164.300781 162.5 C 164.300781 161.507812 163.492188 160.699219 162.5 160.699219 C 161.507812 160.699219 160.699219 161.507812 160.699219 162.5 C 160.699219 163.492188 161.507812 164.300781 162.5 164.300781 C 163.492188 164.300781 164.300781 163.492188 164.300781 162.5 "/>
<path style=" stroke:none;fill-rule:evenodd;fill:rgb(0%,0%,0%);fill-opacity:1;" d="M 196.300781 162.5 C 196.300781 161.507812 195.492188 160.699219 194.5 160.699219 C 193.507812 160.699219 192.699219 161.507812 192.699219 162.5 C 192.699219 163.492188 193.507812 164.300781 194.5 164.300781 C 195.492188 164.300781 196.300781 163.492188 196.300781 162.5 "/>
<path style=" stroke:none;fill-rule:evenodd;fill:rgb(0%,0%,0%);fill-opacity:1;" d="M 228.300781 162.5 C 228.300781 161.507812 227.492188 160.699219 226.5 160.699219 C 225.507812 160.699219 224.699219 161.507812 224.699219 162.5 C 224.699219 163.492188 225.507812 164.300781 226.5 164.300781 C 227.492188 164.300781 228.300781 163.492188 228.300781 162.5 "/>
<path style="fill:none;stroke-width:0.8;stroke-linecap:butt;stroke-linejoin:round;stroke:rgb(0%,0%,0%);stroke-opacity:1;stroke-miterlimit:10;" d="M 68 608 L 92 608 " transform="matrix(1,0,0,-1,-61.5,770.5)"/>
<path style="fill-rule:evenodd;fill:rgb(0%,0%,0%);fill-opacity:1;stroke-width:0.8;stroke-linecap:butt;stroke-linejoin:round;stroke:rgb(0%,0%,0%);stroke-opacity:1;stroke-miterlimit:10;" d="M 92 608 L 89 609 L 89 607 Z M 92 608 " transform="matrix(1,0,0,-1,-61.5,770.5)"/>
<path style="fill:none;stroke-width:0.8;stroke-linecap:butt;stroke-linejoin:round;stroke:rgb(0%,0%,0%);stroke-opacity:1;stroke-miterlimit:10;" d="M 100 608 L 124 608 " transform="matrix(1,0,0,-1,-61.5,770.5)"/>
<path style="fill-rule:evenodd;fill:rgb(0%,0%,0%);fill-opacity:1;stroke-width:0.8;stroke-linecap:butt;stroke-linejoin:round;stroke:rgb(0%,0%,0%);stroke-opacity:1;stroke-miterlimit:10;" d="M 124 608 L 121 609 L 121 607 Z M 124 608 " transform="matrix(1,0,0,-1,-61.5,770.5)"/>
<path style="fill:none;stroke-width:0.8;stroke-linecap:butt;stroke-linejoin:round;stroke:rgb(0%,0%,0%);stroke-opacity:1;stroke-miterlimit:10;" d="M 132 608 L 156 608 " transform="matrix(1,0,0,-1,-61.5,770.5)"/>
<path style="fill-rule:evenodd;fill:rgb(0%,0%,0%);fill-opacity:1;stroke-width:0.8;stroke-linecap:butt;stroke-linejoin:round;stroke:rgb(0%,0%,0%);stroke-opacity:1;stroke-miterlimit:10;" d="M 156 608 L 153 609 L 153 607 Z M 156 608 " transform="matrix(1,0,0,-1,-61.5,770.5)"/>
<path style="fill:none;stroke-width:0.8;stroke-linecap:butt;stroke-linejoin:round;stroke:rgb(0%,0%,0%);stroke-opacity:1;stroke-miterlimit:10;" d="M 164 608 L 188 608 " transform="matrix(1,0,0,-1,-61.5,770.5)"/>
<path style="fill-rule:evenodd;fill:rgb(0%,0%,0%);fill-opacity:1;stroke-width:0.8;stroke-linecap:butt;stroke-linejoin:round;stroke:rgb(0%,0%,0%);stroke-opacity:1;stroke-miterlimit:10;" d="M 188 608 L 185 609 L 185 607 Z M 188 608 " transform="matrix(1,0,0,-1,-61.5,770.5)"/>
<path style="fill:none;stroke-width:0.8;stroke-linecap:butt;stroke-linejoin:round;stroke:rgb(0%,0%,0%);stroke-opacity:1;stroke-miterlimit:10;" d="M 196 608 L 220 608 " transform="matrix(1,0,0,-1,-61.5,770.5)"/>
<path style="fill-rule:evenodd;fill:rgb(0%,0%,0%);fill-opacity:1;stroke-width:0.8;stroke-linecap:butt;stroke-linejoin:round;stroke:rgb(0%,0%,0%);stroke-opacity:1;stroke-miterlimit:10;" d="M 220 608 L 217 609 L 217 607 Z M 220 608 " transform="matrix(1,0,0,-1,-61.5,770.5)"/>
<path style="fill:none;stroke-width:0.8;stroke-linecap:butt;stroke-linejoin:round;stroke:rgb(0%,0%,0%);stroke-opacity:1;stroke-miterlimit:10;" d="M 228 608 L 252 608 " transform="matrix(1,0,0,-1,-61.5,770.5)"/>
<path style="fill-rule:evenodd;fill:rgb(0%,0%,0%);fill-opacity:1;stroke-width:0.8;stroke-linecap:butt;stroke-linejoin:round;stroke:rgb(0%,0%,0%);stroke-opacity:1;stroke-miterlimit:10;" d="M 252 608 L 249 609 L 249 607 Z M 252 608 " transform="matrix(1,0,0,-1,-61.5,770.5)"/>
<path style="fill:none;stroke-width:0.8;stroke-linecap:butt;stroke-linejoin:round;stroke:rgb(0%,0%,0%);stroke-opacity:1;stroke-miterlimit:10;" d="M 260 608 L 284 608 " transform="matrix(1,0,0,-1,-61.5,770.5)"/>
<path style="fill-rule:evenodd;fill:rgb(0%,0%,0%);fill-opacity:1;stroke-width:0.8;stroke-linecap:butt;stroke-linejoin:round;stroke:rgb(0%,0%,0%);stroke-opacity:1;stroke-miterlimit:10;" d="M 284 608 L 281 609 L 281 607 Z M 284 608 " transform="matrix(1,0,0,-1,-61.5,770.5)"/>
<path style="fill:none;stroke-width:0.8;stroke-linecap:butt;stroke-linejoin:round;stroke:rgb(0%,0%,0%);stroke-opacity:1;stroke-miterlimit:10;" d="M 292 608 L 316 608 " transform="matrix(1,0,0,-1,-61.5,770.5)"/>
<path style="fill-rule:evenodd;fill:rgb(0%,0%,0%);fill-opacity:1;stroke-width:0.8;stroke-linecap:butt;stroke-linejoin:round;stroke:rgb(0%,0%,0%);stroke-opacity:1;stroke-miterlimit:10;" d="M 316 608 L 313 609 L 313 607 Z M 316 608 " transform="matrix(1,0,0,-1,-61.5,770.5)"/>
<g clip-path="url(#clip7)" clip-rule="nonzero">
<path style="fill:none;stroke-width:0.8;stroke-linecap:butt;stroke-linejoin:round;stroke:rgb(0%,0%,0%);stroke-opacity:1;stroke-dasharray:4;stroke-miterlimit:10;" d="M 320 608 L 352 608 " transform="matrix(1,0,0,-1,-61.5,770.5)"/>
</g>
<path style=" stroke:none;fill-rule:evenodd;fill:rgb(0%,0%,0%);fill-opacity:1;" d="M 4.300781 130.5 C 4.300781 129.507812 3.492188 128.699219 2.5 128.699219 C 1.507812 128.699219 0.699219 129.507812 0.699219 130.5 C 0.699219 131.492188 1.507812 132.300781 2.5 132.300781 C 3.492188 132.300781 4.300781 131.492188 4.300781 130.5 "/>
<path style=" stroke:none;fill-rule:evenodd;fill:rgb(0%,0%,0%);fill-opacity:1;" d="M 36.300781 130.5 C 36.300781 129.507812 35.492188 128.699219 34.5 128.699219 C 33.507812 128.699219 32.699219 129.507812 32.699219 130.5 C 32.699219 131.492188 33.507812 132.300781 34.5 132.300781 C 35.492188 132.300781 36.300781 131.492188 36.300781 130.5 "/>
<path style=" stroke:none;fill-rule:evenodd;fill:rgb(0%,0%,0%);fill-opacity:1;" d="M 68.300781 130.5 C 68.300781 129.507812 67.492188 128.699219 66.5 128.699219 C 65.507812 128.699219 64.699219 129.507812 64.699219 130.5 C 64.699219 131.492188 65.507812 132.300781 66.5 132.300781 C 67.492188 132.300781 68.300781 131.492188 68.300781 130.5 "/>
<path style=" stroke:none;fill-rule:evenodd;fill:rgb(0%,0%,0%);fill-opacity:1;" d="M 100.300781 130.5 C 100.300781 129.507812 99.492188 128.699219 98.5 128.699219 C 97.507812 128.699219 96.699219 129.507812 96.699219 130.5 C 96.699219 131.492188 97.507812 132.300781 98.5 132.300781 C 99.492188 132.300781 100.300781 131.492188 100.300781 130.5 "/>
<path style=" stroke:none;fill-rule:evenodd;fill:rgb(0%,0%,0%);fill-opacity:1;" d="M 132.300781 130.5 C 132.300781 129.507812 131.492188 128.699219 130.5 128.699219 C 129.507812 128.699219 128.699219 129.507812 128.699219 130.5 C 128.699219 131.492188 129.507812 132.300781 130.5 132.300781 C 131.492188 132.300781 132.300781 131.492188 132.300781 130.5 "/>
<path style=" stroke:none;fill-rule:evenodd;fill:rgb(0%,0%,0%);fill-opacity:1;" d="M 164.300781 130.5 C 164.300781 129.507812 163.492188 128.699219 162.5 128.699219 C 161.507812 128.699219 160.699219 129.507812 160.699219 130.5 C 160.699219 131.492188 161.507812 132.300781 162.5 132.300781 C 163.492188 132.300781 164.300781 131.492188 164.300781 130.5 "/>
<path style=" stroke:none;fill-rule:evenodd;fill:rgb(0%,0%,0%);fill-opacity:1;" d="M 196.300781 130.5 C 196.300781 129.507812 195.492188 128.699219 194.5 128.699219 C 193.507812 128.699219 192.699219 129.507812 192.699219 130.5 C 192.699219 131.492188 193.507812 132.300781 194.5 132.300781 C 195.492188 132.300781 196.300781 131.492188 196.300781 130.5 "/>
<path style=" stroke:none;fill-rule:evenodd;fill:rgb(0%,0%,0%);fill-opacity:1;" d="M 228.300781 130.5 C 228.300781 129.507812 227.492188 128.699219 226.5 128.699219 C 225.507812 128.699219 224.699219 129.507812 224.699219 130.5 C 224.699219 131.492188 225.507812 132.300781 226.5 132.300781 C 227.492188 132.300781 228.300781 131.492188 228.300781 130.5 "/>
<path style="fill:none;stroke-width:0.8;stroke-linecap:butt;stroke-linejoin:round;stroke:rgb(0%,0%,0%);stroke-opacity:1;stroke-miterlimit:10;" d="M 68 640 L 92 640 " transform="matrix(1,0,0,-1,-61.5,770.5)"/>
<path style="fill-rule:evenodd;fill:rgb(0%,0%,0%);fill-opacity:1;stroke-width:0.8;stroke-linecap:butt;stroke-linejoin:round;stroke:rgb(0%,0%,0%);stroke-opacity:1;stroke-miterlimit:10;" d="M 92 640 L 89 641 L 89 639 Z M 92 640 " transform="matrix(1,0,0,-1,-61.5,770.5)"/>
<path style="fill:none;stroke-width:0.8;stroke-linecap:butt;stroke-linejoin:round;stroke:rgb(0%,0%,0%);stroke-opacity:1;stroke-miterlimit:10;" d="M 100 640 L 124 640 " transform="matrix(1,0,0,-1,-61.5,770.5)"/>
<path style="fill-rule:evenodd;fill:rgb(0%,0%,0%);fill-opacity:1;stroke-width:0.8;stroke-linecap:butt;stroke-linejoin:round;stroke:rgb(0%,0%,0%);stroke-opacity:1;stroke-miterlimit:10;" d="M 124 640 L 121 641 L 121 639 Z M 124 640 " transform="matrix(1,0,0,-1,-61.5,770.5)"/>
<path style="fill:none;stroke-width:0.8;stroke-linecap:butt;stroke-linejoin:round;stroke:rgb(0%,0%,0%);stroke-opacity:1;stroke-miterlimit:10;" d="M 132 640 L 156 640 " transform="matrix(1,0,0,-1,-61.5,770.5)"/>
<path style="fill-rule:evenodd;fill:rgb(0%,0%,0%);fill-opacity:1;stroke-width:0.8;stroke-linecap:butt;stroke-linejoin:round;stroke:rgb(0%,0%,0%);stroke-opacity:1;stroke-miterlimit:10;" d="M 156 640 L 153 641 L 153 639 Z M 156 640 " transform="matrix(1,0,0,-1,-61.5,770.5)"/>
<path style="fill:none;stroke-width:0.8;stroke-linecap:butt;stroke-linejoin:round;stroke:rgb(0%,0%,0%);stroke-opacity:1;stroke-miterlimit:10;" d="M 164 640 L 188 640 " transform="matrix(1,0,0,-1,-61.5,770.5)"/>
<path style="fill-rule:evenodd;fill:rgb(0%,0%,0%);fill-opacity:1;stroke-width:0.8;stroke-linecap:butt;stroke-linejoin:round;stroke:rgb(0%,0%,0%);stroke-opacity:1;stroke-miterlimit:10;" d="M 188 640 L 185 641 L 185 639 Z M 188 640 " transform="matrix(1,0,0,-1,-61.5,770.5)"/>
<path style="fill:none;stroke-width:0.8;stroke-linecap:butt;stroke-linejoin:round;stroke:rgb(0%,0%,0%);stroke-opacity:1;stroke-miterlimit:10;" d="M 196 640 L 220 640 " transform="matrix(1,0,0,-1,-61.5,770.5)"/>
<path style="fill-rule:evenodd;fill:rgb(0%,0%,0%);fill-opacity:1;stroke-width:0.8;stroke-linecap:butt;stroke-linejoin:round;stroke:rgb(0%,0%,0%);stroke-opacity:1;stroke-miterlimit:10;" d="M 220 640 L 217 641 L 217 639 Z M 220 640 " transform="matrix(1,0,0,-1,-61.5,770.5)"/>
<path style="fill:none;stroke-width:0.8;stroke-linecap:butt;stroke-linejoin:round;stroke:rgb(0%,0%,0%);stroke-opacity:1;stroke-miterlimit:10;" d="M 228 640 L 252 640 " transform="matrix(1,0,0,-1,-61.5,770.5)"/>
<path style="fill-rule:evenodd;fill:rgb(0%,0%,0%);fill-opacity:1;stroke-width:0.8;stroke-linecap:butt;stroke-linejoin:round;stroke:rgb(0%,0%,0%);stroke-opacity:1;stroke-miterlimit:10;" d="M 252 640 L 249 641 L 249 639 Z M 252 640 " transform="matrix(1,0,0,-1,-61.5,770.5)"/>
<path style="fill:none;stroke-width:0.8;stroke-linecap:butt;stroke-linejoin:round;stroke:rgb(0%,0%,0%);stroke-opacity:1;stroke-miterlimit:10;" d="M 260 640 L 284 640 " transform="matrix(1,0,0,-1,-61.5,770.5)"/>
<path style="fill-rule:evenodd;fill:rgb(0%,0%,0%);fill-opacity:1;stroke-width:0.8;stroke-linecap:butt;stroke-linejoin:round;stroke:rgb(0%,0%,0%);stroke-opacity:1;stroke-miterlimit:10;" d="M 284 640 L 281 641 L 281 639 Z M 284 640 " transform="matrix(1,0,0,-1,-61.5,770.5)"/>
<path style="fill:none;stroke-width:0.8;stroke-linecap:butt;stroke-linejoin:round;stroke:rgb(0%,0%,0%);stroke-opacity:1;stroke-miterlimit:10;" d="M 292 640 L 316 640 " transform="matrix(1,0,0,-1,-61.5,770.5)"/>
<path style="fill-rule:evenodd;fill:rgb(0%,0%,0%);fill-opacity:1;stroke-width:0.8;stroke-linecap:butt;stroke-linejoin:round;stroke:rgb(0%,0%,0%);stroke-opacity:1;stroke-miterlimit:10;" d="M 316 640 L 313 641 L 313 639 Z M 316 640 " transform="matrix(1,0,0,-1,-61.5,770.5)"/>
<g clip-path="url(#clip8)" clip-rule="nonzero">
<path style="fill:none;stroke-width:0.8;stroke-linecap:butt;stroke-linejoin:round;stroke:rgb(0%,0%,0%);stroke-opacity:1;stroke-dasharray:4;stroke-miterlimit:10;" d="M 320 640 L 352 640 " transform="matrix(1,0,0,-1,-61.5,770.5)"/>
</g>
<g clip-path="url(#clip9)" clip-rule="nonzero">
<path style="fill:none;stroke-width:0.8;stroke-linecap:butt;stroke-linejoin:round;stroke:rgb(0%,0%,0%);stroke-opacity:1;stroke-dasharray:4;stroke-miterlimit:10;" d="M 64 512 L 352 512 " transform="matrix(1,0,0,-1,-61.5,770.5)"/>
</g>
<g clip-path="url(#clip10)" clip-rule="nonzero">
<path style="fill:none;stroke-width:0.8;stroke-linecap:butt;stroke-linejoin:round;stroke:rgb(0%,0%,0%);stroke-opacity:1;stroke-dasharray:4;stroke-miterlimit:10;" d="M 64 480 L 352 480 " transform="matrix(1,0,0,-1,-61.5,770.5)"/>
</g>
</g>
</svg>
