<?xml version="1.0" encoding="UTF-8"?>
<svg xmlns="http://www.w3.org/2000/svg" xmlns:xlink="http://www.w3.org/1999/xlink" width="291pt" height="291pt" viewBox="0 0 291 291" version="1.1">
<g id="surface55106">
<path style=" stroke:none;fill-rule:evenodd;fill:rgb(0%,0%,0%);fill-opacity:1;" d="M 4.800781 99 C 4.800781 96.601562 1.199219 96.601562 1.199219 99 C 1.199219 101.398438 4.800781 101.398438 4.800781 99 Z M 4.800781 99 "/>
<path style=" stroke:none;fill-rule:evenodd;fill:rgb(0%,0%,0%);fill-opacity:1;" d="M 36.800781 99 C 36.800781 96.601562 33.199219 96.601562 33.199219 99 C 33.199219 101.398438 36.800781 101.398438 36.800781 99 Z M 36.800781 99 "/>
<path style=" stroke:none;fill-rule:evenodd;fill:rgb(0%,0%,0%);fill-opacity:1;" d="M 68.800781 99 C 68.800781 96.601562 65.199219 96.601562 65.199219 99 C 65.199219 101.398438 68.800781 101.398438 68.800781 99 Z M 68.800781 99 "/>
<path style=" stroke:none;fill-rule:evenodd;fill:rgb(0%,0%,0%);fill-opacity:1;" d="M 100.800781 99 C 100.800781 96.601562 97.199219 96.601562 97.199219 99 C 97.199219 101.398438 100.800781 101.398438 100.800781 99 Z M 100.800781 99 "/>
<path style=" stroke:none;fill-rule:evenodd;fill:rgb(0%,0%,0%);fill-opacity:1;" d="M 132.800781 99 C 132.800781 96.601562 129.199219 96.601562 129.199219 99 C 129.199219 101.398438 132.800781 101.398438 132.800781 99 Z M 132.800781 99 "/>
<path style=" stroke:none;fill-rule:evenodd;fill:rgb(0%,0%,0%);fill-opacity:1;" d="M 164.800781 99 C 164.800781 96.601562 161.199219 96.601562 161.199219 99 C 161.199219 101.398438 164.800781 101.398438 164.800781 99 Z M 164.800781 99 "/>
<path style=" stroke:none;fill-rule:evenodd;fill:rgb(0%,0%,0%);fill-opacity:1;" d="M 196.800781 99 C 196.800781 96.601562 193.199219 96.601562 193.199219 99 C 193.199219 101.398438 196.800781 101.398438 196.800781 99 Z M 196.800781 99 "/>
<path style=" stroke:none;fill-rule:evenodd;fill:rgb(0%,0%,0%);fill-opacity:1;" d="M 228.800781 99 C 228.800781 96.601562 225.199219 96.601562 225.199219 99 C 225.199219 101.398438 228.800781 101.398438 228.800781 99 Z M 228.800781 99 "/>
<path style="fill:none;stroke-width:0.8;stroke-linecap:butt;stroke-linejoin:round;stroke:rgb(0%,0%,0%);stroke-opacity:1;stroke-miterlimit:10;" d="M 68 672 L 92 672 " transform="matrix(1,0,0,-1,-61,771)"/>
<path style="fill-rule:evenodd;fill:rgb(0%,0%,0%);fill-opacity:1;stroke-width:0.8;stroke-linecap:butt;stroke-linejoin:round;stroke:rgb(0%,0%,0%);stroke-opacity:1;stroke-miterlimit:10;" d="M 92 672 L 89 673 L 89 671 Z M 92 672 " transform="matrix(1,0,0,-1,-61,771)"/>
<path style="fill:none;stroke-width:0.8;stroke-linecap:butt;stroke-linejoin:round;stroke:rgb(0%,0%,0%);stroke-opacity:1;stroke-miterlimit:10;" d="M 100 672 L 124 672 " transform="matrix(1,0,0,-1,-61,771)"/>
<path style="fill-rule:evenodd;fill:rgb(0%,0%,0%);fill-opacity:1;stroke-width:0.8;stroke-linecap:butt;stroke-linejoin:round;stroke:rgb(0%,0%,0%);stroke-opacity:1;stroke-miterlimit:10;" d="M 124 672 L 121 673 L 121 671 Z M 124 672 " transform="matrix(1,0,0,-1,-61,771)"/>
<path style="fill:none;stroke-width:0.8;stroke-linecap:butt;stroke-linejoin:round;stroke:rgb(0%,0%,0%);stroke-opacity:1;stroke-miterlimit:10;" d="M 132 672 L 156 672 " transform="matrix(1,0,0,-1,-61,771)"/>
<path style="fill-rule:evenodd;fill:rgb(0%,0%,0%);fill-opacity:1;stroke-width:0.8;stroke-linecap:butt;stroke-linejoin:round;stroke:rgb(0%,0%,0%);stroke-opacity:1;stroke-miterlimit:10;" d="M 156 672 L 153 673 L 153 671 Z M 156 672 " transform="matrix(1,0,0,-1,-61,771)"/>
<path style="fill:none;stroke-width:0.8;stroke-linecap:butt;stroke-linejoin:round;stroke:rgb(0%,0%,0%);stroke-opacity:1;stroke-miterlimit:10;" d="M 164 672 L 188 672 " transform="matrix(1,0,0,-1,-61,771)"/>
<path style="fill-rule:evenodd;fill:rgb(0%,0%,0%);fill-opacity:1;stroke-width:0.8;stroke-linecap:butt;stroke-linejoin:round;stroke:rgb(0%,0%,0%);stroke-opacity:1;stroke-miterlimit:10;" d="M 188 672 L 185 673 L 185 671 Z M 188 672 " transform="matrix(1,0,0,-1,-61,771)"/>
<path style="fill:none;stroke-width:0.8;stroke-linecap:butt;stroke-linejoin:round;stroke:rgb(0%,0%,0%);stroke-opacity:1;stroke-miterlimit:10;" d="M 196 672 L 220 672 " transform="matrix(1,0,0,-1,-61,771)"/>
<path style="fill-rule:evenodd;fill:rgb(0%,0%,0%);fill-opacity:1;stroke-width:0.8;stroke-linecap:butt;stroke-linejoin:round;stroke:rgb(0%,0%,0%);stroke-opacity:1;stroke-miterlimit:10;" d="M 220 672 L 217 673 L 217 671 Z M 220 672 " transform="matrix(1,0,0,-1,-61,771)"/>
<path style="fill:none;stroke-width:0.8;stroke-linecap:butt;stroke-linejoin:round;stroke:rgb(0%,0%,0%);stroke-opacity:1;stroke-miterlimit:10;" d="M 228 672 L 252 672 " transform="matrix(1,0,0,-1,-61,771)"/>
<path style="fill-rule:evenodd;fill:rgb(0%,0%,0%);fill-opacity:1;stroke-width:0.8;stroke-linecap:butt;stroke-linejoin:round;stroke:rgb(0%,0%,0%);stroke-opacity:1;stroke-miterlimit:10;" d="M 252 672 L 249 673 L 249 671 Z M 252 672 " transform="matrix(1,0,0,-1,-61,771)"/>
<path style="fill:none;stroke-width:0.8;stroke-linecap:butt;stroke-linejoin:round;stroke:rgb(0%,0%,0%);stroke-opacity:1;stroke-miterlimit:10;" d="M 260 672 L 284 672 " transform="matrix(1,0,0,-1,-61,771)"/>
<path style="fill-rule:evenodd;fill:rgb(0%,0%,0%);fill-opacity:1;stroke-width:0.8;stroke-linecap:butt;stroke-linejoin:round;stroke:rgb(0%,0%,0%);stroke-opacity:1;stroke-miterlimit:10;" d="M 284 672 L 281 673 L 281 671 Z M 284 672 " transform="matrix(1,0,0,-1,-61,771)"/>
<path style="fill:none;stroke-width:0.8;stroke-linecap:butt;stroke-linejoin:round;stroke:rgb(0%,0%,0%);stroke-opacity:1;stroke-miterlimit:10;" d="M 292 672 L 316 672 " transform="matrix(1,0,0,-1,-61,771)"/>
<path style="fill-rule:evenodd;fill:rgb(0%,0%,0%);fill-opacity:1;stroke-width:0.8;stroke-linecap:butt;stroke-linejoin:round;stroke:rgb(0%,0%,0%);stroke-opacity:1;stroke-miterlimit:10;" d="M 316 672 L 313 673 L 313 671 Z M 316 672 " transform="matrix(1,0,0,-1,-61,771)"/>
<path style="fill:none;stroke-width:0.8;stroke-linecap:butt;stroke-linejoin:round;stroke:rgb(0%,0%,0%);stroke-opacity:1;stroke-dasharray:4;stroke-miterlimit:10;" d="M 320 672 L 352 672 " transform="matrix(1,0,0,-1,-61,771)"/>
<path style=" stroke:none;fill-rule:evenodd;fill:rgb(0%,0%,0%);fill-opacity:1;" d="M 4.800781 67 C 4.800781 64.601562 1.199219 64.601562 1.199219 67 C 1.199219 69.398438 4.800781 69.398438 4.800781 67 Z M 4.800781 67 "/>
<path style=" stroke:none;fill-rule:evenodd;fill:rgb(0%,0%,0%);fill-opacity:1;" d="M 36.800781 67 C 36.800781 64.601562 33.199219 64.601562 33.199219 67 C 33.199219 69.398438 36.800781 69.398438 36.800781 67 Z M 36.800781 67 "/>
<path style=" stroke:none;fill-rule:evenodd;fill:rgb(0%,0%,0%);fill-opacity:1;" d="M 68.800781 67 C 68.800781 64.601562 65.199219 64.601562 65.199219 67 C 65.199219 69.398438 68.800781 69.398438 68.800781 67 Z M 68.800781 67 "/>
<path style=" stroke:none;fill-rule:evenodd;fill:rgb(0%,0%,0%);fill-opacity:1;" d="M 100.800781 67 C 100.800781 64.601562 97.199219 64.601562 97.199219 67 C 97.199219 69.398438 100.800781 69.398438 100.800781 67 Z M 100.800781 67 "/>
<path style=" stroke:none;fill-rule:evenodd;fill:rgb(0%,0%,0%);fill-opacity:1;" d="M 132.800781 67 C 132.800781 64.601562 129.199219 64.601562 129.199219 67 C 129.199219 69.398438 132.800781 69.398438 132.800781 67 Z M 132.800781 67 "/>
<path style=" stroke:none;fill-rule:evenodd;fill:rgb(0%,0%,0%);fill-opacity:1;" d="M 164.800781 67 C 164.800781 64.601562 161.199219 64.601562 161.199219 67 C 161.199219 69.398438 164.800781 69.398438 164.800781 67 Z M 164.800781 67 "/>
<path style=" stroke:none;fill-rule:evenodd;fill:rgb(0%,0%,0%);fill-opacity:1;" d="M 196.800781 67 C 196.800781 64.601562 193.199219 64.601562 193.199219 67 C 193.199219 69.398438 196.800781 69.398438 196.800781 67 Z M 196.800781 67 "/>
<path style=" stroke:none;fill-rule:evenodd;fill:rgb(0%,0%,0%);fill-opacity:1;" d="M 228.800781 67 C 228.800781 64.601562 225.199219 64.601562 225.199219 67 C 225.199219 69.398438 228.800781 69.398438 228.800781 67 Z M 228.800781 67 "/>
<path style="fill:none;stroke-width:0.8;stroke-linecap:butt;stroke-linejoin:round;stroke:rgb(0%,0%,0%);stroke-opacity:1;stroke-miterlimit:10;" d="M 68 704 L 92 704 " transform="matrix(1,0,0,-1,-61,771)"/>
<path style="fill-rule:evenodd;fill:rgb(0%,0%,0%);fill-opacity:1;stroke-width:0.8;stroke-linecap:butt;stroke-linejoin:round;stroke:rgb(0%,0%,0%);stroke-opacity:1;stroke-miterlimit:10;" d="M 92 704 L 89 705 L 89 703 Z M 92 704 " transform="matrix(1,0,0,-1,-61,771)"/>
<path style="fill:none;stroke-width:0.8;stroke-linecap:butt;stroke-linejoin:round;stroke:rgb(0%,0%,0%);stroke-opacity:1;stroke-miterlimit:10;" d="M 100 704 L 124 704 " transform="matrix(1,0,0,-1,-61,771)"/>
<path style="fill-rule:evenodd;fill:rgb(0%,0%,0%);fill-opacity:1;stroke-width:0.8;stroke-linecap:butt;stroke-linejoin:round;stroke:rgb(0%,0%,0%);stroke-opacity:1;stroke-miterlimit:10;" d="M 124 704 L 121 705 L 121 703 Z M 124 704 " transform="matrix(1,0,0,-1,-61,771)"/>
<path style="fill:none;stroke-width:0.8;stroke-linecap:butt;stroke-linejoin:round;stroke:rgb(0%,0%,0%);stroke-opacity:1;stroke-miterlimit:10;" d="M 132 704 L 156 704 " transform="matrix(1,0,0,-1,-61,771)"/>
<path style="fill-rule:evenodd;fill:rgb(0%,0%,0%);fill-opacity:1;stroke-width:0.8;stroke-linecap:butt;stroke-linejoin:round;stroke:rgb(0%,0%,0%);stroke-opacity:1;stroke-miterlimit:10;" d="M 156 704 L 153 705 L 153 703 Z M 156 704 " transform="matrix(1,0,0,-1,-61,771)"/>
<path style="fill:none;stroke-width:0.8;stroke-linecap:butt;stroke-linejoin:round;stroke:rgb(0%,0%,0%);stroke-opacity:1;stroke-miterlimit:10;" d="M 164 704 L 188 704 " transform="matrix(1,0,0,-1,-61,771)"/>
<path style="fill-rule:evenodd;fill:rgb(0%,0%,0%);fill-opacity:1;stroke-width:0.8;stroke-linecap:butt;stroke-linejoin:round;stroke:rgb(0%,0%,0%);stroke-opacity:1;stroke-miterlimit:10;" d="M 188 704 L 185 705 L 185 703 Z M 188 704 " transform="matrix(1,0,0,-1,-61,771)"/>
<path style="fill:none;stroke-width:0.8;stroke-linecap:butt;stroke-linejoin:round;stroke:rgb(0%,0%,0%);stroke-opacity:1;stroke-miterlimit:10;" d="M 196 704 L 220 704 " transform="matrix(1,0,0,-1,-61,771)"/>
<path style="fill-rule:evenodd;fill:rgb(0%,0%,0%);fill-opacity:1;stroke-width:0.8;stroke-linecap:butt;stroke-linejoin:round;stroke:rgb(0%,0%,0%);stroke-opacity:1;stroke-miterlimit:10;" d="M 220 704 L 217 705 L 217 703 Z M 220 704 " transform="matrix(1,0,0,-1,-61,771)"/>
<path style="fill:none;stroke-width:0.8;stroke-linecap:butt;stroke-linejoin:round;stroke:rgb(0%,0%,0%);stroke-opacity:1;stroke-miterlimit:10;" d="M 228 704 L 252 704 " transform="matrix(1,0,0,-1,-61,771)"/>
<path style="fill-rule:evenodd;fill:rgb(0%,0%,0%);fill-opacity:1;stroke-width:0.8;stroke-linecap:butt;stroke-linejoin:round;stroke:rgb(0%,0%,0%);stroke-opacity:1;stroke-miterlimit:10;" d="M 252 704 L 249 705 L 249 703 Z M 252 704 " transform="matrix(1,0,0,-1,-61,771)"/>
<path style="fill:none;stroke-width:0.8;stroke-linecap:butt;stroke-linejoin:round;stroke:rgb(0%,0%,0%);stroke-opacity:1;stroke-miterlimit:10;" d="M 260 704 L 284 704 " transform="matrix(1,0,0,-1,-61,771)"/>
<path style="fill-rule:evenodd;fill:rgb(0%,0%,0%);fill-opacity:1;stroke-width:0.8;stroke-linecap:butt;stroke-linejoin:round;stroke:rgb(0%,0%,0%);stroke-opacity:1;stroke-miterlimit:10;" d="M 284 704 L 281 705 L 281 703 Z M 284 704 " transform="matrix(1,0,0,-1,-61,771)"/>
<path style="fill:none;stroke-width:0.8;stroke-linecap:butt;stroke-linejoin:round;stroke:rgb(0%,0%,0%);stroke-opacity:1;stroke-miterlimit:10;" d="M 292 704 L 316 704 " transform="matrix(1,0,0,-1,-61,771)"/>
<path style="fill-rule:evenodd;fill:rgb(0%,0%,0%);fill-opacity:1;stroke-width:0.8;stroke-linecap:butt;stroke-linejoin:round;stroke:rgb(0%,0%,0%);stroke-opacity:1;stroke-miterlimit:10;" d="M 316 704 L 313 705 L 313 703 Z M 316 704 " transform="matrix(1,0,0,-1,-61,771)"/>
<path style="fill:none;stroke-width:0.8;stroke-linecap:butt;stroke-linejoin:round;stroke:rgb(0%,0%,0%);stroke-opacity:1;stroke-dasharray:4;stroke-miterlimit:10;" d="M 320 704 L 352 704 " transform="matrix(1,0,0,-1,-61,771)"/>
<path style=" stroke:none;fill-rule:evenodd;fill:rgb(0%,0%,0%);fill-opacity:1;" d="M 4.800781 35 C 4.800781 32.601562 1.199219 32.601562 1.199219 35 C 1.199219 37.398438 4.800781 37.398438 4.800781 35 Z M 4.800781 35 "/>
<path style=" stroke:none;fill-rule:evenodd;fill:rgb(0%,0%,0%);fill-opacity:1;" d="M 36.800781 35 C 36.800781 32.601562 33.199219 32.601562 33.199219 35 C 33.199219 37.398438 36.800781 37.398438 36.800781 35 Z M 36.800781 35 "/>
<path style=" stroke:none;fill-rule:evenodd;fill:rgb(0%,0%,0%);fill-opacity:1;" d="M 68.800781 35 C 68.800781 32.601562 65.199219 32.601562 65.199219 35 C 65.199219 37.398438 68.800781 37.398438 68.800781 35 Z M 68.800781 35 "/>
<path style=" stroke:none;fill-rule:evenodd;fill:rgb(0%,0%,0%);fill-opacity:1;" d="M 100.800781 35 C 100.800781 32.601562 97.199219 32.601562 97.199219 35 C 97.199219 37.398438 100.800781 37.398438 100.800781 35 Z M 100.800781 35 "/>
<path style=" stroke:none;fill-rule:evenodd;fill:rgb(0%,0%,0%);fill-opacity:1;" d="M 132.800781 35 C 132.800781 32.601562 129.199219 32.601562 129.199219 35 C 129.199219 37.398438 132.800781 37.398438 132.800781 35 Z M 132.800781 35 "/>
<path style=" stroke:none;fill-rule:evenodd;fill:rgb(0%,0%,0%);fill-opacity:1;" d="M 164.800781 35 C 164.800781 32.601562 161.199219 32.601562 161.199219 35 C 161.199219 37.398438 164.800781 37.398438 164.800781 35 Z M 164.800781 35 "/>
<path style=" stroke:none;fill-rule:evenodd;fill:rgb(0%,0%,0%);fill-opacity:1;" d="M 196.800781 35 C 196.800781 32.601562 193.199219 32.601562 193.199219 35 C 193.199219 37.398438 196.800781 37.398438 196.800781 35 Z M 196.800781 35 "/>
<path style=" stroke:none;fill-rule:evenodd;fill:rgb(0%,0%,0%);fill-opacity:1;" d="M 228.800781 35 C 228.800781 32.601562 225.199219 32.601562 225.199219 35 C 225.199219 37.398438 228.800781 37.398438 228.800781 35 Z M 228.800781 35 "/>
<path style="fill:none;stroke-width:0.8;stroke-linecap:butt;stroke-linejoin:round;stroke:rgb(0%,0%,0%);stroke-opacity:1;stroke-miterlimit:10;" d="M 68 736 L 92 736 " transform="matrix(1,0,0,-1,-61,771)"/>
<path style="fill-rule:evenodd;fill:rgb(0%,0%,0%);fill-opacity:1;stroke-width:0.8;stroke-linecap:butt;stroke-linejoin:round;stroke:rgb(0%,0%,0%);stroke-opacity:1;stroke-miterlimit:10;" d="M 92 736 L 89 737 L 89 735 Z M 92 736 " transform="matrix(1,0,0,-1,-61,771)"/>
<path style="fill:none;stroke-width:0.8;stroke-linecap:butt;stroke-linejoin:round;stroke:rgb(0%,0%,0%);stroke-opacity:1;stroke-miterlimit:10;" d="M 100 736 L 124 736 " transform="matrix(1,0,0,-1,-61,771)"/>
<path style="fill-rule:evenodd;fill:rgb(0%,0%,0%);fill-opacity:1;stroke-width:0.8;stroke-linecap:butt;stroke-linejoin:round;stroke:rgb(0%,0%,0%);stroke-opacity:1;stroke-miterlimit:10;" d="M 124 736 L 121 737 L 121 735 Z M 124 736 " transform="matrix(1,0,0,-1,-61,771)"/>
<path style="fill:none;stroke-width:0.8;stroke-linecap:butt;stroke-linejoin:round;stroke:rgb(0%,0%,0%);stroke-opacity:1;stroke-miterlimit:10;" d="M 132 736 L 156 736 " transform="matrix(1,0,0,-1,-61,771)"/>
<path style="fill-rule:evenodd;fill:rgb(0%,0%,0%);fill-opacity:1;stroke-width:0.8;stroke-linecap:butt;stroke-linejoin:round;stroke:rgb(0%,0%,0%);stroke-opacity:1;stroke-miterlimit:10;" d="M 156 736 L 153 737 L 153 735 Z M 156 736 " transform="matrix(1,0,0,-1,-61,771)"/>
<path style="fill:none;stroke-width:0.8;stroke-linecap:butt;stroke-linejoin:round;stroke:rgb(0%,0%,0%);stroke-opacity:1;stroke-miterlimit:10;" d="M 164 736 L 188 736 " transform="matrix(1,0,0,-1,-61,771)"/>
<path style="fill-rule:evenodd;fill:rgb(0%,0%,0%);fill-opacity:1;stroke-width:0.8;stroke-linecap:butt;stroke-linejoin:round;stroke:rgb(0%,0%,0%);stroke-opacity:1;stroke-miterlimit:10;" d="M 188 736 L 185 737 L 185 735 Z M 188 736 " transform="matrix(1,0,0,-1,-61,771)"/>
<path style="fill:none;stroke-width:0.8;stroke-linecap:butt;stroke-linejoin:round;stroke:rgb(0%,0%,0%);stroke-opacity:1;stroke-miterlimit:10;" d="M 196 736 L 220 736 " transform="matrix(1,0,0,-1,-61,771)"/>
<path style="fill-rule:evenodd;fill:rgb(0%,0%,0%);fill-opacity:1;stroke-width:0.8;stroke-linecap:butt;stroke-linejoin:round;stroke:rgb(0%,0%,0%);stroke-opacity:1;stroke-miterlimit:10;" d="M 220 736 L 217 737 L 217 735 Z M 220 736 " transform="matrix(1,0,0,-1,-61,771)"/>
<path style="fill:none;stroke-width:0.8;stroke-linecap:butt;stroke-linejoin:round;stroke:rgb(0%,0%,0%);stroke-opacity:1;stroke-miterlimit:10;" d="M 228 736 L 252 736 " transform="matrix(1,0,0,-1,-61,771)"/>
<path style="fill-rule:evenodd;fill:rgb(0%,0%,0%);fill-opacity:1;stroke-width:0.8;stroke-linecap:butt;stroke-linejoin:round;stroke:rgb(0%,0%,0%);stroke-opacity:1;stroke-miterlimit:10;" d="M 252 736 L 249 737 L 249 735 Z M 252 736 " transform="matrix(1,0,0,-1,-61,771)"/>
<path style="fill:none;stroke-width:0.8;stroke-linecap:butt;stroke-linejoin:round;stroke:rgb(0%,0%,0%);stroke-opacity:1;stroke-miterlimit:10;" d="M 260 736 L 284 736 " transform="matrix(1,0,0,-1,-61,771)"/>
<path style="fill-rule:evenodd;fill:rgb(0%,0%,0%);fill-opacity:1;stroke-width:0.8;stroke-linecap:butt;stroke-linejoin:round;stroke:rgb(0%,0%,0%);stroke-opacity:1;stroke-miterlimit:10;" d="M 284 736 L 281 737 L 281 735 Z M 284 736 " transform="matrix(1,0,0,-1,-61,771)"/>
<path style="fill:none;stroke-width:0.8;stroke-linecap:butt;stroke-linejoin:round;stroke:rgb(0%,0%,0%);stroke-opacity:1;stroke-miterlimit:10;" d="M 292 736 L 316 736 " transform="matrix(1,0,0,-1,-61,771)"/>
<path style="fill-rule:evenodd;fill:rgb(0%,0%,0%);fill-opacity:1;stroke-width:0.8;stroke-linecap:butt;stroke-linejoin:round;stroke:rgb(0%,0%,0%);stroke-opacity:1;stroke-miterlimit:10;" d="M 316 736 L 313 737 L 313 735 Z M 316 736 " transform="matrix(1,0,0,-1,-61,771)"/>
<path style="fill:none;stroke-width:0.8;stroke-linecap:butt;stroke-linejoin:round;stroke:rgb(0%,0%,0%);stroke-opacity:1;stroke-dasharray:4;stroke-miterlimit:10;" d="M 320 736 L 352 736 " transform="matrix(1,0,0,-1,-61,771)"/>
<path style=" stroke:none;fill-rule:evenodd;fill:rgb(0%,0%,0%);fill-opacity:1;" d="M 4.800781 3 C 4.800781 0.601562 1.199219 0.601562 1.199219 3 C 1.199219 5.398438 4.800781 5.398438 4.800781 3 Z M 4.800781 3 "/>
<path style=" stroke:none;fill-rule:evenodd;fill:rgb(0%,0%,0%);fill-opacity:1;" d="M 36.800781 3 C 36.800781 0.601562 33.199219 0.601562 33.199219 3 C 33.199219 5.398438 36.800781 5.398438 36.800781 3 Z M 36.800781 3 "/>
<path style=" stroke:none;fill-rule:evenodd;fill:rgb(0%,0%,0%);fill-opacity:1;" d="M 68.800781 3 C 68.800781 0.601562 65.199219 0.601562 65.199219 3 C 65.199219 5.398438 68.800781 5.398438 68.800781 3 Z M 68.800781 3 "/>
<path style=" stroke:none;fill-rule:evenodd;fill:rgb(0%,0%,0%);fill-opacity:1;" d="M 100.800781 3 C 100.800781 0.601562 97.199219 0.601562 97.199219 3 C 97.199219 5.398438 100.800781 5.398438 100.800781 3 Z M 100.800781 3 "/>
<path style=" stroke:none;fill-rule:evenodd;fill:rgb(0%,0%,0%);fill-opacity:1;" d="M 132.800781 3 C 132.800781 0.601562 129.199219 0.601562 129.199219 3 C 129.199219 5.398438 132.800781 5.398438 132.800781 3 Z M 132.800781 3 "/>
<path style=" stroke:none;fill-rule:evenodd;fill:rgb(0%,0%,0%);fill-opacity:1;" d="M 164.800781 3 C 164.800781 0.601562 161.199219 0.601562 161.199219 3 C 161.199219 5.398438 164.800781 5.398438 164.800781 3 Z M 164.800781 3 "/>
<path style=" stroke:none;fill-rule:evenodd;fill:rgb(0%,0%,0%);fill-opacity:1;" d="M 196.800781 3 C 196.800781 0.601562 193.199219 0.601562 193.199219 3 C 193.199219 5.398438 196.800781 5.398438 196.800781 3 Z M 196.800781 3 "/>
<path style=" stroke:none;fill-rule:evenodd;fill:rgb(0%,0%,0%);fill-opacity:1;" d="M 228.800781 3 C 228.800781 0.601562 225.199219 0.601562 225.199219 3 C 225.199219 5.398438 228.800781 5.398438 228.800781 3 Z M 228.800781 3 "/>
<path style="fill:none;stroke-width:0.8;stroke-linecap:butt;stroke-linejoin:round;stroke:rgb(0%,0%,0%);stroke-opacity:1;stroke-miterlimit:10;" d="M 68 768 L 92 768 " transform="matrix(1,0,0,-1,-61,771)"/>
<path style="fill-rule:evenodd;fill:rgb(0%,0%,0%);fill-opacity:1;stroke-width:0.8;stroke-linecap:butt;stroke-linejoin:round;stroke:rgb(0%,0%,0%);stroke-opacity:1;stroke-miterlimit:10;" d="M 92 768 L 89 769 L 89 767 Z M 92 768 " transform="matrix(1,0,0,-1,-61,771)"/>
<path style="fill:none;stroke-width:0.8;stroke-linecap:butt;stroke-linejoin:round;stroke:rgb(0%,0%,0%);stroke-opacity:1;stroke-miterlimit:10;" d="M 100 768 L 124 768 " transform="matrix(1,0,0,-1,-61,771)"/>
<path style="fill-rule:evenodd;fill:rgb(0%,0%,0%);fill-opacity:1;stroke-width:0.8;stroke-linecap:butt;stroke-linejoin:round;stroke:rgb(0%,0%,0%);stroke-opacity:1;stroke-miterlimit:10;" d="M 124 768 L 121 769 L 121 767 Z M 124 768 " transform="matrix(1,0,0,-1,-61,771)"/>
<path style="fill:none;stroke-width:0.8;stroke-linecap:butt;stroke-linejoin:round;stroke:rgb(0%,0%,0%);stroke-opacity:1;stroke-miterlimit:10;" d="M 132 768 L 156 768 " transform="matrix(1,0,0,-1,-61,771)"/>
<path style="fill-rule:evenodd;fill:rgb(0%,0%,0%);fill-opacity:1;stroke-width:0.8;stroke-linecap:butt;stroke-linejoin:round;stroke:rgb(0%,0%,0%);stroke-opacity:1;stroke-miterlimit:10;" d="M 156 768 L 153 769 L 153 767 Z M 156 768 " transform="matrix(1,0,0,-1,-61,771)"/>
<path style="fill:none;stroke-width:0.8;stroke-linecap:butt;stroke-linejoin:round;stroke:rgb(0%,0%,0%);stroke-opacity:1;stroke-miterlimit:10;" d="M 164 768 L 188 768 " transform="matrix(1,0,0,-1,-61,771)"/>
<path style="fill-rule:evenodd;fill:rgb(0%,0%,0%);fill-opacity:1;stroke-width:0.8;stroke-linecap:butt;stroke-linejoin:round;stroke:rgb(0%,0%,0%);stroke-opacity:1;stroke-miterlimit:10;" d="M 188 768 L 185 769 L 185 767 Z M 188 768 " transform="matrix(1,0,0,-1,-61,771)"/>
<path style="fill:none;stroke-width:0.8;stroke-linecap:butt;stroke-linejoin:round;stroke:rgb(0%,0%,0%);stroke-opacity:1;stroke-miterlimit:10;" d="M 196 768 L 220 768 " transform="matrix(1,0,0,-1,-61,771)"/>
<path style="fill-rule:evenodd;fill:rgb(0%,0%,0%);fill-opacity:1;stroke-width:0.8;stroke-linecap:butt;stroke-linejoin:round;stroke:rgb(0%,0%,0%);stroke-opacity:1;stroke-miterlimit:10;" d="M 220 768 L 217 769 L 217 767 Z M 220 768 " transform="matrix(1,0,0,-1,-61,771)"/>
<path style="fill:none;stroke-width:0.8;stroke-linecap:butt;stroke-linejoin:round;stroke:rgb(0%,0%,0%);stroke-opacity:1;stroke-miterlimit:10;" d="M 228 768 L 252 768 " transform="matrix(1,0,0,-1,-61,771)"/>
<path style="fill-rule:evenodd;fill:rgb(0%,0%,0%);fill-opacity:1;stroke-width:0.8;stroke-linecap:butt;stroke-linejoin:round;stroke:rgb(0%,0%,0%);stroke-opacity:1;stroke-miterlimit:10;" d="M 252 768 L 249 769 L 249 767 Z M 252 768 " transform="matrix(1,0,0,-1,-61,771)"/>
<path style="fill:none;stroke-width:0.8;stroke-linecap:butt;stroke-linejoin:round;stroke:rgb(0%,0%,0%);stroke-opacity:1;stroke-miterlimit:10;" d="M 260 768 L 284 768 " transform="matrix(1,0,0,-1,-61,771)"/>
<path style="fill-rule:evenodd;fill:rgb(0%,0%,0%);fill-opacity:1;stroke-width:0.8;stroke-linecap:butt;stroke-linejoin:round;stroke:rgb(0%,0%,0%);stroke-opacity:1;stroke-miterlimit:10;" d="M 284 768 L 281 769 L 281 767 Z M 284 768 " transform="matrix(1,0,0,-1,-61,771)"/>
<path style="fill:none;stroke-width:0.8;stroke-linecap:butt;stroke-linejoin:round;stroke:rgb(0%,0%,0%);stroke-opacity:1;stroke-miterlimit:10;" d="M 292 768 L 316 768 " transform="matrix(1,0,0,-1,-61,771)"/>
<path style="fill-rule:evenodd;fill:rgb(0%,0%,0%);fill-opacity:1;stroke-width:0.8;stroke-linecap:butt;stroke-linejoin:round;stroke:rgb(0%,0%,0%);stroke-opacity:1;stroke-miterlimit:10;" d="M 316 768 L 313 769 L 313 767 Z M 316 768 " transform="matrix(1,0,0,-1,-61,771)"/>
<path style="fill:none;stroke-width:0.8;stroke-linecap:butt;stroke-linejoin:round;stroke:rgb(0%,0%,0%);stroke-opacity:1;stroke-dasharray:4;stroke-miterlimit:10;" d="M 320 768 L 352 768 " transform="matrix(1,0,0,-1,-61,771)"/>
<path style=" stroke:none;fill-rule:evenodd;fill:rgb(0%,0%,0%);fill-opacity:1;" d="M 4.800781 227 C 4.800781 224.601562 1.199219 224.601562 1.199219 227 C 1.199219 229.398438 4.800781 229.398438 4.800781 227 Z M 4.800781 227 "/>
<path style=" stroke:none;fill-rule:evenodd;fill:rgb(0%,0%,0%);fill-opacity:1;" d="M 36.800781 227 C 36.800781 224.601562 33.199219 224.601562 33.199219 227 C 33.199219 229.398438 36.800781 229.398438 36.800781 227 Z M 36.800781 227 "/>
<path style=" stroke:none;fill-rule:evenodd;fill:rgb(0%,0%,0%);fill-opacity:1;" d="M 68.800781 227 C 68.800781 224.601562 65.199219 224.601562 65.199219 227 C 65.199219 229.398438 68.800781 229.398438 68.800781 227 Z M 68.800781 227 "/>
<path style=" stroke:none;fill-rule:evenodd;fill:rgb(0%,0%,0%);fill-opacity:1;" d="M 100.800781 227 C 100.800781 224.601562 97.199219 224.601562 97.199219 227 C 97.199219 229.398438 100.800781 229.398438 100.800781 227 Z M 100.800781 227 "/>
<path style=" stroke:none;fill-rule:evenodd;fill:rgb(0%,0%,0%);fill-opacity:1;" d="M 132.800781 227 C 132.800781 224.601562 129.199219 224.601562 129.199219 227 C 129.199219 229.398438 132.800781 229.398438 132.800781 227 Z M 132.800781 227 "/>
<path style=" stroke:none;fill-rule:evenodd;fill:rgb(0%,0%,0%);fill-opacity:1;" d="M 164.800781 227 C 164.800781 224.601562 161.199219 224.601562 161.199219 227 C 161.199219 229.398438 164.800781 229.398438 164.800781 227 Z M 164.800781 227 "/>
<path style=" stroke:none;fill-rule:evenodd;fill:rgb(0%,0%,0%);fill-opacity:1;" d="M 196.800781 227 C 196.800781 224.601562 193.199219 224.601562 193.199219 227 C 193.199219 229.398438 196.800781 229.398438 196.800781 227 Z M 196.800781 227 "/>
<path style=" stroke:none;fill-rule:evenodd;fill:rgb(0%,0%,0%);fill-opacity:1;" d="M 228.800781 227 C 228.800781 224.601562 225.199219 224.601562 225.199219 227 C 225.199219 229.398438 228.800781 229.398438 228.800781 227 Z M 228.800781 227 "/>
<path style="fill:none;stroke-width:0.8;stroke-linecap:butt;stroke-linejoin:round;stroke:rgb(0%,0%,0%);stroke-opacity:1;stroke-miterlimit:10;" d="M 68 544 L 92 544 " transform="matrix(1,0,0,-1,-61,771)"/>
<path style="fill-rule:evenodd;fill:rgb(0%,0%,0%);fill-opacity:1;stroke-width:0.8;stroke-linecap:butt;stroke-linejoin:round;stroke:rgb(0%,0%,0%);stroke-opacity:1;stroke-miterlimit:10;" d="M 92 544 L 89 545 L 89 543 Z M 92 544 " transform="matrix(1,0,0,-1,-61,771)"/>
<path style="fill:none;stroke-width:0.8;stroke-linecap:butt;stroke-linejoin:round;stroke:rgb(0%,0%,0%);stroke-opacity:1;stroke-miterlimit:10;" d="M 100 544 L 124 544 " transform="matrix(1,0,0,-1,-61,771)"/>
<path style="fill-rule:evenodd;fill:rgb(0%,0%,0%);fill-opacity:1;stroke-width:0.8;stroke-linecap:butt;stroke-linejoin:round;stroke:rgb(0%,0%,0%);stroke-opacity:1;stroke-miterlimit:10;" d="M 124 544 L 121 545 L 121 543 Z M 124 544 " transform="matrix(1,0,0,-1,-61,771)"/>
<path style="fill:none;stroke-width:0.8;stroke-linecap:butt;stroke-linejoin:round;stroke:rgb(0%,0%,0%);stroke-opacity:1;stroke-miterlimit:10;" d="M 132 544 L 156 544 " transform="matrix(1,0,0,-1,-61,771)"/>
<path style="fill-rule:evenodd;fill:rgb(0%,0%,0%);fill-opacity:1;stroke-width:0.8;stroke-linecap:butt;stroke-linejoin:round;stroke:rgb(0%,0%,0%);stroke-opacity:1;stroke-miterlimit:10;" d="M 156 544 L 153 545 L 153 543 Z M 156 544 " transform="matrix(1,0,0,-1,-61,771)"/>
<path style="fill:none;stroke-width:0.8;stroke-linecap:butt;stroke-linejoin:round;stroke:rgb(0%,0%,0%);stroke-opacity:1;stroke-miterlimit:10;" d="M 164 544 L 188 544 " transform="matrix(1,0,0,-1,-61,771)"/>
<path style="fill-rule:evenodd;fill:rgb(0%,0%,0%);fill-opacity:1;stroke-width:0.8;stroke-linecap:butt;stroke-linejoin:round;stroke:rgb(0%,0%,0%);stroke-opacity:1;stroke-miterlimit:10;" d="M 188 544 L 185 545 L 185 543 Z M 188 544 " transform="matrix(1,0,0,-1,-61,771)"/>
<path style="fill:none;stroke-width:0.8;stroke-linecap:butt;stroke-linejoin:round;stroke:rgb(0%,0%,0%);stroke-opacity:1;stroke-miterlimit:10;" d="M 196 544 L 220 544 " transform="matrix(1,0,0,-1,-61,771)"/>
<path style="fill-rule:evenodd;fill:rgb(0%,0%,0%);fill-opacity:1;stroke-width:0.8;stroke-linecap:butt;stroke-linejoin:round;stroke:rgb(0%,0%,0%);stroke-opacity:1;stroke-miterlimit:10;" d="M 220 544 L 217 545 L 217 543 Z M 220 544 " transform="matrix(1,0,0,-1,-61,771)"/>
<path style="fill:none;stroke-width:0.8;stroke-linecap:butt;stroke-linejoin:round;stroke:rgb(0%,0%,0%);stroke-opacity:1;stroke-miterlimit:10;" d="M 228 544 L 252 544 " transform="matrix(1,0,0,-1,-61,771)"/>
<path style="fill-rule:evenodd;fill:rgb(0%,0%,0%);fill-opacity:1;stroke-width:0.8;stroke-linecap:butt;stroke-linejoin:round;stroke:rgb(0%,0%,0%);stroke-opacity:1;stroke-miterlimit:10;" d="M 252 544 L 249 545 L 249 543 Z M 252 544 " transform="matrix(1,0,0,-1,-61,771)"/>
<path style="fill:none;stroke-width:0.8;stroke-linecap:butt;stroke-linejoin:round;stroke:rgb(0%,0%,0%);stroke-opacity:1;stroke-miterlimit:10;" d="M 260 544 L 284 544 " transform="matrix(1,0,0,-1,-61,771)"/>
<path style="fill-rule:evenodd;fill:rgb(0%,0%,0%);fill-opacity:1;stroke-width:0.8;stroke-linecap:butt;stroke-linejoin:round;stroke:rgb(0%,0%,0%);stroke-opacity:1;stroke-miterlimit:10;" d="M 284 544 L 281 545 L 281 543 Z M 284 544 " transform="matrix(1,0,0,-1,-61,771)"/>
<path style="fill:none;stroke-width:0.8;stroke-linecap:butt;stroke-linejoin:round;stroke:rgb(0%,0%,0%);stroke-opacity:1;stroke-miterlimit:10;" d="M 292 544 L 316 544 " transform="matrix(1,0,0,-1,-61,771)"/>
<path style="fill-rule:evenodd;fill:rgb(0%,0%,0%);fill-opacity:1;stroke-width:0.8;stroke-linecap:butt;stroke-linejoin:round;stroke:rgb(0%,0%,0%);stroke-opacity:1;stroke-miterlimit:10;" d="M 316 544 L 313 545 L 313 543 Z M 316 544 " transform="matrix(1,0,0,-1,-61,771)"/>
<path style="fill:none;stroke-width:0.8;stroke-linecap:butt;stroke-linejoin:round;stroke:rgb(0%,0%,0%);stroke-opacity:1;stroke-dasharray:4;stroke-miterlimit:10;" d="M 320 544 L 352 544 " transform="matrix(1,0,0,-1,-61,771)"/>
<path style=" stroke:none;fill-rule:evenodd;fill:rgb(0%,0%,0%);fill-opacity:1;" d="M 4.800781 195 C 4.800781 192.601562 1.199219 192.601562 1.199219 195 C 1.199219 197.398438 4.800781 197.398438 4.800781 195 Z M 4.800781 195 "/>
<path style=" stroke:none;fill-rule:evenodd;fill:rgb(0%,0%,0%);fill-opacity:1;" d="M 36.800781 195 C 36.800781 192.601562 33.199219 192.601562 33.199219 195 C 33.199219 197.398438 36.800781 197.398438 36.800781 195 Z M 36.800781 195 "/>
<path style=" stroke:none;fill-rule:evenodd;fill:rgb(0%,0%,0%);fill-opacity:1;" d="M 68.800781 195 C 68.800781 192.601562 65.199219 192.601562 65.199219 195 C 65.199219 197.398438 68.800781 197.398438 68.800781 195 Z M 68.800781 195 "/>
<path style=" stroke:none;fill-rule:evenodd;fill:rgb(0%,0%,0%);fill-opacity:1;" d="M 100.800781 195 C 100.800781 192.601562 97.199219 192.601562 97.199219 195 C 97.199219 197.398438 100.800781 197.398438 100.800781 195 Z M 100.800781 195 "/>
<path style=" stroke:none;fill-rule:evenodd;fill:rgb(0%,0%,0%);fill-opacity:1;" d="M 132.800781 195 C 132.800781 192.601562 129.199219 192.601562 129.199219 195 C 129.199219 197.398438 132.800781 197.398438 132.800781 195 Z M 132.800781 195 "/>
<path style=" stroke:none;fill-rule:evenodd;fill:rgb(0%,0%,0%);fill-opacity:1;" d="M 164.800781 195 C 164.800781 192.601562 161.199219 192.601562 161.199219 195 C 161.199219 197.398438 164.800781 197.398438 164.800781 195 Z M 164.800781 195 "/>
<path style=" stroke:none;fill-rule:evenodd;fill:rgb(0%,0%,0%);fill-opacity:1;" d="M 196.800781 195 C 196.800781 192.601562 193.199219 192.601562 193.199219 195 C 193.199219 197.398438 196.800781 197.398438 196.800781 195 Z M 196.800781 195 "/>
<path style=" stroke:none;fill-rule:evenodd;fill:rgb(0%,0%,0%);fill-opacity:1;" d="M 228.800781 195 C 228.800781 192.601562 225.199219 192.601562 225.199219 195 C 225.199219 197.398438 228.800781 197.398438 228.800781 195 Z M 228.800781 195 "/>
<path style="fill:none;stroke-width:0.8;stroke-linecap:butt;stroke-linejoin:round;stroke:rgb(0%,0%,0%);stroke-opacity:1;stroke-miterlimit:10;" d="M 68 576 L 92 576 " transform="matrix(1,0,0,-1,-61,771)"/>
<path style="fill-rule:evenodd;fill:rgb(0%,0%,0%);fill-opacity:1;stroke-width:0.8;stroke-linecap:butt;stroke-linejoin:round;stroke:rgb(0%,0%,0%);stroke-opacity:1;stroke-miterlimit:10;" d="M 92 576 L 89 577 L 89 575 Z M 92 576 " transform="matrix(1,0,0,-1,-61,771)"/>
<path style="fill:none;stroke-width:0.8;stroke-linecap:butt;stroke-linejoin:round;stroke:rgb(0%,0%,0%);stroke-opacity:1;stroke-miterlimit:10;" d="M 100 576 L 124 576 " transform="matrix(1,0,0,-1,-61,771)"/>
<path style="fill-rule:evenodd;fill:rgb(0%,0%,0%);fill-opacity:1;stroke-width:0.8;stroke-linecap:butt;stroke-linejoin:round;stroke:rgb(0%,0%,0%);stroke-opacity:1;stroke-miterlimit:10;" d="M 124 576 L 121 577 L 121 575 Z M 124 576 " transform="matrix(1,0,0,-1,-61,771)"/>
<path style="fill:none;stroke-width:0.8;stroke-linecap:butt;stroke-linejoin:round;stroke:rgb(0%,0%,0%);stroke-opacity:1;stroke-miterlimit:10;" d="M 132 576 L 156 576 " transform="matrix(1,0,0,-1,-61,771)"/>
<path style="fill-rule:evenodd;fill:rgb(0%,0%,0%);fill-opacity:1;stroke-width:0.8;stroke-linecap:butt;stroke-linejoin:round;stroke:rgb(0%,0%,0%);stroke-opacity:1;stroke-miterlimit:10;" d="M 156 576 L 153 577 L 153 575 Z M 156 576 " transform="matrix(1,0,0,-1,-61,771)"/>
<path style="fill:none;stroke-width:0.8;stroke-linecap:butt;stroke-linejoin:round;stroke:rgb(0%,0%,0%);stroke-opacity:1;stroke-miterlimit:10;" d="M 164 576 L 188 576 " transform="matrix(1,0,0,-1,-61,771)"/>
<path style="fill-rule:evenodd;fill:rgb(0%,0%,0%);fill-opacity:1;stroke-width:0.8;stroke-linecap:butt;stroke-linejoin:round;stroke:rgb(0%,0%,0%);stroke-opacity:1;stroke-miterlimit:10;" d="M 188 576 L 185 577 L 185 575 Z M 188 576 " transform="matrix(1,0,0,-1,-61,771)"/>
<path style="fill:none;stroke-width:0.8;stroke-linecap:butt;stroke-linejoin:round;stroke:rgb(0%,0%,0%);stroke-opacity:1;stroke-miterlimit:10;" d="M 196 576 L 220 576 " transform="matrix(1,0,0,-1,-61,771)"/>
<path style="fill-rule:evenodd;fill:rgb(0%,0%,0%);fill-opacity:1;stroke-width:0.8;stroke-linecap:butt;stroke-linejoin:round;stroke:rgb(0%,0%,0%);stroke-opacity:1;stroke-miterlimit:10;" d="M 220 576 L 217 577 L 217 575 Z M 220 576 " transform="matrix(1,0,0,-1,-61,771)"/>
<path style="fill:none;stroke-width:0.8;stroke-linecap:butt;stroke-linejoin:round;stroke:rgb(0%,0%,0%);stroke-opacity:1;stroke-miterlimit:10;" d="M 228 576 L 252 576 " transform="matrix(1,0,0,-1,-61,771)"/>
<path style="fill-rule:evenodd;fill:rgb(0%,0%,0%);fill-opacity:1;stroke-width:0.8;stroke-linecap:butt;stroke-linejoin:round;stroke:rgb(0%,0%,0%);stroke-opacity:1;stroke-miterlimit:10;" d="M 252 576 L 249 577 L 249 575 Z M 252 576 " transform="matrix(1,0,0,-1,-61,771)"/>
<path style="fill:none;stroke-width:0.8;stroke-linecap:butt;stroke-linejoin:round;stroke:rgb(0%,0%,0%);stroke-opacity:1;stroke-miterlimit:10;" d="M 260 576 L 284 576 " transform="matrix(1,0,0,-1,-61,771)"/>
<path style="fill-rule:evenodd;fill:rgb(0%,0%,0%);fill-opacity:1;stroke-width:0.8;stroke-linecap:butt;stroke-linejoin:round;stroke:rgb(0%,0%,0%);stroke-opacity:1;stroke-miterlimit:10;" d="M 284 576 L 281 577 L 281 575 Z M 284 576 " transform="matrix(1,0,0,-1,-61,771)"/>
<path style="fill:none;stroke-width:0.8;stroke-linecap:butt;stroke-linejoin:round;stroke:rgb(0%,0%,0%);stroke-opacity:1;stroke-miterlimit:10;" d="M 292 576 L 316 576 " transform="matrix(1,0,0,-1,-61,771)"/>
<path style="fill-rule:evenodd;fill:rgb(0%,0%,0%);fill-opacity:1;stroke-width:0.8;stroke-linecap:butt;stroke-linejoin:round;stroke:rgb(0%,0%,0%);stroke-opacity:1;stroke-miterlimit:10;" d="M 316 576 L 313 577 L 313 575 Z M 316 576 " transform="matrix(1,0,0,-1,-61,771)"/>
<path style="fill:none;stroke-width:0.8;stroke-linecap:butt;stroke-linejoin:round;stroke:rgb(0%,0%,0%);stroke-opacity:1;stroke-dasharray:4;stroke-miterlimit:10;" d="M 320 576 L 352 576 " transform="matrix(1,0,0,-1,-61,771)"/>
<path style=" stroke:none;fill-rule:evenodd;fill:rgb(0%,0%,0%);fill-opacity:1;" d="M 4.800781 163 C 4.800781 160.601562 1.199219 160.601562 1.199219 163 C 1.199219 165.398438 4.800781 165.398438 4.800781 163 Z M 4.800781 163 "/>
<path style=" stroke:none;fill-rule:evenodd;fill:rgb(0%,0%,0%);fill-opacity:1;" d="M 36.800781 163 C 36.800781 160.601562 33.199219 160.601562 33.199219 163 C 33.199219 165.398438 36.800781 165.398438 36.800781 163 Z M 36.800781 163 "/>
<path style=" stroke:none;fill-rule:evenodd;fill:rgb(0%,0%,0%);fill-opacity:1;" d="M 68.800781 163 C 68.800781 160.601562 65.199219 160.601562 65.199219 163 C 65.199219 165.398438 68.800781 165.398438 68.800781 163 Z M 68.800781 163 "/>
<path style=" stroke:none;fill-rule:evenodd;fill:rgb(0%,0%,0%);fill-opacity:1;" d="M 100.800781 163 C 100.800781 160.601562 97.199219 160.601562 97.199219 163 C 97.199219 165.398438 100.800781 165.398438 100.800781 163 Z M 100.800781 163 "/>
<path style=" stroke:none;fill-rule:evenodd;fill:rgb(0%,0%,0%);fill-opacity:1;" d="M 132.800781 163 C 132.800781 160.601562 129.199219 160.601562 129.199219 163 C 129.199219 165.398438 132.800781 165.398438 132.800781 163 Z M 132.800781 163 "/>
<path style=" stroke:none;fill-rule:evenodd;fill:rgb(0%,0%,0%);fill-opacity:1;" d="M 164.800781 163 C 164.800781 160.601562 161.199219 160.601562 161.199219 163 C 161.199219 165.398438 164.800781 165.398438 164.800781 163 Z M 164.800781 163 "/>
<path style=" stroke:none;fill-rule:evenodd;fill:rgb(0%,0%,0%);fill-opacity:1;" d="M 196.800781 163 C 196.800781 160.601562 193.199219 160.601562 193.199219 163 C 193.199219 165.398438 196.800781 165.398438 196.800781 163 Z M 196.800781 163 "/>
<path style=" stroke:none;fill-rule:evenodd;fill:rgb(0%,0%,0%);fill-opacity:1;" d="M 228.800781 163 C 228.800781 160.601562 225.199219 160.601562 225.199219 163 C 225.199219 165.398438 228.800781 165.398438 228.800781 163 Z M 228.800781 163 "/>
<path style="fill:none;stroke-width:0.8;stroke-linecap:butt;stroke-linejoin:round;stroke:rgb(0%,0%,0%);stroke-opacity:1;stroke-miterlimit:10;" d="M 68 608 L 92 608 " transform="matrix(1,0,0,-1,-61,771)"/>
<path style="fill-rule:evenodd;fill:rgb(0%,0%,0%);fill-opacity:1;stroke-width:0.8;stroke-linecap:butt;stroke-linejoin:round;stroke:rgb(0%,0%,0%);stroke-opacity:1;stroke-miterlimit:10;" d="M 92 608 L 89 609 L 89 607 Z M 92 608 " transform="matrix(1,0,0,-1,-61,771)"/>
<path style="fill:none;stroke-width:0.8;stroke-linecap:butt;stroke-linejoin:round;stroke:rgb(0%,0%,0%);stroke-opacity:1;stroke-miterlimit:10;" d="M 100 608 L 124 608 " transform="matrix(1,0,0,-1,-61,771)"/>
<path style="fill-rule:evenodd;fill:rgb(0%,0%,0%);fill-opacity:1;stroke-width:0.8;stroke-linecap:butt;stroke-linejoin:round;stroke:rgb(0%,0%,0%);stroke-opacity:1;stroke-miterlimit:10;" d="M 124 608 L 121 609 L 121 607 Z M 124 608 " transform="matrix(1,0,0,-1,-61,771)"/>
<path style="fill:none;stroke-width:0.8;stroke-linecap:butt;stroke-linejoin:round;stroke:rgb(0%,0%,0%);stroke-opacity:1;stroke-miterlimit:10;" d="M 132 608 L 156 608 " transform="matrix(1,0,0,-1,-61,771)"/>
<path style="fill-rule:evenodd;fill:rgb(0%,0%,0%);fill-opacity:1;stroke-width:0.8;stroke-linecap:butt;stroke-linejoin:round;stroke:rgb(0%,0%,0%);stroke-opacity:1;stroke-miterlimit:10;" d="M 156 608 L 153 609 L 153 607 Z M 156 608 " transform="matrix(1,0,0,-1,-61,771)"/>
<path style="fill:none;stroke-width:0.8;stroke-linecap:butt;stroke-linejoin:round;stroke:rgb(0%,0%,0%);stroke-opacity:1;stroke-miterlimit:10;" d="M 164 608 L 188 608 " transform="matrix(1,0,0,-1,-61,771)"/>
<path style="fill-rule:evenodd;fill:rgb(0%,0%,0%);fill-opacity:1;stroke-width:0.8;stroke-linecap:butt;stroke-linejoin:round;stroke:rgb(0%,0%,0%);stroke-opacity:1;stroke-miterlimit:10;" d="M 188 608 L 185 609 L 185 607 Z M 188 608 " transform="matrix(1,0,0,-1,-61,771)"/>
<path style="fill:none;stroke-width:0.8;stroke-linecap:butt;stroke-linejoin:round;stroke:rgb(0%,0%,0%);stroke-opacity:1;stroke-miterlimit:10;" d="M 196 608 L 220 608 " transform="matrix(1,0,0,-1,-61,771)"/>
<path style="fill-rule:evenodd;fill:rgb(0%,0%,0%);fill-opacity:1;stroke-width:0.8;stroke-linecap:butt;stroke-linejoin:round;stroke:rgb(0%,0%,0%);stroke-opacity:1;stroke-miterlimit:10;" d="M 220 608 L 217 609 L 217 607 Z M 220 608 " transform="matrix(1,0,0,-1,-61,771)"/>
<path style="fill:none;stroke-width:0.8;stroke-linecap:butt;stroke-linejoin:round;stroke:rgb(0%,0%,0%);stroke-opacity:1;stroke-miterlimit:10;" d="M 228 608 L 252 608 " transform="matrix(1,0,0,-1,-61,771)"/>
<path style="fill-rule:evenodd;fill:rgb(0%,0%,0%);fill-opacity:1;stroke-width:0.8;stroke-linecap:butt;stroke-linejoin:round;stroke:rgb(0%,0%,0%);stroke-opacity:1;stroke-miterlimit:10;" d="M 252 608 L 249 609 L 249 607 Z M 252 608 " transform="matrix(1,0,0,-1,-61,771)"/>
<path style="fill:none;stroke-width:0.8;stroke-linecap:butt;stroke-linejoin:round;stroke:rgb(0%,0%,0%);stroke-opacity:1;stroke-miterlimit:10;" d="M 260 608 L 284 608 " transform="matrix(1,0,0,-1,-61,771)"/>
<path style="fill-rule:evenodd;fill:rgb(0%,0%,0%);fill-opacity:1;stroke-width:0.8;stroke-linecap:butt;stroke-linejoin:round;stroke:rgb(0%,0%,0%);stroke-opacity:1;stroke-miterlimit:10;" d="M 284 608 L 281 609 L 281 607 Z M 284 608 " transform="matrix(1,0,0,-1,-61,771)"/>
<path style="fill:none;stroke-width:0.8;stroke-linecap:butt;stroke-linejoin:round;stroke:rgb(0%,0%,0%);stroke-opacity:1;stroke-miterlimit:10;" d="M 292 608 L 316 608 " transform="matrix(1,0,0,-1,-61,771)"/>
<path style="fill-rule:evenodd;fill:rgb(0%,0%,0%);fill-opacity:1;stroke-width:0.8;stroke-linecap:butt;stroke-linejoin:round;stroke:rgb(0%,0%,0%);stroke-opacity:1;stroke-miterlimit:10;" d="M 316 608 L 313 609 L 313 607 Z M 316 608 " transform="matrix(1,0,0,-1,-61,771)"/>
<path style="fill:none;stroke-width:0.8;stroke-linecap:butt;stroke-linejoin:round;stroke:rgb(0%,0%,0%);stroke-opacity:1;stroke-dasharray:4;stroke-miterlimit:10;" d="M 320 608 L 352 608 " transform="matrix(1,0,0,-1,-61,771)"/>
<path style=" stroke:none;fill-rule:evenodd;fill:rgb(0%,0%,0%);fill-opacity:1;" d="M 4.800781 131 C 4.800781 128.601562 1.199219 128.601562 1.199219 131 C 1.199219 133.398438 4.800781 133.398438 4.800781 131 Z M 4.800781 131 "/>
<path style=" stroke:none;fill-rule:evenodd;fill:rgb(0%,0%,0%);fill-opacity:1;" d="M 36.800781 131 C 36.800781 128.601562 33.199219 128.601562 33.199219 131 C 33.199219 133.398438 36.800781 133.398438 36.800781 131 Z M 36.800781 131 "/>
<path style=" stroke:none;fill-rule:evenodd;fill:rgb(0%,0%,0%);fill-opacity:1;" d="M 68.800781 131 C 68.800781 128.601562 65.199219 128.601562 65.199219 131 C 65.199219 133.398438 68.800781 133.398438 68.800781 131 Z M 68.800781 131 "/>
<path style=" stroke:none;fill-rule:evenodd;fill:rgb(0%,0%,0%);fill-opacity:1;" d="M 100.800781 131 C 100.800781 128.601562 97.199219 128.601562 97.199219 131 C 97.199219 133.398438 100.800781 133.398438 100.800781 131 Z M 100.800781 131 "/>
<path style=" stroke:none;fill-rule:evenodd;fill:rgb(0%,0%,0%);fill-opacity:1;" d="M 132.800781 131 C 132.800781 128.601562 129.199219 128.601562 129.199219 131 C 129.199219 133.398438 132.800781 133.398438 132.800781 131 Z M 132.800781 131 "/>
<path style=" stroke:none;fill-rule:evenodd;fill:rgb(0%,0%,0%);fill-opacity:1;" d="M 164.800781 131 C 164.800781 128.601562 161.199219 128.601562 161.199219 131 C 161.199219 133.398438 164.800781 133.398438 164.800781 131 Z M 164.800781 131 "/>
<path style=" stroke:none;fill-rule:evenodd;fill:rgb(0%,0%,0%);fill-opacity:1;" d="M 196.800781 131 C 196.800781 128.601562 193.199219 128.601562 193.199219 131 C 193.199219 133.398438 196.800781 133.398438 196.800781 131 Z M 196.800781 131 "/>
<path style=" stroke:none;fill-rule:evenodd;fill:rgb(0%,0%,0%);fill-opacity:1;" d="M 228.800781 131 C 228.800781 128.601562 225.199219 128.601562 225.199219 131 C 225.199219 133.398438 228.800781 133.398438 228.800781 131 Z M 228.800781 131 "/>
<path style="fill:none;stroke-width:0.8;stroke-linecap:butt;stroke-linejoin:round;stroke:rgb(0%,0%,0%);stroke-opacity:1;stroke-miterlimit:10;" d="M 68 640 L 92 640 " transform="matrix(1,0,0,-1,-61,771)"/>
<path style="fill-rule:evenodd;fill:rgb(0%,0%,0%);fill-opacity:1;stroke-width:0.8;stroke-linecap:butt;stroke-linejoin:round;stroke:rgb(0%,0%,0%);stroke-opacity:1;stroke-miterlimit:10;" d="M 92 640 L 89 641 L 89 639 Z M 92 640 " transform="matrix(1,0,0,-1,-61,771)"/>
<path style="fill:none;stroke-width:0.8;stroke-linecap:butt;stroke-linejoin:round;stroke:rgb(0%,0%,0%);stroke-opacity:1;stroke-miterlimit:10;" d="M 100 640 L 124 640 " transform="matrix(1,0,0,-1,-61,771)"/>
<path style="fill-rule:evenodd;fill:rgb(0%,0%,0%);fill-opacity:1;stroke-width:0.8;stroke-linecap:butt;stroke-linejoin:round;stroke:rgb(0%,0%,0%);stroke-opacity:1;stroke-miterlimit:10;" d="M 124 640 L 121 641 L 121 639 Z M 124 640 " transform="matrix(1,0,0,-1,-61,771)"/>
<path style="fill:none;stroke-width:0.8;stroke-linecap:butt;stroke-linejoin:round;stroke:rgb(0%,0%,0%);stroke-opacity:1;stroke-miterlimit:10;" d="M 132 640 L 156 640 " transform="matrix(1,0,0,-1,-61,771)"/>
<path style="fill-rule:evenodd;fill:rgb(0%,0%,0%);fill-opacity:1;stroke-width:0.8;stroke-linecap:butt;stroke-linejoin:round;stroke:rgb(0%,0%,0%);stroke-opacity:1;stroke-miterlimit:10;" d="M 156 640 L 153 641 L 153 639 Z M 156 640 " transform="matrix(1,0,0,-1,-61,771)"/>
<path style="fill:none;stroke-width:0.8;stroke-linecap:butt;stroke-linejoin:round;stroke:rgb(0%,0%,0%);stroke-opacity:1;stroke-miterlimit:10;" d="M 164 640 L 188 640 " transform="matrix(1,0,0,-1,-61,771)"/>
<path style="fill-rule:evenodd;fill:rgb(0%,0%,0%);fill-opacity:1;stroke-width:0.8;stroke-linecap:butt;stroke-linejoin:round;stroke:rgb(0%,0%,0%);stroke-opacity:1;stroke-miterlimit:10;" d="M 188 640 L 185 641 L 185 639 Z M 188 640 " transform="matrix(1,0,0,-1,-61,771)"/>
<path style="fill:none;stroke-width:0.8;stroke-linecap:butt;stroke-linejoin:round;stroke:rgb(0%,0%,0%);stroke-opacity:1;stroke-miterlimit:10;" d="M 196 640 L 220 640 " transform="matrix(1,0,0,-1,-61,771)"/>
<path style="fill-rule:evenodd;fill:rgb(0%,0%,0%);fill-opacity:1;stroke-width:0.8;stroke-linecap:butt;stroke-linejoin:round;stroke:rgb(0%,0%,0%);stroke-opacity:1;stroke-miterlimit:10;" d="M 220 640 L 217 641 L 217 639 Z M 220 640 " transform="matrix(1,0,0,-1,-61,771)"/>
<path style="fill:none;stroke-width:0.8;stroke-linecap:butt;stroke-linejoin:round;stroke:rgb(0%,0%,0%);stroke-opacity:1;stroke-miterlimit:10;" d="M 228 640 L 252 640 " transform="matrix(1,0,0,-1,-61,771)"/>
<path style="fill-rule:evenodd;fill:rgb(0%,0%,0%);fill-opacity:1;stroke-width:0.8;stroke-linecap:butt;stroke-linejoin:round;stroke:rgb(0%,0%,0%);stroke-opacity:1;stroke-miterlimit:10;" d="M 252 640 L 249 641 L 249 639 Z M 252 640 " transform="matrix(1,0,0,-1,-61,771)"/>
<path style="fill:none;stroke-width:0.8;stroke-linecap:butt;stroke-linejoin:round;stroke:rgb(0%,0%,0%);stroke-opacity:1;stroke-miterlimit:10;" d="M 260 640 L 284 640 " transform="matrix(1,0,0,-1,-61,771)"/>
<path style="fill-rule:evenodd;fill:rgb(0%,0%,0%);fill-opacity:1;stroke-width:0.8;stroke-linecap:butt;stroke-linejoin:round;stroke:rgb(0%,0%,0%);stroke-opacity:1;stroke-miterlimit:10;" d="M 284 640 L 281 641 L 281 639 Z M 284 640 " transform="matrix(1,0,0,-1,-61,771)"/>
<path style="fill:none;stroke-width:0.8;stroke-linecap:butt;stroke-linejoin:round;stroke:rgb(0%,0%,0%);stroke-opacity:1;stroke-miterlimit:10;" d="M 292 640 L 316 640 " transform="matrix(1,0,0,-1,-61,771)"/>
<path style="fill-rule:evenodd;fill:rgb(0%,0%,0%);fill-opacity:1;stroke-width:0.8;stroke-linecap:butt;stroke-linejoin:round;stroke:rgb(0%,0%,0%);stroke-opacity:1;stroke-miterlimit:10;" d="M 316 640 L 313 641 L 313 639 Z M 316 640 " transform="matrix(1,0,0,-1,-61,771)"/>
<path style="fill:none;stroke-width:0.8;stroke-linecap:butt;stroke-linejoin:round;stroke:rgb(0%,0%,0%);stroke-opacity:1;stroke-dasharray:4;stroke-miterlimit:10;" d="M 320 640 L 352 640 " transform="matrix(1,0,0,-1,-61,771)"/>
<path style="fill:none;stroke-width:0.8;stroke-linecap:butt;stroke-linejoin:round;stroke:rgb(0%,0%,0%);stroke-opacity:1;stroke-dasharray:4;stroke-miterlimit:10;" d="M 64 512 L 352 512 " transform="matrix(1,0,0,-1,-61,771)"/>
<path style="fill:none;stroke-width:0.8;stroke-linecap:butt;stroke-linejoin:round;stroke:rgb(0%,0%,0%);stroke-opacity:1;stroke-dasharray:4;stroke-miterlimit:10;" d="M 64 480 L 352 480 " transform="matrix(1,0,0,-1,-61,771)"/>
</g>
</svg>
