<?xml version="1.0" encoding="UTF-8"?>
<svg xmlns="http://www.w3.org/2000/svg" xmlns:xlink="http://www.w3.org/1999/xlink" width="545.7pt" height="258.2pt" viewBox="0 0 545.7 258.2" version="1.1">
<defs>
<clipPath id="clip1">
  <path d="M 481 129 L 545.699219 129 L 545.699219 194 L 481 194 Z M 481 129 "/>
</clipPath>
<clipPath id="clip2">
  <path d="M 480 128 L 545.699219 128 L 545.699219 194 L 480 194 Z M 480 128 "/>
</clipPath>
<clipPath id="clip3">
  <path d="M 481 193 L 545.699219 193 L 545.699219 258 L 481 258 Z M 481 193 "/>
</clipPath>
<clipPath id="clip4">
  <path d="M 480 192 L 545.699219 192 L 545.699219 258 L 480 258 Z M 480 192 "/>
</clipPath>
<clipPath id="clip5">
  <path d="M 417 239 L 545.699219 239 L 545.699219 258 L 417 258 Z M 417 239 "/>
</clipPath>
<clipPath id="clip6">
  <path d="M 416 239 L 545.699219 239 L 545.699219 258 L 416 258 Z M 416 239 "/>
</clipPath>
<clipPath id="clip7">
  <path d="M 417 129 L 545.699219 129 L 545.699219 147 L 417 147 Z M 417 129 "/>
</clipPath>
<clipPath id="clip8">
  <path d="M 416 128 L 545.699219 128 L 545.699219 147 L 416 147 Z M 416 128 "/>
</clipPath>
<clipPath id="clip9">
  <path d="M 527 129 L 545.699219 129 L 545.699219 258 L 527 258 Z M 527 129 "/>
</clipPath>
<clipPath id="clip10">
  <path d="M 527 128 L 545.699219 128 L 545.699219 258 L 527 258 Z M 527 128 "/>
</clipPath>
<clipPath id="clip11">
  <path d="M 288 0 L 545.699219 0 L 545.699219 258 L 288 258 Z M 288 0 "/>
</clipPath>
</defs>
<g id="surface1">
<path style="fill-rule:evenodd;fill:rgb(0%,73.699951%,83.099365%);fill-opacity:1;stroke-width:0.8;stroke-linecap:butt;stroke-linejoin:round;stroke:rgb(100%,100%,100%);stroke-opacity:1;stroke-miterlimit:10;" d="M 144.001563 639.998438 L 144.001563 511.998438 L 161.15 575.998438 Z M 144.001563 639.998438 " transform="matrix(1,0,0,-1,-14.9,641.1)"/>
<path style="fill-rule:evenodd;fill:rgb(0%,73.699951%,83.099365%);fill-opacity:1;stroke-width:0.8;stroke-linecap:butt;stroke-linejoin:round;stroke:rgb(100%,100%,100%);stroke-opacity:1;stroke-miterlimit:10;" d="M 161.15 575.998438 L 144.001563 511.998438 L 208.001563 622.85 Z M 161.15 575.998438 " transform="matrix(1,0,0,-1,-14.9,641.1)"/>
<path style="fill-rule:evenodd;fill:rgb(0%,73.699951%,83.099365%);fill-opacity:1;stroke-width:0.8;stroke-linecap:butt;stroke-linejoin:round;stroke:rgb(100%,100%,100%);stroke-opacity:1;stroke-miterlimit:10;" d="M 208.001563 622.85 L 144.001563 511.998438 L 190.849219 558.85 Z M 208.001563 622.85 " transform="matrix(1,0,0,-1,-14.9,641.1)"/>
<path style="fill-rule:evenodd;fill:rgb(0%,73.699951%,83.099365%);fill-opacity:1;stroke-width:0.8;stroke-linecap:butt;stroke-linejoin:round;stroke:rgb(100%,100%,100%);stroke-opacity:1;stroke-miterlimit:10;" d="M 190.849219 558.85 L 144.001563 511.998438 L 254.849219 575.998438 Z M 190.849219 558.85 " transform="matrix(1,0,0,-1,-14.9,641.1)"/>
<path style="fill-rule:evenodd;fill:rgb(0%,73.699951%,83.099365%);fill-opacity:1;stroke-width:0.8;stroke-linecap:butt;stroke-linejoin:round;stroke:rgb(100%,100%,100%);stroke-opacity:1;stroke-miterlimit:10;" d="M 254.849219 575.998438 L 144.001563 511.998438 L 208.001563 529.150781 Z M 254.849219 575.998438 " transform="matrix(1,0,0,-1,-14.9,641.1)"/>
<path style="fill-rule:evenodd;fill:rgb(0%,73.699951%,83.099365%);fill-opacity:1;stroke-width:0.8;stroke-linecap:butt;stroke-linejoin:round;stroke:rgb(100%,100%,100%);stroke-opacity:1;stroke-miterlimit:10;" d="M 208.001563 529.150781 L 144.001563 511.998438 L 272.001562 511.998438 Z M 208.001563 529.150781 " transform="matrix(1,0,0,-1,-14.9,641.1)"/>
<path style="fill-rule:evenodd;fill:rgb(0%,73.699951%,83.099365%);fill-opacity:1;stroke-width:0.8;stroke-linecap:butt;stroke-linejoin:round;stroke:rgb(100%,100%,100%);stroke-opacity:1;stroke-miterlimit:10;" d="M 272.001562 511.998438 L 144.001563 511.998438 L 208.001563 494.85 Z M 272.001562 511.998438 " transform="matrix(1,0,0,-1,-14.9,641.1)"/>
<path style="fill-rule:evenodd;fill:rgb(0%,73.699951%,83.099365%);fill-opacity:1;stroke-width:0.8;stroke-linecap:butt;stroke-linejoin:round;stroke:rgb(100%,100%,100%);stroke-opacity:1;stroke-miterlimit:10;" d="M 208.001563 494.85 L 144.001563 511.998438 L 254.849219 447.998438 Z M 208.001563 494.85 " transform="matrix(1,0,0,-1,-14.9,641.1)"/>
<path style="fill-rule:evenodd;fill:rgb(0%,73.699951%,83.099365%);fill-opacity:1;stroke-width:0.8;stroke-linecap:butt;stroke-linejoin:round;stroke:rgb(100%,100%,100%);stroke-opacity:1;stroke-miterlimit:10;" d="M 254.849219 447.998438 L 144.001563 511.998438 L 190.849219 465.150781 Z M 254.849219 447.998438 " transform="matrix(1,0,0,-1,-14.9,641.1)"/>
<path style="fill-rule:evenodd;fill:rgb(0%,73.699951%,83.099365%);fill-opacity:1;stroke-width:0.8;stroke-linecap:butt;stroke-linejoin:round;stroke:rgb(100%,100%,100%);stroke-opacity:1;stroke-miterlimit:10;" d="M 190.849219 465.150781 L 144.001563 511.998438 L 208.001563 401.150781 Z M 190.849219 465.150781 " transform="matrix(1,0,0,-1,-14.9,641.1)"/>
<path style="fill-rule:evenodd;fill:rgb(0%,73.699951%,83.099365%);fill-opacity:1;stroke-width:0.8;stroke-linecap:butt;stroke-linejoin:round;stroke:rgb(100%,100%,100%);stroke-opacity:1;stroke-miterlimit:10;" d="M 208.001563 401.150781 L 144.001563 511.998438 L 161.15 447.998438 Z M 208.001563 401.150781 " transform="matrix(1,0,0,-1,-14.9,641.1)"/>
<path style="fill-rule:evenodd;fill:rgb(0%,73.699951%,83.099365%);fill-opacity:1;stroke-width:0.8;stroke-linecap:butt;stroke-linejoin:round;stroke:rgb(100%,100%,100%);stroke-opacity:1;stroke-miterlimit:10;" d="M 161.15 447.998438 L 144.001563 511.998438 L 144.001563 383.998438 Z M 161.15 447.998438 " transform="matrix(1,0,0,-1,-14.9,641.1)"/>
<path style="fill-rule:evenodd;fill:rgb(0%,73.699951%,83.099365%);fill-opacity:1;stroke-width:0.8;stroke-linecap:butt;stroke-linejoin:round;stroke:rgb(100%,100%,100%);stroke-opacity:1;stroke-miterlimit:10;" d="M 144.001563 383.998438 L 144.001563 511.998438 L 126.849219 447.998438 Z M 144.001563 383.998438 " transform="matrix(1,0,0,-1,-14.9,641.1)"/>
<path style="fill-rule:evenodd;fill:rgb(0%,73.699951%,83.099365%);fill-opacity:1;stroke-width:0.8;stroke-linecap:butt;stroke-linejoin:round;stroke:rgb(100%,100%,100%);stroke-opacity:1;stroke-miterlimit:10;" d="M 126.849219 447.998438 L 144.001563 511.998438 L 80.001563 401.150781 Z M 126.849219 447.998438 " transform="matrix(1,0,0,-1,-14.9,641.1)"/>
<path style="fill-rule:evenodd;fill:rgb(0%,73.699951%,83.099365%);fill-opacity:1;stroke-width:0.8;stroke-linecap:butt;stroke-linejoin:round;stroke:rgb(100%,100%,100%);stroke-opacity:1;stroke-miterlimit:10;" d="M 80.001563 401.150781 L 144.001563 511.998438 L 97.15 465.150781 Z M 80.001563 401.150781 " transform="matrix(1,0,0,-1,-14.9,641.1)"/>
<path style="fill-rule:evenodd;fill:rgb(0%,73.699951%,83.099365%);fill-opacity:1;stroke-width:0.8;stroke-linecap:butt;stroke-linejoin:round;stroke:rgb(100%,100%,100%);stroke-opacity:1;stroke-miterlimit:10;" d="M 97.15 465.150781 L 144.001563 511.998438 L 33.15 447.998438 Z M 97.15 465.150781 " transform="matrix(1,0,0,-1,-14.9,641.1)"/>
<path style="fill-rule:evenodd;fill:rgb(0%,73.699951%,83.099365%);fill-opacity:1;stroke-width:0.8;stroke-linecap:butt;stroke-linejoin:round;stroke:rgb(100%,100%,100%);stroke-opacity:1;stroke-miterlimit:10;" d="M 33.15 447.998438 L 144.001563 511.998438 L 80.001563 494.85 Z M 33.15 447.998438 " transform="matrix(1,0,0,-1,-14.9,641.1)"/>
<path style="fill-rule:evenodd;fill:rgb(0%,73.699951%,83.099365%);fill-opacity:1;stroke-width:0.8;stroke-linecap:butt;stroke-linejoin:round;stroke:rgb(100%,100%,100%);stroke-opacity:1;stroke-miterlimit:10;" d="M 80.001563 494.85 L 144.001563 511.998438 L 16.001562 511.998438 Z M 80.001563 494.85 " transform="matrix(1,0,0,-1,-14.9,641.1)"/>
<path style="fill-rule:evenodd;fill:rgb(0%,73.699951%,83.099365%);fill-opacity:1;stroke-width:0.8;stroke-linecap:butt;stroke-linejoin:round;stroke:rgb(100%,100%,100%);stroke-opacity:1;stroke-miterlimit:10;" d="M 16.001562 511.998438 L 144.001563 511.998438 L 80.001563 529.150781 Z M 16.001562 511.998438 " transform="matrix(1,0,0,-1,-14.9,641.1)"/>
<path style="fill-rule:evenodd;fill:rgb(0%,73.699951%,83.099365%);fill-opacity:1;stroke-width:0.8;stroke-linecap:butt;stroke-linejoin:round;stroke:rgb(100%,100%,100%);stroke-opacity:1;stroke-miterlimit:10;" d="M 80.001563 529.150781 L 144.001563 511.998438 L 33.15 575.998438 Z M 80.001563 529.150781 " transform="matrix(1,0,0,-1,-14.9,641.1)"/>
<path style="fill-rule:evenodd;fill:rgb(0%,73.699951%,83.099365%);fill-opacity:1;stroke-width:0.8;stroke-linecap:butt;stroke-linejoin:round;stroke:rgb(100%,100%,100%);stroke-opacity:1;stroke-miterlimit:10;" d="M 33.15 575.998438 L 144.001563 511.998438 L 97.15 558.85 Z M 33.15 575.998438 " transform="matrix(1,0,0,-1,-14.9,641.1)"/>
<path style="fill-rule:evenodd;fill:rgb(0%,73.699951%,83.099365%);fill-opacity:1;stroke-width:0.8;stroke-linecap:butt;stroke-linejoin:round;stroke:rgb(100%,100%,100%);stroke-opacity:1;stroke-miterlimit:10;" d="M 97.15 558.85 L 144.001563 511.998438 L 80.001563 622.85 Z M 97.15 558.85 " transform="matrix(1,0,0,-1,-14.9,641.1)"/>
<path style="fill-rule:evenodd;fill:rgb(0%,73.699951%,83.099365%);fill-opacity:1;stroke-width:0.8;stroke-linecap:butt;stroke-linejoin:round;stroke:rgb(100%,100%,100%);stroke-opacity:1;stroke-miterlimit:10;" d="M 80.001563 622.85 L 144.001563 511.998438 L 126.849219 575.998438 Z M 80.001563 622.85 " transform="matrix(1,0,0,-1,-14.9,641.1)"/>
<path style="fill-rule:evenodd;fill:rgb(0%,73.699951%,83.099365%);fill-opacity:1;stroke-width:0.8;stroke-linecap:butt;stroke-linejoin:round;stroke:rgb(100%,100%,100%);stroke-opacity:1;stroke-miterlimit:10;" d="M 126.849219 575.998438 L 144.001563 511.998438 L 144.001563 639.998438 Z M 126.849219 575.998438 " transform="matrix(1,0,0,-1,-14.9,641.1)"/>
<path style="fill-rule:evenodd;fill:rgb(91.398621%,11.799622%,38.798523%);fill-opacity:1;stroke-width:0.8;stroke-linecap:butt;stroke-linejoin:round;stroke:rgb(100%,100%,100%);stroke-opacity:1;stroke-miterlimit:10;" d="M 190.849219 558.85 L 254.849219 575.998438 L 208.001563 622.85 Z M 190.849219 558.85 " transform="matrix(1,0,0,-1,-14.9,641.1)"/>
<path style="fill-rule:evenodd;fill:rgb(91.398621%,11.799622%,38.798523%);fill-opacity:1;stroke-width:0.8;stroke-linecap:butt;stroke-linejoin:round;stroke:rgb(100%,100%,100%);stroke-opacity:1;stroke-miterlimit:10;" d="M 161.15 575.998438 L 208.001563 622.85 L 144.001563 639.998438 Z M 161.15 575.998438 " transform="matrix(1,0,0,-1,-14.9,641.1)"/>
<path style="fill-rule:evenodd;fill:rgb(91.398621%,11.799622%,38.798523%);fill-opacity:1;stroke-width:0.8;stroke-linecap:butt;stroke-linejoin:round;stroke:rgb(100%,100%,100%);stroke-opacity:1;stroke-miterlimit:10;" d="M 126.849219 575.998438 L 144.001563 639.998438 L 80.001563 622.85 Z M 126.849219 575.998438 " transform="matrix(1,0,0,-1,-14.9,641.1)"/>
<path style="fill-rule:evenodd;fill:rgb(91.398621%,11.799622%,38.798523%);fill-opacity:1;stroke-width:0.8;stroke-linecap:butt;stroke-linejoin:round;stroke:rgb(100%,100%,100%);stroke-opacity:1;stroke-miterlimit:10;" d="M 97.15 558.85 L 80.001563 622.85 L 33.15 575.998438 Z M 97.15 558.85 " transform="matrix(1,0,0,-1,-14.9,641.1)"/>
<path style="fill-rule:evenodd;fill:rgb(91.398621%,11.799622%,38.798523%);fill-opacity:1;stroke-width:0.8;stroke-linecap:butt;stroke-linejoin:round;stroke:rgb(100%,100%,100%);stroke-opacity:1;stroke-miterlimit:10;" d="M 80.001563 529.150781 L 33.15 575.998438 L 16.001562 511.998438 Z M 80.001563 529.150781 " transform="matrix(1,0,0,-1,-14.9,641.1)"/>
<path style="fill-rule:evenodd;fill:rgb(91.398621%,11.799622%,38.798523%);fill-opacity:1;stroke-width:0.8;stroke-linecap:butt;stroke-linejoin:round;stroke:rgb(100%,100%,100%);stroke-opacity:1;stroke-miterlimit:10;" d="M 80.001563 494.85 L 16.001562 511.998438 L 33.15 447.998438 Z M 80.001563 494.85 " transform="matrix(1,0,0,-1,-14.9,641.1)"/>
<path style="fill-rule:evenodd;fill:rgb(91.398621%,11.799622%,38.798523%);fill-opacity:1;stroke-width:0.8;stroke-linecap:butt;stroke-linejoin:round;stroke:rgb(100%,100%,100%);stroke-opacity:1;stroke-miterlimit:10;" d="M 97.15 465.150781 L 33.15 447.998438 L 80.001563 401.150781 Z M 97.15 465.150781 " transform="matrix(1,0,0,-1,-14.9,641.1)"/>
<path style="fill-rule:evenodd;fill:rgb(91.398621%,11.799622%,38.798523%);fill-opacity:1;stroke-width:0.8;stroke-linecap:butt;stroke-linejoin:round;stroke:rgb(100%,100%,100%);stroke-opacity:1;stroke-miterlimit:10;" d="M 126.849219 447.998438 L 80.001563 401.150781 L 144.001563 383.998438 Z M 126.849219 447.998438 " transform="matrix(1,0,0,-1,-14.9,641.1)"/>
<path style="fill-rule:evenodd;fill:rgb(91.398621%,11.799622%,38.798523%);fill-opacity:1;stroke-width:0.8;stroke-linecap:butt;stroke-linejoin:round;stroke:rgb(100%,100%,100%);stroke-opacity:1;stroke-miterlimit:10;" d="M 161.15 447.998438 L 144.001563 383.998438 L 208.001563 401.150781 Z M 161.15 447.998438 " transform="matrix(1,0,0,-1,-14.9,641.1)"/>
<path style="fill-rule:evenodd;fill:rgb(91.398621%,11.799622%,38.798523%);fill-opacity:1;stroke-width:0.8;stroke-linecap:butt;stroke-linejoin:round;stroke:rgb(100%,100%,100%);stroke-opacity:1;stroke-miterlimit:10;" d="M 190.849219 465.150781 L 208.001563 401.150781 L 254.849219 447.998438 Z M 190.849219 465.150781 " transform="matrix(1,0,0,-1,-14.9,641.1)"/>
<path style="fill-rule:evenodd;fill:rgb(91.398621%,11.799622%,38.798523%);fill-opacity:1;stroke-width:0.8;stroke-linecap:butt;stroke-linejoin:round;stroke:rgb(100%,100%,100%);stroke-opacity:1;stroke-miterlimit:10;" d="M 208.001563 494.85 L 254.849219 447.998438 L 272.001562 511.998438 Z M 208.001563 494.85 " transform="matrix(1,0,0,-1,-14.9,641.1)"/>
<path style="fill-rule:evenodd;fill:rgb(91.398621%,11.799622%,38.798523%);fill-opacity:1;stroke-width:0.8;stroke-linecap:butt;stroke-linejoin:round;stroke:rgb(100%,100%,100%);stroke-opacity:1;stroke-miterlimit:10;" d="M 208.001563 529.150781 L 272.001562 511.998438 L 254.849219 575.998438 Z M 208.001563 529.150781 " transform="matrix(1,0,0,-1,-14.9,641.1)"/>
<path style="fill:none;stroke-width:1.2;stroke-linecap:butt;stroke-linejoin:round;stroke:rgb(0%,0%,0%);stroke-opacity:1;stroke-miterlimit:10;" d="M 16.001562 639.998438 L 16.001562 383.998438 L 272.001562 383.998438 L 272.001562 639.998438 Z M 16.001562 639.998438 " transform="matrix(1,0,0,-1,-14.9,641.1)"/>
<path style="fill:none;stroke-width:1.2;stroke-linecap:butt;stroke-linejoin:round;stroke:rgb(0%,0%,0%);stroke-opacity:1;stroke-miterlimit:10;" d="M 272.001562 511.998438 C 272.001562 582.69375 214.692969 639.998438 144.001563 639.998438 C 73.30625 639.998438 16.001562 582.69375 16.001562 511.998438 C 16.001562 441.307031 73.30625 383.998438 144.001563 383.998438 C 214.692969 383.998438 272.001562 441.307031 272.001562 511.998438 " transform="matrix(1,0,0,-1,-14.9,641.1)"/>
<path style="fill:none;stroke-width:1.2;stroke-linecap:butt;stroke-linejoin:round;stroke:rgb(0%,0%,0%);stroke-opacity:1;stroke-miterlimit:10;" d="M 272.001562 511.998438 L 254.849219 575.998438 L 208.001563 622.85 L 144.001563 639.998438 L 80.001563 622.85 L 33.15 575.998438 L 16.001562 511.998438 L 33.15 447.998438 L 80.001563 401.150781 L 144.001563 383.998438 L 208.001563 401.150781 L 254.849219 447.998438 Z M 272.001562 511.998438 " transform="matrix(1,0,0,-1,-14.9,641.1)"/>
<path style="fill-rule:evenodd;fill:rgb(91.398621%,11.799622%,38.798523%);fill-opacity:1;stroke-width:0.8;stroke-linecap:butt;stroke-linejoin:round;stroke:rgb(100%,100%,100%);stroke-opacity:1;stroke-miterlimit:10;" d="M 414.849219 575.998438 L 432.001562 639.998438 L 368.001562 622.85 Z M 414.849219 575.998438 " transform="matrix(1,0,0,-1,-14.9,641.1)"/>
<path style="fill-rule:evenodd;fill:rgb(91.398621%,11.799622%,38.798523%);fill-opacity:1;stroke-width:0.8;stroke-linecap:butt;stroke-linejoin:round;stroke:rgb(100%,100%,100%);stroke-opacity:1;stroke-miterlimit:10;" d="M 385.15 558.85 L 368.001562 622.85 L 321.15 575.998438 Z M 385.15 558.85 " transform="matrix(1,0,0,-1,-14.9,641.1)"/>
<path style="fill-rule:evenodd;fill:rgb(91.398621%,11.799622%,38.798523%);fill-opacity:1;stroke-width:0.8;stroke-linecap:butt;stroke-linejoin:round;stroke:rgb(100%,100%,100%);stroke-opacity:1;stroke-miterlimit:10;" d="M 368.001562 529.150781 L 321.15 575.998438 L 304.001562 511.998438 Z M 368.001562 529.150781 " transform="matrix(1,0,0,-1,-14.9,641.1)"/>
<path style="fill-rule:evenodd;fill:rgb(91.398621%,11.799622%,38.798523%);fill-opacity:1;stroke-width:0.8;stroke-linecap:butt;stroke-linejoin:round;stroke:rgb(100%,100%,100%);stroke-opacity:1;stroke-miterlimit:10;" d="M 368.001562 494.85 L 304.001562 511.998438 L 321.15 447.998438 Z M 368.001562 494.85 " transform="matrix(1,0,0,-1,-14.9,641.1)"/>
<path style="fill-rule:evenodd;fill:rgb(91.398621%,11.799622%,38.798523%);fill-opacity:1;stroke-width:0.8;stroke-linecap:butt;stroke-linejoin:round;stroke:rgb(100%,100%,100%);stroke-opacity:1;stroke-miterlimit:10;" d="M 385.15 465.150781 L 321.15 447.998438 L 368.001562 401.150781 Z M 385.15 465.150781 " transform="matrix(1,0,0,-1,-14.9,641.1)"/>
<path style="fill-rule:evenodd;fill:rgb(91.398621%,11.799622%,38.798523%);fill-opacity:1;stroke-width:0.8;stroke-linecap:butt;stroke-linejoin:round;stroke:rgb(100%,100%,100%);stroke-opacity:1;stroke-miterlimit:10;" d="M 414.849219 447.998438 L 368.001562 401.150781 L 432.001562 383.998438 Z M 414.849219 447.998438 " transform="matrix(1,0,0,-1,-14.9,641.1)"/>
<path style="fill-rule:evenodd;fill:rgb(91.398621%,11.799622%,38.798523%);fill-opacity:1;stroke-width:0.8;stroke-linecap:butt;stroke-linejoin:round;stroke:rgb(100%,100%,100%);stroke-opacity:1;stroke-miterlimit:10;" d="M 449.15 447.998438 L 432.001562 383.998438 L 496.001562 401.150781 Z M 449.15 447.998438 " transform="matrix(1,0,0,-1,-14.9,641.1)"/>
<path style="fill-rule:evenodd;fill:rgb(91.398621%,11.799622%,38.798523%);fill-opacity:1;stroke-width:0.8;stroke-linecap:butt;stroke-linejoin:round;stroke:rgb(100%,100%,100%);stroke-opacity:1;stroke-miterlimit:10;" d="M 478.849219 465.150781 L 496.001562 401.150781 L 542.849219 447.998438 Z M 478.849219 465.150781 " transform="matrix(1,0,0,-1,-14.9,641.1)"/>
<g clip-path="url(#clip1)" clip-rule="nonzero">
<path style=" stroke:none;fill-rule:evenodd;fill:rgb(91.398621%,11.799622%,38.798523%);fill-opacity:1;" d="M 481.101562 146.25 L 527.949219 193.101562 L 545.101562 129.101562 Z M 481.101562 146.25 "/>
</g>
<g clip-path="url(#clip2)" clip-rule="nonzero">
<path style="fill:none;stroke-width:0.8;stroke-linecap:butt;stroke-linejoin:round;stroke:rgb(100%,100%,100%);stroke-opacity:1;stroke-miterlimit:10;" d="M 496.001562 494.85 L 542.849219 447.998438 L 560.001562 511.998438 Z M 496.001562 494.85 " transform="matrix(1,0,0,-1,-14.9,641.1)"/>
</g>
<path style="fill-rule:evenodd;fill:rgb(91.398621%,11.799622%,38.798523%);fill-opacity:1;stroke-width:0.8;stroke-linecap:butt;stroke-linejoin:round;stroke:rgb(100%,100%,100%);stroke-opacity:1;stroke-miterlimit:10;" d="M 304.001562 639.998438 L 321.15 575.998438 L 368.001562 622.85 Z M 304.001562 639.998438 " transform="matrix(1,0,0,-1,-14.9,641.1)"/>
<g clip-path="url(#clip3)" clip-rule="nonzero">
<path style=" stroke:none;fill-rule:evenodd;fill:rgb(91.398621%,11.799622%,38.798523%);fill-opacity:1;" d="M 545.101562 257.101562 L 527.949219 193.101562 L 481.101562 239.949219 Z M 545.101562 257.101562 "/>
</g>
<g clip-path="url(#clip4)" clip-rule="nonzero">
<path style="fill:none;stroke-width:0.8;stroke-linecap:butt;stroke-linejoin:round;stroke:rgb(100%,100%,100%);stroke-opacity:1;stroke-miterlimit:10;" d="M 560.001562 383.998438 L 542.849219 447.998438 L 496.001562 401.150781 Z M 560.001562 383.998438 " transform="matrix(1,0,0,-1,-14.9,641.1)"/>
</g>
<path style="fill-rule:evenodd;fill:rgb(91.398621%,11.799622%,38.798523%);fill-opacity:1;stroke-width:0.8;stroke-linecap:butt;stroke-linejoin:round;stroke:rgb(100%,100%,100%);stroke-opacity:1;stroke-miterlimit:10;" d="M 304.001562 383.998438 L 368.001562 401.150781 L 321.15 447.998438 Z M 304.001562 383.998438 " transform="matrix(1,0,0,-1,-14.9,641.1)"/>
<path style="fill-rule:evenodd;fill:rgb(0%,73.699951%,83.099365%);fill-opacity:1;stroke-width:0.8;stroke-linecap:butt;stroke-linejoin:round;stroke:rgb(100%,100%,100%);stroke-opacity:1;stroke-miterlimit:10;" d="M 304.001562 639.998438 L 304.001562 511.998438 L 321.15 575.998438 Z M 304.001562 639.998438 " transform="matrix(1,0,0,-1,-14.9,641.1)"/>
<g clip-path="url(#clip5)" clip-rule="nonzero">
<path style=" stroke:none;fill-rule:evenodd;fill:rgb(0%,73.699951%,83.099365%);fill-opacity:1;" d="M 481.101562 239.949219 L 417.101562 257.101562 L 545.101562 257.101562 Z M 481.101562 239.949219 "/>
</g>
<g clip-path="url(#clip6)" clip-rule="nonzero">
<path style="fill:none;stroke-width:0.8;stroke-linecap:butt;stroke-linejoin:round;stroke:rgb(100%,100%,100%);stroke-opacity:1;stroke-miterlimit:10;" d="M 496.001562 401.150781 L 432.001562 383.998438 L 560.001562 383.998438 Z M 496.001562 401.150781 " transform="matrix(1,0,0,-1,-14.9,641.1)"/>
</g>
<g clip-path="url(#clip7)" clip-rule="nonzero">
<path style=" stroke:none;fill-rule:evenodd;fill:rgb(0%,73.699951%,83.099365%);fill-opacity:1;" d="M 545.101562 129.101562 L 417.101562 129.101562 L 481.101562 146.25 Z M 545.101562 129.101562 "/>
</g>
<g clip-path="url(#clip8)" clip-rule="nonzero">
<path style="fill:none;stroke-width:0.8;stroke-linecap:butt;stroke-linejoin:round;stroke:rgb(100%,100%,100%);stroke-opacity:1;stroke-miterlimit:10;" d="M 560.001562 511.998438 L 432.001562 511.998438 L 496.001562 494.85 Z M 560.001562 511.998438 " transform="matrix(1,0,0,-1,-14.9,641.1)"/>
</g>
<path style="fill-rule:evenodd;fill:rgb(0%,73.699951%,83.099365%);fill-opacity:1;stroke-width:0.8;stroke-linecap:butt;stroke-linejoin:round;stroke:rgb(100%,100%,100%);stroke-opacity:1;stroke-miterlimit:10;" d="M 496.001562 494.85 L 432.001562 511.998438 L 542.849219 447.998438 Z M 496.001562 494.85 " transform="matrix(1,0,0,-1,-14.9,641.1)"/>
<path style="fill-rule:evenodd;fill:rgb(0%,73.699951%,83.099365%);fill-opacity:1;stroke-width:0.8;stroke-linecap:butt;stroke-linejoin:round;stroke:rgb(100%,100%,100%);stroke-opacity:1;stroke-miterlimit:10;" d="M 542.849219 447.998438 L 432.001562 511.998438 L 478.849219 465.150781 Z M 542.849219 447.998438 " transform="matrix(1,0,0,-1,-14.9,641.1)"/>
<path style="fill-rule:evenodd;fill:rgb(0%,73.699951%,83.099365%);fill-opacity:1;stroke-width:0.8;stroke-linecap:butt;stroke-linejoin:round;stroke:rgb(100%,100%,100%);stroke-opacity:1;stroke-miterlimit:10;" d="M 478.849219 465.150781 L 432.001562 511.998438 L 496.001562 401.150781 Z M 478.849219 465.150781 " transform="matrix(1,0,0,-1,-14.9,641.1)"/>
<path style="fill-rule:evenodd;fill:rgb(0%,73.699951%,83.099365%);fill-opacity:1;stroke-width:0.8;stroke-linecap:butt;stroke-linejoin:round;stroke:rgb(100%,100%,100%);stroke-opacity:1;stroke-miterlimit:10;" d="M 496.001562 401.150781 L 432.001562 511.998438 L 449.15 447.998438 Z M 496.001562 401.150781 " transform="matrix(1,0,0,-1,-14.9,641.1)"/>
<path style="fill-rule:evenodd;fill:rgb(0%,73.699951%,83.099365%);fill-opacity:1;stroke-width:0.8;stroke-linecap:butt;stroke-linejoin:round;stroke:rgb(100%,100%,100%);stroke-opacity:1;stroke-miterlimit:10;" d="M 449.15 447.998438 L 432.001562 511.998438 L 432.001562 383.998438 Z M 449.15 447.998438 " transform="matrix(1,0,0,-1,-14.9,641.1)"/>
<path style="fill-rule:evenodd;fill:rgb(0%,73.699951%,83.099365%);fill-opacity:1;stroke-width:0.8;stroke-linecap:butt;stroke-linejoin:round;stroke:rgb(100%,100%,100%);stroke-opacity:1;stroke-miterlimit:10;" d="M 432.001562 383.998438 L 432.001562 511.998438 L 414.849219 447.998438 Z M 432.001562 383.998438 " transform="matrix(1,0,0,-1,-14.9,641.1)"/>
<path style="fill-rule:evenodd;fill:rgb(0%,73.699951%,83.099365%);fill-opacity:1;stroke-width:0.8;stroke-linecap:butt;stroke-linejoin:round;stroke:rgb(100%,100%,100%);stroke-opacity:1;stroke-miterlimit:10;" d="M 414.849219 447.998438 L 432.001562 511.998438 L 368.001562 401.150781 Z M 414.849219 447.998438 " transform="matrix(1,0,0,-1,-14.9,641.1)"/>
<path style="fill-rule:evenodd;fill:rgb(0%,73.699951%,83.099365%);fill-opacity:1;stroke-width:0.8;stroke-linecap:butt;stroke-linejoin:round;stroke:rgb(100%,100%,100%);stroke-opacity:1;stroke-miterlimit:10;" d="M 368.001562 401.150781 L 432.001562 511.998438 L 385.15 465.150781 Z M 368.001562 401.150781 " transform="matrix(1,0,0,-1,-14.9,641.1)"/>
<path style="fill-rule:evenodd;fill:rgb(0%,73.699951%,83.099365%);fill-opacity:1;stroke-width:0.8;stroke-linecap:butt;stroke-linejoin:round;stroke:rgb(100%,100%,100%);stroke-opacity:1;stroke-miterlimit:10;" d="M 385.15 465.150781 L 432.001562 511.998438 L 321.15 447.998438 Z M 385.15 465.150781 " transform="matrix(1,0,0,-1,-14.9,641.1)"/>
<path style="fill-rule:evenodd;fill:rgb(0%,73.699951%,83.099365%);fill-opacity:1;stroke-width:0.8;stroke-linecap:butt;stroke-linejoin:round;stroke:rgb(100%,100%,100%);stroke-opacity:1;stroke-miterlimit:10;" d="M 321.15 447.998438 L 432.001562 511.998438 L 368.001562 494.85 Z M 321.15 447.998438 " transform="matrix(1,0,0,-1,-14.9,641.1)"/>
<path style="fill-rule:evenodd;fill:rgb(0%,73.699951%,83.099365%);fill-opacity:1;stroke-width:0.8;stroke-linecap:butt;stroke-linejoin:round;stroke:rgb(100%,100%,100%);stroke-opacity:1;stroke-miterlimit:10;" d="M 368.001562 494.85 L 432.001562 511.998438 L 304.001562 511.998438 Z M 368.001562 494.85 " transform="matrix(1,0,0,-1,-14.9,641.1)"/>
<path style="fill-rule:evenodd;fill:rgb(0%,73.699951%,83.099365%);fill-opacity:1;stroke-width:0.8;stroke-linecap:butt;stroke-linejoin:round;stroke:rgb(100%,100%,100%);stroke-opacity:1;stroke-miterlimit:10;" d="M 304.001562 511.998438 L 432.001562 511.998438 L 368.001562 529.150781 Z M 304.001562 511.998438 " transform="matrix(1,0,0,-1,-14.9,641.1)"/>
<path style="fill-rule:evenodd;fill:rgb(0%,73.699951%,83.099365%);fill-opacity:1;stroke-width:0.8;stroke-linecap:butt;stroke-linejoin:round;stroke:rgb(100%,100%,100%);stroke-opacity:1;stroke-miterlimit:10;" d="M 368.001562 529.150781 L 432.001562 511.998438 L 321.15 575.998438 Z M 368.001562 529.150781 " transform="matrix(1,0,0,-1,-14.9,641.1)"/>
<path style="fill-rule:evenodd;fill:rgb(0%,73.699951%,83.099365%);fill-opacity:1;stroke-width:0.8;stroke-linecap:butt;stroke-linejoin:round;stroke:rgb(100%,100%,100%);stroke-opacity:1;stroke-miterlimit:10;" d="M 321.15 575.998438 L 432.001562 511.998438 L 385.15 558.85 Z M 321.15 575.998438 " transform="matrix(1,0,0,-1,-14.9,641.1)"/>
<path style="fill-rule:evenodd;fill:rgb(0%,73.699951%,83.099365%);fill-opacity:1;stroke-width:0.8;stroke-linecap:butt;stroke-linejoin:round;stroke:rgb(100%,100%,100%);stroke-opacity:1;stroke-miterlimit:10;" d="M 385.15 558.85 L 432.001562 511.998438 L 368.001562 622.85 Z M 385.15 558.85 " transform="matrix(1,0,0,-1,-14.9,641.1)"/>
<path style="fill-rule:evenodd;fill:rgb(0%,73.699951%,83.099365%);fill-opacity:1;stroke-width:0.8;stroke-linecap:butt;stroke-linejoin:round;stroke:rgb(100%,100%,100%);stroke-opacity:1;stroke-miterlimit:10;" d="M 368.001562 622.85 L 432.001562 511.998438 L 414.849219 575.998438 Z M 368.001562 622.85 " transform="matrix(1,0,0,-1,-14.9,641.1)"/>
<path style="fill-rule:evenodd;fill:rgb(0%,73.699951%,83.099365%);fill-opacity:1;stroke-width:0.8;stroke-linecap:butt;stroke-linejoin:round;stroke:rgb(100%,100%,100%);stroke-opacity:1;stroke-miterlimit:10;" d="M 414.849219 575.998438 L 432.001562 511.998438 L 432.001562 639.998438 Z M 414.849219 575.998438 " transform="matrix(1,0,0,-1,-14.9,641.1)"/>
<path style="fill-rule:evenodd;fill:rgb(0%,73.699951%,83.099365%);fill-opacity:1;stroke-width:0.8;stroke-linecap:butt;stroke-linejoin:round;stroke:rgb(100%,100%,100%);stroke-opacity:1;stroke-miterlimit:10;" d="M 304.001562 511.998438 L 304.001562 383.998438 L 321.15 447.998438 Z M 304.001562 511.998438 " transform="matrix(1,0,0,-1,-14.9,641.1)"/>
<path style="fill-rule:evenodd;fill:rgb(0%,73.699951%,83.099365%);fill-opacity:1;stroke-width:0.8;stroke-linecap:butt;stroke-linejoin:round;stroke:rgb(100%,100%,100%);stroke-opacity:1;stroke-miterlimit:10;" d="M 368.001562 401.150781 L 304.001562 383.998438 L 432.001562 383.998438 Z M 368.001562 401.150781 " transform="matrix(1,0,0,-1,-14.9,641.1)"/>
<g clip-path="url(#clip9)" clip-rule="nonzero">
<path style=" stroke:none;fill-rule:evenodd;fill:rgb(0%,73.699951%,83.099365%);fill-opacity:1;" d="M 527.949219 193.101562 L 545.101562 257.101562 L 545.101562 129.101562 Z M 527.949219 193.101562 "/>
</g>
<g clip-path="url(#clip10)" clip-rule="nonzero">
<path style="fill:none;stroke-width:0.8;stroke-linecap:butt;stroke-linejoin:round;stroke:rgb(100%,100%,100%);stroke-opacity:1;stroke-miterlimit:10;" d="M 542.849219 447.998438 L 560.001562 383.998438 L 560.001562 511.998438 Z M 542.849219 447.998438 " transform="matrix(1,0,0,-1,-14.9,641.1)"/>
</g>
<path style="fill-rule:evenodd;fill:rgb(0%,73.699951%,83.099365%);fill-opacity:1;stroke-width:0.8;stroke-linecap:butt;stroke-linejoin:round;stroke:rgb(100%,100%,100%);stroke-opacity:1;stroke-miterlimit:10;" d="M 432.001562 639.998438 L 304.001562 639.998438 L 368.001562 622.85 Z M 432.001562 639.998438 " transform="matrix(1,0,0,-1,-14.9,641.1)"/>
<g clip-path="url(#clip11)" clip-rule="nonzero">
<path style="fill:none;stroke-width:1.2;stroke-linecap:butt;stroke-linejoin:round;stroke:rgb(0%,0%,0%);stroke-opacity:1;stroke-miterlimit:10;" d="M 304.001562 639.998438 L 304.001562 383.998438 L 560.001562 383.998438 L 560.001562 639.998438 Z M 304.001562 639.998438 " transform="matrix(1,0,0,-1,-14.9,641.1)"/>
</g>
</g>
</svg>
