<?xml version="1.0" encoding="UTF-8"?>
<svg xmlns="http://www.w3.org/2000/svg" xmlns:xlink="http://www.w3.org/1999/xlink" width="163pt" height="83pt" viewBox="0 0 163 83" version="1.1">
<g id="surface15494">
<path style=" stroke:none;fill-rule:evenodd;fill:rgb(87.8%,87.8%,87.8%);fill-opacity:1;" d="M 1 1 L 1 81 L 161 81 L 161 1 Z M 1 1 "/>
<path style="fill:none;stroke-width:0.8;stroke-linecap:butt;stroke-linejoin:round;stroke:rgb(0%,0%,0%);stroke-opacity:1;stroke-miterlimit:10;" d="M 112 680 L 112 600 " transform="matrix(1,0,0,-1,-71,681)"/>
<path style="fill:none;stroke-width:0.8;stroke-linecap:butt;stroke-linejoin:round;stroke:rgb(0%,0%,0%);stroke-opacity:1;stroke-miterlimit:10;" d="M 96 680 L 96 600 " transform="matrix(1,0,0,-1,-71,681)"/>
<path style="fill:none;stroke-width:0.8;stroke-linecap:butt;stroke-linejoin:round;stroke:rgb(0%,0%,0%);stroke-opacity:1;stroke-miterlimit:10;" d="M 80 680 L 80 600 " transform="matrix(1,0,0,-1,-71,681)"/>
<path style="fill:none;stroke-width:0.8;stroke-linecap:butt;stroke-linejoin:round;stroke:rgb(0%,0%,0%);stroke-opacity:1;stroke-miterlimit:10;" d="M 144 680 L 144 600 " transform="matrix(1,0,0,-1,-71,681)"/>
<path style="fill:none;stroke-width:0.8;stroke-linecap:butt;stroke-linejoin:round;stroke:rgb(0%,0%,0%);stroke-opacity:1;stroke-miterlimit:10;" d="M 160 680 L 160 600 " transform="matrix(1,0,0,-1,-71,681)"/>
<path style="fill:none;stroke-width:0.8;stroke-linecap:butt;stroke-linejoin:round;stroke:rgb(0%,0%,0%);stroke-opacity:1;stroke-miterlimit:10;" d="M 176 680 L 176 600 " transform="matrix(1,0,0,-1,-71,681)"/>
<path style="fill:none;stroke-width:0.8;stroke-linecap:butt;stroke-linejoin:round;stroke:rgb(0%,0%,0%);stroke-opacity:1;stroke-miterlimit:10;" d="M 192 680 L 192 600 " transform="matrix(1,0,0,-1,-71,681)"/>
<path style="fill:none;stroke-width:0.8;stroke-linecap:butt;stroke-linejoin:round;stroke:rgb(0%,0%,0%);stroke-opacity:1;stroke-miterlimit:10;" d="M 208 680 L 208 600 " transform="matrix(1,0,0,-1,-71,681)"/>
<path style="fill:none;stroke-width:0.8;stroke-linecap:butt;stroke-linejoin:round;stroke:rgb(0%,0%,0%);stroke-opacity:1;stroke-miterlimit:10;" d="M 224 680 L 224 600 " transform="matrix(1,0,0,-1,-71,681)"/>
<path style="fill:none;stroke-width:0.8;stroke-linecap:butt;stroke-linejoin:round;stroke:rgb(0%,0%,0%);stroke-opacity:1;stroke-miterlimit:10;" d="M 72 656 L 232 656 " transform="matrix(1,0,0,-1,-71,681)"/>
<path style="fill:none;stroke-width:0.8;stroke-linecap:butt;stroke-linejoin:round;stroke:rgb(0%,0%,0%);stroke-opacity:1;stroke-miterlimit:10;" d="M 72 672 L 232 672 " transform="matrix(1,0,0,-1,-71,681)"/>
<path style="fill:none;stroke-width:0.8;stroke-linecap:butt;stroke-linejoin:round;stroke:rgb(0%,0%,0%);stroke-opacity:1;stroke-miterlimit:10;" d="M 72 624 L 232 624 " transform="matrix(1,0,0,-1,-71,681)"/>
<path style="fill:none;stroke-width:0.8;stroke-linecap:butt;stroke-linejoin:round;stroke:rgb(0%,0%,0%);stroke-opacity:1;stroke-miterlimit:10;" d="M 72 608 L 232 608 " transform="matrix(1,0,0,-1,-71,681)"/>
<path style="fill:none;stroke-width:2;stroke-linecap:butt;stroke-linejoin:round;stroke:rgb(0%,0%,0%);stroke-opacity:1;stroke-miterlimit:10;" d="M 128 680 L 128 600 " transform="matrix(1,0,0,-1,-71,681)"/>
<path style="fill:none;stroke-width:2;stroke-linecap:butt;stroke-linejoin:round;stroke:rgb(0%,0%,0%);stroke-opacity:1;stroke-miterlimit:10;" d="M 72 640 L 232 640 " transform="matrix(1,0,0,-1,-71,681)"/>
<path style=" stroke:none;fill-rule:evenodd;fill:rgb(100%,100%,100%);fill-opacity:1;" d="M 59 41 C 59 38.332031 55 38.332031 55 41 C 55 43.667969 59 43.667969 59 41 Z M 59 41 "/>
<path style=" stroke:none;fill-rule:evenodd;fill:rgb(0%,0%,0%);fill-opacity:1;" d="M 59.398438 41 C 59.398438 37.800781 54.601562 37.800781 54.601562 41 C 54.601562 44.199219 59.398438 44.199219 59.398438 41 Z M 58.601562 41 C 58.601562 38.867188 55.398438 38.867188 55.398438 41 C 55.398438 43.132812 58.601562 43.132812 58.601562 41 Z M 58.601562 41 "/>
<path style=" stroke:none;fill-rule:evenodd;fill:rgb(100%,100%,100%);fill-opacity:1;" d="M 75 41 C 75 38.332031 71 38.332031 71 41 C 71 43.667969 75 43.667969 75 41 Z M 75 41 "/>
<path style=" stroke:none;fill-rule:evenodd;fill:rgb(0%,0%,0%);fill-opacity:1;" d="M 75.398438 41 C 75.398438 37.800781 70.601562 37.800781 70.601562 41 C 70.601562 44.199219 75.398438 44.199219 75.398438 41 Z M 74.601562 41 C 74.601562 38.867188 71.398438 38.867188 71.398438 41 C 71.398438 43.132812 74.601562 43.132812 74.601562 41 Z M 74.601562 41 "/>
<path style=" stroke:none;fill-rule:evenodd;fill:rgb(100%,100%,100%);fill-opacity:1;" d="M 91 41 C 91 38.332031 87 38.332031 87 41 C 87 43.667969 91 43.667969 91 41 Z M 91 41 "/>
<path style=" stroke:none;fill-rule:evenodd;fill:rgb(0%,0%,0%);fill-opacity:1;" d="M 91.398438 41 C 91.398438 37.800781 86.601562 37.800781 86.601562 41 C 86.601562 44.199219 91.398438 44.199219 91.398438 41 Z M 90.601562 41 C 90.601562 38.867188 87.398438 38.867188 87.398438 41 C 87.398438 43.132812 90.601562 43.132812 90.601562 41 Z M 90.601562 41 "/>
<path style=" stroke:none;fill-rule:evenodd;fill:rgb(100%,100%,100%);fill-opacity:1;" d="M 107 41 C 107 38.332031 103 38.332031 103 41 C 103 43.667969 107 43.667969 107 41 Z M 107 41 "/>
<path style=" stroke:none;fill-rule:evenodd;fill:rgb(0%,0%,0%);fill-opacity:1;" d="M 107.398438 41 C 107.398438 37.800781 102.601562 37.800781 102.601562 41 C 102.601562 44.199219 107.398438 44.199219 107.398438 41 Z M 106.601562 41 C 106.601562 38.867188 103.398438 38.867188 103.398438 41 C 103.398438 43.132812 106.601562 43.132812 106.601562 41 Z M 106.601562 41 "/>
<path style=" stroke:none;fill-rule:evenodd;fill:rgb(100%,100%,100%);fill-opacity:1;" d="M 123 41 C 123 38.332031 119 38.332031 119 41 C 119 43.667969 123 43.667969 123 41 Z M 123 41 "/>
<path style=" stroke:none;fill-rule:evenodd;fill:rgb(0%,0%,0%);fill-opacity:1;" d="M 123.398438 41 C 123.398438 37.800781 118.601562 37.800781 118.601562 41 C 118.601562 44.199219 123.398438 44.199219 123.398438 41 Z M 122.601562 41 C 122.601562 38.867188 119.398438 38.867188 119.398438 41 C 119.398438 43.132812 122.601562 43.132812 122.601562 41 Z M 122.601562 41 "/>
<path style=" stroke:none;fill-rule:evenodd;fill:rgb(100%,100%,100%);fill-opacity:1;" d="M 139 41 C 139 38.332031 135 38.332031 135 41 C 135 43.667969 139 43.667969 139 41 Z M 139 41 "/>
<path style=" stroke:none;fill-rule:evenodd;fill:rgb(0%,0%,0%);fill-opacity:1;" d="M 139.398438 41 C 139.398438 37.800781 134.601562 37.800781 134.601562 41 C 134.601562 44.199219 139.398438 44.199219 139.398438 41 Z M 138.601562 41 C 138.601562 38.867188 135.398438 38.867188 135.398438 41 C 135.398438 43.132812 138.601562 43.132812 138.601562 41 Z M 138.601562 41 "/>
<path style=" stroke:none;fill-rule:evenodd;fill:rgb(100%,100%,100%);fill-opacity:1;" d="M 155 41 C 155 38.332031 151 38.332031 151 41 C 151 43.667969 155 43.667969 155 41 Z M 155 41 "/>
<path style=" stroke:none;fill-rule:evenodd;fill:rgb(0%,0%,0%);fill-opacity:1;" d="M 155.398438 41 C 155.398438 37.800781 150.601562 37.800781 150.601562 41 C 150.601562 44.199219 155.398438 44.199219 155.398438 41 Z M 154.601562 41 C 154.601562 38.867188 151.398438 38.867188 151.398438 41 C 151.398438 43.132812 154.601562 43.132812 154.601562 41 Z M 154.601562 41 "/>
<path style=" stroke:none;fill-rule:evenodd;fill:rgb(100%,100%,100%);fill-opacity:1;" d="M 43 41 C 43 38.332031 39 38.332031 39 41 C 39 43.667969 43 43.667969 43 41 Z M 43 41 "/>
<path style=" stroke:none;fill-rule:evenodd;fill:rgb(0%,0%,0%);fill-opacity:1;" d="M 43.398438 41 C 43.398438 37.800781 38.601562 37.800781 38.601562 41 C 38.601562 44.199219 43.398438 44.199219 43.398438 41 Z M 42.601562 41 C 42.601562 38.867188 39.398438 38.867188 39.398438 41 C 39.398438 43.132812 42.601562 43.132812 42.601562 41 Z M 42.601562 41 "/>
<path style=" stroke:none;fill-rule:evenodd;fill:rgb(100%,100%,100%);fill-opacity:1;" d="M 27 41 C 27 38.332031 23 38.332031 23 41 C 23 43.667969 27 43.667969 27 41 Z M 27 41 "/>
<path style=" stroke:none;fill-rule:evenodd;fill:rgb(0%,0%,0%);fill-opacity:1;" d="M 27.398438 41 C 27.398438 37.800781 22.601562 37.800781 22.601562 41 C 22.601562 44.199219 27.398438 44.199219 27.398438 41 Z M 26.601562 41 C 26.601562 38.867188 23.398438 38.867188 23.398438 41 C 23.398438 43.132812 26.601562 43.132812 26.601562 41 Z M 26.601562 41 "/>
<path style=" stroke:none;fill-rule:evenodd;fill:rgb(100%,100%,100%);fill-opacity:1;" d="M 11 41 C 11 38.332031 7 38.332031 7 41 C 7 43.667969 11 43.667969 11 41 Z M 11 41 "/>
<path style=" stroke:none;fill-rule:evenodd;fill:rgb(0%,0%,0%);fill-opacity:1;" d="M 11.398438 41 C 11.398438 37.800781 6.601562 37.800781 6.601562 41 C 6.601562 44.199219 11.398438 44.199219 11.398438 41 Z M 10.601562 41 C 10.601562 38.867188 7.398438 38.867188 7.398438 41 C 7.398438 43.132812 10.601562 43.132812 10.601562 41 Z M 10.601562 41 "/>
</g>
</svg>
