<?xml version="1.0" encoding="UTF-8"?>
<svg xmlns="http://www.w3.org/2000/svg" xmlns:xlink="http://www.w3.org/1999/xlink" width="162pt" height="82pt" viewBox="0 0 162 82" version="1.1">
<g id="surface1">
<path style=" stroke:none;fill-rule:evenodd;fill:rgb(86.999512%,86.999512%,86.999512%);fill-opacity:1;" d="M 1 1 L 1 81 L 161 81 L 161 1 Z M 1 1 "/>
<path style="fill:none;stroke-width:0.8;stroke-linecap:butt;stroke-linejoin:round;stroke:rgb(0%,0%,0%);stroke-opacity:1;stroke-miterlimit:10;" d="M 112 680 L 112 600 " transform="matrix(1,0,0,-1,-71,681)"/>
<path style="fill:none;stroke-width:0.8;stroke-linecap:butt;stroke-linejoin:round;stroke:rgb(0%,0%,0%);stroke-opacity:1;stroke-miterlimit:10;" d="M 96 680 L 96 600 " transform="matrix(1,0,0,-1,-71,681)"/>
<path style="fill:none;stroke-width:0.8;stroke-linecap:butt;stroke-linejoin:round;stroke:rgb(0%,0%,0%);stroke-opacity:1;stroke-miterlimit:10;" d="M 80 680 L 80 600 " transform="matrix(1,0,0,-1,-71,681)"/>
<path style="fill:none;stroke-width:0.8;stroke-linecap:butt;stroke-linejoin:round;stroke:rgb(0%,0%,0%);stroke-opacity:1;stroke-miterlimit:10;" d="M 144 680 L 144 600 " transform="matrix(1,0,0,-1,-71,681)"/>
<path style="fill:none;stroke-width:0.8;stroke-linecap:butt;stroke-linejoin:round;stroke:rgb(0%,0%,0%);stroke-opacity:1;stroke-miterlimit:10;" d="M 160 680 L 160 600 " transform="matrix(1,0,0,-1,-71,681)"/>
<path style="fill:none;stroke-width:0.8;stroke-linecap:butt;stroke-linejoin:round;stroke:rgb(0%,0%,0%);stroke-opacity:1;stroke-miterlimit:10;" d="M 176 680 L 176 600 " transform="matrix(1,0,0,-1,-71,681)"/>
<path style="fill:none;stroke-width:0.8;stroke-linecap:butt;stroke-linejoin:round;stroke:rgb(0%,0%,0%);stroke-opacity:1;stroke-miterlimit:10;" d="M 192 680 L 192 600 " transform="matrix(1,0,0,-1,-71,681)"/>
<path style="fill:none;stroke-width:0.8;stroke-linecap:butt;stroke-linejoin:round;stroke:rgb(0%,0%,0%);stroke-opacity:1;stroke-miterlimit:10;" d="M 208 680 L 208 600 " transform="matrix(1,0,0,-1,-71,681)"/>
<path style="fill:none;stroke-width:0.8;stroke-linecap:butt;stroke-linejoin:round;stroke:rgb(0%,0%,0%);stroke-opacity:1;stroke-miterlimit:10;" d="M 224 680 L 224 600 " transform="matrix(1,0,0,-1,-71,681)"/>
<path style="fill:none;stroke-width:0.8;stroke-linecap:butt;stroke-linejoin:round;stroke:rgb(0%,0%,0%);stroke-opacity:1;stroke-miterlimit:10;" d="M 72 656 L 232 656 " transform="matrix(1,0,0,-1,-71,681)"/>
<path style="fill:none;stroke-width:0.8;stroke-linecap:butt;stroke-linejoin:round;stroke:rgb(0%,0%,0%);stroke-opacity:1;stroke-miterlimit:10;" d="M 72 672 L 232 672 " transform="matrix(1,0,0,-1,-71,681)"/>
<path style="fill:none;stroke-width:0.8;stroke-linecap:butt;stroke-linejoin:round;stroke:rgb(0%,0%,0%);stroke-opacity:1;stroke-miterlimit:10;" d="M 72 624 L 232 624 " transform="matrix(1,0,0,-1,-71,681)"/>
<path style="fill:none;stroke-width:0.8;stroke-linecap:butt;stroke-linejoin:round;stroke:rgb(0%,0%,0%);stroke-opacity:1;stroke-miterlimit:10;" d="M 72 608 L 232 608 " transform="matrix(1,0,0,-1,-71,681)"/>
<path style="fill:none;stroke-width:2;stroke-linecap:butt;stroke-linejoin:round;stroke:rgb(0%,0%,0%);stroke-opacity:1;stroke-miterlimit:10;" d="M 128 680 L 128 600 " transform="matrix(1,0,0,-1,-71,681)"/>
<path style="fill:none;stroke-width:2;stroke-linecap:butt;stroke-linejoin:round;stroke:rgb(0%,0%,0%);stroke-opacity:1;stroke-miterlimit:10;" d="M 72 640 L 232 640 " transform="matrix(1,0,0,-1,-71,681)"/>
<path style=" stroke:none;fill-rule:evenodd;fill:rgb(100%,100%,100%);fill-opacity:1;" d="M 59 41 C 59 39.894531 58.105469 39 57 39 C 55.894531 39 55 39.894531 55 41 C 55 42.105469 55.894531 43 57 43 C 58.105469 43 59 42.105469 59 41 "/>
<path style=" stroke:none;fill-rule:evenodd;fill:rgb(0%,0%,0%);fill-opacity:1;" d="M 59.398438 41 C 59.398438 39.675781 58.324219 38.601562 57 38.601562 C 55.675781 38.601562 54.601562 39.675781 54.601562 41 C 54.601562 42.324219 55.675781 43.398438 57 43.398438 C 58.324219 43.398438 59.398438 42.324219 59.398438 41 M 58.601562 41 C 58.601562 40.117188 57.882812 39.398438 57 39.398438 C 56.117188 39.398438 55.398438 40.117188 55.398438 41 C 55.398438 41.882812 56.117188 42.601562 57 42.601562 C 57.882812 42.601562 58.601562 41.882812 58.601562 41 "/>
<path style=" stroke:none;fill-rule:evenodd;fill:rgb(100%,100%,100%);fill-opacity:1;" d="M 75 41 C 75 39.894531 74.105469 39 73 39 C 71.894531 39 71 39.894531 71 41 C 71 42.105469 71.894531 43 73 43 C 74.105469 43 75 42.105469 75 41 "/>
<path style=" stroke:none;fill-rule:evenodd;fill:rgb(0%,0%,0%);fill-opacity:1;" d="M 75.398438 41 C 75.398438 39.675781 74.324219 38.601562 73 38.601562 C 71.675781 38.601562 70.601562 39.675781 70.601562 41 C 70.601562 42.324219 71.675781 43.398438 73 43.398438 C 74.324219 43.398438 75.398438 42.324219 75.398438 41 M 74.601562 41 C 74.601562 40.117188 73.882812 39.398438 73 39.398438 C 72.117188 39.398438 71.398438 40.117188 71.398438 41 C 71.398438 41.882812 72.117188 42.601562 73 42.601562 C 73.882812 42.601562 74.601562 41.882812 74.601562 41 "/>
<path style=" stroke:none;fill-rule:evenodd;fill:rgb(100%,100%,100%);fill-opacity:1;" d="M 91 41 C 91 39.894531 90.105469 39 89 39 C 87.894531 39 87 39.894531 87 41 C 87 42.105469 87.894531 43 89 43 C 90.105469 43 91 42.105469 91 41 "/>
<path style=" stroke:none;fill-rule:evenodd;fill:rgb(0%,0%,0%);fill-opacity:1;" d="M 91.398438 41 C 91.398438 39.675781 90.324219 38.601562 89 38.601562 C 87.675781 38.601562 86.601562 39.675781 86.601562 41 C 86.601562 42.324219 87.675781 43.398438 89 43.398438 C 90.324219 43.398438 91.398438 42.324219 91.398438 41 M 90.601562 41 C 90.601562 40.117188 89.882812 39.398438 89 39.398438 C 88.117188 39.398438 87.398438 40.117188 87.398438 41 C 87.398438 41.882812 88.117188 42.601562 89 42.601562 C 89.882812 42.601562 90.601562 41.882812 90.601562 41 "/>
<path style=" stroke:none;fill-rule:evenodd;fill:rgb(100%,100%,100%);fill-opacity:1;" d="M 107 41 C 107 39.894531 106.105469 39 105 39 C 103.894531 39 103 39.894531 103 41 C 103 42.105469 103.894531 43 105 43 C 106.105469 43 107 42.105469 107 41 "/>
<path style=" stroke:none;fill-rule:evenodd;fill:rgb(0%,0%,0%);fill-opacity:1;" d="M 107.398438 41 C 107.398438 39.675781 106.324219 38.601562 105 38.601562 C 103.675781 38.601562 102.601562 39.675781 102.601562 41 C 102.601562 42.324219 103.675781 43.398438 105 43.398438 C 106.324219 43.398438 107.398438 42.324219 107.398438 41 M 106.601562 41 C 106.601562 40.117188 105.882812 39.398438 105 39.398438 C 104.117188 39.398438 103.398438 40.117188 103.398438 41 C 103.398438 41.882812 104.117188 42.601562 105 42.601562 C 105.882812 42.601562 106.601562 41.882812 106.601562 41 "/>
<path style=" stroke:none;fill-rule:evenodd;fill:rgb(100%,100%,100%);fill-opacity:1;" d="M 123 41 C 123 39.894531 122.105469 39 121 39 C 119.894531 39 119 39.894531 119 41 C 119 42.105469 119.894531 43 121 43 C 122.105469 43 123 42.105469 123 41 "/>
<path style=" stroke:none;fill-rule:evenodd;fill:rgb(0%,0%,0%);fill-opacity:1;" d="M 123.398438 41 C 123.398438 39.675781 122.324219 38.601562 121 38.601562 C 119.675781 38.601562 118.601562 39.675781 118.601562 41 C 118.601562 42.324219 119.675781 43.398438 121 43.398438 C 122.324219 43.398438 123.398438 42.324219 123.398438 41 M 122.601562 41 C 122.601562 40.117188 121.882812 39.398438 121 39.398438 C 120.117188 39.398438 119.398438 40.117188 119.398438 41 C 119.398438 41.882812 120.117188 42.601562 121 42.601562 C 121.882812 42.601562 122.601562 41.882812 122.601562 41 "/>
<path style=" stroke:none;fill-rule:evenodd;fill:rgb(100%,100%,100%);fill-opacity:1;" d="M 139 41 C 139 39.894531 138.105469 39 137 39 C 135.894531 39 135 39.894531 135 41 C 135 42.105469 135.894531 43 137 43 C 138.105469 43 139 42.105469 139 41 "/>
<path style=" stroke:none;fill-rule:evenodd;fill:rgb(0%,0%,0%);fill-opacity:1;" d="M 139.398438 41 C 139.398438 39.675781 138.324219 38.601562 137 38.601562 C 135.675781 38.601562 134.601562 39.675781 134.601562 41 C 134.601562 42.324219 135.675781 43.398438 137 43.398438 C 138.324219 43.398438 139.398438 42.324219 139.398438 41 M 138.601562 41 C 138.601562 40.117188 137.882812 39.398438 137 39.398438 C 136.117188 39.398438 135.398438 40.117188 135.398438 41 C 135.398438 41.882812 136.117188 42.601562 137 42.601562 C 137.882812 42.601562 138.601562 41.882812 138.601562 41 "/>
<path style=" stroke:none;fill-rule:evenodd;fill:rgb(100%,100%,100%);fill-opacity:1;" d="M 155 41 C 155 39.894531 154.105469 39 153 39 C 151.894531 39 151 39.894531 151 41 C 151 42.105469 151.894531 43 153 43 C 154.105469 43 155 42.105469 155 41 "/>
<path style=" stroke:none;fill-rule:evenodd;fill:rgb(0%,0%,0%);fill-opacity:1;" d="M 155.398438 41 C 155.398438 39.675781 154.324219 38.601562 153 38.601562 C 151.675781 38.601562 150.601562 39.675781 150.601562 41 C 150.601562 42.324219 151.675781 43.398438 153 43.398438 C 154.324219 43.398438 155.398438 42.324219 155.398438 41 M 154.601562 41 C 154.601562 40.117188 153.882812 39.398438 153 39.398438 C 152.117188 39.398438 151.398438 40.117188 151.398438 41 C 151.398438 41.882812 152.117188 42.601562 153 42.601562 C 153.882812 42.601562 154.601562 41.882812 154.601562 41 "/>
<path style=" stroke:none;fill-rule:evenodd;fill:rgb(100%,100%,100%);fill-opacity:1;" d="M 43 41 C 43 39.894531 42.105469 39 41 39 C 39.894531 39 39 39.894531 39 41 C 39 42.105469 39.894531 43 41 43 C 42.105469 43 43 42.105469 43 41 "/>
<path style=" stroke:none;fill-rule:evenodd;fill:rgb(0%,0%,0%);fill-opacity:1;" d="M 43.398438 41 C 43.398438 39.675781 42.324219 38.601562 41 38.601562 C 39.675781 38.601562 38.601562 39.675781 38.601562 41 C 38.601562 42.324219 39.675781 43.398438 41 43.398438 C 42.324219 43.398438 43.398438 42.324219 43.398438 41 M 42.601562 41 C 42.601562 40.117188 41.882812 39.398438 41 39.398438 C 40.117188 39.398438 39.398438 40.117188 39.398438 41 C 39.398438 41.882812 40.117188 42.601562 41 42.601562 C 41.882812 42.601562 42.601562 41.882812 42.601562 41 "/>
<path style=" stroke:none;fill-rule:evenodd;fill:rgb(100%,100%,100%);fill-opacity:1;" d="M 27 41 C 27 39.894531 26.105469 39 25 39 C 23.894531 39 23 39.894531 23 41 C 23 42.105469 23.894531 43 25 43 C 26.105469 43 27 42.105469 27 41 "/>
<path style=" stroke:none;fill-rule:evenodd;fill:rgb(0%,0%,0%);fill-opacity:1;" d="M 27.398438 41 C 27.398438 39.675781 26.324219 38.601562 25 38.601562 C 23.675781 38.601562 22.601562 39.675781 22.601562 41 C 22.601562 42.324219 23.675781 43.398438 25 43.398438 C 26.324219 43.398438 27.398438 42.324219 27.398438 41 M 26.601562 41 C 26.601562 40.117188 25.882812 39.398438 25 39.398438 C 24.117188 39.398438 23.398438 40.117188 23.398438 41 C 23.398438 41.882812 24.117188 42.601562 25 42.601562 C 25.882812 42.601562 26.601562 41.882812 26.601562 41 "/>
<path style=" stroke:none;fill-rule:evenodd;fill:rgb(100%,100%,100%);fill-opacity:1;" d="M 11 41 C 11 39.894531 10.105469 39 9 39 C 7.894531 39 7 39.894531 7 41 C 7 42.105469 7.894531 43 9 43 C 10.105469 43 11 42.105469 11 41 "/>
<path style=" stroke:none;fill-rule:evenodd;fill:rgb(0%,0%,0%);fill-opacity:1;" d="M 11.398438 41 C 11.398438 39.675781 10.324219 38.601562 9 38.601562 C 7.675781 38.601562 6.601562 39.675781 6.601562 41 C 6.601562 42.324219 7.675781 43.398438 9 43.398438 C 10.324219 43.398438 11.398438 42.324219 11.398438 41 M 10.601562 41 C 10.601562 40.117188 9.882812 39.398438 9 39.398438 C 8.117188 39.398438 7.398438 40.117188 7.398438 41 C 7.398438 41.882812 8.117188 42.601562 9 42.601562 C 9.882812 42.601562 10.601562 41.882812 10.601562 41 "/>
</g>
</svg>
