<?xml version="1.0" encoding="UTF-8"?>
<svg xmlns="http://www.w3.org/2000/svg" xmlns:xlink="http://www.w3.org/1999/xlink" width="241pt" height="168pt" viewBox="0 0 241 168" version="1.1">
<g id="surface6427">
<path style="fill:none;stroke-width:3;stroke-linecap:butt;stroke-linejoin:round;stroke:rgb(0%,0%,0%);stroke-opacity:1;stroke-miterlimit:10;" d="M 403.890625 271.566406 C 404.175781 272.523438 404.746094 274.433594 405.511719 276.59375 C 406.273438 278.757812 407.230469 281.171875 408.542969 284.011719 C 409.859375 286.855469 411.539062 290.125 413.726562 293.648438 C 415.910156 297.171875 418.609375 300.953125 420.933594 303.8125 C 423.261719 306.671875 425.210938 308.613281 427.515625 310.660156 C 429.824219 312.707031 432.480469 314.863281 435.542969 316.828125 C 438.601562 318.796875 442.066406 320.570312 445.128906 321.835938 C 448.191406 323.101562 450.859375 323.859375 453.070312 324.289062 C 455.277344 324.714844 457.03125 324.820312 458.726562 324.820312 C 460.425781 324.820312 462.0625 324.714844 463.628906 324.386719 C 465.195312 324.054688 466.6875 323.496094 468.171875 322.667969 C 469.65625 321.835938 471.128906 320.730469 472.445312 319.5 C 473.765625 318.269531 474.929688 316.910156 476 315.417969 C 477.070312 313.921875 478.050781 312.289062 478.90625 310.648438 C 479.761719 309.003906 480.488281 307.355469 481.117188 305.386719 C 481.75 303.417969 482.28125 301.125 482.640625 299.050781 C 483.003906 296.976562 483.195312 295.117188 483.3125 293.109375 C 483.433594 291.097656 483.480469 288.941406 483.429688 287.007812 C 483.375 285.074219 483.222656 283.363281 482.953125 281.417969 C 482.683594 279.472656 482.300781 277.296875 481.644531 274.609375 C 480.988281 271.921875 480.0625 268.726562 479.203125 266.144531 C 478.34375 263.5625 477.550781 261.59375 476.703125 259.664062 C 475.855469 257.738281 474.949219 255.851562 473.589844 253.480469 C 472.226562 251.113281 470.410156 248.257812 468.820312 245.953125 C 467.234375 243.648438 465.878906 241.894531 464.550781 240.277344 C 463.222656 238.664062 461.917969 237.1875 460.429688 235.648438 C 458.9375 234.109375 457.265625 232.511719 456.027344 231.386719 C 454.792969 230.261719 453.992188 229.613281 452.378906 228.480469 C 450.765625 227.34375 448.335938 225.726562 445.699219 224.304688 C 443.0625 222.878906 440.214844 221.652344 437.746094 220.902344 C 435.277344 220.148438 433.183594 219.871094 430.640625 219.839844 C 428.09375 219.808594 425.09375 220.027344 422.15625 220.75 C 419.214844 221.46875 416.335938 222.695312 414.300781 223.875 C 412.261719 225.054688 411.070312 226.1875 409.949219 227.441406 C 408.828125 228.695312 407.78125 230.070312 406.898438 231.574219 C 406.019531 233.074219 405.300781 234.710938 404.59375 236.566406 C 403.882812 238.425781 403.183594 240.507812 402.832031 241.550781 C 402.480469 242.589844 402.480469 242.589844 401.046875 243.113281 C 399.609375 243.640625 396.738281 244.6875 394.210938 245.492188 C 391.683594 246.292969 389.5 246.84375 386.457031 247.417969 C 383.410156 247.988281 379.5 248.578125 375.726562 248.953125 C 371.953125 249.328125 368.316406 249.488281 364.414062 249.53125 C 360.511719 249.578125 356.347656 249.503906 352.777344 249.308594 C 349.207031 249.117188 346.226562 248.804688 343.199219 248.359375 C 340.167969 247.914062 337.089844 247.335938 334.167969 246.65625 C 331.246094 245.980469 328.488281 245.199219 325.035156 244.085938 C 321.582031 242.976562 317.4375 241.539062 314.222656 240.289062 C 311.007812 239.039062 308.71875 237.976562 306.398438 236.722656 C 304.078125 235.472656 301.726562 234.027344 299.332031 232.332031 C 296.9375 230.636719 294.496094 228.691406 292.5625 227.046875 C 290.628906 225.402344 289.203125 224.058594 287.558594 221.695312 C 285.914062 219.332031 284.046875 215.953125 282.855469 212.5 C 281.664062 209.042969 281.144531 205.515625 281.144531 202.011719 C 281.144531 198.503906 281.664062 195.015625 282.78125 192.15625 C 283.898438 189.292969 285.613281 187.058594 287.339844 185.144531 C 289.066406 183.226562 290.804688 181.636719 292.746094 180.152344 C 294.6875 178.667969 296.832031 177.289062 298.886719 176.136719 C 300.941406 174.984375 302.90625 174.058594 305.261719 173.105469 C 307.617188 172.152344 310.359375 171.171875 313.605469 170.242188 C 316.851562 169.316406 320.597656 168.433594 324.078125 167.792969 C 327.5625 167.152344 330.777344 166.746094 334.015625 166.433594 C 337.253906 166.121094 340.511719 165.894531 343.816406 165.796875 C 347.121094 165.703125 350.472656 165.738281 353.75 165.921875 C 357.023438 166.101562 360.222656 166.433594 363.941406 167.03125 C 367.65625 167.625 371.890625 168.484375 375.644531 169.375 C 379.398438 170.265625 382.667969 171.1875 385.996094 172.316406 C 389.328125 173.445312 392.710938 174.78125 395.523438 176.023438 C 398.335938 177.265625 400.570312 178.421875 403.246094 180.023438 C 405.921875 181.628906 409.035156 183.683594 411.601562 185.617188 C 414.167969 187.550781 416.1875 189.359375 418.417969 191.605469 C 420.652344 193.847656 423.097656 196.527344 425.027344 199.328125 C 426.960938 202.132812 428.375 205.058594 429.171875 208.46875 C 429.964844 211.878906 430.136719 215.765625 429.757812 218.867188 C 429.378906 221.96875 428.449219 224.28125 427.113281 226.585938 C 425.777344 228.894531 424.035156 231.191406 423.160156 232.339844 C 422.285156 233.488281 422.277344 233.488281 422.625 232.007812 C 422.972656 230.527344 423.675781 227.570312 424.894531 224.410156 C 426.109375 221.25 427.84375 217.894531 430.132812 215.132812 C 432.425781 212.371094 435.273438 210.203125 438.5625 208.789062 C 441.855469 207.378906 445.589844 206.722656 449.140625 206.84375 C 452.691406 206.960938 456.058594 207.859375 459.308594 209.195312 C 462.558594 210.527344 465.691406 212.296875 468.882812 214.566406 C 472.078125 216.839844 475.332031 219.617188 478.792969 223.207031 C 482.25 226.796875 485.917969 231.203125 488.648438 234.863281 C 491.382812 238.527344 493.183594 241.445312 494.78125 244.34375 C 496.378906 247.242188 497.773438 250.121094 499.0625 253.109375 C 500.355469 256.097656 501.546875 259.199219 502.65625 262.648438 C 503.765625 266.097656 504.796875 269.894531 505.542969 273.621094 C 506.292969 277.347656 506.761719 280.996094 506.84375 285.214844 C 506.925781 289.429688 506.625 294.210938 505.953125 298.074219 C 505.285156 301.941406 504.246094 304.890625 503.210938 307.183594 C 502.175781 309.472656 501.144531 311.101562 499.871094 312.597656 C 498.601562 314.09375 497.089844 315.457031 494.773438 316.75 C 492.453125 318.046875 489.324219 319.277344 486.363281 319.835938 C 483.40625 320.390625 480.617188 320.277344 477.355469 319.574219 C 474.09375 318.871094 470.355469 317.578125 466.878906 315.917969 C 463.40625 314.257812 460.195312 312.226562 456.859375 309.601562 C 453.523438 306.972656 450.058594 303.75 446.574219 299.898438 C 443.085938 296.046875 439.578125 291.570312 437.027344 287.925781 C 434.476562 284.28125 432.882812 281.46875 431.25 278.246094 C 429.617188 275.023438 427.945312 271.386719 426.675781 268.328125 C 425.40625 265.265625 424.539062 262.78125 424.105469 261.539062 C 423.671875 260.296875 423.671875 260.296875 424.554688 259.183594 C 425.441406 258.070312 427.214844 255.84375 428.457031 253.78125 C 429.703125 251.71875 430.417969 249.816406 430.609375 247.34375 C 430.796875 244.875 430.457031 241.832031 429.195312 238.769531 C 427.929688 235.710938 425.746094 232.632812 423.769531 230.390625 C 421.796875 228.148438 420.039062 226.742188 417.433594 225.027344 C 414.828125 223.3125 411.378906 221.289062 408.207031 219.625 C 405.035156 217.964844 402.140625 216.660156 399.097656 215.492188 C 396.054688 214.320312 392.863281 213.289062 389.589844 212.328125 C 386.320312 211.367188 382.96875 210.476562 379.996094 209.761719 C 377.019531 209.050781 374.421875 208.515625 371.546875 207.996094 C 368.675781 207.480469 365.53125 206.980469 361.667969 206.558594 C 357.808594 206.136719 353.234375 205.789062 349.476562 205.613281 C 345.722656 205.4375 342.785156 205.433594 339.636719 205.5 C 336.484375 205.5625 333.113281 205.691406 328.863281 206.046875 C 324.613281 206.398438 319.480469 206.976562 314.46875 207.824219 C 309.453125 208.671875 304.554688 209.785156 300.484375 210.957031 C 296.414062 212.125 293.167969 213.347656 290.003906 214.839844 C 286.835938 216.335938 283.746094 218.101562 281.078125 220.027344 C 278.410156 221.957031 276.167969 224.042969 274.535156 226.238281 C 272.902344 228.433594 271.878906 230.734375 271.421875 233.078125 C 270.964844 235.421875 271.074219 237.808594 271.929688 240.550781 C 272.785156 243.296875 274.390625 246.394531 276.164062 248.929688 C 277.941406 251.460938 279.890625 253.429688 282.472656 255.40625 C 285.058594 257.386719 288.273438 259.378906 291.808594 261.246094 C 295.339844 263.113281 299.191406 264.859375 303.75 266.535156 C 308.308594 268.210938 313.574219 269.816406 318.414062 271.066406 C 323.25 272.320312 327.660156 273.210938 332.066406 273.917969 C 336.476562 274.621094 340.886719 275.140625 345.675781 275.503906 C 350.464844 275.867188 355.632812 276.074219 360.949219 276.054688 C 366.261719 276.035156 371.726562 275.789062 376.761719 275.367188 C 381.792969 274.945312 386.394531 274.351562 390.796875 273.53125 C 395.199219 272.710938 399.402344 271.660156 401.503906 271.136719 C 403.605469 270.609375 403.605469 270.609375 403.890625 271.566406 Z M 403.890625 271.566406 " transform="matrix(1,0,0,-1,-268,329)"/>
<path style="fill:none;stroke-width:6;stroke-linecap:butt;stroke-linejoin:round;stroke:rgb(0%,0%,0%);stroke-opacity:1;stroke-miterlimit:10;" d="M 429.097656 230.375 C 427.324219 251.046875 391.589844 265.011719 349.285156 261.570312 C 306.980469 258.125 274.125 238.578125 275.898438 217.90625 C 277.671875 197.238281 313.40625 183.273438 355.710938 186.714844 C 398.015625 190.160156 430.871094 209.707031 429.097656 230.375 Z M 429.097656 230.375 " transform="matrix(1,0,0,-1,-268,329)"/>
<path style="fill:none;stroke-width:6;stroke-linecap:butt;stroke-linejoin:round;stroke:rgb(0%,0%,0%);stroke-opacity:1;stroke-miterlimit:10;" d="M 476.132812 322.90625 C 456.828125 327.578125 430.894531 306.664062 418.203125 276.195312 C 405.515625 245.726562 410.875 217.238281 430.175781 212.566406 C 449.480469 207.894531 475.414062 228.808594 488.105469 259.277344 C 500.792969 289.746094 495.433594 318.234375 476.132812 322.90625 Z M 476.132812 322.90625 " transform="matrix(1,0,0,-1,-268,329)"/>
<path style="fill:none;stroke-width:9;stroke-linecap:butt;stroke-linejoin:round;stroke:rgb(100%,100%,100%);stroke-opacity:1;stroke-miterlimit:10;" d="M 276.375 215.039062 C 276.375 215.039062 276.375 215.039062 276.488281 214.679688 C 276.597656 214.316406 276.824219 213.597656 277.121094 212.824219 C 277.421875 212.050781 277.796875 211.222656 278.210938 210.433594 C 278.628906 209.640625 279.082031 208.890625 279.503906 208.253906 C 279.921875 207.621094 280.308594 207.101562 280.695312 206.613281 C 281.085938 206.121094 281.476562 205.664062 281.898438 205.199219 C 282.316406 204.738281 282.769531 204.269531 283.285156 203.773438 C 283.800781 203.273438 284.382812 202.742188 284.914062 202.28125 C 285.445312 201.824219 285.921875 201.433594 286.460938 201.019531 C 287 200.605469 287.601562 200.164062 288.085938 199.820312 C 288.570312 199.472656 288.941406 199.226562 289.125 199.101562 C 289.3125 198.976562 289.3125 198.976562 289.3125 198.976562 " transform="matrix(1,0,0,-1,-268,329)"/>
<path style="fill:none;stroke-width:6;stroke-linecap:butt;stroke-linejoin:round;stroke:rgb(0%,0%,0%);stroke-opacity:1;stroke-miterlimit:10;" d="M 275.878906 218.148438 C 275.878906 218.148438 275.878906 218.148438 275.941406 217.726562 C 276 217.308594 276.121094 216.46875 276.304688 215.613281 C 276.492188 214.753906 276.746094 213.878906 277.066406 213.003906 C 277.390625 212.132812 277.78125 211.261719 278.203125 210.453125 C 278.628906 209.640625 279.082031 208.890625 279.503906 208.253906 C 279.921875 207.621094 280.308594 207.101562 280.695312 206.613281 C 281.085938 206.121094 281.476562 205.664062 281.898438 205.199219 C 282.316406 204.738281 282.769531 204.269531 283.285156 203.773438 C 283.800781 203.273438 284.382812 202.742188 284.914062 202.28125 C 285.445312 201.824219 285.921875 201.433594 286.53125 200.972656 C 287.140625 200.515625 287.878906 199.984375 288.601562 199.488281 C 289.324219 198.992188 290.03125 198.535156 290.78125 198.078125 C 291.53125 197.621094 292.328125 197.167969 292.722656 196.941406 C 293.121094 196.714844 293.121094 196.714844 293.121094 196.714844 " transform="matrix(1,0,0,-1,-268,329)"/>
<path style="fill:none;stroke-width:6;stroke-linecap:butt;stroke-linejoin:round;stroke:rgb(100%,100%,100%);stroke-opacity:1;stroke-miterlimit:10;" d="M 272.285156 230.1875 C 272.285156 230.1875 272.285156 230.1875 272.488281 229.785156 C 272.691406 229.382812 273.097656 228.574219 273.5625 227.800781 C 274.027344 227.027344 274.550781 226.285156 275.175781 225.523438 C 275.796875 224.765625 276.519531 223.984375 277.53125 223.054688 C 278.542969 222.128906 279.847656 221.050781 280.5 220.515625 C 281.152344 219.976562 281.152344 219.976562 281.152344 219.976562 " transform="matrix(1,0,0,-1,-268,329)"/>
<path style="fill:none;stroke-width:3;stroke-linecap:butt;stroke-linejoin:round;stroke:rgb(0%,0%,0%);stroke-opacity:1;stroke-miterlimit:10;" d="M 271.324219 233.625 C 271.324219 233.625 271.324219 233.625 271.378906 233.375 C 271.429688 233.128906 271.53125 232.632812 271.671875 232.101562 C 271.8125 231.574219 271.988281 231.011719 272.160156 230.492188 C 272.335938 229.972656 272.507812 229.492188 272.707031 229.011719 C 272.90625 228.527344 273.136719 228.046875 273.535156 227.46875 C 273.933594 226.890625 274.503906 226.21875 275.335938 225.351562 C 276.164062 224.484375 277.253906 223.425781 278.085938 222.613281 C 278.917969 221.800781 279.492188 221.238281 280.199219 220.675781 C 280.902344 220.113281 281.742188 219.550781 282.160156 219.269531 C 282.578125 218.992188 282.578125 218.992188 282.578125 218.992188 " transform="matrix(1,0,0,-1,-268,329)"/>
<path style="fill:none;stroke-width:6;stroke-linecap:butt;stroke-linejoin:round;stroke:rgb(100%,100%,100%);stroke-opacity:1;stroke-miterlimit:10;" d="M 280.832031 220.207031 C 280.832031 220.207031 280.832031 220.207031 280.953125 220.121094 C 281.070312 220.035156 281.308594 219.863281 281.640625 219.636719 C 281.96875 219.410156 282.386719 219.125 282.910156 218.785156 C 283.433594 218.445312 284.0625 218.054688 284.574219 217.742188 C 285.085938 217.429688 285.484375 217.199219 285.910156 216.960938 C 286.332031 216.722656 286.777344 216.476562 287.265625 216.21875 C 287.75 215.960938 288.277344 215.691406 288.707031 215.476562 C 289.140625 215.257812 289.476562 215.09375 289.648438 215.011719 C 289.816406 214.929688 289.816406 214.929688 289.816406 214.929688 " transform="matrix(1,0,0,-1,-268,329)"/>
<path style="fill:none;stroke-width:3;stroke-linecap:butt;stroke-linejoin:round;stroke:rgb(0%,0%,0%);stroke-opacity:1;stroke-miterlimit:10;" d="M 278.660156 222.027344 C 278.660156 222.027344 278.660156 222.027344 278.964844 221.761719 C 279.269531 221.492188 279.878906 220.957031 280.519531 220.460938 C 281.15625 219.964844 281.820312 219.507812 282.523438 219.046875 C 283.222656 218.589844 283.957031 218.125 284.625 217.71875 C 285.296875 217.3125 285.90625 216.964844 286.484375 216.648438 C 287.0625 216.328125 287.613281 216.035156 288.308594 215.6875 C 289 215.339844 289.835938 214.9375 290.597656 214.582031 C 291.363281 214.230469 292.050781 213.929688 292.398438 213.777344 C 292.742188 213.625 292.742188 213.625 292.742188 213.625 " transform="matrix(1,0,0,-1,-268,329)"/>
<path style="fill:none;stroke-width:9;stroke-linecap:butt;stroke-linejoin:round;stroke:rgb(100%,100%,100%);stroke-opacity:1;stroke-miterlimit:10;" d="M 450.902344 317.15625 C 450.902344 317.15625 450.902344 317.15625 451.519531 317.507812 C 452.132812 317.855469 453.367188 318.554688 454.710938 319.234375 C 456.054688 319.910156 457.511719 320.5625 459.265625 321.191406 C 461.019531 321.816406 463.074219 322.414062 464.722656 322.792969 C 466.371094 323.171875 467.617188 323.335938 468.832031 323.414062 C 470.042969 323.492188 471.222656 323.488281 472.378906 323.402344 C 473.539062 323.316406 474.675781 323.148438 475.773438 322.902344 C 476.867188 322.65625 477.921875 322.328125 478.878906 321.960938 C 479.835938 321.59375 480.699219 321.179688 481.675781 320.59375 C 482.648438 320.003906 483.738281 319.242188 484.71875 318.425781 C 485.699219 317.605469 486.570312 316.726562 487.007812 316.289062 C 487.445312 315.847656 487.445312 315.847656 487.445312 315.847656 " transform="matrix(1,0,0,-1,-268,329)"/>
<path style="fill:none;stroke-width:6;stroke-linecap:butt;stroke-linejoin:round;stroke:rgb(0%,0%,0%);stroke-opacity:1;stroke-miterlimit:10;" d="M 448.003906 315.234375 C 448.003906 315.234375 448.003906 315.234375 448.710938 315.71875 C 449.417969 316.203125 450.835938 317.175781 452.398438 318.066406 C 453.964844 318.957031 455.675781 319.765625 457.5625 320.519531 C 459.449219 321.273438 461.503906 321.972656 463.417969 322.457031 C 465.328125 322.945312 467.097656 323.21875 468.570312 323.355469 C 470.042969 323.492188 471.222656 323.488281 472.378906 323.402344 C 473.539062 323.316406 474.675781 323.148438 475.773438 322.902344 C 476.867188 322.65625 477.921875 322.328125 479.011719 321.859375 C 480.101562 321.390625 481.226562 320.777344 482.429688 319.980469 C 483.632812 319.183594 484.910156 318.203125 486.058594 317.078125 C 487.210938 315.953125 488.234375 314.6875 488.746094 314.054688 C 489.257812 313.421875 489.257812 313.421875 489.257812 313.421875 " transform="matrix(1,0,0,-1,-268,329)"/>
<path style="fill:none;stroke-width:6;stroke-linecap:butt;stroke-linejoin:round;stroke:rgb(100%,100%,100%);stroke-opacity:1;stroke-miterlimit:10;" d="M 464.691406 314.804688 C 464.691406 314.804688 464.691406 314.804688 465.175781 315.046875 C 465.664062 315.289062 466.636719 315.777344 467.480469 316.171875 C 468.324219 316.570312 469.035156 316.875 469.742188 317.164062 C 470.445312 317.449219 471.140625 317.714844 472.054688 318.023438 C 472.96875 318.335938 474.101562 318.695312 475.1875 318.992188 C 476.277344 319.292969 477.324219 319.535156 478.359375 319.71875 C 479.394531 319.902344 480.421875 320.027344 481.726562 320.042969 C 483.03125 320.058594 484.613281 319.960938 485.949219 319.773438 C 487.285156 319.589844 488.378906 319.3125 489.460938 318.96875 C 490.539062 318.625 491.609375 318.210938 492.550781 317.796875 C 493.496094 317.382812 494.3125 316.964844 495.140625 316.46875 C 495.964844 315.96875 496.804688 315.390625 497.222656 315.101562 C 497.644531 314.808594 497.644531 314.808594 497.644531 314.808594 " transform="matrix(1,0,0,-1,-268,329)"/>
<path style="fill:none;stroke-width:3;stroke-linecap:butt;stroke-linejoin:round;stroke:rgb(0%,0%,0%);stroke-opacity:1;stroke-miterlimit:10;" d="M 463.386719 314.070312 C 463.386719 314.070312 463.386719 314.070312 463.820312 314.308594 C 464.257812 314.542969 465.128906 315.015625 466.03125 315.46875 C 466.9375 315.921875 467.871094 316.355469 468.84375 316.773438 C 469.816406 317.1875 470.828125 317.582031 471.898438 317.960938 C 472.96875 318.335938 474.101562 318.695312 475.1875 318.992188 C 476.277344 319.292969 477.324219 319.535156 478.359375 319.71875 C 479.394531 319.902344 480.421875 320.027344 481.726562 320.042969 C 483.03125 320.058594 484.613281 319.960938 486.167969 319.699219 C 487.722656 319.4375 489.253906 319.007812 490.6875 318.488281 C 492.125 317.972656 493.46875 317.363281 494.625 316.753906 C 495.777344 316.144531 496.746094 315.535156 497.578125 314.851562 C 498.410156 314.171875 499.109375 313.421875 499.460938 313.046875 C 499.808594 312.671875 499.808594 312.671875 499.808594 312.671875 " transform="matrix(1,0,0,-1,-268,329)"/>
<path style="fill:none;stroke-width:6;stroke-linecap:butt;stroke-linejoin:round;stroke:rgb(100%,100%,100%);stroke-opacity:1;stroke-miterlimit:10;" d="M 445.296875 207.007812 C 445.296875 207.007812 445.296875 207.007812 444.671875 207.132812 C 444.050781 207.253906 442.804688 207.496094 441.390625 207.9375 C 439.972656 208.375 438.386719 209.007812 436.945312 209.769531 C 435.507812 210.527344 434.214844 211.414062 432.996094 212.464844 C 431.773438 213.519531 430.625 214.738281 430.050781 215.347656 C 429.476562 215.960938 429.476562 215.960938 429.476562 215.960938 " transform="matrix(1,0,0,-1,-268,329)"/>
<path style="fill:none;stroke-width:3;stroke-linecap:butt;stroke-linejoin:round;stroke:rgb(0%,0%,0%);stroke-opacity:1;stroke-miterlimit:10;" d="M 447.25 206.851562 C 447.25 206.851562 447.25 206.851562 446.5 206.894531 C 445.746094 206.941406 444.246094 207.035156 442.503906 207.5 C 440.761719 207.964844 438.777344 208.804688 437.140625 209.664062 C 435.507812 210.527344 434.214844 211.414062 432.996094 212.464844 C 431.773438 213.519531 430.625 214.738281 430.050781 215.347656 C 429.476562 215.960938 429.476562 215.960938 429.476562 215.960938 " transform="matrix(1,0,0,-1,-268,329)"/>
<path style="fill:none;stroke-width:6;stroke-linecap:butt;stroke-linejoin:round;stroke:rgb(100%,100%,100%);stroke-opacity:1;stroke-miterlimit:10;" d="M 427.257812 203.109375 C 427.257812 203.109375 427.257812 203.109375 427.492188 203.6875 C 427.722656 204.265625 428.1875 205.425781 428.570312 206.652344 C 428.957031 207.882812 429.257812 209.183594 429.464844 210.328125 C 429.667969 211.476562 429.777344 212.464844 429.839844 213.367188 C 429.90625 214.269531 429.925781 215.085938 429.925781 215.753906 C 429.929688 216.425781 429.90625 216.949219 429.898438 217.210938 C 429.886719 217.472656 429.886719 217.472656 429.886719 217.472656 " transform="matrix(1,0,0,-1,-268,329)"/>
<path style="fill:none;stroke-width:3;stroke-linecap:butt;stroke-linejoin:round;stroke:rgb(0%,0%,0%);stroke-opacity:1;stroke-miterlimit:10;" d="M 424.398438 198.445312 C 424.398438 198.445312 424.398438 198.445312 424.835938 199.109375 C 425.273438 199.773438 426.144531 201.105469 426.863281 202.363281 C 427.582031 203.625 428.148438 204.820312 428.570312 206.160156 C 428.996094 207.503906 429.277344 208.996094 429.472656 210.234375 C 429.667969 211.476562 429.777344 212.464844 429.84375 213.460938 C 429.910156 214.457031 429.933594 215.457031 429.925781 216.25 C 429.914062 217.042969 429.871094 217.625 429.851562 217.917969 C 429.828125 218.210938 429.828125 218.210938 429.828125 218.210938 " transform="matrix(1,0,0,-1,-268,329)"/>
<path style="fill:none;stroke-width:9;stroke-linecap:butt;stroke-linejoin:round;stroke:rgb(100%,100%,100%);stroke-opacity:1;stroke-miterlimit:10;" d="M 417.21875 207.890625 C 417.21875 207.890625 417.21875 207.890625 417.792969 208.417969 C 418.363281 208.941406 419.507812 209.992188 420.558594 211.054688 C 421.605469 212.117188 422.558594 213.191406 423.609375 214.636719 C 424.664062 216.082031 425.8125 217.898438 426.695312 219.703125 C 427.574219 221.507812 428.1875 223.300781 428.554688 224.78125 C 428.921875 226.257812 429.042969 227.417969 429.0625 228.535156 C 429.082031 229.65625 429 230.730469 428.835938 231.761719 C 428.671875 232.792969 428.425781 233.777344 428.042969 234.851562 C 427.660156 235.925781 427.144531 237.09375 426.546875 238.191406 C 425.945312 239.285156 425.265625 240.316406 424.925781 240.828125 C 424.585938 241.34375 424.585938 241.34375 424.585938 241.34375 " transform="matrix(1,0,0,-1,-268,329)"/>
<path style="fill:none;stroke-width:6;stroke-linecap:butt;stroke-linejoin:round;stroke:rgb(0%,0%,0%);stroke-opacity:1;stroke-miterlimit:10;" d="M 414.460938 205.734375 C 414.460938 205.734375 414.460938 205.734375 415.257812 206.351562 C 416.054688 206.972656 417.648438 208.210938 419.0625 209.515625 C 420.472656 210.816406 421.703125 212.183594 422.988281 213.894531 C 424.277344 215.605469 425.621094 217.660156 426.597656 219.582031 C 427.574219 221.507812 428.1875 223.300781 428.554688 224.78125 C 428.921875 226.257812 429.042969 227.417969 429.0625 228.535156 C 429.082031 229.65625 429 230.730469 428.785156 231.902344 C 428.570312 233.074219 428.222656 234.339844 427.714844 235.671875 C 427.203125 237.003906 426.535156 238.398438 425.71875 239.675781 C 424.898438 240.949219 423.933594 242.101562 423.449219 242.679688 C 422.96875 243.257812 422.96875 243.257812 422.96875 243.257812 " transform="matrix(1,0,0,-1,-268,329)"/>
<path style="fill:none;stroke-width:6;stroke-linecap:butt;stroke-linejoin:round;stroke:rgb(100%,100%,100%);stroke-opacity:1;stroke-miterlimit:10;" d="M 410.449219 220.835938 C 410.449219 220.835938 410.449219 220.835938 411.136719 221.234375 C 411.824219 221.632812 413.203125 222.429688 414.691406 223.351562 C 416.179688 224.273438 417.78125 225.324219 419.363281 226.578125 C 420.949219 227.828125 422.515625 229.289062 423.738281 230.59375 C 424.957031 231.902344 425.835938 233.058594 426.742188 234.433594 C 427.652344 235.804688 428.59375 237.394531 429.277344 239.03125 C 429.960938 240.667969 430.390625 242.355469 430.554688 243.898438 C 430.71875 245.445312 430.613281 246.851562 430.5625 247.554688 C 430.511719 248.257812 430.511719 248.257812 430.511719 248.257812 " transform="matrix(1,0,0,-1,-268,329)"/>
<path style="fill:none;stroke-width:3;stroke-linecap:butt;stroke-linejoin:round;stroke:rgb(0%,0%,0%);stroke-opacity:1;stroke-miterlimit:10;" d="M 408.246094 219.644531 C 408.246094 219.644531 408.246094 219.644531 409.121094 220.117188 C 410 220.585938 411.753906 221.527344 413.472656 222.546875 C 415.1875 223.570312 416.863281 224.671875 418.625 226.050781 C 420.386719 227.429688 422.234375 229.089844 423.597656 230.496094 C 424.957031 231.902344 425.835938 233.058594 426.753906 234.574219 C 427.671875 236.089844 428.628906 237.960938 429.261719 239.488281 C 429.890625 241.015625 430.191406 242.199219 430.367188 243.296875 C 430.542969 244.398438 430.597656 245.414062 430.601562 246.351562 C 430.605469 247.289062 430.558594 248.148438 430.332031 249.121094 C 430.101562 250.09375 429.695312 251.175781 429.492188 251.714844 C 429.289062 252.257812 429.289062 252.257812 429.289062 252.257812 " transform="matrix(1,0,0,-1,-268,329)"/>
<path style="fill:none;stroke-width:6;stroke-linecap:butt;stroke-linejoin:miter;stroke:rgb(0%,0%,0%);stroke-opacity:1;stroke-miterlimit:10;" d="M 338.675781 186.265625 C 338.675781 186.265625 338.675781 186.265625 340.050781 186.261719 C 341.425781 186.257812 344.175781 186.253906 346.800781 186.3125 C 349.425781 186.371094 351.929688 186.492188 353.179688 186.554688 C 354.429688 186.617188 354.429688 186.617188 354.429688 186.617188 " transform="matrix(1,0,0,-1,-268,329)"/>
<path style="fill-rule:evenodd;fill:rgb(0%,0%,0%);fill-opacity:1;stroke-width:6;stroke-linecap:butt;stroke-linejoin:miter;stroke:rgb(0%,0%,0%);stroke-opacity:1;stroke-miterlimit:10;" d="M 354.429688 186.617188 L 344.28125 189.453125 L 344.605469 182.800781 Z M 354.429688 186.617188 " transform="matrix(1,0,0,-1,-268,329)"/>
<path style="fill:none;stroke-width:6;stroke-linecap:butt;stroke-linejoin:miter;stroke:rgb(0%,0%,0%);stroke-opacity:1;stroke-miterlimit:10;" d="M 423.882812 287.722656 C 423.882812 287.722656 423.882812 287.722656 424.550781 288.792969 C 425.21875 289.859375 426.550781 291.996094 427.738281 293.789062 C 428.921875 295.578125 429.957031 297.019531 430.476562 297.742188 C 430.992188 298.464844 430.992188 298.464844 430.992188 298.464844 " transform="matrix(1,0,0,-1,-268,329)"/>
<path style="fill-rule:evenodd;fill:rgb(0%,0%,0%);fill-opacity:1;stroke-width:6;stroke-linecap:butt;stroke-linejoin:miter;stroke:rgb(0%,0%,0%);stroke-opacity:1;stroke-miterlimit:10;" d="M 430.992188 298.464844 L 422.457031 292.285156 L 427.863281 288.398438 Z M 430.992188 298.464844 " transform="matrix(1,0,0,-1,-268,329)"/>
<path style="fill:none;stroke-width:3;stroke-linecap:butt;stroke-linejoin:miter;stroke:rgb(0%,0%,0%);stroke-opacity:1;stroke-miterlimit:10;" d="M 341.421875 205.46875 C 341.421875 205.46875 341.421875 205.46875 342.488281 205.484375 C 343.554688 205.496094 345.6875 205.519531 348.054688 205.609375 C 350.421875 205.699219 353.023438 205.847656 354.328125 205.925781 C 355.628906 206 355.628906 206 355.628906 206 " transform="matrix(1,0,0,-1,-268,329)"/>
<path style="fill-rule:evenodd;fill:rgb(0%,0%,0%);fill-opacity:1;stroke-width:3;stroke-linecap:butt;stroke-linejoin:miter;stroke:rgb(0%,0%,0%);stroke-opacity:1;stroke-miterlimit:10;" d="M 355.628906 206 L 345.453125 208.742188 L 345.839844 202.09375 Z M 355.628906 206 " transform="matrix(1,0,0,-1,-268,329)"/>
<path style="fill:none;stroke-width:3;stroke-linecap:butt;stroke-linejoin:miter;stroke:rgb(0%,0%,0%);stroke-opacity:1;stroke-miterlimit:10;" d="M 358.871094 166.339844 C 358.871094 166.339844 358.871094 166.339844 358.09375 166.273438 C 357.320312 166.210938 355.769531 166.078125 354.152344 165.980469 C 352.535156 165.882812 350.851562 165.824219 350.007812 165.792969 C 349.164062 165.761719 349.164062 165.761719 349.164062 165.761719 " transform="matrix(1,0,0,-1,-268,329)"/>
<path style="fill-rule:evenodd;fill:rgb(0%,0%,0%);fill-opacity:1;stroke-width:3;stroke-linecap:butt;stroke-linejoin:miter;stroke:rgb(0%,0%,0%);stroke-opacity:1;stroke-miterlimit:10;" d="M 349.164062 165.761719 L 359.28125 162.800781 L 359.035156 169.457031 Z M 349.164062 165.761719 " transform="matrix(1,0,0,-1,-268,329)"/>
<path style="fill:none;stroke-width:3;stroke-linecap:butt;stroke-linejoin:miter;stroke:rgb(0%,0%,0%);stroke-opacity:1;stroke-miterlimit:10;" d="M 502.808594 263.117188 C 502.808594 263.117188 502.808594 263.117188 502.417969 262.019531 C 502.03125 260.921875 501.25 258.722656 500.421875 256.597656 C 499.597656 254.476562 498.71875 252.429688 498.28125 251.40625 C 497.84375 250.382812 497.84375 250.382812 497.84375 250.382812 " transform="matrix(1,0,0,-1,-268,329)"/>
<path style="fill-rule:evenodd;fill:rgb(0%,0%,0%);fill-opacity:1;stroke-width:3;stroke-linecap:butt;stroke-linejoin:miter;stroke:rgb(0%,0%,0%);stroke-opacity:1;stroke-miterlimit:10;" d="M 497.84375 250.382812 L 504.84375 258.265625 L 498.71875 260.886719 Z M 497.84375 250.382812 " transform="matrix(1,0,0,-1,-268,329)"/>
<path style="fill:none;stroke-width:3;stroke-linecap:butt;stroke-linejoin:miter;stroke:rgb(0%,0%,0%);stroke-opacity:1;stroke-miterlimit:10;" d="M 476.597656 259.425781 C 476.597656 259.425781 476.597656 259.425781 476.964844 260.347656 C 477.332031 261.273438 478.066406 263.121094 478.84375 265.398438 C 479.621094 267.679688 480.441406 270.394531 480.851562 271.75 C 481.261719 273.105469 481.261719 273.105469 481.261719 273.105469 " transform="matrix(1,0,0,-1,-268,329)"/>
<path style="fill-rule:evenodd;fill:rgb(0%,0%,0%);fill-opacity:1;stroke-width:3;stroke-linecap:butt;stroke-linejoin:miter;stroke:rgb(0%,0%,0%);stroke-opacity:1;stroke-miterlimit:10;" d="M 481.261719 273.105469 L 475.179688 264.5 L 481.554688 262.570312 Z M 481.261719 273.105469 " transform="matrix(1,0,0,-1,-268,329)"/>
</g>
</svg>
