<?xml version="1.0" encoding="UTF-8"?>
<svg xmlns="http://www.w3.org/2000/svg" xmlns:xlink="http://www.w3.org/1999/xlink" width="240.057pt" height="167.111pt" viewBox="0 0 240.057 167.111" version="1.1">
<defs>
<clipPath id="clip1">
  <path d="M 0 56 L 171 56 L 171 167.109375 L 0 167.109375 Z M 0 56 "/>
</clipPath>
<clipPath id="clip2">
  <path d="M 0 54 L 171 54 L 171 167.109375 L 0 167.109375 Z M 0 54 "/>
</clipPath>
<clipPath id="clip3">
  <path d="M 70 0 L 240.058594 0 L 240.058594 126 L 70 126 Z M 70 0 "/>
</clipPath>
<clipPath id="clip4">
  <path d="M 68 0 L 240.058594 0 L 240.058594 125 L 68 125 Z M 68 0 "/>
</clipPath>
<clipPath id="clip5">
  <path d="M 34 77 L 130 77 L 130 167.109375 L 34 167.109375 Z M 34 77 "/>
</clipPath>
<clipPath id="clip6">
  <path d="M 37 119 L 133 119 L 133 167.109375 L 37 167.109375 Z M 37 119 "/>
</clipPath>
<clipPath id="clip7">
  <path d="M 37 116 L 133 116 L 133 167.109375 L 37 167.109375 Z M 37 116 "/>
</clipPath>
<clipPath id="clip8">
  <path d="M 186 22 L 240.058594 22 L 240.058594 121 L 186 121 Z M 186 22 "/>
</clipPath>
<clipPath id="clip9">
  <path d="M 186 25 L 240.058594 25 L 240.058594 121 L 186 121 Z M 186 25 "/>
</clipPath>
<clipPath id="clip10">
  <path d="M 165 12 L 240.058594 12 L 240.058594 112 L 165 112 Z M 165 12 "/>
</clipPath>
<clipPath id="clip11">
  <path d="M 163 12 L 240.058594 12 L 240.058594 109 L 163 109 Z M 163 12 "/>
</clipPath>
</defs>
<g id="surface1">
<path style="fill:none;stroke-width:3;stroke-linecap:butt;stroke-linejoin:round;stroke:rgb(0%,0%,0%);stroke-opacity:1;stroke-miterlimit:10;" d="M 403.891469 271.565344 C 404.176625 272.522375 404.746937 274.432531 405.508656 276.596594 C 406.274281 278.75675 407.227406 281.170812 408.543812 284.014562 C 409.860219 286.854406 411.536 290.123937 413.7235 293.647375 C 415.911 297.174719 418.610219 300.952062 420.934437 303.811437 C 423.258656 306.670812 425.211781 308.612219 427.516469 310.659094 C 429.821156 312.709875 432.481312 314.862219 435.543812 316.827062 C 438.602406 318.795812 442.063344 320.56925 445.12975 321.838781 C 448.19225 323.104406 450.860219 323.858312 453.06725 324.288 C 455.278187 324.717687 457.032094 324.81925 458.727406 324.81925 C 460.422719 324.81925 462.063344 324.717687 463.62975 324.385656 C 465.196156 324.057531 466.688344 323.498937 468.172719 322.666906 C 469.653187 321.834875 471.12975 320.729406 472.446156 319.498937 C 473.766469 318.268469 474.926625 316.913 476.000844 315.416906 C 477.071156 313.920812 478.051625 312.288 478.907094 310.647375 C 479.758656 309.00675 480.489125 307.358312 481.118031 305.385656 C 481.746937 303.416906 482.282094 301.127844 482.641469 299.049719 C 483.00475 296.9755 483.19225 295.116125 483.313344 293.108312 C 483.434437 291.1005 483.481312 288.94425 483.430531 287.010656 C 483.375844 285.073156 483.2235 283.362219 482.953969 281.420812 C 482.684437 279.4755 482.301625 277.295812 481.645375 274.608312 C 480.989125 271.924719 480.063344 268.729406 479.200062 266.147375 C 478.340687 263.561437 477.551625 261.592687 476.700062 259.666906 C 475.852406 257.737219 474.950062 255.854406 473.590687 253.483312 C 472.227406 251.112219 470.407094 248.25675 468.821156 245.952062 C 467.235219 243.647375 465.87975 241.893469 464.551625 240.276281 C 463.219594 238.663 461.918812 237.186437 460.426625 235.647375 C 458.938344 234.112219 457.262562 232.510656 456.028187 231.385656 C 454.793812 230.260656 453.993031 229.612219 452.37975 228.479406 C 450.766469 227.346594 448.336781 225.7255 445.700062 224.303625 C 443.059437 222.88175 440.215687 221.655187 437.746937 220.901281 C 435.278187 220.147375 433.184437 219.870031 430.637562 219.838781 C 428.094594 219.807531 425.094594 220.026281 422.157094 220.748937 C 419.215687 221.471594 416.336781 222.69425 414.301625 223.873937 C 412.262562 225.053625 411.06725 226.190344 409.946156 227.440344 C 408.828969 228.69425 407.782094 230.06925 406.899281 231.573156 C 406.020375 233.077062 405.301625 234.709875 404.594594 236.56925 C 403.883656 238.424719 403.184437 240.50675 402.832875 241.549719 C 402.481312 242.588781 402.481312 242.588781 401.047719 243.116125 C 399.610219 243.639562 396.739125 244.690344 394.211781 245.491125 C 391.684437 246.291906 389.500844 246.846594 386.453969 247.416906 C 383.407094 247.987219 379.496937 248.577062 375.7235 248.952062 C 371.950062 249.327062 368.313344 249.487219 364.414906 249.530187 C 360.512562 249.577062 356.3485 249.502844 352.778187 249.311437 C 349.207875 249.116125 346.227406 248.803625 343.200062 248.358312 C 340.168812 247.913 337.090687 247.338781 334.168812 246.659094 C 331.246937 245.979406 328.485219 245.198156 325.032094 244.088781 C 321.582875 242.9755 317.438344 241.538 314.2235 240.288 C 311.00475 239.038 308.719594 237.9755 306.399281 236.7255 C 304.078969 235.471594 301.727406 234.030187 299.332875 232.334875 C 296.934437 230.639562 294.496937 228.690344 292.563344 227.045812 C 290.62975 225.401281 289.203969 224.057531 287.559437 221.69425 C 285.914906 219.334875 284.047719 215.952062 282.856312 212.498937 C 281.664906 209.045812 281.145375 205.518469 281.145375 202.010656 C 281.145375 198.502844 281.664906 195.018469 282.778187 192.155187 C 283.895375 189.295812 285.610219 187.057531 287.340687 185.143469 C 289.06725 183.229406 290.805531 181.635656 292.746937 180.151281 C 294.688344 178.666906 296.832875 177.291906 298.887562 176.135656 C 300.938344 174.983312 302.903187 174.057531 305.258656 173.104406 C 307.614125 172.151281 310.360219 171.174719 313.606312 170.245031 C 316.852406 169.315344 320.5985 168.432531 324.078969 167.791906 C 327.559437 167.151281 330.778187 166.748937 334.016469 166.432531 C 337.25475 166.120031 340.512562 165.893469 343.81725 165.799719 C 347.121937 165.702062 350.4735 165.737219 353.750844 165.920812 C 357.024281 166.104406 360.2235 166.436437 363.94225 167.030187 C 367.657094 167.623937 371.891469 168.483312 375.645375 169.373937 C 379.395375 170.264562 382.668812 171.186437 385.996937 172.315344 C 389.325062 173.44425 392.711781 174.780187 395.524281 176.022375 C 398.336781 177.268469 400.571156 178.420812 403.246937 180.022375 C 405.922719 181.627844 409.036 183.682531 411.602406 185.616125 C 414.168812 187.549719 416.188344 189.358312 418.418812 191.604406 C 420.653187 193.846594 423.0985 196.526281 425.028187 199.330969 C 426.961781 202.13175 428.375844 205.061437 429.172719 208.467687 C 429.965687 211.877844 430.137562 215.768469 429.758656 218.866125 C 429.37975 221.967687 428.450062 224.280187 427.114125 226.588781 C 425.778187 228.893469 424.032094 231.190344 423.157094 232.338781 C 422.282094 233.487219 422.274281 233.487219 422.625844 232.00675 C 422.9735 230.526281 423.676625 227.56925 424.891469 224.409094 C 426.110219 221.252844 427.844594 217.893469 430.133656 215.13175 C 432.422719 212.370031 435.270375 210.202062 438.563344 208.791906 C 441.856312 207.377844 445.590687 206.721594 449.141469 206.842687 C 452.69225 206.963781 456.059437 207.858312 459.309437 209.19425 C 462.555531 210.526281 465.69225 212.295812 468.883656 214.56925 C 472.078969 216.838781 475.332875 219.616125 478.793812 223.205969 C 482.250844 226.795812 485.918812 231.202062 488.649281 234.862219 C 491.383656 238.526281 493.184437 241.44425 494.782094 244.342687 C 496.37975 247.241125 497.770375 250.120031 499.063344 253.108312 C 500.356312 256.1005 501.547719 259.198156 502.657094 262.647375 C 503.766469 266.096594 504.797719 269.897375 505.543812 273.623937 C 506.293812 277.346594 506.762562 280.998937 506.844594 285.213781 C 506.926625 289.428625 506.625844 294.209875 505.953969 298.073156 C 505.282094 301.940344 504.246937 304.889562 503.211781 307.182531 C 502.176625 309.471594 501.141469 311.104406 499.871937 312.6005 C 498.5985 314.096594 497.090687 315.455969 494.770375 316.752844 C 492.450062 318.045812 489.325062 319.276281 486.364125 319.834875 C 483.407094 320.393469 480.618031 320.276281 477.356312 319.573156 C 474.090687 318.870031 470.352406 317.580969 466.87975 315.920812 C 463.407094 314.25675 460.196156 312.2255 456.860219 309.6005 C 453.520375 306.971594 450.059437 303.748937 446.571156 299.897375 C 443.086781 296.049719 439.575062 291.56925 437.024281 287.924719 C 434.4735 284.280187 432.883656 281.467687 431.250844 278.245031 C 429.618031 275.022375 427.946156 271.385656 426.676625 268.327062 C 425.407094 265.264562 424.539906 262.780187 424.106312 261.538 C 423.672719 260.295812 423.672719 260.295812 424.555531 259.182531 C 425.44225 258.06925 427.211781 255.842687 428.457875 253.780187 C 429.700062 251.717687 430.418812 249.815344 430.606312 247.346594 C 430.797719 244.873937 430.457875 241.830969 429.19225 238.768469 C 427.930531 235.709875 425.743031 232.63175 423.770375 230.389562 C 421.797719 228.147375 420.039906 226.741125 417.434437 225.026281 C 414.828969 223.311437 411.37975 221.291906 408.207875 219.627844 C 405.036 217.963781 402.141469 216.659094 399.0985 215.491125 C 396.055531 214.323156 392.860219 213.288 389.590687 212.327062 C 386.31725 211.366125 382.969594 210.4755 379.996937 209.760656 C 377.020375 209.049719 374.418812 208.514562 371.547719 207.998937 C 368.676625 207.479406 365.528187 206.979406 361.668812 206.557531 C 357.809437 206.135656 353.231312 205.788 349.477406 205.612219 C 345.7235 205.440344 342.786 205.436437 339.633656 205.498937 C 336.481312 205.561437 333.114125 205.690344 328.864125 206.045812 C 324.614125 206.401281 319.481312 206.9755 314.465687 207.823156 C 309.450062 208.670812 304.555531 209.788 300.481312 210.955969 C 296.411 212.123937 293.168812 213.346594 290.00475 214.842687 C 286.836781 216.334875 283.746937 218.1005 281.078969 220.026281 C 278.411 221.955969 276.168812 224.045812 274.536 226.237219 C 272.903187 228.432531 271.87975 230.733312 271.422719 233.077062 C 270.965687 235.424719 271.071156 237.807531 271.930531 240.553625 C 272.786 243.295812 274.387562 246.397375 276.164906 248.928625 C 277.94225 251.463781 279.891469 253.428625 282.4735 255.409094 C 285.055531 257.385656 288.274281 259.377844 291.805531 261.245031 C 295.340687 263.112219 299.19225 264.858312 303.750844 266.534094 C 308.309437 268.209875 313.575062 269.81925 318.414906 271.06925 C 323.250844 272.31925 327.657094 273.209875 332.06725 273.916906 C 336.477406 274.623937 340.887562 275.139562 345.676625 275.502844 C 350.465687 275.866125 355.633656 276.077062 360.946156 276.057531 C 366.262562 276.038 371.727406 275.788 376.762562 275.366125 C 381.793812 274.948156 386.395375 274.354406 390.797719 273.530187 C 395.200062 272.709875 399.403187 271.659094 401.50475 271.135656 C 403.602406 270.612219 403.602406 270.612219 403.891469 271.565344 Z M 403.891469 271.565344 " transform="matrix(1,0,0,-1,-268.786,328.413)"/>
<path style="fill:none;stroke-width:6;stroke-linecap:butt;stroke-linejoin:round;stroke:rgb(0%,0%,0%);stroke-opacity:1;stroke-miterlimit:10;" d="M 429.0985 230.377844 C 427.321156 251.045812 391.590687 265.010656 349.286 261.56925 C 306.981312 258.127844 274.125844 238.577062 275.899281 217.909094 C 277.672719 197.237219 313.407094 183.272375 355.711781 186.713781 C 398.016469 190.159094 430.871937 209.705969 429.0985 230.377844 " transform="matrix(1,0,0,-1,-268.786,328.413)"/>
<path style="fill:none;stroke-width:6;stroke-linecap:butt;stroke-linejoin:round;stroke:rgb(0%,0%,0%);stroke-opacity:1;stroke-miterlimit:10;" d="M 476.133656 322.905187 C 456.828969 327.577062 430.895375 306.666906 418.203969 276.19425 C 405.512562 245.7255 410.875844 217.237219 430.176625 212.565344 C 449.477406 207.893469 475.414906 228.807531 488.102406 259.276281 C 500.793812 289.745031 495.434437 318.233312 476.133656 322.905187 " transform="matrix(1,0,0,-1,-268.786,328.413)"/>
<path style="fill:none;stroke-width:9;stroke-linecap:butt;stroke-linejoin:round;stroke:rgb(100%,100%,100%);stroke-opacity:1;stroke-miterlimit:10;" d="M 276.375844 215.038 C 276.375844 215.038 276.375844 215.038 276.485219 214.678625 C 276.5985 214.31925 276.821156 213.596594 277.121937 212.823156 C 277.422719 212.049719 277.797719 211.221594 278.211781 210.432531 C 278.625844 209.643469 279.082875 208.889562 279.50475 208.25675 C 279.922719 207.620031 280.309437 207.1005 280.696156 206.612219 C 281.082875 206.123937 281.477406 205.663 281.895375 205.198156 C 282.31725 204.737219 282.766469 204.272375 283.282094 203.772375 C 283.801625 203.272375 284.383656 202.741125 284.914906 202.284094 C 285.44225 201.823156 285.922719 201.432531 286.461781 201.018469 C 287.000844 200.604406 287.602406 200.163 288.086781 199.81925 C 288.571156 199.4755 288.94225 199.2255 289.125844 199.1005 C 289.313344 198.9755 289.313344 198.9755 289.313344 198.9755 " transform="matrix(1,0,0,-1,-268.786,328.413)"/>
<path style="fill:none;stroke-width:6;stroke-linecap:butt;stroke-linejoin:round;stroke:rgb(0%,0%,0%);stroke-opacity:1;stroke-miterlimit:10;" d="M 275.87975 218.147375 C 275.87975 218.147375 275.87975 218.147375 275.938344 217.729406 C 276.000844 217.307531 276.118031 216.467687 276.305531 215.612219 C 276.493031 214.752844 276.746937 213.877844 277.06725 213.00675 C 277.391469 212.13175 277.782094 211.264562 278.203969 210.452062 C 278.625844 209.643469 279.082875 208.889562 279.50475 208.25675 C 279.922719 207.620031 280.309437 207.1005 280.696156 206.612219 C 281.082875 206.123937 281.477406 205.663 281.895375 205.198156 C 282.31725 204.737219 282.766469 204.272375 283.282094 203.772375 C 283.801625 203.272375 284.383656 202.741125 284.914906 202.284094 C 285.44225 201.823156 285.922719 201.432531 286.532094 200.9755 C 287.137562 200.514562 287.87975 199.983312 288.602406 199.487219 C 289.325062 198.995031 290.032094 198.534094 290.782094 198.077062 C 291.532094 197.623937 292.325062 197.166906 292.7235 196.940344 C 293.121937 196.713781 293.121937 196.713781 293.121937 196.713781 " transform="matrix(1,0,0,-1,-268.786,328.413)"/>
<path style="fill:none;stroke-width:6;stroke-linecap:butt;stroke-linejoin:round;stroke:rgb(100%,100%,100%);stroke-opacity:1;stroke-miterlimit:10;" d="M 272.286 230.190344 C 272.286 230.190344 272.286 230.190344 272.489125 229.784094 C 272.69225 229.38175 273.0985 228.573156 273.563344 227.799719 C 274.028187 227.026281 274.551625 226.284094 275.172719 225.522375 C 275.797719 224.764562 276.516469 223.983312 277.532094 223.057531 C 278.543812 222.127844 279.8485 221.053625 280.500844 220.514562 C 281.149281 219.9755 281.149281 219.9755 281.149281 219.9755 " transform="matrix(1,0,0,-1,-268.786,328.413)"/>
<path style="fill:none;stroke-width:3;stroke-linecap:butt;stroke-linejoin:round;stroke:rgb(0%,0%,0%);stroke-opacity:1;stroke-miterlimit:10;" d="M 271.325062 233.623937 C 271.325062 233.623937 271.325062 233.623937 271.375844 233.377844 C 271.430531 233.127844 271.532094 232.63175 271.672719 232.1005 C 271.813344 231.573156 271.985219 231.010656 272.161 230.491125 C 272.332875 229.971594 272.508656 229.491125 272.707875 229.010656 C 272.907094 228.530187 273.133656 228.045812 273.532094 227.467687 C 273.934437 226.889562 274.50475 226.217687 275.336781 225.3505 C 276.164906 224.483312 277.25475 223.424719 278.086781 222.612219 C 278.918812 221.803625 279.493031 221.237219 280.196156 220.674719 C 280.903187 220.112219 281.739125 219.553625 282.157094 219.272375 C 282.575062 218.991125 282.575062 218.991125 282.575062 218.991125 " transform="matrix(1,0,0,-1,-268.786,328.413)"/>
<path style="fill:none;stroke-width:6;stroke-linecap:butt;stroke-linejoin:round;stroke:rgb(100%,100%,100%);stroke-opacity:1;stroke-miterlimit:10;" d="M 280.832875 220.205969 C 280.832875 220.205969 280.832875 220.205969 280.950062 220.120031 C 281.071156 220.034094 281.309437 219.866125 281.637562 219.635656 C 281.969594 219.409094 282.387562 219.123937 282.911 218.784094 C 283.434437 218.44425 284.063344 218.053625 284.575062 217.741125 C 285.086781 217.432531 285.485219 217.198156 285.907094 216.959875 C 286.332875 216.721594 286.778187 216.479406 287.262562 216.221594 C 287.750844 215.963781 288.274281 215.690344 288.707875 215.4755 C 289.137562 215.25675 289.477406 215.092687 289.645375 215.010656 C 289.81725 214.928625 289.81725 214.928625 289.81725 214.928625 " transform="matrix(1,0,0,-1,-268.786,328.413)"/>
<path style="fill:none;stroke-width:3;stroke-linecap:butt;stroke-linejoin:round;stroke:rgb(0%,0%,0%);stroke-opacity:1;stroke-miterlimit:10;" d="M 278.661 222.026281 C 278.661 222.026281 278.661 222.026281 278.965687 221.760656 C 279.270375 221.491125 279.87975 220.959875 280.516469 220.463781 C 281.157094 219.967687 281.821156 219.510656 282.520375 219.049719 C 283.2235 218.588781 283.953969 218.123937 284.625844 217.721594 C 285.297719 217.315344 285.903187 216.967687 286.485219 216.647375 C 287.063344 216.327062 287.614125 216.034094 288.305531 215.686437 C 289.000844 215.338781 289.836781 214.936437 290.5985 214.584875 C 291.360219 214.229406 292.051625 213.928625 292.399281 213.776281 C 292.743031 213.627844 292.743031 213.627844 292.743031 213.627844 " transform="matrix(1,0,0,-1,-268.786,328.413)"/>
<path style="fill:none;stroke-width:9;stroke-linecap:butt;stroke-linejoin:round;stroke:rgb(100%,100%,100%);stroke-opacity:1;stroke-miterlimit:10;" d="M 450.903187 317.155187 C 450.903187 317.155187 450.903187 317.155187 451.516469 317.50675 C 452.133656 317.854406 453.368031 318.557531 454.711781 319.233312 C 456.055531 319.909094 457.512562 320.565344 459.266469 321.190344 C 461.020375 321.815344 463.075062 322.413 464.7235 322.791906 C 466.371937 323.174719 467.618031 323.334875 468.832875 323.413 C 470.043812 323.491125 471.219594 323.487219 472.37975 323.401281 C 473.539906 323.315344 474.676625 323.147375 475.770375 322.901281 C 476.868031 322.655187 477.922719 322.330969 478.87975 321.959875 C 479.836781 321.592687 480.700062 321.178625 481.672719 320.592687 C 482.649281 320.00675 483.735219 319.245031 484.715687 318.424719 C 485.696156 317.604406 486.571156 316.7255 487.008656 316.288 C 487.44225 315.8505 487.44225 315.8505 487.44225 315.8505 " transform="matrix(1,0,0,-1,-268.786,328.413)"/>
<path style="fill:none;stroke-width:6;stroke-linecap:butt;stroke-linejoin:round;stroke:rgb(0%,0%,0%);stroke-opacity:1;stroke-miterlimit:10;" d="M 448.00475 315.233312 C 448.00475 315.233312 448.00475 315.233312 448.711781 315.717687 C 449.418812 316.205969 450.836781 317.174719 452.399281 318.065344 C 453.961781 318.955969 455.676625 319.764562 457.563344 320.518469 C 459.446156 321.272375 461.50475 321.971594 463.418812 322.459875 C 465.328969 322.94425 467.0985 323.221594 468.571156 323.354406 C 470.043812 323.491125 471.219594 323.487219 472.37975 323.401281 C 473.539906 323.315344 474.676625 323.147375 475.770375 322.901281 C 476.868031 322.655187 477.922719 322.330969 479.012562 321.862219 C 480.102406 321.393469 481.227406 320.780187 482.430531 319.979406 C 483.633656 319.182531 484.907094 318.202062 486.059437 317.077062 C 487.211781 315.952062 488.231312 314.686437 488.743031 314.053625 C 489.25475 313.420812 489.25475 313.420812 489.25475 313.420812 " transform="matrix(1,0,0,-1,-268.786,328.413)"/>
<path style="fill:none;stroke-width:6;stroke-linecap:butt;stroke-linejoin:round;stroke:rgb(100%,100%,100%);stroke-opacity:1;stroke-miterlimit:10;" d="M 464.688344 314.803625 C 464.688344 314.803625 464.688344 314.803625 465.176625 315.045812 C 465.664906 315.291906 466.637562 315.776281 467.481312 316.170812 C 468.325062 316.56925 469.036 316.877844 469.739125 317.163 C 470.446156 317.448156 471.141469 317.713781 472.055531 318.026281 C 472.969594 318.334875 474.0985 318.69425 475.188344 318.991125 C 476.278187 319.291906 477.321156 319.534094 478.360219 319.717687 C 479.395375 319.901281 480.422719 320.026281 481.727406 320.041906 C 483.032094 320.057531 484.614125 319.963781 485.950062 319.776281 C 487.286 319.588781 488.37975 319.311437 489.457875 318.967687 C 490.539906 318.623937 491.610219 318.213781 492.551625 317.795812 C 493.496937 317.38175 494.309437 316.963781 495.137562 316.467687 C 495.965687 315.967687 496.805531 315.389562 497.2235 315.1005 C 497.641469 314.811437 497.641469 314.811437 497.641469 314.811437 " transform="matrix(1,0,0,-1,-268.786,328.413)"/>
<path style="fill:none;stroke-width:3;stroke-linecap:butt;stroke-linejoin:round;stroke:rgb(0%,0%,0%);stroke-opacity:1;stroke-miterlimit:10;" d="M 463.383656 314.06925 C 463.383656 314.06925 463.383656 314.06925 463.821156 314.307531 C 464.258656 314.541906 465.12975 315.014562 466.032094 315.467687 C 466.934437 315.920812 467.871937 316.358312 468.844594 316.772375 C 469.81725 317.186437 470.828969 317.584875 471.899281 317.959875 C 472.969594 318.334875 474.0985 318.69425 475.188344 318.991125 C 476.278187 319.291906 477.321156 319.534094 478.360219 319.717687 C 479.395375 319.901281 480.422719 320.026281 481.727406 320.041906 C 483.032094 320.057531 484.614125 319.963781 486.168812 319.698156 C 487.7235 319.436437 489.250844 319.010656 490.688344 318.491125 C 492.125844 317.971594 493.469594 317.362219 494.621937 316.752844 C 495.778187 316.143469 496.746937 315.534094 497.578969 314.854406 C 498.411 314.174719 499.110219 313.420812 499.461781 313.045812 C 499.809437 312.670812 499.809437 312.670812 499.809437 312.670812 " transform="matrix(1,0,0,-1,-268.786,328.413)"/>
<path style="fill:none;stroke-width:6;stroke-linecap:butt;stroke-linejoin:round;stroke:rgb(100%,100%,100%);stroke-opacity:1;stroke-miterlimit:10;" d="M 445.293812 207.010656 C 445.293812 207.010656 445.293812 207.010656 444.672719 207.13175 C 444.051625 207.252844 442.805531 207.498937 441.387562 207.936437 C 439.9735 208.377844 438.383656 209.010656 436.946156 209.768469 C 435.50475 210.526281 434.215687 211.413 432.996937 212.463781 C 431.774281 213.518469 430.625844 214.737219 430.051625 215.3505 C 429.477406 215.959875 429.477406 215.959875 429.477406 215.959875 " transform="matrix(1,0,0,-1,-268.786,328.413)"/>
<path style="fill:none;stroke-width:3;stroke-linecap:butt;stroke-linejoin:round;stroke:rgb(0%,0%,0%);stroke-opacity:1;stroke-miterlimit:10;" d="M 447.250844 206.8505 C 447.250844 206.8505 447.250844 206.8505 446.500844 206.897375 C 445.746937 206.940344 444.246937 207.034094 442.50475 207.498937 C 440.762562 207.963781 438.778187 208.803625 437.141469 209.666906 C 435.50475 210.526281 434.215687 211.413 432.996937 212.463781 C 431.774281 213.518469 430.625844 214.737219 430.051625 215.3505 C 429.477406 215.959875 429.477406 215.959875 429.477406 215.959875 " transform="matrix(1,0,0,-1,-268.786,328.413)"/>
<path style="fill:none;stroke-width:6;stroke-linecap:butt;stroke-linejoin:round;stroke:rgb(100%,100%,100%);stroke-opacity:1;stroke-miterlimit:10;" d="M 427.258656 203.108312 C 427.258656 203.108312 427.258656 203.108312 427.489125 203.686437 C 427.7235 204.264562 428.188344 205.424719 428.571156 206.655187 C 428.957875 207.88175 429.258656 209.186437 429.465687 210.330969 C 429.668812 211.4755 429.778187 212.463781 429.840687 213.366125 C 429.907094 214.268469 429.926625 215.084875 429.926625 215.752844 C 429.926625 216.424719 429.907094 216.948156 429.899281 217.213781 C 429.887562 217.4755 429.887562 217.4755 429.887562 217.4755 " transform="matrix(1,0,0,-1,-268.786,328.413)"/>
<path style="fill:none;stroke-width:3;stroke-linecap:butt;stroke-linejoin:round;stroke:rgb(0%,0%,0%);stroke-opacity:1;stroke-miterlimit:10;" d="M 424.399281 198.44425 C 424.399281 198.44425 424.399281 198.44425 424.836781 199.108312 C 425.274281 199.776281 426.145375 201.104406 426.864125 202.366125 C 427.582875 203.627844 428.149281 204.81925 428.571156 206.163 C 428.996937 207.502844 429.278187 208.995031 429.4735 210.233312 C 429.668812 211.4755 429.778187 212.463781 429.844594 213.459875 C 429.911 214.455969 429.934437 215.459875 429.926625 216.252844 C 429.914906 217.045812 429.871937 217.627844 429.852406 217.916906 C 429.828969 218.209875 429.828969 218.209875 429.828969 218.209875 " transform="matrix(1,0,0,-1,-268.786,328.413)"/>
<path style="fill:none;stroke-width:9;stroke-linecap:butt;stroke-linejoin:round;stroke:rgb(100%,100%,100%);stroke-opacity:1;stroke-miterlimit:10;" d="M 417.219594 207.893469 C 417.219594 207.893469 417.219594 207.893469 417.793812 208.416906 C 418.364125 208.940344 419.508656 209.991125 420.555531 211.053625 C 421.606312 212.116125 422.559437 213.190344 423.610219 214.635656 C 424.661 216.080969 425.813344 217.897375 426.696156 219.702062 C 427.575062 221.50675 428.188344 223.303625 428.551625 224.780187 C 428.918812 226.25675 429.043812 227.416906 429.063344 228.538 C 429.082875 229.655187 429.000844 230.733312 428.836781 231.764562 C 428.672719 232.791906 428.426625 233.776281 428.043812 234.8505 C 427.661 235.928625 427.145375 237.092687 426.547719 238.190344 C 425.946156 239.284094 425.266469 240.315344 424.926625 240.827062 C 424.586781 241.342687 424.586781 241.342687 424.586781 241.342687 " transform="matrix(1,0,0,-1,-268.786,328.413)"/>
<path style="fill:none;stroke-width:6;stroke-linecap:butt;stroke-linejoin:round;stroke:rgb(0%,0%,0%);stroke-opacity:1;stroke-miterlimit:10;" d="M 414.461781 205.733312 C 414.461781 205.733312 414.461781 205.733312 415.258656 206.354406 C 416.055531 206.971594 417.649281 208.213781 419.059437 209.514562 C 420.4735 210.81925 421.700062 212.182531 422.989125 213.893469 C 424.274281 215.604406 425.621937 217.659094 426.5985 219.584875 C 427.575062 221.50675 428.188344 223.303625 428.551625 224.780187 C 428.918812 226.25675 429.043812 227.416906 429.063344 228.538 C 429.082875 229.655187 429.000844 230.733312 428.786 231.901281 C 428.571156 233.073156 428.2235 234.338781 427.715687 235.670812 C 427.203969 237.002844 426.536 238.397375 425.715687 239.674719 C 424.899281 240.948156 423.934437 242.104406 423.450062 242.678625 C 422.969594 243.25675 422.969594 243.25675 422.969594 243.25675 " transform="matrix(1,0,0,-1,-268.786,328.413)"/>
<path style="fill:none;stroke-width:6;stroke-linecap:butt;stroke-linejoin:round;stroke:rgb(100%,100%,100%);stroke-opacity:1;stroke-miterlimit:10;" d="M 410.450062 220.834875 C 410.450062 220.834875 410.450062 220.834875 411.137562 221.233312 C 411.825062 221.63175 413.200062 222.428625 414.688344 223.354406 C 416.180531 224.276281 417.778187 225.323156 419.364125 226.577062 C 420.946156 227.830969 422.516469 229.288 423.735219 230.596594 C 424.957875 231.901281 425.836781 233.061437 426.743031 234.432531 C 427.653187 235.803625 428.590687 237.393469 429.278187 239.030187 C 429.961781 240.666906 430.391469 242.354406 430.555531 243.901281 C 430.719594 245.44425 430.614125 246.8505 430.563344 247.553625 C 430.508656 248.25675 430.508656 248.25675 430.508656 248.25675 " transform="matrix(1,0,0,-1,-268.786,328.413)"/>
<path style="fill:none;stroke-width:3;stroke-linecap:butt;stroke-linejoin:round;stroke:rgb(0%,0%,0%);stroke-opacity:1;stroke-miterlimit:10;" d="M 408.246937 219.647375 C 408.246937 219.647375 408.246937 219.647375 409.121937 220.116125 C 410.000844 220.584875 411.75475 221.526281 413.4735 222.545812 C 415.188344 223.56925 416.864125 224.670812 418.625844 226.049719 C 420.387562 227.432531 422.235219 229.088781 423.594594 230.495031 C 424.957875 231.901281 425.836781 233.061437 426.75475 234.573156 C 427.672719 236.088781 428.62975 237.959875 429.262562 239.487219 C 429.891469 241.014562 430.19225 242.198156 430.368031 243.295812 C 430.543812 244.397375 430.5985 245.413 430.602406 246.3505 C 430.606312 247.288 430.555531 248.147375 430.328969 249.120031 C 430.102406 250.092687 429.696156 251.174719 429.493031 251.717687 C 429.289906 252.25675 429.289906 252.25675 429.289906 252.25675 " transform="matrix(1,0,0,-1,-268.786,328.413)"/>
<g clip-path="url(#clip1)" clip-rule="nonzero">
<path style="fill:none;stroke-width:6;stroke-linecap:butt;stroke-linejoin:miter;stroke:rgb(0%,0%,0%);stroke-opacity:1;stroke-miterlimit:10;" d="M 338.676625 186.264562 C 338.676625 186.264562 338.676625 186.264562 340.051625 186.260656 C 341.426625 186.260656 344.172719 186.252844 346.801625 186.311437 C 349.426625 186.370031 351.926625 186.495031 353.180531 186.553625 C 354.430531 186.616125 354.430531 186.616125 354.430531 186.616125 " transform="matrix(1,0,0,-1,-268.786,328.413)"/>
</g>
<path style=" stroke:none;fill-rule:evenodd;fill:rgb(0%,0%,0%);fill-opacity:1;" d="M 85.644531 141.796875 L 75.492188 138.960938 L 75.820312 145.613281 Z M 85.644531 141.796875 "/>
<g clip-path="url(#clip2)" clip-rule="nonzero">
<path style="fill:none;stroke-width:6;stroke-linecap:butt;stroke-linejoin:miter;stroke:rgb(0%,0%,0%);stroke-opacity:1;stroke-miterlimit:10;" d="M 354.430531 186.616125 L 344.278187 189.452062 L 344.606312 182.799719 Z M 354.430531 186.616125 " transform="matrix(1,0,0,-1,-268.786,328.413)"/>
</g>
<g clip-path="url(#clip3)" clip-rule="nonzero">
<path style="fill:none;stroke-width:6;stroke-linecap:butt;stroke-linejoin:miter;stroke:rgb(0%,0%,0%);stroke-opacity:1;stroke-miterlimit:10;" d="M 423.883656 287.721594 C 423.883656 287.721594 423.883656 287.721594 424.551625 288.791906 C 425.219594 289.858312 426.551625 291.998937 427.735219 293.788 C 428.922719 295.577062 429.957875 297.018469 430.477406 297.741125 C 430.993031 298.463781 430.993031 298.463781 430.993031 298.463781 " transform="matrix(1,0,0,-1,-268.786,328.413)"/>
</g>
<path style=" stroke:none;fill-rule:evenodd;fill:rgb(0%,0%,0%);fill-opacity:1;" d="M 162.207031 29.949219 L 153.667969 36.128906 L 159.078125 40.015625 Z M 162.207031 29.949219 "/>
<g clip-path="url(#clip4)" clip-rule="nonzero">
<path style="fill:none;stroke-width:6;stroke-linecap:butt;stroke-linejoin:miter;stroke:rgb(0%,0%,0%);stroke-opacity:1;stroke-miterlimit:10;" d="M 430.993031 298.463781 L 422.453969 292.284094 L 427.864125 288.397375 Z M 430.993031 298.463781 " transform="matrix(1,0,0,-1,-268.786,328.413)"/>
</g>
<path style="fill:none;stroke-width:3;stroke-linecap:butt;stroke-linejoin:miter;stroke:rgb(0%,0%,0%);stroke-opacity:1;stroke-miterlimit:10;" d="M 341.418812 205.471594 C 341.418812 205.471594 341.418812 205.471594 342.485219 205.483312 C 343.551625 205.495031 345.688344 205.522375 348.055531 205.608312 C 350.422719 205.698156 353.024281 205.8505 354.325062 205.924719 C 355.62975 206.002844 355.62975 206.002844 355.62975 206.002844 " transform="matrix(1,0,0,-1,-268.786,328.413)"/>
<path style=" stroke:none;fill-rule:evenodd;fill:rgb(0%,0%,0%);fill-opacity:1;" d="M 86.84375 122.410156 L 76.664062 119.667969 L 77.054688 126.316406 Z M 86.84375 122.410156 "/>
<g clip-path="url(#clip5)" clip-rule="nonzero">
<path style="fill:none;stroke-width:3;stroke-linecap:butt;stroke-linejoin:miter;stroke:rgb(0%,0%,0%);stroke-opacity:1;stroke-miterlimit:10;" d="M 355.62975 206.002844 L 345.450062 208.745031 L 345.840687 202.096594 Z M 355.62975 206.002844 " transform="matrix(1,0,0,-1,-268.786,328.413)"/>
</g>
<g clip-path="url(#clip6)" clip-rule="nonzero">
<path style="fill:none;stroke-width:3;stroke-linecap:butt;stroke-linejoin:miter;stroke:rgb(0%,0%,0%);stroke-opacity:1;stroke-miterlimit:10;" d="M 358.871937 166.342687 C 358.871937 166.342687 358.871937 166.342687 358.094594 166.276281 C 357.321156 166.209875 355.770375 166.077062 354.153187 165.979406 C 352.536 165.885656 350.852406 165.823156 350.008656 165.791906 C 349.164906 165.760656 349.164906 165.760656 349.164906 165.760656 " transform="matrix(1,0,0,-1,-268.786,328.413)"/>
</g>
<path style=" stroke:none;fill-rule:evenodd;fill:rgb(0%,0%,0%);fill-opacity:1;" d="M 80.378906 162.652344 L 90.496094 165.609375 L 90.25 158.957031 Z M 80.378906 162.652344 "/>
<g clip-path="url(#clip7)" clip-rule="nonzero">
<path style="fill:none;stroke-width:3;stroke-linecap:butt;stroke-linejoin:miter;stroke:rgb(0%,0%,0%);stroke-opacity:1;stroke-miterlimit:10;" d="M 349.164906 165.760656 L 359.282094 162.803625 L 359.036 169.455969 Z M 349.164906 165.760656 " transform="matrix(1,0,0,-1,-268.786,328.413)"/>
</g>
<g clip-path="url(#clip8)" clip-rule="nonzero">
<path style="fill:none;stroke-width:3;stroke-linecap:butt;stroke-linejoin:miter;stroke:rgb(0%,0%,0%);stroke-opacity:1;stroke-miterlimit:10;" d="M 502.809437 263.120031 C 502.809437 263.120031 502.809437 263.120031 502.418812 262.018469 C 502.028187 260.920812 501.250844 258.721594 500.422719 256.6005 C 499.594594 254.4755 498.719594 252.428625 498.278187 251.405187 C 497.840687 250.385656 497.840687 250.385656 497.840687 250.385656 " transform="matrix(1,0,0,-1,-268.786,328.413)"/>
</g>
<path style=" stroke:none;fill-rule:evenodd;fill:rgb(0%,0%,0%);fill-opacity:1;" d="M 229.054688 78.027344 L 236.054688 70.148438 L 229.933594 67.527344 Z M 229.054688 78.027344 "/>
<g clip-path="url(#clip9)" clip-rule="nonzero">
<path style="fill:none;stroke-width:3;stroke-linecap:butt;stroke-linejoin:miter;stroke:rgb(0%,0%,0%);stroke-opacity:1;stroke-miterlimit:10;" d="M 497.840687 250.385656 L 504.840687 258.264562 L 498.719594 260.885656 Z M 497.840687 250.385656 " transform="matrix(1,0,0,-1,-268.786,328.413)"/>
</g>
<g clip-path="url(#clip10)" clip-rule="nonzero">
<path style="fill:none;stroke-width:3;stroke-linecap:butt;stroke-linejoin:miter;stroke:rgb(0%,0%,0%);stroke-opacity:1;stroke-miterlimit:10;" d="M 476.594594 259.424719 C 476.594594 259.424719 476.594594 259.424719 476.961781 260.3505 C 477.328969 261.272375 478.063344 263.120031 478.840687 265.397375 C 479.621937 267.678625 480.44225 270.393469 480.852406 271.748937 C 481.262562 273.108312 481.262562 273.108312 481.262562 273.108312 " transform="matrix(1,0,0,-1,-268.786,328.413)"/>
</g>
<path style=" stroke:none;fill-rule:evenodd;fill:rgb(0%,0%,0%);fill-opacity:1;" d="M 212.476562 55.304688 L 206.394531 63.914062 L 212.765625 65.84375 Z M 212.476562 55.304688 "/>
<g clip-path="url(#clip11)" clip-rule="nonzero">
<path style="fill:none;stroke-width:3;stroke-linecap:butt;stroke-linejoin:miter;stroke:rgb(0%,0%,0%);stroke-opacity:1;stroke-miterlimit:10;" d="M 481.262562 273.108312 L 475.180531 264.498937 L 481.551625 262.56925 Z M 481.262562 273.108312 " transform="matrix(1,0,0,-1,-268.786,328.413)"/>
</g>
</g>
</svg>
