<?xml version="1.0" encoding="UTF-8"?>
<svg xmlns="http://www.w3.org/2000/svg" xmlns:xlink="http://www.w3.org/1999/xlink" width="189.522pt" height="231.69pt" viewBox="0 0 189.522 231.69" version="1.1">
<g id="surface1">
<path style=" stroke:none;fill-rule:evenodd;fill:rgb(12.89978%,12.89978%,12.89978%);fill-opacity:1;" d="M 0.699219 157.75 C 0.699219 154.023438 1.566406 150.347656 3.234375 147.015625 L 10.390625 150.59375 C 6.4375 158.5 9.640625 168.109375 17.546875 172.0625 C 25.449219 176.011719 35.058594 172.808594 39.011719 164.90625 C 40.425781 162.078125 40.96875 158.898438 40.574219 155.765625 L 56.699219 153.75 L 72.824219 155.765625 C 71.726562 164.53125 77.945312 172.53125 86.714844 173.625 C 95.484375 174.722656 103.480469 168.503906 104.574219 159.734375 C 104.96875 156.601562 104.425781 153.421875 103.011719 150.59375 L 110.164062 147.015625 C 111.832031 150.347656 112.699219 154.023438 112.699219 157.75 L 112.699219 189.75 L 88.699219 201.75 L 56.699219 197.75 L 24.699219 201.75 L 0.699219 189.75 Z M 0.699219 157.75 "/>
<path style=" stroke:none;fill-rule:evenodd;fill:rgb(6.298828%,6.298828%,6.298828%);fill-opacity:1;" d="M 63.40625 165.433594 C 63.40625 161.730469 60.40625 158.726562 56.699219 158.726562 C 52.996094 158.726562 49.992188 161.730469 49.992188 165.433594 C 49.992188 169.136719 52.996094 172.140625 56.699219 172.140625 C 60.40625 172.140625 63.40625 169.136719 63.40625 165.433594 "/>
<path style="fill:none;stroke-width:1.2;stroke-linecap:butt;stroke-linejoin:round;stroke:rgb(100%,100%,100%);stroke-opacity:1;stroke-miterlimit:10;" d="M 164.448438 376.316406 L 170.3 376.316406 " transform="matrix(1,0,0,-1,-111.3,541.75)"/>
<path style="fill:none;stroke-width:1.2;stroke-linecap:butt;stroke-linejoin:round;stroke:rgb(100%,100%,100%);stroke-opacity:1;stroke-miterlimit:10;" d="M 170.749219 379.917969 C 170.3 379.917969 169.850781 379.917969 169.100781 379.917969 C 168.350781 379.917969 167.3 379.917969 166.475781 379.542969 C 165.651563 379.167969 165.05 378.417969 164.749219 377.59375 C 164.448438 376.765625 164.448438 375.867188 164.749219 375.042969 C 165.05 374.21875 165.651563 373.46875 166.475781 373.09375 C 167.3 372.71875 168.350781 372.71875 169.100781 372.71875 C 169.850781 372.71875 170.3 372.71875 170.749219 372.71875 " transform="matrix(1,0,0,-1,-111.3,541.75)"/>
<path style=" stroke:none;fill-rule:evenodd;fill:rgb(0%,78.399658%,32.499695%);fill-opacity:1;" d="M 75.898438 183.75 C 75.898438 181.984375 74.46875 180.550781 72.699219 180.550781 C 70.933594 180.550781 69.5 181.984375 69.5 183.75 C 69.5 185.515625 70.933594 186.949219 72.699219 186.949219 C 74.46875 186.949219 75.898438 185.515625 75.898438 183.75 "/>
<path style=" stroke:none;fill-rule:evenodd;fill:rgb(83.499146%,0%,0%);fill-opacity:0.3;" d="M 43.898438 183.75 C 43.898438 181.984375 42.46875 180.550781 40.699219 180.550781 C 38.933594 180.550781 37.5 181.984375 37.5 183.75 C 37.5 185.515625 38.933594 186.949219 40.699219 186.949219 C 42.46875 186.949219 43.898438 185.515625 43.898438 183.75 "/>
<path style=" stroke:none;fill-rule:evenodd;fill:rgb(1.199341%,66.299438%,95.698547%);fill-opacity:1;" d="M 38.699219 157.75 C 38.699219 150.019531 32.433594 143.75 24.699219 143.75 C 16.96875 143.75 10.699219 150.019531 10.699219 157.75 C 10.699219 165.480469 16.96875 171.75 24.699219 171.75 C 32.433594 171.75 38.699219 165.480469 38.699219 157.75 "/>
<path style="fill:none;stroke-width:0.8;stroke-linecap:butt;stroke-linejoin:round;stroke:rgb(0%,78.399658%,32.499695%);stroke-opacity:1;stroke-miterlimit:10;" d="M 183.999219 363.40625 L 183.999219 366.746094 " transform="matrix(1,0,0,-1,-111.3,541.75)"/>
<path style="fill:none;stroke-width:0.8;stroke-linecap:butt;stroke-linejoin:round;stroke:rgb(0%,78.399658%,32.499695%);stroke-opacity:1;stroke-miterlimit:10;" d="M 188.682813 360.703125 L 191.573438 362.371094 " transform="matrix(1,0,0,-1,-111.3,541.75)"/>
<path style="fill:none;stroke-width:0.8;stroke-linecap:butt;stroke-linejoin:round;stroke:rgb(0%,78.399658%,32.499695%);stroke-opacity:1;stroke-miterlimit:10;" d="M 188.682813 355.296875 L 191.573438 353.628906 " transform="matrix(1,0,0,-1,-111.3,541.75)"/>
<path style="fill:none;stroke-width:0.8;stroke-linecap:butt;stroke-linejoin:round;stroke:rgb(0%,78.399658%,32.499695%);stroke-opacity:1;stroke-miterlimit:10;" d="M 183.999219 352.59375 L 183.999219 349.253906 " transform="matrix(1,0,0,-1,-111.3,541.75)"/>
<path style="fill:none;stroke-width:0.8;stroke-linecap:butt;stroke-linejoin:round;stroke:rgb(0%,78.399658%,32.499695%);stroke-opacity:1;stroke-miterlimit:10;" d="M 179.315625 355.296875 L 176.425 353.628906 " transform="matrix(1,0,0,-1,-111.3,541.75)"/>
<path style="fill:none;stroke-width:0.8;stroke-linecap:butt;stroke-linejoin:round;stroke:rgb(0%,78.399658%,32.499695%);stroke-opacity:1;stroke-miterlimit:10;" d="M 179.315625 360.703125 L 176.425 362.371094 " transform="matrix(1,0,0,-1,-111.3,541.75)"/>
<path style="fill:none;stroke-width:0.4;stroke-linecap:butt;stroke-linejoin:round;stroke:rgb(0%,78.399658%,32.499695%);stroke-opacity:1;stroke-miterlimit:10;" d="M 181.296094 362.683594 L 180.839063 363.476562 " transform="matrix(1,0,0,-1,-111.3,541.75)"/>
<path style="fill:none;stroke-width:0.4;stroke-linecap:butt;stroke-linejoin:round;stroke:rgb(0%,78.399658%,32.499695%);stroke-opacity:1;stroke-miterlimit:10;" d="M 186.702344 362.683594 L 187.163281 363.476562 " transform="matrix(1,0,0,-1,-111.3,541.75)"/>
<path style="fill:none;stroke-width:0.4;stroke-linecap:butt;stroke-linejoin:round;stroke:rgb(0%,78.399658%,32.499695%);stroke-opacity:1;stroke-miterlimit:10;" d="M 189.409375 358 L 190.323438 358 " transform="matrix(1,0,0,-1,-111.3,541.75)"/>
<path style="fill:none;stroke-width:0.4;stroke-linecap:butt;stroke-linejoin:round;stroke:rgb(0%,78.399658%,32.499695%);stroke-opacity:1;stroke-miterlimit:10;" d="M 186.702344 353.316406 L 187.163281 352.523438 " transform="matrix(1,0,0,-1,-111.3,541.75)"/>
<path style="fill:none;stroke-width:0.4;stroke-linecap:butt;stroke-linejoin:round;stroke:rgb(0%,78.399658%,32.499695%);stroke-opacity:1;stroke-miterlimit:10;" d="M 181.296094 353.316406 L 180.839063 352.523438 " transform="matrix(1,0,0,-1,-111.3,541.75)"/>
<path style="fill:none;stroke-width:0.4;stroke-linecap:butt;stroke-linejoin:round;stroke:rgb(0%,78.399658%,32.499695%);stroke-opacity:1;stroke-miterlimit:10;" d="M 178.589063 358 L 177.675 358 " transform="matrix(1,0,0,-1,-111.3,541.75)"/>
<path style=" stroke:none;fill-rule:evenodd;fill:rgb(47.499084%,33.299255%,28.199768%);fill-opacity:1;" d="M 102.699219 157.433594 C 102.699219 149.699219 96.433594 143.433594 88.699219 143.433594 C 80.96875 143.433594 74.699219 149.699219 74.699219 157.433594 C 74.699219 165.164062 80.96875 171.433594 88.699219 171.433594 C 96.433594 171.433594 102.699219 165.164062 102.699219 157.433594 "/>
<path style=" stroke:none;fill-rule:evenodd;fill:rgb(1.199341%,60.798645%,89.7995%);fill-opacity:1;" d="M 45.941406 221.75 C 45.941406 216.648438 41.804688 212.511719 36.699219 212.511719 C 31.597656 212.511719 27.460938 216.648438 27.460938 221.75 C 27.460938 226.851562 31.597656 230.988281 36.699219 230.988281 C 41.804688 230.988281 45.941406 226.851562 45.941406 221.75 "/>
<path style=" stroke:none;fill-rule:evenodd;fill:rgb(47.499084%,33.299255%,28.199768%);fill-opacity:1;" d="M 85.941406 221.75 C 85.941406 216.648438 81.804688 212.511719 76.699219 212.511719 C 71.597656 212.511719 67.460938 216.648438 67.460938 221.75 C 67.460938 226.851562 71.597656 230.988281 76.699219 230.988281 C 81.804688 230.988281 85.941406 226.851562 85.941406 221.75 "/>
<path style="fill:none;stroke-width:1.2;stroke-linecap:butt;stroke-linejoin:round;stroke:rgb(0%,0%,0%);stroke-opacity:1;stroke-miterlimit:10;" d="M 163.663281 320 L 170.975781 320 " transform="matrix(1,0,0,-1,-111.3,541.75)"/>
<path style="fill:none;stroke-width:1.2;stroke-linecap:butt;stroke-linejoin:round;stroke:rgb(0%,0%,0%);stroke-opacity:1;stroke-miterlimit:10;" d="M 171.538281 324.5 C 170.975781 324.5 170.413281 324.5 169.475781 324.5 C 168.538281 324.5 167.225781 324.5 166.194531 324.03125 C 165.163281 323.5625 164.413281 322.625 164.038281 321.59375 C 163.663281 320.5625 163.663281 319.4375 164.038281 318.40625 C 164.413281 317.375 165.163281 316.4375 166.194531 315.96875 C 167.225781 315.5 168.538281 315.5 169.475781 315.5 C 170.413281 315.5 170.975781 315.5 171.538281 315.5 " transform="matrix(1,0,0,-1,-111.3,541.75)"/>
<path style=" stroke:none;fill-rule:evenodd;fill:rgb(87.799072%,87.799072%,87.799072%);fill-opacity:1;" d="M 118.570312 4.292969 C 114.921875 4.9375 110.867188 3.273438 107.820312 4.382812 C 104.773438 5.492188 102.738281 9.371094 99.527344 11.222656 C 96.320312 13.074219 91.941406 12.898438 89.457031 14.984375 C 86.976562 17.066406 86.390625 21.410156 84.007812 24.246094 C 81.625 27.085938 77.449219 28.417969 75.828125 31.226562 C 74.207031 34.03125 75.144531 38.316406 73.875 41.796875 C 72.609375 45.277344 69.140625 47.957031 68.578125 51.148438 C 68.015625 54.339844 70.355469 58.046875 70.355469 61.75 C 70.355469 65.453125 68.015625 69.160156 68.578125 72.351562 C 69.140625 75.542969 72.609375 78.222656 73.875 81.703125 C 75.144531 85.183594 74.207031 89.46875 75.828125 92.273438 C 77.449219 95.082031 81.625 96.414062 84.007812 99.253906 C 86.390625 102.089844 86.976562 106.433594 89.457031 108.515625 C 91.941406 110.601562 96.320312 110.425781 99.527344 112.277344 C 102.738281 114.128906 104.773438 118.007812 107.820312 119.117188 C 110.867188 120.226562 114.921875 118.5625 118.570312 119.207031 C 122.21875 119.847656 125.460938 122.800781 128.699219 122.800781 C 131.941406 122.800781 135.183594 119.847656 138.832031 119.207031 C 142.480469 118.5625 146.535156 120.226562 149.578125 119.117188 C 152.625 118.007812 154.664062 114.128906 157.871094 112.277344 C 161.078125 110.425781 165.460938 110.601562 167.941406 108.515625 C 170.425781 106.433594 171.011719 102.089844 173.394531 99.253906 C 175.773438 96.414062 179.949219 95.082031 181.570312 92.273438 C 183.191406 89.46875 182.257812 85.183594 183.523438 81.703125 C 184.789062 78.222656 188.261719 75.542969 188.824219 72.351562 C 189.386719 69.160156 187.042969 65.453125 187.042969 61.75 C 187.042969 58.046875 189.386719 54.339844 188.824219 51.148438 C 188.261719 47.957031 184.789062 45.277344 183.523438 41.796875 C 182.257812 38.316406 183.191406 34.03125 181.570312 31.226562 C 179.949219 28.417969 175.773438 27.085938 173.394531 24.246094 C 171.011719 21.410156 170.425781 17.066406 167.941406 14.984375 C 165.460938 12.898438 161.078125 13.074219 157.871094 11.222656 C 154.664062 9.371094 152.625 5.492188 149.578125 4.382812 C 146.535156 3.273438 142.480469 4.9375 138.832031 4.292969 C 135.183594 3.652344 131.941406 0.699219 128.699219 0.699219 C 125.460938 0.699219 122.21875 3.652344 118.570312 4.292969 Z M 118.570312 4.292969 "/>
<path style=" stroke:none;fill-rule:evenodd;fill:rgb(87.799072%,87.799072%,87.799072%);fill-opacity:1;" d="M 65.238281 104.632812 C 63.390625 105.695312 61.191406 106.152344 60.445312 107.445312 C 59.695312 108.738281 60.40625 110.871094 60.40625 113.003906 C 60.40625 115.136719 59.695312 117.269531 60.445312 118.5625 C 61.191406 119.855469 63.390625 120.308594 65.238281 121.378906 C 67.085938 122.441406 68.582031 124.125 70.074219 124.125 C 71.566406 124.125 73.0625 122.441406 74.90625 121.378906 C 76.757812 120.308594 78.957031 119.855469 79.703125 118.5625 C 80.449219 117.269531 79.742188 115.136719 79.742188 113.003906 C 79.742188 110.871094 80.449219 108.738281 79.703125 107.445312 C 78.957031 106.152344 76.757812 105.695312 74.90625 104.632812 C 73.0625 103.5625 71.566406 101.882812 70.074219 101.882812 C 68.582031 101.882812 67.085938 103.5625 65.238281 104.632812 Z M 65.238281 104.632812 "/>
<path style=" stroke:none;fill-rule:evenodd;fill:rgb(87.799072%,87.799072%,87.799072%);fill-opacity:1;" d="M 83.503906 134.472656 C 83.503906 131.078125 80.75 128.324219 77.355469 128.324219 C 73.960938 128.324219 71.207031 131.078125 71.207031 134.472656 C 71.207031 137.871094 73.960938 140.621094 77.355469 140.621094 C 80.75 140.621094 83.503906 137.871094 83.503906 134.472656 "/>
<path style="fill-rule:evenodd;fill:rgb(84.298706%,79.998779%,78.399658%);fill-opacity:1;stroke-width:2;stroke-linecap:butt;stroke-linejoin:round;stroke:rgb(47.499084%,33.299255%,28.199768%);stroke-opacity:1;stroke-miterlimit:10;" d="M 228.08125 515.199219 C 220.475781 511.21875 212.749219 504.082031 211.229688 495.773438 C 209.70625 487.464844 214.389844 477.988281 215.733594 469.152344 C 217.08125 460.316406 215.089063 452.125 220.182813 445.808594 C 225.272656 439.488281 237.440625 435.039062 247.913281 438.257812 C 258.389844 441.476562 267.163281 452.359375 269.210156 462.949219 C 271.260938 473.539062 266.577344 483.839844 262.366406 493.433594 C 258.155469 503.027344 254.409375 511.921875 248.792188 515.960938 C 243.175 519.996094 235.686719 519.175781 228.08125 515.199219 Z M 228.08125 515.199219 " transform="matrix(1,0,0,-1,-111.3,541.75)"/>
<path style="fill-rule:evenodd;fill:rgb(70.199585%,89.7995%,98.799133%);fill-opacity:1;stroke-width:2;stroke-linecap:butt;stroke-linejoin:round;stroke:rgb(1.199341%,60.798645%,89.7995%);stroke-opacity:1;stroke-miterlimit:10;" d="M 240.835156 472.839844 C 244.1125 470.265625 246.686719 464.648438 245.690625 460.492188 C 244.694531 456.339844 240.132031 453.648438 235.921094 454.523438 C 231.70625 455.402344 227.846875 459.851562 226.850781 463.769531 C 225.854688 467.691406 227.729688 471.082031 230.655469 473.015625 C 233.58125 474.945312 237.557813 475.410156 240.835156 472.839844 Z M 240.835156 472.839844 " transform="matrix(1,0,0,-1,-111.3,541.75)"/>
</g>
</svg>
