<?xml version="1.0" encoding="UTF-8"?>
<svg xmlns="http://www.w3.org/2000/svg" xmlns:xlink="http://www.w3.org/1999/xlink" width="281.4pt" height="88.957pt" viewBox="0 0 281.4 88.957" version="1.1">
<defs>
<clipPath id="clip1">
  <path d="M 27 69 L 46 69 L 46 88.957031 L 27 88.957031 Z M 27 69 "/>
</clipPath>
<clipPath id="clip2">
  <path d="M 67 69 L 86 69 L 86 88.957031 L 67 88.957031 Z M 67 69 "/>
</clipPath>
<clipPath id="clip3">
  <path d="M 195 69 L 214 69 L 214 88.957031 L 195 88.957031 Z M 195 69 "/>
</clipPath>
<clipPath id="clip4">
  <path d="M 235 69 L 254 69 L 254 88.957031 L 235 88.957031 Z M 235 69 "/>
</clipPath>
</defs>
<g id="surface1">
<path style=" stroke:none;fill-rule:evenodd;fill:rgb(12.89978%,12.89978%,12.89978%);fill-opacity:1;" d="M 0.699219 15.015625 C 0.699219 11.289062 1.566406 7.617188 3.234375 4.285156 L 10.390625 7.863281 C 6.4375 15.765625 9.640625 25.375 17.546875 29.328125 C 25.449219 33.28125 35.058594 30.074219 39.011719 22.171875 C 40.425781 19.347656 40.96875 16.164062 40.574219 13.03125 L 56.699219 11.015625 L 72.824219 13.03125 C 71.726562 21.800781 77.945312 29.796875 86.714844 30.894531 C 95.484375 31.988281 103.480469 25.769531 104.574219 17.003906 C 104.96875 13.867188 104.425781 10.6875 103.011719 7.863281 L 110.164062 4.285156 C 111.832031 7.617188 112.699219 11.289062 112.699219 15.015625 L 112.699219 47.015625 L 88.699219 59.015625 L 56.699219 55.015625 L 24.699219 59.015625 L 0.699219 47.015625 Z M 0.699219 15.015625 "/>
<path style=" stroke:none;fill-rule:evenodd;fill:rgb(6.298828%,6.298828%,6.298828%);fill-opacity:1;" d="M 63.40625 22.699219 C 63.40625 18.996094 60.40625 15.992188 56.699219 15.992188 C 52.996094 15.992188 49.992188 18.996094 49.992188 22.699219 C 49.992188 26.40625 52.996094 29.410156 56.699219 29.410156 C 60.40625 29.410156 63.40625 26.40625 63.40625 22.699219 "/>
<path style="fill:none;stroke-width:1.2;stroke-linecap:butt;stroke-linejoin:round;stroke:rgb(100%,100%,100%);stroke-opacity:1;stroke-miterlimit:10;" d="M 204.448438 376.317781 L 210.3 376.317781 " transform="matrix(1,0,0,-1,-151.3,399.017)"/>
<path style="fill:none;stroke-width:1.2;stroke-linecap:butt;stroke-linejoin:round;stroke:rgb(100%,100%,100%);stroke-opacity:1;stroke-miterlimit:10;" d="M 210.749219 379.915437 C 210.3 379.915437 209.850781 379.915437 209.100781 379.915437 C 208.350781 379.915437 207.3 379.915437 206.475781 379.540437 C 205.651563 379.165437 205.05 378.415437 204.749219 377.591219 C 204.448438 376.767 204.448438 375.868562 204.749219 375.040437 C 205.05 374.216219 205.651563 373.466219 206.475781 373.091219 C 207.3 372.716219 208.350781 372.716219 209.100781 372.716219 C 209.850781 372.716219 210.3 372.716219 210.749219 372.716219 " transform="matrix(1,0,0,-1,-151.3,399.017)"/>
<path style=" stroke:none;fill-rule:evenodd;fill:rgb(0%,78.399658%,32.499695%);fill-opacity:0.3;" d="M 75.898438 41.015625 C 75.898438 39.25 74.46875 37.816406 72.699219 37.816406 C 70.933594 37.816406 69.5 39.25 69.5 41.015625 C 69.5 42.785156 70.933594 44.21875 72.699219 44.21875 C 74.46875 44.21875 75.898438 42.785156 75.898438 41.015625 "/>
<path style=" stroke:none;fill-rule:evenodd;fill:rgb(83.499146%,0%,0%);fill-opacity:1;" d="M 43.898438 41.015625 C 43.898438 39.25 42.46875 37.816406 40.699219 37.816406 C 38.933594 37.816406 37.5 39.25 37.5 41.015625 C 37.5 42.785156 38.933594 44.21875 40.699219 44.21875 C 42.46875 44.21875 43.898438 42.785156 43.898438 41.015625 "/>
<path style=" stroke:none;fill-rule:evenodd;fill:rgb(12.89978%,12.89978%,12.89978%);fill-opacity:1;" d="M 168.699219 15.015625 C 168.699219 11.289062 169.566406 7.617188 171.234375 4.285156 L 178.390625 7.863281 C 174.4375 15.765625 177.640625 25.375 185.546875 29.328125 C 193.449219 33.28125 203.058594 30.074219 207.011719 22.171875 C 208.425781 19.347656 208.96875 16.164062 208.574219 13.03125 L 224.699219 11.015625 L 240.824219 13.03125 C 239.726562 21.800781 245.945312 29.796875 254.714844 30.894531 C 263.484375 31.988281 271.480469 25.769531 272.574219 17.003906 C 272.96875 13.867188 272.425781 10.6875 271.011719 7.863281 L 278.164062 4.285156 C 279.832031 7.617188 280.699219 11.289062 280.699219 15.015625 L 280.699219 47.015625 L 256.699219 59.015625 L 224.699219 55.015625 L 192.699219 59.015625 L 168.699219 47.015625 Z M 168.699219 15.015625 "/>
<path style=" stroke:none;fill-rule:evenodd;fill:rgb(6.298828%,6.298828%,6.298828%);fill-opacity:1;" d="M 231.40625 22.699219 C 231.40625 18.996094 228.40625 15.992188 224.699219 15.992188 C 220.996094 15.992188 217.992188 18.996094 217.992188 22.699219 C 217.992188 26.40625 220.996094 29.410156 224.699219 29.410156 C 228.40625 29.410156 231.40625 26.40625 231.40625 22.699219 "/>
<path style="fill:none;stroke-width:1.2;stroke-linecap:butt;stroke-linejoin:round;stroke:rgb(100%,100%,100%);stroke-opacity:1;stroke-miterlimit:10;" d="M 372.448438 376.317781 L 378.3 376.317781 " transform="matrix(1,0,0,-1,-151.3,399.017)"/>
<path style="fill:none;stroke-width:1.2;stroke-linecap:butt;stroke-linejoin:round;stroke:rgb(100%,100%,100%);stroke-opacity:1;stroke-miterlimit:10;" d="M 378.749219 379.915437 C 378.3 379.915437 377.850781 379.915437 377.100781 379.915437 C 376.350781 379.915437 375.3 379.915437 374.475781 379.540437 C 373.651563 379.165437 373.05 378.415437 372.749219 377.591219 C 372.448438 376.767 372.448438 375.868562 372.749219 375.040437 C 373.05 374.216219 373.651563 373.466219 374.475781 373.091219 C 375.3 372.716219 376.350781 372.716219 377.100781 372.716219 C 377.850781 372.716219 378.3 372.716219 378.749219 372.716219 " transform="matrix(1,0,0,-1,-151.3,399.017)"/>
<path style=" stroke:none;fill-rule:evenodd;fill:rgb(0%,78.399658%,32.499695%);fill-opacity:1;" d="M 243.898438 41.015625 C 243.898438 39.25 242.46875 37.816406 240.699219 37.816406 C 238.933594 37.816406 237.5 39.25 237.5 41.015625 C 237.5 42.785156 238.933594 44.21875 240.699219 44.21875 C 242.46875 44.21875 243.898438 42.785156 243.898438 41.015625 "/>
<path style=" stroke:none;fill-rule:evenodd;fill:rgb(83.499146%,0%,0%);fill-opacity:0.3;" d="M 211.898438 41.015625 C 211.898438 39.25 210.46875 37.816406 208.699219 37.816406 C 206.933594 37.816406 205.5 39.25 205.5 41.015625 C 205.5 42.785156 206.933594 44.21875 208.699219 44.21875 C 210.46875 44.21875 211.898438 42.785156 211.898438 41.015625 "/>
<path style=" stroke:none;fill-rule:evenodd;fill:rgb(100%,83.898926%,0%);fill-opacity:1;" d="M 38.699219 15.015625 C 38.699219 7.285156 32.433594 1.015625 24.699219 1.015625 C 16.96875 1.015625 10.699219 7.285156 10.699219 15.015625 C 10.699219 22.75 16.96875 29.015625 24.699219 29.015625 C 32.433594 29.015625 38.699219 22.75 38.699219 15.015625 "/>
<path style="fill:none;stroke-width:0.8;stroke-linecap:butt;stroke-linejoin:round;stroke:rgb(83.499146%,0%,0%);stroke-opacity:1;stroke-miterlimit:10;" d="M 191.999219 363.407625 L 191.999219 366.747469 " transform="matrix(1,0,0,-1,-151.3,399.017)"/>
<path style="fill:none;stroke-width:0.8;stroke-linecap:butt;stroke-linejoin:round;stroke:rgb(83.499146%,0%,0%);stroke-opacity:1;stroke-miterlimit:10;" d="M 196.682813 360.7045 L 199.573438 362.372469 " transform="matrix(1,0,0,-1,-151.3,399.017)"/>
<path style="fill:none;stroke-width:0.8;stroke-linecap:butt;stroke-linejoin:round;stroke:rgb(83.499146%,0%,0%);stroke-opacity:1;stroke-miterlimit:10;" d="M 196.682813 355.294344 L 199.573438 353.626375 " transform="matrix(1,0,0,-1,-151.3,399.017)"/>
<path style="fill:none;stroke-width:0.8;stroke-linecap:butt;stroke-linejoin:round;stroke:rgb(83.499146%,0%,0%);stroke-opacity:1;stroke-miterlimit:10;" d="M 191.999219 352.591219 L 191.999219 349.255281 " transform="matrix(1,0,0,-1,-151.3,399.017)"/>
<path style="fill:none;stroke-width:0.8;stroke-linecap:butt;stroke-linejoin:round;stroke:rgb(83.499146%,0%,0%);stroke-opacity:1;stroke-miterlimit:10;" d="M 187.315625 355.294344 L 184.425 353.626375 " transform="matrix(1,0,0,-1,-151.3,399.017)"/>
<path style="fill:none;stroke-width:0.8;stroke-linecap:butt;stroke-linejoin:round;stroke:rgb(83.499146%,0%,0%);stroke-opacity:1;stroke-miterlimit:10;" d="M 187.315625 360.7045 L 184.425 362.372469 " transform="matrix(1,0,0,-1,-151.3,399.017)"/>
<path style="fill:none;stroke-width:0.4;stroke-linecap:butt;stroke-linejoin:round;stroke:rgb(83.499146%,0%,0%);stroke-opacity:1;stroke-miterlimit:10;" d="M 189.296094 362.681062 L 188.839063 363.477937 " transform="matrix(1,0,0,-1,-151.3,399.017)"/>
<path style="fill:none;stroke-width:0.4;stroke-linecap:butt;stroke-linejoin:round;stroke:rgb(83.499146%,0%,0%);stroke-opacity:1;stroke-miterlimit:10;" d="M 194.702344 362.681062 L 195.163281 363.477937 " transform="matrix(1,0,0,-1,-151.3,399.017)"/>
<path style="fill:none;stroke-width:0.4;stroke-linecap:butt;stroke-linejoin:round;stroke:rgb(83.499146%,0%,0%);stroke-opacity:1;stroke-miterlimit:10;" d="M 197.409375 358.001375 L 198.323438 358.001375 " transform="matrix(1,0,0,-1,-151.3,399.017)"/>
<path style="fill:none;stroke-width:0.4;stroke-linecap:butt;stroke-linejoin:round;stroke:rgb(83.499146%,0%,0%);stroke-opacity:1;stroke-miterlimit:10;" d="M 194.702344 353.317781 L 195.163281 352.524812 " transform="matrix(1,0,0,-1,-151.3,399.017)"/>
<path style="fill:none;stroke-width:0.4;stroke-linecap:butt;stroke-linejoin:round;stroke:rgb(83.499146%,0%,0%);stroke-opacity:1;stroke-miterlimit:10;" d="M 189.296094 353.317781 L 188.839063 352.524812 " transform="matrix(1,0,0,-1,-151.3,399.017)"/>
<path style="fill:none;stroke-width:0.4;stroke-linecap:butt;stroke-linejoin:round;stroke:rgb(83.499146%,0%,0%);stroke-opacity:1;stroke-miterlimit:10;" d="M 186.589063 358.001375 L 185.675 358.001375 " transform="matrix(1,0,0,-1,-151.3,399.017)"/>
<path style="fill:none;stroke-width:0.8;stroke-linecap:butt;stroke-linejoin:round;stroke:rgb(0%,78.399658%,32.499695%);stroke-opacity:1;stroke-miterlimit:10;" d="M 391.999219 363.407625 L 391.999219 366.747469 " transform="matrix(1,0,0,-1,-151.3,399.017)"/>
<path style="fill:none;stroke-width:0.8;stroke-linecap:butt;stroke-linejoin:round;stroke:rgb(0%,78.399658%,32.499695%);stroke-opacity:1;stroke-miterlimit:10;" d="M 396.682813 360.7045 L 399.573438 362.372469 " transform="matrix(1,0,0,-1,-151.3,399.017)"/>
<path style="fill:none;stroke-width:0.8;stroke-linecap:butt;stroke-linejoin:round;stroke:rgb(0%,78.399658%,32.499695%);stroke-opacity:1;stroke-miterlimit:10;" d="M 396.682813 355.294344 L 399.573438 353.626375 " transform="matrix(1,0,0,-1,-151.3,399.017)"/>
<path style="fill:none;stroke-width:0.8;stroke-linecap:butt;stroke-linejoin:round;stroke:rgb(0%,78.399658%,32.499695%);stroke-opacity:1;stroke-miterlimit:10;" d="M 391.999219 352.591219 L 391.999219 349.255281 " transform="matrix(1,0,0,-1,-151.3,399.017)"/>
<path style="fill:none;stroke-width:0.8;stroke-linecap:butt;stroke-linejoin:round;stroke:rgb(0%,78.399658%,32.499695%);stroke-opacity:1;stroke-miterlimit:10;" d="M 387.315625 355.294344 L 384.425 353.626375 " transform="matrix(1,0,0,-1,-151.3,399.017)"/>
<path style="fill:none;stroke-width:0.8;stroke-linecap:butt;stroke-linejoin:round;stroke:rgb(0%,78.399658%,32.499695%);stroke-opacity:1;stroke-miterlimit:10;" d="M 387.315625 360.7045 L 384.425 362.372469 " transform="matrix(1,0,0,-1,-151.3,399.017)"/>
<path style="fill:none;stroke-width:0.4;stroke-linecap:butt;stroke-linejoin:round;stroke:rgb(0%,78.399658%,32.499695%);stroke-opacity:1;stroke-miterlimit:10;" d="M 389.296094 362.681062 L 388.835156 363.477937 " transform="matrix(1,0,0,-1,-151.3,399.017)"/>
<path style="fill:none;stroke-width:0.4;stroke-linecap:butt;stroke-linejoin:round;stroke:rgb(0%,78.399658%,32.499695%);stroke-opacity:1;stroke-miterlimit:10;" d="M 394.702344 362.681062 L 395.163281 363.477937 " transform="matrix(1,0,0,-1,-151.3,399.017)"/>
<path style="fill:none;stroke-width:0.4;stroke-linecap:butt;stroke-linejoin:round;stroke:rgb(0%,78.399658%,32.499695%);stroke-opacity:1;stroke-miterlimit:10;" d="M 397.409375 358.001375 L 398.323438 358.001375 " transform="matrix(1,0,0,-1,-151.3,399.017)"/>
<path style="fill:none;stroke-width:0.4;stroke-linecap:butt;stroke-linejoin:round;stroke:rgb(0%,78.399658%,32.499695%);stroke-opacity:1;stroke-miterlimit:10;" d="M 394.702344 353.317781 L 395.163281 352.524812 " transform="matrix(1,0,0,-1,-151.3,399.017)"/>
<path style="fill:none;stroke-width:0.4;stroke-linecap:butt;stroke-linejoin:round;stroke:rgb(0%,78.399658%,32.499695%);stroke-opacity:1;stroke-miterlimit:10;" d="M 389.296094 353.317781 L 388.835156 352.524812 " transform="matrix(1,0,0,-1,-151.3,399.017)"/>
<path style="fill:none;stroke-width:0.4;stroke-linecap:butt;stroke-linejoin:round;stroke:rgb(0%,78.399658%,32.499695%);stroke-opacity:1;stroke-miterlimit:10;" d="M 386.589063 358.001375 L 385.675 358.001375 " transform="matrix(1,0,0,-1,-151.3,399.017)"/>
<path style=" stroke:none;fill-rule:evenodd;fill:rgb(100%,83.898926%,0%);fill-opacity:1;" d="M 270.699219 14.699219 C 270.699219 6.96875 264.433594 0.699219 256.699219 0.699219 C 248.96875 0.699219 242.699219 6.96875 242.699219 14.699219 C 242.699219 22.433594 248.96875 28.699219 256.699219 28.699219 C 264.433594 28.699219 270.699219 22.433594 270.699219 14.699219 "/>
<path style=" stroke:none;fill-rule:evenodd;fill:rgb(100%,83.898926%,0%);fill-opacity:1;" d="M 206.699219 15.015625 C 206.699219 7.285156 200.433594 1.015625 192.699219 1.015625 C 184.96875 1.015625 178.699219 7.285156 178.699219 15.015625 C 178.699219 22.75 184.96875 29.015625 192.699219 29.015625 C 200.433594 29.015625 206.699219 22.75 206.699219 15.015625 "/>
<path style=" stroke:none;fill-rule:evenodd;fill:rgb(100%,83.898926%,0%);fill-opacity:1;" d="M 102.699219 15.015625 C 102.699219 7.285156 96.433594 1.015625 88.699219 1.015625 C 80.96875 1.015625 74.699219 7.285156 74.699219 15.015625 C 74.699219 22.75 80.96875 29.015625 88.699219 29.015625 C 96.433594 29.015625 102.699219 22.75 102.699219 15.015625 "/>
<g clip-path="url(#clip1)" clip-rule="nonzero">
<path style=" stroke:none;fill-rule:evenodd;fill:rgb(100%,83.898926%,0%);fill-opacity:1;" d="M 45.941406 79.015625 C 45.941406 73.914062 41.804688 69.777344 36.699219 69.777344 C 31.597656 69.777344 27.460938 73.914062 27.460938 79.015625 C 27.460938 84.121094 31.597656 88.257812 36.699219 88.257812 C 41.804688 88.257812 45.941406 84.121094 45.941406 79.015625 "/>
</g>
<g clip-path="url(#clip2)" clip-rule="nonzero">
<path style=" stroke:none;fill-rule:evenodd;fill:rgb(100%,83.898926%,0%);fill-opacity:1;" d="M 85.941406 79.015625 C 85.941406 73.914062 81.804688 69.777344 76.699219 69.777344 C 71.597656 69.777344 67.460938 73.914062 67.460938 79.015625 C 67.460938 84.121094 71.597656 88.257812 76.699219 88.257812 C 81.804688 88.257812 85.941406 84.121094 85.941406 79.015625 "/>
</g>
<path style="fill:none;stroke-width:1.2;stroke-linecap:butt;stroke-linejoin:round;stroke:rgb(0%,0%,0%);stroke-opacity:1;stroke-miterlimit:10;" d="M 203.663281 320.001375 L 210.975781 320.001375 " transform="matrix(1,0,0,-1,-151.3,399.017)"/>
<path style="fill:none;stroke-width:1.2;stroke-linecap:butt;stroke-linejoin:round;stroke:rgb(0%,0%,0%);stroke-opacity:1;stroke-miterlimit:10;" d="M 211.538281 324.501375 C 210.975781 324.501375 210.413281 324.501375 209.475781 324.501375 C 208.538281 324.501375 207.225781 324.501375 206.194531 324.032625 C 205.163281 323.563875 204.413281 322.626375 204.038281 321.595125 C 203.663281 320.563875 203.663281 319.438875 204.038281 318.407625 C 204.413281 317.376375 205.163281 316.438875 206.194531 315.970125 C 207.225781 315.501375 208.538281 315.501375 209.475781 315.501375 C 210.413281 315.501375 210.975781 315.501375 211.538281 315.501375 " transform="matrix(1,0,0,-1,-151.3,399.017)"/>
<path style="fill:none;stroke-width:1.2;stroke-linecap:butt;stroke-linejoin:round;stroke:rgb(0%,0%,0%);stroke-opacity:1;stroke-miterlimit:10;" d="M 210.100781 326.067781 L 205.604688 314.212312 " transform="matrix(1,0,0,-1,-151.3,399.017)"/>
<g clip-path="url(#clip3)" clip-rule="nonzero">
<path style=" stroke:none;fill-rule:evenodd;fill:rgb(100%,83.898926%,0%);fill-opacity:1;" d="M 213.941406 79.015625 C 213.941406 73.914062 209.804688 69.777344 204.699219 69.777344 C 199.597656 69.777344 195.460938 73.914062 195.460938 79.015625 C 195.460938 84.121094 199.597656 88.257812 204.699219 88.257812 C 209.804688 88.257812 213.941406 84.121094 213.941406 79.015625 "/>
</g>
<g clip-path="url(#clip4)" clip-rule="nonzero">
<path style=" stroke:none;fill-rule:evenodd;fill:rgb(100%,83.898926%,0%);fill-opacity:1;" d="M 253.941406 79.015625 C 253.941406 73.914062 249.804688 69.777344 244.699219 69.777344 C 239.597656 69.777344 235.460938 73.914062 235.460938 79.015625 C 235.460938 84.121094 239.597656 88.257812 244.699219 88.257812 C 249.804688 88.257812 253.941406 84.121094 253.941406 79.015625 "/>
</g>
<path style="fill:none;stroke-width:1.2;stroke-linecap:butt;stroke-linejoin:round;stroke:rgb(0%,0%,0%);stroke-opacity:1;stroke-miterlimit:10;" d="M 371.663281 320.001375 L 378.975781 320.001375 " transform="matrix(1,0,0,-1,-151.3,399.017)"/>
<path style="fill:none;stroke-width:1.2;stroke-linecap:butt;stroke-linejoin:round;stroke:rgb(0%,0%,0%);stroke-opacity:1;stroke-miterlimit:10;" d="M 379.538281 324.501375 C 378.975781 324.501375 378.413281 324.501375 377.475781 324.501375 C 376.538281 324.501375 375.225781 324.501375 374.194531 324.032625 C 373.163281 323.563875 372.413281 322.626375 372.038281 321.595125 C 371.663281 320.563875 371.663281 319.438875 372.038281 318.407625 C 372.413281 317.376375 373.163281 316.438875 374.194531 315.970125 C 375.225781 315.501375 376.538281 315.501375 377.475781 315.501375 C 378.413281 315.501375 378.975781 315.501375 379.538281 315.501375 " transform="matrix(1,0,0,-1,-151.3,399.017)"/>
</g>
</svg>
