<?xml version="1.0" encoding="UTF-8"?>
<svg xmlns="http://www.w3.org/2000/svg" xmlns:xlink="http://www.w3.org/1999/xlink" width="160.4pt" height="200.4pt" viewBox="0 0 160.4 200.4" version="1.1">
<defs>
<clipPath id="clip1">
  <path d="M 0 0 L 160.398438 0 L 160.398438 200.398438 L 0 200.398438 Z M 0 0 "/>
</clipPath>
</defs>
<g id="surface1">
<g clip-path="url(#clip1)" clip-rule="nonzero">
<path style="fill:none;stroke-width:0.4;stroke-linecap:butt;stroke-linejoin:round;stroke:rgb(0%,0%,0%);stroke-opacity:1;stroke-dasharray:4;stroke-miterlimit:10;" d="M 175.999219 528.000781 L 175.999219 328.000781 L 335.999219 328.000781 L 335.999219 528.000781 Z M 175.999219 528.000781 " transform="matrix(1,0,0,-1,-175.8,528.2)"/>
</g>
<path style=" stroke:none;fill-rule:evenodd;fill:rgb(12.89978%,12.89978%,12.89978%);fill-opacity:1;" d="M 24.199219 144.199219 C 24.199219 140.472656 25.066406 136.800781 26.734375 133.46875 L 33.890625 137.046875 C 29.9375 144.949219 33.140625 154.558594 41.046875 158.511719 C 48.949219 162.464844 58.558594 159.257812 62.511719 151.355469 C 63.925781 148.53125 64.46875 145.347656 64.074219 142.214844 L 80.199219 140.199219 L 96.324219 142.214844 C 95.226562 150.984375 101.445312 158.980469 110.214844 160.074219 C 118.984375 161.171875 126.980469 154.953125 128.074219 146.183594 C 128.46875 143.050781 127.925781 139.871094 126.511719 137.046875 L 133.664062 133.46875 C 135.332031 136.800781 136.199219 140.472656 136.199219 144.199219 L 136.199219 176.199219 L 112.199219 188.199219 L 80.199219 184.199219 L 48.199219 188.199219 L 24.199219 176.199219 Z M 24.199219 144.199219 "/>
<path style=" stroke:none;fill-rule:evenodd;fill:rgb(6.298828%,6.298828%,6.298828%);fill-opacity:1;" d="M 86.90625 151.882812 C 86.90625 148.179688 83.90625 145.175781 80.199219 145.175781 C 76.496094 145.175781 73.492188 148.179688 73.492188 151.882812 C 73.492188 155.589844 76.496094 158.59375 80.199219 158.59375 C 83.90625 158.59375 86.90625 155.589844 86.90625 151.882812 "/>
<path style="fill:none;stroke-width:1.2;stroke-linecap:butt;stroke-linejoin:round;stroke:rgb(100%,100%,100%);stroke-opacity:1;stroke-miterlimit:10;" d="M 252.448438 376.317188 L 258.3 376.317188 " transform="matrix(1,0,0,-1,-175.8,528.2)"/>
<path style="fill:none;stroke-width:1.2;stroke-linecap:butt;stroke-linejoin:round;stroke:rgb(100%,100%,100%);stroke-opacity:1;stroke-miterlimit:10;" d="M 258.749219 379.91875 C 258.3 379.91875 257.850781 379.91875 257.100781 379.91875 C 256.350781 379.91875 255.3 379.91875 254.475781 379.54375 C 253.651563 379.16875 253.05 378.41875 252.749219 377.590625 C 252.448438 376.766406 252.448438 375.867969 252.749219 375.04375 C 253.05 374.215625 253.651563 373.465625 254.475781 373.090625 C 255.3 372.715625 256.350781 372.715625 257.100781 372.715625 C 257.850781 372.715625 258.3 372.715625 258.749219 372.715625 " transform="matrix(1,0,0,-1,-175.8,528.2)"/>
<path style="fill:none;stroke-width:0.4;stroke-linecap:butt;stroke-linejoin:round;stroke:rgb(0%,0%,0%);stroke-opacity:1;stroke-dasharray:1,3;stroke-miterlimit:10;" d="M 221.999219 464.000781 C 221.999219 471.73125 215.733594 478.000781 207.999219 478.000781 C 200.26875 478.000781 193.999219 471.73125 193.999219 464.000781 C 193.999219 456.266406 200.26875 450.000781 207.999219 450.000781 C 215.733594 450.000781 221.999219 456.266406 221.999219 464.000781 " transform="matrix(1,0,0,-1,-175.8,528.2)"/>
<path style=" stroke:none;fill-rule:evenodd;fill:rgb(0%,78.399658%,32.499695%);fill-opacity:1;" d="M 99.398438 170.199219 C 99.398438 168.433594 97.96875 167 96.199219 167 C 94.433594 167 93 168.433594 93 170.199219 C 93 171.96875 94.433594 173.398438 96.199219 173.398438 C 97.96875 173.398438 99.398438 171.96875 99.398438 170.199219 "/>
<path style=" stroke:none;fill-rule:evenodd;fill:rgb(83.499146%,0%,0%);fill-opacity:0.3;" d="M 67.398438 170.199219 C 67.398438 168.433594 65.96875 167 64.199219 167 C 62.433594 167 61 168.433594 61 170.199219 C 61 171.96875 62.433594 173.398438 64.199219 173.398438 C 65.96875 173.398438 67.398438 171.96875 67.398438 170.199219 "/>
<path style="fill:none;stroke-width:0.4;stroke-linecap:butt;stroke-linejoin:round;stroke:rgb(0%,0%,0%);stroke-opacity:1;stroke-dasharray:1,3;stroke-miterlimit:10;" d="M 285.999219 456.000781 C 285.999219 463.73125 279.733594 470.000781 271.999219 470.000781 C 264.26875 470.000781 257.999219 463.73125 257.999219 456.000781 C 257.999219 448.266406 264.26875 442.000781 271.999219 442.000781 C 279.733594 442.000781 285.999219 448.266406 285.999219 456.000781 " transform="matrix(1,0,0,-1,-175.8,528.2)"/>
<path style="fill:none;stroke-width:0.4;stroke-linecap:butt;stroke-linejoin:round;stroke:rgb(0%,0%,0%);stroke-opacity:1;stroke-dasharray:1,3;stroke-miterlimit:10;" d="M 253.999219 432.000781 C 253.999219 439.73125 247.733594 446.000781 239.999219 446.000781 C 232.26875 446.000781 225.999219 439.73125 225.999219 432.000781 C 225.999219 424.266406 232.26875 418.000781 239.999219 418.000781 C 247.733594 418.000781 253.999219 424.266406 253.999219 432.000781 " transform="matrix(1,0,0,-1,-175.8,528.2)"/>
<path style="fill:none;stroke-width:0.4;stroke-linecap:butt;stroke-linejoin:round;stroke:rgb(0%,0%,0%);stroke-opacity:1;stroke-dasharray:1,3;stroke-miterlimit:10;" d="M 261.999219 488.000781 C 261.999219 495.73125 255.733594 502.000781 247.999219 502.000781 C 240.26875 502.000781 233.999219 495.73125 233.999219 488.000781 C 233.999219 480.266406 240.26875 474.000781 247.999219 474.000781 C 255.733594 474.000781 261.999219 480.266406 261.999219 488.000781 " transform="matrix(1,0,0,-1,-175.8,528.2)"/>
<path style="fill:none;stroke-width:0.4;stroke-linecap:butt;stroke-linejoin:round;stroke:rgb(0%,0%,0%);stroke-opacity:1;stroke-dasharray:1,3;stroke-miterlimit:10;" d="M 317.999219 488.000781 C 317.999219 495.73125 311.733594 502.000781 303.999219 502.000781 C 296.26875 502.000781 289.999219 495.73125 289.999219 488.000781 C 289.999219 480.266406 296.26875 474.000781 303.999219 474.000781 C 311.733594 474.000781 317.999219 480.266406 317.999219 488.000781 " transform="matrix(1,0,0,-1,-175.8,528.2)"/>
<path style="fill:none;stroke-width:0.4;stroke-linecap:butt;stroke-linejoin:round;stroke:rgb(0%,0%,0%);stroke-opacity:1;stroke-dasharray:1,3;stroke-miterlimit:10;" d="M 325.999219 448.000781 C 325.999219 455.73125 319.733594 462.000781 311.999219 462.000781 C 304.26875 462.000781 297.999219 455.73125 297.999219 448.000781 C 297.999219 440.266406 304.26875 434.000781 311.999219 434.000781 C 319.733594 434.000781 325.999219 440.266406 325.999219 448.000781 " transform="matrix(1,0,0,-1,-175.8,528.2)"/>
<path style="fill:none;stroke-width:0.4;stroke-linecap:butt;stroke-linejoin:round;stroke:rgb(0%,0%,0%);stroke-opacity:1;stroke-dasharray:1,3;stroke-miterlimit:10;" d="M 213.999219 504.000781 C 213.999219 511.73125 207.733594 518.000781 199.999219 518.000781 C 192.26875 518.000781 185.999219 511.73125 185.999219 504.000781 C 185.999219 496.266406 192.26875 490.000781 199.999219 490.000781 C 207.733594 490.000781 213.999219 496.266406 213.999219 504.000781 " transform="matrix(1,0,0,-1,-175.8,528.2)"/>
<path style="fill:none;stroke-width:0.4;stroke-linecap:butt;stroke-linejoin:round;stroke:rgb(0%,0%,0%);stroke-opacity:1;stroke-dasharray:1,3;stroke-miterlimit:10;" d="M 237.999219 384.000781 C 237.999219 391.73125 231.733594 398.000781 223.999219 398.000781 C 216.26875 398.000781 209.999219 391.73125 209.999219 384.000781 C 209.999219 376.266406 216.26875 370.000781 223.999219 370.000781 C 231.733594 370.000781 237.999219 376.266406 237.999219 384.000781 " transform="matrix(1,0,0,-1,-175.8,528.2)"/>
<path style="fill:none;stroke-width:0.4;stroke-linecap:butt;stroke-linejoin:round;stroke:rgb(0%,0%,0%);stroke-opacity:1;stroke-dasharray:1,3;stroke-miterlimit:10;" d="M 301.999219 384.000781 C 301.999219 391.73125 295.733594 398.000781 287.999219 398.000781 C 280.26875 398.000781 273.999219 391.73125 273.999219 384.000781 C 273.999219 376.266406 280.26875 370.000781 287.999219 370.000781 C 295.733594 370.000781 301.999219 376.266406 301.999219 384.000781 " transform="matrix(1,0,0,-1,-175.8,528.2)"/>
<path style="fill:none;stroke-width:0.8;stroke-linecap:butt;stroke-linejoin:round;stroke:rgb(0%,78.399658%,32.499695%);stroke-opacity:1;stroke-miterlimit:10;" d="M 271.999219 363.407031 L 271.999219 366.746875 " transform="matrix(1,0,0,-1,-175.8,528.2)"/>
<path style="fill:none;stroke-width:0.8;stroke-linecap:butt;stroke-linejoin:round;stroke:rgb(0%,78.399658%,32.499695%);stroke-opacity:1;stroke-miterlimit:10;" d="M 276.682813 360.703906 L 279.573438 362.371875 " transform="matrix(1,0,0,-1,-175.8,528.2)"/>
<path style="fill:none;stroke-width:0.8;stroke-linecap:butt;stroke-linejoin:round;stroke:rgb(0%,78.399658%,32.499695%);stroke-opacity:1;stroke-miterlimit:10;" d="M 276.682813 355.297656 L 279.573438 353.625781 " transform="matrix(1,0,0,-1,-175.8,528.2)"/>
<path style="fill:none;stroke-width:0.8;stroke-linecap:butt;stroke-linejoin:round;stroke:rgb(0%,78.399658%,32.499695%);stroke-opacity:1;stroke-miterlimit:10;" d="M 271.999219 352.590625 L 271.999219 349.254688 " transform="matrix(1,0,0,-1,-175.8,528.2)"/>
<path style="fill:none;stroke-width:0.8;stroke-linecap:butt;stroke-linejoin:round;stroke:rgb(0%,78.399658%,32.499695%);stroke-opacity:1;stroke-miterlimit:10;" d="M 267.315625 355.297656 L 264.425 353.625781 " transform="matrix(1,0,0,-1,-175.8,528.2)"/>
<path style="fill:none;stroke-width:0.8;stroke-linecap:butt;stroke-linejoin:round;stroke:rgb(0%,78.399658%,32.499695%);stroke-opacity:1;stroke-miterlimit:10;" d="M 267.315625 360.703906 L 264.425 362.371875 " transform="matrix(1,0,0,-1,-175.8,528.2)"/>
<path style="fill:none;stroke-width:0.4;stroke-linecap:butt;stroke-linejoin:round;stroke:rgb(0%,78.399658%,32.499695%);stroke-opacity:1;stroke-miterlimit:10;" d="M 269.296094 362.684375 L 268.835156 363.477344 " transform="matrix(1,0,0,-1,-175.8,528.2)"/>
<path style="fill:none;stroke-width:0.4;stroke-linecap:butt;stroke-linejoin:round;stroke:rgb(0%,78.399658%,32.499695%);stroke-opacity:1;stroke-miterlimit:10;" d="M 274.702344 362.684375 L 275.163281 363.477344 " transform="matrix(1,0,0,-1,-175.8,528.2)"/>
<path style="fill:none;stroke-width:0.4;stroke-linecap:butt;stroke-linejoin:round;stroke:rgb(0%,78.399658%,32.499695%);stroke-opacity:1;stroke-miterlimit:10;" d="M 277.409375 358.000781 L 278.323438 358.000781 " transform="matrix(1,0,0,-1,-175.8,528.2)"/>
<path style="fill:none;stroke-width:0.4;stroke-linecap:butt;stroke-linejoin:round;stroke:rgb(0%,78.399658%,32.499695%);stroke-opacity:1;stroke-miterlimit:10;" d="M 274.702344 353.317188 L 275.163281 352.524219 " transform="matrix(1,0,0,-1,-175.8,528.2)"/>
<path style="fill:none;stroke-width:0.4;stroke-linecap:butt;stroke-linejoin:round;stroke:rgb(0%,78.399658%,32.499695%);stroke-opacity:1;stroke-miterlimit:10;" d="M 269.296094 353.317188 L 268.835156 352.524219 " transform="matrix(1,0,0,-1,-175.8,528.2)"/>
<path style="fill:none;stroke-width:0.4;stroke-linecap:butt;stroke-linejoin:round;stroke:rgb(0%,78.399658%,32.499695%);stroke-opacity:1;stroke-miterlimit:10;" d="M 266.589063 358.000781 L 265.675 358.000781 " transform="matrix(1,0,0,-1,-175.8,528.2)"/>
</g>
</svg>
