<?xml version="1.0" encoding="UTF-8"?>
<svg xmlns="http://www.w3.org/2000/svg" xmlns:xlink="http://www.w3.org/1999/xlink" width="309.4pt" height="208.64pt" viewBox="0 0 309.4 208.64" version="1.1">
<g id="surface1">
<path style=" stroke:none;fill-rule:evenodd;fill:rgb(12.89978%,12.89978%,12.89978%);fill-opacity:1;" d="M 14.699219 134.699219 C 14.699219 130.972656 15.566406 127.300781 17.234375 123.96875 L 24.390625 127.546875 C 20.4375 135.449219 23.640625 145.058594 31.546875 149.011719 C 39.449219 152.964844 49.058594 149.757812 53.011719 141.855469 C 54.425781 139.03125 54.96875 135.847656 54.574219 132.714844 L 70.699219 130.699219 L 86.824219 132.714844 C 85.726562 141.484375 91.945312 149.480469 100.714844 150.574219 C 109.484375 151.671875 117.480469 145.453125 118.574219 136.683594 C 118.96875 133.550781 118.425781 130.371094 117.011719 127.546875 L 124.164062 123.96875 C 125.832031 127.300781 126.699219 130.972656 126.699219 134.699219 L 126.699219 166.699219 L 102.699219 178.699219 L 70.699219 174.699219 L 38.699219 178.699219 L 14.699219 166.699219 Z M 14.699219 134.699219 "/>
<path style=" stroke:none;fill-rule:evenodd;fill:rgb(6.298828%,6.298828%,6.298828%);fill-opacity:1;" d="M 77.40625 142.382812 C 77.40625 138.679688 74.40625 135.675781 70.699219 135.675781 C 66.996094 135.675781 63.992188 138.679688 63.992188 142.382812 C 63.992188 146.089844 66.996094 149.09375 70.699219 149.09375 C 74.40625 149.09375 77.40625 146.089844 77.40625 142.382812 "/>
<path style="fill:none;stroke-width:1.2;stroke-linecap:butt;stroke-linejoin:round;stroke:rgb(100%,100%,100%);stroke-opacity:1;stroke-miterlimit:10;" d="M 204.448438 376.317188 L 210.3 376.317188 " transform="matrix(1,0,0,-1,-137.3,518.7)"/>
<path style="fill:none;stroke-width:1.2;stroke-linecap:butt;stroke-linejoin:round;stroke:rgb(100%,100%,100%);stroke-opacity:1;stroke-miterlimit:10;" d="M 210.749219 379.91875 C 210.3 379.91875 209.850781 379.91875 209.100781 379.91875 C 208.350781 379.91875 207.3 379.91875 206.475781 379.54375 C 205.651563 379.16875 205.05 378.41875 204.749219 377.590625 C 204.448438 376.766406 204.448438 375.867969 204.749219 375.04375 C 205.05 374.215625 205.651563 373.465625 206.475781 373.090625 C 207.3 372.715625 208.350781 372.715625 209.100781 372.715625 C 209.850781 372.715625 210.3 372.715625 210.749219 372.715625 " transform="matrix(1,0,0,-1,-137.3,518.7)"/>
<path style=" stroke:none;fill-rule:evenodd;fill:rgb(100%,59.599304%,0%);fill-opacity:1;" d="M 36.699219 54.699219 C 36.699219 46.96875 30.433594 40.699219 22.699219 40.699219 C 14.96875 40.699219 8.699219 46.96875 8.699219 54.699219 C 8.699219 62.433594 14.96875 68.699219 22.699219 68.699219 C 30.433594 68.699219 36.699219 62.433594 36.699219 54.699219 "/>
<path style=" stroke:none;fill-rule:evenodd;fill:rgb(0%,78.399658%,32.499695%);fill-opacity:0.3;" d="M 89.898438 160.699219 C 89.898438 158.933594 88.46875 157.5 86.699219 157.5 C 84.933594 157.5 83.5 158.933594 83.5 160.699219 C 83.5 162.46875 84.933594 163.898438 86.699219 163.898438 C 88.46875 163.898438 89.898438 162.46875 89.898438 160.699219 "/>
<path style=" stroke:none;fill-rule:evenodd;fill:rgb(83.499146%,0%,0%);fill-opacity:1;" d="M 57.898438 160.699219 C 57.898438 158.933594 56.46875 157.5 54.699219 157.5 C 52.933594 157.5 51.5 158.933594 51.5 160.699219 C 51.5 162.46875 52.933594 163.898438 54.699219 163.898438 C 56.46875 163.898438 57.898438 162.46875 57.898438 160.699219 "/>
<path style=" stroke:none;fill-rule:evenodd;fill:rgb(29.798889%,68.598938%,31.399536%);fill-opacity:1;" d="M 100.699219 62.699219 C 100.699219 54.96875 94.433594 48.699219 86.699219 48.699219 C 78.96875 48.699219 72.699219 54.96875 72.699219 62.699219 C 72.699219 70.433594 78.96875 76.699219 86.699219 76.699219 C 94.433594 76.699219 100.699219 70.433594 100.699219 62.699219 "/>
<path style="fill:none;stroke-width:0.4;stroke-linecap:butt;stroke-linejoin:round;stroke:rgb(0%,0%,0%);stroke-opacity:1;stroke-dasharray:1,3;stroke-miterlimit:10;" d="M 205.999219 432.000781 C 205.999219 439.73125 199.733594 446.000781 191.999219 446.000781 C 184.26875 446.000781 177.999219 439.73125 177.999219 432.000781 C 177.999219 424.266406 184.26875 418.000781 191.999219 418.000781 C 199.733594 418.000781 205.999219 424.266406 205.999219 432.000781 " transform="matrix(1,0,0,-1,-137.3,518.7)"/>
<path style=" stroke:none;fill-rule:evenodd;fill:rgb(91.398621%,11.799622%,38.798523%);fill-opacity:1;" d="M 76.699219 30.699219 C 76.699219 22.96875 70.433594 16.699219 62.699219 16.699219 C 54.96875 16.699219 48.699219 22.96875 48.699219 30.699219 C 48.699219 38.433594 54.96875 44.699219 62.699219 44.699219 C 70.433594 44.699219 76.699219 38.433594 76.699219 30.699219 "/>
<path style="fill:none;stroke-width:0.4;stroke-linecap:butt;stroke-linejoin:round;stroke:rgb(0%,0%,0%);stroke-opacity:1;stroke-dasharray:1,3;stroke-miterlimit:10;" d="M 269.999219 488.000781 C 269.999219 495.73125 263.733594 502.000781 255.999219 502.000781 C 248.26875 502.000781 241.999219 495.73125 241.999219 488.000781 C 241.999219 480.266406 248.26875 474.000781 255.999219 474.000781 C 263.733594 474.000781 269.999219 480.266406 269.999219 488.000781 " transform="matrix(1,0,0,-1,-137.3,518.7)"/>
<path style=" stroke:none;fill-rule:evenodd;fill:rgb(47.499084%,33.299255%,28.199768%);fill-opacity:1;" d="M 140.699219 70.699219 C 140.699219 62.96875 134.433594 56.699219 126.699219 56.699219 C 118.96875 56.699219 112.699219 62.96875 112.699219 70.699219 C 112.699219 78.433594 118.96875 84.699219 126.699219 84.699219 C 134.433594 84.699219 140.699219 78.433594 140.699219 70.699219 "/>
<path style=" stroke:none;fill-rule:evenodd;fill:rgb(1.199341%,66.299438%,95.698547%);fill-opacity:1;" d="M 28.699219 14.699219 C 28.699219 6.96875 22.433594 0.699219 14.699219 0.699219 C 6.96875 0.699219 0.699219 6.96875 0.699219 14.699219 C 0.699219 22.433594 6.96875 28.699219 14.699219 28.699219 C 22.433594 28.699219 28.699219 22.433594 28.699219 14.699219 "/>
<path style=" stroke:none;fill-rule:evenodd;fill:rgb(12.89978%,12.89978%,12.89978%);fill-opacity:1;" d="M 182.699219 134.699219 C 182.699219 130.972656 183.566406 127.300781 185.234375 123.96875 L 192.390625 127.546875 C 188.4375 135.449219 191.640625 145.058594 199.546875 149.011719 C 207.449219 152.964844 217.058594 149.757812 221.011719 141.855469 C 222.425781 139.03125 222.96875 135.847656 222.574219 132.714844 L 238.699219 130.699219 L 254.824219 132.714844 C 253.726562 141.484375 259.945312 149.480469 268.714844 150.574219 C 277.484375 151.671875 285.480469 145.453125 286.574219 136.683594 C 286.96875 133.550781 286.425781 130.371094 285.011719 127.546875 L 292.164062 123.96875 C 293.832031 127.300781 294.699219 130.972656 294.699219 134.699219 L 294.699219 166.699219 L 270.699219 178.699219 L 238.699219 174.699219 L 206.699219 178.699219 L 182.699219 166.699219 Z M 182.699219 134.699219 "/>
<path style=" stroke:none;fill-rule:evenodd;fill:rgb(6.298828%,6.298828%,6.298828%);fill-opacity:1;" d="M 245.40625 142.382812 C 245.40625 138.679688 242.40625 135.675781 238.699219 135.675781 C 234.996094 135.675781 231.992188 138.679688 231.992188 142.382812 C 231.992188 146.089844 234.996094 149.09375 238.699219 149.09375 C 242.40625 149.09375 245.40625 146.089844 245.40625 142.382812 "/>
<path style="fill:none;stroke-width:1.2;stroke-linecap:butt;stroke-linejoin:round;stroke:rgb(100%,100%,100%);stroke-opacity:1;stroke-miterlimit:10;" d="M 372.448438 376.317188 L 378.3 376.317188 " transform="matrix(1,0,0,-1,-137.3,518.7)"/>
<path style="fill:none;stroke-width:1.2;stroke-linecap:butt;stroke-linejoin:round;stroke:rgb(100%,100%,100%);stroke-opacity:1;stroke-miterlimit:10;" d="M 378.749219 379.91875 C 378.3 379.91875 377.850781 379.91875 377.100781 379.91875 C 376.350781 379.91875 375.3 379.91875 374.475781 379.54375 C 373.651563 379.16875 373.05 378.41875 372.749219 377.590625 C 372.448438 376.766406 372.448438 375.867969 372.749219 375.04375 C 373.05 374.215625 373.651563 373.465625 374.475781 373.090625 C 375.3 372.715625 376.350781 372.715625 377.100781 372.715625 C 377.850781 372.715625 378.3 372.715625 378.749219 372.715625 " transform="matrix(1,0,0,-1,-137.3,518.7)"/>
<path style="fill:none;stroke-width:0.4;stroke-linecap:butt;stroke-linejoin:round;stroke:rgb(0%,0%,0%);stroke-opacity:1;stroke-dasharray:1,3;stroke-miterlimit:10;" d="M 341.999219 464.000781 C 341.999219 471.73125 335.733594 478.000781 327.999219 478.000781 C 320.26875 478.000781 313.999219 471.73125 313.999219 464.000781 C 313.999219 456.266406 320.26875 450.000781 327.999219 450.000781 C 335.733594 450.000781 341.999219 456.266406 341.999219 464.000781 " transform="matrix(1,0,0,-1,-137.3,518.7)"/>
<path style=" stroke:none;fill-rule:evenodd;fill:rgb(0%,78.399658%,32.499695%);fill-opacity:1;" d="M 257.898438 160.699219 C 257.898438 158.933594 256.46875 157.5 254.699219 157.5 C 252.933594 157.5 251.5 158.933594 251.5 160.699219 C 251.5 162.46875 252.933594 163.898438 254.699219 163.898438 C 256.46875 163.898438 257.898438 162.46875 257.898438 160.699219 "/>
<path style=" stroke:none;fill-rule:evenodd;fill:rgb(83.499146%,0%,0%);fill-opacity:0.3;" d="M 225.898438 160.699219 C 225.898438 158.933594 224.46875 157.5 222.699219 157.5 C 220.933594 157.5 219.5 158.933594 219.5 160.699219 C 219.5 162.46875 220.933594 163.898438 222.699219 163.898438 C 224.46875 163.898438 225.898438 162.46875 225.898438 160.699219 "/>
<path style=" stroke:none;fill-rule:evenodd;fill:rgb(29.798889%,68.598938%,31.399536%);fill-opacity:1;" d="M 268.699219 62.699219 C 268.699219 54.96875 262.433594 48.699219 254.699219 48.699219 C 246.96875 48.699219 240.699219 54.96875 240.699219 62.699219 C 240.699219 70.433594 246.96875 76.699219 254.699219 76.699219 C 262.433594 76.699219 268.699219 70.433594 268.699219 62.699219 "/>
<path style=" stroke:none;fill-rule:evenodd;fill:rgb(40.39917%,22.698975%,71.798706%);fill-opacity:1;" d="M 236.699219 86.699219 C 236.699219 78.96875 230.433594 72.699219 222.699219 72.699219 C 214.96875 72.699219 208.699219 78.96875 208.699219 86.699219 C 208.699219 94.433594 214.96875 100.699219 222.699219 100.699219 C 230.433594 100.699219 236.699219 94.433594 236.699219 86.699219 "/>
<path style="fill:none;stroke-width:0.4;stroke-linecap:butt;stroke-linejoin:round;stroke:rgb(0%,0%,0%);stroke-opacity:1;stroke-dasharray:1,3;stroke-miterlimit:10;" d="M 381.999219 488.000781 C 381.999219 495.73125 375.733594 502.000781 367.999219 502.000781 C 360.26875 502.000781 353.999219 495.73125 353.999219 488.000781 C 353.999219 480.266406 360.26875 474.000781 367.999219 474.000781 C 375.733594 474.000781 381.999219 480.266406 381.999219 488.000781 " transform="matrix(1,0,0,-1,-137.3,518.7)"/>
<path style=" stroke:none;fill-rule:evenodd;fill:rgb(80.39856%,86.299133%,22.399902%);fill-opacity:1;" d="M 300.699219 30.699219 C 300.699219 22.96875 294.433594 16.699219 286.699219 16.699219 C 278.96875 16.699219 272.699219 22.96875 272.699219 30.699219 C 272.699219 38.433594 278.96875 44.699219 286.699219 44.699219 C 294.433594 44.699219 300.699219 38.433594 300.699219 30.699219 "/>
<path style=" stroke:none;fill-rule:evenodd;fill:rgb(47.499084%,33.299255%,28.199768%);fill-opacity:1;" d="M 308.699219 70.699219 C 308.699219 62.96875 302.433594 56.699219 294.699219 56.699219 C 286.96875 56.699219 280.699219 62.96875 280.699219 70.699219 C 280.699219 78.433594 286.96875 84.699219 294.699219 84.699219 C 302.433594 84.699219 308.699219 78.433594 308.699219 70.699219 "/>
<path style=" stroke:none;fill-rule:evenodd;fill:rgb(1.199341%,66.299438%,95.698547%);fill-opacity:1;" d="M 196.699219 14.699219 C 196.699219 6.96875 190.433594 0.699219 182.699219 0.699219 C 174.96875 0.699219 168.699219 6.96875 168.699219 14.699219 C 168.699219 22.433594 174.96875 28.699219 182.699219 28.699219 C 190.433594 28.699219 196.699219 22.433594 196.699219 14.699219 "/>
<path style=" stroke:none;fill-rule:evenodd;fill:rgb(40.39917%,22.698975%,71.798706%);fill-opacity:1;" d="M 52.699219 134.699219 C 52.699219 126.96875 46.433594 120.699219 38.699219 120.699219 C 30.96875 120.699219 24.699219 126.96875 24.699219 134.699219 C 24.699219 142.433594 30.96875 148.699219 38.699219 148.699219 C 46.433594 148.699219 52.699219 142.433594 52.699219 134.699219 "/>
<path style="fill:none;stroke-width:0.8;stroke-linecap:butt;stroke-linejoin:round;stroke:rgb(83.499146%,0%,0%);stroke-opacity:1;stroke-miterlimit:10;" d="M 191.999219 363.407031 L 191.999219 366.746875 " transform="matrix(1,0,0,-1,-137.3,518.7)"/>
<path style="fill:none;stroke-width:0.8;stroke-linecap:butt;stroke-linejoin:round;stroke:rgb(83.499146%,0%,0%);stroke-opacity:1;stroke-miterlimit:10;" d="M 196.682813 360.703906 L 199.573438 362.371875 " transform="matrix(1,0,0,-1,-137.3,518.7)"/>
<path style="fill:none;stroke-width:0.8;stroke-linecap:butt;stroke-linejoin:round;stroke:rgb(83.499146%,0%,0%);stroke-opacity:1;stroke-miterlimit:10;" d="M 196.682813 355.297656 L 199.573438 353.625781 " transform="matrix(1,0,0,-1,-137.3,518.7)"/>
<path style="fill:none;stroke-width:0.8;stroke-linecap:butt;stroke-linejoin:round;stroke:rgb(83.499146%,0%,0%);stroke-opacity:1;stroke-miterlimit:10;" d="M 191.999219 352.590625 L 191.999219 349.254688 " transform="matrix(1,0,0,-1,-137.3,518.7)"/>
<path style="fill:none;stroke-width:0.8;stroke-linecap:butt;stroke-linejoin:round;stroke:rgb(83.499146%,0%,0%);stroke-opacity:1;stroke-miterlimit:10;" d="M 187.315625 355.297656 L 184.425 353.625781 " transform="matrix(1,0,0,-1,-137.3,518.7)"/>
<path style="fill:none;stroke-width:0.8;stroke-linecap:butt;stroke-linejoin:round;stroke:rgb(83.499146%,0%,0%);stroke-opacity:1;stroke-miterlimit:10;" d="M 187.315625 360.703906 L 184.425 362.371875 " transform="matrix(1,0,0,-1,-137.3,518.7)"/>
<path style="fill:none;stroke-width:0.4;stroke-linecap:butt;stroke-linejoin:round;stroke:rgb(83.499146%,0%,0%);stroke-opacity:1;stroke-miterlimit:10;" d="M 189.296094 362.684375 L 188.839063 363.477344 " transform="matrix(1,0,0,-1,-137.3,518.7)"/>
<path style="fill:none;stroke-width:0.4;stroke-linecap:butt;stroke-linejoin:round;stroke:rgb(83.499146%,0%,0%);stroke-opacity:1;stroke-miterlimit:10;" d="M 194.702344 362.684375 L 195.163281 363.477344 " transform="matrix(1,0,0,-1,-137.3,518.7)"/>
<path style="fill:none;stroke-width:0.4;stroke-linecap:butt;stroke-linejoin:round;stroke:rgb(83.499146%,0%,0%);stroke-opacity:1;stroke-miterlimit:10;" d="M 197.409375 358.000781 L 198.323438 358.000781 " transform="matrix(1,0,0,-1,-137.3,518.7)"/>
<path style="fill:none;stroke-width:0.4;stroke-linecap:butt;stroke-linejoin:round;stroke:rgb(83.499146%,0%,0%);stroke-opacity:1;stroke-miterlimit:10;" d="M 194.702344 353.317188 L 195.163281 352.524219 " transform="matrix(1,0,0,-1,-137.3,518.7)"/>
<path style="fill:none;stroke-width:0.4;stroke-linecap:butt;stroke-linejoin:round;stroke:rgb(83.499146%,0%,0%);stroke-opacity:1;stroke-miterlimit:10;" d="M 189.296094 353.317188 L 188.839063 352.524219 " transform="matrix(1,0,0,-1,-137.3,518.7)"/>
<path style="fill:none;stroke-width:0.4;stroke-linecap:butt;stroke-linejoin:round;stroke:rgb(83.499146%,0%,0%);stroke-opacity:1;stroke-miterlimit:10;" d="M 186.589063 358.000781 L 185.675 358.000781 " transform="matrix(1,0,0,-1,-137.3,518.7)"/>
<path style="fill:none;stroke-width:0.8;stroke-linecap:butt;stroke-linejoin:round;stroke:rgb(0%,78.399658%,32.499695%);stroke-opacity:1;stroke-miterlimit:10;" d="M 391.999219 363.407031 L 391.999219 366.746875 " transform="matrix(1,0,0,-1,-137.3,518.7)"/>
<path style="fill:none;stroke-width:0.8;stroke-linecap:butt;stroke-linejoin:round;stroke:rgb(0%,78.399658%,32.499695%);stroke-opacity:1;stroke-miterlimit:10;" d="M 396.682813 360.703906 L 399.573438 362.371875 " transform="matrix(1,0,0,-1,-137.3,518.7)"/>
<path style="fill:none;stroke-width:0.8;stroke-linecap:butt;stroke-linejoin:round;stroke:rgb(0%,78.399658%,32.499695%);stroke-opacity:1;stroke-miterlimit:10;" d="M 396.682813 355.297656 L 399.573438 353.625781 " transform="matrix(1,0,0,-1,-137.3,518.7)"/>
<path style="fill:none;stroke-width:0.8;stroke-linecap:butt;stroke-linejoin:round;stroke:rgb(0%,78.399658%,32.499695%);stroke-opacity:1;stroke-miterlimit:10;" d="M 391.999219 352.590625 L 391.999219 349.254688 " transform="matrix(1,0,0,-1,-137.3,518.7)"/>
<path style="fill:none;stroke-width:0.8;stroke-linecap:butt;stroke-linejoin:round;stroke:rgb(0%,78.399658%,32.499695%);stroke-opacity:1;stroke-miterlimit:10;" d="M 387.315625 355.297656 L 384.425 353.625781 " transform="matrix(1,0,0,-1,-137.3,518.7)"/>
<path style="fill:none;stroke-width:0.8;stroke-linecap:butt;stroke-linejoin:round;stroke:rgb(0%,78.399658%,32.499695%);stroke-opacity:1;stroke-miterlimit:10;" d="M 387.315625 360.703906 L 384.425 362.371875 " transform="matrix(1,0,0,-1,-137.3,518.7)"/>
<path style="fill:none;stroke-width:0.4;stroke-linecap:butt;stroke-linejoin:round;stroke:rgb(0%,78.399658%,32.499695%);stroke-opacity:1;stroke-miterlimit:10;" d="M 389.296094 362.684375 L 388.835156 363.477344 " transform="matrix(1,0,0,-1,-137.3,518.7)"/>
<path style="fill:none;stroke-width:0.4;stroke-linecap:butt;stroke-linejoin:round;stroke:rgb(0%,78.399658%,32.499695%);stroke-opacity:1;stroke-miterlimit:10;" d="M 394.702344 362.684375 L 395.163281 363.477344 " transform="matrix(1,0,0,-1,-137.3,518.7)"/>
<path style="fill:none;stroke-width:0.4;stroke-linecap:butt;stroke-linejoin:round;stroke:rgb(0%,78.399658%,32.499695%);stroke-opacity:1;stroke-miterlimit:10;" d="M 397.409375 358.000781 L 398.323438 358.000781 " transform="matrix(1,0,0,-1,-137.3,518.7)"/>
<path style="fill:none;stroke-width:0.4;stroke-linecap:butt;stroke-linejoin:round;stroke:rgb(0%,78.399658%,32.499695%);stroke-opacity:1;stroke-miterlimit:10;" d="M 394.702344 353.317188 L 395.163281 352.524219 " transform="matrix(1,0,0,-1,-137.3,518.7)"/>
<path style="fill:none;stroke-width:0.4;stroke-linecap:butt;stroke-linejoin:round;stroke:rgb(0%,78.399658%,32.499695%);stroke-opacity:1;stroke-miterlimit:10;" d="M 389.296094 353.317188 L 388.835156 352.524219 " transform="matrix(1,0,0,-1,-137.3,518.7)"/>
<path style="fill:none;stroke-width:0.4;stroke-linecap:butt;stroke-linejoin:round;stroke:rgb(0%,78.399658%,32.499695%);stroke-opacity:1;stroke-miterlimit:10;" d="M 386.589063 358.000781 L 385.675 358.000781 " transform="matrix(1,0,0,-1,-137.3,518.7)"/>
<path style=" stroke:none;fill-rule:evenodd;fill:rgb(100%,59.599304%,0%);fill-opacity:1;" d="M 284.699219 134.382812 C 284.699219 126.652344 278.433594 120.382812 270.699219 120.382812 C 262.96875 120.382812 256.699219 126.652344 256.699219 134.382812 C 256.699219 142.113281 262.96875 148.382812 270.699219 148.382812 C 278.433594 148.382812 284.699219 142.113281 284.699219 134.382812 "/>
<path style=" stroke:none;fill-rule:evenodd;fill:rgb(91.398621%,11.799622%,38.798523%);fill-opacity:1;" d="M 220.699219 134.699219 C 220.699219 126.96875 214.433594 120.699219 206.699219 120.699219 C 198.96875 120.699219 192.699219 126.96875 192.699219 134.699219 C 192.699219 142.433594 198.96875 148.699219 206.699219 148.699219 C 214.433594 148.699219 220.699219 142.433594 220.699219 134.699219 "/>
<path style=" stroke:none;fill-rule:evenodd;fill:rgb(80.39856%,86.299133%,22.399902%);fill-opacity:1;" d="M 116.699219 134.699219 C 116.699219 126.96875 110.433594 120.699219 102.699219 120.699219 C 94.96875 120.699219 88.699219 126.96875 88.699219 134.699219 C 88.699219 142.433594 94.96875 148.699219 102.699219 148.699219 C 110.433594 148.699219 116.699219 142.433594 116.699219 134.699219 "/>
<path style="fill:none;stroke-width:0.4;stroke-linecap:butt;stroke-linejoin:round;stroke:rgb(0%,0%,0%);stroke-opacity:1;stroke-miterlimit:10;" d="M 184.628125 416.282031 C 181.507031 410.367969 179.413281 404.903125 178.346875 399.891406 " transform="matrix(1,0,0,-1,-137.3,518.7)"/>
<path style="fill-rule:evenodd;fill:rgb(0%,0%,0%);fill-opacity:1;stroke-width:0.4;stroke-linecap:butt;stroke-linejoin:round;stroke:rgb(0%,0%,0%);stroke-opacity:1;stroke-miterlimit:10;" d="M 178.346875 399.891406 L 179.948438 402.617969 L 177.991406 403.035938 Z M 178.346875 399.891406 " transform="matrix(1,0,0,-1,-137.3,518.7)"/>
<path style="fill:none;stroke-width:0.4;stroke-linecap:butt;stroke-linejoin:round;stroke:rgb(0%,0%,0%);stroke-opacity:1;stroke-miterlimit:10;" d="M 250.901563 472.477344 C 241.542188 451.469531 246.948438 423.180469 242.788281 400.715625 " transform="matrix(1,0,0,-1,-137.3,518.7)"/>
<path style="fill-rule:evenodd;fill:rgb(0%,0%,0%);fill-opacity:1;stroke-width:0.4;stroke-linecap:butt;stroke-linejoin:round;stroke:rgb(0%,0%,0%);stroke-opacity:1;stroke-miterlimit:10;" d="M 242.788281 400.715625 L 244.319531 403.485156 L 242.354688 403.848438 Z M 242.788281 400.715625 " transform="matrix(1,0,0,-1,-137.3,518.7)"/>
<path style="fill:none;stroke-width:0.4;stroke-linecap:butt;stroke-linejoin:round;stroke:rgb(0%,0%,0%);stroke-opacity:1;stroke-miterlimit:10;" d="M 345.124219 460.203906 C 376.233594 452.2625 396.499219 421.934375 404.6125 400.301563 " transform="matrix(1,0,0,-1,-137.3,518.7)"/>
<path style="fill-rule:evenodd;fill:rgb(0%,0%,0%);fill-opacity:1;stroke-width:0.4;stroke-linecap:butt;stroke-linejoin:round;stroke:rgb(0%,0%,0%);stroke-opacity:1;stroke-miterlimit:10;" d="M 404.6125 400.301563 L 404.495313 403.461719 L 402.624219 402.758594 Z M 404.6125 400.301563 " transform="matrix(1,0,0,-1,-137.3,518.7)"/>
<path style="fill:none;stroke-width:0.4;stroke-linecap:butt;stroke-linejoin:round;stroke:rgb(0%,0%,0%);stroke-opacity:1;stroke-miterlimit:10;" d="M 364.467969 471.438281 C 351.366406 453.965625 332.022656 440.860156 338.885938 399.2625 " transform="matrix(1,0,0,-1,-137.3,518.7)"/>
<path style="fill-rule:evenodd;fill:rgb(0%,0%,0%);fill-opacity:1;stroke-width:0.4;stroke-linecap:butt;stroke-linejoin:round;stroke:rgb(0%,0%,0%);stroke-opacity:1;stroke-miterlimit:10;" d="M 338.885938 399.2625 L 339.382031 402.383594 L 337.409375 402.059375 Z M 338.885938 399.2625 " transform="matrix(1,0,0,-1,-137.3,518.7)"/>
<path style=" stroke:none;fill-rule:evenodd;fill:rgb(40.39917%,22.698975%,71.798706%);fill-opacity:1;" d="M 59.941406 198.699219 C 59.941406 193.597656 55.804688 189.460938 50.699219 189.460938 C 45.597656 189.460938 41.460938 193.597656 41.460938 198.699219 C 41.460938 203.804688 45.597656 207.941406 50.699219 207.941406 C 55.804688 207.941406 59.941406 203.804688 59.941406 198.699219 "/>
<path style=" stroke:none;fill-rule:evenodd;fill:rgb(80.39856%,86.299133%,22.399902%);fill-opacity:1;" d="M 99.941406 198.699219 C 99.941406 193.597656 95.804688 189.460938 90.699219 189.460938 C 85.597656 189.460938 81.460938 193.597656 81.460938 198.699219 C 81.460938 203.804688 85.597656 207.941406 90.699219 207.941406 C 95.804688 207.941406 99.941406 203.804688 99.941406 198.699219 "/>
<path style="fill:none;stroke-width:1.2;stroke-linecap:butt;stroke-linejoin:round;stroke:rgb(0%,0%,0%);stroke-opacity:1;stroke-miterlimit:10;" d="M 203.663281 320.000781 L 210.975781 320.000781 " transform="matrix(1,0,0,-1,-137.3,518.7)"/>
<path style="fill:none;stroke-width:1.2;stroke-linecap:butt;stroke-linejoin:round;stroke:rgb(0%,0%,0%);stroke-opacity:1;stroke-miterlimit:10;" d="M 211.538281 324.500781 C 210.975781 324.500781 210.413281 324.500781 209.475781 324.500781 C 208.538281 324.500781 207.225781 324.500781 206.194531 324.032031 C 205.163281 323.563281 204.413281 322.625781 204.038281 321.594531 C 203.663281 320.563281 203.663281 319.438281 204.038281 318.407031 C 204.413281 317.375781 205.163281 316.438281 206.194531 315.969531 C 207.225781 315.500781 208.538281 315.500781 209.475781 315.500781 C 210.413281 315.500781 210.975781 315.500781 211.538281 315.500781 " transform="matrix(1,0,0,-1,-137.3,518.7)"/>
<path style="fill:none;stroke-width:1.2;stroke-linecap:butt;stroke-linejoin:round;stroke:rgb(0%,0%,0%);stroke-opacity:1;stroke-miterlimit:10;" d="M 210.100781 326.067188 L 205.604688 314.211719 " transform="matrix(1,0,0,-1,-137.3,518.7)"/>
<path style=" stroke:none;fill-rule:evenodd;fill:rgb(91.398621%,11.799622%,38.798523%);fill-opacity:1;" d="M 227.941406 198.699219 C 227.941406 193.597656 223.804688 189.460938 218.699219 189.460938 C 213.597656 189.460938 209.460938 193.597656 209.460938 198.699219 C 209.460938 203.804688 213.597656 207.941406 218.699219 207.941406 C 223.804688 207.941406 227.941406 203.804688 227.941406 198.699219 "/>
<path style=" stroke:none;fill-rule:evenodd;fill:rgb(100%,59.599304%,0%);fill-opacity:1;" d="M 267.941406 198.699219 C 267.941406 193.597656 263.804688 189.460938 258.699219 189.460938 C 253.597656 189.460938 249.460938 193.597656 249.460938 198.699219 C 249.460938 203.804688 253.597656 207.941406 258.699219 207.941406 C 263.804688 207.941406 267.941406 203.804688 267.941406 198.699219 "/>
<path style="fill:none;stroke-width:1.2;stroke-linecap:butt;stroke-linejoin:round;stroke:rgb(0%,0%,0%);stroke-opacity:1;stroke-miterlimit:10;" d="M 371.663281 320.000781 L 378.975781 320.000781 " transform="matrix(1,0,0,-1,-137.3,518.7)"/>
<path style="fill:none;stroke-width:1.2;stroke-linecap:butt;stroke-linejoin:round;stroke:rgb(0%,0%,0%);stroke-opacity:1;stroke-miterlimit:10;" d="M 379.538281 324.500781 C 378.975781 324.500781 378.413281 324.500781 377.475781 324.500781 C 376.538281 324.500781 375.225781 324.500781 374.194531 324.032031 C 373.163281 323.563281 372.413281 322.625781 372.038281 321.594531 C 371.663281 320.563281 371.663281 319.438281 372.038281 318.407031 C 372.413281 317.375781 373.163281 316.438281 374.194531 315.969531 C 375.225781 315.500781 376.538281 315.500781 377.475781 315.500781 C 378.413281 315.500781 378.975781 315.500781 379.538281 315.500781 " transform="matrix(1,0,0,-1,-137.3,518.7)"/>
</g>
</svg>
