<?xml version="1.0" encoding="UTF-8"?>
<svg xmlns="http://www.w3.org/2000/svg" xmlns:xlink="http://www.w3.org/1999/xlink" width="160.4pt" height="200.4pt" viewBox="0 0 160.4 200.4" version="1.1">
<defs>
<clipPath id="clip1">
  <path d="M 0 0 L 160.398438 0 L 160.398438 200.398438 L 0 200.398438 Z M 0 0 "/>
</clipPath>
</defs>
<g id="surface1">
<g clip-path="url(#clip1)" clip-rule="nonzero">
<path style="fill:none;stroke-width:0.4;stroke-linecap:butt;stroke-linejoin:round;stroke:rgb(0%,0%,0%);stroke-opacity:1;stroke-dasharray:4;stroke-miterlimit:10;" d="M 175.999219 528.000781 L 175.999219 328.000781 L 335.999219 328.000781 L 335.999219 528.000781 Z M 175.999219 528.000781 " transform="matrix(1,0,0,-1,-175.8,528.2)"/>
</g>
<path style=" stroke:none;fill-rule:evenodd;fill:rgb(12.89978%,12.89978%,12.89978%);fill-opacity:1;" d="M 24.199219 144.199219 C 24.199219 140.472656 25.066406 136.800781 26.734375 133.46875 L 33.890625 137.046875 C 29.9375 144.949219 33.140625 154.558594 41.046875 158.511719 C 48.949219 162.464844 58.558594 159.257812 62.511719 151.355469 C 63.925781 148.53125 64.46875 145.347656 64.074219 142.214844 L 80.199219 140.199219 L 96.324219 142.214844 C 95.226562 150.984375 101.445312 158.980469 110.214844 160.074219 C 118.984375 161.171875 126.980469 154.953125 128.074219 146.183594 C 128.46875 143.050781 127.925781 139.871094 126.511719 137.046875 L 133.664062 133.46875 C 135.332031 136.800781 136.199219 140.472656 136.199219 144.199219 L 136.199219 176.199219 L 112.199219 188.199219 L 80.199219 184.199219 L 48.199219 188.199219 L 24.199219 176.199219 Z M 24.199219 144.199219 "/>
<path style=" stroke:none;fill-rule:evenodd;fill:rgb(6.298828%,6.298828%,6.298828%);fill-opacity:1;" d="M 86.90625 151.882812 C 86.90625 148.179688 83.90625 145.175781 80.199219 145.175781 C 76.496094 145.175781 73.492188 148.179688 73.492188 151.882812 C 73.492188 155.589844 76.496094 158.59375 80.199219 158.59375 C 83.90625 158.59375 86.90625 155.589844 86.90625 151.882812 "/>
<path style="fill:none;stroke-width:1.2;stroke-linecap:butt;stroke-linejoin:round;stroke:rgb(100%,100%,100%);stroke-opacity:1;stroke-miterlimit:10;" d="M 252.448438 376.317188 L 258.3 376.317188 " transform="matrix(1,0,0,-1,-175.8,528.2)"/>
<path style="fill:none;stroke-width:1.2;stroke-linecap:butt;stroke-linejoin:round;stroke:rgb(100%,100%,100%);stroke-opacity:1;stroke-miterlimit:10;" d="M 258.749219 379.91875 C 258.3 379.91875 257.850781 379.91875 257.100781 379.91875 C 256.350781 379.91875 255.3 379.91875 254.475781 379.54375 C 253.651563 379.16875 253.05 378.41875 252.749219 377.590625 C 252.448438 376.766406 252.448438 375.867969 252.749219 375.04375 C 253.05 374.215625 253.651563 373.465625 254.475781 373.090625 C 255.3 372.715625 256.350781 372.715625 257.100781 372.715625 C 257.850781 372.715625 258.3 372.715625 258.749219 372.715625 " transform="matrix(1,0,0,-1,-175.8,528.2)"/>
<path style=" stroke:none;fill-rule:evenodd;fill:rgb(0%,78.399658%,32.499695%);fill-opacity:1;" d="M 99.398438 170.199219 C 99.398438 168.433594 97.96875 167 96.199219 167 C 94.433594 167 93 168.433594 93 170.199219 C 93 171.96875 94.433594 173.398438 96.199219 173.398438 C 97.96875 173.398438 99.398438 171.96875 99.398438 170.199219 "/>
<path style=" stroke:none;fill-rule:evenodd;fill:rgb(83.499146%,0%,0%);fill-opacity:1;" d="M 67.398438 170.199219 C 67.398438 168.433594 65.96875 167 64.199219 167 C 62.433594 167 61 168.433594 61 170.199219 C 61 171.96875 62.433594 173.398438 64.199219 173.398438 C 65.96875 173.398438 67.398438 171.96875 67.398438 170.199219 "/>
</g>
</svg>
