<?xml version="1.0" encoding="UTF-8"?>
<svg xmlns="http://www.w3.org/2000/svg" xmlns:xlink="http://www.w3.org/1999/xlink" width="397.4pt" height="136.8pt" viewBox="0 0 397.4 136.8" version="1.1">
<defs>
<clipPath id="clip1">
  <path d="M 53 0 L 55 0 L 55 136.800781 L 53 136.800781 Z M 53 0 "/>
</clipPath>
<clipPath id="clip2">
  <path d="M 111 0 L 113 0 L 113 136.800781 L 111 136.800781 Z M 111 0 "/>
</clipPath>
<clipPath id="clip3">
  <path d="M 169 0 L 171 0 L 171 136.800781 L 169 136.800781 Z M 169 0 "/>
</clipPath>
<clipPath id="clip4">
  <path d="M 227 0 L 229 0 L 229 136.800781 L 227 136.800781 Z M 227 0 "/>
</clipPath>
<clipPath id="clip5">
  <path d="M 285 0 L 287 0 L 287 136.800781 L 285 136.800781 Z M 285 0 "/>
</clipPath>
<clipPath id="clip6">
  <path d="M 343 0 L 345 0 L 345 136.800781 L 343 136.800781 Z M 343 0 "/>
</clipPath>
</defs>
<g id="surface1">
<path style=" stroke:none;fill-rule:evenodd;fill:rgb(1.199341%,66.299438%,95.698547%);fill-opacity:1;" d="M 14.699219 8.398438 C 14.699219 4.535156 11.566406 1.398438 7.699219 1.398438 C 3.835938 1.398438 0.699219 4.535156 0.699219 8.398438 C 0.699219 12.265625 3.835938 15.398438 7.699219 15.398438 C 11.566406 15.398438 14.699219 12.265625 14.699219 8.398438 "/>
<path style=" stroke:none;fill-rule:evenodd;fill:rgb(1.199341%,66.299438%,95.698547%);fill-opacity:1;" d="M 14.699219 28.398438 C 14.699219 24.535156 11.566406 21.398438 7.699219 21.398438 C 3.835938 21.398438 0.699219 24.535156 0.699219 28.398438 C 0.699219 32.265625 3.835938 35.398438 7.699219 35.398438 C 11.566406 35.398438 14.699219 32.265625 14.699219 28.398438 "/>
<path style=" stroke:none;fill-rule:evenodd;fill:rgb(1.199341%,66.299438%,95.698547%);fill-opacity:1;" d="M 14.699219 48.398438 C 14.699219 44.535156 11.566406 41.398438 7.699219 41.398438 C 3.835938 41.398438 0.699219 44.535156 0.699219 48.398438 C 0.699219 52.265625 3.835938 55.398438 7.699219 55.398438 C 11.566406 55.398438 14.699219 52.265625 14.699219 48.398438 "/>
<path style=" stroke:none;fill-rule:evenodd;fill:rgb(1.199341%,66.299438%,95.698547%);fill-opacity:1;" d="M 14.699219 68.398438 C 14.699219 64.535156 11.566406 61.398438 7.699219 61.398438 C 3.835938 61.398438 0.699219 64.535156 0.699219 68.398438 C 0.699219 72.265625 3.835938 75.398438 7.699219 75.398438 C 11.566406 75.398438 14.699219 72.265625 14.699219 68.398438 "/>
<path style=" stroke:none;fill-rule:evenodd;fill:rgb(1.199341%,66.299438%,95.698547%);fill-opacity:1;" d="M 32.699219 8.398438 C 32.699219 4.535156 29.566406 1.398438 25.699219 1.398438 C 21.835938 1.398438 18.699219 4.535156 18.699219 8.398438 C 18.699219 12.265625 21.835938 15.398438 25.699219 15.398438 C 29.566406 15.398438 32.699219 12.265625 32.699219 8.398438 "/>
<path style=" stroke:none;fill-rule:evenodd;fill:rgb(1.199341%,66.299438%,95.698547%);fill-opacity:1;" d="M 14.699219 88.398438 C 14.699219 84.535156 11.566406 81.398438 7.699219 81.398438 C 3.835938 81.398438 0.699219 84.535156 0.699219 88.398438 C 0.699219 92.265625 3.835938 95.398438 7.699219 95.398438 C 11.566406 95.398438 14.699219 92.265625 14.699219 88.398438 "/>
<path style=" stroke:none;fill-rule:evenodd;fill:rgb(1.199341%,66.299438%,95.698547%);fill-opacity:1;" d="M 14.699219 108.398438 C 14.699219 104.535156 11.566406 101.398438 7.699219 101.398438 C 3.835938 101.398438 0.699219 104.535156 0.699219 108.398438 C 0.699219 112.265625 3.835938 115.398438 7.699219 115.398438 C 11.566406 115.398438 14.699219 112.265625 14.699219 108.398438 "/>
<path style=" stroke:none;fill-rule:evenodd;fill:rgb(1.199341%,66.299438%,95.698547%);fill-opacity:1;" d="M 14.699219 128.398438 C 14.699219 124.535156 11.566406 121.398438 7.699219 121.398438 C 3.835938 121.398438 0.699219 124.535156 0.699219 128.398438 C 0.699219 132.265625 3.835938 135.398438 7.699219 135.398438 C 11.566406 135.398438 14.699219 132.265625 14.699219 128.398438 "/>
<path style=" stroke:none;fill-rule:evenodd;fill:rgb(91.398621%,11.799622%,38.798523%);fill-opacity:1;" d="M 32.699219 28.398438 C 32.699219 24.535156 29.566406 21.398438 25.699219 21.398438 C 21.835938 21.398438 18.699219 24.535156 18.699219 28.398438 C 18.699219 32.265625 21.835938 35.398438 25.699219 35.398438 C 29.566406 35.398438 32.699219 32.265625 32.699219 28.398438 "/>
<path style=" stroke:none;fill-rule:evenodd;fill:rgb(80.39856%,86.299133%,22.399902%);fill-opacity:1;" d="M 32.699219 48.398438 C 32.699219 44.535156 29.566406 41.398438 25.699219 41.398438 C 21.835938 41.398438 18.699219 44.535156 18.699219 48.398438 C 18.699219 52.265625 21.835938 55.398438 25.699219 55.398438 C 29.566406 55.398438 32.699219 52.265625 32.699219 48.398438 "/>
<path style=" stroke:none;fill-rule:evenodd;fill:rgb(29.798889%,68.598938%,31.399536%);fill-opacity:1;" d="M 32.699219 68.398438 C 32.699219 64.535156 29.566406 61.398438 25.699219 61.398438 C 21.835938 61.398438 18.699219 64.535156 18.699219 68.398438 C 18.699219 72.265625 21.835938 75.398438 25.699219 75.398438 C 29.566406 75.398438 32.699219 72.265625 32.699219 68.398438 "/>
<path style=" stroke:none;fill-rule:evenodd;fill:rgb(100%,59.599304%,0%);fill-opacity:1;" d="M 32.699219 88.398438 C 32.699219 84.535156 29.566406 81.398438 25.699219 81.398438 C 21.835938 81.398438 18.699219 84.535156 18.699219 88.398438 C 18.699219 92.265625 21.835938 95.398438 25.699219 95.398438 C 29.566406 95.398438 32.699219 92.265625 32.699219 88.398438 "/>
<path style=" stroke:none;fill-rule:evenodd;fill:rgb(40.39917%,22.698975%,71.798706%);fill-opacity:1;" d="M 32.699219 108.398438 C 32.699219 104.535156 29.566406 101.398438 25.699219 101.398438 C 21.835938 101.398438 18.699219 104.535156 18.699219 108.398438 C 18.699219 112.265625 21.835938 115.398438 25.699219 115.398438 C 29.566406 115.398438 32.699219 112.265625 32.699219 108.398438 "/>
<path style=" stroke:none;fill-rule:evenodd;fill:rgb(47.499084%,33.299255%,28.199768%);fill-opacity:1;" d="M 32.699219 128.398438 C 32.699219 124.535156 29.566406 121.398438 25.699219 121.398438 C 21.835938 121.398438 18.699219 124.535156 18.699219 128.398438 C 18.699219 132.265625 21.835938 135.398438 25.699219 135.398438 C 29.566406 135.398438 32.699219 132.265625 32.699219 128.398438 "/>
<path style="fill:none;stroke-width:0.8;stroke-linecap:butt;stroke-linejoin:round;stroke:rgb(83.499146%,0%,0%);stroke-opacity:1;stroke-miterlimit:10;" d="M 115.7 256.001562 C 115.7 258.65 113.551563 260.798437 110.899219 260.798437 C 108.250781 260.798437 106.098438 258.65 106.098438 256.001562 C 106.098438 253.349219 108.250781 251.200781 110.899219 251.200781 C 113.551563 251.200781 115.7 253.349219 115.7 256.001562 " transform="matrix(1,0,0,-1,-67.2,264.4)"/>
<path style="fill:none;stroke-width:0.8;stroke-linecap:butt;stroke-linejoin:round;stroke:rgb(83.499146%,0%,0%);stroke-opacity:1;stroke-miterlimit:10;" d="M 108.899219 258.001562 L 112.899219 254.001562 " transform="matrix(1,0,0,-1,-67.2,264.4)"/>
<path style="fill:none;stroke-width:0.8;stroke-linecap:butt;stroke-linejoin:round;stroke:rgb(83.499146%,0%,0%);stroke-opacity:1;stroke-miterlimit:10;" d="M 108.899219 254.001562 L 112.899219 258.001562 " transform="matrix(1,0,0,-1,-67.2,264.4)"/>
<path style="fill:none;stroke-width:0.8;stroke-linecap:butt;stroke-linejoin:round;stroke:rgb(0%,78.399658%,32.499695%);stroke-opacity:1;stroke-miterlimit:10;" d="M 115.7 236.001562 C 115.7 238.65 113.551563 240.798437 110.899219 240.798437 C 108.250781 240.798437 106.098438 238.65 106.098438 236.001562 C 106.098438 233.349219 108.250781 231.200781 110.899219 231.200781 C 113.551563 231.200781 115.7 233.349219 115.7 236.001562 " transform="matrix(1,0,0,-1,-67.2,264.4)"/>
<path style="fill:none;stroke-width:0.8;stroke-linecap:butt;stroke-linejoin:round;stroke:rgb(0%,78.399658%,32.499695%);stroke-opacity:1;stroke-miterlimit:10;" d="M 108.399219 235.001562 L 109.899219 233.501562 L 112.899219 238.501562 " transform="matrix(1,0,0,-1,-67.2,264.4)"/>
<path style="fill:none;stroke-width:0.8;stroke-linecap:butt;stroke-linejoin:round;stroke:rgb(83.499146%,0%,0%);stroke-opacity:1;stroke-miterlimit:10;" d="M 173.7 176.001562 C 173.7 178.65 171.551562 180.798437 168.899219 180.798437 C 166.250781 180.798437 164.098437 178.65 164.098437 176.001562 C 164.098437 173.349219 166.250781 171.200781 168.899219 171.200781 C 171.551562 171.200781 173.7 173.349219 173.7 176.001562 " transform="matrix(1,0,0,-1,-67.2,264.4)"/>
<path style="fill:none;stroke-width:0.8;stroke-linecap:butt;stroke-linejoin:round;stroke:rgb(83.499146%,0%,0%);stroke-opacity:1;stroke-miterlimit:10;" d="M 166.899219 178.001562 L 170.899219 174.001562 " transform="matrix(1,0,0,-1,-67.2,264.4)"/>
<path style="fill:none;stroke-width:0.8;stroke-linecap:butt;stroke-linejoin:round;stroke:rgb(83.499146%,0%,0%);stroke-opacity:1;stroke-miterlimit:10;" d="M 166.899219 174.001562 L 170.899219 178.001562 " transform="matrix(1,0,0,-1,-67.2,264.4)"/>
<path style="fill:none;stroke-width:0.8;stroke-linecap:butt;stroke-linejoin:round;stroke:rgb(0%,78.399658%,32.499695%);stroke-opacity:1;stroke-miterlimit:10;" d="M 405.7 256.001562 C 405.7 258.65 403.551562 260.798437 400.899219 260.798437 C 398.250781 260.798437 396.098437 258.65 396.098437 256.001562 C 396.098437 253.349219 398.250781 251.200781 400.899219 251.200781 C 403.551562 251.200781 405.7 253.349219 405.7 256.001562 " transform="matrix(1,0,0,-1,-67.2,264.4)"/>
<path style="fill:none;stroke-width:0.8;stroke-linecap:butt;stroke-linejoin:round;stroke:rgb(0%,78.399658%,32.499695%);stroke-opacity:1;stroke-miterlimit:10;" d="M 398.399219 255.001562 L 399.899219 253.501562 L 402.899219 258.501562 " transform="matrix(1,0,0,-1,-67.2,264.4)"/>
<path style="fill:none;stroke-width:0.8;stroke-linecap:butt;stroke-linejoin:round;stroke:rgb(83.499146%,0%,0%);stroke-opacity:1;stroke-miterlimit:10;" d="M 115.7 176.001562 C 115.7 178.65 113.551563 180.798437 110.899219 180.798437 C 108.250781 180.798437 106.098438 178.65 106.098438 176.001562 C 106.098438 173.349219 108.250781 171.200781 110.899219 171.200781 C 113.551563 171.200781 115.7 173.349219 115.7 176.001562 " transform="matrix(1,0,0,-1,-67.2,264.4)"/>
<path style="fill:none;stroke-width:0.8;stroke-linecap:butt;stroke-linejoin:round;stroke:rgb(83.499146%,0%,0%);stroke-opacity:1;stroke-miterlimit:10;" d="M 108.899219 178.001562 L 112.899219 174.001562 " transform="matrix(1,0,0,-1,-67.2,264.4)"/>
<path style="fill:none;stroke-width:0.8;stroke-linecap:butt;stroke-linejoin:round;stroke:rgb(83.499146%,0%,0%);stroke-opacity:1;stroke-miterlimit:10;" d="M 108.899219 174.001562 L 112.899219 178.001562 " transform="matrix(1,0,0,-1,-67.2,264.4)"/>
<path style="fill:none;stroke-width:0.8;stroke-linecap:butt;stroke-linejoin:round;stroke:rgb(0%,78.399658%,32.499695%);stroke-opacity:1;stroke-miterlimit:10;" d="M 115.7 156.001562 C 115.7 158.65 113.551563 160.798437 110.899219 160.798437 C 108.250781 160.798437 106.098438 158.65 106.098438 156.001562 C 106.098438 153.349219 108.250781 151.200781 110.899219 151.200781 C 113.551563 151.200781 115.7 153.349219 115.7 156.001562 " transform="matrix(1,0,0,-1,-67.2,264.4)"/>
<path style="fill:none;stroke-width:0.8;stroke-linecap:butt;stroke-linejoin:round;stroke:rgb(0%,78.399658%,32.499695%);stroke-opacity:1;stroke-miterlimit:10;" d="M 108.399219 155.001562 L 109.899219 153.501562 L 112.899219 158.501562 " transform="matrix(1,0,0,-1,-67.2,264.4)"/>
<path style="fill:none;stroke-width:0.8;stroke-linecap:butt;stroke-linejoin:round;stroke:rgb(83.499146%,0%,0%);stroke-opacity:1;stroke-miterlimit:10;" d="M 231.7 256.001562 C 231.7 258.65 229.551562 260.798437 226.899219 260.798437 C 224.250781 260.798437 222.098437 258.65 222.098437 256.001562 C 222.098437 253.349219 224.250781 251.200781 226.899219 251.200781 C 229.551562 251.200781 231.7 253.349219 231.7 256.001562 " transform="matrix(1,0,0,-1,-67.2,264.4)"/>
<path style="fill:none;stroke-width:0.8;stroke-linecap:butt;stroke-linejoin:round;stroke:rgb(83.499146%,0%,0%);stroke-opacity:1;stroke-miterlimit:10;" d="M 224.899219 258.001562 L 228.899219 254.001562 " transform="matrix(1,0,0,-1,-67.2,264.4)"/>
<path style="fill:none;stroke-width:0.8;stroke-linecap:butt;stroke-linejoin:round;stroke:rgb(83.499146%,0%,0%);stroke-opacity:1;stroke-miterlimit:10;" d="M 224.899219 254.001562 L 228.899219 258.001562 " transform="matrix(1,0,0,-1,-67.2,264.4)"/>
<path style=" stroke:none;fill-rule:evenodd;fill:rgb(91.398621%,11.799622%,38.798523%);fill-opacity:1;" d="M 72.699219 8.398438 C 72.699219 4.535156 69.566406 1.398438 65.699219 1.398438 C 61.835938 1.398438 58.699219 4.535156 58.699219 8.398438 C 58.699219 12.265625 61.835938 15.398438 65.699219 15.398438 C 69.566406 15.398438 72.699219 12.265625 72.699219 8.398438 "/>
<path style=" stroke:none;fill-rule:evenodd;fill:rgb(91.398621%,11.799622%,38.798523%);fill-opacity:1;" d="M 72.699219 28.398438 C 72.699219 24.535156 69.566406 21.398438 65.699219 21.398438 C 61.835938 21.398438 58.699219 24.535156 58.699219 28.398438 C 58.699219 32.265625 61.835938 35.398438 65.699219 35.398438 C 69.566406 35.398438 72.699219 32.265625 72.699219 28.398438 "/>
<path style=" stroke:none;fill-rule:evenodd;fill:rgb(91.398621%,11.799622%,38.798523%);fill-opacity:1;" d="M 72.699219 48.398438 C 72.699219 44.535156 69.566406 41.398438 65.699219 41.398438 C 61.835938 41.398438 58.699219 44.535156 58.699219 48.398438 C 58.699219 52.265625 61.835938 55.398438 65.699219 55.398438 C 69.566406 55.398438 72.699219 52.265625 72.699219 48.398438 "/>
<path style=" stroke:none;fill-rule:evenodd;fill:rgb(91.398621%,11.799622%,38.798523%);fill-opacity:1;" d="M 72.699219 68.398438 C 72.699219 64.535156 69.566406 61.398438 65.699219 61.398438 C 61.835938 61.398438 58.699219 64.535156 58.699219 68.398438 C 58.699219 72.265625 61.835938 75.398438 65.699219 75.398438 C 69.566406 75.398438 72.699219 72.265625 72.699219 68.398438 "/>
<path style=" stroke:none;fill-rule:evenodd;fill:rgb(1.199341%,66.299438%,95.698547%);fill-opacity:1;" d="M 90.699219 8.398438 C 90.699219 4.535156 87.566406 1.398438 83.699219 1.398438 C 79.835938 1.398438 76.699219 4.535156 76.699219 8.398438 C 76.699219 12.265625 79.835938 15.398438 83.699219 15.398438 C 87.566406 15.398438 90.699219 12.265625 90.699219 8.398438 "/>
<path style=" stroke:none;fill-rule:evenodd;fill:rgb(91.398621%,11.799622%,38.798523%);fill-opacity:1;" d="M 72.699219 88.398438 C 72.699219 84.535156 69.566406 81.398438 65.699219 81.398438 C 61.835938 81.398438 58.699219 84.535156 58.699219 88.398438 C 58.699219 92.265625 61.835938 95.398438 65.699219 95.398438 C 69.566406 95.398438 72.699219 92.265625 72.699219 88.398438 "/>
<path style=" stroke:none;fill-rule:evenodd;fill:rgb(91.398621%,11.799622%,38.798523%);fill-opacity:1;" d="M 72.699219 108.398438 C 72.699219 104.535156 69.566406 101.398438 65.699219 101.398438 C 61.835938 101.398438 58.699219 104.535156 58.699219 108.398438 C 58.699219 112.265625 61.835938 115.398438 65.699219 115.398438 C 69.566406 115.398438 72.699219 112.265625 72.699219 108.398438 "/>
<path style=" stroke:none;fill-rule:evenodd;fill:rgb(91.398621%,11.799622%,38.798523%);fill-opacity:1;" d="M 72.699219 128.398438 C 72.699219 124.535156 69.566406 121.398438 65.699219 121.398438 C 61.835938 121.398438 58.699219 124.535156 58.699219 128.398438 C 58.699219 132.265625 61.835938 135.398438 65.699219 135.398438 C 69.566406 135.398438 72.699219 132.265625 72.699219 128.398438 "/>
<path style=" stroke:none;fill-rule:evenodd;fill:rgb(91.398621%,11.799622%,38.798523%);fill-opacity:1;" d="M 90.699219 28.398438 C 90.699219 24.535156 87.566406 21.398438 83.699219 21.398438 C 79.835938 21.398438 76.699219 24.535156 76.699219 28.398438 C 76.699219 32.265625 79.835938 35.398438 83.699219 35.398438 C 87.566406 35.398438 90.699219 32.265625 90.699219 28.398438 "/>
<path style=" stroke:none;fill-rule:evenodd;fill:rgb(80.39856%,86.299133%,22.399902%);fill-opacity:1;" d="M 90.699219 48.398438 C 90.699219 44.535156 87.566406 41.398438 83.699219 41.398438 C 79.835938 41.398438 76.699219 44.535156 76.699219 48.398438 C 76.699219 52.265625 79.835938 55.398438 83.699219 55.398438 C 87.566406 55.398438 90.699219 52.265625 90.699219 48.398438 "/>
<path style=" stroke:none;fill-rule:evenodd;fill:rgb(29.798889%,68.598938%,31.399536%);fill-opacity:1;" d="M 90.699219 68.398438 C 90.699219 64.535156 87.566406 61.398438 83.699219 61.398438 C 79.835938 61.398438 76.699219 64.535156 76.699219 68.398438 C 76.699219 72.265625 79.835938 75.398438 83.699219 75.398438 C 87.566406 75.398438 90.699219 72.265625 90.699219 68.398438 "/>
<path style=" stroke:none;fill-rule:evenodd;fill:rgb(100%,59.599304%,0%);fill-opacity:1;" d="M 90.699219 88.398438 C 90.699219 84.535156 87.566406 81.398438 83.699219 81.398438 C 79.835938 81.398438 76.699219 84.535156 76.699219 88.398438 C 76.699219 92.265625 79.835938 95.398438 83.699219 95.398438 C 87.566406 95.398438 90.699219 92.265625 90.699219 88.398438 "/>
<path style=" stroke:none;fill-rule:evenodd;fill:rgb(40.39917%,22.698975%,71.798706%);fill-opacity:1;" d="M 90.699219 108.398438 C 90.699219 104.535156 87.566406 101.398438 83.699219 101.398438 C 79.835938 101.398438 76.699219 104.535156 76.699219 108.398438 C 76.699219 112.265625 79.835938 115.398438 83.699219 115.398438 C 87.566406 115.398438 90.699219 112.265625 90.699219 108.398438 "/>
<path style=" stroke:none;fill-rule:evenodd;fill:rgb(47.499084%,33.299255%,28.199768%);fill-opacity:1;" d="M 90.699219 128.398438 C 90.699219 124.535156 87.566406 121.398438 83.699219 121.398438 C 79.835938 121.398438 76.699219 124.535156 76.699219 128.398438 C 76.699219 132.265625 79.835938 135.398438 83.699219 135.398438 C 87.566406 135.398438 90.699219 132.265625 90.699219 128.398438 "/>
<path style="fill:none;stroke-width:0.8;stroke-linecap:butt;stroke-linejoin:round;stroke:rgb(83.499146%,0%,0%);stroke-opacity:1;stroke-miterlimit:10;" d="M 347.7 256.001562 C 347.7 258.65 345.551562 260.798437 342.899219 260.798437 C 340.250781 260.798437 338.098437 258.65 338.098437 256.001562 C 338.098437 253.349219 340.250781 251.200781 342.899219 251.200781 C 345.551562 251.200781 347.7 253.349219 347.7 256.001562 " transform="matrix(1,0,0,-1,-67.2,264.4)"/>
<path style="fill:none;stroke-width:0.8;stroke-linecap:butt;stroke-linejoin:round;stroke:rgb(83.499146%,0%,0%);stroke-opacity:1;stroke-miterlimit:10;" d="M 340.899219 258.001562 L 344.899219 254.001562 " transform="matrix(1,0,0,-1,-67.2,264.4)"/>
<path style="fill:none;stroke-width:0.8;stroke-linecap:butt;stroke-linejoin:round;stroke:rgb(83.499146%,0%,0%);stroke-opacity:1;stroke-miterlimit:10;" d="M 340.899219 254.001562 L 344.899219 258.001562 " transform="matrix(1,0,0,-1,-67.2,264.4)"/>
<path style="fill:none;stroke-width:0.8;stroke-linecap:butt;stroke-linejoin:round;stroke:rgb(0%,78.399658%,32.499695%);stroke-opacity:1;stroke-miterlimit:10;" d="M 173.7 236.001562 C 173.7 238.65 171.551562 240.798437 168.899219 240.798437 C 166.250781 240.798437 164.098437 238.65 164.098437 236.001562 C 164.098437 233.349219 166.250781 231.200781 168.899219 231.200781 C 171.551562 231.200781 173.7 233.349219 173.7 236.001562 " transform="matrix(1,0,0,-1,-67.2,264.4)"/>
<path style="fill:none;stroke-width:0.8;stroke-linecap:butt;stroke-linejoin:round;stroke:rgb(0%,78.399658%,32.499695%);stroke-opacity:1;stroke-miterlimit:10;" d="M 166.399219 235.001562 L 167.899219 233.501562 L 170.899219 238.501562 " transform="matrix(1,0,0,-1,-67.2,264.4)"/>
<path style="fill:none;stroke-width:0.8;stroke-linecap:butt;stroke-linejoin:round;stroke:rgb(83.499146%,0%,0%);stroke-opacity:1;stroke-miterlimit:10;" d="M 173.7 216.001562 C 173.7 218.65 171.551562 220.798437 168.899219 220.798437 C 166.250781 220.798437 164.098437 218.65 164.098437 216.001562 C 164.098437 213.349219 166.250781 211.200781 168.899219 211.200781 C 171.551562 211.200781 173.7 213.349219 173.7 216.001562 " transform="matrix(1,0,0,-1,-67.2,264.4)"/>
<path style="fill:none;stroke-width:0.8;stroke-linecap:butt;stroke-linejoin:round;stroke:rgb(83.499146%,0%,0%);stroke-opacity:1;stroke-miterlimit:10;" d="M 166.899219 218.001562 L 170.899219 214.001562 " transform="matrix(1,0,0,-1,-67.2,264.4)"/>
<path style="fill:none;stroke-width:0.8;stroke-linecap:butt;stroke-linejoin:round;stroke:rgb(83.499146%,0%,0%);stroke-opacity:1;stroke-miterlimit:10;" d="M 166.899219 214.001562 L 170.899219 218.001562 " transform="matrix(1,0,0,-1,-67.2,264.4)"/>
<path style="fill:none;stroke-width:0.8;stroke-linecap:butt;stroke-linejoin:round;stroke:rgb(0%,78.399658%,32.499695%);stroke-opacity:1;stroke-miterlimit:10;" d="M 231.7 176.001562 C 231.7 178.65 229.551562 180.798437 226.899219 180.798437 C 224.250781 180.798437 222.098437 178.65 222.098437 176.001562 C 222.098437 173.349219 224.250781 171.200781 226.899219 171.200781 C 229.551562 171.200781 231.7 173.349219 231.7 176.001562 " transform="matrix(1,0,0,-1,-67.2,264.4)"/>
<path style="fill:none;stroke-width:0.8;stroke-linecap:butt;stroke-linejoin:round;stroke:rgb(0%,78.399658%,32.499695%);stroke-opacity:1;stroke-miterlimit:10;" d="M 224.399219 175.001562 L 225.899219 173.501562 L 228.899219 178.501562 " transform="matrix(1,0,0,-1,-67.2,264.4)"/>
<path style="fill:none;stroke-width:0.8;stroke-linecap:butt;stroke-linejoin:round;stroke:rgb(83.499146%,0%,0%);stroke-opacity:1;stroke-miterlimit:10;" d="M 347.7 236.001562 C 347.7 238.65 345.551562 240.798437 342.899219 240.798437 C 340.250781 240.798437 338.098437 238.65 338.098437 236.001562 C 338.098437 233.349219 340.250781 231.200781 342.899219 231.200781 C 345.551562 231.200781 347.7 233.349219 347.7 236.001562 " transform="matrix(1,0,0,-1,-67.2,264.4)"/>
<path style="fill:none;stroke-width:0.8;stroke-linecap:butt;stroke-linejoin:round;stroke:rgb(83.499146%,0%,0%);stroke-opacity:1;stroke-miterlimit:10;" d="M 340.899219 238.001562 L 344.899219 234.001562 " transform="matrix(1,0,0,-1,-67.2,264.4)"/>
<path style="fill:none;stroke-width:0.8;stroke-linecap:butt;stroke-linejoin:round;stroke:rgb(83.499146%,0%,0%);stroke-opacity:1;stroke-miterlimit:10;" d="M 340.899219 234.001562 L 344.899219 238.001562 " transform="matrix(1,0,0,-1,-67.2,264.4)"/>
<path style="fill:none;stroke-width:0.8;stroke-linecap:butt;stroke-linejoin:round;stroke:rgb(0%,78.399658%,32.499695%);stroke-opacity:1;stroke-miterlimit:10;" d="M 173.7 156.001562 C 173.7 158.65 171.551562 160.798437 168.899219 160.798437 C 166.250781 160.798437 164.098437 158.65 164.098437 156.001562 C 164.098437 153.349219 166.250781 151.200781 168.899219 151.200781 C 171.551562 151.200781 173.7 153.349219 173.7 156.001562 " transform="matrix(1,0,0,-1,-67.2,264.4)"/>
<path style="fill:none;stroke-width:0.8;stroke-linecap:butt;stroke-linejoin:round;stroke:rgb(0%,78.399658%,32.499695%);stroke-opacity:1;stroke-miterlimit:10;" d="M 166.399219 155.001562 L 167.899219 153.501562 L 170.899219 158.501562 " transform="matrix(1,0,0,-1,-67.2,264.4)"/>
<path style="fill:none;stroke-width:0.8;stroke-linecap:butt;stroke-linejoin:round;stroke:rgb(83.499146%,0%,0%);stroke-opacity:1;stroke-miterlimit:10;" d="M 173.7 136.001562 C 173.7 138.65 171.551562 140.798437 168.899219 140.798437 C 166.250781 140.798437 164.098437 138.65 164.098437 136.001562 C 164.098437 133.349219 166.250781 131.200781 168.899219 131.200781 C 171.551562 131.200781 173.7 133.349219 173.7 136.001562 " transform="matrix(1,0,0,-1,-67.2,264.4)"/>
<path style="fill:none;stroke-width:0.8;stroke-linecap:butt;stroke-linejoin:round;stroke:rgb(83.499146%,0%,0%);stroke-opacity:1;stroke-miterlimit:10;" d="M 166.899219 138.001562 L 170.899219 134.001562 " transform="matrix(1,0,0,-1,-67.2,264.4)"/>
<path style="fill:none;stroke-width:0.8;stroke-linecap:butt;stroke-linejoin:round;stroke:rgb(83.499146%,0%,0%);stroke-opacity:1;stroke-miterlimit:10;" d="M 166.899219 134.001562 L 170.899219 138.001562 " transform="matrix(1,0,0,-1,-67.2,264.4)"/>
<g clip-path="url(#clip1)" clip-rule="nonzero">
<path style="fill:none;stroke-width:0.8;stroke-linecap:butt;stroke-linejoin:round;stroke:rgb(0%,0%,0%);stroke-opacity:1;stroke-miterlimit:10;" d="M 120.899219 264.001562 L 120.899219 128.001562 " transform="matrix(1,0,0,-1,-67.2,264.4)"/>
</g>
<path style=" stroke:none;fill-rule:evenodd;fill:rgb(80.39856%,86.299133%,22.399902%);fill-opacity:1;" d="M 130.699219 8.398438 C 130.699219 4.535156 127.566406 1.398438 123.699219 1.398438 C 119.835938 1.398438 116.699219 4.535156 116.699219 8.398438 C 116.699219 12.265625 119.835938 15.398438 123.699219 15.398438 C 127.566406 15.398438 130.699219 12.265625 130.699219 8.398438 "/>
<path style=" stroke:none;fill-rule:evenodd;fill:rgb(80.39856%,86.299133%,22.399902%);fill-opacity:1;" d="M 130.699219 28.398438 C 130.699219 24.535156 127.566406 21.398438 123.699219 21.398438 C 119.835938 21.398438 116.699219 24.535156 116.699219 28.398438 C 116.699219 32.265625 119.835938 35.398438 123.699219 35.398438 C 127.566406 35.398438 130.699219 32.265625 130.699219 28.398438 "/>
<path style=" stroke:none;fill-rule:evenodd;fill:rgb(80.39856%,86.299133%,22.399902%);fill-opacity:1;" d="M 130.699219 48.398438 C 130.699219 44.535156 127.566406 41.398438 123.699219 41.398438 C 119.835938 41.398438 116.699219 44.535156 116.699219 48.398438 C 116.699219 52.265625 119.835938 55.398438 123.699219 55.398438 C 127.566406 55.398438 130.699219 52.265625 130.699219 48.398438 "/>
<path style=" stroke:none;fill-rule:evenodd;fill:rgb(80.39856%,86.299133%,22.399902%);fill-opacity:1;" d="M 130.699219 68.398438 C 130.699219 64.535156 127.566406 61.398438 123.699219 61.398438 C 119.835938 61.398438 116.699219 64.535156 116.699219 68.398438 C 116.699219 72.265625 119.835938 75.398438 123.699219 75.398438 C 127.566406 75.398438 130.699219 72.265625 130.699219 68.398438 "/>
<path style=" stroke:none;fill-rule:evenodd;fill:rgb(1.199341%,66.299438%,95.698547%);fill-opacity:1;" d="M 148.699219 8.398438 C 148.699219 4.535156 145.566406 1.398438 141.699219 1.398438 C 137.835938 1.398438 134.699219 4.535156 134.699219 8.398438 C 134.699219 12.265625 137.835938 15.398438 141.699219 15.398438 C 145.566406 15.398438 148.699219 12.265625 148.699219 8.398438 "/>
<path style=" stroke:none;fill-rule:evenodd;fill:rgb(80.39856%,86.299133%,22.399902%);fill-opacity:1;" d="M 130.699219 88.398438 C 130.699219 84.535156 127.566406 81.398438 123.699219 81.398438 C 119.835938 81.398438 116.699219 84.535156 116.699219 88.398438 C 116.699219 92.265625 119.835938 95.398438 123.699219 95.398438 C 127.566406 95.398438 130.699219 92.265625 130.699219 88.398438 "/>
<path style=" stroke:none;fill-rule:evenodd;fill:rgb(80.39856%,86.299133%,22.399902%);fill-opacity:1;" d="M 130.699219 108.398438 C 130.699219 104.535156 127.566406 101.398438 123.699219 101.398438 C 119.835938 101.398438 116.699219 104.535156 116.699219 108.398438 C 116.699219 112.265625 119.835938 115.398438 123.699219 115.398438 C 127.566406 115.398438 130.699219 112.265625 130.699219 108.398438 "/>
<path style=" stroke:none;fill-rule:evenodd;fill:rgb(80.39856%,86.299133%,22.399902%);fill-opacity:1;" d="M 130.699219 128.398438 C 130.699219 124.535156 127.566406 121.398438 123.699219 121.398438 C 119.835938 121.398438 116.699219 124.535156 116.699219 128.398438 C 116.699219 132.265625 119.835938 135.398438 123.699219 135.398438 C 127.566406 135.398438 130.699219 132.265625 130.699219 128.398438 "/>
<path style=" stroke:none;fill-rule:evenodd;fill:rgb(91.398621%,11.799622%,38.798523%);fill-opacity:1;" d="M 148.699219 28.398438 C 148.699219 24.535156 145.566406 21.398438 141.699219 21.398438 C 137.835938 21.398438 134.699219 24.535156 134.699219 28.398438 C 134.699219 32.265625 137.835938 35.398438 141.699219 35.398438 C 145.566406 35.398438 148.699219 32.265625 148.699219 28.398438 "/>
<path style=" stroke:none;fill-rule:evenodd;fill:rgb(80.39856%,86.299133%,22.399902%);fill-opacity:1;" d="M 148.699219 48.398438 C 148.699219 44.535156 145.566406 41.398438 141.699219 41.398438 C 137.835938 41.398438 134.699219 44.535156 134.699219 48.398438 C 134.699219 52.265625 137.835938 55.398438 141.699219 55.398438 C 145.566406 55.398438 148.699219 52.265625 148.699219 48.398438 "/>
<path style=" stroke:none;fill-rule:evenodd;fill:rgb(29.798889%,68.598938%,31.399536%);fill-opacity:1;" d="M 148.699219 68.398438 C 148.699219 64.535156 145.566406 61.398438 141.699219 61.398438 C 137.835938 61.398438 134.699219 64.535156 134.699219 68.398438 C 134.699219 72.265625 137.835938 75.398438 141.699219 75.398438 C 145.566406 75.398438 148.699219 72.265625 148.699219 68.398438 "/>
<path style=" stroke:none;fill-rule:evenodd;fill:rgb(100%,59.599304%,0%);fill-opacity:1;" d="M 148.699219 88.398438 C 148.699219 84.535156 145.566406 81.398438 141.699219 81.398438 C 137.835938 81.398438 134.699219 84.535156 134.699219 88.398438 C 134.699219 92.265625 137.835938 95.398438 141.699219 95.398438 C 145.566406 95.398438 148.699219 92.265625 148.699219 88.398438 "/>
<path style=" stroke:none;fill-rule:evenodd;fill:rgb(40.39917%,22.698975%,71.798706%);fill-opacity:1;" d="M 148.699219 108.398438 C 148.699219 104.535156 145.566406 101.398438 141.699219 101.398438 C 137.835938 101.398438 134.699219 104.535156 134.699219 108.398438 C 134.699219 112.265625 137.835938 115.398438 141.699219 115.398438 C 145.566406 115.398438 148.699219 112.265625 148.699219 108.398438 "/>
<path style=" stroke:none;fill-rule:evenodd;fill:rgb(47.499084%,33.299255%,28.199768%);fill-opacity:1;" d="M 148.699219 128.398438 C 148.699219 124.535156 145.566406 121.398438 141.699219 121.398438 C 137.835938 121.398438 134.699219 124.535156 134.699219 128.398438 C 134.699219 132.265625 137.835938 135.398438 141.699219 135.398438 C 145.566406 135.398438 148.699219 132.265625 148.699219 128.398438 "/>
<path style="fill:none;stroke-width:0.8;stroke-linecap:butt;stroke-linejoin:round;stroke:rgb(83.499146%,0%,0%);stroke-opacity:1;stroke-miterlimit:10;" d="M 231.7 136.001562 C 231.7 138.65 229.551562 140.798437 226.899219 140.798437 C 224.250781 140.798437 222.098437 138.65 222.098437 136.001562 C 222.098437 133.349219 224.250781 131.200781 226.899219 131.200781 C 229.551562 131.200781 231.7 133.349219 231.7 136.001562 " transform="matrix(1,0,0,-1,-67.2,264.4)"/>
<path style="fill:none;stroke-width:0.8;stroke-linecap:butt;stroke-linejoin:round;stroke:rgb(83.499146%,0%,0%);stroke-opacity:1;stroke-miterlimit:10;" d="M 224.899219 138.001562 L 228.899219 134.001562 " transform="matrix(1,0,0,-1,-67.2,264.4)"/>
<path style="fill:none;stroke-width:0.8;stroke-linecap:butt;stroke-linejoin:round;stroke:rgb(83.499146%,0%,0%);stroke-opacity:1;stroke-miterlimit:10;" d="M 224.899219 134.001562 L 228.899219 138.001562 " transform="matrix(1,0,0,-1,-67.2,264.4)"/>
<path style="fill:none;stroke-width:0.8;stroke-linecap:butt;stroke-linejoin:round;stroke:rgb(0%,78.399658%,32.499695%);stroke-opacity:1;stroke-miterlimit:10;" d="M 231.7 236.001562 C 231.7 238.65 229.551562 240.798437 226.899219 240.798437 C 224.250781 240.798437 222.098437 238.65 222.098437 236.001562 C 222.098437 233.349219 224.250781 231.200781 226.899219 231.200781 C 229.551562 231.200781 231.7 233.349219 231.7 236.001562 " transform="matrix(1,0,0,-1,-67.2,264.4)"/>
<path style="fill:none;stroke-width:0.8;stroke-linecap:butt;stroke-linejoin:round;stroke:rgb(0%,78.399658%,32.499695%);stroke-opacity:1;stroke-miterlimit:10;" d="M 224.399219 235.001562 L 225.899219 233.501562 L 228.899219 238.501562 " transform="matrix(1,0,0,-1,-67.2,264.4)"/>
<path style="fill:none;stroke-width:0.8;stroke-linecap:butt;stroke-linejoin:round;stroke:rgb(83.499146%,0%,0%);stroke-opacity:1;stroke-miterlimit:10;" d="M 231.7 216.001562 C 231.7 218.65 229.551562 220.798437 226.899219 220.798437 C 224.250781 220.798437 222.098437 218.65 222.098437 216.001562 C 222.098437 213.349219 224.250781 211.200781 226.899219 211.200781 C 229.551562 211.200781 231.7 213.349219 231.7 216.001562 " transform="matrix(1,0,0,-1,-67.2,264.4)"/>
<path style="fill:none;stroke-width:0.8;stroke-linecap:butt;stroke-linejoin:round;stroke:rgb(83.499146%,0%,0%);stroke-opacity:1;stroke-miterlimit:10;" d="M 224.899219 218.001562 L 228.899219 214.001562 " transform="matrix(1,0,0,-1,-67.2,264.4)"/>
<path style="fill:none;stroke-width:0.8;stroke-linecap:butt;stroke-linejoin:round;stroke:rgb(83.499146%,0%,0%);stroke-opacity:1;stroke-miterlimit:10;" d="M 224.899219 214.001562 L 228.899219 218.001562 " transform="matrix(1,0,0,-1,-67.2,264.4)"/>
<path style="fill:none;stroke-width:0.8;stroke-linecap:butt;stroke-linejoin:round;stroke:rgb(0%,78.399658%,32.499695%);stroke-opacity:1;stroke-miterlimit:10;" d="M 231.7 196.001562 C 231.7 198.65 229.551562 200.798437 226.899219 200.798437 C 224.250781 200.798437 222.098437 198.65 222.098437 196.001562 C 222.098437 193.349219 224.250781 191.200781 226.899219 191.200781 C 229.551562 191.200781 231.7 193.349219 231.7 196.001562 " transform="matrix(1,0,0,-1,-67.2,264.4)"/>
<path style="fill:none;stroke-width:0.8;stroke-linecap:butt;stroke-linejoin:round;stroke:rgb(0%,78.399658%,32.499695%);stroke-opacity:1;stroke-miterlimit:10;" d="M 224.399219 195.001562 L 225.899219 193.501562 L 228.899219 198.501562 " transform="matrix(1,0,0,-1,-67.2,264.4)"/>
<path style="fill:none;stroke-width:0.8;stroke-linecap:butt;stroke-linejoin:round;stroke:rgb(83.499146%,0%,0%);stroke-opacity:1;stroke-miterlimit:10;" d="M 173.7 196.001562 C 173.7 198.65 171.551562 200.798437 168.899219 200.798437 C 166.250781 200.798437 164.098437 198.65 164.098437 196.001562 C 164.098437 193.349219 166.250781 191.200781 168.899219 191.200781 C 171.551562 191.200781 173.7 193.349219 173.7 196.001562 " transform="matrix(1,0,0,-1,-67.2,264.4)"/>
<path style="fill:none;stroke-width:0.8;stroke-linecap:butt;stroke-linejoin:round;stroke:rgb(83.499146%,0%,0%);stroke-opacity:1;stroke-miterlimit:10;" d="M 166.899219 198.001562 L 170.899219 194.001562 " transform="matrix(1,0,0,-1,-67.2,264.4)"/>
<path style="fill:none;stroke-width:0.8;stroke-linecap:butt;stroke-linejoin:round;stroke:rgb(83.499146%,0%,0%);stroke-opacity:1;stroke-miterlimit:10;" d="M 166.899219 194.001562 L 170.899219 198.001562 " transform="matrix(1,0,0,-1,-67.2,264.4)"/>
<path style="fill:none;stroke-width:0.8;stroke-linecap:butt;stroke-linejoin:round;stroke:rgb(0%,78.399658%,32.499695%);stroke-opacity:1;stroke-miterlimit:10;" d="M 231.7 156.001562 C 231.7 158.65 229.551562 160.798437 226.899219 160.798437 C 224.250781 160.798437 222.098437 158.65 222.098437 156.001562 C 222.098437 153.349219 224.250781 151.200781 226.899219 151.200781 C 229.551562 151.200781 231.7 153.349219 231.7 156.001562 " transform="matrix(1,0,0,-1,-67.2,264.4)"/>
<path style="fill:none;stroke-width:0.8;stroke-linecap:butt;stroke-linejoin:round;stroke:rgb(0%,78.399658%,32.499695%);stroke-opacity:1;stroke-miterlimit:10;" d="M 224.399219 155.001562 L 225.899219 153.501562 L 228.899219 158.501562 " transform="matrix(1,0,0,-1,-67.2,264.4)"/>
<path style="fill:none;stroke-width:0.8;stroke-linecap:butt;stroke-linejoin:round;stroke:rgb(83.499146%,0%,0%);stroke-opacity:1;stroke-miterlimit:10;" d="M 347.7 136.001562 C 347.7 138.65 345.551562 140.798437 342.899219 140.798437 C 340.250781 140.798437 338.098437 138.65 338.098437 136.001562 C 338.098437 133.349219 340.250781 131.200781 342.899219 131.200781 C 345.551562 131.200781 347.7 133.349219 347.7 136.001562 " transform="matrix(1,0,0,-1,-67.2,264.4)"/>
<path style="fill:none;stroke-width:0.8;stroke-linecap:butt;stroke-linejoin:round;stroke:rgb(83.499146%,0%,0%);stroke-opacity:1;stroke-miterlimit:10;" d="M 340.899219 138.001562 L 344.899219 134.001562 " transform="matrix(1,0,0,-1,-67.2,264.4)"/>
<path style="fill:none;stroke-width:0.8;stroke-linecap:butt;stroke-linejoin:round;stroke:rgb(83.499146%,0%,0%);stroke-opacity:1;stroke-miterlimit:10;" d="M 340.899219 134.001562 L 344.899219 138.001562 " transform="matrix(1,0,0,-1,-67.2,264.4)"/>
<g clip-path="url(#clip2)" clip-rule="nonzero">
<path style="fill:none;stroke-width:0.8;stroke-linecap:butt;stroke-linejoin:round;stroke:rgb(0%,0%,0%);stroke-opacity:1;stroke-miterlimit:10;" d="M 178.899219 264.001562 L 178.899219 128.001562 " transform="matrix(1,0,0,-1,-67.2,264.4)"/>
</g>
<path style=" stroke:none;fill-rule:evenodd;fill:rgb(29.798889%,68.598938%,31.399536%);fill-opacity:1;" d="M 188.699219 8.398438 C 188.699219 4.535156 185.566406 1.398438 181.699219 1.398438 C 177.835938 1.398438 174.699219 4.535156 174.699219 8.398438 C 174.699219 12.265625 177.835938 15.398438 181.699219 15.398438 C 185.566406 15.398438 188.699219 12.265625 188.699219 8.398438 "/>
<path style=" stroke:none;fill-rule:evenodd;fill:rgb(29.798889%,68.598938%,31.399536%);fill-opacity:1;" d="M 188.699219 28.398438 C 188.699219 24.535156 185.566406 21.398438 181.699219 21.398438 C 177.835938 21.398438 174.699219 24.535156 174.699219 28.398438 C 174.699219 32.265625 177.835938 35.398438 181.699219 35.398438 C 185.566406 35.398438 188.699219 32.265625 188.699219 28.398438 "/>
<path style=" stroke:none;fill-rule:evenodd;fill:rgb(29.798889%,68.598938%,31.399536%);fill-opacity:1;" d="M 188.699219 48.398438 C 188.699219 44.535156 185.566406 41.398438 181.699219 41.398438 C 177.835938 41.398438 174.699219 44.535156 174.699219 48.398438 C 174.699219 52.265625 177.835938 55.398438 181.699219 55.398438 C 185.566406 55.398438 188.699219 52.265625 188.699219 48.398438 "/>
<path style=" stroke:none;fill-rule:evenodd;fill:rgb(29.798889%,68.598938%,31.399536%);fill-opacity:1;" d="M 188.699219 68.398438 C 188.699219 64.535156 185.566406 61.398438 181.699219 61.398438 C 177.835938 61.398438 174.699219 64.535156 174.699219 68.398438 C 174.699219 72.265625 177.835938 75.398438 181.699219 75.398438 C 185.566406 75.398438 188.699219 72.265625 188.699219 68.398438 "/>
<path style=" stroke:none;fill-rule:evenodd;fill:rgb(1.199341%,66.299438%,95.698547%);fill-opacity:1;" d="M 206.699219 8.398438 C 206.699219 4.535156 203.566406 1.398438 199.699219 1.398438 C 195.835938 1.398438 192.699219 4.535156 192.699219 8.398438 C 192.699219 12.265625 195.835938 15.398438 199.699219 15.398438 C 203.566406 15.398438 206.699219 12.265625 206.699219 8.398438 "/>
<path style=" stroke:none;fill-rule:evenodd;fill:rgb(29.798889%,68.598938%,31.399536%);fill-opacity:1;" d="M 188.699219 88.398438 C 188.699219 84.535156 185.566406 81.398438 181.699219 81.398438 C 177.835938 81.398438 174.699219 84.535156 174.699219 88.398438 C 174.699219 92.265625 177.835938 95.398438 181.699219 95.398438 C 185.566406 95.398438 188.699219 92.265625 188.699219 88.398438 "/>
<path style=" stroke:none;fill-rule:evenodd;fill:rgb(29.798889%,68.598938%,31.399536%);fill-opacity:1;" d="M 188.699219 108.398438 C 188.699219 104.535156 185.566406 101.398438 181.699219 101.398438 C 177.835938 101.398438 174.699219 104.535156 174.699219 108.398438 C 174.699219 112.265625 177.835938 115.398438 181.699219 115.398438 C 185.566406 115.398438 188.699219 112.265625 188.699219 108.398438 "/>
<path style=" stroke:none;fill-rule:evenodd;fill:rgb(29.798889%,68.598938%,31.399536%);fill-opacity:1;" d="M 188.699219 128.398438 C 188.699219 124.535156 185.566406 121.398438 181.699219 121.398438 C 177.835938 121.398438 174.699219 124.535156 174.699219 128.398438 C 174.699219 132.265625 177.835938 135.398438 181.699219 135.398438 C 185.566406 135.398438 188.699219 132.265625 188.699219 128.398438 "/>
<path style=" stroke:none;fill-rule:evenodd;fill:rgb(91.398621%,11.799622%,38.798523%);fill-opacity:1;" d="M 206.699219 28.398438 C 206.699219 24.535156 203.566406 21.398438 199.699219 21.398438 C 195.835938 21.398438 192.699219 24.535156 192.699219 28.398438 C 192.699219 32.265625 195.835938 35.398438 199.699219 35.398438 C 203.566406 35.398438 206.699219 32.265625 206.699219 28.398438 "/>
<path style=" stroke:none;fill-rule:evenodd;fill:rgb(80.39856%,86.299133%,22.399902%);fill-opacity:1;" d="M 206.699219 48.398438 C 206.699219 44.535156 203.566406 41.398438 199.699219 41.398438 C 195.835938 41.398438 192.699219 44.535156 192.699219 48.398438 C 192.699219 52.265625 195.835938 55.398438 199.699219 55.398438 C 203.566406 55.398438 206.699219 52.265625 206.699219 48.398438 "/>
<path style=" stroke:none;fill-rule:evenodd;fill:rgb(29.798889%,68.598938%,31.399536%);fill-opacity:1;" d="M 206.699219 68.398438 C 206.699219 64.535156 203.566406 61.398438 199.699219 61.398438 C 195.835938 61.398438 192.699219 64.535156 192.699219 68.398438 C 192.699219 72.265625 195.835938 75.398438 199.699219 75.398438 C 203.566406 75.398438 206.699219 72.265625 206.699219 68.398438 "/>
<path style=" stroke:none;fill-rule:evenodd;fill:rgb(100%,59.599304%,0%);fill-opacity:1;" d="M 206.699219 88.398438 C 206.699219 84.535156 203.566406 81.398438 199.699219 81.398438 C 195.835938 81.398438 192.699219 84.535156 192.699219 88.398438 C 192.699219 92.265625 195.835938 95.398438 199.699219 95.398438 C 203.566406 95.398438 206.699219 92.265625 206.699219 88.398438 "/>
<path style=" stroke:none;fill-rule:evenodd;fill:rgb(40.39917%,22.698975%,71.798706%);fill-opacity:1;" d="M 206.699219 108.398438 C 206.699219 104.535156 203.566406 101.398438 199.699219 101.398438 C 195.835938 101.398438 192.699219 104.535156 192.699219 108.398438 C 192.699219 112.265625 195.835938 115.398438 199.699219 115.398438 C 203.566406 115.398438 206.699219 112.265625 206.699219 108.398438 "/>
<path style=" stroke:none;fill-rule:evenodd;fill:rgb(47.499084%,33.299255%,28.199768%);fill-opacity:1;" d="M 206.699219 128.398438 C 206.699219 124.535156 203.566406 121.398438 199.699219 121.398438 C 195.835938 121.398438 192.699219 124.535156 192.699219 128.398438 C 192.699219 132.265625 195.835938 135.398438 199.699219 135.398438 C 203.566406 135.398438 206.699219 132.265625 206.699219 128.398438 "/>
<path style="fill:none;stroke-width:0.8;stroke-linecap:butt;stroke-linejoin:round;stroke:rgb(83.499146%,0%,0%);stroke-opacity:1;stroke-miterlimit:10;" d="M 289.7 256.001562 C 289.7 258.65 287.551562 260.798437 284.899219 260.798437 C 282.250781 260.798437 280.098437 258.65 280.098437 256.001562 C 280.098437 253.349219 282.250781 251.200781 284.899219 251.200781 C 287.551562 251.200781 289.7 253.349219 289.7 256.001562 " transform="matrix(1,0,0,-1,-67.2,264.4)"/>
<path style="fill:none;stroke-width:0.8;stroke-linecap:butt;stroke-linejoin:round;stroke:rgb(83.499146%,0%,0%);stroke-opacity:1;stroke-miterlimit:10;" d="M 282.899219 258.001562 L 286.899219 254.001562 " transform="matrix(1,0,0,-1,-67.2,264.4)"/>
<path style="fill:none;stroke-width:0.8;stroke-linecap:butt;stroke-linejoin:round;stroke:rgb(83.499146%,0%,0%);stroke-opacity:1;stroke-miterlimit:10;" d="M 282.899219 254.001562 L 286.899219 258.001562 " transform="matrix(1,0,0,-1,-67.2,264.4)"/>
<path style="fill:none;stroke-width:0.8;stroke-linecap:butt;stroke-linejoin:round;stroke:rgb(0%,78.399658%,32.499695%);stroke-opacity:1;stroke-miterlimit:10;" d="M 289.7 236.001562 C 289.7 238.65 287.551562 240.798437 284.899219 240.798437 C 282.250781 240.798437 280.098437 238.65 280.098437 236.001562 C 280.098437 233.349219 282.250781 231.200781 284.899219 231.200781 C 287.551562 231.200781 289.7 233.349219 289.7 236.001562 " transform="matrix(1,0,0,-1,-67.2,264.4)"/>
<path style="fill:none;stroke-width:0.8;stroke-linecap:butt;stroke-linejoin:round;stroke:rgb(0%,78.399658%,32.499695%);stroke-opacity:1;stroke-miterlimit:10;" d="M 282.399219 235.001562 L 283.899219 233.501562 L 286.899219 238.501562 " transform="matrix(1,0,0,-1,-67.2,264.4)"/>
<path style="fill:none;stroke-width:0.8;stroke-linecap:butt;stroke-linejoin:round;stroke:rgb(83.499146%,0%,0%);stroke-opacity:1;stroke-miterlimit:10;" d="M 405.7 136.001562 C 405.7 138.65 403.551562 140.798437 400.899219 140.798437 C 398.250781 140.798437 396.098437 138.65 396.098437 136.001562 C 396.098437 133.349219 398.250781 131.200781 400.899219 131.200781 C 403.551562 131.200781 405.7 133.349219 405.7 136.001562 " transform="matrix(1,0,0,-1,-67.2,264.4)"/>
<path style="fill:none;stroke-width:0.8;stroke-linecap:butt;stroke-linejoin:round;stroke:rgb(83.499146%,0%,0%);stroke-opacity:1;stroke-miterlimit:10;" d="M 398.899219 138.001562 L 402.899219 134.001562 " transform="matrix(1,0,0,-1,-67.2,264.4)"/>
<path style="fill:none;stroke-width:0.8;stroke-linecap:butt;stroke-linejoin:round;stroke:rgb(83.499146%,0%,0%);stroke-opacity:1;stroke-miterlimit:10;" d="M 398.899219 134.001562 L 402.899219 138.001562 " transform="matrix(1,0,0,-1,-67.2,264.4)"/>
<path style="fill:none;stroke-width:0.8;stroke-linecap:butt;stroke-linejoin:round;stroke:rgb(0%,78.399658%,32.499695%);stroke-opacity:1;stroke-miterlimit:10;" d="M 289.7 196.001562 C 289.7 198.65 287.551562 200.798437 284.899219 200.798437 C 282.250781 200.798437 280.098437 198.65 280.098437 196.001562 C 280.098437 193.349219 282.250781 191.200781 284.899219 191.200781 C 287.551562 191.200781 289.7 193.349219 289.7 196.001562 " transform="matrix(1,0,0,-1,-67.2,264.4)"/>
<path style="fill:none;stroke-width:0.8;stroke-linecap:butt;stroke-linejoin:round;stroke:rgb(0%,78.399658%,32.499695%);stroke-opacity:1;stroke-miterlimit:10;" d="M 282.399219 195.001562 L 283.899219 193.501562 L 286.899219 198.501562 " transform="matrix(1,0,0,-1,-67.2,264.4)"/>
<path style="fill:none;stroke-width:0.8;stroke-linecap:butt;stroke-linejoin:round;stroke:rgb(83.499146%,0%,0%);stroke-opacity:1;stroke-miterlimit:10;" d="M 289.7 176.001562 C 289.7 178.65 287.551562 180.798437 284.899219 180.798437 C 282.250781 180.798437 280.098437 178.65 280.098437 176.001562 C 280.098437 173.349219 282.250781 171.200781 284.899219 171.200781 C 287.551562 171.200781 289.7 173.349219 289.7 176.001562 " transform="matrix(1,0,0,-1,-67.2,264.4)"/>
<path style="fill:none;stroke-width:0.8;stroke-linecap:butt;stroke-linejoin:round;stroke:rgb(83.499146%,0%,0%);stroke-opacity:1;stroke-miterlimit:10;" d="M 282.899219 178.001562 L 286.899219 174.001562 " transform="matrix(1,0,0,-1,-67.2,264.4)"/>
<path style="fill:none;stroke-width:0.8;stroke-linecap:butt;stroke-linejoin:round;stroke:rgb(83.499146%,0%,0%);stroke-opacity:1;stroke-miterlimit:10;" d="M 282.899219 174.001562 L 286.899219 178.001562 " transform="matrix(1,0,0,-1,-67.2,264.4)"/>
<path style="fill:none;stroke-width:0.8;stroke-linecap:butt;stroke-linejoin:round;stroke:rgb(0%,78.399658%,32.499695%);stroke-opacity:1;stroke-miterlimit:10;" d="M 289.7 156.001562 C 289.7 158.65 287.551562 160.798437 284.899219 160.798437 C 282.250781 160.798437 280.098437 158.65 280.098437 156.001562 C 280.098437 153.349219 282.250781 151.200781 284.899219 151.200781 C 287.551562 151.200781 289.7 153.349219 289.7 156.001562 " transform="matrix(1,0,0,-1,-67.2,264.4)"/>
<path style="fill:none;stroke-width:0.8;stroke-linecap:butt;stroke-linejoin:round;stroke:rgb(0%,78.399658%,32.499695%);stroke-opacity:1;stroke-miterlimit:10;" d="M 282.399219 155.001562 L 283.899219 153.501562 L 286.899219 158.501562 " transform="matrix(1,0,0,-1,-67.2,264.4)"/>
<g clip-path="url(#clip3)" clip-rule="nonzero">
<path style="fill:none;stroke-width:0.8;stroke-linecap:butt;stroke-linejoin:round;stroke:rgb(0%,0%,0%);stroke-opacity:1;stroke-miterlimit:10;" d="M 236.899219 264.001562 L 236.899219 128.001562 " transform="matrix(1,0,0,-1,-67.2,264.4)"/>
</g>
<path style=" stroke:none;fill-rule:evenodd;fill:rgb(100%,59.599304%,0%);fill-opacity:1;" d="M 246.699219 8.398438 C 246.699219 4.535156 243.566406 1.398438 239.699219 1.398438 C 235.835938 1.398438 232.699219 4.535156 232.699219 8.398438 C 232.699219 12.265625 235.835938 15.398438 239.699219 15.398438 C 243.566406 15.398438 246.699219 12.265625 246.699219 8.398438 "/>
<path style=" stroke:none;fill-rule:evenodd;fill:rgb(100%,59.599304%,0%);fill-opacity:1;" d="M 246.699219 28.398438 C 246.699219 24.535156 243.566406 21.398438 239.699219 21.398438 C 235.835938 21.398438 232.699219 24.535156 232.699219 28.398438 C 232.699219 32.265625 235.835938 35.398438 239.699219 35.398438 C 243.566406 35.398438 246.699219 32.265625 246.699219 28.398438 "/>
<path style=" stroke:none;fill-rule:evenodd;fill:rgb(100%,59.599304%,0%);fill-opacity:1;" d="M 246.699219 48.398438 C 246.699219 44.535156 243.566406 41.398438 239.699219 41.398438 C 235.835938 41.398438 232.699219 44.535156 232.699219 48.398438 C 232.699219 52.265625 235.835938 55.398438 239.699219 55.398438 C 243.566406 55.398438 246.699219 52.265625 246.699219 48.398438 "/>
<path style=" stroke:none;fill-rule:evenodd;fill:rgb(100%,59.599304%,0%);fill-opacity:1;" d="M 246.699219 68.398438 C 246.699219 64.535156 243.566406 61.398438 239.699219 61.398438 C 235.835938 61.398438 232.699219 64.535156 232.699219 68.398438 C 232.699219 72.265625 235.835938 75.398438 239.699219 75.398438 C 243.566406 75.398438 246.699219 72.265625 246.699219 68.398438 "/>
<path style=" stroke:none;fill-rule:evenodd;fill:rgb(1.199341%,66.299438%,95.698547%);fill-opacity:1;" d="M 264.699219 8.398438 C 264.699219 4.535156 261.566406 1.398438 257.699219 1.398438 C 253.835938 1.398438 250.699219 4.535156 250.699219 8.398438 C 250.699219 12.265625 253.835938 15.398438 257.699219 15.398438 C 261.566406 15.398438 264.699219 12.265625 264.699219 8.398438 "/>
<path style=" stroke:none;fill-rule:evenodd;fill:rgb(100%,59.599304%,0%);fill-opacity:1;" d="M 246.699219 88.398438 C 246.699219 84.535156 243.566406 81.398438 239.699219 81.398438 C 235.835938 81.398438 232.699219 84.535156 232.699219 88.398438 C 232.699219 92.265625 235.835938 95.398438 239.699219 95.398438 C 243.566406 95.398438 246.699219 92.265625 246.699219 88.398438 "/>
<path style=" stroke:none;fill-rule:evenodd;fill:rgb(100%,59.599304%,0%);fill-opacity:1;" d="M 246.699219 108.398438 C 246.699219 104.535156 243.566406 101.398438 239.699219 101.398438 C 235.835938 101.398438 232.699219 104.535156 232.699219 108.398438 C 232.699219 112.265625 235.835938 115.398438 239.699219 115.398438 C 243.566406 115.398438 246.699219 112.265625 246.699219 108.398438 "/>
<path style=" stroke:none;fill-rule:evenodd;fill:rgb(100%,59.599304%,0%);fill-opacity:1;" d="M 246.699219 128.398438 C 246.699219 124.535156 243.566406 121.398438 239.699219 121.398438 C 235.835938 121.398438 232.699219 124.535156 232.699219 128.398438 C 232.699219 132.265625 235.835938 135.398438 239.699219 135.398438 C 243.566406 135.398438 246.699219 132.265625 246.699219 128.398438 "/>
<path style=" stroke:none;fill-rule:evenodd;fill:rgb(91.398621%,11.799622%,38.798523%);fill-opacity:1;" d="M 264.699219 28.398438 C 264.699219 24.535156 261.566406 21.398438 257.699219 21.398438 C 253.835938 21.398438 250.699219 24.535156 250.699219 28.398438 C 250.699219 32.265625 253.835938 35.398438 257.699219 35.398438 C 261.566406 35.398438 264.699219 32.265625 264.699219 28.398438 "/>
<path style=" stroke:none;fill-rule:evenodd;fill:rgb(80.39856%,86.299133%,22.399902%);fill-opacity:1;" d="M 264.699219 48.398438 C 264.699219 44.535156 261.566406 41.398438 257.699219 41.398438 C 253.835938 41.398438 250.699219 44.535156 250.699219 48.398438 C 250.699219 52.265625 253.835938 55.398438 257.699219 55.398438 C 261.566406 55.398438 264.699219 52.265625 264.699219 48.398438 "/>
<path style=" stroke:none;fill-rule:evenodd;fill:rgb(29.798889%,68.598938%,31.399536%);fill-opacity:1;" d="M 264.699219 68.398438 C 264.699219 64.535156 261.566406 61.398438 257.699219 61.398438 C 253.835938 61.398438 250.699219 64.535156 250.699219 68.398438 C 250.699219 72.265625 253.835938 75.398438 257.699219 75.398438 C 261.566406 75.398438 264.699219 72.265625 264.699219 68.398438 "/>
<path style=" stroke:none;fill-rule:evenodd;fill:rgb(100%,59.599304%,0%);fill-opacity:1;" d="M 264.699219 88.398438 C 264.699219 84.535156 261.566406 81.398438 257.699219 81.398438 C 253.835938 81.398438 250.699219 84.535156 250.699219 88.398438 C 250.699219 92.265625 253.835938 95.398438 257.699219 95.398438 C 261.566406 95.398438 264.699219 92.265625 264.699219 88.398438 "/>
<path style=" stroke:none;fill-rule:evenodd;fill:rgb(40.39917%,22.698975%,71.798706%);fill-opacity:1;" d="M 264.699219 108.398438 C 264.699219 104.535156 261.566406 101.398438 257.699219 101.398438 C 253.835938 101.398438 250.699219 104.535156 250.699219 108.398438 C 250.699219 112.265625 253.835938 115.398438 257.699219 115.398438 C 261.566406 115.398438 264.699219 112.265625 264.699219 108.398438 "/>
<path style=" stroke:none;fill-rule:evenodd;fill:rgb(47.499084%,33.299255%,28.199768%);fill-opacity:1;" d="M 264.699219 128.398438 C 264.699219 124.535156 261.566406 121.398438 257.699219 121.398438 C 253.835938 121.398438 250.699219 124.535156 250.699219 128.398438 C 250.699219 132.265625 253.835938 135.398438 257.699219 135.398438 C 261.566406 135.398438 264.699219 132.265625 264.699219 128.398438 "/>
<path style="fill:none;stroke-width:0.8;stroke-linecap:butt;stroke-linejoin:round;stroke:rgb(83.499146%,0%,0%);stroke-opacity:1;stroke-miterlimit:10;" d="M 115.7 196.001562 C 115.7 198.65 113.551563 200.798437 110.899219 200.798437 C 108.250781 200.798437 106.098438 198.65 106.098438 196.001562 C 106.098438 193.349219 108.250781 191.200781 110.899219 191.200781 C 113.551563 191.200781 115.7 193.349219 115.7 196.001562 " transform="matrix(1,0,0,-1,-67.2,264.4)"/>
<path style="fill:none;stroke-width:0.8;stroke-linecap:butt;stroke-linejoin:round;stroke:rgb(83.499146%,0%,0%);stroke-opacity:1;stroke-miterlimit:10;" d="M 108.899219 198.001562 L 112.899219 194.001562 " transform="matrix(1,0,0,-1,-67.2,264.4)"/>
<path style="fill:none;stroke-width:0.8;stroke-linecap:butt;stroke-linejoin:round;stroke:rgb(83.499146%,0%,0%);stroke-opacity:1;stroke-miterlimit:10;" d="M 108.899219 194.001562 L 112.899219 198.001562 " transform="matrix(1,0,0,-1,-67.2,264.4)"/>
<path style="fill:none;stroke-width:0.8;stroke-linecap:butt;stroke-linejoin:round;stroke:rgb(0%,78.399658%,32.499695%);stroke-opacity:1;stroke-miterlimit:10;" d="M 173.7 256.001562 C 173.7 258.65 171.551562 260.798437 168.899219 260.798437 C 166.250781 260.798437 164.098437 258.65 164.098437 256.001562 C 164.098437 253.349219 166.250781 251.200781 168.899219 251.200781 C 171.551562 251.200781 173.7 253.349219 173.7 256.001562 " transform="matrix(1,0,0,-1,-67.2,264.4)"/>
<path style="fill:none;stroke-width:0.8;stroke-linecap:butt;stroke-linejoin:round;stroke:rgb(0%,78.399658%,32.499695%);stroke-opacity:1;stroke-miterlimit:10;" d="M 166.399219 255.001562 L 167.899219 253.501562 L 170.899219 258.501562 " transform="matrix(1,0,0,-1,-67.2,264.4)"/>
<path style="fill:none;stroke-width:0.8;stroke-linecap:butt;stroke-linejoin:round;stroke:rgb(83.499146%,0%,0%);stroke-opacity:1;stroke-miterlimit:10;" d="M 347.7 216.001562 C 347.7 218.65 345.551562 220.798437 342.899219 220.798437 C 340.250781 220.798437 338.098437 218.65 338.098437 216.001562 C 338.098437 213.349219 340.250781 211.200781 342.899219 211.200781 C 345.551562 211.200781 347.7 213.349219 347.7 216.001562 " transform="matrix(1,0,0,-1,-67.2,264.4)"/>
<path style="fill:none;stroke-width:0.8;stroke-linecap:butt;stroke-linejoin:round;stroke:rgb(83.499146%,0%,0%);stroke-opacity:1;stroke-miterlimit:10;" d="M 340.899219 218.001562 L 344.899219 214.001562 " transform="matrix(1,0,0,-1,-67.2,264.4)"/>
<path style="fill:none;stroke-width:0.8;stroke-linecap:butt;stroke-linejoin:round;stroke:rgb(83.499146%,0%,0%);stroke-opacity:1;stroke-miterlimit:10;" d="M 340.899219 214.001562 L 344.899219 218.001562 " transform="matrix(1,0,0,-1,-67.2,264.4)"/>
<path style="fill:none;stroke-width:0.8;stroke-linecap:butt;stroke-linejoin:round;stroke:rgb(0%,78.399658%,32.499695%);stroke-opacity:1;stroke-miterlimit:10;" d="M 347.7 196.001562 C 347.7 198.65 345.551562 200.798437 342.899219 200.798437 C 340.250781 200.798437 338.098437 198.65 338.098437 196.001562 C 338.098437 193.349219 340.250781 191.200781 342.899219 191.200781 C 345.551562 191.200781 347.7 193.349219 347.7 196.001562 " transform="matrix(1,0,0,-1,-67.2,264.4)"/>
<path style="fill:none;stroke-width:0.8;stroke-linecap:butt;stroke-linejoin:round;stroke:rgb(0%,78.399658%,32.499695%);stroke-opacity:1;stroke-miterlimit:10;" d="M 340.399219 195.001562 L 341.899219 193.501562 L 344.899219 198.501562 " transform="matrix(1,0,0,-1,-67.2,264.4)"/>
<path style="fill:none;stroke-width:0.8;stroke-linecap:butt;stroke-linejoin:round;stroke:rgb(83.499146%,0%,0%);stroke-opacity:1;stroke-miterlimit:10;" d="M 347.7 176.001562 C 347.7 178.65 345.551562 180.798437 342.899219 180.798437 C 340.250781 180.798437 338.098437 178.65 338.098437 176.001562 C 338.098437 173.349219 340.250781 171.200781 342.899219 171.200781 C 345.551562 171.200781 347.7 173.349219 347.7 176.001562 " transform="matrix(1,0,0,-1,-67.2,264.4)"/>
<path style="fill:none;stroke-width:0.8;stroke-linecap:butt;stroke-linejoin:round;stroke:rgb(83.499146%,0%,0%);stroke-opacity:1;stroke-miterlimit:10;" d="M 340.899219 178.001562 L 344.899219 174.001562 " transform="matrix(1,0,0,-1,-67.2,264.4)"/>
<path style="fill:none;stroke-width:0.8;stroke-linecap:butt;stroke-linejoin:round;stroke:rgb(83.499146%,0%,0%);stroke-opacity:1;stroke-miterlimit:10;" d="M 340.899219 174.001562 L 344.899219 178.001562 " transform="matrix(1,0,0,-1,-67.2,264.4)"/>
<path style="fill:none;stroke-width:0.8;stroke-linecap:butt;stroke-linejoin:round;stroke:rgb(0%,78.399658%,32.499695%);stroke-opacity:1;stroke-miterlimit:10;" d="M 115.7 216.001562 C 115.7 218.65 113.551563 220.798437 110.899219 220.798437 C 108.250781 220.798437 106.098438 218.65 106.098438 216.001562 C 106.098438 213.349219 108.250781 211.200781 110.899219 211.200781 C 113.551563 211.200781 115.7 213.349219 115.7 216.001562 " transform="matrix(1,0,0,-1,-67.2,264.4)"/>
<path style="fill:none;stroke-width:0.8;stroke-linecap:butt;stroke-linejoin:round;stroke:rgb(0%,78.399658%,32.499695%);stroke-opacity:1;stroke-miterlimit:10;" d="M 108.399219 215.001562 L 109.899219 213.501562 L 112.899219 218.501562 " transform="matrix(1,0,0,-1,-67.2,264.4)"/>
<g clip-path="url(#clip4)" clip-rule="nonzero">
<path style="fill:none;stroke-width:0.8;stroke-linecap:butt;stroke-linejoin:round;stroke:rgb(0%,0%,0%);stroke-opacity:1;stroke-miterlimit:10;" d="M 294.899219 264.001562 L 294.899219 128.001562 " transform="matrix(1,0,0,-1,-67.2,264.4)"/>
</g>
<path style=" stroke:none;fill-rule:evenodd;fill:rgb(40.39917%,22.698975%,71.798706%);fill-opacity:1;" d="M 304.699219 8.398438 C 304.699219 4.535156 301.566406 1.398438 297.699219 1.398438 C 293.835938 1.398438 290.699219 4.535156 290.699219 8.398438 C 290.699219 12.265625 293.835938 15.398438 297.699219 15.398438 C 301.566406 15.398438 304.699219 12.265625 304.699219 8.398438 "/>
<path style=" stroke:none;fill-rule:evenodd;fill:rgb(40.39917%,22.698975%,71.798706%);fill-opacity:1;" d="M 304.699219 28.398438 C 304.699219 24.535156 301.566406 21.398438 297.699219 21.398438 C 293.835938 21.398438 290.699219 24.535156 290.699219 28.398438 C 290.699219 32.265625 293.835938 35.398438 297.699219 35.398438 C 301.566406 35.398438 304.699219 32.265625 304.699219 28.398438 "/>
<path style=" stroke:none;fill-rule:evenodd;fill:rgb(40.39917%,22.698975%,71.798706%);fill-opacity:1;" d="M 304.699219 48.398438 C 304.699219 44.535156 301.566406 41.398438 297.699219 41.398438 C 293.835938 41.398438 290.699219 44.535156 290.699219 48.398438 C 290.699219 52.265625 293.835938 55.398438 297.699219 55.398438 C 301.566406 55.398438 304.699219 52.265625 304.699219 48.398438 "/>
<path style=" stroke:none;fill-rule:evenodd;fill:rgb(40.39917%,22.698975%,71.798706%);fill-opacity:1;" d="M 304.699219 68.398438 C 304.699219 64.535156 301.566406 61.398438 297.699219 61.398438 C 293.835938 61.398438 290.699219 64.535156 290.699219 68.398438 C 290.699219 72.265625 293.835938 75.398438 297.699219 75.398438 C 301.566406 75.398438 304.699219 72.265625 304.699219 68.398438 "/>
<path style=" stroke:none;fill-rule:evenodd;fill:rgb(1.199341%,66.299438%,95.698547%);fill-opacity:1;" d="M 322.699219 8.398438 C 322.699219 4.535156 319.566406 1.398438 315.699219 1.398438 C 311.835938 1.398438 308.699219 4.535156 308.699219 8.398438 C 308.699219 12.265625 311.835938 15.398438 315.699219 15.398438 C 319.566406 15.398438 322.699219 12.265625 322.699219 8.398438 "/>
<path style=" stroke:none;fill-rule:evenodd;fill:rgb(40.39917%,22.698975%,71.798706%);fill-opacity:1;" d="M 304.699219 88.398438 C 304.699219 84.535156 301.566406 81.398438 297.699219 81.398438 C 293.835938 81.398438 290.699219 84.535156 290.699219 88.398438 C 290.699219 92.265625 293.835938 95.398438 297.699219 95.398438 C 301.566406 95.398438 304.699219 92.265625 304.699219 88.398438 "/>
<path style=" stroke:none;fill-rule:evenodd;fill:rgb(40.39917%,22.698975%,71.798706%);fill-opacity:1;" d="M 304.699219 108.398438 C 304.699219 104.535156 301.566406 101.398438 297.699219 101.398438 C 293.835938 101.398438 290.699219 104.535156 290.699219 108.398438 C 290.699219 112.265625 293.835938 115.398438 297.699219 115.398438 C 301.566406 115.398438 304.699219 112.265625 304.699219 108.398438 "/>
<path style=" stroke:none;fill-rule:evenodd;fill:rgb(40.39917%,22.698975%,71.798706%);fill-opacity:1;" d="M 304.699219 128.398438 C 304.699219 124.535156 301.566406 121.398438 297.699219 121.398438 C 293.835938 121.398438 290.699219 124.535156 290.699219 128.398438 C 290.699219 132.265625 293.835938 135.398438 297.699219 135.398438 C 301.566406 135.398438 304.699219 132.265625 304.699219 128.398438 "/>
<path style=" stroke:none;fill-rule:evenodd;fill:rgb(91.398621%,11.799622%,38.798523%);fill-opacity:1;" d="M 322.699219 28.398438 C 322.699219 24.535156 319.566406 21.398438 315.699219 21.398438 C 311.835938 21.398438 308.699219 24.535156 308.699219 28.398438 C 308.699219 32.265625 311.835938 35.398438 315.699219 35.398438 C 319.566406 35.398438 322.699219 32.265625 322.699219 28.398438 "/>
<path style=" stroke:none;fill-rule:evenodd;fill:rgb(80.39856%,86.299133%,22.399902%);fill-opacity:1;" d="M 322.699219 48.398438 C 322.699219 44.535156 319.566406 41.398438 315.699219 41.398438 C 311.835938 41.398438 308.699219 44.535156 308.699219 48.398438 C 308.699219 52.265625 311.835938 55.398438 315.699219 55.398438 C 319.566406 55.398438 322.699219 52.265625 322.699219 48.398438 "/>
<path style=" stroke:none;fill-rule:evenodd;fill:rgb(29.798889%,68.598938%,31.399536%);fill-opacity:1;" d="M 322.699219 68.398438 C 322.699219 64.535156 319.566406 61.398438 315.699219 61.398438 C 311.835938 61.398438 308.699219 64.535156 308.699219 68.398438 C 308.699219 72.265625 311.835938 75.398438 315.699219 75.398438 C 319.566406 75.398438 322.699219 72.265625 322.699219 68.398438 "/>
<path style=" stroke:none;fill-rule:evenodd;fill:rgb(100%,59.599304%,0%);fill-opacity:1;" d="M 322.699219 88.398438 C 322.699219 84.535156 319.566406 81.398438 315.699219 81.398438 C 311.835938 81.398438 308.699219 84.535156 308.699219 88.398438 C 308.699219 92.265625 311.835938 95.398438 315.699219 95.398438 C 319.566406 95.398438 322.699219 92.265625 322.699219 88.398438 "/>
<path style=" stroke:none;fill-rule:evenodd;fill:rgb(40.39917%,22.698975%,71.798706%);fill-opacity:1;" d="M 322.699219 108.398438 C 322.699219 104.535156 319.566406 101.398438 315.699219 101.398438 C 311.835938 101.398438 308.699219 104.535156 308.699219 108.398438 C 308.699219 112.265625 311.835938 115.398438 315.699219 115.398438 C 319.566406 115.398438 322.699219 112.265625 322.699219 108.398438 "/>
<path style=" stroke:none;fill-rule:evenodd;fill:rgb(47.499084%,33.299255%,28.199768%);fill-opacity:1;" d="M 322.699219 128.398438 C 322.699219 124.535156 319.566406 121.398438 315.699219 121.398438 C 311.835938 121.398438 308.699219 124.535156 308.699219 128.398438 C 308.699219 132.265625 311.835938 135.398438 315.699219 135.398438 C 319.566406 135.398438 322.699219 132.265625 322.699219 128.398438 "/>
<path style="fill:none;stroke-width:0.8;stroke-linecap:butt;stroke-linejoin:round;stroke:rgb(83.499146%,0%,0%);stroke-opacity:1;stroke-miterlimit:10;" d="M 463.7 196.001562 C 463.7 198.65 461.551562 200.798437 458.899219 200.798437 C 456.250781 200.798437 454.098437 198.65 454.098437 196.001562 C 454.098437 193.349219 456.250781 191.200781 458.899219 191.200781 C 461.551562 191.200781 463.7 193.349219 463.7 196.001562 " transform="matrix(1,0,0,-1,-67.2,264.4)"/>
<path style="fill:none;stroke-width:0.8;stroke-linecap:butt;stroke-linejoin:round;stroke:rgb(83.499146%,0%,0%);stroke-opacity:1;stroke-miterlimit:10;" d="M 456.899219 198.001562 L 460.899219 194.001562 " transform="matrix(1,0,0,-1,-67.2,264.4)"/>
<path style="fill:none;stroke-width:0.8;stroke-linecap:butt;stroke-linejoin:round;stroke:rgb(83.499146%,0%,0%);stroke-opacity:1;stroke-miterlimit:10;" d="M 456.899219 194.001562 L 460.899219 198.001562 " transform="matrix(1,0,0,-1,-67.2,264.4)"/>
<path style="fill:none;stroke-width:0.8;stroke-linecap:butt;stroke-linejoin:round;stroke:rgb(0%,78.399658%,32.499695%);stroke-opacity:1;stroke-miterlimit:10;" d="M 405.7 236.001562 C 405.7 238.65 403.551562 240.798437 400.899219 240.798437 C 398.250781 240.798437 396.098437 238.65 396.098437 236.001562 C 396.098437 233.349219 398.250781 231.200781 400.899219 231.200781 C 403.551562 231.200781 405.7 233.349219 405.7 236.001562 " transform="matrix(1,0,0,-1,-67.2,264.4)"/>
<path style="fill:none;stroke-width:0.8;stroke-linecap:butt;stroke-linejoin:round;stroke:rgb(0%,78.399658%,32.499695%);stroke-opacity:1;stroke-miterlimit:10;" d="M 398.399219 235.001562 L 399.899219 233.501562 L 402.899219 238.501562 " transform="matrix(1,0,0,-1,-67.2,264.4)"/>
<path style="fill:none;stroke-width:0.8;stroke-linecap:butt;stroke-linejoin:round;stroke:rgb(83.499146%,0%,0%);stroke-opacity:1;stroke-miterlimit:10;" d="M 405.7 216.001562 C 405.7 218.65 403.551562 220.798437 400.899219 220.798437 C 398.250781 220.798437 396.098437 218.65 396.098437 216.001562 C 396.098437 213.349219 398.250781 211.200781 400.899219 211.200781 C 403.551562 211.200781 405.7 213.349219 405.7 216.001562 " transform="matrix(1,0,0,-1,-67.2,264.4)"/>
<path style="fill:none;stroke-width:0.8;stroke-linecap:butt;stroke-linejoin:round;stroke:rgb(83.499146%,0%,0%);stroke-opacity:1;stroke-miterlimit:10;" d="M 398.899219 218.001562 L 402.899219 214.001562 " transform="matrix(1,0,0,-1,-67.2,264.4)"/>
<path style="fill:none;stroke-width:0.8;stroke-linecap:butt;stroke-linejoin:round;stroke:rgb(83.499146%,0%,0%);stroke-opacity:1;stroke-miterlimit:10;" d="M 398.899219 214.001562 L 402.899219 218.001562 " transform="matrix(1,0,0,-1,-67.2,264.4)"/>
<path style="fill:none;stroke-width:0.8;stroke-linecap:butt;stroke-linejoin:round;stroke:rgb(0%,78.399658%,32.499695%);stroke-opacity:1;stroke-miterlimit:10;" d="M 405.7 196.001562 C 405.7 198.65 403.551562 200.798437 400.899219 200.798437 C 398.250781 200.798437 396.098437 198.65 396.098437 196.001562 C 396.098437 193.349219 398.250781 191.200781 400.899219 191.200781 C 403.551562 191.200781 405.7 193.349219 405.7 196.001562 " transform="matrix(1,0,0,-1,-67.2,264.4)"/>
<path style="fill:none;stroke-width:0.8;stroke-linecap:butt;stroke-linejoin:round;stroke:rgb(0%,78.399658%,32.499695%);stroke-opacity:1;stroke-miterlimit:10;" d="M 398.399219 195.001562 L 399.899219 193.501562 L 402.899219 198.501562 " transform="matrix(1,0,0,-1,-67.2,264.4)"/>
<path style="fill:none;stroke-width:0.8;stroke-linecap:butt;stroke-linejoin:round;stroke:rgb(83.499146%,0%,0%);stroke-opacity:1;stroke-miterlimit:10;" d="M 405.7 176.001562 C 405.7 178.65 403.551562 180.798437 400.899219 180.798437 C 398.250781 180.798437 396.098437 178.65 396.098437 176.001562 C 396.098437 173.349219 398.250781 171.200781 400.899219 171.200781 C 403.551562 171.200781 405.7 173.349219 405.7 176.001562 " transform="matrix(1,0,0,-1,-67.2,264.4)"/>
<path style="fill:none;stroke-width:0.8;stroke-linecap:butt;stroke-linejoin:round;stroke:rgb(83.499146%,0%,0%);stroke-opacity:1;stroke-miterlimit:10;" d="M 398.899219 178.001562 L 402.899219 174.001562 " transform="matrix(1,0,0,-1,-67.2,264.4)"/>
<path style="fill:none;stroke-width:0.8;stroke-linecap:butt;stroke-linejoin:round;stroke:rgb(83.499146%,0%,0%);stroke-opacity:1;stroke-miterlimit:10;" d="M 398.899219 174.001562 L 402.899219 178.001562 " transform="matrix(1,0,0,-1,-67.2,264.4)"/>
<path style="fill:none;stroke-width:0.8;stroke-linecap:butt;stroke-linejoin:round;stroke:rgb(0%,78.399658%,32.499695%);stroke-opacity:1;stroke-miterlimit:10;" d="M 405.7 156.001562 C 405.7 158.65 403.551562 160.798437 400.899219 160.798437 C 398.250781 160.798437 396.098437 158.65 396.098437 156.001562 C 396.098437 153.349219 398.250781 151.200781 400.899219 151.200781 C 403.551562 151.200781 405.7 153.349219 405.7 156.001562 " transform="matrix(1,0,0,-1,-67.2,264.4)"/>
<path style="fill:none;stroke-width:0.8;stroke-linecap:butt;stroke-linejoin:round;stroke:rgb(0%,78.399658%,32.499695%);stroke-opacity:1;stroke-miterlimit:10;" d="M 398.399219 155.001562 L 399.899219 153.501562 L 402.899219 158.501562 " transform="matrix(1,0,0,-1,-67.2,264.4)"/>
<g clip-path="url(#clip5)" clip-rule="nonzero">
<path style="fill:none;stroke-width:0.8;stroke-linecap:butt;stroke-linejoin:round;stroke:rgb(0%,0%,0%);stroke-opacity:1;stroke-miterlimit:10;" d="M 352.899219 264.001562 L 352.899219 128.001562 " transform="matrix(1,0,0,-1,-67.2,264.4)"/>
</g>
<path style=" stroke:none;fill-rule:evenodd;fill:rgb(47.499084%,33.299255%,28.199768%);fill-opacity:1;" d="M 362.699219 8.398438 C 362.699219 4.535156 359.566406 1.398438 355.699219 1.398438 C 351.835938 1.398438 348.699219 4.535156 348.699219 8.398438 C 348.699219 12.265625 351.835938 15.398438 355.699219 15.398438 C 359.566406 15.398438 362.699219 12.265625 362.699219 8.398438 "/>
<path style=" stroke:none;fill-rule:evenodd;fill:rgb(47.499084%,33.299255%,28.199768%);fill-opacity:1;" d="M 362.699219 28.398438 C 362.699219 24.535156 359.566406 21.398438 355.699219 21.398438 C 351.835938 21.398438 348.699219 24.535156 348.699219 28.398438 C 348.699219 32.265625 351.835938 35.398438 355.699219 35.398438 C 359.566406 35.398438 362.699219 32.265625 362.699219 28.398438 "/>
<path style=" stroke:none;fill-rule:evenodd;fill:rgb(47.499084%,33.299255%,28.199768%);fill-opacity:1;" d="M 362.699219 48.398438 C 362.699219 44.535156 359.566406 41.398438 355.699219 41.398438 C 351.835938 41.398438 348.699219 44.535156 348.699219 48.398438 C 348.699219 52.265625 351.835938 55.398438 355.699219 55.398438 C 359.566406 55.398438 362.699219 52.265625 362.699219 48.398438 "/>
<path style=" stroke:none;fill-rule:evenodd;fill:rgb(47.499084%,33.299255%,28.199768%);fill-opacity:1;" d="M 362.699219 68.398438 C 362.699219 64.535156 359.566406 61.398438 355.699219 61.398438 C 351.835938 61.398438 348.699219 64.535156 348.699219 68.398438 C 348.699219 72.265625 351.835938 75.398438 355.699219 75.398438 C 359.566406 75.398438 362.699219 72.265625 362.699219 68.398438 "/>
<path style=" stroke:none;fill-rule:evenodd;fill:rgb(1.199341%,66.299438%,95.698547%);fill-opacity:1;" d="M 380.699219 8.398438 C 380.699219 4.535156 377.566406 1.398438 373.699219 1.398438 C 369.835938 1.398438 366.699219 4.535156 366.699219 8.398438 C 366.699219 12.265625 369.835938 15.398438 373.699219 15.398438 C 377.566406 15.398438 380.699219 12.265625 380.699219 8.398438 "/>
<path style=" stroke:none;fill-rule:evenodd;fill:rgb(47.499084%,33.299255%,28.199768%);fill-opacity:1;" d="M 362.699219 88.398438 C 362.699219 84.535156 359.566406 81.398438 355.699219 81.398438 C 351.835938 81.398438 348.699219 84.535156 348.699219 88.398438 C 348.699219 92.265625 351.835938 95.398438 355.699219 95.398438 C 359.566406 95.398438 362.699219 92.265625 362.699219 88.398438 "/>
<path style=" stroke:none;fill-rule:evenodd;fill:rgb(47.499084%,33.299255%,28.199768%);fill-opacity:1;" d="M 362.699219 108.398438 C 362.699219 104.535156 359.566406 101.398438 355.699219 101.398438 C 351.835938 101.398438 348.699219 104.535156 348.699219 108.398438 C 348.699219 112.265625 351.835938 115.398438 355.699219 115.398438 C 359.566406 115.398438 362.699219 112.265625 362.699219 108.398438 "/>
<path style=" stroke:none;fill-rule:evenodd;fill:rgb(47.499084%,33.299255%,28.199768%);fill-opacity:1;" d="M 362.699219 128.398438 C 362.699219 124.535156 359.566406 121.398438 355.699219 121.398438 C 351.835938 121.398438 348.699219 124.535156 348.699219 128.398438 C 348.699219 132.265625 351.835938 135.398438 355.699219 135.398438 C 359.566406 135.398438 362.699219 132.265625 362.699219 128.398438 "/>
<path style=" stroke:none;fill-rule:evenodd;fill:rgb(91.398621%,11.799622%,38.798523%);fill-opacity:1;" d="M 380.699219 28.398438 C 380.699219 24.535156 377.566406 21.398438 373.699219 21.398438 C 369.835938 21.398438 366.699219 24.535156 366.699219 28.398438 C 366.699219 32.265625 369.835938 35.398438 373.699219 35.398438 C 377.566406 35.398438 380.699219 32.265625 380.699219 28.398438 "/>
<path style=" stroke:none;fill-rule:evenodd;fill:rgb(80.39856%,86.299133%,22.399902%);fill-opacity:1;" d="M 380.699219 48.398438 C 380.699219 44.535156 377.566406 41.398438 373.699219 41.398438 C 369.835938 41.398438 366.699219 44.535156 366.699219 48.398438 C 366.699219 52.265625 369.835938 55.398438 373.699219 55.398438 C 377.566406 55.398438 380.699219 52.265625 380.699219 48.398438 "/>
<path style=" stroke:none;fill-rule:evenodd;fill:rgb(29.798889%,68.598938%,31.399536%);fill-opacity:1;" d="M 380.699219 68.398438 C 380.699219 64.535156 377.566406 61.398438 373.699219 61.398438 C 369.835938 61.398438 366.699219 64.535156 366.699219 68.398438 C 366.699219 72.265625 369.835938 75.398438 373.699219 75.398438 C 377.566406 75.398438 380.699219 72.265625 380.699219 68.398438 "/>
<path style=" stroke:none;fill-rule:evenodd;fill:rgb(100%,59.599304%,0%);fill-opacity:1;" d="M 380.699219 88.398438 C 380.699219 84.535156 377.566406 81.398438 373.699219 81.398438 C 369.835938 81.398438 366.699219 84.535156 366.699219 88.398438 C 366.699219 92.265625 369.835938 95.398438 373.699219 95.398438 C 377.566406 95.398438 380.699219 92.265625 380.699219 88.398438 "/>
<path style=" stroke:none;fill-rule:evenodd;fill:rgb(40.39917%,22.698975%,71.798706%);fill-opacity:1;" d="M 380.699219 108.398438 C 380.699219 104.535156 377.566406 101.398438 373.699219 101.398438 C 369.835938 101.398438 366.699219 104.535156 366.699219 108.398438 C 366.699219 112.265625 369.835938 115.398438 373.699219 115.398438 C 377.566406 115.398438 380.699219 112.265625 380.699219 108.398438 "/>
<path style=" stroke:none;fill-rule:evenodd;fill:rgb(47.499084%,33.299255%,28.199768%);fill-opacity:1;" d="M 380.699219 128.398438 C 380.699219 124.535156 377.566406 121.398438 373.699219 121.398438 C 369.835938 121.398438 366.699219 124.535156 366.699219 128.398438 C 366.699219 132.265625 369.835938 135.398438 373.699219 135.398438 C 377.566406 135.398438 380.699219 132.265625 380.699219 128.398438 "/>
<path style="fill:none;stroke-width:0.8;stroke-linecap:butt;stroke-linejoin:round;stroke:rgb(83.499146%,0%,0%);stroke-opacity:1;stroke-miterlimit:10;" d="M 463.7 256.001562 C 463.7 258.65 461.551562 260.798437 458.899219 260.798437 C 456.250781 260.798437 454.098437 258.65 454.098437 256.001562 C 454.098437 253.349219 456.250781 251.200781 458.899219 251.200781 C 461.551562 251.200781 463.7 253.349219 463.7 256.001562 " transform="matrix(1,0,0,-1,-67.2,264.4)"/>
<path style="fill:none;stroke-width:0.8;stroke-linecap:butt;stroke-linejoin:round;stroke:rgb(83.499146%,0%,0%);stroke-opacity:1;stroke-miterlimit:10;" d="M 456.899219 258.001562 L 460.899219 254.001562 " transform="matrix(1,0,0,-1,-67.2,264.4)"/>
<path style="fill:none;stroke-width:0.8;stroke-linecap:butt;stroke-linejoin:round;stroke:rgb(83.499146%,0%,0%);stroke-opacity:1;stroke-miterlimit:10;" d="M 456.899219 254.001562 L 460.899219 258.001562 " transform="matrix(1,0,0,-1,-67.2,264.4)"/>
<path style="fill:none;stroke-width:0.8;stroke-linecap:butt;stroke-linejoin:round;stroke:rgb(0%,78.399658%,32.499695%);stroke-opacity:1;stroke-miterlimit:10;" d="M 463.7 236.001562 C 463.7 238.65 461.551562 240.798437 458.899219 240.798437 C 456.250781 240.798437 454.098437 238.65 454.098437 236.001562 C 454.098437 233.349219 456.250781 231.200781 458.899219 231.200781 C 461.551562 231.200781 463.7 233.349219 463.7 236.001562 " transform="matrix(1,0,0,-1,-67.2,264.4)"/>
<path style="fill:none;stroke-width:0.8;stroke-linecap:butt;stroke-linejoin:round;stroke:rgb(0%,78.399658%,32.499695%);stroke-opacity:1;stroke-miterlimit:10;" d="M 456.399219 235.001562 L 457.899219 233.501562 L 460.899219 238.501562 " transform="matrix(1,0,0,-1,-67.2,264.4)"/>
<path style="fill:none;stroke-width:0.8;stroke-linecap:butt;stroke-linejoin:round;stroke:rgb(83.499146%,0%,0%);stroke-opacity:1;stroke-miterlimit:10;" d="M 463.7 216.001562 C 463.7 218.65 461.551562 220.798437 458.899219 220.798437 C 456.250781 220.798437 454.098437 218.65 454.098437 216.001562 C 454.098437 213.349219 456.250781 211.200781 458.899219 211.200781 C 461.551562 211.200781 463.7 213.349219 463.7 216.001562 " transform="matrix(1,0,0,-1,-67.2,264.4)"/>
<path style="fill:none;stroke-width:0.8;stroke-linecap:butt;stroke-linejoin:round;stroke:rgb(83.499146%,0%,0%);stroke-opacity:1;stroke-miterlimit:10;" d="M 456.899219 218.001562 L 460.899219 214.001562 " transform="matrix(1,0,0,-1,-67.2,264.4)"/>
<path style="fill:none;stroke-width:0.8;stroke-linecap:butt;stroke-linejoin:round;stroke:rgb(83.499146%,0%,0%);stroke-opacity:1;stroke-miterlimit:10;" d="M 456.899219 214.001562 L 460.899219 218.001562 " transform="matrix(1,0,0,-1,-67.2,264.4)"/>
<path style="fill:none;stroke-width:0.8;stroke-linecap:butt;stroke-linejoin:round;stroke:rgb(0%,78.399658%,32.499695%);stroke-opacity:1;stroke-miterlimit:10;" d="M 115.7 136.001562 C 115.7 138.65 113.551563 140.798437 110.899219 140.798437 C 108.250781 140.798437 106.098438 138.65 106.098438 136.001562 C 106.098438 133.349219 108.250781 131.200781 110.899219 131.200781 C 113.551563 131.200781 115.7 133.349219 115.7 136.001562 " transform="matrix(1,0,0,-1,-67.2,264.4)"/>
<path style="fill:none;stroke-width:0.8;stroke-linecap:butt;stroke-linejoin:round;stroke:rgb(0%,78.399658%,32.499695%);stroke-opacity:1;stroke-miterlimit:10;" d="M 108.399219 135.001562 L 109.899219 133.501562 L 112.899219 138.501562 " transform="matrix(1,0,0,-1,-67.2,264.4)"/>
<path style="fill:none;stroke-width:0.8;stroke-linecap:butt;stroke-linejoin:round;stroke:rgb(83.499146%,0%,0%);stroke-opacity:1;stroke-miterlimit:10;" d="M 463.7 176.001562 C 463.7 178.65 461.551562 180.798437 458.899219 180.798437 C 456.250781 180.798437 454.098437 178.65 454.098437 176.001562 C 454.098437 173.349219 456.250781 171.200781 458.899219 171.200781 C 461.551562 171.200781 463.7 173.349219 463.7 176.001562 " transform="matrix(1,0,0,-1,-67.2,264.4)"/>
<path style="fill:none;stroke-width:0.8;stroke-linecap:butt;stroke-linejoin:round;stroke:rgb(83.499146%,0%,0%);stroke-opacity:1;stroke-miterlimit:10;" d="M 456.899219 178.001562 L 460.899219 174.001562 " transform="matrix(1,0,0,-1,-67.2,264.4)"/>
<path style="fill:none;stroke-width:0.8;stroke-linecap:butt;stroke-linejoin:round;stroke:rgb(83.499146%,0%,0%);stroke-opacity:1;stroke-miterlimit:10;" d="M 456.899219 174.001562 L 460.899219 178.001562 " transform="matrix(1,0,0,-1,-67.2,264.4)"/>
<path style="fill:none;stroke-width:0.8;stroke-linecap:butt;stroke-linejoin:round;stroke:rgb(0%,78.399658%,32.499695%);stroke-opacity:1;stroke-miterlimit:10;" d="M 463.7 156.001562 C 463.7 158.65 461.551562 160.798437 458.899219 160.798437 C 456.250781 160.798437 454.098437 158.65 454.098437 156.001562 C 454.098437 153.349219 456.250781 151.200781 458.899219 151.200781 C 461.551562 151.200781 463.7 153.349219 463.7 156.001562 " transform="matrix(1,0,0,-1,-67.2,264.4)"/>
<path style="fill:none;stroke-width:0.8;stroke-linecap:butt;stroke-linejoin:round;stroke:rgb(0%,78.399658%,32.499695%);stroke-opacity:1;stroke-miterlimit:10;" d="M 456.399219 155.001562 L 457.899219 153.501562 L 460.899219 158.501562 " transform="matrix(1,0,0,-1,-67.2,264.4)"/>
<g clip-path="url(#clip6)" clip-rule="nonzero">
<path style="fill:none;stroke-width:0.8;stroke-linecap:butt;stroke-linejoin:round;stroke:rgb(0%,0%,0%);stroke-opacity:1;stroke-miterlimit:10;" d="M 410.899219 264.001562 L 410.899219 128.001562 " transform="matrix(1,0,0,-1,-67.2,264.4)"/>
</g>
<path style="fill:none;stroke-width:0.8;stroke-linecap:butt;stroke-linejoin:round;stroke:rgb(0%,78.399658%,32.499695%);stroke-opacity:1;stroke-miterlimit:10;" d="M 289.7 136.001562 C 289.7 138.65 287.551562 140.798437 284.899219 140.798437 C 282.250781 140.798437 280.098437 138.65 280.098437 136.001562 C 280.098437 133.349219 282.250781 131.200781 284.899219 131.200781 C 287.551562 131.200781 289.7 133.349219 289.7 136.001562 " transform="matrix(1,0,0,-1,-67.2,264.4)"/>
<path style="fill:none;stroke-width:0.8;stroke-linecap:butt;stroke-linejoin:round;stroke:rgb(0%,78.399658%,32.499695%);stroke-opacity:1;stroke-miterlimit:10;" d="M 282.399219 135.001562 L 283.899219 133.501562 L 286.899219 138.501562 " transform="matrix(1,0,0,-1,-67.2,264.4)"/>
<path style="fill:none;stroke-width:0.8;stroke-linecap:butt;stroke-linejoin:round;stroke:rgb(0%,78.399658%,32.499695%);stroke-opacity:1;stroke-miterlimit:10;" d="M 347.7 156.001562 C 347.7 158.65 345.551562 160.798437 342.899219 160.798437 C 340.250781 160.798437 338.098437 158.65 338.098437 156.001562 C 338.098437 153.349219 340.250781 151.200781 342.899219 151.200781 C 345.551562 151.200781 347.7 153.349219 347.7 156.001562 " transform="matrix(1,0,0,-1,-67.2,264.4)"/>
<path style="fill:none;stroke-width:0.8;stroke-linecap:butt;stroke-linejoin:round;stroke:rgb(0%,78.399658%,32.499695%);stroke-opacity:1;stroke-miterlimit:10;" d="M 340.399219 155.001562 L 341.899219 153.501562 L 344.899219 158.501562 " transform="matrix(1,0,0,-1,-67.2,264.4)"/>
<path style="fill:none;stroke-width:0.8;stroke-linecap:butt;stroke-linejoin:round;stroke:rgb(0%,78.399658%,32.499695%);stroke-opacity:1;stroke-miterlimit:10;" d="M 289.7 216.001562 C 289.7 218.65 287.551562 220.798437 284.899219 220.798437 C 282.250781 220.798437 280.098437 218.65 280.098437 216.001562 C 280.098437 213.349219 282.250781 211.200781 284.899219 211.200781 C 287.551562 211.200781 289.7 213.349219 289.7 216.001562 " transform="matrix(1,0,0,-1,-67.2,264.4)"/>
<path style="fill:none;stroke-width:0.8;stroke-linecap:butt;stroke-linejoin:round;stroke:rgb(0%,78.399658%,32.499695%);stroke-opacity:1;stroke-miterlimit:10;" d="M 282.399219 215.001562 L 283.899219 213.501562 L 286.899219 218.501562 " transform="matrix(1,0,0,-1,-67.2,264.4)"/>
<path style="fill:none;stroke-width:0.8;stroke-linecap:butt;stroke-linejoin:round;stroke:rgb(0%,78.399658%,32.499695%);stroke-opacity:1;stroke-miterlimit:10;" d="M 463.7 136.001562 C 463.7 138.65 461.551562 140.798437 458.899219 140.798437 C 456.250781 140.798437 454.098437 138.65 454.098437 136.001562 C 454.098437 133.349219 456.250781 131.200781 458.899219 131.200781 C 461.551562 131.200781 463.7 133.349219 463.7 136.001562 " transform="matrix(1,0,0,-1,-67.2,264.4)"/>
<path style="fill:none;stroke-width:0.8;stroke-linecap:butt;stroke-linejoin:round;stroke:rgb(0%,78.399658%,32.499695%);stroke-opacity:1;stroke-miterlimit:10;" d="M 456.399219 135.001562 L 457.899219 133.501562 L 460.899219 138.501562 " transform="matrix(1,0,0,-1,-67.2,264.4)"/>
</g>
</svg>
