<?xml version="1.0" encoding="UTF-8"?>
<svg xmlns="http://www.w3.org/2000/svg" xmlns:xlink="http://www.w3.org/1999/xlink" width="341pt" height="327pt" viewBox="0 0 341 327" version="1.1">
<g id="surface20382">
<path style=" stroke:none;fill-rule:evenodd;fill:rgb(0%,75.7%,65.1%);fill-opacity:0.3;" d="M 291 291 C 324.300781 221.117188 340.738281 144.394531 339 67 C 282.863281 26.902344 215.96875 4.605469 147 3 C 217.921875 85.71875 267.378906 184.632812 291 291 Z M 291 291 "/>
<path style=" stroke:none;fill-rule:evenodd;fill:rgb(34.9%,86.7%,26.3%);fill-opacity:0.3;" d="M 83 323 C 153.855469 328.105469 224.953125 317.164062 291 291 C 267.378906 184.632812 217.921875 85.71875 147 3 C 146.382812 112.785156 124.65625 221.425781 83 323 Z M 83 323 "/>
<path style=" stroke:none;fill-rule:evenodd;fill:rgb(100%,82.7%,26.3%);fill-opacity:0.3;" d="M 3 147 C 56.328125 104.640625 104.640625 56.328125 147 3 C 146.382812 112.785156 124.65625 221.425781 83 323 C 64.941406 260.789062 37.996094 201.511719 3 147 Z M 3 147 "/>
<path style="fill:none;stroke-width:3;stroke-linecap:butt;stroke-linejoin:round;stroke:rgb(0%,75.7%,65.1%);stroke-opacity:1;stroke-miterlimit:10;" d="M 348.824219 125.316406 C 342.363281 128.144531 335.152344 128.757812 328.3125 127.0625 " transform="matrix(1,0,0,-1,-45,387)"/>
<path style="fill:none;stroke-width:3;stroke-linecap:butt;stroke-linejoin:round;stroke:rgb(0%,75.7%,65.1%);stroke-opacity:1;stroke-miterlimit:10;" d="M 357.125 337.367188 C 350.792969 327.574219 350.292969 315.109375 355.820312 304.839844 C 361.347656 294.566406 372.023438 288.117188 383.683594 288 " transform="matrix(1,0,0,-1,-45,387)"/>
<path style="fill:none;stroke-width:3;stroke-linecap:butt;stroke-linejoin:round;stroke:rgb(0%,75.7%,65.1%);stroke-opacity:1;stroke-miterlimit:10;" d="M 212.238281 359.210938 C 219.078125 364.796875 223.304688 372.960938 223.921875 381.769531 " transform="matrix(1,0,0,-1,-45,387)"/>
<path style="fill:none;stroke-width:3;stroke-linecap:butt;stroke-linejoin:round;stroke:rgb(34.9%,86.7%,26.3%);stroke-opacity:1;stroke-miterlimit:10;" d="M 155.976562 62.816406 C 156.480469 74.765625 149.339844 85.71875 138.199219 90.078125 " transform="matrix(1,0,0,-1,-45,387)"/>
<path style="fill:none;stroke-width:3;stroke-linecap:butt;stroke-linejoin:round;stroke:rgb(34.9%,86.7%,26.3%);stroke-opacity:1;stroke-miterlimit:10;" d="M 329.355469 123.199219 C 321.632812 121.3125 315.074219 116.230469 311.320312 109.222656 C 307.5625 102.214844 306.964844 93.9375 309.675781 86.464844 " transform="matrix(1,0,0,-1,-45,387)"/>
<path style="fill:none;stroke-width:3;stroke-linecap:butt;stroke-linejoin:round;stroke:rgb(34.9%,86.7%,26.3%);stroke-opacity:1;stroke-miterlimit:10;" d="M 191.386719 356.007812 C 198.078125 355.859375 204.601562 358.113281 209.773438 362.363281 " transform="matrix(1,0,0,-1,-45,387)"/>
<path style="fill:none;stroke-width:3;stroke-linecap:butt;stroke-linejoin:round;stroke:rgb(100%,82.7%,26.3%);stroke-opacity:1;stroke-miterlimit:10;" d="M 60.601562 219.574219 C 66.488281 223.207031 70.519531 229.199219 71.667969 236.019531 C 72.816406 242.839844 70.964844 249.820312 66.589844 255.179688 " transform="matrix(1,0,0,-1,-45,387)"/>
<path style="fill:none;stroke-width:3;stroke-linecap:butt;stroke-linejoin:round;stroke:rgb(100%,82.7%,26.3%);stroke-opacity:1;stroke-miterlimit:10;" d="M 136.792969 86.332031 C 131.71875 88.328125 126.109375 88.539062 120.898438 86.925781 " transform="matrix(1,0,0,-1,-45,387)"/>
<path style="fill:none;stroke-width:3;stroke-linecap:butt;stroke-linejoin:round;stroke:rgb(100%,82.7%,26.3%);stroke-opacity:1;stroke-miterlimit:10;" d="M 176.820312 365.410156 C 180.980469 362.011719 186.160156 360.109375 191.527344 360.003906 " transform="matrix(1,0,0,-1,-45,387)"/>
<path style="fill:none;stroke-width:4;stroke-linecap:round;stroke-linejoin:round;stroke:rgb(0%,0%,0%);stroke-opacity:1;stroke-miterlimit:10;" d="M 48 240 C 101.328125 282.359375 149.640625 330.671875 192 384 " transform="matrix(1,0,0,-1,-45,387)"/>
<path style="fill:none;stroke-width:4;stroke-linecap:round;stroke-linejoin:round;stroke:rgb(0%,0%,0%);stroke-opacity:1;stroke-miterlimit:10;" d="M 48 240 C 82.996094 185.488281 109.941406 126.210938 128 64 " transform="matrix(1,0,0,-1,-45,387)"/>
<path style="fill:none;stroke-width:4;stroke-linecap:round;stroke-linejoin:round;stroke:rgb(0%,0%,0%);stroke-opacity:1;stroke-miterlimit:10;" d="M 128 64 C 198.855469 58.894531 269.953125 69.835938 336 96 " transform="matrix(1,0,0,-1,-45,387)"/>
<path style="fill:none;stroke-width:4;stroke-linecap:round;stroke-linejoin:round;stroke:rgb(0%,0%,0%);stroke-opacity:1;stroke-miterlimit:10;" d="M 336 96 C 369.300781 165.882812 385.738281 242.605469 384 320 " transform="matrix(1,0,0,-1,-45,387)"/>
<path style="fill:none;stroke-width:2;stroke-linecap:butt;stroke-linejoin:round;stroke:rgb(0%,0%,0%);stroke-opacity:1;stroke-miterlimit:10;" d="M 192 384 C 191.382812 274.214844 169.65625 165.574219 128 64 " transform="matrix(1,0,0,-1,-45,387)"/>
<path style="fill:none;stroke-width:2;stroke-linecap:butt;stroke-linejoin:round;stroke:rgb(0%,0%,0%);stroke-opacity:1;stroke-miterlimit:10;" d="M 192 384 C 262.921875 301.28125 312.378906 202.367188 336 96 " transform="matrix(1,0,0,-1,-45,387)"/>
<path style="fill:none;stroke-width:4;stroke-linecap:round;stroke-linejoin:round;stroke:rgb(0%,0%,0%);stroke-opacity:1;stroke-miterlimit:10;" d="M 192 384 C 260.96875 382.394531 327.863281 360.097656 384 320 " transform="matrix(1,0,0,-1,-45,387)"/>
</g>
</svg>
