<?xml version="1.0" encoding="UTF-8"?>
<svg xmlns="http://www.w3.org/2000/svg" xmlns:xlink="http://www.w3.org/1999/xlink" width="65pt" height="65pt" viewBox="0 0 65 65" version="1.1">
<g id="surface148346">
<path style=" stroke:none;fill-rule:evenodd;fill:rgb(72.5%,39.2%,24.3%);fill-opacity:1;" d="M 38.9375 48.527344 L 39.203125 41.316406 L 36.726562 32.863281 L 34.246094 32.238281 L 25.179688 31.007812 L 28.816406 28.898438 L 37.480469 30.015625 L 34.246094 32.238281 L 36.726562 32.863281 L 39.203125 41.316406 L 38.9375 48.527344 L 54.730469 37.046875 L 55.398438 30.113281 L 46.449219 18.179688 L 42.335938 17.273438 L 26.800781 15.472656 L 25.167969 15.699219 L 8.601562 24.054688 L 9.21875 30.785156 L 13.785156 44.671875 Z M 38.9375 48.527344 "/>
<path style="fill:none;stroke-width:0.8;stroke-linecap:round;stroke-linejoin:round;stroke:rgb(0%,0%,0%);stroke-opacity:1;stroke-miterlimit:10;" d="M 233.21875 417.214844 L 232.601562 423.945312 " transform="matrix(1,0,0,-1,-224,448)"/>
<path style="fill:none;stroke-width:0.8;stroke-linecap:round;stroke-linejoin:round;stroke:rgb(0%,0%,0%);stroke-opacity:1;stroke-miterlimit:10;" d="M 232.601562 423.945312 L 239.15625 426.589844 " transform="matrix(1,0,0,-1,-224,448)"/>
<path style="fill:none;stroke-width:0.8;stroke-linecap:round;stroke-linejoin:round;stroke:rgb(0%,0%,0%);stroke-opacity:1;stroke-miterlimit:10;" d="M 239.15625 426.589844 L 246.21875 422.179688 " transform="matrix(1,0,0,-1,-224,448)"/>
<path style="fill:none;stroke-width:0.8;stroke-linecap:round;stroke-linejoin:round;stroke:rgb(0%,0%,0%);stroke-opacity:1;stroke-miterlimit:10;" d="M 249.167969 432.300781 L 250.800781 432.527344 " transform="matrix(1,0,0,-1,-224,448)"/>
<path style="fill:none;stroke-width:0.8;stroke-linecap:round;stroke-linejoin:round;stroke:rgb(0%,0%,0%);stroke-opacity:1;stroke-miterlimit:10;" d="M 250.800781 432.527344 L 252.726562 425.742188 " transform="matrix(1,0,0,-1,-224,448)"/>
<path style="fill:none;stroke-width:0.8;stroke-linecap:round;stroke-linejoin:round;stroke:rgb(0%,0%,0%);stroke-opacity:1;stroke-miterlimit:10;" d="M 252.726562 425.742188 L 252.816406 419.101562 " transform="matrix(1,0,0,-1,-224,448)"/>
<path style="fill:none;stroke-width:0.8;stroke-linecap:round;stroke-linejoin:round;stroke:rgb(0%,0%,0%);stroke-opacity:1;stroke-miterlimit:10;" d="M 270.449219 429.820312 L 266.335938 430.726562 " transform="matrix(1,0,0,-1,-224,448)"/>
<path style="fill:none;stroke-width:0.8;stroke-linecap:round;stroke-linejoin:round;stroke:rgb(0%,0%,0%);stroke-opacity:1;stroke-miterlimit:10;" d="M 266.335938 430.726562 L 261.648438 424.648438 " transform="matrix(1,0,0,-1,-224,448)"/>
<path style="fill:none;stroke-width:0.8;stroke-linecap:round;stroke-linejoin:round;stroke:rgb(0%,0%,0%);stroke-opacity:1;stroke-miterlimit:10;" d="M 261.648438 424.648438 L 261.480469 417.984375 " transform="matrix(1,0,0,-1,-224,448)"/>
<path style="fill:none;stroke-width:0.8;stroke-linecap:round;stroke-linejoin:round;stroke:rgb(0%,0%,0%);stroke-opacity:1;stroke-miterlimit:10;" d="M 264.699219 419.792969 L 272.242188 422.417969 " transform="matrix(1,0,0,-1,-224,448)"/>
<path style="fill:none;stroke-width:0.8;stroke-linecap:round;stroke-linejoin:round;stroke:rgb(0%,0%,0%);stroke-opacity:1;stroke-miterlimit:10;" d="M 272.242188 422.417969 L 279.398438 417.886719 " transform="matrix(1,0,0,-1,-224,448)"/>
<path style="fill:none;stroke-width:0.8;stroke-linecap:round;stroke-linejoin:round;stroke:rgb(0%,0%,0%);stroke-opacity:1;stroke-miterlimit:10;" d="M 279.398438 417.886719 L 278.730469 410.953125 " transform="matrix(1,0,0,-1,-224,448)"/>
<path style="fill:none;stroke-width:0.8;stroke-linecap:round;stroke-linejoin:round;stroke:rgb(0%,0%,0%);stroke-opacity:1;stroke-miterlimit:10;" d="M 258.246094 415.761719 L 260.726562 415.136719 " transform="matrix(1,0,0,-1,-224,448)"/>
<path style="fill:none;stroke-width:0.8;stroke-linecap:round;stroke-linejoin:round;stroke:rgb(0%,0%,0%);stroke-opacity:1;stroke-miterlimit:10;" d="M 260.726562 415.136719 L 263.203125 406.683594 " transform="matrix(1,0,0,-1,-224,448)"/>
<path style="fill:none;stroke-width:0.8;stroke-linecap:round;stroke-linejoin:round;stroke:rgb(0%,0%,0%);stroke-opacity:1;stroke-miterlimit:10;" d="M 263.203125 406.683594 L 262.9375 399.472656 " transform="matrix(1,0,0,-1,-224,448)"/>
<path style="fill:none;stroke-width:0.8;stroke-linecap:round;stroke-linejoin:round;stroke:rgb(0%,0%,0%);stroke-opacity:1;stroke-miterlimit:10;" d="M 248.585938 417.070312 L 242.898438 417.550781 " transform="matrix(1,0,0,-1,-224,448)"/>
<path style="fill:none;stroke-width:0.8;stroke-linecap:round;stroke-linejoin:round;stroke:rgb(0%,0%,0%);stroke-opacity:1;stroke-miterlimit:10;" d="M 242.898438 417.550781 L 237.261719 410.484375 " transform="matrix(1,0,0,-1,-224,448)"/>
<path style="fill:none;stroke-width:0.8;stroke-linecap:round;stroke-linejoin:round;stroke:rgb(0%,0%,0%);stroke-opacity:1;stroke-miterlimit:10;" d="M 237.261719 410.484375 L 237.785156 403.328125 " transform="matrix(1,0,0,-1,-224,448)"/>
<path style="fill:none;stroke-width:0.8;stroke-linecap:round;stroke-linejoin:round;stroke:rgb(0%,0%,0%);stroke-opacity:1;stroke-miterlimit:10;" d="M 258.246094 415.761719 L 248.585938 417.070312 " transform="matrix(1,0,0,-1,-224,448)"/>
<path style="fill:none;stroke-width:0.8;stroke-linecap:round;stroke-linejoin:round;stroke:rgb(0%,0%,0%);stroke-opacity:1;stroke-miterlimit:10;" d="M 248.585938 417.070312 L 246.21875 422.179688 " transform="matrix(1,0,0,-1,-224,448)"/>
<path style="fill:none;stroke-width:0.8;stroke-linecap:round;stroke-linejoin:round;stroke:rgb(0%,0%,0%);stroke-opacity:1;stroke-miterlimit:10;" d="M 246.21875 422.179688 L 252.726562 425.742188 " transform="matrix(1,0,0,-1,-224,448)"/>
<path style="fill:none;stroke-width:0.8;stroke-linecap:round;stroke-linejoin:round;stroke:rgb(0%,0%,0%);stroke-opacity:1;stroke-miterlimit:10;" d="M 252.726562 425.742188 L 261.648438 424.648438 " transform="matrix(1,0,0,-1,-224,448)"/>
<path style="fill:none;stroke-width:0.8;stroke-linecap:round;stroke-linejoin:round;stroke:rgb(0%,0%,0%);stroke-opacity:1;stroke-miterlimit:10;" d="M 261.648438 424.648438 L 264.699219 419.792969 " transform="matrix(1,0,0,-1,-224,448)"/>
<path style="fill:none;stroke-width:0.8;stroke-linecap:round;stroke-linejoin:round;stroke:rgb(0%,0%,0%);stroke-opacity:1;stroke-miterlimit:10;" d="M 264.699219 419.792969 L 258.246094 415.761719 " transform="matrix(1,0,0,-1,-224,448)"/>
<path style="fill:none;stroke-width:0.8;stroke-linecap:round;stroke-linejoin:round;stroke:rgb(0%,0%,0%);stroke-opacity:1;stroke-miterlimit:10;" d="M 260.726562 415.136719 L 242.898438 417.550781 " transform="matrix(1,0,0,-1,-224,448)"/>
<path style="fill:none;stroke-width:0.8;stroke-linecap:round;stroke-linejoin:round;stroke:rgb(0%,0%,0%);stroke-opacity:1;stroke-miterlimit:10;" d="M 242.898438 417.550781 L 239.15625 426.589844 " transform="matrix(1,0,0,-1,-224,448)"/>
<path style="fill:none;stroke-width:0.8;stroke-linecap:round;stroke-linejoin:round;stroke:rgb(0%,0%,0%);stroke-opacity:1;stroke-miterlimit:10;" d="M 239.15625 426.589844 L 250.800781 432.527344 " transform="matrix(1,0,0,-1,-224,448)"/>
<path style="fill:none;stroke-width:0.8;stroke-linecap:round;stroke-linejoin:round;stroke:rgb(0%,0%,0%);stroke-opacity:1;stroke-miterlimit:10;" d="M 250.800781 432.527344 L 266.335938 430.726562 " transform="matrix(1,0,0,-1,-224,448)"/>
<path style="fill:none;stroke-width:0.8;stroke-linecap:round;stroke-linejoin:round;stroke:rgb(0%,0%,0%);stroke-opacity:1;stroke-miterlimit:10;" d="M 266.335938 430.726562 L 272.242188 422.417969 " transform="matrix(1,0,0,-1,-224,448)"/>
<path style="fill:none;stroke-width:0.8;stroke-linecap:round;stroke-linejoin:round;stroke:rgb(0%,0%,0%);stroke-opacity:1;stroke-miterlimit:10;" d="M 272.242188 422.417969 L 260.726562 415.136719 " transform="matrix(1,0,0,-1,-224,448)"/>
<path style="fill:none;stroke-width:0.8;stroke-linecap:round;stroke-linejoin:round;stroke:rgb(0%,0%,0%);stroke-opacity:1;stroke-miterlimit:10;" d="M 263.203125 406.683594 L 237.261719 410.484375 " transform="matrix(1,0,0,-1,-224,448)"/>
<path style="fill:none;stroke-width:0.8;stroke-linecap:round;stroke-linejoin:round;stroke:rgb(0%,0%,0%);stroke-opacity:1;stroke-miterlimit:10;" d="M 237.261719 410.484375 L 232.601562 423.945312 " transform="matrix(1,0,0,-1,-224,448)"/>
<path style="fill:none;stroke-width:0.8;stroke-linecap:round;stroke-linejoin:round;stroke:rgb(0%,0%,0%);stroke-opacity:1;stroke-miterlimit:10;" d="M 232.601562 423.945312 L 249.167969 432.300781 " transform="matrix(1,0,0,-1,-224,448)"/>
<path style="fill:none;stroke-width:0.8;stroke-linecap:round;stroke-linejoin:round;stroke:rgb(0%,0%,0%);stroke-opacity:1;stroke-miterlimit:10;" d="M 270.449219 429.820312 L 279.398438 417.886719 " transform="matrix(1,0,0,-1,-224,448)"/>
<path style="fill:none;stroke-width:0.8;stroke-linecap:round;stroke-linejoin:round;stroke:rgb(0%,0%,0%);stroke-opacity:1;stroke-miterlimit:10;" d="M 279.398438 417.886719 L 263.203125 406.683594 " transform="matrix(1,0,0,-1,-224,448)"/>
<path style="fill:none;stroke-width:0.8;stroke-linecap:round;stroke-linejoin:round;stroke:rgb(0%,0%,0%);stroke-opacity:1;stroke-miterlimit:10;" d="M 278.730469 410.953125 L 262.9375 399.472656 " transform="matrix(1,0,0,-1,-224,448)"/>
<path style="fill:none;stroke-width:0.8;stroke-linecap:round;stroke-linejoin:round;stroke:rgb(0%,0%,0%);stroke-opacity:1;stroke-miterlimit:10;" d="M 262.9375 399.472656 L 237.785156 403.328125 " transform="matrix(1,0,0,-1,-224,448)"/>
<path style="fill:none;stroke-width:0.8;stroke-linecap:round;stroke-linejoin:round;stroke:rgb(0%,0%,0%);stroke-opacity:1;stroke-miterlimit:10;" d="M 237.785156 403.328125 L 233.21875 417.214844 " transform="matrix(1,0,0,-1,-224,448)"/>
<path style="fill:none;stroke-width:0.8;stroke-linecap:round;stroke-linejoin:round;stroke:rgb(0%,0%,0%);stroke-opacity:1;stroke-miterlimit:10;" d="M 261.480469 417.984375 L 252.816406 419.101562 " transform="matrix(1,0,0,-1,-224,448)"/>
<path style="fill:none;stroke-width:0.8;stroke-linecap:round;stroke-linejoin:round;stroke:rgb(0%,0%,0%);stroke-opacity:1;stroke-miterlimit:10;" d="M 249.179688 416.992188 L 252.816406 419.101562 " transform="matrix(1,0,0,-1,-224,448)"/>
</g>
</svg>
