<?xml version="1.0" encoding="UTF-8"?>
<svg xmlns="http://www.w3.org/2000/svg" xmlns:xlink="http://www.w3.org/1999/xlink" width="65pt" height="65pt" viewBox="0 0 65 65" version="1.1">
<g id="surface156460">
<path style=" stroke:none;fill-rule:evenodd;fill:rgb(72.5%,39.2%,24.3%);fill-opacity:1;" d="M 8.050781 22.203125 L 25.46875 35.265625 L 55.949219 30.910156 L 38.53125 17.847656 Z M 8.050781 22.203125 "/>
<path style=" stroke:none;fill-rule:evenodd;fill:rgb(89.4%,54.9%,40.4%);fill-opacity:1;" d="M 34.175781 23.652344 L 34.175781 28.835938 L 39.984375 28.007812 Z M 34.175781 23.652344 "/>
<path style=" stroke:none;fill-rule:evenodd;fill:rgb(58%,31.4%,18%);fill-opacity:1;" d="M 34.175781 28.835938 L 29.824219 29.460938 L 24.015625 25.105469 L 34.175781 23.652344 Z M 34.175781 28.835938 "/>
<path style=" stroke:none;fill-rule:evenodd;fill:rgb(89.4%,54.9%,40.4%);fill-opacity:1;" d="M 8.050781 22.203125 L 8.050781 33.089844 L 25.46875 46.152344 L 25.46875 35.265625 Z M 8.050781 22.203125 "/>
<path style=" stroke:none;fill-rule:evenodd;fill:rgb(58%,31.4%,18%);fill-opacity:1;" d="M 25.46875 35.265625 L 55.949219 30.910156 L 55.949219 41.796875 L 25.46875 46.152344 Z M 25.46875 35.265625 "/>
<path style="fill:none;stroke-width:0.8;stroke-linecap:round;stroke-linejoin:round;stroke:rgb(0%,0%,0%);stroke-opacity:1;stroke-miterlimit:10;" d="M 163.660156 417.089844 L 163.660156 406.203125 " transform="matrix(1,0,0,-1,-144,448)"/>
<path style="fill:none;stroke-width:0.8;stroke-linecap:round;stroke-linejoin:round;stroke:rgb(0%,0%,0%);stroke-opacity:1;stroke-miterlimit:10;" d="M 163.660156 406.203125 L 169.46875 401.847656 " transform="matrix(1,0,0,-1,-144,448)"/>
<path style="fill:none;stroke-width:0.8;stroke-linecap:round;stroke-linejoin:round;stroke:rgb(0%,0%,0%);stroke-opacity:1;stroke-miterlimit:10;" d="M 169.46875 401.847656 L 179.628906 403.300781 " transform="matrix(1,0,0,-1,-144,448)"/>
<path style="fill:none;stroke-width:0.8;stroke-linecap:round;stroke-linejoin:round;stroke:rgb(0%,0%,0%);stroke-opacity:1;stroke-miterlimit:10;" d="M 179.628906 403.300781 L 179.628906 414.1875 " transform="matrix(1,0,0,-1,-144,448)"/>
<path style="fill:none;stroke-width:0.8;stroke-linecap:round;stroke-linejoin:round;stroke:rgb(0%,0%,0%);stroke-opacity:1;stroke-miterlimit:10;" d="M 179.628906 414.1875 L 169.46875 412.734375 " transform="matrix(1,0,0,-1,-144,448)"/>
<path style="fill:none;stroke-width:0.8;stroke-linecap:round;stroke-linejoin:round;stroke:rgb(0%,0%,0%);stroke-opacity:1;stroke-miterlimit:10;" d="M 169.46875 412.734375 L 169.46875 401.847656 " transform="matrix(1,0,0,-1,-144,448)"/>
<path style="fill:none;stroke-width:0.8;stroke-linecap:round;stroke-linejoin:round;stroke:rgb(0%,0%,0%);stroke-opacity:1;stroke-miterlimit:10;" d="M 169.46875 412.734375 L 163.660156 417.089844 " transform="matrix(1,0,0,-1,-144,448)"/>
<path style="fill:none;stroke-width:0.8;stroke-linecap:round;stroke-linejoin:round;stroke:rgb(0%,0%,0%);stroke-opacity:1;stroke-miterlimit:10;" d="M 163.660156 417.089844 L 173.824219 418.539062 " transform="matrix(1,0,0,-1,-144,448)"/>
<path style="fill:none;stroke-width:0.8;stroke-linecap:round;stroke-linejoin:round;stroke:rgb(0%,0%,0%);stroke-opacity:1;stroke-miterlimit:10;" d="M 173.824219 418.539062 L 179.628906 414.1875 " transform="matrix(1,0,0,-1,-144,448)"/>
<path style="fill:none;stroke-width:0.8;stroke-linecap:round;stroke-linejoin:round;stroke:rgb(0%,0%,0%);stroke-opacity:1;stroke-miterlimit:10;" d="M 163.660156 417.089844 L 157.855469 421.441406 " transform="matrix(1,0,0,-1,-144,448)"/>
<path style="fill:none;stroke-width:0.8;stroke-linecap:round;stroke-linejoin:round;stroke:rgb(0%,0%,0%);stroke-opacity:1;stroke-miterlimit:10;" d="M 157.855469 421.441406 L 152.050781 425.796875 " transform="matrix(1,0,0,-1,-144,448)"/>
<path style="fill:none;stroke-width:0.8;stroke-linecap:round;stroke-linejoin:round;stroke:rgb(0%,0%,0%);stroke-opacity:1;stroke-miterlimit:10;" d="M 157.855469 421.441406 L 157.855469 410.558594 " transform="matrix(1,0,0,-1,-144,448)"/>
<path style="fill:none;stroke-width:0.8;stroke-linecap:round;stroke-linejoin:round;stroke:rgb(0%,0%,0%);stroke-opacity:1;stroke-miterlimit:10;" d="M 152.050781 425.796875 L 152.050781 414.910156 " transform="matrix(1,0,0,-1,-144,448)"/>
<path style="fill:none;stroke-width:0.8;stroke-linecap:round;stroke-linejoin:round;stroke:rgb(0%,0%,0%);stroke-opacity:1;stroke-miterlimit:10;" d="M 157.855469 410.558594 L 163.660156 406.203125 " transform="matrix(1,0,0,-1,-144,448)"/>
<path style="fill:none;stroke-width:0.8;stroke-linecap:round;stroke-linejoin:round;stroke:rgb(0%,0%,0%);stroke-opacity:1;stroke-miterlimit:10;" d="M 152.050781 414.910156 L 157.855469 410.558594 " transform="matrix(1,0,0,-1,-144,448)"/>
<path style="fill:none;stroke-width:0.8;stroke-linecap:round;stroke-linejoin:round;stroke:rgb(0%,0%,0%);stroke-opacity:1;stroke-miterlimit:10;" d="M 157.855469 421.441406 L 168.015625 422.894531 " transform="matrix(1,0,0,-1,-144,448)"/>
<path style="fill:none;stroke-width:0.8;stroke-linecap:round;stroke-linejoin:round;stroke:rgb(0%,0%,0%);stroke-opacity:1;stroke-miterlimit:10;" d="M 152.050781 425.796875 L 162.210938 427.25 " transform="matrix(1,0,0,-1,-144,448)"/>
<path style="fill:none;stroke-width:0.8;stroke-linecap:round;stroke-linejoin:round;stroke:rgb(0%,0%,0%);stroke-opacity:1;stroke-miterlimit:10;" d="M 162.210938 427.25 L 172.371094 428.699219 " transform="matrix(1,0,0,-1,-144,448)"/>
<path style="fill:none;stroke-width:0.8;stroke-linecap:round;stroke-linejoin:round;stroke:rgb(0%,0%,0%);stroke-opacity:1;stroke-miterlimit:10;" d="M 172.371094 428.699219 L 182.53125 430.152344 " transform="matrix(1,0,0,-1,-144,448)"/>
<path style="fill:none;stroke-width:0.8;stroke-linecap:round;stroke-linejoin:round;stroke:rgb(0%,0%,0%);stroke-opacity:1;stroke-miterlimit:10;" d="M 168.015625 422.894531 L 178.175781 424.347656 " transform="matrix(1,0,0,-1,-144,448)"/>
<path style="fill:none;stroke-width:0.8;stroke-linecap:round;stroke-linejoin:round;stroke:rgb(0%,0%,0%);stroke-opacity:1;stroke-miterlimit:10;" d="M 178.175781 424.347656 L 188.339844 425.796875 " transform="matrix(1,0,0,-1,-144,448)"/>
<path style="fill:none;stroke-width:0.8;stroke-linecap:round;stroke-linejoin:round;stroke:rgb(0%,0%,0%);stroke-opacity:1;stroke-miterlimit:10;" d="M 173.824219 418.539062 L 183.984375 419.992188 " transform="matrix(1,0,0,-1,-144,448)"/>
<path style="fill:none;stroke-width:0.8;stroke-linecap:round;stroke-linejoin:round;stroke:rgb(0%,0%,0%);stroke-opacity:1;stroke-miterlimit:10;" d="M 183.984375 419.992188 L 194.144531 421.441406 " transform="matrix(1,0,0,-1,-144,448)"/>
<path style="fill:none;stroke-width:0.8;stroke-linecap:round;stroke-linejoin:round;stroke:rgb(0%,0%,0%);stroke-opacity:1;stroke-miterlimit:10;" d="M 179.628906 414.1875 L 189.789062 415.636719 " transform="matrix(1,0,0,-1,-144,448)"/>
<path style="fill:none;stroke-width:0.8;stroke-linecap:round;stroke-linejoin:round;stroke:rgb(0%,0%,0%);stroke-opacity:1;stroke-miterlimit:10;" d="M 189.789062 415.636719 L 199.949219 417.089844 " transform="matrix(1,0,0,-1,-144,448)"/>
<path style="fill:none;stroke-width:0.8;stroke-linecap:round;stroke-linejoin:round;stroke:rgb(0%,0%,0%);stroke-opacity:1;stroke-miterlimit:10;" d="M 168.015625 422.894531 L 173.824219 418.539062 " transform="matrix(1,0,0,-1,-144,448)"/>
<path style="fill:none;stroke-width:0.8;stroke-linecap:round;stroke-linejoin:round;stroke:rgb(0%,0%,0%);stroke-opacity:1;stroke-miterlimit:10;" d="M 162.210938 427.25 L 168.015625 422.894531 " transform="matrix(1,0,0,-1,-144,448)"/>
<path style="fill:none;stroke-width:0.8;stroke-linecap:round;stroke-linejoin:round;stroke:rgb(0%,0%,0%);stroke-opacity:1;stroke-miterlimit:10;" d="M 172.371094 428.699219 L 178.175781 424.347656 " transform="matrix(1,0,0,-1,-144,448)"/>
<path style="fill:none;stroke-width:0.8;stroke-linecap:round;stroke-linejoin:round;stroke:rgb(0%,0%,0%);stroke-opacity:1;stroke-miterlimit:10;" d="M 182.53125 430.152344 L 188.339844 425.796875 " transform="matrix(1,0,0,-1,-144,448)"/>
<path style="fill:none;stroke-width:0.8;stroke-linecap:round;stroke-linejoin:round;stroke:rgb(0%,0%,0%);stroke-opacity:1;stroke-miterlimit:10;" d="M 188.339844 425.796875 L 194.144531 421.445312 " transform="matrix(1,0,0,-1,-144,448)"/>
<path style="fill:none;stroke-width:0.8;stroke-linecap:round;stroke-linejoin:round;stroke:rgb(0%,0%,0%);stroke-opacity:1;stroke-miterlimit:10;" d="M 178.175781 424.347656 L 183.984375 419.992188 " transform="matrix(1,0,0,-1,-144,448)"/>
<path style="fill:none;stroke-width:0.8;stroke-linecap:round;stroke-linejoin:round;stroke:rgb(0%,0%,0%);stroke-opacity:1;stroke-miterlimit:10;" d="M 183.984375 419.992188 L 189.789062 415.636719 " transform="matrix(1,0,0,-1,-144,448)"/>
<path style="fill:none;stroke-width:0.8;stroke-linecap:round;stroke-linejoin:round;stroke:rgb(0%,0%,0%);stroke-opacity:1;stroke-miterlimit:10;" d="M 194.144531 421.441406 L 199.949219 417.089844 " transform="matrix(1,0,0,-1,-144,448)"/>
<path style="fill:none;stroke-width:0.8;stroke-linecap:round;stroke-linejoin:round;stroke:rgb(0%,0%,0%);stroke-opacity:1;stroke-miterlimit:10;" d="M 189.789062 404.75 L 189.789062 415.636719 " transform="matrix(1,0,0,-1,-144,448)"/>
<path style="fill:none;stroke-width:0.8;stroke-linecap:round;stroke-linejoin:round;stroke:rgb(0%,0%,0%);stroke-opacity:1;stroke-miterlimit:10;" d="M 199.949219 406.203125 L 199.949219 417.089844 " transform="matrix(1,0,0,-1,-144,448)"/>
<path style="fill:none;stroke-width:0.8;stroke-linecap:round;stroke-linejoin:round;stroke:rgb(0%,0%,0%);stroke-opacity:1;stroke-miterlimit:10;" d="M 179.628906 403.300781 L 189.789062 404.75 " transform="matrix(1,0,0,-1,-144,448)"/>
<path style="fill:none;stroke-width:0.8;stroke-linecap:round;stroke-linejoin:round;stroke:rgb(0%,0%,0%);stroke-opacity:1;stroke-miterlimit:10;" d="M 189.789062 404.75 L 199.949219 406.203125 " transform="matrix(1,0,0,-1,-144,448)"/>
<path style="fill:none;stroke-width:0.8;stroke-linecap:round;stroke-linejoin:round;stroke:rgb(0%,0%,0%);stroke-opacity:1;stroke-miterlimit:10;" d="M 178.175781 419.164062 L 178.175781 424.347656 " transform="matrix(1,0,0,-1,-144,448)"/>
</g>
</svg>
