<?xml version="1.0" encoding="UTF-8"?>
<svg xmlns="http://www.w3.org/2000/svg" xmlns:xlink="http://www.w3.org/1999/xlink" width="466pt" height="322pt" viewBox="0 0 466 322" version="1.1">
<defs>
<clipPath id="clip1">
  <path d="M 79 1 L 387 1 L 387 246 L 79 246 Z M 79 1 "/>
</clipPath>
<clipPath id="clip2">
  <path d="M 1 1 L 465 1 L 465 203 L 1 203 Z M 1 1 "/>
</clipPath>
<clipPath id="clip3">
  <path d="M 1 119 L 465 119 L 465 321 L 1 321 Z M 1 119 "/>
</clipPath>
<clipPath id="clip4">
  <path d="M 79 76 L 387 76 L 387 321 L 79 321 Z M 79 76 "/>
</clipPath>
<clipPath id="clip5">
  <path d="M 1 160 L 465 160 L 465 162 L 1 162 Z M 1 160 "/>
</clipPath>
</defs>
<g id="surface1">
<path style="fill:none;stroke-width:3;stroke-linecap:butt;stroke-linejoin:round;stroke:rgb(0%,0%,0%);stroke-opacity:1;stroke-miterlimit:10;" d="M 448 448 C 448 483.347656 419.347656 512 384 512 C 348.652344 512 320 483.347656 320 448 C 320 412.652344 348.652344 384 384 384 C 419.347656 384 448 412.652344 448 448 " transform="matrix(1,0,0,-1,-31,609)"/>
<path style=" stroke:none;fill-rule:evenodd;fill:rgb(67.799377%,7.798767%,34.098816%);fill-opacity:1;" d="M 349.988281 100.988281 L 356.988281 93.988281 L 356.011719 93.011719 L 349.011719 100.011719 Z M 349.988281 100.988281 "/>
<path style=" stroke:none;fill-rule:evenodd;fill:rgb(67.799377%,7.798767%,34.098816%);fill-opacity:1;" d="M 349.988281 93.011719 L 356.988281 100.011719 L 356.011719 100.988281 L 349.011719 93.988281 Z M 349.988281 93.011719 "/>
<path style=" stroke:none;fill-rule:evenodd;fill:rgb(93.699646%,42.399597%,0%);fill-opacity:1;" d="M 381.988281 109.5625 L 388.988281 102.5625 L 388.011719 101.585938 L 381.011719 108.585938 Z M 381.988281 109.5625 "/>
<path style=" stroke:none;fill-rule:evenodd;fill:rgb(93.699646%,42.399597%,0%);fill-opacity:1;" d="M 381.988281 101.585938 L 388.988281 108.585938 L 388.011719 109.5625 L 381.011719 102.5625 Z M 381.988281 101.585938 "/>
<path style=" stroke:none;fill-rule:evenodd;fill:rgb(61.999512%,61.599731%,14.099121%);fill-opacity:1;" d="M 405.414062 132.988281 L 412.414062 125.988281 L 411.4375 125.011719 L 404.4375 132.011719 Z M 405.414062 132.988281 "/>
<path style=" stroke:none;fill-rule:evenodd;fill:rgb(61.999512%,61.599731%,14.099121%);fill-opacity:1;" d="M 405.414062 125.011719 L 412.414062 132.011719 L 411.4375 132.988281 L 404.4375 125.988281 Z M 405.414062 125.011719 "/>
<path style=" stroke:none;fill-rule:evenodd;fill:rgb(17.999268%,48.999023%,19.599915%);fill-opacity:1;" d="M 413.988281 164.988281 L 420.988281 157.988281 L 420.011719 157.011719 L 413.011719 164.011719 Z M 413.988281 164.988281 "/>
<path style=" stroke:none;fill-rule:evenodd;fill:rgb(17.999268%,48.999023%,19.599915%);fill-opacity:1;" d="M 413.988281 157.011719 L 420.988281 164.011719 L 420.011719 164.988281 L 413.011719 157.988281 Z M 413.988281 157.011719 "/>
<path style=" stroke:none;fill-rule:evenodd;fill:rgb(0.799561%,46.699524%,74.099731%);fill-opacity:1;" d="M 405.414062 196.988281 L 412.414062 189.988281 L 411.4375 189.011719 L 404.4375 196.011719 Z M 405.414062 196.988281 "/>
<path style=" stroke:none;fill-rule:evenodd;fill:rgb(0.799561%,46.699524%,74.099731%);fill-opacity:1;" d="M 405.414062 189.011719 L 412.414062 196.011719 L 411.4375 196.988281 L 404.4375 189.988281 Z M 405.414062 189.011719 "/>
<path style=" stroke:none;fill-rule:evenodd;fill:rgb(41.598511%,10.598755%,60.398865%);fill-opacity:1;" d="M 381.988281 220.414062 L 388.988281 213.414062 L 388.011719 212.4375 L 381.011719 219.4375 Z M 381.988281 220.414062 "/>
<path style=" stroke:none;fill-rule:evenodd;fill:rgb(41.598511%,10.598755%,60.398865%);fill-opacity:1;" d="M 381.988281 212.4375 L 388.988281 219.4375 L 388.011719 220.414062 L 381.011719 213.414062 Z M 381.988281 212.4375 "/>
<path style=" stroke:none;fill-rule:evenodd;fill:rgb(67.799377%,7.798767%,34.098816%);fill-opacity:1;" d="M 349.988281 228.988281 L 356.988281 221.988281 L 356.011719 221.011719 L 349.011719 228.011719 Z M 349.988281 228.988281 "/>
<path style=" stroke:none;fill-rule:evenodd;fill:rgb(67.799377%,7.798767%,34.098816%);fill-opacity:1;" d="M 349.988281 221.011719 L 356.988281 228.011719 L 356.011719 228.988281 L 349.011719 221.988281 Z M 349.988281 221.011719 "/>
<path style=" stroke:none;fill-rule:evenodd;fill:rgb(93.699646%,42.399597%,0%);fill-opacity:1;" d="M 317.988281 220.414062 L 324.988281 213.414062 L 324.011719 212.4375 L 317.011719 219.4375 Z M 317.988281 220.414062 "/>
<path style=" stroke:none;fill-rule:evenodd;fill:rgb(93.699646%,42.399597%,0%);fill-opacity:1;" d="M 317.988281 212.4375 L 324.988281 219.4375 L 324.011719 220.414062 L 317.011719 213.414062 Z M 317.988281 212.4375 "/>
<path style=" stroke:none;fill-rule:evenodd;fill:rgb(61.999512%,61.599731%,14.099121%);fill-opacity:1;" d="M 294.5625 196.988281 L 301.5625 189.988281 L 300.585938 189.011719 L 293.585938 196.011719 Z M 294.5625 196.988281 "/>
<path style=" stroke:none;fill-rule:evenodd;fill:rgb(61.999512%,61.599731%,14.099121%);fill-opacity:1;" d="M 294.5625 189.011719 L 301.5625 196.011719 L 300.585938 196.988281 L 293.585938 189.988281 Z M 294.5625 189.011719 "/>
<path style=" stroke:none;fill-rule:evenodd;fill:rgb(17.999268%,48.999023%,19.599915%);fill-opacity:1;" d="M 285.988281 164.988281 L 292.988281 157.988281 L 292.011719 157.011719 L 285.011719 164.011719 Z M 285.988281 164.988281 "/>
<path style=" stroke:none;fill-rule:evenodd;fill:rgb(17.999268%,48.999023%,19.599915%);fill-opacity:1;" d="M 285.988281 157.011719 L 292.988281 164.011719 L 292.011719 164.988281 L 285.011719 157.988281 Z M 285.988281 157.011719 "/>
<path style=" stroke:none;fill-rule:evenodd;fill:rgb(0.799561%,46.699524%,74.099731%);fill-opacity:1;" d="M 294.5625 132.988281 L 301.5625 125.988281 L 300.585938 125.011719 L 293.585938 132.011719 Z M 294.5625 132.988281 "/>
<path style=" stroke:none;fill-rule:evenodd;fill:rgb(0.799561%,46.699524%,74.099731%);fill-opacity:1;" d="M 294.5625 125.011719 L 301.5625 132.011719 L 300.585938 132.988281 L 293.585938 125.988281 Z M 294.5625 125.011719 "/>
<path style=" stroke:none;fill-rule:evenodd;fill:rgb(41.598511%,10.598755%,60.398865%);fill-opacity:1;" d="M 317.988281 109.5625 L 324.988281 102.5625 L 324.011719 101.585938 L 317.011719 108.585938 Z M 317.988281 109.5625 "/>
<path style=" stroke:none;fill-rule:evenodd;fill:rgb(41.598511%,10.598755%,60.398865%);fill-opacity:1;" d="M 317.988281 101.585938 L 324.988281 108.585938 L 324.011719 109.5625 L 317.011719 102.5625 Z M 317.988281 101.585938 "/>
<path style="fill:none;stroke-width:2;stroke-linecap:butt;stroke-linejoin:round;stroke:rgb(91.398621%,11.799622%,38.798523%);stroke-opacity:1;stroke-miterlimit:10;" d="M 400 448 C 400 523.109375 339.109375 584 264 584 C 188.890625 584 128 523.109375 128 448 C 128 372.890625 188.890625 312 264 312 C 339.109375 312 400 372.890625 400 448 " transform="matrix(1,0,0,-1,-31,609)"/>
<g clip-path="url(#clip1)" clip-rule="nonzero">
<path style="fill:none;stroke-width:2;stroke-linecap:butt;stroke-linejoin:round;stroke:rgb(100%,59.599304%,0%);stroke-opacity:1;stroke-miterlimit:10;" d="M 416.628906 517.28125 C 416.628906 601.578125 348.296875 669.910156 264 669.910156 C 179.703125 669.910156 111.371094 601.578125 111.371094 517.28125 C 111.371094 432.988281 179.703125 364.652344 264 364.652344 C 348.296875 364.652344 416.628906 432.988281 416.628906 517.28125 " transform="matrix(1,0,0,-1,-31,609)"/>
</g>
<g clip-path="url(#clip2)" clip-rule="nonzero">
<path style="fill:none;stroke-width:2;stroke-linecap:butt;stroke-linejoin:round;stroke:rgb(80.39856%,86.299133%,22.399902%);stroke-opacity:1;stroke-miterlimit:10;" d="M 512.386719 655.847656 C 512.386719 793.027344 401.179688 904.234375 264 904.234375 C 126.820312 904.234375 15.613281 793.027344 15.613281 655.847656 C 15.613281 518.664062 126.820312 407.460938 264 407.460938 C 401.179688 407.460938 512.386719 518.664062 512.386719 655.847656 " transform="matrix(1,0,0,-1,-31,609)"/>
</g>
<g clip-path="url(#clip3)" clip-rule="nonzero">
<path style="fill:none;stroke-width:2;stroke-linecap:butt;stroke-linejoin:round;stroke:rgb(1.199341%,66.299438%,95.698547%);stroke-opacity:1;stroke-miterlimit:10;" d="M 512.386719 240.152344 C 512.386719 377.335938 401.179688 488.539062 264 488.539062 C 126.820312 488.539062 15.613281 377.335938 15.613281 240.152344 C 15.613281 102.972656 126.820312 -8.234375 264 -8.234375 C 401.179688 -8.234375 512.386719 102.972656 512.386719 240.152344 " transform="matrix(1,0,0,-1,-31,609)"/>
</g>
<g clip-path="url(#clip4)" clip-rule="nonzero">
<path style="fill:none;stroke-width:2;stroke-linecap:butt;stroke-linejoin:round;stroke:rgb(61.199951%,15.299988%,68.998718%);stroke-opacity:1;stroke-miterlimit:10;" d="M 416.628906 378.71875 C 416.628906 463.011719 348.296875 531.347656 264 531.347656 C 179.703125 531.347656 111.371094 463.011719 111.371094 378.71875 C 111.371094 294.421875 179.703125 226.089844 264 226.089844 C 348.296875 226.089844 416.628906 294.421875 416.628906 378.71875 " transform="matrix(1,0,0,-1,-31,609)"/>
</g>
<g clip-path="url(#clip5)" clip-rule="nonzero">
<path style="fill:none;stroke-width:2;stroke-linecap:butt;stroke-linejoin:round;stroke:rgb(29.798889%,68.598938%,31.399536%);stroke-opacity:1;stroke-miterlimit:10;" d="M 16 448 L 512 448 " transform="matrix(1,0,0,-1,-31,609)"/>
</g>
<path style=" stroke:none;fill-rule:evenodd;fill:rgb(0%,0%,0%);fill-opacity:1;" d="M 101.199219 161 C 101.199219 158.679688 99.320312 156.800781 97 156.800781 C 94.679688 156.800781 92.800781 158.679688 92.800781 161 C 92.800781 163.320312 94.679688 165.199219 97 165.199219 C 99.320312 165.199219 101.199219 163.320312 101.199219 161 "/>
<path style=" stroke:none;fill-rule:evenodd;fill:rgb(0%,0%,0%);fill-opacity:1;" d="M 373.199219 161 C 373.199219 158.679688 371.320312 156.800781 369 156.800781 C 366.679688 156.800781 364.800781 158.679688 364.800781 161 C 364.800781 163.320312 366.679688 165.199219 369 165.199219 C 371.320312 165.199219 373.199219 163.320312 373.199219 161 "/>
</g>
</svg>
