<?xml version="1.0" encoding="UTF-8"?>
<svg xmlns="http://www.w3.org/2000/svg" xmlns:xlink="http://www.w3.org/1999/xlink" width="380.871pt" height="172.35pt" viewBox="0 0 380.871 172.35" version="1.1">
<defs>
<clipPath id="clip1">
  <path d="M 375 59 L 380.871094 59 L 380.871094 64 L 375 64 Z M 375 59 "/>
</clipPath>
</defs>
<g id="surface1">
<path style="fill:none;stroke-width:1.2;stroke-linecap:butt;stroke-linejoin:round;stroke:rgb(0%,0%,0%);stroke-opacity:1;stroke-miterlimit:10;" d="M 242.595313 576.001656 C 242.595313 603.943062 219.942969 626.595406 192.001563 626.595406 C 164.05625 626.595406 141.403906 603.943062 141.403906 576.001656 C 141.403906 548.056344 164.05625 525.404 192.001563 525.404 C 219.942969 525.404 242.595313 548.056344 242.595313 576.001656 " transform="matrix(1,0,0,-1,-108.9,696.654)"/>
<path style=" stroke:none;fill-rule:evenodd;fill:rgb(0%,0%,0%);fill-opacity:1;" d="M 5.5 40.652344 C 5.5 39.328125 4.425781 38.253906 3.101562 38.253906 C 1.773438 38.253906 0.699219 39.328125 0.699219 40.652344 C 0.699219 41.980469 1.773438 43.054688 3.101562 43.054688 C 4.425781 43.054688 5.5 41.980469 5.5 40.652344 "/>
<path style=" stroke:none;fill-rule:evenodd;fill:rgb(0%,0%,0%);fill-opacity:1;" d="M 140.171875 61.449219 C 140.171875 60.121094 139.097656 59.046875 137.769531 59.046875 C 136.445312 59.046875 135.371094 60.121094 135.371094 61.449219 C 135.371094 62.773438 136.445312 63.847656 137.769531 63.847656 C 139.097656 63.847656 140.171875 62.773438 140.171875 61.449219 "/>
<path style="fill:none;stroke-width:1.2;stroke-linecap:butt;stroke-linejoin:round;stroke:rgb(0%,0%,0%);stroke-opacity:1;stroke-miterlimit:10;" d="M 272.001562 610.478219 L 320.001562 610.478219 " transform="matrix(1,0,0,-1,-108.9,696.654)"/>
<path style="fill-rule:evenodd;fill:rgb(0%,0%,0%);fill-opacity:1;stroke-width:1.2;stroke-linecap:butt;stroke-linejoin:round;stroke:rgb(0%,0%,0%);stroke-opacity:1;stroke-miterlimit:10;" d="M 320.001562 610.478219 L 313.001562 612.81025 L 313.001562 608.146187 Z M 320.001562 610.478219 " transform="matrix(1,0,0,-1,-108.9,696.654)"/>
<path style="fill:none;stroke-width:1.2;stroke-linecap:butt;stroke-linejoin:round;stroke:rgb(0%,0%,0%);stroke-opacity:1;stroke-miterlimit:10;" d="M 482.595312 576.001656 C 482.595312 603.943062 459.942969 626.595406 432.001562 626.595406 C 404.05625 626.595406 381.403906 603.943062 381.403906 576.001656 C 381.403906 548.056344 404.05625 525.404 432.001562 525.404 C 459.942969 525.404 482.595312 548.056344 482.595312 576.001656 " transform="matrix(1,0,0,-1,-108.9,696.654)"/>
<path style=" stroke:none;fill-rule:evenodd;fill:rgb(0%,0%,0%);fill-opacity:1;" d="M 272.949219 139.503906 L 277.949219 134.503906 L 277.25 133.804688 L 272.25 138.804688 Z M 272.949219 139.503906 "/>
<path style=" stroke:none;fill-rule:evenodd;fill:rgb(0%,0%,0%);fill-opacity:1;" d="M 272.949219 133.804688 L 277.949219 138.804688 L 277.25 139.503906 L 272.25 134.503906 Z M 272.949219 133.804688 "/>
<path style=" stroke:none;fill-rule:evenodd;fill:rgb(0%,0%,0%);fill-opacity:1;" d="M 368.949219 107.503906 L 373.949219 102.503906 L 373.25 101.804688 L 368.25 106.804688 Z M 368.949219 107.503906 "/>
<path style=" stroke:none;fill-rule:evenodd;fill:rgb(0%,0%,0%);fill-opacity:1;" d="M 368.949219 101.804688 L 373.949219 106.804688 L 373.25 107.503906 L 368.25 102.503906 Z M 368.949219 101.804688 "/>
<path style=" stroke:none;fill-rule:evenodd;fill:rgb(0%,0%,0%);fill-opacity:1;" d="M 245.5 40.652344 C 245.5 39.328125 244.425781 38.253906 243.101562 38.253906 C 241.773438 38.253906 240.699219 39.328125 240.699219 40.652344 C 240.699219 41.980469 241.773438 43.054688 243.101562 43.054688 C 244.425781 43.054688 245.5 41.980469 245.5 40.652344 "/>
<path style="fill:none;stroke-width:1.2;stroke-linecap:butt;stroke-linejoin:round;stroke:rgb(0%,0%,0%);stroke-opacity:1;stroke-dasharray:4;stroke-miterlimit:10;" d="M 487.552344 624.001656 C 487.552344 663.517281 455.517187 695.552437 416.001562 695.552437 C 376.482031 695.552437 344.446875 663.517281 344.446875 624.001656 C 344.446875 584.482125 376.482031 552.446969 416.001562 552.446969 C 455.517187 552.446969 487.552344 584.482125 487.552344 624.001656 " transform="matrix(1,0,0,-1,-108.9,696.654)"/>
<g clip-path="url(#clip1)" clip-rule="nonzero">
<path style=" stroke:none;fill-rule:evenodd;fill:rgb(0%,0%,0%);fill-opacity:1;" d="M 380.171875 61.449219 C 380.171875 60.121094 379.097656 59.046875 377.769531 59.046875 C 376.445312 59.046875 375.371094 60.121094 375.371094 61.449219 C 375.371094 62.773438 376.445312 63.847656 377.769531 63.847656 C 379.097656 63.847656 380.171875 62.773438 380.171875 61.449219 "/>
</g>
</g>
</svg>
