<?xml version="1.0" encoding="UTF-8"?>
<svg xmlns="http://www.w3.org/2000/svg" xmlns:xlink="http://www.w3.org/1999/xlink" width="158pt" height="55pt" viewBox="0 0 158 55" version="1.1">
<g id="surface7812">
<path style="fill:none;stroke-width:2;stroke-linecap:butt;stroke-linejoin:round;stroke:rgb(100%,100%,100%);stroke-opacity:1;stroke-miterlimit:10;" d="M 62.429688 239.839844 C 62.429688 239.839844 62.429688 239.839844 62.957031 240.851562 C 63.488281 241.859375 64.546875 243.878906 66.277344 246.578125 C 68.007812 249.277344 70.402344 252.660156 72.578125 255.664062 C 74.753906 258.664062 76.703125 261.285156 77.679688 262.59375 C 78.65625 263.902344 78.65625 263.902344 78.65625 263.902344 C 78.65625 263.902344 78.65625 263.902344 79.636719 263.503906 C 80.621094 263.105469 82.589844 262.304688 85.933594 261.027344 C 89.277344 259.746094 94 257.992188 97.917969 256.371094 C 101.832031 254.75 104.945312 253.269531 106.5 252.53125 C 108.054688 251.789062 108.054688 251.789062 108.054688 251.789062 C 108.054688 251.789062 108.054688 251.789062 107.039062 250.496094 C 106.023438 249.207031 103.992188 246.621094 101.839844 243.78125 C 99.683594 240.9375 97.410156 237.835938 95.457031 235.058594 C 93.507812 232.277344 91.878906 229.824219 91.066406 228.59375 C 90.25 227.367188 90.25 227.367188 90.25 227.367188 C 90.25 227.367188 90.25 227.367188 89.117188 227.890625 C 87.984375 228.417969 85.71875 229.46875 82.519531 230.925781 C 79.316406 232.382812 75.175781 234.25 71.671875 235.804688 C 68.167969 237.355469 65.296875 238.597656 63.863281 239.21875 C 62.429688 239.839844 62.429688 239.839844 62.429688 239.839844 Z M 62.429688 239.839844 " transform="matrix(1,0,0,-1,-60,266)"/>
<path style="fill:none;stroke-width:2;stroke-linecap:butt;stroke-linejoin:round;stroke:rgb(100%,100%,100%);stroke-opacity:1;stroke-miterlimit:10;" d="M 111.046875 250.292969 C 111.046875 250.292969 111.046875 250.292969 110.128906 249.132812 C 109.214844 247.972656 107.382812 245.652344 105.230469 242.808594 C 103.074219 239.964844 100.597656 236.601562 98.546875 233.695312 C 96.496094 230.785156 94.867188 228.328125 94.054688 227.101562 C 93.242188 225.871094 93.242188 225.871094 93.242188 225.871094 C 93.242188 225.871094 93.242188 225.871094 94.3125 225.371094 C 95.382812 224.867188 97.519531 223.863281 100.65625 222.375 C 103.792969 220.882812 107.929688 218.910156 111.496094 217.195312 C 115.058594 215.480469 118.058594 214.027344 119.566406 213.292969 C 121.074219 212.5625 121.097656 212.550781 121.105469 212.546875 C 121.117188 212.542969 121.117188 212.542969 121.734375 213.46875 C 122.347656 214.398438 123.578125 216.257812 125.742188 219.457031 C 127.90625 222.652344 131 227.191406 133.214844 230.359375 C 135.429688 233.53125 136.765625 235.332031 137.433594 236.230469 C 138.105469 237.132812 138.105469 237.132812 138.105469 237.132812 C 138.105469 237.132812 138.105469 237.132812 136.945312 237.746094 C 135.785156 238.363281 133.46875 239.59375 130.175781 241.265625 C 126.882812 242.9375 122.617188 245.050781 119.265625 246.628906 C 115.917969 248.207031 113.480469 249.25 112.265625 249.773438 C 111.046875 250.292969 111.046875 250.292969 111.046875 250.292969 Z M 111.046875 250.292969 " transform="matrix(1,0,0,-1,-60,266)"/>
<path style="fill:none;stroke-width:2;stroke-linecap:butt;stroke-linejoin:round;stroke:rgb(100%,100%,100%);stroke-opacity:1;stroke-miterlimit:10;" d="M 216.722656 237.878906 C 216.722656 237.878906 216.722656 237.878906 215.5625 238.492188 C 214.402344 239.109375 212.085938 240.339844 208.792969 242.011719 C 205.5 243.683594 201.234375 245.796875 197.886719 247.375 C 194.535156 248.953125 192.101562 249.996094 189.328125 251.257812 C 186.554688 252.523438 183.441406 254.003906 179.527344 255.625 C 175.609375 257.242188 170.886719 259 167.542969 260.277344 C 164.195312 261.554688 162.230469 262.355469 161.246094 262.757812 C 160.265625 263.15625 160.265625 263.15625 160.265625 263.15625 C 160.265625 263.15625 160.265625 263.15625 159.289062 261.847656 C 158.3125 260.535156 156.363281 257.914062 154.1875 254.914062 C 152.011719 251.914062 149.617188 248.53125 147.886719 245.832031 C 146.15625 243.128906 145.097656 241.113281 144.566406 240.101562 C 144.035156 239.09375 144.035156 239.09375 144.035156 239.09375 C 144.035156 239.09375 144.035156 239.09375 145.472656 238.472656 C 146.90625 237.851562 149.773438 236.609375 152.941406 235.203125 C 156.109375 233.800781 159.574219 232.234375 162.777344 230.777344 C 165.980469 229.320312 168.917969 227.96875 172.023438 226.523438 C 175.125 225.074219 178.390625 223.53125 181.53125 222.042969 C 184.667969 220.550781 187.675781 219.117188 190.675781 217.671875 C 193.679688 216.226562 196.675781 214.773438 198.175781 214.046875 C 199.671875 213.316406 199.671875 213.316406 199.671875 213.316406 C 199.671875 213.316406 199.671875 213.316406 200.300781 214.242188 C 200.925781 215.167969 202.175781 217.015625 204.351562 220.207031 C 206.523438 223.398438 209.617188 227.9375 211.832031 231.109375 C 214.046875 234.277344 215.386719 236.078125 216.054688 236.976562 C 216.722656 237.878906 216.722656 237.878906 216.722656 237.878906 Z M 216.722656 237.878906 " transform="matrix(1,0,0,-1,-60,266)"/>
<path style="fill:none;stroke-width:2;stroke-linecap:butt;stroke-linejoin:round;stroke:rgb(100%,100%,100%);stroke-opacity:1;stroke-dasharray:4;stroke-miterlimit:10;" d="M 189.664062 251.039062 L 186.660156 247.207031 L 183.566406 243.292969 L 180.015625 238.410156 L 176.742188 233.988281 L 171.859375 226.617188 " transform="matrix(1,0,0,-1,-60,266)"/>
<path style="fill:none;stroke-width:1.2;stroke-linecap:butt;stroke-linejoin:round;stroke:rgb(100%,100%,100%);stroke-opacity:1;stroke-miterlimit:10;" d="M 70.894531 239.976562 C 74.449219 238.394531 81.558594 235.226562 85.109375 233.644531 C 88.664062 232.0625 88.664062 232.0625 90.90625 235.167969 C 93.144531 238.273438 97.625 244.488281 99.867188 247.59375 C 102.105469 250.699219 102.105469 250.699219 98.433594 252.164062 C 94.757812 253.628906 87.410156 256.554688 83.738281 258.019531 C 80.0625 259.480469 80.0625 259.480469 77.941406 256.496094 C 75.820312 253.507812 71.582031 247.535156 69.460938 244.546875 C 67.339844 241.558594 67.339844 241.558594 70.894531 239.976562 Z M 70.894531 239.976562 " transform="matrix(1,0,0,-1,-60,266)"/>
<path style="fill:none;stroke-width:1.2;stroke-linecap:butt;stroke-linejoin:round;stroke:rgb(100%,100%,100%);stroke-opacity:1;stroke-miterlimit:10;" d="M 101.925781 225.582031 C 105.511719 223.9375 112.679688 220.652344 116.265625 219.007812 C 119.847656 217.367188 119.847656 217.367188 121.96875 220.503906 C 124.089844 223.636719 128.332031 229.910156 130.453125 233.046875 C 132.574219 236.183594 132.574219 236.183594 129.199219 237.796875 C 125.824219 239.410156 119.074219 242.636719 115.699219 244.25 C 112.320312 245.863281 112.320312 245.863281 109.992188 242.753906 C 107.664062 239.648438 103.003906 233.4375 100.671875 230.328125 C 98.34375 227.222656 98.34375 227.222656 101.925781 225.582031 Z M 101.925781 225.582031 " transform="matrix(1,0,0,-1,-60,266)"/>
<path style="fill:none;stroke-width:1.2;stroke-linecap:butt;stroke-linejoin:miter;stroke:rgb(100%,100%,100%);stroke-opacity:1;stroke-miterlimit:10;" d="M 75.519531 253.082031 L 73.71875 250.546875 " transform="matrix(1,0,0,-1,-60,266)"/>
<path style="fill-rule:evenodd;fill:rgb(100%,100%,100%);fill-opacity:1;stroke-width:1.2;stroke-linecap:butt;stroke-linejoin:miter;stroke:rgb(100%,100%,100%);stroke-opacity:1;stroke-miterlimit:10;" d="M 73.71875 250.546875 L 76.269531 252.414062 L 74.640625 253.574219 Z M 73.71875 250.546875 " transform="matrix(1,0,0,-1,-60,266)"/>
<path style="fill:none;stroke-width:1.2;stroke-linecap:butt;stroke-linejoin:miter;stroke:rgb(100%,100%,100%);stroke-opacity:1;stroke-miterlimit:10;" d="M 95.125 241.019531 L 96.960938 243.5625 " transform="matrix(1,0,0,-1,-60,266)"/>
<path style="fill-rule:evenodd;fill:rgb(100%,100%,100%);fill-opacity:1;stroke-width:1.2;stroke-linecap:butt;stroke-linejoin:miter;stroke:rgb(100%,100%,100%);stroke-opacity:1;stroke-miterlimit:10;" d="M 96.960938 243.5625 L 94.394531 241.714844 L 96.015625 240.546875 Z M 96.960938 243.5625 " transform="matrix(1,0,0,-1,-60,266)"/>
<path style="fill:none;stroke-width:1.2;stroke-linecap:butt;stroke-linejoin:miter;stroke:rgb(100%,100%,100%);stroke-opacity:1;stroke-miterlimit:10;" d="M 106.851562 238.566406 L 105.0625 236.183594 " transform="matrix(1,0,0,-1,-60,266)"/>
<path style="fill-rule:evenodd;fill:rgb(100%,100%,100%);fill-opacity:1;stroke-width:1.2;stroke-linecap:butt;stroke-linejoin:miter;stroke:rgb(100%,100%,100%);stroke-opacity:1;stroke-miterlimit:10;" d="M 105.0625 236.183594 L 107.660156 237.984375 L 106.0625 239.179688 Z M 105.0625 236.183594 " transform="matrix(1,0,0,-1,-60,266)"/>
<path style="fill:none;stroke-width:1.2;stroke-linecap:butt;stroke-linejoin:miter;stroke:rgb(100%,100%,100%);stroke-opacity:1;stroke-miterlimit:10;" d="M 125.433594 225.625 L 126.949219 227.867188 " transform="matrix(1,0,0,-1,-60,266)"/>
<path style="fill-rule:evenodd;fill:rgb(100%,100%,100%);fill-opacity:1;stroke-width:1.2;stroke-linecap:butt;stroke-linejoin:miter;stroke:rgb(100%,100%,100%);stroke-opacity:1;stroke-miterlimit:10;" d="M 126.949219 227.867188 L 124.441406 225.941406 L 126.097656 224.820312 Z M 126.949219 227.867188 " transform="matrix(1,0,0,-1,-60,266)"/>
<path style="fill:none;stroke-width:1.2;stroke-linecap:butt;stroke-linejoin:round;stroke:rgb(100%,100%,100%);stroke-opacity:1;stroke-miterlimit:10;" d="M 152.386719 238.585938 C 156.628906 236.722656 165.121094 232.996094 173.5 229.089844 C 181.878906 225.183594 190.140625 221.097656 194.273438 219.058594 C 198.402344 217.015625 198.402344 217.015625 200.71875 220.355469 C 203.035156 223.695312 207.664062 230.378906 209.980469 233.71875 C 212.296875 237.058594 212.296875 237.058594 208.273438 239.066406 C 204.25 241.078125 196.203125 245.097656 187.683594 248.84375 C 179.164062 252.589844 170.171875 256.066406 165.675781 257.800781 C 161.183594 259.539062 161.183594 259.539062 159.007812 256.359375 C 156.835938 253.175781 152.488281 246.8125 150.3125 243.632812 C 148.140625 240.449219 148.140625 240.449219 152.386719 238.585938 Z M 152.386719 238.585938 " transform="matrix(1,0,0,-1,-60,266)"/>
<path style="fill:none;stroke-width:1.2;stroke-linecap:butt;stroke-linejoin:miter;stroke:rgb(100%,100%,100%);stroke-opacity:1;stroke-miterlimit:10;" d="M 155.585938 251.347656 L 154.414062 249.636719 " transform="matrix(1,0,0,-1,-60,266)"/>
<path style="fill-rule:evenodd;fill:rgb(100%,100%,100%);fill-opacity:1;stroke-width:1.2;stroke-linecap:butt;stroke-linejoin:miter;stroke:rgb(100%,100%,100%);stroke-opacity:1;stroke-miterlimit:10;" d="M 154.414062 249.636719 L 156.933594 251.550781 L 155.28125 252.675781 Z M 154.414062 249.636719 " transform="matrix(1,0,0,-1,-60,266)"/>
<path style="fill:none;stroke-width:1.2;stroke-linecap:butt;stroke-linejoin:miter;stroke:rgb(100%,100%,100%);stroke-opacity:1;stroke-miterlimit:10;" d="M 203.851562 224.878906 L 205.609375 227.410156 " transform="matrix(1,0,0,-1,-60,266)"/>
<path style="fill-rule:evenodd;fill:rgb(100%,100%,100%);fill-opacity:1;stroke-width:1.2;stroke-linecap:butt;stroke-linejoin:miter;stroke:rgb(100%,100%,100%);stroke-opacity:1;stroke-miterlimit:10;" d="M 205.609375 227.410156 L 203.078125 225.515625 L 204.722656 224.375 Z M 205.609375 227.410156 " transform="matrix(1,0,0,-1,-60,266)"/>
</g>
</svg>
