<?xml version="1.0" encoding="UTF-8"?>
<svg xmlns="http://www.w3.org/2000/svg" xmlns:xlink="http://www.w3.org/1999/xlink" width="420pt" height="196pt" viewBox="0 0 420 196" version="1.1">
<g id="surface7364">
<path style="fill:none;stroke-width:0.8;stroke-linecap:butt;stroke-linejoin:round;stroke:rgb(100%,100%,100%);stroke-opacity:1;stroke-miterlimit:10;" d="M 128 160 L 98.269531 186.839844 " transform="matrix(1,0,0,-1,-30,258)"/>
<path style="fill:none;stroke-width:0.8;stroke-linecap:butt;stroke-linejoin:round;stroke:rgb(100%,100%,100%);stroke-opacity:1;stroke-miterlimit:10;" d="M 128 160 L 112.28125 206.261719 " transform="matrix(1,0,0,-1,-30,258)"/>
<path style="fill:none;stroke-width:0.8;stroke-linecap:butt;stroke-linejoin:round;stroke:rgb(100%,100%,100%);stroke-opacity:1;stroke-miterlimit:10;" d="M 128 160 L 74.988281 184.273438 " transform="matrix(1,0,0,-1,-30,258)"/>
<path style="fill:none;stroke-width:2;stroke-linecap:butt;stroke-linejoin:round;stroke:rgb(100%,100%,100%);stroke-opacity:1;stroke-miterlimit:10;" d="M 224 160 C 224 213.019531 181.019531 256 128 256 C 74.980469 256 32 213.019531 32 160 C 32 106.980469 74.980469 64 128 64 C 181.019531 64 224 106.980469 224 160 Z M 224 160 " transform="matrix(1,0,0,-1,-30,258)"/>
<path style="fill:none;stroke-width:2;stroke-linecap:butt;stroke-linejoin:round;stroke:rgb(12.9%,58.8%,95.3%);stroke-opacity:1;stroke-miterlimit:10;" d="M 83.335938 218.667969 C 77.335938 216.667969 72.667969 212.332031 70.503906 204.5 C 68.335938 196.667969 68.667969 185.335938 77.835938 183.167969 C 87.003906 181 105.003906 188 110.835938 195.667969 C 116.667969 203.332031 110.335938 211.667969 103.503906 216 C 96.667969 220.332031 89.335938 220.667969 83.335938 218.667969 Z M 83.335938 218.667969 " transform="matrix(1,0,0,-1,-30,258)"/>
<path style="fill:none;stroke-width:2;stroke-linecap:butt;stroke-linejoin:round;stroke:rgb(12.9%,58.8%,95.3%);stroke-opacity:1;stroke-miterlimit:10;" d="M 70.769531 189.128906 C 70.769531 189.128906 70.769531 189.128906 71.210938 188.507812 C 71.652344 187.886719 72.535156 186.640625 73.535156 185.699219 C 74.535156 184.757812 75.648438 184.117188 76.96875 183.679688 C 78.292969 183.242188 79.824219 183.003906 81.472656 182.964844 C 83.121094 182.921875 84.886719 183.074219 86.710938 183.378906 C 88.535156 183.683594 90.417969 184.136719 92.351562 184.742188 C 94.289062 185.34375 96.277344 186.089844 97.273438 186.464844 C 98.269531 186.839844 98.269531 186.839844 98.269531 186.839844 " transform="matrix(1,0,0,-1,-30,258)"/>
<path style="fill-rule:evenodd;fill:rgb(12.9%,58.8%,95.3%);fill-opacity:1;stroke-width:2;stroke-linecap:butt;stroke-linejoin:round;stroke:rgb(12.9%,58.8%,95.3%);stroke-opacity:1;stroke-miterlimit:10;" d="M 98.269531 186.839844 L 90.898438 186.558594 L 92.539062 182.195312 Z M 98.269531 186.839844 " transform="matrix(1,0,0,-1,-30,258)"/>
<path style="fill:none;stroke-width:0.8;stroke-linecap:butt;stroke-linejoin:round;stroke:rgb(100%,100%,100%);stroke-opacity:1;stroke-miterlimit:10;" d="M 128 160 L 154.078125 100.898438 " transform="matrix(1,0,0,-1,-30,258)"/>
<path style="fill:none;stroke-width:0.8;stroke-linecap:butt;stroke-linejoin:round;stroke:rgb(100%,100%,100%);stroke-opacity:1;stroke-miterlimit:10;" d="M 128 160 L 173.078125 196.898438 " transform="matrix(1,0,0,-1,-30,258)"/>
<path style="fill:none;stroke-width:2;stroke-linecap:butt;stroke-linejoin:round;stroke:rgb(12.9%,58.8%,95.3%);stroke-opacity:1;stroke-miterlimit:10;" d="M 154.078125 100.898438 C 154.078125 100.898438 154.078125 100.898438 154.078125 104.734375 C 154.078125 108.566406 154.078125 116.234375 156.242188 122.566406 C 158.410156 128.898438 162.742188 133.898438 167.578125 140.066406 C 172.410156 146.230469 177.742188 153.566406 179.910156 160.730469 C 182.078125 167.898438 181.078125 174.898438 179.410156 180.898438 C 177.742188 186.898438 175.410156 191.898438 174.242188 194.398438 C 173.078125 196.898438 173.078125 196.898438 173.078125 196.898438 " transform="matrix(1,0,0,-1,-30,258)"/>
<path style="fill-rule:evenodd;fill:rgb(12.9%,58.8%,95.3%);fill-opacity:1;stroke-width:2;stroke-linecap:butt;stroke-linejoin:round;stroke:rgb(12.9%,58.8%,95.3%);stroke-opacity:1;stroke-miterlimit:10;" d="M 173.078125 196.898438 L 173.925781 189.570312 L 178.148438 191.542969 Z M 173.078125 196.898438 " transform="matrix(1,0,0,-1,-30,258)"/>
<path style="fill:none;stroke-width:2;stroke-linecap:butt;stroke-linejoin:round;stroke:rgb(29.8%,68.6%,31.4%);stroke-opacity:1;stroke-miterlimit:10;" d="M 134.9375 144.277344 C 139.847656 146.445312 143.464844 150.785156 144.714844 156.003906 C 145.960938 161.226562 144.699219 166.730469 141.296875 170.886719 " transform="matrix(1,0,0,-1,-30,258)"/>
<path style=" stroke:none;fill-rule:evenodd;fill:rgb(38%,38%,38%);fill-opacity:1;" d="M 99.5 98 C 99.5 96 96.5 96 96.5 98 C 96.5 100 99.5 100 99.5 98 Z M 99.5 98 "/>
<path style=" stroke:none;fill-rule:evenodd;fill:rgb(100%,100%,100%);fill-opacity:1;" d="M 99.800781 98 C 99.800781 95.601562 96.199219 95.601562 96.199219 98 C 96.199219 100.398438 99.800781 100.398438 99.800781 98 Z M 99.199219 98 C 99.199219 96.398438 96.800781 96.398438 96.800781 98 C 96.800781 99.601562 99.199219 99.601562 99.199219 98 Z M 99.199219 98 "/>
<path style=" stroke:none;fill-rule:evenodd;fill:rgb(38%,38%,38%);fill-opacity:1;" d="M 99.5 98 C 99.5 96 96.5 96 96.5 98 C 96.5 100 99.5 100 99.5 98 Z M 99.5 98 "/>
<path style=" stroke:none;fill-rule:evenodd;fill:rgb(100%,100%,100%);fill-opacity:1;" d="M 99.800781 98 C 99.800781 95.601562 96.199219 95.601562 96.199219 98 C 96.199219 100.398438 99.800781 100.398438 99.800781 98 Z M 99.199219 98 C 99.199219 96.398438 96.800781 96.398438 96.800781 98 C 96.800781 99.601562 99.199219 99.601562 99.199219 98 Z M 99.199219 98 "/>
<path style="fill:none;stroke-width:2;stroke-linecap:butt;stroke-linejoin:round;stroke:rgb(100%,100%,100%);stroke-opacity:1;stroke-miterlimit:10;" d="M 448 160 C 448 213.019531 405.019531 256 352 256 C 298.980469 256 256 213.019531 256 160 C 256 106.980469 298.980469 64 352 64 C 405.019531 64 448 106.980469 448 160 Z M 448 160 " transform="matrix(1,0,0,-1,-30,258)"/>
<path style="fill:none;stroke-width:2;stroke-linecap:butt;stroke-linejoin:round;stroke:rgb(12.9%,58.8%,95.3%);stroke-opacity:1;stroke-miterlimit:10;" d="M 298.242188 179.398438 C 292.410156 161.234375 295.742188 137.566406 312.074219 123.066406 C 328.40625 108.566406 357.742188 103.234375 381.667969 116.1875 C 405.59375 129.144531 424.117188 160.386719 419.785156 174.886719 C 415.449219 189.386719 388.261719 187.144531 370.167969 192.355469 C 352.074219 197.566406 343.074219 210.230469 331.074219 210.230469 C 319.074219 210.230469 304.074219 197.566406 298.242188 179.398438 Z M 298.242188 179.398438 " transform="matrix(1,0,0,-1,-30,258)"/>
<path style="fill:none;stroke-width:2;stroke-linecap:butt;stroke-linejoin:round;stroke:rgb(29.8%,68.6%,31.4%);stroke-opacity:1;stroke-miterlimit:10;" d="M 357.542969 174.605469 C 349.996094 177.46875 341.515625 174.113281 337.96875 166.867188 C 334.421875 159.621094 336.976562 150.863281 343.867188 146.664062 C 350.753906 142.460938 359.707031 144.199219 364.527344 150.667969 C 369.347656 157.140625 368.445312 166.214844 362.449219 171.613281 L 357.539062 174.605469 " transform="matrix(1,0,0,-1,-30,258)"/>
<path style="fill-rule:evenodd;fill:rgb(29.8%,68.6%,31.4%);fill-opacity:1;stroke-width:2;stroke-linecap:butt;stroke-linejoin:round;stroke:rgb(29.8%,68.6%,31.4%);stroke-opacity:1;stroke-miterlimit:10;" d="M 357.539062 174.605469 L 362.304688 168.96875 L 364.730469 172.949219 Z M 357.539062 174.605469 " transform="matrix(1,0,0,-1,-30,258)"/>
<path style="fill:none;stroke-width:2;stroke-linecap:butt;stroke-linejoin:round;stroke:rgb(12.9%,58.8%,95.3%);stroke-opacity:1;stroke-miterlimit:10;" d="M 414.582031 181.855469 C 414.582031 181.855469 414.582031 181.855469 412.800781 182.589844 C 411.019531 183.324219 407.460938 184.796875 403.3125 185.953125 C 399.160156 187.109375 394.417969 187.953125 390.039062 188.679688 C 385.664062 189.410156 381.65625 190.027344 377.535156 190.917969 C 373.414062 191.808594 369.183594 192.976562 367.066406 193.558594 C 364.953125 194.140625 364.953125 194.140625 364.953125 194.140625 " transform="matrix(1,0,0,-1,-30,258)"/>
<path style="fill-rule:evenodd;fill:rgb(12.9%,58.8%,95.3%);fill-opacity:1;stroke-width:2;stroke-linecap:butt;stroke-linejoin:round;stroke:rgb(12.9%,58.8%,95.3%);stroke-opacity:1;stroke-miterlimit:10;" d="M 364.953125 194.140625 L 371.082031 190.035156 L 372.320312 194.527344 Z M 364.953125 194.140625 " transform="matrix(1,0,0,-1,-30,258)"/>
<path style="fill:none;stroke-width:0.8;stroke-linecap:butt;stroke-linejoin:round;stroke:rgb(100%,100%,100%);stroke-opacity:1;stroke-miterlimit:10;" d="M 352 160 L 364.953125 194.140625 " transform="matrix(1,0,0,-1,-30,258)"/>
<path style=" stroke:none;fill-rule:evenodd;fill:rgb(38%,38%,38%);fill-opacity:1;" d="M 323.5 98 C 323.5 96 320.5 96 320.5 98 C 320.5 100 323.5 100 323.5 98 Z M 323.5 98 "/>
<path style=" stroke:none;fill-rule:evenodd;fill:rgb(100%,100%,100%);fill-opacity:1;" d="M 323.800781 98 C 323.800781 95.601562 320.199219 95.601562 320.199219 98 C 320.199219 100.398438 323.800781 100.398438 323.800781 98 Z M 323.199219 98 C 323.199219 96.398438 320.800781 96.398438 320.800781 98 C 320.800781 99.601562 323.199219 99.601562 323.199219 98 Z M 323.199219 98 "/>
<path style=" stroke:none;fill-rule:evenodd;fill:rgb(38%,38%,38%);fill-opacity:1;" d="M 323.5 98 C 323.5 96 320.5 96 320.5 98 C 320.5 100 323.5 100 323.5 98 Z M 323.5 98 "/>
<path style=" stroke:none;fill-rule:evenodd;fill:rgb(100%,100%,100%);fill-opacity:1;" d="M 323.800781 98 C 323.800781 95.601562 320.199219 95.601562 320.199219 98 C 320.199219 100.398438 323.800781 100.398438 323.800781 98 Z M 323.199219 98 C 323.199219 96.398438 320.800781 96.398438 320.800781 98 C 320.800781 99.601562 323.199219 99.601562 323.199219 98 Z M 323.199219 98 "/>
<path style="fill:none;stroke-width:2;stroke-linecap:butt;stroke-linejoin:round;stroke:rgb(29.8%,68.6%,31.4%);stroke-opacity:1;stroke-miterlimit:10;" d="M 144.410156 164.890625 L 141.296875 170.886719 " transform="matrix(1,0,0,-1,-30,258)"/>
<path style="fill-rule:evenodd;fill:rgb(29.8%,68.6%,31.4%);fill-opacity:1;stroke-width:2;stroke-linecap:butt;stroke-linejoin:round;stroke:rgb(29.8%,68.6%,31.4%);stroke-opacity:1;stroke-miterlimit:10;" d="M 141.296875 170.886719 L 142.453125 163.597656 L 146.59375 165.746094 Z M 141.296875 170.886719 " transform="matrix(1,0,0,-1,-30,258)"/>
</g>
</svg>
