<?xml version="1.0" encoding="UTF-8"?>
<svg xmlns="http://www.w3.org/2000/svg" xmlns:xlink="http://www.w3.org/1999/xlink" width="166pt" height="166pt" viewBox="0 0 166 166" version="1.1">
<g id="surface27406">
<path style="fill:none;stroke-width:1.2;stroke-linecap:butt;stroke-linejoin:round;stroke:rgb(100%,100%,100%);stroke-opacity:1;stroke-miterlimit:10;" d="M 64 352 L 64 192 L 224 192 " transform="matrix(1,0,0,-1,-59,353)"/>
<path style="fill:none;stroke-width:0.4;stroke-linecap:butt;stroke-linejoin:round;stroke:rgb(100%,100%,100%);stroke-opacity:1;stroke-miterlimit:10;" d="M 63.988281 344.789062 L 74.015625 191.835938 " transform="matrix(1,0,0,-1,-59,353)"/>
<path style="fill:none;stroke-width:0.4;stroke-linecap:butt;stroke-linejoin:round;stroke:rgb(100%,100%,100%);stroke-opacity:1;stroke-miterlimit:10;" d="M 64 343.96875 L 84.007812 192 " transform="matrix(1,0,0,-1,-59,353)"/>
<path style="fill:none;stroke-width:0.4;stroke-linecap:butt;stroke-linejoin:round;stroke:rgb(100%,100%,100%);stroke-opacity:1;stroke-miterlimit:10;" d="M 63.96875 342.171875 L 93.871094 191.839844 " transform="matrix(1,0,0,-1,-59,353)"/>
<path style="fill:none;stroke-width:0.4;stroke-linecap:butt;stroke-linejoin:round;stroke:rgb(100%,100%,100%);stroke-opacity:1;stroke-miterlimit:10;" d="M 64 340.058594 L 103.671875 192 " transform="matrix(1,0,0,-1,-59,353)"/>
<path style="fill:none;stroke-width:0.4;stroke-linecap:butt;stroke-linejoin:round;stroke:rgb(100%,100%,100%);stroke-opacity:1;stroke-miterlimit:10;" d="M 63.949219 336.988281 L 113.21875 191.84375 " transform="matrix(1,0,0,-1,-59,353)"/>
<path style="fill:none;stroke-width:0.4;stroke-linecap:butt;stroke-linejoin:round;stroke:rgb(100%,100%,100%);stroke-opacity:1;stroke-miterlimit:10;" d="M 64 333.613281 L 122.65625 192 " transform="matrix(1,0,0,-1,-59,353)"/>
<path style="fill:none;stroke-width:0.4;stroke-linecap:butt;stroke-linejoin:round;stroke:rgb(100%,100%,100%);stroke-opacity:1;stroke-miterlimit:10;" d="M 63.925781 329.324219 L 131.722656 191.851562 " transform="matrix(1,0,0,-1,-59,353)"/>
<path style="fill:none;stroke-width:0.4;stroke-linecap:butt;stroke-linejoin:round;stroke:rgb(100%,100%,100%);stroke-opacity:1;stroke-miterlimit:10;" d="M 64 324.746094 L 140.640625 192 " transform="matrix(1,0,0,-1,-59,353)"/>
<path style="fill:none;stroke-width:0.4;stroke-linecap:butt;stroke-linejoin:round;stroke:rgb(100%,100%,100%);stroke-opacity:1;stroke-miterlimit:10;" d="M 63.910156 319.3125 L 149.066406 191.863281 " transform="matrix(1,0,0,-1,-59,353)"/>
<path style="fill:none;stroke-width:0.4;stroke-linecap:butt;stroke-linejoin:round;stroke:rgb(100%,100%,100%);stroke-opacity:1;stroke-miterlimit:10;" d="M 64 313.605469 L 157.3125 192 " transform="matrix(1,0,0,-1,-59,353)"/>
<path style="fill:none;stroke-width:0.4;stroke-linecap:butt;stroke-linejoin:round;stroke:rgb(100%,100%,100%);stroke-opacity:1;stroke-miterlimit:10;" d="M 63.890625 307.117188 L 164.957031 191.875 " transform="matrix(1,0,0,-1,-59,353)"/>
<path style="fill:none;stroke-width:0.4;stroke-linecap:butt;stroke-linejoin:round;stroke:rgb(100%,100%,100%);stroke-opacity:1;stroke-miterlimit:10;" d="M 64 300.386719 L 172.386719 192 " transform="matrix(1,0,0,-1,-59,353)"/>
<path style="fill:none;stroke-width:0.4;stroke-linecap:butt;stroke-linejoin:round;stroke:rgb(100%,100%,100%);stroke-opacity:1;stroke-miterlimit:10;" d="M 63.875 292.957031 L 179.117188 191.890625 " transform="matrix(1,0,0,-1,-59,353)"/>
<path style="fill:none;stroke-width:0.4;stroke-linecap:butt;stroke-linejoin:round;stroke:rgb(100%,100%,100%);stroke-opacity:1;stroke-miterlimit:10;" d="M 64 285.3125 L 185.605469 192 " transform="matrix(1,0,0,-1,-59,353)"/>
<path style="fill:none;stroke-width:0.4;stroke-linecap:butt;stroke-linejoin:round;stroke:rgb(100%,100%,100%);stroke-opacity:1;stroke-miterlimit:10;" d="M 63.863281 277.066406 L 191.3125 191.910156 " transform="matrix(1,0,0,-1,-59,353)"/>
<path style="fill:none;stroke-width:0.4;stroke-linecap:butt;stroke-linejoin:round;stroke:rgb(100%,100%,100%);stroke-opacity:1;stroke-miterlimit:10;" d="M 64 268.640625 L 196.746094 192 " transform="matrix(1,0,0,-1,-59,353)"/>
<path style="fill:none;stroke-width:0.4;stroke-linecap:butt;stroke-linejoin:round;stroke:rgb(100%,100%,100%);stroke-opacity:1;stroke-miterlimit:10;" d="M 63.851562 259.722656 L 201.324219 191.925781 " transform="matrix(1,0,0,-1,-59,353)"/>
<path style="fill:none;stroke-width:0.4;stroke-linecap:butt;stroke-linejoin:round;stroke:rgb(100%,100%,100%);stroke-opacity:1;stroke-miterlimit:10;" d="M 64 250.65625 L 205.613281 192 " transform="matrix(1,0,0,-1,-59,353)"/>
<path style="fill:none;stroke-width:0.4;stroke-linecap:butt;stroke-linejoin:round;stroke:rgb(100%,100%,100%);stroke-opacity:1;stroke-miterlimit:10;" d="M 63.84375 241.21875 L 208.992188 191.945312 " transform="matrix(1,0,0,-1,-59,353)"/>
<path style="fill:none;stroke-width:0.4;stroke-linecap:butt;stroke-linejoin:round;stroke:rgb(100%,100%,100%);stroke-opacity:1;stroke-miterlimit:10;" d="M 64 231.671875 L 212.058594 192 " transform="matrix(1,0,0,-1,-59,353)"/>
<path style="fill:none;stroke-width:0.4;stroke-linecap:butt;stroke-linejoin:round;stroke:rgb(100%,100%,100%);stroke-opacity:1;stroke-miterlimit:10;" d="M 63.839844 221.871094 L 214.171875 191.96875 " transform="matrix(1,0,0,-1,-59,353)"/>
<path style="fill:none;stroke-width:0.4;stroke-linecap:butt;stroke-linejoin:round;stroke:rgb(100%,100%,100%);stroke-opacity:1;stroke-miterlimit:10;" d="M 64 212.007812 L 215.96875 192 " transform="matrix(1,0,0,-1,-59,353)"/>
<path style="fill:none;stroke-width:0.4;stroke-linecap:butt;stroke-linejoin:round;stroke:rgb(100%,100%,100%);stroke-opacity:1;stroke-miterlimit:10;" d="M 63.835938 202.015625 L 216.789062 191.988281 " transform="matrix(1,0,0,-1,-59,353)"/>
<path style="fill:none;stroke-width:0.8;stroke-linecap:butt;stroke-linejoin:round;stroke:rgb(100%,100%,100%);stroke-opacity:1;stroke-dasharray:4;stroke-miterlimit:10;" d="M 144 224 L 144 188 " transform="matrix(1,0,0,-1,-59,353)"/>
<path style="fill:none;stroke-width:0.8;stroke-linecap:butt;stroke-linejoin:round;stroke:rgb(100%,100%,100%);stroke-opacity:1;stroke-dasharray:4;stroke-miterlimit:10;" d="M 144 224 L 60 224 " transform="matrix(1,0,0,-1,-59,353)"/>
<path style=" stroke:none;fill-rule:evenodd;fill:rgb(38%,38%,38%);fill-opacity:1;" d="M 86.5 129 C 86.5 127 83.5 127 83.5 129 C 83.5 131 86.5 131 86.5 129 Z M 86.5 129 "/>
<path style=" stroke:none;fill-rule:evenodd;fill:rgb(100%,100%,100%);fill-opacity:1;" d="M 86.800781 129 C 86.800781 126.601562 83.199219 126.601562 83.199219 129 C 83.199219 131.398438 86.800781 131.398438 86.800781 129 Z M 86.199219 129 C 86.199219 127.398438 83.800781 127.398438 83.800781 129 C 83.800781 130.601562 86.199219 130.601562 86.199219 129 Z M 86.199219 129 "/>
</g>
</svg>
