<?xml version="1.0" encoding="UTF-8"?>
<svg xmlns="http://www.w3.org/2000/svg" xmlns:xlink="http://www.w3.org/1999/xlink" width="65pt" height="65pt" viewBox="0 0 65 65" version="1.1">
<g id="surface378">
<path style="fill:none;stroke-width:2;stroke-linecap:butt;stroke-linejoin:round;stroke:rgb(100%,100%,100%);stroke-opacity:1;stroke-miterlimit:10;" d="M 231.75 726.804688 L 251.746094 723.726562 L 258.550781 755.050781 L 279.78125 747.09375 " transform="matrix(1,0,0,-1,-224,768)"/>
<path style=" stroke:none;fill-rule:evenodd;fill:rgb(100%,100%,100%);fill-opacity:1;" d="M 10.75 41.195312 C 10.75 37.195312 4.75 37.195312 4.75 41.195312 C 4.75 45.195312 10.75 45.195312 10.75 41.195312 Z M 10.75 41.195312 "/>
<path style=" stroke:none;fill-rule:evenodd;fill:rgb(100%,100%,100%);fill-opacity:1;" d="M 30.746094 44.273438 C 30.746094 40.273438 24.746094 40.273438 24.746094 44.273438 C 24.746094 48.273438 30.746094 48.273438 30.746094 44.273438 Z M 30.746094 44.273438 "/>
<path style=" stroke:none;fill-rule:evenodd;fill:rgb(100%,100%,100%);fill-opacity:1;" d="M 37.550781 12.949219 C 37.550781 8.949219 31.550781 8.949219 31.550781 12.949219 C 31.550781 16.949219 37.550781 16.949219 37.550781 12.949219 Z M 37.550781 12.949219 "/>
<path style=" stroke:none;fill-rule:evenodd;fill:rgb(100%,100%,100%);fill-opacity:1;" d="M 58.78125 20.90625 C 58.78125 16.90625 52.78125 16.90625 52.78125 20.90625 C 52.78125 24.90625 58.78125 24.90625 58.78125 20.90625 Z M 58.78125 20.90625 "/>
</g>
</svg>
