<?xml version="1.0" encoding="UTF-8"?>
<svg xmlns="http://www.w3.org/2000/svg" xmlns:xlink="http://www.w3.org/1999/xlink" width="65pt" height="65pt" viewBox="0 0 65 65" version="1.1">
<g id="surface11203">
<path style="fill-rule:evenodd;fill:rgb(100%,75.7%,2.7%);fill-opacity:1;stroke-width:2;stroke-linecap:butt;stroke-linejoin:round;stroke:rgb(100%,100%,100%);stroke-opacity:1;stroke-miterlimit:10;" d="M 336 598.628906 L 314.480469 582.992188 L 322.699219 557.695312 L 349.300781 557.695312 L 357.519531 582.992188 Z M 336 598.628906 " transform="matrix(1,0,0,-1,-304,608)"/>
<path style=" stroke:none;fill-rule:evenodd;fill:rgb(100%,100%,100%);fill-opacity:1;" d="M 35 9.371094 C 35 5.371094 29 5.371094 29 9.371094 C 29 13.371094 35 13.371094 35 9.371094 Z M 35 9.371094 "/>
<path style=" stroke:none;fill-rule:evenodd;fill:rgb(100%,100%,100%);fill-opacity:1;" d="M 56.519531 25.007812 C 56.519531 21.007812 50.519531 21.007812 50.519531 25.007812 C 50.519531 29.007812 56.519531 29.007812 56.519531 25.007812 Z M 56.519531 25.007812 "/>
<path style=" stroke:none;fill-rule:evenodd;fill:rgb(100%,100%,100%);fill-opacity:1;" d="M 48.300781 50.304688 C 48.300781 46.304688 42.300781 46.304688 42.300781 50.304688 C 42.300781 54.304688 48.300781 54.304688 48.300781 50.304688 Z M 48.300781 50.304688 "/>
<path style=" stroke:none;fill-rule:evenodd;fill:rgb(100%,100%,100%);fill-opacity:1;" d="M 21.699219 50.304688 C 21.699219 46.304688 15.699219 46.304688 15.699219 50.304688 C 15.699219 54.304688 21.699219 54.304688 21.699219 50.304688 Z M 21.699219 50.304688 "/>
<path style=" stroke:none;fill-rule:evenodd;fill:rgb(100%,100%,100%);fill-opacity:1;" d="M 13.480469 25.007812 C 13.480469 21.007812 7.480469 21.007812 7.480469 25.007812 C 7.480469 29.007812 13.480469 29.007812 13.480469 25.007812 Z M 13.480469 25.007812 "/>
<path style=" stroke:none;fill-rule:evenodd;fill:rgb(100%,100%,100%);fill-opacity:1;" d="M 35 32 C 35 28 29 28 29 32 C 29 36 35 36 35 32 Z M 35 32 "/>
<path style="fill:none;stroke-width:2;stroke-linecap:butt;stroke-linejoin:round;stroke:rgb(100%,100%,100%);stroke-opacity:1;stroke-miterlimit:10;" d="M 336 576 L 336 598.628906 " transform="matrix(1,0,0,-1,-304,608)"/>
<path style="fill-rule:evenodd;fill:rgb(100%,75.7%,2.7%);fill-opacity:1;stroke-width:2;stroke-linecap:butt;stroke-linejoin:round;stroke:rgb(100%,100%,100%);stroke-opacity:1;stroke-miterlimit:10;" d="M 336 576 L 357.519531 582.992188 " transform="matrix(1,0,0,-1,-304,608)"/>
<path style="fill-rule:evenodd;fill:rgb(100%,75.7%,2.7%);fill-opacity:1;stroke-width:2;stroke-linecap:butt;stroke-linejoin:round;stroke:rgb(100%,100%,100%);stroke-opacity:1;stroke-miterlimit:10;" d="M 336 576 L 349.300781 557.695312 " transform="matrix(1,0,0,-1,-304,608)"/>
<path style="fill-rule:evenodd;fill:rgb(100%,75.7%,2.7%);fill-opacity:1;stroke-width:2;stroke-linecap:butt;stroke-linejoin:round;stroke:rgb(100%,100%,100%);stroke-opacity:1;stroke-miterlimit:10;" d="M 336 576 L 322.699219 557.695312 " transform="matrix(1,0,0,-1,-304,608)"/>
<path style="fill-rule:evenodd;fill:rgb(100%,75.7%,2.7%);fill-opacity:1;stroke-width:2;stroke-linecap:butt;stroke-linejoin:round;stroke:rgb(100%,100%,100%);stroke-opacity:1;stroke-miterlimit:10;" d="M 336 576 L 314.480469 582.992188 " transform="matrix(1,0,0,-1,-304,608)"/>
</g>
</svg>
