<?xml version="1.0" encoding="UTF-8"?>
<svg xmlns="http://www.w3.org/2000/svg" xmlns:xlink="http://www.w3.org/1999/xlink" width="65pt" height="65pt" viewBox="0 0 65 65" version="1.1">
<g id="surface11496">
<path style="fill-rule:evenodd;fill:rgb(100%,75.7%,2.7%);fill-opacity:1;stroke-width:2;stroke-linecap:butt;stroke-linejoin:round;stroke:rgb(100%,100%,100%);stroke-opacity:1;stroke-miterlimit:10;" d="M 256 598.628906 L 241.453125 593.335938 L 233.714844 579.929688 L 236.402344 564.6875 L 248.261719 554.738281 L 263.738281 554.738281 L 275.597656 564.6875 L 278.285156 579.929688 L 270.546875 593.335938 Z M 256 598.628906 " transform="matrix(1,0,0,-1,-224,608)"/>
<path style=" stroke:none;fill-rule:evenodd;fill:rgb(100%,100%,100%);fill-opacity:1;" d="M 20.453125 14.664062 C 20.453125 10.664062 14.453125 10.664062 14.453125 14.664062 C 14.453125 18.664062 20.453125 18.664062 20.453125 14.664062 Z M 20.453125 14.664062 "/>
<path style=" stroke:none;fill-rule:evenodd;fill:rgb(100%,100%,100%);fill-opacity:1;" d="M 35 9.371094 C 35 5.371094 29 5.371094 29 9.371094 C 29 13.371094 35 13.371094 35 9.371094 Z M 35 9.371094 "/>
<path style=" stroke:none;fill-rule:evenodd;fill:rgb(100%,100%,100%);fill-opacity:1;" d="M 49.546875 14.664062 C 49.546875 10.664062 43.546875 10.664062 43.546875 14.664062 C 43.546875 18.664062 49.546875 18.664062 49.546875 14.664062 Z M 49.546875 14.664062 "/>
<path style=" stroke:none;fill-rule:evenodd;fill:rgb(100%,100%,100%);fill-opacity:1;" d="M 57.285156 28.070312 C 57.285156 24.070312 51.285156 24.070312 51.285156 28.070312 C 51.285156 32.070312 57.285156 32.070312 57.285156 28.070312 Z M 57.285156 28.070312 "/>
<path style=" stroke:none;fill-rule:evenodd;fill:rgb(100%,100%,100%);fill-opacity:1;" d="M 54.597656 43.3125 C 54.597656 39.3125 48.597656 39.3125 48.597656 43.3125 C 48.597656 47.3125 54.597656 47.3125 54.597656 43.3125 Z M 54.597656 43.3125 "/>
<path style=" stroke:none;fill-rule:evenodd;fill:rgb(100%,100%,100%);fill-opacity:1;" d="M 42.738281 53.261719 C 42.738281 49.261719 36.738281 49.261719 36.738281 53.261719 C 36.738281 57.261719 42.738281 57.261719 42.738281 53.261719 Z M 42.738281 53.261719 "/>
<path style=" stroke:none;fill-rule:evenodd;fill:rgb(100%,100%,100%);fill-opacity:1;" d="M 27.261719 53.261719 C 27.261719 49.261719 21.261719 49.261719 21.261719 53.261719 C 21.261719 57.261719 27.261719 57.261719 27.261719 53.261719 Z M 27.261719 53.261719 "/>
<path style=" stroke:none;fill-rule:evenodd;fill:rgb(100%,100%,100%);fill-opacity:1;" d="M 15.402344 43.3125 C 15.402344 39.3125 9.402344 39.3125 9.402344 43.3125 C 9.402344 47.3125 15.402344 47.3125 15.402344 43.3125 Z M 15.402344 43.3125 "/>
<path style=" stroke:none;fill-rule:evenodd;fill:rgb(100%,100%,100%);fill-opacity:1;" d="M 12.714844 28.070312 C 12.714844 24.070312 6.714844 24.070312 6.714844 28.070312 C 6.714844 32.070312 12.714844 32.070312 12.714844 28.070312 Z M 12.714844 28.070312 "/>
</g>
</svg>
