<?xml version="1.0" encoding="UTF-8"?>
<svg xmlns="http://www.w3.org/2000/svg" xmlns:xlink="http://www.w3.org/1999/xlink" width="247pt" height="393pt" viewBox="0 0 247 393" version="1.1">
<g id="surface71420">
<path style="fill:none;stroke-width:6;stroke-linecap:butt;stroke-linejoin:round;stroke:rgb(100%,100%,100%);stroke-opacity:1;stroke-miterlimit:10;" d="M 347.933594 607.226562 C 347.214844 608.769531 346.503906 610.179688 345.597656 611.664062 C 344.6875 613.148438 343.578125 614.707031 342.546875 615.800781 C 341.515625 616.890625 340.566406 617.519531 339.617188 617.519531 C 338.667969 617.523438 337.714844 616.898438 336.445312 615.449219 C 335.175781 614 333.585938 611.722656 331.839844 608.757812 C 330.09375 605.792969 328.191406 602.140625 326.765625 599.398438 C 325.339844 596.652344 324.390625 594.816406 322.808594 591.796875 C 321.230469 588.773438 319.023438 584.566406 316.75 580.273438 C 314.476562 575.976562 312.140625 571.601562 310.257812 568.082031 C 308.375 564.5625 306.949219 561.898438 305.265625 558.753906 C 303.585938 555.609375 301.648438 551.976562 300.054688 548.964844 C 298.460938 545.953125 297.207031 543.566406 295.742188 540.753906 C 294.28125 537.941406 292.605469 534.707031 291.1875 531.957031 C 289.765625 529.207031 288.601562 526.9375 287.367188 524.53125 C 286.128906 522.125 284.820312 519.582031 283.371094 516.792969 C 281.921875 514.007812 280.335938 510.980469 278.683594 507.890625 C 277.03125 504.804688 275.316406 501.660156 273.851562 499.003906 C 272.386719 496.347656 271.175781 494.1875 269.835938 491.507812 C 268.496094 488.828125 267.027344 485.636719 265.472656 482.453125 C 263.917969 479.269531 262.273438 476.097656 260.625 472.125 C 258.972656 468.152344 257.3125 463.382812 255.859375 458.351562 C 254.40625 453.316406 253.164062 448.027344 251.738281 442.0625 C 250.316406 436.097656 248.714844 429.457031 247.515625 422.554688 C 246.3125 415.648438 245.511719 408.476562 245.058594 402.730469 C 244.605469 396.980469 244.5 392.65625 244.496094 388.382812 C 244.488281 384.105469 244.582031 379.878906 244.800781 376.023438 C 245.015625 372.167969 245.359375 368.683594 245.96875 364.203125 C 246.578125 359.722656 247.460938 354.25 248.847656 348.320312 C 250.234375 342.394531 252.128906 336.011719 254.121094 330.511719 C 256.117188 325.015625 258.210938 320.402344 260 316.792969 C 261.792969 313.1875 263.277344 310.589844 266.550781 306.152344 C 269.824219 301.71875 274.886719 295.449219 279.609375 290.210938 C 284.332031 284.96875 288.714844 280.761719 293.273438 276.992188 C 297.832031 273.222656 302.566406 269.890625 307.605469 266.691406 C 312.644531 263.492188 317.992188 260.421875 322.574219 258.058594 C 327.15625 255.691406 330.976562 254.035156 335.550781 252.300781 C 340.125 250.566406 345.457031 248.753906 350.804688 247.25 C 356.152344 245.746094 361.519531 244.546875 367.15625 243.753906 C 372.792969 242.957031 378.703125 242.570312 383.425781 242.382812 C 388.144531 242.191406 391.679688 242.199219 396.414062 242.566406 C 401.152344 242.9375 407.089844 243.667969 412.339844 244.667969 C 417.589844 245.667969 422.148438 246.9375 426.988281 248.789062 C 431.828125 250.644531 436.945312 253.082031 440.949219 255.25 C 444.953125 257.414062 447.839844 259.304688 450.785156 261.554688 C 453.730469 263.800781 456.734375 266.40625 459.496094 269.25 C 462.257812 272.09375 464.773438 275.179688 467.453125 279.324219 C 470.128906 283.46875 472.96875 288.675781 475 292.96875 C 477.03125 297.257812 478.253906 300.632812 479.347656 304.558594 C 480.445312 308.484375 481.414062 312.957031 482.214844 318.828125 C 483.015625 324.699219 483.644531 331.96875 483.84375 338.859375 C 484.039062 345.75 483.800781 352.261719 483.125 359.609375 C 482.453125 366.957031 481.34375 375.140625 480.074219 382.824219 C 478.808594 390.511719 477.378906 397.703125 475.695312 404.738281 C 474.007812 411.773438 472.066406 418.648438 469.824219 425.925781 C 467.585938 433.203125 465.050781 440.882812 462.25 449.304688 C 459.449219 457.730469 456.378906 466.902344 453.355469 475.976562 C 450.335938 485.046875 447.363281 494.019531 444.953125 501.496094 C 442.539062 508.972656 440.683594 514.949219 439.46875 518.886719 C 438.253906 522.820312 437.671875 524.714844 436.195312 530.128906 C 434.714844 535.542969 432.339844 544.480469 430.71875 551.445312 C 429.097656 558.410156 428.234375 563.40625 427.617188 568.882812 C 427 574.359375 426.628906 580.320312 426.691406 585.28125 C 426.757812 590.242188 427.257812 594.207031 427.996094 597.605469 C 428.734375 601.007812 429.714844 603.851562 430.800781 605.796875 C 431.882812 607.746094 433.074219 608.800781 434.394531 609.53125 C 435.71875 610.265625 437.171875 610.675781 438.246094 609.980469 C 439.316406 609.285156 440.007812 607.488281 440.519531 604.871094 C 441.03125 602.253906 441.367188 598.820312 441.207031 593.5625 C 441.046875 588.304688 440.386719 581.222656 439.578125 575.476562 C 438.765625 569.734375 437.804688 565.328125 435.953125 558.707031 C 434.105469 552.089844 431.367188 543.261719 428.921875 536.25 C 426.476562 529.242188 424.324219 524.050781 422.027344 518.941406 C 419.734375 513.832031 417.296875 508.800781 415.261719 504.675781 C 413.226562 500.550781 411.59375 497.332031 408.726562 491.726562 C 405.859375 486.125 401.761719 478.136719 397.65625 470.210938 C 393.554688 462.289062 389.445312 454.429688 385.496094 447.257812 C 381.546875 440.085938 377.753906 433.597656 374.066406 427.703125 C 370.382812 421.808594 366.800781 416.503906 363.378906 411.261719 C 359.953125 406.015625 356.6875 400.828125 353.992188 395.414062 C 351.300781 390 349.175781 384.359375 347.925781 378.949219 C 346.679688 373.542969 346.308594 368.367188 346.453125 363.164062 C 346.597656 357.960938 347.253906 352.730469 348.710938 348.066406 C 350.167969 343.40625 352.421875 339.3125 355.480469 335.519531 C 358.539062 331.730469 362.40625 328.242188 366.453125 325.425781 C 370.5 322.605469 374.726562 320.457031 378.9375 318.710938 C 383.148438 316.964844 387.339844 315.621094 391.191406 314.6875 C 395.042969 313.757812 398.550781 313.238281 403.332031 313.453125 C 408.109375 313.664062 414.160156 314.613281 419.113281 316.246094 C 424.0625 317.882812 427.917969 320.203125 431.089844 323.550781 C 434.261719 326.898438 436.753906 331.269531 438.363281 336.035156 C 439.972656 340.804688 440.703125 345.96875 440.949219 351.257812 C 441.199219 356.550781 440.964844 361.964844 440.558594 366.878906 C 440.15625 371.789062 439.582031 376.195312 438.707031 381.144531 C 437.828125 386.089844 436.644531 391.582031 435.328125 396.589844 C 434.011719 401.597656 432.558594 406.117188 430.578125 411.964844 C 428.597656 417.808594 426.09375 424.972656 423.867188 431.273438 C 421.644531 437.574219 419.707031 443.007812 417.488281 448.992188 C 415.273438 454.972656 412.785156 461.507812 409.089844 470.566406 C 405.394531 479.628906 400.496094 491.214844 396.488281 500.476562 C 392.484375 509.734375 389.371094 516.664062 386.550781 522.878906 C 383.726562 529.09375 381.195312 534.597656 377.503906 542.570312 C 373.816406 550.542969 368.96875 560.988281 364.507812 570.695312 C 360.042969 580.402344 355.960938 589.375 353.625 594.523438 C 351.289062 599.675781 350.699219 601.003906 350.039062 602.507812 C 349.378906 604.007812 348.648438 605.683594 347.933594 607.226562 Z M 347.933594 607.226562 " transform="matrix(1,0,0,-1,-240,628)"/>
<path style="fill:none;stroke-width:12;stroke-linecap:butt;stroke-linejoin:round;stroke:rgb(100%,100%,100%);stroke-opacity:1;stroke-miterlimit:10;" d="M 393.964844 603.421875 C 392.953125 609.375 391.636719 615.707031 389.785156 618.976562 C 387.933594 622.25 385.546875 622.457031 383.210938 618.203125 C 380.878906 613.949219 378.597656 605.234375 375.027344 593.535156 C 371.457031 581.835938 366.597656 567.15625 360.042969 549.902344 C 353.484375 532.648438 345.234375 512.820312 337.550781 495.945312 C 329.871094 479.070312 322.757812 465.144531 316.089844 447.214844 C 309.425781 429.289062 303.203125 407.363281 301.886719 387.863281 C 300.574219 368.363281 304.171875 351.285156 309.632812 336.644531 C 315.089844 322 322.410156 309.785156 332.339844 300.714844 C 342.265625 291.644531 354.804688 285.71875 369.847656 282.757812 C 384.890625 279.792969 402.441406 279.792969 417.371094 283.78125 C 432.300781 287.769531 444.609375 295.75 452.8125 308.285156 C 461.019531 320.820312 465.121094 337.914062 463.640625 358.316406 C 462.160156 378.714844 455.09375 402.421875 448.3125 423.539062 C 441.53125 444.65625 435.035156 463.183594 428.253906 482.25 C 421.476562 501.316406 414.410156 520.917969 409.050781 538.355469 C 403.695312 555.792969 400.050781 571.0625 397.871094 581.484375 C 395.691406 591.902344 394.980469 597.472656 393.964844 603.421875 Z M 393.964844 603.421875 " transform="matrix(1,0,0,-1,-240,628)"/>
<path style="fill:none;stroke-width:12;stroke-linecap:butt;stroke-linejoin:round;stroke:rgb(12.9%,12.9%,12.9%);stroke-opacity:1;stroke-miterlimit:10;" d="M 410.941406 465.992188 C 410.941406 465.992188 410.941406 465.992188 410.421875 467.261719 C 409.90625 468.53125 408.871094 471.074219 407.921875 473.394531 C 406.96875 475.714844 406.101562 477.808594 405.191406 479.988281 C 404.28125 482.167969 403.332031 484.425781 402.277344 486.917969 C 401.222656 489.410156 400.0625 492.132812 399.484375 493.496094 C 398.90625 494.859375 398.90625 494.859375 398.90625 494.859375 " transform="matrix(1,0,0,-1,-240,628)"/>
<path style="fill:none;stroke-width:6;stroke-linecap:butt;stroke-linejoin:round;stroke:rgb(100%,100%,100%);stroke-opacity:1;stroke-miterlimit:10;" d="M 414.636719 456.566406 C 414.636719 456.566406 414.636719 456.566406 413.503906 459.40625 C 412.371094 462.25 410.105469 467.933594 408.539062 471.824219 C 406.96875 475.714844 406.101562 477.808594 405.191406 479.988281 C 404.28125 482.167969 403.332031 484.425781 401.644531 488.382812 C 399.960938 492.335938 397.539062 497.988281 396.328125 500.8125 C 395.117188 503.636719 395.117188 503.636719 395.117188 503.636719 " transform="matrix(1,0,0,-1,-240,628)"/>
<path style="fill:none;stroke-width:18;stroke-linecap:butt;stroke-linejoin:round;stroke:rgb(12.9%,12.9%,12.9%);stroke-opacity:1;stroke-miterlimit:10;" d="M 425.261719 490.664062 C 425.261719 490.664062 425.261719 490.664062 424.855469 491.804688 C 424.449219 492.949219 423.636719 495.230469 422.578125 498.226562 C 421.523438 501.222656 420.214844 504.929688 418.738281 509.199219 C 417.257812 513.464844 415.609375 518.289062 414.40625 521.847656 C 413.203125 525.402344 412.453125 527.6875 412.078125 528.828125 C 411.699219 529.972656 411.699219 529.972656 411.699219 529.972656 " transform="matrix(1,0,0,-1,-240,628)"/>
<path style="fill:none;stroke-width:12;stroke-linecap:butt;stroke-linejoin:round;stroke:rgb(100%,100%,100%);stroke-opacity:1;stroke-miterlimit:10;" d="M 428.582031 481.332031 C 428.582031 481.332031 428.582031 481.332031 428.054688 482.8125 C 427.527344 484.296875 426.472656 487.261719 425.394531 490.300781 C 424.3125 493.34375 423.207031 496.464844 422.125 499.53125 C 421.039062 502.601562 419.976562 505.621094 418.875 508.78125 C 417.773438 511.941406 416.636719 515.246094 415.597656 518.3125 C 414.554688 521.375 413.609375 524.195312 412.605469 527.265625 C 411.601562 530.335938 410.542969 533.652344 410.011719 535.308594 C 409.480469 536.96875 409.480469 536.96875 409.480469 536.96875 " transform="matrix(1,0,0,-1,-240,628)"/>
<path style="fill:none;stroke-width:12;stroke-linecap:butt;stroke-linejoin:round;stroke:rgb(12.9%,12.9%,12.9%);stroke-opacity:1;stroke-miterlimit:10;" d="M 436.695312 528.300781 C 436.695312 528.300781 436.695312 528.300781 436.234375 530.015625 C 435.773438 531.730469 434.855469 535.160156 434.203125 537.613281 C 433.550781 540.066406 433.167969 541.542969 432.746094 543.207031 C 432.328125 544.871094 431.867188 546.722656 431.433594 548.535156 C 430.996094 550.34375 430.589844 552.113281 430.035156 554.871094 C 429.484375 557.625 428.789062 561.371094 428.441406 563.242188 C 428.09375 565.113281 428.09375 565.113281 428.09375 565.113281 " transform="matrix(1,0,0,-1,-240,628)"/>
<path style="fill:none;stroke-width:6;stroke-linecap:butt;stroke-linejoin:round;stroke:rgb(100%,100%,100%);stroke-opacity:1;stroke-miterlimit:10;" d="M 439.835938 517.703125 C 439.835938 517.703125 439.835938 517.703125 439.347656 519.347656 C 438.863281 520.992188 437.890625 524.28125 437.117188 526.988281 C 436.34375 529.699219 435.765625 531.835938 435.078125 534.410156 C 434.386719 536.984375 433.585938 540 432.957031 542.4375 C 432.328125 544.871094 431.867188 546.722656 431.390625 548.78125 C 430.917969 550.839844 430.425781 553.105469 429.921875 555.542969 C 429.417969 557.980469 428.898438 560.59375 428.449219 563.449219 C 428.003906 566.308594 427.628906 569.414062 427.441406 570.96875 C 427.253906 572.519531 427.253906 572.519531 427.253906 572.519531 " transform="matrix(1,0,0,-1,-240,628)"/>
<path style="fill:none;stroke-width:12;stroke-linecap:butt;stroke-linejoin:round;stroke:rgb(12.9%,12.9%,12.9%);stroke-opacity:1;stroke-miterlimit:10;" d="M 375.277344 547.382812 C 375.277344 547.382812 375.277344 547.382812 374.574219 548.90625 C 373.867188 550.429688 372.457031 553.476562 371.132812 556.339844 C 369.808594 559.203125 368.570312 561.875 367.355469 564.515625 C 366.136719 567.152344 364.941406 569.753906 363.382812 573.148438 C 361.824219 576.546875 359.90625 580.742188 358.945312 582.835938 C 357.988281 584.933594 357.988281 584.933594 357.988281 584.933594 " transform="matrix(1,0,0,-1,-240,628)"/>
<path style="fill:none;stroke-width:6;stroke-linecap:butt;stroke-linejoin:round;stroke:rgb(100%,100%,100%);stroke-opacity:1;stroke-miterlimit:10;" d="M 378.59375 540.214844 C 378.59375 540.214844 378.59375 540.214844 377.671875 542.207031 C 376.75 544.199219 374.90625 548.183594 373.03125 552.238281 C 371.152344 556.296875 369.246094 560.421875 367.335938 564.566406 C 365.425781 568.710938 363.515625 572.871094 361.390625 577.511719 C 359.265625 582.15625 356.929688 587.277344 355.757812 589.835938 C 354.589844 592.398438 354.589844 592.398438 354.589844 592.398438 " transform="matrix(1,0,0,-1,-240,628)"/>
<path style="fill:none;stroke-width:12;stroke-linecap:butt;stroke-linejoin:miter;stroke:rgb(100%,100%,100%);stroke-opacity:1;stroke-miterlimit:10;" d="M 380.964844 281.15625 C 380.964844 281.15625 380.964844 281.15625 381.851562 281.09375 C 382.738281 281.03125 384.511719 280.90625 386.714844 280.824219 C 388.917969 280.746094 391.550781 280.707031 392.871094 280.691406 C 394.1875 280.671875 394.1875 280.671875 394.1875 280.671875 " transform="matrix(1,0,0,-1,-240,628)"/>
<path style="fill-rule:evenodd;fill:rgb(100%,100%,100%);fill-opacity:1;stroke-width:12;stroke-linecap:butt;stroke-linejoin:miter;stroke:rgb(100%,100%,100%);stroke-opacity:1;stroke-miterlimit:10;" d="M 394.1875 280.671875 L 384.234375 284.140625 L 384.140625 277.480469 Z M 394.1875 280.671875 " transform="matrix(1,0,0,-1,-240,628)"/>
<path style="fill:none;stroke-width:6;stroke-linecap:butt;stroke-linejoin:miter;stroke:rgb(100%,100%,100%);stroke-opacity:1;stroke-miterlimit:10;" d="M 384.535156 316.613281 C 384.535156 316.613281 384.535156 316.613281 385.417969 316.402344 C 386.304688 316.191406 388.074219 315.769531 389.996094 315.34375 C 391.917969 314.921875 393.996094 314.496094 395.035156 314.285156 C 396.074219 314.070312 396.074219 314.070312 396.074219 314.070312 " transform="matrix(1,0,0,-1,-240,628)"/>
<path style="fill-rule:evenodd;fill:rgb(100%,100%,100%);fill-opacity:1;stroke-width:6;stroke-linecap:butt;stroke-linejoin:miter;stroke:rgb(100%,100%,100%);stroke-opacity:1;stroke-miterlimit:10;" d="M 396.074219 314.070312 L 386.945312 319.339844 L 385.609375 312.8125 Z M 396.074219 314.070312 " transform="matrix(1,0,0,-1,-240,628)"/>
<path style="fill:none;stroke-width:6;stroke-linecap:butt;stroke-linejoin:miter;stroke:rgb(100%,100%,100%);stroke-opacity:1;stroke-miterlimit:10;" d="M 383.242188 242.386719 L 388.226562 242.261719 L 391.71875 242.304688 " transform="matrix(1,0,0,-1,-240,628)"/>
<path style="fill-rule:evenodd;fill:rgb(100%,100%,100%);fill-opacity:1;stroke-width:6;stroke-linecap:butt;stroke-linejoin:miter;stroke:rgb(100%,100%,100%);stroke-opacity:1;stroke-miterlimit:10;" d="M 391.71875 242.304688 L 381.675781 245.507812 L 381.761719 238.847656 Z M 391.71875 242.304688 " transform="matrix(1,0,0,-1,-240,628)"/>
</g>
</svg>
