<?xml version="1.0" encoding="UTF-8"?>
<svg xmlns="http://www.w3.org/2000/svg" xmlns:xlink="http://www.w3.org/1999/xlink" width="374pt" height="261pt" viewBox="0 0 374 261" version="1.1">
<g id="surface48899">
<path style=" stroke:none;fill-rule:evenodd;fill:rgb(1.2%,66.3%,95.7%);fill-opacity:1;" d="M 324.800781 131 C 324.800781 128.601562 321.199219 128.601562 321.199219 131 C 321.199219 133.398438 324.800781 133.398438 324.800781 131 Z M 324.800781 131 "/>
<path style=" stroke:none;fill-rule:evenodd;fill:rgb(1.2%,66.3%,95.7%);fill-opacity:1;" d="M 36.800781 131 C 36.800781 128.601562 33.199219 128.601562 33.199219 131 C 33.199219 133.398438 36.800781 133.398438 36.800781 131 Z M 36.800781 131 "/>
<path style="fill:none;stroke-width:1.2;stroke-linecap:butt;stroke-linejoin:miter;stroke:rgb(1.2%,66.3%,95.7%);stroke-opacity:1;stroke-miterlimit:10;" d="M 432 160 L 416 160 " transform="matrix(1,0,0,-1,-61,323)"/>
<path style="fill-rule:evenodd;fill:rgb(1.2%,66.3%,95.7%);fill-opacity:1;stroke-width:1.2;stroke-linecap:butt;stroke-linejoin:miter;stroke:rgb(1.2%,66.3%,95.7%);stroke-opacity:1;stroke-miterlimit:10;" d="M 416 160 L 421 158.335938 L 421 161.664062 Z M 416 160 " transform="matrix(1,0,0,-1,-61,323)"/>
<path style="fill:none;stroke-width:1.2;stroke-linecap:butt;stroke-linejoin:miter;stroke:rgb(1.2%,66.3%,95.7%);stroke-opacity:1;stroke-miterlimit:10;" d="M 400 160 L 384 160 " transform="matrix(1,0,0,-1,-61,323)"/>
<path style="fill-rule:evenodd;fill:rgb(1.2%,66.3%,95.7%);fill-opacity:1;stroke-width:1.2;stroke-linecap:butt;stroke-linejoin:miter;stroke:rgb(1.2%,66.3%,95.7%);stroke-opacity:1;stroke-miterlimit:10;" d="M 384 160 L 389 158.335938 L 389 161.664062 Z M 384 160 " transform="matrix(1,0,0,-1,-61,323)"/>
<path style="fill:none;stroke-width:1.2;stroke-linecap:butt;stroke-linejoin:miter;stroke:rgb(1.2%,66.3%,95.7%);stroke-opacity:1;stroke-miterlimit:10;" d="M 368 160 L 352 160 " transform="matrix(1,0,0,-1,-61,323)"/>
<path style="fill-rule:evenodd;fill:rgb(1.2%,66.3%,95.7%);fill-opacity:1;stroke-width:1.2;stroke-linecap:butt;stroke-linejoin:miter;stroke:rgb(1.2%,66.3%,95.7%);stroke-opacity:1;stroke-miterlimit:10;" d="M 352 160 L 357 158.335938 L 357 161.664062 Z M 352 160 " transform="matrix(1,0,0,-1,-61,323)"/>
<path style="fill:none;stroke-width:1.2;stroke-linecap:butt;stroke-linejoin:miter;stroke:rgb(1.2%,66.3%,95.7%);stroke-opacity:1;stroke-miterlimit:10;" d="M 336 160 L 320 160 " transform="matrix(1,0,0,-1,-61,323)"/>
<path style="fill-rule:evenodd;fill:rgb(1.2%,66.3%,95.7%);fill-opacity:1;stroke-width:1.2;stroke-linecap:butt;stroke-linejoin:miter;stroke:rgb(1.2%,66.3%,95.7%);stroke-opacity:1;stroke-miterlimit:10;" d="M 320 160 L 325 158.335938 L 325 161.664062 Z M 320 160 " transform="matrix(1,0,0,-1,-61,323)"/>
<path style="fill:none;stroke-width:1.2;stroke-linecap:butt;stroke-linejoin:miter;stroke:rgb(1.2%,66.3%,95.7%);stroke-opacity:1;stroke-miterlimit:10;" d="M 304 160 L 288 160 " transform="matrix(1,0,0,-1,-61,323)"/>
<path style="fill-rule:evenodd;fill:rgb(1.2%,66.3%,95.7%);fill-opacity:1;stroke-width:1.2;stroke-linecap:butt;stroke-linejoin:miter;stroke:rgb(1.2%,66.3%,95.7%);stroke-opacity:1;stroke-miterlimit:10;" d="M 288 160 L 293 158.335938 L 293 161.664062 Z M 288 160 " transform="matrix(1,0,0,-1,-61,323)"/>
<path style="fill:none;stroke-width:1.2;stroke-linecap:butt;stroke-linejoin:miter;stroke:rgb(1.2%,66.3%,95.7%);stroke-opacity:1;stroke-miterlimit:10;" d="M 272 160 L 256 160 " transform="matrix(1,0,0,-1,-61,323)"/>
<path style="fill-rule:evenodd;fill:rgb(1.2%,66.3%,95.7%);fill-opacity:1;stroke-width:1.2;stroke-linecap:butt;stroke-linejoin:miter;stroke:rgb(1.2%,66.3%,95.7%);stroke-opacity:1;stroke-miterlimit:10;" d="M 256 160 L 261 158.335938 L 261 161.664062 Z M 256 160 " transform="matrix(1,0,0,-1,-61,323)"/>
<path style="fill:none;stroke-width:1.2;stroke-linecap:butt;stroke-linejoin:miter;stroke:rgb(1.2%,66.3%,95.7%);stroke-opacity:1;stroke-miterlimit:10;" d="M 240 160 L 224 160 " transform="matrix(1,0,0,-1,-61,323)"/>
<path style="fill-rule:evenodd;fill:rgb(1.2%,66.3%,95.7%);fill-opacity:1;stroke-width:1.2;stroke-linecap:butt;stroke-linejoin:miter;stroke:rgb(1.2%,66.3%,95.7%);stroke-opacity:1;stroke-miterlimit:10;" d="M 224 160 L 229 158.335938 L 229 161.664062 Z M 224 160 " transform="matrix(1,0,0,-1,-61,323)"/>
<path style="fill:none;stroke-width:1.2;stroke-linecap:butt;stroke-linejoin:miter;stroke:rgb(1.2%,66.3%,95.7%);stroke-opacity:1;stroke-miterlimit:10;" d="M 208 160 L 192 160 " transform="matrix(1,0,0,-1,-61,323)"/>
<path style="fill-rule:evenodd;fill:rgb(1.2%,66.3%,95.7%);fill-opacity:1;stroke-width:1.2;stroke-linecap:butt;stroke-linejoin:miter;stroke:rgb(1.2%,66.3%,95.7%);stroke-opacity:1;stroke-miterlimit:10;" d="M 192 160 L 197 158.335938 L 197 161.664062 Z M 192 160 " transform="matrix(1,0,0,-1,-61,323)"/>
<path style="fill:none;stroke-width:1.2;stroke-linecap:butt;stroke-linejoin:miter;stroke:rgb(1.2%,66.3%,95.7%);stroke-opacity:1;stroke-miterlimit:10;" d="M 176 160 L 160 160 " transform="matrix(1,0,0,-1,-61,323)"/>
<path style="fill-rule:evenodd;fill:rgb(1.2%,66.3%,95.7%);fill-opacity:1;stroke-width:1.2;stroke-linecap:butt;stroke-linejoin:miter;stroke:rgb(1.2%,66.3%,95.7%);stroke-opacity:1;stroke-miterlimit:10;" d="M 160 160 L 165 158.335938 L 165 161.664062 Z M 160 160 " transform="matrix(1,0,0,-1,-61,323)"/>
<path style="fill:none;stroke-width:1.2;stroke-linecap:butt;stroke-linejoin:miter;stroke:rgb(1.2%,66.3%,95.7%);stroke-opacity:1;stroke-miterlimit:10;" d="M 144 160 L 128 160 " transform="matrix(1,0,0,-1,-61,323)"/>
<path style="fill-rule:evenodd;fill:rgb(1.2%,66.3%,95.7%);fill-opacity:1;stroke-width:1.2;stroke-linecap:butt;stroke-linejoin:miter;stroke:rgb(1.2%,66.3%,95.7%);stroke-opacity:1;stroke-miterlimit:10;" d="M 128 160 L 133 158.335938 L 133 161.664062 Z M 128 160 " transform="matrix(1,0,0,-1,-61,323)"/>
<path style="fill:none;stroke-width:1.2;stroke-linecap:butt;stroke-linejoin:miter;stroke:rgb(1.2%,66.3%,95.7%);stroke-opacity:1;stroke-miterlimit:10;" d="M 112 160 L 96 160 " transform="matrix(1,0,0,-1,-61,323)"/>
<path style="fill-rule:evenodd;fill:rgb(1.2%,66.3%,95.7%);fill-opacity:1;stroke-width:1.2;stroke-linecap:butt;stroke-linejoin:miter;stroke:rgb(1.2%,66.3%,95.7%);stroke-opacity:1;stroke-miterlimit:10;" d="M 96 160 L 101 158.335938 L 101 161.664062 Z M 96 160 " transform="matrix(1,0,0,-1,-61,323)"/>
<path style="fill:none;stroke-width:1.2;stroke-linecap:butt;stroke-linejoin:miter;stroke:rgb(1.2%,66.3%,95.7%);stroke-opacity:1;stroke-miterlimit:10;" d="M 80 160 L 64 160 " transform="matrix(1,0,0,-1,-61,323)"/>
<path style="fill-rule:evenodd;fill:rgb(1.2%,66.3%,95.7%);fill-opacity:1;stroke-width:1.2;stroke-linecap:butt;stroke-linejoin:miter;stroke:rgb(1.2%,66.3%,95.7%);stroke-opacity:1;stroke-miterlimit:10;" d="M 64 160 L 69 158.335938 L 69 161.664062 Z M 64 160 " transform="matrix(1,0,0,-1,-61,323)"/>
<path style="fill:none;stroke-width:1.2;stroke-linecap:butt;stroke-linejoin:miter;stroke:rgb(1.2%,66.3%,95.7%);stroke-opacity:1;stroke-miterlimit:10;" d="M 432 128 L 400 128 " transform="matrix(1,0,0,-1,-61,323)"/>
<path style="fill-rule:evenodd;fill:rgb(1.2%,66.3%,95.7%);fill-opacity:1;stroke-width:1.2;stroke-linecap:butt;stroke-linejoin:miter;stroke:rgb(1.2%,66.3%,95.7%);stroke-opacity:1;stroke-miterlimit:10;" d="M 400 128 L 405 126.335938 L 405 129.664062 Z M 400 128 " transform="matrix(1,0,0,-1,-61,323)"/>
<path style="fill:none;stroke-width:1.2;stroke-linecap:butt;stroke-linejoin:miter;stroke:rgb(1.2%,66.3%,95.7%);stroke-opacity:1;stroke-miterlimit:10;" d="M 384 128 L 352 128 " transform="matrix(1,0,0,-1,-61,323)"/>
<path style="fill-rule:evenodd;fill:rgb(1.2%,66.3%,95.7%);fill-opacity:1;stroke-width:1.2;stroke-linecap:butt;stroke-linejoin:miter;stroke:rgb(1.2%,66.3%,95.7%);stroke-opacity:1;stroke-miterlimit:10;" d="M 352 128 L 357 126.335938 L 357 129.664062 Z M 352 128 " transform="matrix(1,0,0,-1,-61,323)"/>
<path style="fill:none;stroke-width:1.2;stroke-linecap:butt;stroke-linejoin:miter;stroke:rgb(1.2%,66.3%,95.7%);stroke-opacity:1;stroke-miterlimit:10;" d="M 336 128 L 304 128 " transform="matrix(1,0,0,-1,-61,323)"/>
<path style="fill-rule:evenodd;fill:rgb(1.2%,66.3%,95.7%);fill-opacity:1;stroke-width:1.2;stroke-linecap:butt;stroke-linejoin:miter;stroke:rgb(1.2%,66.3%,95.7%);stroke-opacity:1;stroke-miterlimit:10;" d="M 304 128 L 309 126.335938 L 309 129.664062 Z M 304 128 " transform="matrix(1,0,0,-1,-61,323)"/>
<path style="fill:none;stroke-width:1.2;stroke-linecap:butt;stroke-linejoin:miter;stroke:rgb(1.2%,66.3%,95.7%);stroke-opacity:1;stroke-miterlimit:10;" d="M 288 128 L 256 128 " transform="matrix(1,0,0,-1,-61,323)"/>
<path style="fill-rule:evenodd;fill:rgb(1.2%,66.3%,95.7%);fill-opacity:1;stroke-width:1.2;stroke-linecap:butt;stroke-linejoin:miter;stroke:rgb(1.2%,66.3%,95.7%);stroke-opacity:1;stroke-miterlimit:10;" d="M 256 128 L 261 126.335938 L 261 129.664062 Z M 256 128 " transform="matrix(1,0,0,-1,-61,323)"/>
<path style="fill:none;stroke-width:1.2;stroke-linecap:butt;stroke-linejoin:miter;stroke:rgb(1.2%,66.3%,95.7%);stroke-opacity:1;stroke-miterlimit:10;" d="M 240 128 L 208 128 " transform="matrix(1,0,0,-1,-61,323)"/>
<path style="fill-rule:evenodd;fill:rgb(1.2%,66.3%,95.7%);fill-opacity:1;stroke-width:1.2;stroke-linecap:butt;stroke-linejoin:miter;stroke:rgb(1.2%,66.3%,95.7%);stroke-opacity:1;stroke-miterlimit:10;" d="M 208 128 L 213 126.335938 L 213 129.664062 Z M 208 128 " transform="matrix(1,0,0,-1,-61,323)"/>
<path style="fill:none;stroke-width:1.2;stroke-linecap:butt;stroke-linejoin:miter;stroke:rgb(1.2%,66.3%,95.7%);stroke-opacity:1;stroke-miterlimit:10;" d="M 192 128 L 160 128 " transform="matrix(1,0,0,-1,-61,323)"/>
<path style="fill-rule:evenodd;fill:rgb(1.2%,66.3%,95.7%);fill-opacity:1;stroke-width:1.2;stroke-linecap:butt;stroke-linejoin:miter;stroke:rgb(1.2%,66.3%,95.7%);stroke-opacity:1;stroke-miterlimit:10;" d="M 160 128 L 165 126.335938 L 165 129.664062 Z M 160 128 " transform="matrix(1,0,0,-1,-61,323)"/>
<path style="fill:none;stroke-width:1.2;stroke-linecap:butt;stroke-linejoin:miter;stroke:rgb(1.2%,66.3%,95.7%);stroke-opacity:1;stroke-miterlimit:10;" d="M 144 128 L 112 128 " transform="matrix(1,0,0,-1,-61,323)"/>
<path style="fill-rule:evenodd;fill:rgb(1.2%,66.3%,95.7%);fill-opacity:1;stroke-width:1.2;stroke-linecap:butt;stroke-linejoin:miter;stroke:rgb(1.2%,66.3%,95.7%);stroke-opacity:1;stroke-miterlimit:10;" d="M 112 128 L 117 126.335938 L 117 129.664062 Z M 112 128 " transform="matrix(1,0,0,-1,-61,323)"/>
<path style="fill:none;stroke-width:1.2;stroke-linecap:butt;stroke-linejoin:miter;stroke:rgb(1.2%,66.3%,95.7%);stroke-opacity:1;stroke-miterlimit:10;" d="M 96 128 L 64 128 " transform="matrix(1,0,0,-1,-61,323)"/>
<path style="fill-rule:evenodd;fill:rgb(1.2%,66.3%,95.7%);fill-opacity:1;stroke-width:1.2;stroke-linecap:butt;stroke-linejoin:miter;stroke:rgb(1.2%,66.3%,95.7%);stroke-opacity:1;stroke-miterlimit:10;" d="M 64 128 L 69 126.335938 L 69 129.664062 Z M 64 128 " transform="matrix(1,0,0,-1,-61,323)"/>
<path style="fill:none;stroke-width:1.2;stroke-linecap:butt;stroke-linejoin:miter;stroke:rgb(1.2%,66.3%,95.7%);stroke-opacity:1;stroke-miterlimit:10;" d="M 432 96 L 384 96 " transform="matrix(1,0,0,-1,-61,323)"/>
<path style="fill-rule:evenodd;fill:rgb(1.2%,66.3%,95.7%);fill-opacity:1;stroke-width:1.2;stroke-linecap:butt;stroke-linejoin:miter;stroke:rgb(1.2%,66.3%,95.7%);stroke-opacity:1;stroke-miterlimit:10;" d="M 384 96 L 389 94.335938 L 389 97.664062 Z M 384 96 " transform="matrix(1,0,0,-1,-61,323)"/>
<path style="fill:none;stroke-width:1.2;stroke-linecap:butt;stroke-linejoin:miter;stroke:rgb(1.2%,66.3%,95.7%);stroke-opacity:1;stroke-miterlimit:10;" d="M 368 96 L 320 96 " transform="matrix(1,0,0,-1,-61,323)"/>
<path style="fill-rule:evenodd;fill:rgb(1.2%,66.3%,95.7%);fill-opacity:1;stroke-width:1.2;stroke-linecap:butt;stroke-linejoin:miter;stroke:rgb(1.2%,66.3%,95.7%);stroke-opacity:1;stroke-miterlimit:10;" d="M 320 96 L 325 94.335938 L 325 97.664062 Z M 320 96 " transform="matrix(1,0,0,-1,-61,323)"/>
<path style="fill:none;stroke-width:1.2;stroke-linecap:butt;stroke-linejoin:miter;stroke:rgb(1.2%,66.3%,95.7%);stroke-opacity:1;stroke-miterlimit:10;" d="M 304 96 L 256 96 " transform="matrix(1,0,0,-1,-61,323)"/>
<path style="fill-rule:evenodd;fill:rgb(1.2%,66.3%,95.7%);fill-opacity:1;stroke-width:1.2;stroke-linecap:butt;stroke-linejoin:miter;stroke:rgb(1.2%,66.3%,95.7%);stroke-opacity:1;stroke-miterlimit:10;" d="M 256 96 L 261 94.335938 L 261 97.664062 Z M 256 96 " transform="matrix(1,0,0,-1,-61,323)"/>
<path style="fill:none;stroke-width:1.2;stroke-linecap:butt;stroke-linejoin:miter;stroke:rgb(1.2%,66.3%,95.7%);stroke-opacity:1;stroke-miterlimit:10;" d="M 240 96 L 192 96 " transform="matrix(1,0,0,-1,-61,323)"/>
<path style="fill-rule:evenodd;fill:rgb(1.2%,66.3%,95.7%);fill-opacity:1;stroke-width:1.2;stroke-linecap:butt;stroke-linejoin:miter;stroke:rgb(1.2%,66.3%,95.7%);stroke-opacity:1;stroke-miterlimit:10;" d="M 192 96 L 197 94.335938 L 197 97.664062 Z M 192 96 " transform="matrix(1,0,0,-1,-61,323)"/>
<path style="fill:none;stroke-width:1.2;stroke-linecap:butt;stroke-linejoin:miter;stroke:rgb(1.2%,66.3%,95.7%);stroke-opacity:1;stroke-miterlimit:10;" d="M 176 96 L 128 96 " transform="matrix(1,0,0,-1,-61,323)"/>
<path style="fill-rule:evenodd;fill:rgb(1.2%,66.3%,95.7%);fill-opacity:1;stroke-width:1.2;stroke-linecap:butt;stroke-linejoin:miter;stroke:rgb(1.2%,66.3%,95.7%);stroke-opacity:1;stroke-miterlimit:10;" d="M 128 96 L 133 94.335938 L 133 97.664062 Z M 128 96 " transform="matrix(1,0,0,-1,-61,323)"/>
<path style="fill:none;stroke-width:1.2;stroke-linecap:butt;stroke-linejoin:miter;stroke:rgb(1.2%,66.3%,95.7%);stroke-opacity:1;stroke-miterlimit:10;" d="M 112 96 L 64 96 " transform="matrix(1,0,0,-1,-61,323)"/>
<path style="fill-rule:evenodd;fill:rgb(1.2%,66.3%,95.7%);fill-opacity:1;stroke-width:1.2;stroke-linecap:butt;stroke-linejoin:miter;stroke:rgb(1.2%,66.3%,95.7%);stroke-opacity:1;stroke-miterlimit:10;" d="M 64 96 L 69 94.335938 L 69 97.664062 Z M 64 96 " transform="matrix(1,0,0,-1,-61,323)"/>
<path style="fill:none;stroke-width:1.2;stroke-linecap:butt;stroke-linejoin:miter;stroke:rgb(1.2%,66.3%,95.7%);stroke-opacity:1;stroke-miterlimit:10;" d="M 432 64 L 368 64 " transform="matrix(1,0,0,-1,-61,323)"/>
<path style="fill-rule:evenodd;fill:rgb(1.2%,66.3%,95.7%);fill-opacity:1;stroke-width:1.2;stroke-linecap:butt;stroke-linejoin:miter;stroke:rgb(1.2%,66.3%,95.7%);stroke-opacity:1;stroke-miterlimit:10;" d="M 368 64 L 373 62.335938 L 373 65.664062 Z M 368 64 " transform="matrix(1,0,0,-1,-61,323)"/>
<path style="fill:none;stroke-width:1.2;stroke-linecap:butt;stroke-linejoin:miter;stroke:rgb(1.2%,66.3%,95.7%);stroke-opacity:1;stroke-miterlimit:10;" d="M 336 64 L 272 64 " transform="matrix(1,0,0,-1,-61,323)"/>
<path style="fill-rule:evenodd;fill:rgb(1.2%,66.3%,95.7%);fill-opacity:1;stroke-width:1.2;stroke-linecap:butt;stroke-linejoin:miter;stroke:rgb(1.2%,66.3%,95.7%);stroke-opacity:1;stroke-miterlimit:10;" d="M 272 64 L 277 62.335938 L 277 65.664062 Z M 272 64 " transform="matrix(1,0,0,-1,-61,323)"/>
<path style="fill:none;stroke-width:1.2;stroke-linecap:butt;stroke-linejoin:miter;stroke:rgb(1.2%,66.3%,95.7%);stroke-opacity:1;stroke-miterlimit:10;" d="M 224 64 L 160 64 " transform="matrix(1,0,0,-1,-61,323)"/>
<path style="fill-rule:evenodd;fill:rgb(1.2%,66.3%,95.7%);fill-opacity:1;stroke-width:1.2;stroke-linecap:butt;stroke-linejoin:miter;stroke:rgb(1.2%,66.3%,95.7%);stroke-opacity:1;stroke-miterlimit:10;" d="M 160 64 L 165 62.335938 L 165 65.664062 Z M 160 64 " transform="matrix(1,0,0,-1,-61,323)"/>
<path style="fill:none;stroke-width:1.2;stroke-linecap:butt;stroke-linejoin:miter;stroke:rgb(1.2%,66.3%,95.7%);stroke-opacity:1;stroke-miterlimit:10;" d="M 128 64 L 64 64 " transform="matrix(1,0,0,-1,-61,323)"/>
<path style="fill-rule:evenodd;fill:rgb(1.2%,66.3%,95.7%);fill-opacity:1;stroke-width:1.2;stroke-linecap:butt;stroke-linejoin:miter;stroke:rgb(1.2%,66.3%,95.7%);stroke-opacity:1;stroke-miterlimit:10;" d="M 64 64 L 69 62.335938 L 69 65.664062 Z M 64 64 " transform="matrix(1,0,0,-1,-61,323)"/>
<path style="fill:none;stroke-width:1.2;stroke-linecap:butt;stroke-linejoin:miter;stroke:rgb(1.2%,66.3%,95.7%);stroke-opacity:1;stroke-miterlimit:10;" d="M 64 224 L 80 224 " transform="matrix(1,0,0,-1,-61,323)"/>
<path style="fill-rule:evenodd;fill:rgb(1.2%,66.3%,95.7%);fill-opacity:1;stroke-width:1.2;stroke-linecap:butt;stroke-linejoin:miter;stroke:rgb(1.2%,66.3%,95.7%);stroke-opacity:1;stroke-miterlimit:10;" d="M 80 224 L 75 225.664062 L 75 222.335938 Z M 80 224 " transform="matrix(1,0,0,-1,-61,323)"/>
<path style="fill:none;stroke-width:1.2;stroke-linecap:butt;stroke-linejoin:miter;stroke:rgb(1.2%,66.3%,95.7%);stroke-opacity:1;stroke-miterlimit:10;" d="M 96 224 L 112 224 " transform="matrix(1,0,0,-1,-61,323)"/>
<path style="fill-rule:evenodd;fill:rgb(1.2%,66.3%,95.7%);fill-opacity:1;stroke-width:1.2;stroke-linecap:butt;stroke-linejoin:miter;stroke:rgb(1.2%,66.3%,95.7%);stroke-opacity:1;stroke-miterlimit:10;" d="M 112 224 L 107 225.664062 L 107 222.335938 Z M 112 224 " transform="matrix(1,0,0,-1,-61,323)"/>
<path style="fill:none;stroke-width:1.2;stroke-linecap:butt;stroke-linejoin:miter;stroke:rgb(1.2%,66.3%,95.7%);stroke-opacity:1;stroke-miterlimit:10;" d="M 128 224 L 144 224 " transform="matrix(1,0,0,-1,-61,323)"/>
<path style="fill-rule:evenodd;fill:rgb(1.2%,66.3%,95.7%);fill-opacity:1;stroke-width:1.2;stroke-linecap:butt;stroke-linejoin:miter;stroke:rgb(1.2%,66.3%,95.7%);stroke-opacity:1;stroke-miterlimit:10;" d="M 144 224 L 139 225.664062 L 139 222.335938 Z M 144 224 " transform="matrix(1,0,0,-1,-61,323)"/>
<path style="fill:none;stroke-width:1.2;stroke-linecap:butt;stroke-linejoin:miter;stroke:rgb(1.2%,66.3%,95.7%);stroke-opacity:1;stroke-miterlimit:10;" d="M 160 224 L 176 224 " transform="matrix(1,0,0,-1,-61,323)"/>
<path style="fill-rule:evenodd;fill:rgb(1.2%,66.3%,95.7%);fill-opacity:1;stroke-width:1.2;stroke-linecap:butt;stroke-linejoin:miter;stroke:rgb(1.2%,66.3%,95.7%);stroke-opacity:1;stroke-miterlimit:10;" d="M 176 224 L 171 225.664062 L 171 222.335938 Z M 176 224 " transform="matrix(1,0,0,-1,-61,323)"/>
<path style="fill:none;stroke-width:1.2;stroke-linecap:butt;stroke-linejoin:miter;stroke:rgb(1.2%,66.3%,95.7%);stroke-opacity:1;stroke-miterlimit:10;" d="M 192 224 L 208 224 " transform="matrix(1,0,0,-1,-61,323)"/>
<path style="fill-rule:evenodd;fill:rgb(1.2%,66.3%,95.7%);fill-opacity:1;stroke-width:1.2;stroke-linecap:butt;stroke-linejoin:miter;stroke:rgb(1.2%,66.3%,95.7%);stroke-opacity:1;stroke-miterlimit:10;" d="M 208 224 L 203 225.664062 L 203 222.335938 Z M 208 224 " transform="matrix(1,0,0,-1,-61,323)"/>
<path style="fill:none;stroke-width:1.2;stroke-linecap:butt;stroke-linejoin:miter;stroke:rgb(1.2%,66.3%,95.7%);stroke-opacity:1;stroke-miterlimit:10;" d="M 224 224 L 240 224 " transform="matrix(1,0,0,-1,-61,323)"/>
<path style="fill-rule:evenodd;fill:rgb(1.2%,66.3%,95.7%);fill-opacity:1;stroke-width:1.2;stroke-linecap:butt;stroke-linejoin:miter;stroke:rgb(1.2%,66.3%,95.7%);stroke-opacity:1;stroke-miterlimit:10;" d="M 240 224 L 235 225.664062 L 235 222.335938 Z M 240 224 " transform="matrix(1,0,0,-1,-61,323)"/>
<path style="fill:none;stroke-width:1.2;stroke-linecap:butt;stroke-linejoin:miter;stroke:rgb(1.2%,66.3%,95.7%);stroke-opacity:1;stroke-miterlimit:10;" d="M 256 224 L 272 224 " transform="matrix(1,0,0,-1,-61,323)"/>
<path style="fill-rule:evenodd;fill:rgb(1.2%,66.3%,95.7%);fill-opacity:1;stroke-width:1.2;stroke-linecap:butt;stroke-linejoin:miter;stroke:rgb(1.2%,66.3%,95.7%);stroke-opacity:1;stroke-miterlimit:10;" d="M 272 224 L 267 225.664062 L 267 222.335938 Z M 272 224 " transform="matrix(1,0,0,-1,-61,323)"/>
<path style="fill:none;stroke-width:1.2;stroke-linecap:butt;stroke-linejoin:miter;stroke:rgb(1.2%,66.3%,95.7%);stroke-opacity:1;stroke-miterlimit:10;" d="M 288 224 L 304 224 " transform="matrix(1,0,0,-1,-61,323)"/>
<path style="fill-rule:evenodd;fill:rgb(1.2%,66.3%,95.7%);fill-opacity:1;stroke-width:1.2;stroke-linecap:butt;stroke-linejoin:miter;stroke:rgb(1.2%,66.3%,95.7%);stroke-opacity:1;stroke-miterlimit:10;" d="M 304 224 L 299 225.664062 L 299 222.335938 Z M 304 224 " transform="matrix(1,0,0,-1,-61,323)"/>
<path style="fill:none;stroke-width:1.2;stroke-linecap:butt;stroke-linejoin:miter;stroke:rgb(1.2%,66.3%,95.7%);stroke-opacity:1;stroke-miterlimit:10;" d="M 320 224 L 336 224 " transform="matrix(1,0,0,-1,-61,323)"/>
<path style="fill-rule:evenodd;fill:rgb(1.2%,66.3%,95.7%);fill-opacity:1;stroke-width:1.2;stroke-linecap:butt;stroke-linejoin:miter;stroke:rgb(1.2%,66.3%,95.7%);stroke-opacity:1;stroke-miterlimit:10;" d="M 336 224 L 331 225.664062 L 331 222.335938 Z M 336 224 " transform="matrix(1,0,0,-1,-61,323)"/>
<path style="fill:none;stroke-width:1.2;stroke-linecap:butt;stroke-linejoin:miter;stroke:rgb(1.2%,66.3%,95.7%);stroke-opacity:1;stroke-miterlimit:10;" d="M 352 224 L 368 224 " transform="matrix(1,0,0,-1,-61,323)"/>
<path style="fill-rule:evenodd;fill:rgb(1.2%,66.3%,95.7%);fill-opacity:1;stroke-width:1.2;stroke-linecap:butt;stroke-linejoin:miter;stroke:rgb(1.2%,66.3%,95.7%);stroke-opacity:1;stroke-miterlimit:10;" d="M 368 224 L 363 225.664062 L 363 222.335938 Z M 368 224 " transform="matrix(1,0,0,-1,-61,323)"/>
<path style="fill:none;stroke-width:1.2;stroke-linecap:butt;stroke-linejoin:miter;stroke:rgb(1.2%,66.3%,95.7%);stroke-opacity:1;stroke-miterlimit:10;" d="M 384 224 L 400 224 " transform="matrix(1,0,0,-1,-61,323)"/>
<path style="fill-rule:evenodd;fill:rgb(1.2%,66.3%,95.7%);fill-opacity:1;stroke-width:1.2;stroke-linecap:butt;stroke-linejoin:miter;stroke:rgb(1.2%,66.3%,95.7%);stroke-opacity:1;stroke-miterlimit:10;" d="M 400 224 L 395 225.664062 L 395 222.335938 Z M 400 224 " transform="matrix(1,0,0,-1,-61,323)"/>
<path style="fill:none;stroke-width:1.2;stroke-linecap:butt;stroke-linejoin:miter;stroke:rgb(1.2%,66.3%,95.7%);stroke-opacity:1;stroke-miterlimit:10;" d="M 416 224 L 432 224 " transform="matrix(1,0,0,-1,-61,323)"/>
<path style="fill-rule:evenodd;fill:rgb(1.2%,66.3%,95.7%);fill-opacity:1;stroke-width:1.2;stroke-linecap:butt;stroke-linejoin:miter;stroke:rgb(1.2%,66.3%,95.7%);stroke-opacity:1;stroke-miterlimit:10;" d="M 432 224 L 427 225.664062 L 427 222.335938 Z M 432 224 " transform="matrix(1,0,0,-1,-61,323)"/>
<path style="fill:none;stroke-width:1.2;stroke-linecap:butt;stroke-linejoin:miter;stroke:rgb(1.2%,66.3%,95.7%);stroke-opacity:1;stroke-miterlimit:10;" d="M 64 256 L 96 256 " transform="matrix(1,0,0,-1,-61,323)"/>
<path style="fill-rule:evenodd;fill:rgb(1.2%,66.3%,95.7%);fill-opacity:1;stroke-width:1.2;stroke-linecap:butt;stroke-linejoin:miter;stroke:rgb(1.2%,66.3%,95.7%);stroke-opacity:1;stroke-miterlimit:10;" d="M 96 256 L 91 257.664062 L 91 254.335938 Z M 96 256 " transform="matrix(1,0,0,-1,-61,323)"/>
<path style="fill:none;stroke-width:1.2;stroke-linecap:butt;stroke-linejoin:miter;stroke:rgb(1.2%,66.3%,95.7%);stroke-opacity:1;stroke-miterlimit:10;" d="M 112 256 L 144 256 " transform="matrix(1,0,0,-1,-61,323)"/>
<path style="fill-rule:evenodd;fill:rgb(1.2%,66.3%,95.7%);fill-opacity:1;stroke-width:1.2;stroke-linecap:butt;stroke-linejoin:miter;stroke:rgb(1.2%,66.3%,95.7%);stroke-opacity:1;stroke-miterlimit:10;" d="M 144 256 L 139 257.664062 L 139 254.335938 Z M 144 256 " transform="matrix(1,0,0,-1,-61,323)"/>
<path style="fill:none;stroke-width:1.2;stroke-linecap:butt;stroke-linejoin:miter;stroke:rgb(1.2%,66.3%,95.7%);stroke-opacity:1;stroke-miterlimit:10;" d="M 160 256 L 192 256 " transform="matrix(1,0,0,-1,-61,323)"/>
<path style="fill-rule:evenodd;fill:rgb(1.2%,66.3%,95.7%);fill-opacity:1;stroke-width:1.2;stroke-linecap:butt;stroke-linejoin:miter;stroke:rgb(1.2%,66.3%,95.7%);stroke-opacity:1;stroke-miterlimit:10;" d="M 192 256 L 187 257.664062 L 187 254.335938 Z M 192 256 " transform="matrix(1,0,0,-1,-61,323)"/>
<path style="fill:none;stroke-width:1.2;stroke-linecap:butt;stroke-linejoin:miter;stroke:rgb(1.2%,66.3%,95.7%);stroke-opacity:1;stroke-miterlimit:10;" d="M 208 256 L 240 256 " transform="matrix(1,0,0,-1,-61,323)"/>
<path style="fill-rule:evenodd;fill:rgb(1.2%,66.3%,95.7%);fill-opacity:1;stroke-width:1.2;stroke-linecap:butt;stroke-linejoin:miter;stroke:rgb(1.2%,66.3%,95.7%);stroke-opacity:1;stroke-miterlimit:10;" d="M 240 256 L 235 257.664062 L 235 254.335938 Z M 240 256 " transform="matrix(1,0,0,-1,-61,323)"/>
<path style="fill:none;stroke-width:1.2;stroke-linecap:butt;stroke-linejoin:miter;stroke:rgb(1.2%,66.3%,95.7%);stroke-opacity:1;stroke-miterlimit:10;" d="M 256 256 L 288 256 " transform="matrix(1,0,0,-1,-61,323)"/>
<path style="fill-rule:evenodd;fill:rgb(1.2%,66.3%,95.7%);fill-opacity:1;stroke-width:1.2;stroke-linecap:butt;stroke-linejoin:miter;stroke:rgb(1.2%,66.3%,95.7%);stroke-opacity:1;stroke-miterlimit:10;" d="M 288 256 L 283 257.664062 L 283 254.335938 Z M 288 256 " transform="matrix(1,0,0,-1,-61,323)"/>
<path style="fill:none;stroke-width:1.2;stroke-linecap:butt;stroke-linejoin:miter;stroke:rgb(1.2%,66.3%,95.7%);stroke-opacity:1;stroke-miterlimit:10;" d="M 304 256 L 336 256 " transform="matrix(1,0,0,-1,-61,323)"/>
<path style="fill-rule:evenodd;fill:rgb(1.2%,66.3%,95.7%);fill-opacity:1;stroke-width:1.2;stroke-linecap:butt;stroke-linejoin:miter;stroke:rgb(1.2%,66.3%,95.7%);stroke-opacity:1;stroke-miterlimit:10;" d="M 336 256 L 331 257.664062 L 331 254.335938 Z M 336 256 " transform="matrix(1,0,0,-1,-61,323)"/>
<path style="fill:none;stroke-width:1.2;stroke-linecap:butt;stroke-linejoin:miter;stroke:rgb(1.2%,66.3%,95.7%);stroke-opacity:1;stroke-miterlimit:10;" d="M 352 256 L 384 256 " transform="matrix(1,0,0,-1,-61,323)"/>
<path style="fill-rule:evenodd;fill:rgb(1.2%,66.3%,95.7%);fill-opacity:1;stroke-width:1.2;stroke-linecap:butt;stroke-linejoin:miter;stroke:rgb(1.2%,66.3%,95.7%);stroke-opacity:1;stroke-miterlimit:10;" d="M 384 256 L 379 257.664062 L 379 254.335938 Z M 384 256 " transform="matrix(1,0,0,-1,-61,323)"/>
<path style="fill:none;stroke-width:1.2;stroke-linecap:butt;stroke-linejoin:miter;stroke:rgb(1.2%,66.3%,95.7%);stroke-opacity:1;stroke-miterlimit:10;" d="M 400 256 L 432 256 " transform="matrix(1,0,0,-1,-61,323)"/>
<path style="fill-rule:evenodd;fill:rgb(1.2%,66.3%,95.7%);fill-opacity:1;stroke-width:1.2;stroke-linecap:butt;stroke-linejoin:miter;stroke:rgb(1.2%,66.3%,95.7%);stroke-opacity:1;stroke-miterlimit:10;" d="M 432 256 L 427 257.664062 L 427 254.335938 Z M 432 256 " transform="matrix(1,0,0,-1,-61,323)"/>
<path style="fill:none;stroke-width:1.2;stroke-linecap:butt;stroke-linejoin:miter;stroke:rgb(1.2%,66.3%,95.7%);stroke-opacity:1;stroke-miterlimit:10;" d="M 64 288 L 112 288 " transform="matrix(1,0,0,-1,-61,323)"/>
<path style="fill-rule:evenodd;fill:rgb(1.2%,66.3%,95.7%);fill-opacity:1;stroke-width:1.2;stroke-linecap:butt;stroke-linejoin:miter;stroke:rgb(1.2%,66.3%,95.7%);stroke-opacity:1;stroke-miterlimit:10;" d="M 112 288 L 107 289.664062 L 107 286.335938 Z M 112 288 " transform="matrix(1,0,0,-1,-61,323)"/>
<path style="fill:none;stroke-width:1.2;stroke-linecap:butt;stroke-linejoin:miter;stroke:rgb(1.2%,66.3%,95.7%);stroke-opacity:1;stroke-miterlimit:10;" d="M 128 288 L 176 288 " transform="matrix(1,0,0,-1,-61,323)"/>
<path style="fill-rule:evenodd;fill:rgb(1.2%,66.3%,95.7%);fill-opacity:1;stroke-width:1.2;stroke-linecap:butt;stroke-linejoin:miter;stroke:rgb(1.2%,66.3%,95.7%);stroke-opacity:1;stroke-miterlimit:10;" d="M 176 288 L 171 289.664062 L 171 286.335938 Z M 176 288 " transform="matrix(1,0,0,-1,-61,323)"/>
<path style="fill:none;stroke-width:1.2;stroke-linecap:butt;stroke-linejoin:miter;stroke:rgb(1.2%,66.3%,95.7%);stroke-opacity:1;stroke-miterlimit:10;" d="M 192 288 L 240 288 " transform="matrix(1,0,0,-1,-61,323)"/>
<path style="fill-rule:evenodd;fill:rgb(1.2%,66.3%,95.7%);fill-opacity:1;stroke-width:1.2;stroke-linecap:butt;stroke-linejoin:miter;stroke:rgb(1.2%,66.3%,95.7%);stroke-opacity:1;stroke-miterlimit:10;" d="M 240 288 L 235 289.664062 L 235 286.335938 Z M 240 288 " transform="matrix(1,0,0,-1,-61,323)"/>
<path style="fill:none;stroke-width:1.2;stroke-linecap:butt;stroke-linejoin:miter;stroke:rgb(1.2%,66.3%,95.7%);stroke-opacity:1;stroke-miterlimit:10;" d="M 256 288 L 304 288 " transform="matrix(1,0,0,-1,-61,323)"/>
<path style="fill-rule:evenodd;fill:rgb(1.2%,66.3%,95.7%);fill-opacity:1;stroke-width:1.2;stroke-linecap:butt;stroke-linejoin:miter;stroke:rgb(1.2%,66.3%,95.7%);stroke-opacity:1;stroke-miterlimit:10;" d="M 304 288 L 299 289.664062 L 299 286.335938 Z M 304 288 " transform="matrix(1,0,0,-1,-61,323)"/>
<path style="fill:none;stroke-width:1.2;stroke-linecap:butt;stroke-linejoin:miter;stroke:rgb(1.2%,66.3%,95.7%);stroke-opacity:1;stroke-miterlimit:10;" d="M 320 288 L 368 288 " transform="matrix(1,0,0,-1,-61,323)"/>
<path style="fill-rule:evenodd;fill:rgb(1.2%,66.3%,95.7%);fill-opacity:1;stroke-width:1.2;stroke-linecap:butt;stroke-linejoin:miter;stroke:rgb(1.2%,66.3%,95.7%);stroke-opacity:1;stroke-miterlimit:10;" d="M 368 288 L 363 289.664062 L 363 286.335938 Z M 368 288 " transform="matrix(1,0,0,-1,-61,323)"/>
<path style="fill:none;stroke-width:1.2;stroke-linecap:butt;stroke-linejoin:miter;stroke:rgb(1.2%,66.3%,95.7%);stroke-opacity:1;stroke-miterlimit:10;" d="M 384 288 L 432 288 " transform="matrix(1,0,0,-1,-61,323)"/>
<path style="fill-rule:evenodd;fill:rgb(1.2%,66.3%,95.7%);fill-opacity:1;stroke-width:1.2;stroke-linecap:butt;stroke-linejoin:miter;stroke:rgb(1.2%,66.3%,95.7%);stroke-opacity:1;stroke-miterlimit:10;" d="M 432 288 L 427 289.664062 L 427 286.335938 Z M 432 288 " transform="matrix(1,0,0,-1,-61,323)"/>
<path style="fill:none;stroke-width:1.2;stroke-linecap:butt;stroke-linejoin:miter;stroke:rgb(1.2%,66.3%,95.7%);stroke-opacity:1;stroke-miterlimit:10;" d="M 64 320 L 128 320 " transform="matrix(1,0,0,-1,-61,323)"/>
<path style="fill-rule:evenodd;fill:rgb(1.2%,66.3%,95.7%);fill-opacity:1;stroke-width:1.2;stroke-linecap:butt;stroke-linejoin:miter;stroke:rgb(1.2%,66.3%,95.7%);stroke-opacity:1;stroke-miterlimit:10;" d="M 128 320 L 123 321.664062 L 123 318.335938 Z M 128 320 " transform="matrix(1,0,0,-1,-61,323)"/>
<path style="fill:none;stroke-width:1.2;stroke-linecap:butt;stroke-linejoin:miter;stroke:rgb(1.2%,66.3%,95.7%);stroke-opacity:1;stroke-miterlimit:10;" d="M 160 320 L 224 320 " transform="matrix(1,0,0,-1,-61,323)"/>
<path style="fill-rule:evenodd;fill:rgb(1.2%,66.3%,95.7%);fill-opacity:1;stroke-width:1.2;stroke-linecap:butt;stroke-linejoin:miter;stroke:rgb(1.2%,66.3%,95.7%);stroke-opacity:1;stroke-miterlimit:10;" d="M 224 320 L 219 321.664062 L 219 318.335938 Z M 224 320 " transform="matrix(1,0,0,-1,-61,323)"/>
<path style="fill:none;stroke-width:1.2;stroke-linecap:butt;stroke-linejoin:miter;stroke:rgb(1.2%,66.3%,95.7%);stroke-opacity:1;stroke-miterlimit:10;" d="M 272 320 L 336 320 " transform="matrix(1,0,0,-1,-61,323)"/>
<path style="fill-rule:evenodd;fill:rgb(1.2%,66.3%,95.7%);fill-opacity:1;stroke-width:1.2;stroke-linecap:butt;stroke-linejoin:miter;stroke:rgb(1.2%,66.3%,95.7%);stroke-opacity:1;stroke-miterlimit:10;" d="M 336 320 L 331 321.664062 L 331 318.335938 Z M 336 320 " transform="matrix(1,0,0,-1,-61,323)"/>
<path style="fill:none;stroke-width:1.2;stroke-linecap:butt;stroke-linejoin:miter;stroke:rgb(1.2%,66.3%,95.7%);stroke-opacity:1;stroke-miterlimit:10;" d="M 368 320 L 432 320 " transform="matrix(1,0,0,-1,-61,323)"/>
<path style="fill-rule:evenodd;fill:rgb(1.2%,66.3%,95.7%);fill-opacity:1;stroke-width:1.2;stroke-linecap:butt;stroke-linejoin:miter;stroke:rgb(1.2%,66.3%,95.7%);stroke-opacity:1;stroke-miterlimit:10;" d="M 432 320 L 427 321.664062 L 427 318.335938 Z M 432 320 " transform="matrix(1,0,0,-1,-61,323)"/>
<path style="fill:none;stroke-width:3;stroke-linecap:butt;stroke-linejoin:miter;stroke:rgb(100%,100%,100%);stroke-opacity:1;stroke-miterlimit:10;" d="M 380.460938 287.933594 C 384.761719 280.492188 396.675781 272.882812 406.765625 277.183594 C 416.855469 281.484375 425.128906 297.695312 420.828125 305.140625 C 416.523438 312.582031 399.652344 311.261719 389.5625 306.960938 C 379.46875 302.660156 376.160156 295.378906 380.460938 287.933594 Z M 380.460938 287.933594 " transform="matrix(1,0,0,-1,-61,323)"/>
<path style="fill:none;stroke-width:3;stroke-linecap:butt;stroke-linejoin:miter;stroke:rgb(100%,100%,100%);stroke-opacity:1;stroke-miterlimit:10;" d="M 380.648438 287.617188 C 380.648438 287.617188 380.648438 287.617188 380.945312 287.207031 C 381.238281 286.796875 381.832031 285.972656 382.65625 285.03125 C 383.480469 284.085938 384.535156 283.023438 385.652344 282.070312 C 386.769531 281.113281 387.941406 280.269531 389.472656 279.414062 C 391.007812 278.558594 392.902344 277.699219 393.847656 277.265625 C 394.792969 276.835938 394.792969 276.835938 394.792969 276.835938 " transform="matrix(1,0,0,-1,-61,323)"/>
<path style="fill-rule:evenodd;fill:rgb(100%,100%,100%);fill-opacity:1;stroke-width:3;stroke-linecap:butt;stroke-linejoin:miter;stroke:rgb(100%,100%,100%);stroke-opacity:1;stroke-miterlimit:10;" d="M 394.792969 276.835938 L 389.386719 281.855469 L 387.457031 277.613281 Z M 394.792969 276.835938 " transform="matrix(1,0,0,-1,-61,323)"/>
<path style="fill:none;stroke-width:3;stroke-linecap:round;stroke-linejoin:miter;stroke:rgb(100%,100%,100%);stroke-opacity:1;stroke-miterlimit:10;" d="M 96 192 C 96 192 96 192 99.832031 198 C 103.667969 204 111.335938 215.996094 119.667969 225.996094 C 128.003906 235.996094 137.003906 243.996094 147.835938 251.328125 C 158.667969 258.660156 171.335938 265.328125 187.167969 269.828125 C 203 274.328125 222 276.660156 240.5 277.996094 C 259 279.328125 277 279.660156 293.5 278.328125 C 310 276.996094 325 273.996094 338.164062 266.660156 C 351.332031 259.328125 362.664062 247.660156 371.15625 237.269531 C 379.648438 226.875 385.296875 217.753906 388.121094 213.191406 C 390.945312 208.632812 390.945312 208.632812 390.945312 208.632812 " transform="matrix(1,0,0,-1,-61,323)"/>
<path style="fill-rule:evenodd;fill:rgb(100%,100%,100%);fill-opacity:1;stroke-width:3;stroke-linecap:round;stroke-linejoin:miter;stroke:rgb(100%,100%,100%);stroke-opacity:1;stroke-miterlimit:10;" d="M 390.945312 208.632812 L 389.242188 215.808594 L 385.277344 213.355469 Z M 390.945312 208.632812 " transform="matrix(1,0,0,-1,-61,323)"/>
<path style="fill:none;stroke-width:3;stroke-linecap:round;stroke-linejoin:miter;stroke:rgb(100%,100%,100%);stroke-opacity:1;stroke-miterlimit:10;" d="M 96 192 C 96 192 96 192 102.332031 196.5 C 108.667969 201 121.335938 209.996094 136.335938 217.164062 C 151.335938 224.328125 168.667969 229.660156 185.667969 233.328125 C 202.667969 236.996094 219.335938 238.996094 237.167969 239.660156 C 255 240.328125 274 239.660156 293 236.996094 C 312 234.328125 331 229.664062 344.5 224.664062 C 358 219.664062 366 214.328125 371.695312 210.527344 C 377.390625 206.726562 380.785156 204.460938 382.480469 203.324219 C 384.179688 202.191406 384.179688 202.191406 384.179688 202.191406 " transform="matrix(1,0,0,-1,-61,323)"/>
<path style="fill-rule:evenodd;fill:rgb(100%,100%,100%);fill-opacity:1;stroke-width:3;stroke-linecap:round;stroke-linejoin:miter;stroke:rgb(100%,100%,100%);stroke-opacity:1;stroke-miterlimit:10;" d="M 384.179688 202.191406 L 379.65625 208.019531 L 377.0625 204.144531 Z M 384.179688 202.191406 " transform="matrix(1,0,0,-1,-61,323)"/>
<path style="fill:none;stroke-width:3;stroke-linecap:round;stroke-linejoin:miter;stroke:rgb(100%,100%,100%);stroke-opacity:1;stroke-miterlimit:10;" d="M 96 192 C 96 192 96 192 106.667969 193.332031 C 117.335938 194.664062 138.667969 197.332031 158.835938 198.828125 C 179 200.328125 198 200.664062 222 200.996094 C 246 201.328125 275 201.664062 300.832031 200.996094 C 326.667969 200.328125 349.332031 198.664062 362.453125 197.53125 C 375.578125 196.398438 379.15625 195.796875 380.945312 195.5 C 382.734375 195.199219 382.734375 195.199219 382.734375 195.199219 " transform="matrix(1,0,0,-1,-61,323)"/>
<path style="fill-rule:evenodd;fill:rgb(100%,100%,100%);fill-opacity:1;stroke-width:3;stroke-linecap:round;stroke-linejoin:miter;stroke:rgb(100%,100%,100%);stroke-opacity:1;stroke-miterlimit:10;" d="M 382.734375 195.199219 L 376.214844 198.652344 L 375.445312 194.054688 Z M 382.734375 195.199219 " transform="matrix(1,0,0,-1,-61,323)"/>
<path style="fill:none;stroke-width:3;stroke-linecap:round;stroke-linejoin:miter;stroke:rgb(100%,100%,100%);stroke-opacity:1;stroke-miterlimit:10;" d="M 96 192 C 96 192 96 192 105.5 188.5 C 115 185 134 177.996094 159.667969 173.664062 C 185.335938 169.328125 217.667969 167.664062 243.335938 168.164062 C 269 168.664062 288 171.328125 310.296875 175.15625 C 332.59375 178.984375 358.183594 183.96875 370.980469 186.464844 C 383.777344 188.957031 383.777344 188.957031 383.777344 188.957031 " transform="matrix(1,0,0,-1,-61,323)"/>
<path style="fill-rule:evenodd;fill:rgb(100%,100%,100%);fill-opacity:1;stroke-width:3;stroke-linecap:round;stroke-linejoin:miter;stroke:rgb(100%,100%,100%);stroke-opacity:1;stroke-miterlimit:10;" d="M 383.777344 188.957031 L 376.460938 189.90625 L 377.351562 185.332031 Z M 383.777344 188.957031 " transform="matrix(1,0,0,-1,-61,323)"/>
<path style="fill:none;stroke-width:3;stroke-linecap:round;stroke-linejoin:miter;stroke:rgb(100%,100%,100%);stroke-opacity:1;stroke-miterlimit:10;" d="M 96 192 C 96 192 96 192 106 182.167969 C 116 172.332031 136 152.664062 157.835938 140.664062 C 179.667969 128.664062 203.335938 124.332031 226 123.164062 C 248.667969 121.996094 270.332031 123.996094 290.667969 128.996094 C 311 133.996094 330 141.996094 345.859375 151.304688 C 361.71875 160.613281 374.433594 171.230469 380.792969 176.539062 C 387.152344 181.847656 387.152344 181.847656 387.152344 181.847656 " transform="matrix(1,0,0,-1,-61,323)"/>
<path style="fill-rule:evenodd;fill:rgb(100%,100%,100%);fill-opacity:1;stroke-width:3;stroke-linecap:round;stroke-linejoin:miter;stroke:rgb(100%,100%,100%);stroke-opacity:1;stroke-miterlimit:10;" d="M 387.152344 181.847656 L 380.285156 179.152344 L 383.273438 175.570312 Z M 387.152344 181.847656 " transform="matrix(1,0,0,-1,-61,323)"/>
<path style=" stroke:none;fill-rule:evenodd;fill:rgb(1.2%,66.3%,95.7%);fill-opacity:1;" d="M 4.800781 131 C 4.800781 128.601562 1.199219 128.601562 1.199219 131 C 1.199219 133.398438 4.800781 133.398438 4.800781 131 Z M 4.800781 131 "/>
<path style=" stroke:none;fill-rule:evenodd;fill:rgb(1.2%,66.3%,95.7%);fill-opacity:1;" d="M 20.800781 131 C 20.800781 128.601562 17.199219 128.601562 17.199219 131 C 17.199219 133.398438 20.800781 133.398438 20.800781 131 Z M 20.800781 131 "/>
<path style=" stroke:none;fill-rule:evenodd;fill:rgb(1.2%,66.3%,95.7%);fill-opacity:1;" d="M 52.800781 131 C 52.800781 128.601562 49.199219 128.601562 49.199219 131 C 49.199219 133.398438 52.800781 133.398438 52.800781 131 Z M 52.800781 131 "/>
<path style=" stroke:none;fill-rule:evenodd;fill:rgb(1.2%,66.3%,95.7%);fill-opacity:1;" d="M 68.800781 131 C 68.800781 128.601562 65.199219 128.601562 65.199219 131 C 65.199219 133.398438 68.800781 133.398438 68.800781 131 Z M 68.800781 131 "/>
<path style=" stroke:none;fill-rule:evenodd;fill:rgb(1.2%,66.3%,95.7%);fill-opacity:1;" d="M 84.800781 131 C 84.800781 128.601562 81.199219 128.601562 81.199219 131 C 81.199219 133.398438 84.800781 133.398438 84.800781 131 Z M 84.800781 131 "/>
<path style=" stroke:none;fill-rule:evenodd;fill:rgb(1.2%,66.3%,95.7%);fill-opacity:1;" d="M 100.800781 131 C 100.800781 128.601562 97.199219 128.601562 97.199219 131 C 97.199219 133.398438 100.800781 133.398438 100.800781 131 Z M 100.800781 131 "/>
<path style=" stroke:none;fill-rule:evenodd;fill:rgb(1.2%,66.3%,95.7%);fill-opacity:1;" d="M 116.800781 131 C 116.800781 128.601562 113.199219 128.601562 113.199219 131 C 113.199219 133.398438 116.800781 133.398438 116.800781 131 Z M 116.800781 131 "/>
<path style=" stroke:none;fill-rule:evenodd;fill:rgb(1.2%,66.3%,95.7%);fill-opacity:1;" d="M 132.800781 131 C 132.800781 128.601562 129.199219 128.601562 129.199219 131 C 129.199219 133.398438 132.800781 133.398438 132.800781 131 Z M 132.800781 131 "/>
<path style=" stroke:none;fill-rule:evenodd;fill:rgb(1.2%,66.3%,95.7%);fill-opacity:1;" d="M 148.800781 131 C 148.800781 128.601562 145.199219 128.601562 145.199219 131 C 145.199219 133.398438 148.800781 133.398438 148.800781 131 Z M 148.800781 131 "/>
<path style=" stroke:none;fill-rule:evenodd;fill:rgb(1.2%,66.3%,95.7%);fill-opacity:1;" d="M 164.800781 131 C 164.800781 128.601562 161.199219 128.601562 161.199219 131 C 161.199219 133.398438 164.800781 133.398438 164.800781 131 Z M 164.800781 131 "/>
<path style=" stroke:none;fill-rule:evenodd;fill:rgb(1.2%,66.3%,95.7%);fill-opacity:1;" d="M 180.800781 131 C 180.800781 128.601562 177.199219 128.601562 177.199219 131 C 177.199219 133.398438 180.800781 133.398438 180.800781 131 Z M 180.800781 131 "/>
<path style=" stroke:none;fill-rule:evenodd;fill:rgb(1.2%,66.3%,95.7%);fill-opacity:1;" d="M 196.800781 131 C 196.800781 128.601562 193.199219 128.601562 193.199219 131 C 193.199219 133.398438 196.800781 133.398438 196.800781 131 Z M 196.800781 131 "/>
<path style=" stroke:none;fill-rule:evenodd;fill:rgb(1.2%,66.3%,95.7%);fill-opacity:1;" d="M 212.800781 131 C 212.800781 128.601562 209.199219 128.601562 209.199219 131 C 209.199219 133.398438 212.800781 133.398438 212.800781 131 Z M 212.800781 131 "/>
<path style=" stroke:none;fill-rule:evenodd;fill:rgb(1.2%,66.3%,95.7%);fill-opacity:1;" d="M 228.800781 131 C 228.800781 128.601562 225.199219 128.601562 225.199219 131 C 225.199219 133.398438 228.800781 133.398438 228.800781 131 Z M 228.800781 131 "/>
<path style=" stroke:none;fill-rule:evenodd;fill:rgb(1.2%,66.3%,95.7%);fill-opacity:1;" d="M 244.800781 131 C 244.800781 128.601562 241.199219 128.601562 241.199219 131 C 241.199219 133.398438 244.800781 133.398438 244.800781 131 Z M 244.800781 131 "/>
<path style=" stroke:none;fill-rule:evenodd;fill:rgb(1.2%,66.3%,95.7%);fill-opacity:1;" d="M 260.800781 131 C 260.800781 128.601562 257.199219 128.601562 257.199219 131 C 257.199219 133.398438 260.800781 133.398438 260.800781 131 Z M 260.800781 131 "/>
<path style=" stroke:none;fill-rule:evenodd;fill:rgb(1.2%,66.3%,95.7%);fill-opacity:1;" d="M 276.800781 131 C 276.800781 128.601562 273.199219 128.601562 273.199219 131 C 273.199219 133.398438 276.800781 133.398438 276.800781 131 Z M 276.800781 131 "/>
<path style=" stroke:none;fill-rule:evenodd;fill:rgb(1.2%,66.3%,95.7%);fill-opacity:1;" d="M 292.800781 131 C 292.800781 128.601562 289.199219 128.601562 289.199219 131 C 289.199219 133.398438 292.800781 133.398438 292.800781 131 Z M 292.800781 131 "/>
<path style=" stroke:none;fill-rule:evenodd;fill:rgb(1.2%,66.3%,95.7%);fill-opacity:1;" d="M 308.800781 131 C 308.800781 128.601562 305.199219 128.601562 305.199219 131 C 305.199219 133.398438 308.800781 133.398438 308.800781 131 Z M 308.800781 131 "/>
<path style=" stroke:none;fill-rule:evenodd;fill:rgb(1.2%,66.3%,95.7%);fill-opacity:1;" d="M 340.800781 131 C 340.800781 128.601562 337.199219 128.601562 337.199219 131 C 337.199219 133.398438 340.800781 133.398438 340.800781 131 Z M 340.800781 131 "/>
<path style=" stroke:none;fill-rule:evenodd;fill:rgb(1.2%,66.3%,95.7%);fill-opacity:1;" d="M 356.800781 131 C 356.800781 128.601562 353.199219 128.601562 353.199219 131 C 353.199219 133.398438 356.800781 133.398438 356.800781 131 Z M 356.800781 131 "/>
<path style=" stroke:none;fill-rule:evenodd;fill:rgb(1.2%,66.3%,95.7%);fill-opacity:1;" d="M 372.800781 131 C 372.800781 128.601562 369.199219 128.601562 369.199219 131 C 369.199219 133.398438 372.800781 133.398438 372.800781 131 Z M 372.800781 131 "/>
</g>
</svg>
