<?xml version="1.0" encoding="UTF-8"?>
<svg xmlns="http://www.w3.org/2000/svg" xmlns:xlink="http://www.w3.org/1999/xlink" width="546pt" height="259pt" viewBox="0 0 546 259" version="1.1">
<g id="surface13682">
<path style="fill-rule:evenodd;fill:rgb(0%,73.7%,83.1%);fill-opacity:1;stroke-width:0.8;stroke-linecap:butt;stroke-linejoin:round;stroke:rgb(12.9%,12.9%,12.9%);stroke-opacity:1;stroke-miterlimit:10;" d="M 144 640 L 144 512 L 161.148438 576 Z M 144 640 " transform="matrix(1,0,0,-1,-14,642)"/>
<path style="fill-rule:evenodd;fill:rgb(0%,73.7%,83.1%);fill-opacity:1;stroke-width:0.8;stroke-linecap:butt;stroke-linejoin:round;stroke:rgb(12.9%,12.9%,12.9%);stroke-opacity:1;stroke-miterlimit:10;" d="M 161.148438 576 L 144 512 L 208 622.851562 Z M 161.148438 576 " transform="matrix(1,0,0,-1,-14,642)"/>
<path style="fill-rule:evenodd;fill:rgb(0%,73.7%,83.1%);fill-opacity:1;stroke-width:0.8;stroke-linecap:butt;stroke-linejoin:round;stroke:rgb(12.9%,12.9%,12.9%);stroke-opacity:1;stroke-miterlimit:10;" d="M 208 622.851562 L 144 512 L 190.851562 558.851562 Z M 208 622.851562 " transform="matrix(1,0,0,-1,-14,642)"/>
<path style="fill-rule:evenodd;fill:rgb(0%,73.7%,83.1%);fill-opacity:1;stroke-width:0.8;stroke-linecap:butt;stroke-linejoin:round;stroke:rgb(12.9%,12.9%,12.9%);stroke-opacity:1;stroke-miterlimit:10;" d="M 190.851562 558.851562 L 144 512 L 254.851562 576 Z M 190.851562 558.851562 " transform="matrix(1,0,0,-1,-14,642)"/>
<path style="fill-rule:evenodd;fill:rgb(0%,73.7%,83.1%);fill-opacity:1;stroke-width:0.8;stroke-linecap:butt;stroke-linejoin:round;stroke:rgb(12.9%,12.9%,12.9%);stroke-opacity:1;stroke-miterlimit:10;" d="M 254.851562 576 L 144 512 L 208 529.148438 Z M 254.851562 576 " transform="matrix(1,0,0,-1,-14,642)"/>
<path style="fill-rule:evenodd;fill:rgb(0%,73.7%,83.1%);fill-opacity:1;stroke-width:0.8;stroke-linecap:butt;stroke-linejoin:round;stroke:rgb(12.9%,12.9%,12.9%);stroke-opacity:1;stroke-miterlimit:10;" d="M 208 529.148438 L 144 512 L 272 512 Z M 208 529.148438 " transform="matrix(1,0,0,-1,-14,642)"/>
<path style="fill-rule:evenodd;fill:rgb(0%,73.7%,83.1%);fill-opacity:1;stroke-width:0.8;stroke-linecap:butt;stroke-linejoin:round;stroke:rgb(12.9%,12.9%,12.9%);stroke-opacity:1;stroke-miterlimit:10;" d="M 272 512 L 144 512 L 208 494.851562 Z M 272 512 " transform="matrix(1,0,0,-1,-14,642)"/>
<path style="fill-rule:evenodd;fill:rgb(0%,73.7%,83.1%);fill-opacity:1;stroke-width:0.8;stroke-linecap:butt;stroke-linejoin:round;stroke:rgb(12.9%,12.9%,12.9%);stroke-opacity:1;stroke-miterlimit:10;" d="M 208 494.851562 L 144 512 L 254.851562 448 Z M 208 494.851562 " transform="matrix(1,0,0,-1,-14,642)"/>
<path style="fill-rule:evenodd;fill:rgb(0%,73.7%,83.1%);fill-opacity:1;stroke-width:0.8;stroke-linecap:butt;stroke-linejoin:round;stroke:rgb(12.9%,12.9%,12.9%);stroke-opacity:1;stroke-miterlimit:10;" d="M 254.851562 448 L 144 512 L 190.851562 465.148438 Z M 254.851562 448 " transform="matrix(1,0,0,-1,-14,642)"/>
<path style="fill-rule:evenodd;fill:rgb(0%,73.7%,83.1%);fill-opacity:1;stroke-width:0.8;stroke-linecap:butt;stroke-linejoin:round;stroke:rgb(12.9%,12.9%,12.9%);stroke-opacity:1;stroke-miterlimit:10;" d="M 190.851562 465.148438 L 144 512 L 208 401.148438 Z M 190.851562 465.148438 " transform="matrix(1,0,0,-1,-14,642)"/>
<path style="fill-rule:evenodd;fill:rgb(0%,73.7%,83.1%);fill-opacity:1;stroke-width:0.8;stroke-linecap:butt;stroke-linejoin:round;stroke:rgb(12.9%,12.9%,12.9%);stroke-opacity:1;stroke-miterlimit:10;" d="M 208 401.148438 L 144 512 L 161.148438 448 Z M 208 401.148438 " transform="matrix(1,0,0,-1,-14,642)"/>
<path style="fill-rule:evenodd;fill:rgb(0%,73.7%,83.1%);fill-opacity:1;stroke-width:0.8;stroke-linecap:butt;stroke-linejoin:round;stroke:rgb(12.9%,12.9%,12.9%);stroke-opacity:1;stroke-miterlimit:10;" d="M 161.148438 448 L 144 512 L 144 384 Z M 161.148438 448 " transform="matrix(1,0,0,-1,-14,642)"/>
<path style="fill-rule:evenodd;fill:rgb(0%,73.7%,83.1%);fill-opacity:1;stroke-width:0.8;stroke-linecap:butt;stroke-linejoin:round;stroke:rgb(12.9%,12.9%,12.9%);stroke-opacity:1;stroke-miterlimit:10;" d="M 144 384 L 144 512 L 126.851562 448 Z M 144 384 " transform="matrix(1,0,0,-1,-14,642)"/>
<path style="fill-rule:evenodd;fill:rgb(0%,73.7%,83.1%);fill-opacity:1;stroke-width:0.8;stroke-linecap:butt;stroke-linejoin:round;stroke:rgb(12.9%,12.9%,12.9%);stroke-opacity:1;stroke-miterlimit:10;" d="M 126.851562 448 L 144 512 L 80 401.148438 Z M 126.851562 448 " transform="matrix(1,0,0,-1,-14,642)"/>
<path style="fill-rule:evenodd;fill:rgb(0%,73.7%,83.1%);fill-opacity:1;stroke-width:0.8;stroke-linecap:butt;stroke-linejoin:round;stroke:rgb(12.9%,12.9%,12.9%);stroke-opacity:1;stroke-miterlimit:10;" d="M 80 401.148438 L 144 512 L 97.148438 465.148438 Z M 80 401.148438 " transform="matrix(1,0,0,-1,-14,642)"/>
<path style="fill-rule:evenodd;fill:rgb(0%,73.7%,83.1%);fill-opacity:1;stroke-width:0.8;stroke-linecap:butt;stroke-linejoin:round;stroke:rgb(12.9%,12.9%,12.9%);stroke-opacity:1;stroke-miterlimit:10;" d="M 97.148438 465.148438 L 144 512 L 33.148438 448 Z M 97.148438 465.148438 " transform="matrix(1,0,0,-1,-14,642)"/>
<path style="fill-rule:evenodd;fill:rgb(0%,73.7%,83.1%);fill-opacity:1;stroke-width:0.8;stroke-linecap:butt;stroke-linejoin:round;stroke:rgb(12.9%,12.9%,12.9%);stroke-opacity:1;stroke-miterlimit:10;" d="M 33.148438 448 L 144 512 L 80 494.851562 Z M 33.148438 448 " transform="matrix(1,0,0,-1,-14,642)"/>
<path style="fill-rule:evenodd;fill:rgb(0%,73.7%,83.1%);fill-opacity:1;stroke-width:0.8;stroke-linecap:butt;stroke-linejoin:round;stroke:rgb(12.9%,12.9%,12.9%);stroke-opacity:1;stroke-miterlimit:10;" d="M 80 494.851562 L 144 512 L 16 512 Z M 80 494.851562 " transform="matrix(1,0,0,-1,-14,642)"/>
<path style="fill-rule:evenodd;fill:rgb(0%,73.7%,83.1%);fill-opacity:1;stroke-width:0.8;stroke-linecap:butt;stroke-linejoin:round;stroke:rgb(12.9%,12.9%,12.9%);stroke-opacity:1;stroke-miterlimit:10;" d="M 16 512 L 144 512 L 80 529.148438 Z M 16 512 " transform="matrix(1,0,0,-1,-14,642)"/>
<path style="fill-rule:evenodd;fill:rgb(0%,73.7%,83.1%);fill-opacity:1;stroke-width:0.8;stroke-linecap:butt;stroke-linejoin:round;stroke:rgb(12.9%,12.9%,12.9%);stroke-opacity:1;stroke-miterlimit:10;" d="M 80 529.148438 L 144 512 L 33.148438 576 Z M 80 529.148438 " transform="matrix(1,0,0,-1,-14,642)"/>
<path style="fill-rule:evenodd;fill:rgb(0%,73.7%,83.1%);fill-opacity:1;stroke-width:0.8;stroke-linecap:butt;stroke-linejoin:round;stroke:rgb(12.9%,12.9%,12.9%);stroke-opacity:1;stroke-miterlimit:10;" d="M 33.148438 576 L 144 512 L 97.148438 558.851562 Z M 33.148438 576 " transform="matrix(1,0,0,-1,-14,642)"/>
<path style="fill-rule:evenodd;fill:rgb(0%,73.7%,83.1%);fill-opacity:1;stroke-width:0.8;stroke-linecap:butt;stroke-linejoin:round;stroke:rgb(12.9%,12.9%,12.9%);stroke-opacity:1;stroke-miterlimit:10;" d="M 97.148438 558.851562 L 144 512 L 80 622.851562 Z M 97.148438 558.851562 " transform="matrix(1,0,0,-1,-14,642)"/>
<path style="fill-rule:evenodd;fill:rgb(0%,73.7%,83.1%);fill-opacity:1;stroke-width:0.8;stroke-linecap:butt;stroke-linejoin:round;stroke:rgb(12.9%,12.9%,12.9%);stroke-opacity:1;stroke-miterlimit:10;" d="M 80 622.851562 L 144 512 L 126.851562 576 Z M 80 622.851562 " transform="matrix(1,0,0,-1,-14,642)"/>
<path style="fill-rule:evenodd;fill:rgb(0%,73.7%,83.1%);fill-opacity:1;stroke-width:0.8;stroke-linecap:butt;stroke-linejoin:round;stroke:rgb(12.9%,12.9%,12.9%);stroke-opacity:1;stroke-miterlimit:10;" d="M 126.851562 576 L 144 512 L 144 640 Z M 126.851562 576 " transform="matrix(1,0,0,-1,-14,642)"/>
<path style="fill-rule:evenodd;fill:rgb(91.4%,11.8%,38.8%);fill-opacity:1;stroke-width:0.8;stroke-linecap:butt;stroke-linejoin:round;stroke:rgb(12.9%,12.9%,12.9%);stroke-opacity:1;stroke-miterlimit:10;" d="M 190.851562 558.851562 L 254.851562 576 L 208 622.851562 Z M 190.851562 558.851562 " transform="matrix(1,0,0,-1,-14,642)"/>
<path style="fill-rule:evenodd;fill:rgb(91.4%,11.8%,38.8%);fill-opacity:1;stroke-width:0.8;stroke-linecap:butt;stroke-linejoin:round;stroke:rgb(12.9%,12.9%,12.9%);stroke-opacity:1;stroke-miterlimit:10;" d="M 161.148438 576.003906 L 208 622.855469 L 144 640.003906 Z M 161.148438 576.003906 " transform="matrix(1,0,0,-1,-14,642)"/>
<path style="fill-rule:evenodd;fill:rgb(91.4%,11.8%,38.8%);fill-opacity:1;stroke-width:0.8;stroke-linecap:butt;stroke-linejoin:round;stroke:rgb(12.9%,12.9%,12.9%);stroke-opacity:1;stroke-miterlimit:10;" d="M 126.851562 576.003906 L 144 640.003906 L 80 622.851562 Z M 126.851562 576.003906 " transform="matrix(1,0,0,-1,-14,642)"/>
<path style="fill-rule:evenodd;fill:rgb(91.4%,11.8%,38.8%);fill-opacity:1;stroke-width:0.8;stroke-linecap:butt;stroke-linejoin:round;stroke:rgb(12.9%,12.9%,12.9%);stroke-opacity:1;stroke-miterlimit:10;" d="M 97.148438 558.851562 L 80 622.851562 L 33.148438 576 Z M 97.148438 558.851562 " transform="matrix(1,0,0,-1,-14,642)"/>
<path style="fill-rule:evenodd;fill:rgb(91.4%,11.8%,38.8%);fill-opacity:1;stroke-width:0.8;stroke-linecap:butt;stroke-linejoin:round;stroke:rgb(12.9%,12.9%,12.9%);stroke-opacity:1;stroke-miterlimit:10;" d="M 80 529.148438 L 33.148438 576 L 16 512 Z M 80 529.148438 " transform="matrix(1,0,0,-1,-14,642)"/>
<path style="fill-rule:evenodd;fill:rgb(91.4%,11.8%,38.8%);fill-opacity:1;stroke-width:0.8;stroke-linecap:butt;stroke-linejoin:round;stroke:rgb(12.9%,12.9%,12.9%);stroke-opacity:1;stroke-miterlimit:10;" d="M 80 494.851562 L 16 512 L 33.148438 448 Z M 80 494.851562 " transform="matrix(1,0,0,-1,-14,642)"/>
<path style="fill-rule:evenodd;fill:rgb(91.4%,11.8%,38.8%);fill-opacity:1;stroke-width:0.8;stroke-linecap:butt;stroke-linejoin:round;stroke:rgb(12.9%,12.9%,12.9%);stroke-opacity:1;stroke-miterlimit:10;" d="M 97.148438 465.148438 L 33.148438 448 L 80 401.148438 Z M 97.148438 465.148438 " transform="matrix(1,0,0,-1,-14,642)"/>
<path style="fill-rule:evenodd;fill:rgb(91.4%,11.8%,38.8%);fill-opacity:1;stroke-width:0.8;stroke-linecap:butt;stroke-linejoin:round;stroke:rgb(12.9%,12.9%,12.9%);stroke-opacity:1;stroke-miterlimit:10;" d="M 126.851562 448 L 80 401.148438 L 144 384 Z M 126.851562 448 " transform="matrix(1,0,0,-1,-14,642)"/>
<path style="fill-rule:evenodd;fill:rgb(91.4%,11.8%,38.8%);fill-opacity:1;stroke-width:0.8;stroke-linecap:butt;stroke-linejoin:round;stroke:rgb(12.9%,12.9%,12.9%);stroke-opacity:1;stroke-miterlimit:10;" d="M 161.148438 448 L 144 384 L 208 401.148438 Z M 161.148438 448 " transform="matrix(1,0,0,-1,-14,642)"/>
<path style="fill-rule:evenodd;fill:rgb(91.4%,11.8%,38.8%);fill-opacity:1;stroke-width:0.8;stroke-linecap:butt;stroke-linejoin:round;stroke:rgb(12.9%,12.9%,12.9%);stroke-opacity:1;stroke-miterlimit:10;" d="M 190.851562 465.148438 L 208 401.148438 L 254.851562 448 Z M 190.851562 465.148438 " transform="matrix(1,0,0,-1,-14,642)"/>
<path style="fill-rule:evenodd;fill:rgb(91.4%,11.8%,38.8%);fill-opacity:1;stroke-width:0.8;stroke-linecap:butt;stroke-linejoin:round;stroke:rgb(12.9%,12.9%,12.9%);stroke-opacity:1;stroke-miterlimit:10;" d="M 208 494.851562 L 254.851562 448 L 272 512 Z M 208 494.851562 " transform="matrix(1,0,0,-1,-14,642)"/>
<path style="fill-rule:evenodd;fill:rgb(91.4%,11.8%,38.8%);fill-opacity:1;stroke-width:0.8;stroke-linecap:butt;stroke-linejoin:round;stroke:rgb(12.9%,12.9%,12.9%);stroke-opacity:1;stroke-miterlimit:10;" d="M 208 529.148438 L 272 512 L 254.851562 576 Z M 208 529.148438 " transform="matrix(1,0,0,-1,-14,642)"/>
<path style="fill:none;stroke-width:1.2;stroke-linecap:butt;stroke-linejoin:round;stroke:rgb(100%,100%,100%);stroke-opacity:1;stroke-miterlimit:10;" d="M 16 640 L 16 384 L 272 384 L 272 640 Z M 16 640 " transform="matrix(1,0,0,-1,-14,642)"/>
<path style="fill:none;stroke-width:1.2;stroke-linecap:butt;stroke-linejoin:round;stroke:rgb(100%,100%,100%);stroke-opacity:1;stroke-miterlimit:10;" d="M 272 512 C 272 582.691406 214.691406 640 144 640 C 73.308594 640 16 582.691406 16 512 C 16 441.308594 73.308594 384 144 384 C 214.691406 384 272 441.308594 272 512 Z M 272 512 " transform="matrix(1,0,0,-1,-14,642)"/>
<path style="fill:none;stroke-width:1.2;stroke-linecap:butt;stroke-linejoin:round;stroke:rgb(100%,100%,100%);stroke-opacity:1;stroke-miterlimit:10;" d="M 272 512 L 254.851562 576 L 208 622.851562 L 144 640 L 80 622.851562 L 33.148438 576 L 16 512 L 33.148438 448 L 80 401.148438 L 144 384 L 208 401.148438 L 254.851562 448 Z M 272 512 " transform="matrix(1,0,0,-1,-14,642)"/>
<path style="fill-rule:evenodd;fill:rgb(91.4%,11.8%,38.8%);fill-opacity:1;stroke-width:0.8;stroke-linecap:butt;stroke-linejoin:round;stroke:rgb(12.9%,12.9%,12.9%);stroke-opacity:1;stroke-miterlimit:10;" d="M 414.851562 576 L 432 640 L 368 622.851562 Z M 414.851562 576 " transform="matrix(1,0,0,-1,-14,642)"/>
<path style="fill-rule:evenodd;fill:rgb(91.4%,11.8%,38.8%);fill-opacity:1;stroke-width:0.8;stroke-linecap:butt;stroke-linejoin:round;stroke:rgb(12.9%,12.9%,12.9%);stroke-opacity:1;stroke-miterlimit:10;" d="M 385.148438 558.851562 L 368 622.851562 L 321.148438 576 Z M 385.148438 558.851562 " transform="matrix(1,0,0,-1,-14,642)"/>
<path style="fill-rule:evenodd;fill:rgb(91.4%,11.8%,38.8%);fill-opacity:1;stroke-width:0.8;stroke-linecap:butt;stroke-linejoin:round;stroke:rgb(12.9%,12.9%,12.9%);stroke-opacity:1;stroke-miterlimit:10;" d="M 368 529.148438 L 321.148438 576 L 304 512 Z M 368 529.148438 " transform="matrix(1,0,0,-1,-14,642)"/>
<path style="fill-rule:evenodd;fill:rgb(91.4%,11.8%,38.8%);fill-opacity:1;stroke-width:0.8;stroke-linecap:butt;stroke-linejoin:round;stroke:rgb(12.9%,12.9%,12.9%);stroke-opacity:1;stroke-miterlimit:10;" d="M 368 494.851562 L 304 512 L 321.148438 448 Z M 368 494.851562 " transform="matrix(1,0,0,-1,-14,642)"/>
<path style="fill-rule:evenodd;fill:rgb(91.4%,11.8%,38.8%);fill-opacity:1;stroke-width:0.8;stroke-linecap:butt;stroke-linejoin:round;stroke:rgb(12.9%,12.9%,12.9%);stroke-opacity:1;stroke-miterlimit:10;" d="M 385.148438 465.148438 L 321.148438 448 L 368 401.148438 Z M 385.148438 465.148438 " transform="matrix(1,0,0,-1,-14,642)"/>
<path style="fill-rule:evenodd;fill:rgb(91.4%,11.8%,38.8%);fill-opacity:1;stroke-width:0.8;stroke-linecap:butt;stroke-linejoin:round;stroke:rgb(12.9%,12.9%,12.9%);stroke-opacity:1;stroke-miterlimit:10;" d="M 414.851562 448 L 368 401.148438 L 432 384 Z M 414.851562 448 " transform="matrix(1,0,0,-1,-14,642)"/>
<path style="fill-rule:evenodd;fill:rgb(91.4%,11.8%,38.8%);fill-opacity:1;stroke-width:0.8;stroke-linecap:butt;stroke-linejoin:round;stroke:rgb(12.9%,12.9%,12.9%);stroke-opacity:1;stroke-miterlimit:10;" d="M 449.148438 448 L 432 384 L 496 401.148438 Z M 449.148438 448 " transform="matrix(1,0,0,-1,-14,642)"/>
<path style="fill-rule:evenodd;fill:rgb(91.4%,11.8%,38.8%);fill-opacity:1;stroke-width:0.8;stroke-linecap:butt;stroke-linejoin:round;stroke:rgb(12.9%,12.9%,12.9%);stroke-opacity:1;stroke-miterlimit:10;" d="M 478.851562 465.148438 L 496 401.148438 L 542.851562 448 Z M 478.851562 465.148438 " transform="matrix(1,0,0,-1,-14,642)"/>
<path style="fill-rule:evenodd;fill:rgb(91.4%,11.8%,38.8%);fill-opacity:1;stroke-width:0.8;stroke-linecap:butt;stroke-linejoin:round;stroke:rgb(12.9%,12.9%,12.9%);stroke-opacity:1;stroke-miterlimit:10;" d="M 496 494.851562 L 542.851562 448 L 560 512 Z M 496 494.851562 " transform="matrix(1,0,0,-1,-14,642)"/>
<path style="fill-rule:evenodd;fill:rgb(91.4%,11.8%,38.8%);fill-opacity:1;stroke-width:0.8;stroke-linecap:butt;stroke-linejoin:round;stroke:rgb(12.9%,12.9%,12.9%);stroke-opacity:1;stroke-miterlimit:10;" d="M 304 640 L 321.148438 576 L 368 622.851562 Z M 304 640 " transform="matrix(1,0,0,-1,-14,642)"/>
<path style="fill-rule:evenodd;fill:rgb(91.4%,11.8%,38.8%);fill-opacity:1;stroke-width:0.8;stroke-linecap:butt;stroke-linejoin:round;stroke:rgb(12.9%,12.9%,12.9%);stroke-opacity:1;stroke-miterlimit:10;" d="M 560 384 L 542.851562 448 L 496 401.148438 Z M 560 384 " transform="matrix(1,0,0,-1,-14,642)"/>
<path style="fill-rule:evenodd;fill:rgb(91.4%,11.8%,38.8%);fill-opacity:1;stroke-width:0.8;stroke-linecap:butt;stroke-linejoin:round;stroke:rgb(12.9%,12.9%,12.9%);stroke-opacity:1;stroke-miterlimit:10;" d="M 304 384 L 368 401.148438 L 321.148438 448 Z M 304 384 " transform="matrix(1,0,0,-1,-14,642)"/>
<path style="fill-rule:evenodd;fill:rgb(0%,73.7%,83.1%);fill-opacity:1;stroke-width:0.8;stroke-linecap:butt;stroke-linejoin:round;stroke:rgb(12.9%,12.9%,12.9%);stroke-opacity:1;stroke-miterlimit:10;" d="M 304 640 L 304 512 L 321.148438 576 Z M 304 640 " transform="matrix(1,0,0,-1,-14,642)"/>
<path style="fill-rule:evenodd;fill:rgb(0%,73.7%,83.1%);fill-opacity:1;stroke-width:0.8;stroke-linecap:butt;stroke-linejoin:round;stroke:rgb(12.9%,12.9%,12.9%);stroke-opacity:1;stroke-miterlimit:10;" d="M 496 401.148438 L 432 384 L 560 384 Z M 496 401.148438 " transform="matrix(1,0,0,-1,-14,642)"/>
<path style="fill-rule:evenodd;fill:rgb(0%,73.7%,83.1%);fill-opacity:1;stroke-width:0.8;stroke-linecap:butt;stroke-linejoin:round;stroke:rgb(12.9%,12.9%,12.9%);stroke-opacity:1;stroke-miterlimit:10;" d="M 560 512 L 432 512 L 496 494.851562 Z M 560 512 " transform="matrix(1,0,0,-1,-14,642)"/>
<path style="fill-rule:evenodd;fill:rgb(0%,73.7%,83.1%);fill-opacity:1;stroke-width:0.8;stroke-linecap:butt;stroke-linejoin:round;stroke:rgb(12.9%,12.9%,12.9%);stroke-opacity:1;stroke-miterlimit:10;" d="M 496 494.851562 L 432 512 L 542.851562 448 Z M 496 494.851562 " transform="matrix(1,0,0,-1,-14,642)"/>
<path style="fill-rule:evenodd;fill:rgb(0%,73.7%,83.1%);fill-opacity:1;stroke-width:0.8;stroke-linecap:butt;stroke-linejoin:round;stroke:rgb(12.9%,12.9%,12.9%);stroke-opacity:1;stroke-miterlimit:10;" d="M 542.851562 448 L 432 512 L 478.851562 465.148438 Z M 542.851562 448 " transform="matrix(1,0,0,-1,-14,642)"/>
<path style="fill-rule:evenodd;fill:rgb(0%,73.7%,83.1%);fill-opacity:1;stroke-width:0.8;stroke-linecap:butt;stroke-linejoin:round;stroke:rgb(12.9%,12.9%,12.9%);stroke-opacity:1;stroke-miterlimit:10;" d="M 478.851562 465.148438 L 432 512 L 496 401.148438 Z M 478.851562 465.148438 " transform="matrix(1,0,0,-1,-14,642)"/>
<path style="fill-rule:evenodd;fill:rgb(0%,73.7%,83.1%);fill-opacity:1;stroke-width:0.8;stroke-linecap:butt;stroke-linejoin:round;stroke:rgb(12.9%,12.9%,12.9%);stroke-opacity:1;stroke-miterlimit:10;" d="M 496 401.148438 L 432 512 L 449.148438 448 Z M 496 401.148438 " transform="matrix(1,0,0,-1,-14,642)"/>
<path style="fill-rule:evenodd;fill:rgb(0%,73.7%,83.1%);fill-opacity:1;stroke-width:0.8;stroke-linecap:butt;stroke-linejoin:round;stroke:rgb(12.9%,12.9%,12.9%);stroke-opacity:1;stroke-miterlimit:10;" d="M 449.148438 448 L 432 512 L 432 384 Z M 449.148438 448 " transform="matrix(1,0,0,-1,-14,642)"/>
<path style="fill-rule:evenodd;fill:rgb(0%,73.7%,83.1%);fill-opacity:1;stroke-width:0.8;stroke-linecap:butt;stroke-linejoin:round;stroke:rgb(12.9%,12.9%,12.9%);stroke-opacity:1;stroke-miterlimit:10;" d="M 432 384 L 432 512 L 414.851562 448 Z M 432 384 " transform="matrix(1,0,0,-1,-14,642)"/>
<path style="fill-rule:evenodd;fill:rgb(0%,73.7%,83.1%);fill-opacity:1;stroke-width:0.8;stroke-linecap:butt;stroke-linejoin:round;stroke:rgb(12.9%,12.9%,12.9%);stroke-opacity:1;stroke-miterlimit:10;" d="M 414.851562 448 L 432 512 L 368 401.148438 Z M 414.851562 448 " transform="matrix(1,0,0,-1,-14,642)"/>
<path style="fill-rule:evenodd;fill:rgb(0%,73.7%,83.1%);fill-opacity:1;stroke-width:0.8;stroke-linecap:butt;stroke-linejoin:round;stroke:rgb(12.9%,12.9%,12.9%);stroke-opacity:1;stroke-miterlimit:10;" d="M 368 401.148438 L 432 512 L 385.148438 465.148438 Z M 368 401.148438 " transform="matrix(1,0,0,-1,-14,642)"/>
<path style="fill-rule:evenodd;fill:rgb(0%,73.7%,83.1%);fill-opacity:1;stroke-width:0.8;stroke-linecap:butt;stroke-linejoin:round;stroke:rgb(12.9%,12.9%,12.9%);stroke-opacity:1;stroke-miterlimit:10;" d="M 385.148438 465.148438 L 432 512 L 321.148438 448 Z M 385.148438 465.148438 " transform="matrix(1,0,0,-1,-14,642)"/>
<path style="fill-rule:evenodd;fill:rgb(0%,73.7%,83.1%);fill-opacity:1;stroke-width:0.8;stroke-linecap:butt;stroke-linejoin:round;stroke:rgb(12.9%,12.9%,12.9%);stroke-opacity:1;stroke-miterlimit:10;" d="M 321.148438 448 L 432 512 L 368 494.851562 Z M 321.148438 448 " transform="matrix(1,0,0,-1,-14,642)"/>
<path style="fill-rule:evenodd;fill:rgb(0%,73.7%,83.1%);fill-opacity:1;stroke-width:0.8;stroke-linecap:butt;stroke-linejoin:round;stroke:rgb(12.9%,12.9%,12.9%);stroke-opacity:1;stroke-miterlimit:10;" d="M 368 494.851562 L 432 512 L 304 512 Z M 368 494.851562 " transform="matrix(1,0,0,-1,-14,642)"/>
<path style="fill-rule:evenodd;fill:rgb(0%,73.7%,83.1%);fill-opacity:1;stroke-width:0.8;stroke-linecap:butt;stroke-linejoin:round;stroke:rgb(12.9%,12.9%,12.9%);stroke-opacity:1;stroke-miterlimit:10;" d="M 304 512 L 432 512 L 368 529.148438 Z M 304 512 " transform="matrix(1,0,0,-1,-14,642)"/>
<path style="fill-rule:evenodd;fill:rgb(0%,73.7%,83.1%);fill-opacity:1;stroke-width:0.8;stroke-linecap:butt;stroke-linejoin:round;stroke:rgb(12.9%,12.9%,12.9%);stroke-opacity:1;stroke-miterlimit:10;" d="M 368 529.148438 L 432 512 L 321.148438 576 Z M 368 529.148438 " transform="matrix(1,0,0,-1,-14,642)"/>
<path style="fill-rule:evenodd;fill:rgb(0%,73.7%,83.1%);fill-opacity:1;stroke-width:0.8;stroke-linecap:butt;stroke-linejoin:round;stroke:rgb(12.9%,12.9%,12.9%);stroke-opacity:1;stroke-miterlimit:10;" d="M 321.148438 576 L 432 512 L 385.148438 558.851562 Z M 321.148438 576 " transform="matrix(1,0,0,-1,-14,642)"/>
<path style="fill-rule:evenodd;fill:rgb(0%,73.7%,83.1%);fill-opacity:1;stroke-width:0.8;stroke-linecap:butt;stroke-linejoin:round;stroke:rgb(12.9%,12.9%,12.9%);stroke-opacity:1;stroke-miterlimit:10;" d="M 385.148438 558.851562 L 432 512 L 368 622.851562 Z M 385.148438 558.851562 " transform="matrix(1,0,0,-1,-14,642)"/>
<path style="fill-rule:evenodd;fill:rgb(0%,73.7%,83.1%);fill-opacity:1;stroke-width:0.8;stroke-linecap:butt;stroke-linejoin:round;stroke:rgb(12.9%,12.9%,12.9%);stroke-opacity:1;stroke-miterlimit:10;" d="M 368 622.851562 L 432 512 L 414.851562 576 Z M 368 622.851562 " transform="matrix(1,0,0,-1,-14,642)"/>
<path style="fill-rule:evenodd;fill:rgb(0%,73.7%,83.1%);fill-opacity:1;stroke-width:0.8;stroke-linecap:butt;stroke-linejoin:round;stroke:rgb(12.9%,12.9%,12.9%);stroke-opacity:1;stroke-miterlimit:10;" d="M 414.851562 576 L 432 512 L 432 640 Z M 414.851562 576 " transform="matrix(1,0,0,-1,-14,642)"/>
<path style="fill-rule:evenodd;fill:rgb(0%,73.7%,83.1%);fill-opacity:1;stroke-width:0.8;stroke-linecap:butt;stroke-linejoin:round;stroke:rgb(12.9%,12.9%,12.9%);stroke-opacity:1;stroke-miterlimit:10;" d="M 304 512 L 304 384 L 321.148438 448 Z M 304 512 " transform="matrix(1,0,0,-1,-14,642)"/>
<path style="fill-rule:evenodd;fill:rgb(0%,73.7%,83.1%);fill-opacity:1;stroke-width:0.8;stroke-linecap:butt;stroke-linejoin:round;stroke:rgb(12.9%,12.9%,12.9%);stroke-opacity:1;stroke-miterlimit:10;" d="M 368 401.148438 L 304 384 L 432 384 Z M 368 401.148438 " transform="matrix(1,0,0,-1,-14,642)"/>
<path style="fill-rule:evenodd;fill:rgb(0%,73.7%,83.1%);fill-opacity:1;stroke-width:0.8;stroke-linecap:butt;stroke-linejoin:round;stroke:rgb(12.9%,12.9%,12.9%);stroke-opacity:1;stroke-miterlimit:10;" d="M 542.851562 448 L 560 384 L 560 512 Z M 542.851562 448 " transform="matrix(1,0,0,-1,-14,642)"/>
<path style="fill-rule:evenodd;fill:rgb(0%,73.7%,83.1%);fill-opacity:1;stroke-width:0.8;stroke-linecap:butt;stroke-linejoin:round;stroke:rgb(12.9%,12.9%,12.9%);stroke-opacity:1;stroke-miterlimit:10;" d="M 432 640 L 304 640 L 368 622.851562 Z M 432 640 " transform="matrix(1,0,0,-1,-14,642)"/>
<path style="fill:none;stroke-width:1.2;stroke-linecap:butt;stroke-linejoin:round;stroke:rgb(100%,100%,100%);stroke-opacity:1;stroke-miterlimit:10;" d="M 304 640 L 304 384 L 560 384 L 560 640 Z M 304 640 " transform="matrix(1,0,0,-1,-14,642)"/>
</g>
</svg>
