<?xml version="1.0" encoding="UTF-8"?>
<svg xmlns="http://www.w3.org/2000/svg" xmlns:xlink="http://www.w3.org/1999/xlink" width="542pt" height="232pt" viewBox="0 0 542 232" version="1.1">
<g id="surface21784">
<path style="fill:none;stroke-width:2;stroke-linecap:butt;stroke-linejoin:round;stroke:rgb(12.9%,58.8%,95.3%);stroke-opacity:1;stroke-miterlimit:10;" d="M 320.894531 288 C 320.894531 297.332031 313.332031 304.898438 304 304.898438 C 294.667969 304.898438 287.105469 297.332031 287.105469 288 C 287.105469 278.667969 294.667969 271.105469 304 271.105469 C 313.332031 271.105469 320.894531 278.667969 320.894531 288 Z M 320.894531 288 " transform="matrix(1,0,0,-1,-29,494)"/>
<path style="fill:none;stroke-width:2;stroke-linecap:butt;stroke-linejoin:round;stroke:rgb(12.9%,58.8%,95.3%);stroke-opacity:1;stroke-miterlimit:10;" d="M 128.894531 288 C 128.894531 297.332031 121.332031 304.898438 112 304.898438 C 102.667969 304.898438 95.105469 297.332031 95.105469 288 C 95.105469 278.667969 102.667969 271.105469 112 271.105469 C 121.332031 271.105469 128.894531 278.667969 128.894531 288 Z M 128.894531 288 " transform="matrix(1,0,0,-1,-29,494)"/>
<path style="fill:none;stroke-width:2;stroke-linecap:butt;stroke-linejoin:round;stroke:rgb(12.9%,58.8%,95.3%);stroke-opacity:1;stroke-miterlimit:10;" d="M 133.40625 484.410156 C 127.191406 483.027344 122.277344 478.265625 120.703125 472.097656 C 119.125 465.925781 121.152344 459.394531 125.945312 455.199219 " transform="matrix(1,0,0,-1,-29,494)"/>
<path style="fill:none;stroke-width:2;stroke-linecap:butt;stroke-linejoin:round;stroke:rgb(12.9%,58.8%,95.3%);stroke-opacity:1;stroke-miterlimit:10;" d="M 36.347656 352.800781 C 41.082031 348.65625 47.726562 347.488281 53.59375 349.765625 C 59.457031 352.046875 63.570312 357.394531 64.265625 363.648438 " transform="matrix(1,0,0,-1,-29,494)"/>
<path style="fill:none;stroke-width:2;stroke-linecap:butt;stroke-linejoin:round;stroke:rgb(12.9%,58.8%,95.3%);stroke-opacity:1;stroke-miterlimit:10;" d="M 179.464844 350.851562 C 180.066406 356.269531 178.015625 361.648438 173.957031 365.289062 C 169.898438 368.933594 164.332031 370.390625 159.007812 369.210938 " transform="matrix(1,0,0,-1,-29,494)"/>
<path style="fill:none;stroke-width:2;stroke-linecap:butt;stroke-linejoin:round;stroke:rgb(12.9%,58.8%,95.3%);stroke-opacity:1;stroke-miterlimit:10;" d="M 232.523438 386.21875 C 239.171875 382.230469 247.679688 383.277344 253.164062 388.761719 " transform="matrix(1,0,0,-1,-29,494)"/>
<path style="fill:none;stroke-width:2;stroke-linecap:butt;stroke-linejoin:round;stroke:rgb(12.9%,58.8%,95.3%);stroke-opacity:1;stroke-miterlimit:10;" d="M 304.363281 337.5625 C 309.503906 342.703125 310.78125 350.558594 307.527344 357.066406 " transform="matrix(1,0,0,-1,-29,494)"/>
<path style="fill:none;stroke-width:2;stroke-linecap:butt;stroke-linejoin:round;stroke:rgb(12.9%,58.8%,95.3%);stroke-opacity:1;stroke-miterlimit:10;" d="M 384.328125 395.464844 C 380.398438 403.324219 371.097656 406.859375 362.941406 403.597656 " transform="matrix(1,0,0,-1,-29,494)"/>
<path style="fill:none;stroke-width:2;stroke-linecap:butt;stroke-linejoin:round;stroke:rgb(12.9%,58.8%,95.3%);stroke-opacity:1;stroke-miterlimit:10;" d="M 337.339844 467.597656 C 332.039062 465.476562 328.167969 460.820312 327.046875 455.222656 " transform="matrix(1,0,0,-1,-29,494)"/>
<path style="fill:none;stroke-width:2;stroke-linecap:butt;stroke-linejoin:round;stroke:rgb(12.9%,58.8%,95.3%);stroke-opacity:1;stroke-miterlimit:10;" d="M 263.046875 468.023438 C 261.648438 461.019531 264.800781 453.894531 270.921875 450.21875 " transform="matrix(1,0,0,-1,-29,494)"/>
<path style="fill:none;stroke-width:2;stroke-linecap:butt;stroke-linejoin:round;stroke:rgb(100%,100%,100%);stroke-opacity:1;stroke-miterlimit:10;" d="M 47.472656 365.515625 L 137.074219 467.914062 L 162.671875 352.714844 Z M 47.472656 365.515625 " transform="matrix(1,0,0,-1,-29,494)"/>
<path style="fill:none;stroke-width:2;stroke-linecap:butt;stroke-linejoin:round;stroke:rgb(100%,100%,100%);stroke-opacity:1;stroke-miterlimit:10;" d="M 241.214844 400.707031 L 292.414062 349.507812 L 369.214844 387.910156 L 343.617188 451.910156 L 279.617188 464.707031 Z M 241.214844 400.707031 " transform="matrix(1,0,0,-1,-29,494)"/>
<path style="fill:none;stroke-width:1.2;stroke-linecap:butt;stroke-linejoin:round;stroke:rgb(96.1%,96.1%,96.1%);stroke-opacity:1;stroke-miterlimit:10;" d="M 95.859375 408.21875 C 63.734375 371.777344 63.734375 371.777344 78.53125 370.105469 C 93.324219 368.4375 122.917969 365.097656 137.714844 363.425781 C 152.511719 361.757812 152.511719 361.757812 149.226562 376.523438 C 145.945312 391.292969 139.382812 420.828125 136.101562 435.59375 C 132.820312 450.359375 132.820312 450.359375 104.496094 418.0625 " transform="matrix(1,0,0,-1,-29,494)"/>
<path style="fill-rule:evenodd;fill:rgb(96.1%,96.1%,96.1%);fill-opacity:1;stroke-width:1.2;stroke-linecap:butt;stroke-linejoin:round;stroke:rgb(96.1%,96.1%,96.1%);stroke-opacity:1;stroke-miterlimit:10;" d="M 104.496094 418.0625 L 109.042969 420.726562 L 106.539062 422.921875 Z M 104.496094 418.0625 " transform="matrix(1,0,0,-1,-29,494)"/>
<path style="fill:none;stroke-width:1.2;stroke-linecap:butt;stroke-linejoin:round;stroke:rgb(96.1%,96.1%,96.1%);stroke-opacity:1;stroke-miterlimit:10;" d="M 266.039062 426.3125 C 251.386719 401.972656 251.386719 401.972656 258.476562 394.84375 C 265.566406 387.714844 279.746094 373.457031 286.832031 366.328125 C 293.921875 359.199219 293.921875 359.199219 304.785156 364.621094 C 315.648438 370.046875 337.375 380.890625 348.238281 386.3125 C 359.097656 391.734375 359.097656 391.734375 355.558594 400.574219 C 352.019531 409.417969 344.941406 427.097656 341.402344 435.9375 C 337.863281 444.777344 337.863281 444.777344 328.832031 446.597656 C 319.796875 448.417969 301.730469 452.058594 292.695312 453.878906 C 283.664062 455.699219 283.664062 455.699219 272.09375 436.476562 " transform="matrix(1,0,0,-1,-29,494)"/>
<path style="fill-rule:evenodd;fill:rgb(96.1%,96.1%,96.1%);fill-opacity:1;stroke-width:1.2;stroke-linecap:butt;stroke-linejoin:round;stroke:rgb(96.1%,96.1%,96.1%);stroke-opacity:1;stroke-miterlimit:10;" d="M 272.09375 436.476562 L 276.101562 439.902344 L 273.246094 441.617188 Z M 272.09375 436.476562 " transform="matrix(1,0,0,-1,-29,494)"/>
<path style="fill:none;stroke-width:2;stroke-linecap:butt;stroke-linejoin:round;stroke:rgb(100%,100%,100%);stroke-opacity:1;stroke-dasharray:4;stroke-miterlimit:10;" d="M 131.519531 492.90625 L 137.074219 467.914062 " transform="matrix(1,0,0,-1,-29,494)"/>
<path style="fill:none;stroke-width:2;stroke-linecap:butt;stroke-linejoin:round;stroke:rgb(100%,100%,100%);stroke-opacity:1;stroke-dasharray:4;stroke-miterlimit:10;" d="M 30.617188 346.25 L 47.472656 365.515625 " transform="matrix(1,0,0,-1,-29,494)"/>
<path style="fill:none;stroke-width:2;stroke-linecap:butt;stroke-linejoin:round;stroke:rgb(100%,100%,100%);stroke-opacity:1;stroke-dasharray:4;stroke-miterlimit:10;" d="M 188.117188 349.886719 L 162.671875 352.714844 " transform="matrix(1,0,0,-1,-29,494)"/>
<path style="fill:none;stroke-width:2;stroke-linecap:butt;stroke-linejoin:round;stroke:rgb(100%,100%,100%);stroke-opacity:1;stroke-dasharray:4;stroke-miterlimit:10;" d="M 310.515625 331.40625 L 292.414062 349.507812 " transform="matrix(1,0,0,-1,-29,494)"/>
<path style="fill:none;stroke-width:2;stroke-linecap:butt;stroke-linejoin:round;stroke:rgb(100%,100%,100%);stroke-opacity:1;stroke-dasharray:4;stroke-miterlimit:10;" d="M 392.113281 399.355469 L 369.214844 387.910156 " transform="matrix(1,0,0,-1,-29,494)"/>
<path style="fill:none;stroke-width:2;stroke-linecap:butt;stroke-linejoin:miter;stroke:rgb(100%,100%,100%);stroke-opacity:1;stroke-dasharray:4;stroke-miterlimit:10;" d="M 334.109375 475.675781 L 343.617188 451.910156 " transform="matrix(1,0,0,-1,-29,494)"/>
<path style="fill:none;stroke-width:2;stroke-linecap:butt;stroke-linejoin:round;stroke:rgb(100%,100%,100%);stroke-opacity:1;stroke-dasharray:4;stroke-miterlimit:10;" d="M 254.511719 469.730469 L 279.617188 464.707031 " transform="matrix(1,0,0,-1,-29,494)"/>
<path style="fill:none;stroke-width:2;stroke-linecap:butt;stroke-linejoin:round;stroke:rgb(100%,100%,100%);stroke-opacity:1;stroke-dasharray:4;stroke-miterlimit:10;" d="M 290.828125 266.046875 L 304 288 " transform="matrix(1,0,0,-1,-29,494)"/>
<path style="fill:none;stroke-width:2;stroke-linecap:butt;stroke-linejoin:round;stroke:rgb(100%,100%,100%);stroke-opacity:1;stroke-miterlimit:10;" d="M 457.066406 452.800781 C 444.265625 440 435.734375 414.398438 437.867188 395.199219 C 440 376 452.800781 363.199219 469.867188 356.800781 C 486.933594 350.398438 508.265625 350.398438 527.464844 354.667969 C 546.667969 358.933594 563.734375 367.464844 559.464844 386.667969 C 555.199219 405.867188 529.601562 435.734375 508.265625 450.667969 C 486.933594 465.601562 469.867188 465.601562 457.066406 452.800781 Z M 457.066406 452.800781 " transform="matrix(1,0,0,-1,-29,494)"/>
<path style="fill:none;stroke-width:1.2;stroke-linecap:butt;stroke-linejoin:round;stroke:rgb(96.1%,96.1%,96.1%);stroke-opacity:1;stroke-miterlimit:10;" d="M 447.171875 415.265625 C 445.4375 407.976562 445.277344 402.234375 445.699219 397.351562 C 446.125 392.464844 447.136719 388.4375 448.886719 384.632812 C 450.636719 380.828125 453.125 377.25 456.820312 373.8125 C 460.515625 370.375 465.414062 367.074219 471.605469 364.65625 C 477.796875 362.238281 485.28125 360.699219 491.839844 359.984375 C 498.402344 359.273438 504.039062 359.386719 510.667969 360.085938 C 517.292969 360.78125 524.910156 362.0625 530.910156 363.6875 C 536.90625 365.308594 541.289062 367.273438 544.660156 369.410156 C 548.03125 371.546875 550.390625 373.855469 551.460938 376.777344 C 552.53125 379.699219 552.316406 383.234375 551.058594 387.335938 C 549.800781 391.4375 547.503906 396.105469 544.410156 401.0625 C 541.320312 406.023438 537.433594 411.265625 532.90625 416.617188 C 528.378906 421.96875 523.207031 427.425781 518.535156 431.894531 C 513.859375 436.363281 509.679688 439.84375 504.941406 443.179688 C 500.199219 446.511719 494.894531 449.703125 490.304688 451.617188 C 485.714844 453.527344 481.839844 454.167969 477.910156 454.078125 C 473.976562 453.988281 469.988281 453.171875 465.28125 449.34375 C 460.574219 445.515625 455.148438 438.671875 450.804688 427.4375 " transform="matrix(1,0,0,-1,-29,494)"/>
<path style="fill-rule:evenodd;fill:rgb(96.1%,96.1%,96.1%);fill-opacity:1;stroke-width:1.2;stroke-linecap:butt;stroke-linejoin:round;stroke:rgb(96.1%,96.1%,96.1%);stroke-opacity:1;stroke-miterlimit:10;" d="M 450.804688 427.4375 L 454.164062 431.5 L 451.054688 432.699219 Z M 450.804688 427.4375 " transform="matrix(1,0,0,-1,-29,494)"/>
<path style="fill:none;stroke-width:1.2;stroke-linecap:butt;stroke-linejoin:round;stroke:rgb(12.9%,58.8%,95.3%);stroke-opacity:1;stroke-dasharray:4;stroke-miterlimit:10;" d="M 441.1875 448.472656 C 437.355469 442.171875 433.863281 434.5625 431.277344 425.5 C 428.695312 416.433594 427.015625 405.921875 427.816406 396.074219 C 428.621094 386.230469 431.90625 377.054688 436.921875 369.519531 C 441.933594 361.988281 448.675781 356.097656 457.503906 351.5 C 466.335938 346.902344 477.25 343.601562 488.132812 342.289062 C 499.019531 340.980469 509.875 341.660156 520.148438 343.121094 C 530.417969 344.582031 540.105469 346.820312 548.238281 350.707031 C 556.375 354.59375 562.957031 360.128906 566.578125 366.796875 C 570.203125 373.46875 570.863281 381.277344 569.28125 388.828125 C 567.699219 396.382812 563.875 403.679688 559.769531 410.304688 C 555.664062 416.933594 551.28125 422.890625 545.675781 429.46875 C 540.070312 436.046875 533.242188 443.246094 525.867188 449.632812 C 518.492188 456.015625 510.570312 461.582031 503.707031 465.226562 C 496.839844 468.875 491.03125 470.597656 485.640625 471.496094 C 480.25 472.398438 475.273438 472.472656 469.964844 471.207031 C 464.65625 469.945312 459.019531 467.339844 454.109375 463.546875 C 449.199219 459.75 445.023438 454.769531 441.1875 448.472656 Z M 441.1875 448.472656 " transform="matrix(1,0,0,-1,-29,494)"/>
<path style="fill:none;stroke-width:2;stroke-linecap:butt;stroke-linejoin:round;stroke:rgb(100%,100%,100%);stroke-opacity:1;stroke-dasharray:4;stroke-miterlimit:10;" d="M 106.445312 312.992188 L 112 288 " transform="matrix(1,0,0,-1,-29,494)"/>
<path style="fill:none;stroke-width:2;stroke-linecap:butt;stroke-linejoin:round;stroke:rgb(100%,100%,100%);stroke-opacity:1;stroke-dasharray:4;stroke-miterlimit:10;" d="M 95.140625 268.734375 L 112 288 " transform="matrix(1,0,0,-1,-29,494)"/>
<path style="fill:none;stroke-width:2;stroke-linecap:butt;stroke-linejoin:round;stroke:rgb(100%,100%,100%);stroke-opacity:1;stroke-dasharray:4;stroke-miterlimit:10;" d="M 137.441406 285.171875 L 112 288 " transform="matrix(1,0,0,-1,-29,494)"/>
<path style="fill:none;stroke-width:2;stroke-linecap:butt;stroke-linejoin:round;stroke:rgb(100%,100%,100%);stroke-opacity:1;stroke-dasharray:4;stroke-miterlimit:10;" d="M 322.101562 269.898438 L 304 288 " transform="matrix(1,0,0,-1,-29,494)"/>
<path style="fill:none;stroke-width:2;stroke-linecap:butt;stroke-linejoin:round;stroke:rgb(100%,100%,100%);stroke-opacity:1;stroke-dasharray:4;stroke-miterlimit:10;" d="M 326.898438 299.449219 L 304 288 " transform="matrix(1,0,0,-1,-29,494)"/>
<path style="fill:none;stroke-width:2;stroke-linecap:butt;stroke-linejoin:miter;stroke:rgb(100%,100%,100%);stroke-opacity:1;stroke-dasharray:4;stroke-miterlimit:10;" d="M 294.492188 311.769531 L 304 288 " transform="matrix(1,0,0,-1,-29,494)"/>
<path style="fill:none;stroke-width:2;stroke-linecap:butt;stroke-linejoin:round;stroke:rgb(100%,100%,100%);stroke-opacity:1;stroke-dasharray:4;stroke-miterlimit:10;" d="M 278.898438 293.019531 L 304 288 " transform="matrix(1,0,0,-1,-29,494)"/>
<path style="fill:none;stroke-width:2;stroke-linecap:butt;stroke-linejoin:round;stroke:rgb(100%,100%,100%);stroke-opacity:1;stroke-dasharray:4;stroke-miterlimit:10;" d="M 228.042969 378.757812 L 241.214844 400.707031 " transform="matrix(1,0,0,-1,-29,494)"/>
<path style="fill:none;stroke-width:2;stroke-linecap:butt;stroke-linejoin:round;stroke:rgb(12.9%,58.8%,95.3%);stroke-opacity:1;stroke-miterlimit:10;" d="M 512.894531 288 C 512.894531 297.332031 505.332031 304.898438 496 304.898438 C 486.667969 304.898438 479.105469 297.332031 479.105469 288 C 479.105469 278.667969 486.667969 271.105469 496 271.105469 C 505.332031 271.105469 512.894531 278.667969 512.894531 288 Z M 512.894531 288 " transform="matrix(1,0,0,-1,-29,494)"/>
<path style="fill:none;stroke-width:1.2;stroke-linecap:butt;stroke-linejoin:round;stroke:rgb(100%,100%,100%);stroke-opacity:1;stroke-dasharray:4;stroke-miterlimit:10;" d="M 500.445312 313.210938 L 496 288 " transform="matrix(1,0,0,-1,-29,494)"/>
<path style="fill:none;stroke-width:1.2;stroke-linecap:butt;stroke-linejoin:round;stroke:rgb(100%,100%,100%);stroke-opacity:1;stroke-dasharray:4;stroke-miterlimit:10;" d="M 491.554688 313.210938 L 496 288 " transform="matrix(1,0,0,-1,-29,494)"/>
<path style="fill:none;stroke-width:1.2;stroke-linecap:butt;stroke-linejoin:round;stroke:rgb(100%,100%,100%);stroke-opacity:1;stroke-dasharray:4;stroke-miterlimit:10;" d="M 483.199219 310.171875 L 496 288 " transform="matrix(1,0,0,-1,-29,494)"/>
<path style="fill:none;stroke-width:1.2;stroke-linecap:butt;stroke-linejoin:round;stroke:rgb(100%,100%,100%);stroke-opacity:1;stroke-dasharray:4;stroke-miterlimit:10;" d="M 476.390625 304.457031 L 496 288 " transform="matrix(1,0,0,-1,-29,494)"/>
<path style="fill:none;stroke-width:1.2;stroke-linecap:butt;stroke-linejoin:round;stroke:rgb(100%,100%,100%);stroke-opacity:1;stroke-dasharray:4;stroke-miterlimit:10;" d="M 471.945312 296.757812 L 496 288 " transform="matrix(1,0,0,-1,-29,494)"/>
<path style="fill:none;stroke-width:1.2;stroke-linecap:butt;stroke-linejoin:round;stroke:rgb(100%,100%,100%);stroke-opacity:1;stroke-dasharray:4;stroke-miterlimit:10;" d="M 470.398438 288 L 496 288 " transform="matrix(1,0,0,-1,-29,494)"/>
<path style="fill:none;stroke-width:1.2;stroke-linecap:butt;stroke-linejoin:round;stroke:rgb(100%,100%,100%);stroke-opacity:1;stroke-dasharray:4;stroke-miterlimit:10;" d="M 471.945312 279.242188 L 496 288 " transform="matrix(1,0,0,-1,-29,494)"/>
<path style="fill:none;stroke-width:1.2;stroke-linecap:butt;stroke-linejoin:round;stroke:rgb(100%,100%,100%);stroke-opacity:1;stroke-dasharray:4;stroke-miterlimit:10;" d="M 476.390625 271.542969 L 496 288 " transform="matrix(1,0,0,-1,-29,494)"/>
<path style="fill:none;stroke-width:1.2;stroke-linecap:butt;stroke-linejoin:round;stroke:rgb(100%,100%,100%);stroke-opacity:1;stroke-dasharray:4;stroke-miterlimit:10;" d="M 483.199219 265.828125 L 496 288 " transform="matrix(1,0,0,-1,-29,494)"/>
<path style="fill:none;stroke-width:1.2;stroke-linecap:butt;stroke-linejoin:round;stroke:rgb(100%,100%,100%);stroke-opacity:1;stroke-dasharray:4;stroke-miterlimit:10;" d="M 491.554688 262.789062 L 496 288 " transform="matrix(1,0,0,-1,-29,494)"/>
<path style="fill:none;stroke-width:1.2;stroke-linecap:butt;stroke-linejoin:round;stroke:rgb(100%,100%,100%);stroke-opacity:1;stroke-dasharray:4;stroke-miterlimit:10;" d="M 500.445312 262.789062 L 496 288 " transform="matrix(1,0,0,-1,-29,494)"/>
<path style="fill:none;stroke-width:1.2;stroke-linecap:butt;stroke-linejoin:round;stroke:rgb(100%,100%,100%);stroke-opacity:1;stroke-dasharray:4;stroke-miterlimit:10;" d="M 508.800781 265.828125 L 496 288 " transform="matrix(1,0,0,-1,-29,494)"/>
<path style="fill:none;stroke-width:1.2;stroke-linecap:butt;stroke-linejoin:round;stroke:rgb(100%,100%,100%);stroke-opacity:1;stroke-dasharray:4;stroke-miterlimit:10;" d="M 515.609375 271.542969 L 496 288 " transform="matrix(1,0,0,-1,-29,494)"/>
<path style="fill:none;stroke-width:1.2;stroke-linecap:butt;stroke-linejoin:round;stroke:rgb(100%,100%,100%);stroke-opacity:1;stroke-dasharray:4;stroke-miterlimit:10;" d="M 520.054688 279.242188 L 496 288 " transform="matrix(1,0,0,-1,-29,494)"/>
<path style="fill:none;stroke-width:1.2;stroke-linecap:butt;stroke-linejoin:round;stroke:rgb(100%,100%,100%);stroke-opacity:1;stroke-dasharray:4;stroke-miterlimit:10;" d="M 521.601562 288 L 496 288 " transform="matrix(1,0,0,-1,-29,494)"/>
<path style="fill:none;stroke-width:1.2;stroke-linecap:butt;stroke-linejoin:round;stroke:rgb(100%,100%,100%);stroke-opacity:1;stroke-dasharray:4;stroke-miterlimit:10;" d="M 520.054688 296.757812 L 496 288 " transform="matrix(1,0,0,-1,-29,494)"/>
<path style="fill:none;stroke-width:1.2;stroke-linecap:butt;stroke-linejoin:round;stroke:rgb(100%,100%,100%);stroke-opacity:1;stroke-dasharray:4;stroke-miterlimit:10;" d="M 515.609375 304.457031 L 496 288 " transform="matrix(1,0,0,-1,-29,494)"/>
<path style="fill:none;stroke-width:1.2;stroke-linecap:butt;stroke-linejoin:round;stroke:rgb(100%,100%,100%);stroke-opacity:1;stroke-dasharray:4;stroke-miterlimit:10;" d="M 508.800781 310.171875 L 496 288 " transform="matrix(1,0,0,-1,-29,494)"/>
</g>
</svg>
