<?xml version="1.0" encoding="UTF-8"?>
<svg xmlns="http://www.w3.org/2000/svg" xmlns:xlink="http://www.w3.org/1999/xlink" width="341pt" height="325pt" viewBox="0 0 341 325" version="1.1">
<g id="surface19917">
<path style=" stroke:none;fill-rule:evenodd;fill:rgb(0%,73.7%,83.1%);fill-opacity:0.4;" d="M 146 2 L 290 290 L 338 66 Z M 146 2 "/>
<path style=" stroke:none;fill-rule:evenodd;fill:rgb(29.8%,68.6%,31.4%);fill-opacity:0.4;" d="M 146 2 L 82 322 L 290 290 Z M 146 2 "/>
<path style=" stroke:none;fill-rule:evenodd;fill:rgb(100%,75.7%,2.7%);fill-opacity:0.4;" d="M 146 2 L 2 146 L 82 322 Z M 146 2 "/>
<path style="fill:none;stroke-width:3;stroke-linecap:butt;stroke-linejoin:round;stroke:rgb(0%,73.7%,83.1%);stroke-opacity:1;stroke-miterlimit:10;" d="M 206.3125 739.378906 C 213.902344 743.175781 219.675781 749.828125 222.359375 757.882812 " transform="matrix(1,0,0,-1,-46,770)"/>
<path style="fill:none;stroke-width:3;stroke-linecap:butt;stroke-linejoin:round;stroke:rgb(0%,73.7%,83.1%);stroke-opacity:1;stroke-miterlimit:10;" d="M 353.640625 714.117188 C 350.765625 705.484375 351.699219 696.03125 356.214844 688.128906 C 360.726562 680.222656 368.394531 674.617188 377.296875 672.710938 " transform="matrix(1,0,0,-1,-46,770)"/>
<path style="fill:none;stroke-width:3;stroke-linecap:butt;stroke-linejoin:round;stroke:rgb(0%,73.7%,83.1%);stroke-opacity:1;stroke-miterlimit:10;" d="M 342.703125 511.289062 C 335.601562 512.8125 328.1875 511.871094 321.6875 508.621094 " transform="matrix(1,0,0,-1,-46,770)"/>
<path style="fill:none;stroke-width:3;stroke-linecap:butt;stroke-linejoin:round;stroke:rgb(29.8%,68.6%,31.4%);stroke-opacity:1;stroke-miterlimit:10;" d="M 186.507812 740.542969 C 192.613281 739.324219 198.953125 740.171875 204.523438 742.957031 " transform="matrix(1,0,0,-1,-46,770)"/>
<path style="fill:none;stroke-width:3;stroke-linecap:butt;stroke-linejoin:round;stroke:rgb(29.8%,68.6%,31.4%);stroke-opacity:1;stroke-miterlimit:10;" d="M 323.476562 505.042969 C 312.597656 499.605469 306.476562 487.761719 308.324219 475.742188 " transform="matrix(1,0,0,-1,-46,770)"/>
<path style="fill:none;stroke-width:3;stroke-linecap:butt;stroke-linejoin:round;stroke:rgb(29.8%,68.6%,31.4%);stroke-opacity:1;stroke-miterlimit:10;" d="M 155.675781 452.257812 C 153.886719 463.882812 145.023438 473.148438 133.492188 475.457031 " transform="matrix(1,0,0,-1,-46,770)"/>
<path style="fill:none;stroke-width:3;stroke-linecap:butt;stroke-linejoin:round;stroke:rgb(100%,75.7%,2.7%);stroke-opacity:1;stroke-miterlimit:10;" d="M 175.03125 751.03125 C 178.378906 747.679688 182.648438 745.394531 187.292969 744.464844 " transform="matrix(1,0,0,-1,-46,770)"/>
<path style="fill:none;stroke-width:3;stroke-linecap:butt;stroke-linejoin:round;stroke:rgb(100%,75.7%,2.7%);stroke-opacity:1;stroke-miterlimit:10;" d="M 132.707031 471.535156 C 127.773438 472.519531 122.652344 471.929688 118.070312 469.847656 " transform="matrix(1,0,0,-1,-46,770)"/>
<path style="fill:none;stroke-width:3;stroke-linecap:butt;stroke-linejoin:round;stroke:rgb(100%,75.7%,2.7%);stroke-opacity:1;stroke-miterlimit:10;" d="M 57.929688 602.152344 C 65.097656 605.410156 70.210938 611.972656 71.613281 619.71875 C 73.019531 627.464844 70.535156 635.40625 64.96875 640.972656 " transform="matrix(1,0,0,-1,-46,770)"/>
<path style="fill:none;stroke-width:4;stroke-linecap:butt;stroke-linejoin:round;stroke:rgb(100%,100%,100%);stroke-opacity:1;stroke-miterlimit:10;" d="M 48 624 L 128 448 L 336 480 L 384 704 L 192 768 Z M 48 624 " transform="matrix(1,0,0,-1,-46,770)"/>
<path style="fill:none;stroke-width:2;stroke-linecap:butt;stroke-linejoin:round;stroke:rgb(100%,100%,100%);stroke-opacity:1;stroke-miterlimit:10;" d="M 128 448 L 192 768 L 336 480 " transform="matrix(1,0,0,-1,-46,770)"/>
</g>
</svg>
