<?xml version="1.0" encoding="UTF-8"?>
<svg xmlns="http://www.w3.org/2000/svg" xmlns:xlink="http://www.w3.org/1999/xlink" width="282pt" height="89pt" viewBox="0 0 282 89" version="1.1">
<g id="surface25749">
<path style=" stroke:none;fill-rule:evenodd;fill:rgb(69%,74.5%,77.3%);fill-opacity:1;" d="M 1 16 C 1 12.273438 1.867188 8.597656 3.535156 5.265625 L 10.6875 8.84375 C 8.425781 13.375 8.4375 18.710938 10.726562 23.230469 C 13.015625 27.746094 17.308594 30.914062 22.300781 31.769531 C 27.292969 32.625 32.394531 31.066406 36.054688 27.566406 C 39.714844 24.066406 41.503906 19.039062 40.875 14.015625 L 57 12 L 73.125 14.015625 C 72.496094 19.039062 74.285156 24.066406 77.945312 27.566406 C 81.605469 31.066406 86.707031 32.625 91.699219 31.769531 C 96.691406 30.914062 100.984375 27.746094 103.273438 23.230469 C 105.5625 18.710938 105.574219 13.375 103.3125 8.84375 L 110.464844 5.265625 C 112.132812 8.597656 113 12.273438 113 16 L 113 48 L 89 60 L 57 56 L 25 60 L 1 48 Z M 1 16 "/>
<path style=" stroke:none;fill-rule:evenodd;fill:rgb(81.2%,84.7%,86.3%);fill-opacity:1;" d="M 63.707031 23.683594 C 63.707031 19.980469 60.703125 16.976562 57 16.976562 C 53.296875 16.976562 50.292969 19.980469 50.292969 23.683594 C 50.292969 27.386719 53.296875 30.390625 57 30.390625 C 60.703125 30.390625 63.707031 27.386719 63.707031 23.683594 Z M 63.707031 23.683594 "/>
<path style="fill:none;stroke-width:1.2;stroke-linecap:butt;stroke-linejoin:round;stroke:rgb(12.9%,12.9%,12.9%);stroke-opacity:1;stroke-miterlimit:10;" d="M 204.449219 376.316406 L 210.300781 376.316406 " transform="matrix(1,0,0,-1,-151,400)"/>
<path style="fill:none;stroke-width:1.2;stroke-linecap:butt;stroke-linejoin:round;stroke:rgb(12.9%,12.9%,12.9%);stroke-opacity:1;stroke-miterlimit:10;" d="M 210.75 379.917969 C 210.300781 379.917969 209.851562 379.917969 209.101562 379.917969 C 208.351562 379.917969 207.300781 379.917969 206.476562 379.542969 C 205.648438 379.167969 205.050781 378.417969 204.75 377.59375 C 204.449219 376.765625 204.449219 375.867188 204.75 375.042969 C 205.050781 374.21875 205.648438 373.46875 206.476562 373.09375 C 207.300781 372.71875 208.351562 372.71875 209.101562 372.71875 C 209.851562 372.71875 210.300781 372.71875 210.75 372.71875 " transform="matrix(1,0,0,-1,-151,400)"/>
<path style=" stroke:none;fill-rule:evenodd;fill:rgb(29.8%,68.6%,31.4%);fill-opacity:0.3;" d="M 76.199219 42 C 76.199219 37.734375 69.800781 37.734375 69.800781 42 C 69.800781 46.265625 76.199219 46.265625 76.199219 42 Z M 76.199219 42 "/>
<path style=" stroke:none;fill-rule:evenodd;fill:rgb(95.7%,26.3%,21.2%);fill-opacity:1;" d="M 44.199219 42 C 44.199219 37.734375 37.800781 37.734375 37.800781 42 C 37.800781 46.265625 44.199219 46.265625 44.199219 42 Z M 44.199219 42 "/>
<path style=" stroke:none;fill-rule:evenodd;fill:rgb(69%,74.5%,77.3%);fill-opacity:1;" d="M 169 16 C 169 12.273438 169.867188 8.597656 171.535156 5.265625 L 178.6875 8.84375 C 176.425781 13.375 176.4375 18.710938 178.726562 23.230469 C 181.015625 27.746094 185.308594 30.914062 190.300781 31.769531 C 195.292969 32.625 200.394531 31.066406 204.054688 27.566406 C 207.714844 24.066406 209.503906 19.039062 208.875 14.015625 L 225 12 L 241.125 14.015625 C 240.496094 19.039062 242.285156 24.066406 245.945312 27.566406 C 249.605469 31.066406 254.707031 32.625 259.699219 31.769531 C 264.691406 30.914062 268.984375 27.746094 271.273438 23.230469 C 273.5625 18.710938 273.574219 13.375 271.3125 8.84375 L 278.464844 5.265625 C 280.132812 8.597656 281 12.273438 281 16 L 281 48 L 257 60 L 225 56 L 193 60 L 169 48 Z M 169 16 "/>
<path style=" stroke:none;fill-rule:evenodd;fill:rgb(81.2%,84.7%,86.3%);fill-opacity:1;" d="M 231.707031 23.683594 C 231.707031 19.980469 228.703125 16.976562 225 16.976562 C 221.296875 16.976562 218.292969 19.980469 218.292969 23.683594 C 218.292969 27.386719 221.296875 30.390625 225 30.390625 C 228.703125 30.390625 231.707031 27.386719 231.707031 23.683594 Z M 231.707031 23.683594 "/>
<path style="fill:none;stroke-width:1.2;stroke-linecap:butt;stroke-linejoin:round;stroke:rgb(12.9%,12.9%,12.9%);stroke-opacity:1;stroke-miterlimit:10;" d="M 372.449219 376.316406 L 378.300781 376.316406 " transform="matrix(1,0,0,-1,-151,400)"/>
<path style="fill:none;stroke-width:1.2;stroke-linecap:butt;stroke-linejoin:round;stroke:rgb(12.9%,12.9%,12.9%);stroke-opacity:1;stroke-miterlimit:10;" d="M 378.75 379.917969 C 378.300781 379.917969 377.851562 379.917969 377.101562 379.917969 C 376.351562 379.917969 375.300781 379.917969 374.476562 379.542969 C 373.648438 379.167969 373.050781 378.417969 372.75 377.59375 C 372.449219 376.765625 372.449219 375.867188 372.75 375.042969 C 373.050781 374.21875 373.648438 373.46875 374.476562 373.09375 C 375.300781 372.71875 376.351562 372.71875 377.101562 372.71875 C 377.851562 372.71875 378.300781 372.71875 378.75 372.71875 " transform="matrix(1,0,0,-1,-151,400)"/>
<path style=" stroke:none;fill-rule:evenodd;fill:rgb(29.8%,68.6%,31.4%);fill-opacity:1;" d="M 244.199219 42 C 244.199219 37.734375 237.800781 37.734375 237.800781 42 C 237.800781 46.265625 244.199219 46.265625 244.199219 42 Z M 244.199219 42 "/>
<path style=" stroke:none;fill-rule:evenodd;fill:rgb(95.7%,26.3%,21.2%);fill-opacity:0.3;" d="M 212.199219 42 C 212.199219 37.734375 205.800781 37.734375 205.800781 42 C 205.800781 46.265625 212.199219 46.265625 212.199219 42 Z M 212.199219 42 "/>
<path style=" stroke:none;fill-rule:evenodd;fill:rgb(100%,75.7%,2.7%);fill-opacity:1;" d="M 39 16 C 39 8.269531 32.730469 2 25 2 C 17.269531 2 11 8.269531 11 16 C 11 23.730469 17.269531 30 25 30 C 32.730469 30 39 23.730469 39 16 Z M 39 16 "/>
<path style="fill:none;stroke-width:0.8;stroke-linecap:butt;stroke-linejoin:round;stroke:rgb(95.7%,26.3%,21.2%);stroke-opacity:1;stroke-miterlimit:10;" d="M 192 363.410156 L 192 366.746094 " transform="matrix(1,0,0,-1,-151,400)"/>
<path style="fill:none;stroke-width:0.8;stroke-linecap:butt;stroke-linejoin:round;stroke:rgb(95.7%,26.3%,21.2%);stroke-opacity:1;stroke-miterlimit:10;" d="M 196.683594 360.703125 L 199.574219 362.375 " transform="matrix(1,0,0,-1,-151,400)"/>
<path style="fill:none;stroke-width:0.8;stroke-linecap:butt;stroke-linejoin:round;stroke:rgb(95.7%,26.3%,21.2%);stroke-opacity:1;stroke-miterlimit:10;" d="M 196.683594 355.296875 L 199.574219 353.625 " transform="matrix(1,0,0,-1,-151,400)"/>
<path style="fill:none;stroke-width:0.8;stroke-linecap:butt;stroke-linejoin:round;stroke:rgb(95.7%,26.3%,21.2%);stroke-opacity:1;stroke-miterlimit:10;" d="M 192 352.589844 L 192 349.253906 " transform="matrix(1,0,0,-1,-151,400)"/>
<path style="fill:none;stroke-width:0.8;stroke-linecap:butt;stroke-linejoin:round;stroke:rgb(95.7%,26.3%,21.2%);stroke-opacity:1;stroke-miterlimit:10;" d="M 187.316406 355.296875 L 184.425781 353.625 " transform="matrix(1,0,0,-1,-151,400)"/>
<path style="fill:none;stroke-width:0.8;stroke-linecap:butt;stroke-linejoin:round;stroke:rgb(95.7%,26.3%,21.2%);stroke-opacity:1;stroke-miterlimit:10;" d="M 187.316406 360.703125 L 184.425781 362.375 " transform="matrix(1,0,0,-1,-151,400)"/>
<path style="fill:none;stroke-width:0.4;stroke-linecap:butt;stroke-linejoin:round;stroke:rgb(95.7%,26.3%,21.2%);stroke-opacity:1;stroke-miterlimit:10;" d="M 189.296875 362.683594 L 188.835938 363.476562 " transform="matrix(1,0,0,-1,-151,400)"/>
<path style="fill:none;stroke-width:0.4;stroke-linecap:butt;stroke-linejoin:round;stroke:rgb(95.7%,26.3%,21.2%);stroke-opacity:1;stroke-miterlimit:10;" d="M 194.703125 362.683594 L 195.164062 363.476562 " transform="matrix(1,0,0,-1,-151,400)"/>
<path style="fill:none;stroke-width:0.4;stroke-linecap:butt;stroke-linejoin:round;stroke:rgb(95.7%,26.3%,21.2%);stroke-opacity:1;stroke-miterlimit:10;" d="M 197.410156 358 L 198.324219 358 " transform="matrix(1,0,0,-1,-151,400)"/>
<path style="fill:none;stroke-width:0.4;stroke-linecap:butt;stroke-linejoin:round;stroke:rgb(95.7%,26.3%,21.2%);stroke-opacity:1;stroke-miterlimit:10;" d="M 194.703125 353.316406 L 195.164062 352.523438 " transform="matrix(1,0,0,-1,-151,400)"/>
<path style="fill:none;stroke-width:0.4;stroke-linecap:butt;stroke-linejoin:round;stroke:rgb(95.7%,26.3%,21.2%);stroke-opacity:1;stroke-miterlimit:10;" d="M 189.296875 353.316406 L 188.835938 352.523438 " transform="matrix(1,0,0,-1,-151,400)"/>
<path style="fill:none;stroke-width:0.4;stroke-linecap:butt;stroke-linejoin:round;stroke:rgb(95.7%,26.3%,21.2%);stroke-opacity:1;stroke-miterlimit:10;" d="M 186.589844 358 L 185.675781 358 " transform="matrix(1,0,0,-1,-151,400)"/>
<path style="fill:none;stroke-width:0.8;stroke-linecap:butt;stroke-linejoin:round;stroke:rgb(29.8%,68.6%,31.4%);stroke-opacity:1;stroke-miterlimit:10;" d="M 392 363.410156 L 392 366.746094 " transform="matrix(1,0,0,-1,-151,400)"/>
<path style="fill:none;stroke-width:0.8;stroke-linecap:butt;stroke-linejoin:round;stroke:rgb(29.8%,68.6%,31.4%);stroke-opacity:1;stroke-miterlimit:10;" d="M 396.683594 360.703125 L 399.574219 362.375 " transform="matrix(1,0,0,-1,-151,400)"/>
<path style="fill:none;stroke-width:0.8;stroke-linecap:butt;stroke-linejoin:round;stroke:rgb(29.8%,68.6%,31.4%);stroke-opacity:1;stroke-miterlimit:10;" d="M 396.683594 355.296875 L 399.574219 353.625 " transform="matrix(1,0,0,-1,-151,400)"/>
<path style="fill:none;stroke-width:0.8;stroke-linecap:butt;stroke-linejoin:round;stroke:rgb(29.8%,68.6%,31.4%);stroke-opacity:1;stroke-miterlimit:10;" d="M 392 352.589844 L 392 349.253906 " transform="matrix(1,0,0,-1,-151,400)"/>
<path style="fill:none;stroke-width:0.8;stroke-linecap:butt;stroke-linejoin:round;stroke:rgb(29.8%,68.6%,31.4%);stroke-opacity:1;stroke-miterlimit:10;" d="M 387.316406 355.296875 L 384.425781 353.625 " transform="matrix(1,0,0,-1,-151,400)"/>
<path style="fill:none;stroke-width:0.8;stroke-linecap:butt;stroke-linejoin:round;stroke:rgb(29.8%,68.6%,31.4%);stroke-opacity:1;stroke-miterlimit:10;" d="M 387.316406 360.703125 L 384.425781 362.375 " transform="matrix(1,0,0,-1,-151,400)"/>
<path style="fill:none;stroke-width:0.4;stroke-linecap:butt;stroke-linejoin:round;stroke:rgb(29.8%,68.6%,31.4%);stroke-opacity:1;stroke-miterlimit:10;" d="M 389.296875 362.683594 L 388.835938 363.476562 " transform="matrix(1,0,0,-1,-151,400)"/>
<path style="fill:none;stroke-width:0.4;stroke-linecap:butt;stroke-linejoin:round;stroke:rgb(29.8%,68.6%,31.4%);stroke-opacity:1;stroke-miterlimit:10;" d="M 394.703125 362.683594 L 395.164062 363.476562 " transform="matrix(1,0,0,-1,-151,400)"/>
<path style="fill:none;stroke-width:0.4;stroke-linecap:butt;stroke-linejoin:round;stroke:rgb(29.8%,68.6%,31.4%);stroke-opacity:1;stroke-miterlimit:10;" d="M 397.410156 358 L 398.324219 358 " transform="matrix(1,0,0,-1,-151,400)"/>
<path style="fill:none;stroke-width:0.4;stroke-linecap:butt;stroke-linejoin:round;stroke:rgb(29.8%,68.6%,31.4%);stroke-opacity:1;stroke-miterlimit:10;" d="M 394.703125 353.316406 L 395.164062 352.523438 " transform="matrix(1,0,0,-1,-151,400)"/>
<path style="fill:none;stroke-width:0.4;stroke-linecap:butt;stroke-linejoin:round;stroke:rgb(29.8%,68.6%,31.4%);stroke-opacity:1;stroke-miterlimit:10;" d="M 389.296875 353.316406 L 388.835938 352.523438 " transform="matrix(1,0,0,-1,-151,400)"/>
<path style="fill:none;stroke-width:0.4;stroke-linecap:butt;stroke-linejoin:round;stroke:rgb(29.8%,68.6%,31.4%);stroke-opacity:1;stroke-miterlimit:10;" d="M 386.589844 358 L 385.675781 358 " transform="matrix(1,0,0,-1,-151,400)"/>
<path style=" stroke:none;fill-rule:evenodd;fill:rgb(100%,75.7%,2.7%);fill-opacity:1;" d="M 271 15.683594 C 271 7.949219 264.730469 1.683594 257 1.683594 C 249.269531 1.683594 243 7.949219 243 15.683594 C 243 23.414062 249.269531 29.683594 257 29.683594 C 264.730469 29.683594 271 23.414062 271 15.683594 Z M 271 15.683594 "/>
<path style=" stroke:none;fill-rule:evenodd;fill:rgb(100%,75.7%,2.7%);fill-opacity:1;" d="M 207 16 C 207 8.269531 200.730469 2 193 2 C 185.269531 2 179 8.269531 179 16 C 179 23.730469 185.269531 30 193 30 C 200.730469 30 207 23.730469 207 16 Z M 207 16 "/>
<path style=" stroke:none;fill-rule:evenodd;fill:rgb(100%,75.7%,2.7%);fill-opacity:1;" d="M 103 16 C 103 8.269531 96.730469 2 89 2 C 81.269531 2 75 8.269531 75 16 C 75 23.730469 81.269531 30 89 30 C 96.730469 30 103 23.730469 103 16 Z M 103 16 "/>
<path style=" stroke:none;fill-rule:evenodd;fill:rgb(100%,75.7%,2.7%);fill-opacity:1;" d="M 46.238281 80 C 46.238281 74.898438 42.101562 70.761719 37 70.761719 C 31.898438 70.761719 27.761719 74.898438 27.761719 80 C 27.761719 85.101562 31.898438 89.238281 37 89.238281 C 42.101562 89.238281 46.238281 85.101562 46.238281 80 Z M 46.238281 80 "/>
<path style=" stroke:none;fill-rule:evenodd;fill:rgb(100%,75.7%,2.7%);fill-opacity:1;" d="M 86.238281 80 C 86.238281 74.898438 82.101562 70.761719 77 70.761719 C 71.898438 70.761719 67.761719 74.898438 67.761719 80 C 67.761719 85.101562 71.898438 89.238281 77 89.238281 C 82.101562 89.238281 86.238281 85.101562 86.238281 80 Z M 86.238281 80 "/>
<path style="fill:none;stroke-width:1.2;stroke-linecap:butt;stroke-linejoin:round;stroke:rgb(100%,100%,100%);stroke-opacity:1;stroke-miterlimit:10;" d="M 203.664062 320 L 210.976562 320 " transform="matrix(1,0,0,-1,-151,400)"/>
<path style="fill:none;stroke-width:1.2;stroke-linecap:butt;stroke-linejoin:round;stroke:rgb(100%,100%,100%);stroke-opacity:1;stroke-miterlimit:10;" d="M 211.539062 324.5 C 210.976562 324.5 210.414062 324.5 209.476562 324.5 C 208.539062 324.5 207.226562 324.5 206.195312 324.03125 C 205.164062 323.5625 204.414062 322.625 204.039062 321.59375 C 203.664062 320.5625 203.664062 319.4375 204.039062 318.40625 C 204.414062 317.375 205.164062 316.4375 206.195312 315.96875 C 207.226562 315.5 208.539062 315.5 209.476562 315.5 C 210.414062 315.5 210.976562 315.5 211.539062 315.5 " transform="matrix(1,0,0,-1,-151,400)"/>
<path style="fill:none;stroke-width:1.2;stroke-linecap:butt;stroke-linejoin:round;stroke:rgb(100%,100%,100%);stroke-opacity:1;stroke-miterlimit:10;" d="M 210.101562 326.066406 L 205.605469 314.210938 " transform="matrix(1,0,0,-1,-151,400)"/>
<path style=" stroke:none;fill-rule:evenodd;fill:rgb(100%,75.7%,2.7%);fill-opacity:1;" d="M 214.238281 80 C 214.238281 74.898438 210.101562 70.761719 205 70.761719 C 199.898438 70.761719 195.761719 74.898438 195.761719 80 C 195.761719 85.101562 199.898438 89.238281 205 89.238281 C 210.101562 89.238281 214.238281 85.101562 214.238281 80 Z M 214.238281 80 "/>
<path style=" stroke:none;fill-rule:evenodd;fill:rgb(100%,75.7%,2.7%);fill-opacity:1;" d="M 254.238281 80 C 254.238281 74.898438 250.101562 70.761719 245 70.761719 C 239.898438 70.761719 235.761719 74.898438 235.761719 80 C 235.761719 85.101562 239.898438 89.238281 245 89.238281 C 250.101562 89.238281 254.238281 85.101562 254.238281 80 Z M 254.238281 80 "/>
<path style="fill:none;stroke-width:1.2;stroke-linecap:butt;stroke-linejoin:round;stroke:rgb(100%,100%,100%);stroke-opacity:1;stroke-miterlimit:10;" d="M 371.664062 320 L 378.976562 320 " transform="matrix(1,0,0,-1,-151,400)"/>
<path style="fill:none;stroke-width:1.2;stroke-linecap:butt;stroke-linejoin:round;stroke:rgb(100%,100%,100%);stroke-opacity:1;stroke-miterlimit:10;" d="M 379.539062 324.5 C 378.976562 324.5 378.414062 324.5 377.476562 324.5 C 376.539062 324.5 375.226562 324.5 374.195312 324.03125 C 373.164062 323.5625 372.414062 322.625 372.039062 321.59375 C 371.664062 320.5625 371.664062 319.4375 372.039062 318.40625 C 372.414062 317.375 373.164062 316.4375 374.195312 315.96875 C 375.226562 315.5 376.539062 315.5 377.476562 315.5 C 378.414062 315.5 378.976562 315.5 379.539062 315.5 " transform="matrix(1,0,0,-1,-151,400)"/>
</g>
</svg>
