<?xml version="1.0" encoding="UTF-8"?>
<svg xmlns="http://www.w3.org/2000/svg" xmlns:xlink="http://www.w3.org/1999/xlink" width="161pt" height="201pt" viewBox="0 0 161 201" version="1.1">
<g id="surface27514">
<path style="fill:none;stroke-width:0.4;stroke-linecap:butt;stroke-linejoin:round;stroke:rgb(100%,100%,100%);stroke-opacity:1;stroke-dasharray:4;stroke-miterlimit:10;" d="M 176 528 L 176 328 L 336 328 L 336 528 Z M 176 528 " transform="matrix(1,0,0,-1,-175,529)"/>
<path style=" stroke:none;fill-rule:evenodd;fill:rgb(69%,74.5%,77.3%);fill-opacity:1;" d="M 25 145 C 25 141.273438 25.867188 137.597656 27.535156 134.265625 L 34.6875 137.84375 C 32.425781 142.375 32.4375 147.710938 34.726562 152.230469 C 37.015625 156.746094 41.308594 159.914062 46.300781 160.769531 C 51.292969 161.625 56.394531 160.066406 60.054688 156.566406 C 63.714844 153.066406 65.503906 148.039062 64.875 143.015625 L 81 141 L 97.125 143.015625 C 96.496094 148.039062 98.285156 153.066406 101.945312 156.566406 C 105.605469 160.066406 110.707031 161.625 115.699219 160.769531 C 120.691406 159.914062 124.984375 156.746094 127.273438 152.230469 C 129.5625 147.710938 129.574219 142.375 127.3125 137.84375 L 134.464844 134.265625 C 136.132812 137.597656 137 141.273438 137 145 L 137 177 L 113 189 L 81 185 L 49 189 L 25 177 Z M 25 145 "/>
<path style=" stroke:none;fill-rule:evenodd;fill:rgb(81.2%,84.7%,86.3%);fill-opacity:1;" d="M 87.707031 152.683594 C 87.707031 148.980469 84.703125 145.976562 81 145.976562 C 77.296875 145.976562 74.292969 148.980469 74.292969 152.683594 C 74.292969 156.386719 77.296875 159.390625 81 159.390625 C 84.703125 159.390625 87.707031 156.386719 87.707031 152.683594 Z M 87.707031 152.683594 "/>
<path style="fill:none;stroke-width:1.2;stroke-linecap:butt;stroke-linejoin:round;stroke:rgb(12.9%,12.9%,12.9%);stroke-opacity:1;stroke-miterlimit:10;" d="M 252.449219 376.316406 L 258.300781 376.316406 " transform="matrix(1,0,0,-1,-175,529)"/>
<path style="fill:none;stroke-width:1.2;stroke-linecap:butt;stroke-linejoin:round;stroke:rgb(12.9%,12.9%,12.9%);stroke-opacity:1;stroke-miterlimit:10;" d="M 258.75 379.917969 C 258.300781 379.917969 257.851562 379.917969 257.101562 379.917969 C 256.351562 379.917969 255.300781 379.917969 254.476562 379.542969 C 253.648438 379.167969 253.050781 378.417969 252.75 377.59375 C 252.449219 376.765625 252.449219 375.867188 252.75 375.042969 C 253.050781 374.21875 253.648438 373.46875 254.476562 373.09375 C 255.300781 372.71875 256.351562 372.71875 257.101562 372.71875 C 257.851562 372.71875 258.300781 372.71875 258.75 372.71875 " transform="matrix(1,0,0,-1,-175,529)"/>
<path style="fill:none;stroke-width:0.4;stroke-linecap:butt;stroke-linejoin:round;stroke:rgb(81.2%,84.7%,86.3%);stroke-opacity:1;stroke-dasharray:1,3;stroke-miterlimit:10;" d="M 222 464 C 222 471.730469 215.730469 478 208 478 C 200.269531 478 194 471.730469 194 464 C 194 456.269531 200.269531 450 208 450 C 215.730469 450 222 456.269531 222 464 Z M 222 464 " transform="matrix(1,0,0,-1,-175,529)"/>
<path style=" stroke:none;fill-rule:evenodd;fill:rgb(29.8%,68.6%,31.4%);fill-opacity:1;" d="M 100.199219 171 C 100.199219 166.734375 93.800781 166.734375 93.800781 171 C 93.800781 175.265625 100.199219 175.265625 100.199219 171 Z M 100.199219 171 "/>
<path style=" stroke:none;fill-rule:evenodd;fill:rgb(95.7%,26.3%,21.2%);fill-opacity:0.3;" d="M 68.199219 171 C 68.199219 166.734375 61.800781 166.734375 61.800781 171 C 61.800781 175.265625 68.199219 175.265625 68.199219 171 Z M 68.199219 171 "/>
<path style="fill:none;stroke-width:0.4;stroke-linecap:butt;stroke-linejoin:round;stroke:rgb(81.2%,84.7%,86.3%);stroke-opacity:1;stroke-dasharray:1,3;stroke-miterlimit:10;" d="M 286 456 C 286 463.730469 279.730469 470 272 470 C 264.269531 470 258 463.730469 258 456 C 258 448.269531 264.269531 442 272 442 C 279.730469 442 286 448.269531 286 456 Z M 286 456 " transform="matrix(1,0,0,-1,-175,529)"/>
<path style="fill:none;stroke-width:0.4;stroke-linecap:butt;stroke-linejoin:round;stroke:rgb(81.2%,84.7%,86.3%);stroke-opacity:1;stroke-dasharray:1,3;stroke-miterlimit:10;" d="M 254 432 C 254 439.730469 247.730469 446 240 446 C 232.269531 446 226 439.730469 226 432 C 226 424.269531 232.269531 418 240 418 C 247.730469 418 254 424.269531 254 432 Z M 254 432 " transform="matrix(1,0,0,-1,-175,529)"/>
<path style="fill:none;stroke-width:0.4;stroke-linecap:butt;stroke-linejoin:round;stroke:rgb(81.2%,84.7%,86.3%);stroke-opacity:1;stroke-dasharray:1,3;stroke-miterlimit:10;" d="M 262 488 C 262 495.730469 255.730469 502 248 502 C 240.269531 502 234 495.730469 234 488 C 234 480.269531 240.269531 474 248 474 C 255.730469 474 262 480.269531 262 488 Z M 262 488 " transform="matrix(1,0,0,-1,-175,529)"/>
<path style="fill:none;stroke-width:0.4;stroke-linecap:butt;stroke-linejoin:round;stroke:rgb(81.2%,84.7%,86.3%);stroke-opacity:1;stroke-dasharray:1,3;stroke-miterlimit:10;" d="M 318 488 C 318 495.730469 311.730469 502 304 502 C 296.269531 502 290 495.730469 290 488 C 290 480.269531 296.269531 474 304 474 C 311.730469 474 318 480.269531 318 488 Z M 318 488 " transform="matrix(1,0,0,-1,-175,529)"/>
<path style="fill:none;stroke-width:0.4;stroke-linecap:butt;stroke-linejoin:round;stroke:rgb(81.2%,84.7%,86.3%);stroke-opacity:1;stroke-dasharray:1,3;stroke-miterlimit:10;" d="M 326 448 C 326 455.730469 319.730469 462 312 462 C 304.269531 462 298 455.730469 298 448 C 298 440.269531 304.269531 434 312 434 C 319.730469 434 326 440.269531 326 448 Z M 326 448 " transform="matrix(1,0,0,-1,-175,529)"/>
<path style="fill:none;stroke-width:0.4;stroke-linecap:butt;stroke-linejoin:round;stroke:rgb(81.2%,84.7%,86.3%);stroke-opacity:1;stroke-dasharray:1,3;stroke-miterlimit:10;" d="M 214 504 C 214 511.730469 207.730469 518 200 518 C 192.269531 518 186 511.730469 186 504 C 186 496.269531 192.269531 490 200 490 C 207.730469 490 214 496.269531 214 504 Z M 214 504 " transform="matrix(1,0,0,-1,-175,529)"/>
<path style="fill:none;stroke-width:0.4;stroke-linecap:butt;stroke-linejoin:round;stroke:rgb(81.2%,84.7%,86.3%);stroke-opacity:1;stroke-dasharray:1,3;stroke-miterlimit:10;" d="M 238 384 C 238 391.730469 231.730469 398 224 398 C 216.269531 398 210 391.730469 210 384 C 210 376.269531 216.269531 370 224 370 C 231.730469 370 238 376.269531 238 384 Z M 238 384 " transform="matrix(1,0,0,-1,-175,529)"/>
<path style="fill:none;stroke-width:0.4;stroke-linecap:butt;stroke-linejoin:round;stroke:rgb(81.2%,84.7%,86.3%);stroke-opacity:1;stroke-dasharray:1,3;stroke-miterlimit:10;" d="M 302 384 C 302 391.730469 295.730469 398 288 398 C 280.269531 398 274 391.730469 274 384 C 274 376.269531 280.269531 370 288 370 C 295.730469 370 302 376.269531 302 384 Z M 302 384 " transform="matrix(1,0,0,-1,-175,529)"/>
<path style="fill:none;stroke-width:0.8;stroke-linecap:butt;stroke-linejoin:round;stroke:rgb(29.8%,68.6%,31.4%);stroke-opacity:1;stroke-miterlimit:10;" d="M 272 363.410156 L 272 366.746094 " transform="matrix(1,0,0,-1,-175,529)"/>
<path style="fill:none;stroke-width:0.8;stroke-linecap:butt;stroke-linejoin:round;stroke:rgb(29.8%,68.6%,31.4%);stroke-opacity:1;stroke-miterlimit:10;" d="M 276.683594 360.703125 L 279.574219 362.375 " transform="matrix(1,0,0,-1,-175,529)"/>
<path style="fill:none;stroke-width:0.8;stroke-linecap:butt;stroke-linejoin:round;stroke:rgb(29.8%,68.6%,31.4%);stroke-opacity:1;stroke-miterlimit:10;" d="M 276.683594 355.296875 L 279.574219 353.625 " transform="matrix(1,0,0,-1,-175,529)"/>
<path style="fill:none;stroke-width:0.8;stroke-linecap:butt;stroke-linejoin:round;stroke:rgb(29.8%,68.6%,31.4%);stroke-opacity:1;stroke-miterlimit:10;" d="M 272 352.589844 L 272 349.253906 " transform="matrix(1,0,0,-1,-175,529)"/>
<path style="fill:none;stroke-width:0.8;stroke-linecap:butt;stroke-linejoin:round;stroke:rgb(29.8%,68.6%,31.4%);stroke-opacity:1;stroke-miterlimit:10;" d="M 267.316406 355.296875 L 264.425781 353.625 " transform="matrix(1,0,0,-1,-175,529)"/>
<path style="fill:none;stroke-width:0.8;stroke-linecap:butt;stroke-linejoin:round;stroke:rgb(29.8%,68.6%,31.4%);stroke-opacity:1;stroke-miterlimit:10;" d="M 267.316406 360.703125 L 264.425781 362.375 " transform="matrix(1,0,0,-1,-175,529)"/>
<path style="fill:none;stroke-width:0.4;stroke-linecap:butt;stroke-linejoin:round;stroke:rgb(29.8%,68.6%,31.4%);stroke-opacity:1;stroke-miterlimit:10;" d="M 269.296875 362.683594 L 268.835938 363.476562 " transform="matrix(1,0,0,-1,-175,529)"/>
<path style="fill:none;stroke-width:0.4;stroke-linecap:butt;stroke-linejoin:round;stroke:rgb(29.8%,68.6%,31.4%);stroke-opacity:1;stroke-miterlimit:10;" d="M 274.703125 362.683594 L 275.164062 363.476562 " transform="matrix(1,0,0,-1,-175,529)"/>
<path style="fill:none;stroke-width:0.4;stroke-linecap:butt;stroke-linejoin:round;stroke:rgb(29.8%,68.6%,31.4%);stroke-opacity:1;stroke-miterlimit:10;" d="M 277.410156 358 L 278.324219 358 " transform="matrix(1,0,0,-1,-175,529)"/>
<path style="fill:none;stroke-width:0.4;stroke-linecap:butt;stroke-linejoin:round;stroke:rgb(29.8%,68.6%,31.4%);stroke-opacity:1;stroke-miterlimit:10;" d="M 274.703125 353.316406 L 275.164062 352.523438 " transform="matrix(1,0,0,-1,-175,529)"/>
<path style="fill:none;stroke-width:0.4;stroke-linecap:butt;stroke-linejoin:round;stroke:rgb(29.8%,68.6%,31.4%);stroke-opacity:1;stroke-miterlimit:10;" d="M 269.296875 353.316406 L 268.835938 352.523438 " transform="matrix(1,0,0,-1,-175,529)"/>
<path style="fill:none;stroke-width:0.4;stroke-linecap:butt;stroke-linejoin:round;stroke:rgb(29.8%,68.6%,31.4%);stroke-opacity:1;stroke-miterlimit:10;" d="M 266.589844 358 L 265.675781 358 " transform="matrix(1,0,0,-1,-175,529)"/>
</g>
</svg>
