<?xml version="1.0" encoding="UTF-8"?>
<svg xmlns="http://www.w3.org/2000/svg" xmlns:xlink="http://www.w3.org/1999/xlink" width="161pt" height="201pt" viewBox="0 0 161 201" version="1.1">
<g id="surface28010">
<path style="fill:none;stroke-width:0.4;stroke-linecap:butt;stroke-linejoin:round;stroke:rgb(100%,100%,100%);stroke-opacity:1;stroke-dasharray:4;stroke-miterlimit:10;" d="M 176 528 L 176 328 L 336 328 L 336 528 Z M 176 528 " transform="matrix(1,0,0,-1,-175,529)"/>
<path style=" stroke:none;fill-rule:evenodd;fill:rgb(69%,74.5%,77.3%);fill-opacity:1;" d="M 25 145 C 25 141.273438 25.867188 137.597656 27.535156 134.265625 L 34.6875 137.84375 C 32.425781 142.375 32.4375 147.710938 34.726562 152.230469 C 37.015625 156.746094 41.308594 159.914062 46.300781 160.769531 C 51.292969 161.625 56.394531 160.066406 60.054688 156.566406 C 63.714844 153.066406 65.503906 148.039062 64.875 143.015625 L 81 141 L 97.125 143.015625 C 96.496094 148.039062 98.285156 153.066406 101.945312 156.566406 C 105.605469 160.066406 110.707031 161.625 115.699219 160.769531 C 120.691406 159.914062 124.984375 156.746094 127.273438 152.230469 C 129.5625 147.710938 129.574219 142.375 127.3125 137.84375 L 134.464844 134.265625 C 136.132812 137.597656 137 141.273438 137 145 L 137 177 L 113 189 L 81 185 L 49 189 L 25 177 Z M 25 145 "/>
<path style=" stroke:none;fill-rule:evenodd;fill:rgb(81.2%,84.7%,86.3%);fill-opacity:1;" d="M 87.707031 152.683594 C 87.707031 148.980469 84.703125 145.976562 81 145.976562 C 77.296875 145.976562 74.292969 148.980469 74.292969 152.683594 C 74.292969 156.386719 77.296875 159.390625 81 159.390625 C 84.703125 159.390625 87.707031 156.386719 87.707031 152.683594 Z M 87.707031 152.683594 "/>
<path style="fill:none;stroke-width:1.2;stroke-linecap:butt;stroke-linejoin:round;stroke:rgb(12.9%,12.9%,12.9%);stroke-opacity:1;stroke-miterlimit:10;" d="M 252.449219 376.316406 L 258.300781 376.316406 " transform="matrix(1,0,0,-1,-175,529)"/>
<path style="fill:none;stroke-width:1.2;stroke-linecap:butt;stroke-linejoin:round;stroke:rgb(12.9%,12.9%,12.9%);stroke-opacity:1;stroke-miterlimit:10;" d="M 258.75 379.917969 C 258.300781 379.917969 257.851562 379.917969 257.101562 379.917969 C 256.351562 379.917969 255.300781 379.917969 254.476562 379.542969 C 253.648438 379.167969 253.050781 378.417969 252.75 377.59375 C 252.449219 376.765625 252.449219 375.867188 252.75 375.042969 C 253.050781 374.21875 253.648438 373.46875 254.476562 373.09375 C 255.300781 372.71875 256.351562 372.71875 257.101562 372.71875 C 257.851562 372.71875 258.300781 372.71875 258.75 372.71875 " transform="matrix(1,0,0,-1,-175,529)"/>
<path style=" stroke:none;fill-rule:evenodd;fill:rgb(100%,59.6%,0%);fill-opacity:1;" d="M 47 65 C 47 57.269531 40.730469 51 33 51 C 25.269531 51 19 57.269531 19 65 C 19 72.730469 25.269531 79 33 79 C 40.730469 79 47 72.730469 47 65 Z M 47 65 "/>
<path style=" stroke:none;fill-rule:evenodd;fill:rgb(29.8%,68.6%,31.4%);fill-opacity:1;" d="M 100.199219 171 C 100.199219 166.734375 93.800781 166.734375 93.800781 171 C 93.800781 175.265625 100.199219 175.265625 100.199219 171 Z M 100.199219 171 "/>
<path style=" stroke:none;fill-rule:evenodd;fill:rgb(95.7%,26.3%,21.2%);fill-opacity:1;" d="M 68.199219 171 C 68.199219 166.734375 61.800781 166.734375 61.800781 171 C 61.800781 175.265625 68.199219 175.265625 68.199219 171 Z M 68.199219 171 "/>
<path style=" stroke:none;fill-rule:evenodd;fill:rgb(29.8%,68.6%,31.4%);fill-opacity:1;" d="M 111 73 C 111 65.269531 104.730469 59 97 59 C 89.269531 59 83 65.269531 83 73 C 83 80.730469 89.269531 87 97 87 C 104.730469 87 111 80.730469 111 73 Z M 111 73 "/>
<path style=" stroke:none;fill-rule:evenodd;fill:rgb(40.4%,22.7%,71.8%);fill-opacity:1;" d="M 79 97 C 79 89.269531 72.730469 83 65 83 C 57.269531 83 51 89.269531 51 97 C 51 104.730469 57.269531 111 65 111 C 72.730469 111 79 104.730469 79 97 Z M 79 97 "/>
<path style=" stroke:none;fill-rule:evenodd;fill:rgb(91.4%,11.8%,38.8%);fill-opacity:1;" d="M 87 41 C 87 33.269531 80.730469 27 73 27 C 65.269531 27 59 33.269531 59 41 C 59 48.730469 65.269531 55 73 55 C 80.730469 55 87 48.730469 87 41 Z M 87 41 "/>
<path style=" stroke:none;fill-rule:evenodd;fill:rgb(80.4%,86.3%,22.4%);fill-opacity:1;" d="M 143 41 C 143 33.269531 136.730469 27 129 27 C 121.269531 27 115 33.269531 115 41 C 115 48.730469 121.269531 55 129 55 C 136.730469 55 143 48.730469 143 41 Z M 143 41 "/>
<path style=" stroke:none;fill-rule:evenodd;fill:rgb(47.5%,33.3%,28.2%);fill-opacity:1;" d="M 151 81 C 151 73.269531 144.730469 67 137 67 C 129.269531 67 123 73.269531 123 81 C 123 88.730469 129.269531 95 137 95 C 144.730469 95 151 88.730469 151 81 Z M 151 81 "/>
<path style=" stroke:none;fill-rule:evenodd;fill:rgb(1.2%,66.3%,95.7%);fill-opacity:1;" d="M 39 25 C 39 17.269531 32.730469 11 25 11 C 17.269531 11 11 17.269531 11 25 C 11 32.730469 17.269531 39 25 39 C 32.730469 39 39 32.730469 39 25 Z M 39 25 "/>
</g>
</svg>
