<?xml version="1.0" encoding="UTF-8"?>
<svg xmlns="http://www.w3.org/2000/svg" xmlns:xlink="http://www.w3.org/1999/xlink" width="190pt" height="232pt" viewBox="0 0 190 232" version="1.1">
<g id="surface20297">
<path style=" stroke:none;fill-rule:evenodd;fill:rgb(69%,74.5%,77.3%);fill-opacity:1;" d="M 1 158 C 1 154.273438 1.867188 150.597656 3.535156 147.265625 L 10.6875 150.84375 C 8.425781 155.375 8.4375 160.710938 10.726562 165.230469 C 13.015625 169.746094 17.308594 172.914062 22.300781 173.769531 C 27.292969 174.625 32.394531 173.066406 36.054688 169.566406 C 39.714844 166.066406 41.503906 161.039062 40.875 156.015625 L 57 154 L 73.125 156.015625 C 72.496094 161.039062 74.285156 166.066406 77.945312 169.566406 C 81.605469 173.066406 86.707031 174.625 91.699219 173.769531 C 96.691406 172.914062 100.984375 169.746094 103.273438 165.230469 C 105.5625 160.710938 105.574219 155.375 103.3125 150.84375 L 110.464844 147.265625 C 112.132812 150.597656 113 154.273438 113 158 L 113 190 L 89 202 L 57 198 L 25 202 L 1 190 Z M 1 158 "/>
<path style=" stroke:none;fill-rule:evenodd;fill:rgb(81.2%,84.7%,86.3%);fill-opacity:1;" d="M 63.707031 165.683594 C 63.707031 161.980469 60.703125 158.976562 57 158.976562 C 53.296875 158.976562 50.292969 161.980469 50.292969 165.683594 C 50.292969 169.386719 53.296875 172.390625 57 172.390625 C 60.703125 172.390625 63.707031 169.386719 63.707031 165.683594 Z M 63.707031 165.683594 "/>
<path style="fill:none;stroke-width:1.2;stroke-linecap:butt;stroke-linejoin:round;stroke:rgb(12.9%,12.9%,12.9%);stroke-opacity:1;stroke-miterlimit:10;" d="M 164.449219 376.316406 L 170.300781 376.316406 " transform="matrix(1,0,0,-1,-111,542)"/>
<path style="fill:none;stroke-width:1.2;stroke-linecap:butt;stroke-linejoin:round;stroke:rgb(12.9%,12.9%,12.9%);stroke-opacity:1;stroke-miterlimit:10;" d="M 170.75 379.917969 C 170.300781 379.917969 169.851562 379.917969 169.101562 379.917969 C 168.351562 379.917969 167.300781 379.917969 166.476562 379.542969 C 165.648438 379.167969 165.050781 378.417969 164.75 377.59375 C 164.449219 376.765625 164.449219 375.867188 164.75 375.042969 C 165.050781 374.21875 165.648438 373.46875 166.476562 373.09375 C 167.300781 372.71875 168.351562 372.71875 169.101562 372.71875 C 169.851562 372.71875 170.300781 372.71875 170.75 372.71875 " transform="matrix(1,0,0,-1,-111,542)"/>
<path style=" stroke:none;fill-rule:evenodd;fill:rgb(29.8%,68.6%,31.4%);fill-opacity:1;" d="M 76.199219 184 C 76.199219 179.734375 69.800781 179.734375 69.800781 184 C 69.800781 188.265625 76.199219 188.265625 76.199219 184 Z M 76.199219 184 "/>
<path style=" stroke:none;fill-rule:evenodd;fill:rgb(95.7%,26.3%,21.2%);fill-opacity:0.3;" d="M 44.199219 184 C 44.199219 179.734375 37.800781 179.734375 37.800781 184 C 37.800781 188.265625 44.199219 188.265625 44.199219 184 Z M 44.199219 184 "/>
<path style=" stroke:none;fill-rule:evenodd;fill:rgb(1.2%,66.3%,95.7%);fill-opacity:1;" d="M 39 158 C 39 150.269531 32.730469 144 25 144 C 17.269531 144 11 150.269531 11 158 C 11 165.730469 17.269531 172 25 172 C 32.730469 172 39 165.730469 39 158 Z M 39 158 "/>
<path style="fill:none;stroke-width:0.8;stroke-linecap:butt;stroke-linejoin:round;stroke:rgb(29.8%,68.6%,31.4%);stroke-opacity:1;stroke-miterlimit:10;" d="M 184 363.410156 L 184 366.746094 " transform="matrix(1,0,0,-1,-111,542)"/>
<path style="fill:none;stroke-width:0.8;stroke-linecap:butt;stroke-linejoin:round;stroke:rgb(29.8%,68.6%,31.4%);stroke-opacity:1;stroke-miterlimit:10;" d="M 188.683594 360.703125 L 191.574219 362.375 " transform="matrix(1,0,0,-1,-111,542)"/>
<path style="fill:none;stroke-width:0.8;stroke-linecap:butt;stroke-linejoin:round;stroke:rgb(29.8%,68.6%,31.4%);stroke-opacity:1;stroke-miterlimit:10;" d="M 188.683594 355.296875 L 191.574219 353.625 " transform="matrix(1,0,0,-1,-111,542)"/>
<path style="fill:none;stroke-width:0.8;stroke-linecap:butt;stroke-linejoin:round;stroke:rgb(29.8%,68.6%,31.4%);stroke-opacity:1;stroke-miterlimit:10;" d="M 184 352.589844 L 184 349.253906 " transform="matrix(1,0,0,-1,-111,542)"/>
<path style="fill:none;stroke-width:0.8;stroke-linecap:butt;stroke-linejoin:round;stroke:rgb(29.8%,68.6%,31.4%);stroke-opacity:1;stroke-miterlimit:10;" d="M 179.316406 355.296875 L 176.425781 353.625 " transform="matrix(1,0,0,-1,-111,542)"/>
<path style="fill:none;stroke-width:0.8;stroke-linecap:butt;stroke-linejoin:round;stroke:rgb(29.8%,68.6%,31.4%);stroke-opacity:1;stroke-miterlimit:10;" d="M 179.316406 360.703125 L 176.425781 362.375 " transform="matrix(1,0,0,-1,-111,542)"/>
<path style="fill:none;stroke-width:0.4;stroke-linecap:butt;stroke-linejoin:round;stroke:rgb(29.8%,68.6%,31.4%);stroke-opacity:1;stroke-miterlimit:10;" d="M 181.296875 362.683594 L 180.835938 363.476562 " transform="matrix(1,0,0,-1,-111,542)"/>
<path style="fill:none;stroke-width:0.4;stroke-linecap:butt;stroke-linejoin:round;stroke:rgb(29.8%,68.6%,31.4%);stroke-opacity:1;stroke-miterlimit:10;" d="M 186.703125 362.683594 L 187.164062 363.476562 " transform="matrix(1,0,0,-1,-111,542)"/>
<path style="fill:none;stroke-width:0.4;stroke-linecap:butt;stroke-linejoin:round;stroke:rgb(29.8%,68.6%,31.4%);stroke-opacity:1;stroke-miterlimit:10;" d="M 189.410156 358 L 190.324219 358 " transform="matrix(1,0,0,-1,-111,542)"/>
<path style="fill:none;stroke-width:0.4;stroke-linecap:butt;stroke-linejoin:round;stroke:rgb(29.8%,68.6%,31.4%);stroke-opacity:1;stroke-miterlimit:10;" d="M 186.703125 353.316406 L 187.164062 352.523438 " transform="matrix(1,0,0,-1,-111,542)"/>
<path style="fill:none;stroke-width:0.4;stroke-linecap:butt;stroke-linejoin:round;stroke:rgb(29.8%,68.6%,31.4%);stroke-opacity:1;stroke-miterlimit:10;" d="M 181.296875 353.316406 L 180.835938 352.523438 " transform="matrix(1,0,0,-1,-111,542)"/>
<path style="fill:none;stroke-width:0.4;stroke-linecap:butt;stroke-linejoin:round;stroke:rgb(29.8%,68.6%,31.4%);stroke-opacity:1;stroke-miterlimit:10;" d="M 178.589844 358 L 177.675781 358 " transform="matrix(1,0,0,-1,-111,542)"/>
<path style=" stroke:none;fill-rule:evenodd;fill:rgb(47.5%,33.3%,28.2%);fill-opacity:1;" d="M 103 157.683594 C 103 149.949219 96.730469 143.683594 89 143.683594 C 81.269531 143.683594 75 149.949219 75 157.683594 C 75 165.414062 81.269531 171.683594 89 171.683594 C 96.730469 171.683594 103 165.414062 103 157.683594 Z M 103 157.683594 "/>
<path style=" stroke:none;fill-rule:evenodd;fill:rgb(1.2%,66.3%,95.7%);fill-opacity:1;" d="M 46.238281 222 C 46.238281 216.898438 42.101562 212.761719 37 212.761719 C 31.898438 212.761719 27.761719 216.898438 27.761719 222 C 27.761719 227.101562 31.898438 231.238281 37 231.238281 C 42.101562 231.238281 46.238281 227.101562 46.238281 222 Z M 46.238281 222 "/>
<path style=" stroke:none;fill-rule:evenodd;fill:rgb(47.5%,33.3%,28.2%);fill-opacity:1;" d="M 86.238281 222 C 86.238281 216.898438 82.101562 212.761719 77 212.761719 C 71.898438 212.761719 67.761719 216.898438 67.761719 222 C 67.761719 227.101562 71.898438 231.238281 77 231.238281 C 82.101562 231.238281 86.238281 227.101562 86.238281 222 Z M 86.238281 222 "/>
<path style="fill:none;stroke-width:1.2;stroke-linecap:butt;stroke-linejoin:round;stroke:rgb(100%,100%,100%);stroke-opacity:1;stroke-miterlimit:10;" d="M 163.664062 320 L 170.976562 320 " transform="matrix(1,0,0,-1,-111,542)"/>
<path style="fill:none;stroke-width:1.2;stroke-linecap:butt;stroke-linejoin:round;stroke:rgb(100%,100%,100%);stroke-opacity:1;stroke-miterlimit:10;" d="M 171.539062 324.5 C 170.976562 324.5 170.414062 324.5 169.476562 324.5 C 168.539062 324.5 167.226562 324.5 166.195312 324.03125 C 165.164062 323.5625 164.414062 322.625 164.039062 321.59375 C 163.664062 320.5625 163.664062 319.4375 164.039062 318.40625 C 164.414062 317.375 165.164062 316.4375 166.195312 315.96875 C 167.226562 315.5 168.539062 315.5 169.476562 315.5 C 170.414062 315.5 170.976562 315.5 171.539062 315.5 " transform="matrix(1,0,0,-1,-111,542)"/>
<path style=" stroke:none;fill-rule:evenodd;fill:rgb(45.9%,45.9%,45.9%);fill-opacity:1;" d="M 118.871094 4.542969 C 115.222656 5.1875 111.164062 3.523438 108.121094 4.632812 C 105.074219 5.742188 103.035156 9.621094 99.828125 11.472656 C 96.621094 13.328125 92.242188 13.148438 89.757812 15.234375 C 87.273438 17.316406 86.6875 21.660156 84.308594 24.5 C 81.925781 27.335938 77.75 28.667969 76.128906 31.476562 C 74.507812 34.28125 75.441406 38.566406 74.175781 42.046875 C 72.910156 45.527344 69.441406 48.207031 68.878906 51.398438 C 68.316406 54.589844 70.65625 58.296875 70.65625 62 C 70.65625 65.703125 68.316406 69.410156 68.878906 72.601562 C 69.441406 75.792969 72.910156 78.472656 74.175781 81.953125 C 75.441406 85.433594 74.507812 89.71875 76.128906 92.523438 C 77.75 95.332031 81.925781 96.664062 84.308594 99.5 C 86.6875 102.339844 87.273438 106.683594 89.757812 108.765625 C 92.242188 110.851562 96.621094 110.671875 99.828125 112.527344 C 103.035156 114.378906 105.074219 118.257812 108.121094 119.367188 C 111.164062 120.476562 115.222656 118.8125 118.871094 119.457031 C 122.515625 120.097656 125.757812 123.050781 129 123.050781 C 132.242188 123.050781 135.484375 120.097656 139.128906 119.457031 C 142.777344 118.8125 146.835938 120.476562 149.878906 119.367188 C 152.925781 118.257812 154.964844 114.378906 158.171875 112.527344 C 161.378906 110.671875 165.757812 110.851562 168.242188 108.765625 C 170.726562 106.683594 171.3125 102.339844 173.691406 99.5 C 176.074219 96.664062 180.25 95.332031 181.871094 92.523438 C 183.492188 89.71875 182.558594 85.433594 183.824219 81.953125 C 185.089844 78.472656 188.558594 75.792969 189.121094 72.601562 C 189.683594 69.410156 187.34375 65.703125 187.34375 62 C 187.34375 58.296875 189.683594 54.589844 189.121094 51.398438 C 188.558594 48.207031 185.089844 45.527344 183.824219 42.046875 C 182.558594 38.566406 183.492188 34.28125 181.871094 31.476562 C 180.25 28.667969 176.074219 27.335938 173.691406 24.5 C 171.3125 21.660156 170.726562 17.316406 168.242188 15.234375 C 165.757812 13.148438 161.378906 13.328125 158.171875 11.472656 C 154.964844 9.621094 152.925781 5.742188 149.878906 4.632812 C 146.835938 3.523438 142.777344 5.1875 139.128906 4.542969 C 135.484375 3.902344 132.242188 0.949219 129 0.949219 C 125.757812 0.949219 122.515625 3.902344 118.871094 4.542969 Z M 118.871094 4.542969 "/>
<path style=" stroke:none;fill-rule:evenodd;fill:rgb(45.9%,45.9%,45.9%);fill-opacity:1;" d="M 65.539062 104.878906 C 63.691406 105.949219 61.492188 106.402344 60.742188 107.695312 C 59.996094 108.988281 60.707031 111.121094 60.707031 113.253906 C 60.707031 115.386719 59.996094 117.519531 60.742188 118.8125 C 61.492188 120.105469 63.691406 120.558594 65.539062 121.625 C 67.386719 122.691406 68.878906 124.375 70.375 124.375 C 71.867188 124.375 73.359375 122.691406 75.207031 121.625 C 77.054688 120.558594 79.257812 120.105469 80.003906 118.8125 C 80.75 117.519531 80.042969 115.386719 80.042969 113.253906 C 80.042969 111.121094 80.75 108.988281 80.003906 107.695312 C 79.257812 106.402344 77.054688 105.949219 75.207031 104.878906 C 73.359375 103.8125 71.867188 102.132812 70.375 102.132812 C 68.878906 102.132812 67.386719 103.8125 65.539062 104.878906 Z M 65.539062 104.878906 "/>
<path style=" stroke:none;fill-rule:evenodd;fill:rgb(45.9%,45.9%,45.9%);fill-opacity:1;" d="M 83.804688 134.722656 C 83.804688 131.328125 81.050781 128.574219 77.65625 128.574219 C 74.257812 128.574219 71.507812 131.328125 71.507812 134.722656 C 71.507812 138.121094 74.257812 140.871094 77.65625 140.871094 C 81.050781 140.871094 83.804688 138.121094 83.804688 134.722656 Z M 83.804688 134.722656 "/>
<path style="fill-rule:evenodd;fill:rgb(30.6%,20.4%,18%);fill-opacity:1;stroke-width:2;stroke-linecap:butt;stroke-linejoin:round;stroke:rgb(47.5%,33.3%,28.2%);stroke-opacity:1;stroke-miterlimit:10;" d="M 228.078125 515.199219 C 220.472656 511.21875 212.75 504.082031 211.230469 495.773438 C 209.707031 487.464844 214.386719 477.988281 215.734375 469.152344 C 217.078125 460.316406 215.089844 452.125 220.179688 445.808594 C 225.269531 439.488281 237.441406 435.042969 247.914062 438.257812 C 258.386719 441.476562 267.164062 452.359375 269.210938 462.949219 C 271.257812 473.539062 266.578125 483.835938 262.367188 493.433594 C 258.152344 503.027344 254.410156 511.921875 248.792969 515.960938 C 243.175781 519.996094 235.6875 519.175781 228.078125 515.199219 Z M 228.078125 515.199219 " transform="matrix(1,0,0,-1,-111,542)"/>
<path style="fill-rule:evenodd;fill:rgb(0.8%,46.7%,74.1%);fill-opacity:1;stroke-width:2;stroke-linecap:butt;stroke-linejoin:round;stroke:rgb(1.2%,66.3%,95.7%);stroke-opacity:1;stroke-miterlimit:10;" d="M 240.835938 472.835938 C 244.109375 470.261719 246.6875 464.648438 245.691406 460.492188 C 244.695312 456.339844 240.132812 453.648438 235.921875 454.523438 C 231.707031 455.402344 227.84375 459.847656 226.851562 463.769531 C 225.855469 467.691406 227.730469 471.082031 230.652344 473.011719 C 233.578125 474.945312 237.558594 475.414062 240.835938 472.835938 Z M 240.835938 472.835938 " transform="matrix(1,0,0,-1,-111,542)"/>
</g>
</svg>
