<?xml version="1.0" encoding="UTF-8"?>
<svg xmlns="http://www.w3.org/2000/svg" xmlns:xlink="http://www.w3.org/1999/xlink" width="398pt" height="137pt" viewBox="0 0 398 137" version="1.1">
<g id="surface19389">
<path style=" stroke:none;fill-rule:evenodd;fill:rgb(1.2%,66.3%,95.7%);fill-opacity:1;" d="M 14.898438 9 C 14.898438 5.132812 11.765625 2 7.898438 2 C 4.035156 2 0.898438 5.132812 0.898438 9 C 0.898438 12.867188 4.035156 16 7.898438 16 C 11.765625 16 14.898438 12.867188 14.898438 9 Z M 14.898438 9 "/>
<path style=" stroke:none;fill-rule:evenodd;fill:rgb(1.2%,66.3%,95.7%);fill-opacity:1;" d="M 14.898438 29 C 14.898438 25.132812 11.765625 22 7.898438 22 C 4.035156 22 0.898438 25.132812 0.898438 29 C 0.898438 32.867188 4.035156 36 7.898438 36 C 11.765625 36 14.898438 32.867188 14.898438 29 Z M 14.898438 29 "/>
<path style=" stroke:none;fill-rule:evenodd;fill:rgb(1.2%,66.3%,95.7%);fill-opacity:1;" d="M 14.898438 49 C 14.898438 45.132812 11.765625 42 7.898438 42 C 4.035156 42 0.898438 45.132812 0.898438 49 C 0.898438 52.867188 4.035156 56 7.898438 56 C 11.765625 56 14.898438 52.867188 14.898438 49 Z M 14.898438 49 "/>
<path style=" stroke:none;fill-rule:evenodd;fill:rgb(1.2%,66.3%,95.7%);fill-opacity:1;" d="M 14.898438 69 C 14.898438 65.132812 11.765625 62 7.898438 62 C 4.035156 62 0.898438 65.132812 0.898438 69 C 0.898438 72.867188 4.035156 76 7.898438 76 C 11.765625 76 14.898438 72.867188 14.898438 69 Z M 14.898438 69 "/>
<path style=" stroke:none;fill-rule:evenodd;fill:rgb(1.2%,66.3%,95.7%);fill-opacity:1;" d="M 32.898438 9 C 32.898438 5.132812 29.765625 2 25.898438 2 C 22.035156 2 18.898438 5.132812 18.898438 9 C 18.898438 12.867188 22.035156 16 25.898438 16 C 29.765625 16 32.898438 12.867188 32.898438 9 Z M 32.898438 9 "/>
<path style=" stroke:none;fill-rule:evenodd;fill:rgb(1.2%,66.3%,95.7%);fill-opacity:1;" d="M 14.898438 89 C 14.898438 85.132812 11.765625 82 7.898438 82 C 4.035156 82 0.898438 85.132812 0.898438 89 C 0.898438 92.867188 4.035156 96 7.898438 96 C 11.765625 96 14.898438 92.867188 14.898438 89 Z M 14.898438 89 "/>
<path style=" stroke:none;fill-rule:evenodd;fill:rgb(1.2%,66.3%,95.7%);fill-opacity:1;" d="M 14.898438 109 C 14.898438 105.132812 11.765625 102 7.898438 102 C 4.035156 102 0.898438 105.132812 0.898438 109 C 0.898438 112.867188 4.035156 116 7.898438 116 C 11.765625 116 14.898438 112.867188 14.898438 109 Z M 14.898438 109 "/>
<path style=" stroke:none;fill-rule:evenodd;fill:rgb(1.2%,66.3%,95.7%);fill-opacity:1;" d="M 14.898438 129 C 14.898438 125.132812 11.765625 122 7.898438 122 C 4.035156 122 0.898438 125.132812 0.898438 129 C 0.898438 132.867188 4.035156 136 7.898438 136 C 11.765625 136 14.898438 132.867188 14.898438 129 Z M 14.898438 129 "/>
<path style=" stroke:none;fill-rule:evenodd;fill:rgb(91.4%,11.8%,38.8%);fill-opacity:1;" d="M 32.898438 29 C 32.898438 25.132812 29.765625 22 25.898438 22 C 22.035156 22 18.898438 25.132812 18.898438 29 C 18.898438 32.867188 22.035156 36 25.898438 36 C 29.765625 36 32.898438 32.867188 32.898438 29 Z M 32.898438 29 "/>
<path style=" stroke:none;fill-rule:evenodd;fill:rgb(80.4%,86.3%,22.4%);fill-opacity:1;" d="M 32.898438 49 C 32.898438 45.132812 29.765625 42 25.898438 42 C 22.035156 42 18.898438 45.132812 18.898438 49 C 18.898438 52.867188 22.035156 56 25.898438 56 C 29.765625 56 32.898438 52.867188 32.898438 49 Z M 32.898438 49 "/>
<path style=" stroke:none;fill-rule:evenodd;fill:rgb(29.8%,68.6%,31.4%);fill-opacity:1;" d="M 32.898438 69 C 32.898438 65.132812 29.765625 62 25.898438 62 C 22.035156 62 18.898438 65.132812 18.898438 69 C 18.898438 72.867188 22.035156 76 25.898438 76 C 29.765625 76 32.898438 72.867188 32.898438 69 Z M 32.898438 69 "/>
<path style=" stroke:none;fill-rule:evenodd;fill:rgb(100%,59.6%,0%);fill-opacity:1;" d="M 32.898438 89 C 32.898438 85.132812 29.765625 82 25.898438 82 C 22.035156 82 18.898438 85.132812 18.898438 89 C 18.898438 92.867188 22.035156 96 25.898438 96 C 29.765625 96 32.898438 92.867188 32.898438 89 Z M 32.898438 89 "/>
<path style=" stroke:none;fill-rule:evenodd;fill:rgb(40.4%,22.7%,71.8%);fill-opacity:1;" d="M 32.898438 109 C 32.898438 105.132812 29.765625 102 25.898438 102 C 22.035156 102 18.898438 105.132812 18.898438 109 C 18.898438 112.867188 22.035156 116 25.898438 116 C 29.765625 116 32.898438 112.867188 32.898438 109 Z M 32.898438 109 "/>
<path style=" stroke:none;fill-rule:evenodd;fill:rgb(47.5%,33.3%,28.2%);fill-opacity:1;" d="M 32.898438 129 C 32.898438 125.132812 29.765625 122 25.898438 122 C 22.035156 122 18.898438 125.132812 18.898438 129 C 18.898438 132.867188 22.035156 136 25.898438 136 C 29.765625 136 32.898438 132.867188 32.898438 129 Z M 32.898438 129 "/>
<path style="fill:none;stroke-width:0.8;stroke-linecap:butt;stroke-linejoin:round;stroke:rgb(95.7%,26.3%,21.2%);stroke-opacity:1;stroke-miterlimit:10;" d="M 115.699219 256 C 115.699219 262.398438 106.101562 262.398438 106.101562 256 C 106.101562 249.601562 115.699219 249.601562 115.699219 256 Z M 115.699219 256 " transform="matrix(1,0,0,-1,-67,265)"/>
<path style="fill:none;stroke-width:0.8;stroke-linecap:butt;stroke-linejoin:round;stroke:rgb(95.7%,26.3%,21.2%);stroke-opacity:1;stroke-miterlimit:10;" d="M 108.898438 258 L 112.898438 254 " transform="matrix(1,0,0,-1,-67,265)"/>
<path style="fill:none;stroke-width:0.8;stroke-linecap:butt;stroke-linejoin:round;stroke:rgb(95.7%,26.3%,21.2%);stroke-opacity:1;stroke-miterlimit:10;" d="M 108.898438 254 L 112.898438 258 " transform="matrix(1,0,0,-1,-67,265)"/>
<path style="fill:none;stroke-width:0.8;stroke-linecap:butt;stroke-linejoin:round;stroke:rgb(29.8%,68.6%,31.4%);stroke-opacity:1;stroke-miterlimit:10;" d="M 115.699219 236 C 115.699219 242.398438 106.101562 242.398438 106.101562 236 C 106.101562 229.601562 115.699219 229.601562 115.699219 236 Z M 115.699219 236 " transform="matrix(1,0,0,-1,-67,265)"/>
<path style="fill:none;stroke-width:0.8;stroke-linecap:butt;stroke-linejoin:round;stroke:rgb(29.8%,68.6%,31.4%);stroke-opacity:1;stroke-miterlimit:10;" d="M 108.398438 235 L 109.898438 233.5 L 112.898438 238.5 " transform="matrix(1,0,0,-1,-67,265)"/>
<path style="fill:none;stroke-width:0.8;stroke-linecap:butt;stroke-linejoin:round;stroke:rgb(95.7%,26.3%,21.2%);stroke-opacity:1;stroke-miterlimit:10;" d="M 173.699219 176 C 173.699219 182.398438 164.101562 182.398438 164.101562 176 C 164.101562 169.601562 173.699219 169.601562 173.699219 176 Z M 173.699219 176 " transform="matrix(1,0,0,-1,-67,265)"/>
<path style="fill:none;stroke-width:0.8;stroke-linecap:butt;stroke-linejoin:round;stroke:rgb(95.7%,26.3%,21.2%);stroke-opacity:1;stroke-miterlimit:10;" d="M 166.898438 178 L 170.898438 174 " transform="matrix(1,0,0,-1,-67,265)"/>
<path style="fill:none;stroke-width:0.8;stroke-linecap:butt;stroke-linejoin:round;stroke:rgb(95.7%,26.3%,21.2%);stroke-opacity:1;stroke-miterlimit:10;" d="M 166.898438 174 L 170.898438 178 " transform="matrix(1,0,0,-1,-67,265)"/>
<path style="fill:none;stroke-width:0.8;stroke-linecap:butt;stroke-linejoin:round;stroke:rgb(29.8%,68.6%,31.4%);stroke-opacity:1;stroke-miterlimit:10;" d="M 405.699219 256 C 405.699219 262.398438 396.101562 262.398438 396.101562 256 C 396.101562 249.601562 405.699219 249.601562 405.699219 256 Z M 405.699219 256 " transform="matrix(1,0,0,-1,-67,265)"/>
<path style="fill:none;stroke-width:0.8;stroke-linecap:butt;stroke-linejoin:round;stroke:rgb(29.8%,68.6%,31.4%);stroke-opacity:1;stroke-miterlimit:10;" d="M 398.398438 255 L 399.898438 253.5 L 402.898438 258.5 " transform="matrix(1,0,0,-1,-67,265)"/>
<path style="fill:none;stroke-width:0.8;stroke-linecap:butt;stroke-linejoin:round;stroke:rgb(95.7%,26.3%,21.2%);stroke-opacity:1;stroke-miterlimit:10;" d="M 115.699219 176 C 115.699219 182.398438 106.101562 182.398438 106.101562 176 C 106.101562 169.601562 115.699219 169.601562 115.699219 176 Z M 115.699219 176 " transform="matrix(1,0,0,-1,-67,265)"/>
<path style="fill:none;stroke-width:0.8;stroke-linecap:butt;stroke-linejoin:round;stroke:rgb(95.7%,26.3%,21.2%);stroke-opacity:1;stroke-miterlimit:10;" d="M 108.898438 178 L 112.898438 174 " transform="matrix(1,0,0,-1,-67,265)"/>
<path style="fill:none;stroke-width:0.8;stroke-linecap:butt;stroke-linejoin:round;stroke:rgb(95.7%,26.3%,21.2%);stroke-opacity:1;stroke-miterlimit:10;" d="M 108.898438 174 L 112.898438 178 " transform="matrix(1,0,0,-1,-67,265)"/>
<path style="fill:none;stroke-width:0.8;stroke-linecap:butt;stroke-linejoin:round;stroke:rgb(29.8%,68.6%,31.4%);stroke-opacity:1;stroke-miterlimit:10;" d="M 115.699219 156 C 115.699219 162.398438 106.101562 162.398438 106.101562 156 C 106.101562 149.601562 115.699219 149.601562 115.699219 156 Z M 115.699219 156 " transform="matrix(1,0,0,-1,-67,265)"/>
<path style="fill:none;stroke-width:0.8;stroke-linecap:butt;stroke-linejoin:round;stroke:rgb(29.8%,68.6%,31.4%);stroke-opacity:1;stroke-miterlimit:10;" d="M 108.398438 155 L 109.898438 153.5 L 112.898438 158.5 " transform="matrix(1,0,0,-1,-67,265)"/>
<path style="fill:none;stroke-width:0.8;stroke-linecap:butt;stroke-linejoin:round;stroke:rgb(95.7%,26.3%,21.2%);stroke-opacity:1;stroke-miterlimit:10;" d="M 231.699219 256 C 231.699219 262.398438 222.101562 262.398438 222.101562 256 C 222.101562 249.601562 231.699219 249.601562 231.699219 256 Z M 231.699219 256 " transform="matrix(1,0,0,-1,-67,265)"/>
<path style="fill:none;stroke-width:0.8;stroke-linecap:butt;stroke-linejoin:round;stroke:rgb(95.7%,26.3%,21.2%);stroke-opacity:1;stroke-miterlimit:10;" d="M 224.898438 258 L 228.898438 254 " transform="matrix(1,0,0,-1,-67,265)"/>
<path style="fill:none;stroke-width:0.8;stroke-linecap:butt;stroke-linejoin:round;stroke:rgb(95.7%,26.3%,21.2%);stroke-opacity:1;stroke-miterlimit:10;" d="M 224.898438 254 L 228.898438 258 " transform="matrix(1,0,0,-1,-67,265)"/>
<path style=" stroke:none;fill-rule:evenodd;fill:rgb(91.4%,11.8%,38.8%);fill-opacity:1;" d="M 72.898438 9 C 72.898438 5.132812 69.765625 2 65.898438 2 C 62.035156 2 58.898438 5.132812 58.898438 9 C 58.898438 12.867188 62.035156 16 65.898438 16 C 69.765625 16 72.898438 12.867188 72.898438 9 Z M 72.898438 9 "/>
<path style=" stroke:none;fill-rule:evenodd;fill:rgb(91.4%,11.8%,38.8%);fill-opacity:1;" d="M 72.898438 29 C 72.898438 25.132812 69.765625 22 65.898438 22 C 62.035156 22 58.898438 25.132812 58.898438 29 C 58.898438 32.867188 62.035156 36 65.898438 36 C 69.765625 36 72.898438 32.867188 72.898438 29 Z M 72.898438 29 "/>
<path style=" stroke:none;fill-rule:evenodd;fill:rgb(91.4%,11.8%,38.8%);fill-opacity:1;" d="M 72.898438 49 C 72.898438 45.132812 69.765625 42 65.898438 42 C 62.035156 42 58.898438 45.132812 58.898438 49 C 58.898438 52.867188 62.035156 56 65.898438 56 C 69.765625 56 72.898438 52.867188 72.898438 49 Z M 72.898438 49 "/>
<path style=" stroke:none;fill-rule:evenodd;fill:rgb(91.4%,11.8%,38.8%);fill-opacity:1;" d="M 72.898438 69 C 72.898438 65.132812 69.765625 62 65.898438 62 C 62.035156 62 58.898438 65.132812 58.898438 69 C 58.898438 72.867188 62.035156 76 65.898438 76 C 69.765625 76 72.898438 72.867188 72.898438 69 Z M 72.898438 69 "/>
<path style=" stroke:none;fill-rule:evenodd;fill:rgb(1.2%,66.3%,95.7%);fill-opacity:1;" d="M 90.898438 9 C 90.898438 5.132812 87.765625 2 83.898438 2 C 80.035156 2 76.898438 5.132812 76.898438 9 C 76.898438 12.867188 80.035156 16 83.898438 16 C 87.765625 16 90.898438 12.867188 90.898438 9 Z M 90.898438 9 "/>
<path style=" stroke:none;fill-rule:evenodd;fill:rgb(91.4%,11.8%,38.8%);fill-opacity:1;" d="M 72.898438 89 C 72.898438 85.132812 69.765625 82 65.898438 82 C 62.035156 82 58.898438 85.132812 58.898438 89 C 58.898438 92.867188 62.035156 96 65.898438 96 C 69.765625 96 72.898438 92.867188 72.898438 89 Z M 72.898438 89 "/>
<path style=" stroke:none;fill-rule:evenodd;fill:rgb(91.4%,11.8%,38.8%);fill-opacity:1;" d="M 72.898438 109 C 72.898438 105.132812 69.765625 102 65.898438 102 C 62.035156 102 58.898438 105.132812 58.898438 109 C 58.898438 112.867188 62.035156 116 65.898438 116 C 69.765625 116 72.898438 112.867188 72.898438 109 Z M 72.898438 109 "/>
<path style=" stroke:none;fill-rule:evenodd;fill:rgb(91.4%,11.8%,38.8%);fill-opacity:1;" d="M 72.898438 129 C 72.898438 125.132812 69.765625 122 65.898438 122 C 62.035156 122 58.898438 125.132812 58.898438 129 C 58.898438 132.867188 62.035156 136 65.898438 136 C 69.765625 136 72.898438 132.867188 72.898438 129 Z M 72.898438 129 "/>
<path style=" stroke:none;fill-rule:evenodd;fill:rgb(91.4%,11.8%,38.8%);fill-opacity:1;" d="M 90.898438 29 C 90.898438 25.132812 87.765625 22 83.898438 22 C 80.035156 22 76.898438 25.132812 76.898438 29 C 76.898438 32.867188 80.035156 36 83.898438 36 C 87.765625 36 90.898438 32.867188 90.898438 29 Z M 90.898438 29 "/>
<path style=" stroke:none;fill-rule:evenodd;fill:rgb(80.4%,86.3%,22.4%);fill-opacity:1;" d="M 90.898438 49 C 90.898438 45.132812 87.765625 42 83.898438 42 C 80.035156 42 76.898438 45.132812 76.898438 49 C 76.898438 52.867188 80.035156 56 83.898438 56 C 87.765625 56 90.898438 52.867188 90.898438 49 Z M 90.898438 49 "/>
<path style=" stroke:none;fill-rule:evenodd;fill:rgb(29.8%,68.6%,31.4%);fill-opacity:1;" d="M 90.898438 69 C 90.898438 65.132812 87.765625 62 83.898438 62 C 80.035156 62 76.898438 65.132812 76.898438 69 C 76.898438 72.867188 80.035156 76 83.898438 76 C 87.765625 76 90.898438 72.867188 90.898438 69 Z M 90.898438 69 "/>
<path style=" stroke:none;fill-rule:evenodd;fill:rgb(100%,59.6%,0%);fill-opacity:1;" d="M 90.898438 89 C 90.898438 85.132812 87.765625 82 83.898438 82 C 80.035156 82 76.898438 85.132812 76.898438 89 C 76.898438 92.867188 80.035156 96 83.898438 96 C 87.765625 96 90.898438 92.867188 90.898438 89 Z M 90.898438 89 "/>
<path style=" stroke:none;fill-rule:evenodd;fill:rgb(40.4%,22.7%,71.8%);fill-opacity:1;" d="M 90.898438 109 C 90.898438 105.132812 87.765625 102 83.898438 102 C 80.035156 102 76.898438 105.132812 76.898438 109 C 76.898438 112.867188 80.035156 116 83.898438 116 C 87.765625 116 90.898438 112.867188 90.898438 109 Z M 90.898438 109 "/>
<path style=" stroke:none;fill-rule:evenodd;fill:rgb(47.5%,33.3%,28.2%);fill-opacity:1;" d="M 90.898438 129 C 90.898438 125.132812 87.765625 122 83.898438 122 C 80.035156 122 76.898438 125.132812 76.898438 129 C 76.898438 132.867188 80.035156 136 83.898438 136 C 87.765625 136 90.898438 132.867188 90.898438 129 Z M 90.898438 129 "/>
<path style="fill:none;stroke-width:0.8;stroke-linecap:butt;stroke-linejoin:round;stroke:rgb(95.7%,26.3%,21.2%);stroke-opacity:1;stroke-miterlimit:10;" d="M 347.699219 256 C 347.699219 262.398438 338.101562 262.398438 338.101562 256 C 338.101562 249.601562 347.699219 249.601562 347.699219 256 Z M 347.699219 256 " transform="matrix(1,0,0,-1,-67,265)"/>
<path style="fill:none;stroke-width:0.8;stroke-linecap:butt;stroke-linejoin:round;stroke:rgb(95.7%,26.3%,21.2%);stroke-opacity:1;stroke-miterlimit:10;" d="M 340.898438 258 L 344.898438 254 " transform="matrix(1,0,0,-1,-67,265)"/>
<path style="fill:none;stroke-width:0.8;stroke-linecap:butt;stroke-linejoin:round;stroke:rgb(95.7%,26.3%,21.2%);stroke-opacity:1;stroke-miterlimit:10;" d="M 340.898438 254 L 344.898438 258 " transform="matrix(1,0,0,-1,-67,265)"/>
<path style="fill:none;stroke-width:0.8;stroke-linecap:butt;stroke-linejoin:round;stroke:rgb(29.8%,68.6%,31.4%);stroke-opacity:1;stroke-miterlimit:10;" d="M 173.699219 236 C 173.699219 242.398438 164.101562 242.398438 164.101562 236 C 164.101562 229.601562 173.699219 229.601562 173.699219 236 Z M 173.699219 236 " transform="matrix(1,0,0,-1,-67,265)"/>
<path style="fill:none;stroke-width:0.8;stroke-linecap:butt;stroke-linejoin:round;stroke:rgb(29.8%,68.6%,31.4%);stroke-opacity:1;stroke-miterlimit:10;" d="M 166.398438 235 L 167.898438 233.5 L 170.898438 238.5 " transform="matrix(1,0,0,-1,-67,265)"/>
<path style="fill:none;stroke-width:0.8;stroke-linecap:butt;stroke-linejoin:round;stroke:rgb(95.7%,26.3%,21.2%);stroke-opacity:1;stroke-miterlimit:10;" d="M 173.699219 216 C 173.699219 222.398438 164.101562 222.398438 164.101562 216 C 164.101562 209.601562 173.699219 209.601562 173.699219 216 Z M 173.699219 216 " transform="matrix(1,0,0,-1,-67,265)"/>
<path style="fill:none;stroke-width:0.8;stroke-linecap:butt;stroke-linejoin:round;stroke:rgb(95.7%,26.3%,21.2%);stroke-opacity:1;stroke-miterlimit:10;" d="M 166.898438 218 L 170.898438 214 " transform="matrix(1,0,0,-1,-67,265)"/>
<path style="fill:none;stroke-width:0.8;stroke-linecap:butt;stroke-linejoin:round;stroke:rgb(95.7%,26.3%,21.2%);stroke-opacity:1;stroke-miterlimit:10;" d="M 166.898438 214 L 170.898438 218 " transform="matrix(1,0,0,-1,-67,265)"/>
<path style="fill:none;stroke-width:0.8;stroke-linecap:butt;stroke-linejoin:round;stroke:rgb(29.8%,68.6%,31.4%);stroke-opacity:1;stroke-miterlimit:10;" d="M 231.699219 176 C 231.699219 182.398438 222.101562 182.398438 222.101562 176 C 222.101562 169.601562 231.699219 169.601562 231.699219 176 Z M 231.699219 176 " transform="matrix(1,0,0,-1,-67,265)"/>
<path style="fill:none;stroke-width:0.8;stroke-linecap:butt;stroke-linejoin:round;stroke:rgb(29.8%,68.6%,31.4%);stroke-opacity:1;stroke-miterlimit:10;" d="M 224.398438 175 L 225.898438 173.5 L 228.898438 178.5 " transform="matrix(1,0,0,-1,-67,265)"/>
<path style="fill:none;stroke-width:0.8;stroke-linecap:butt;stroke-linejoin:round;stroke:rgb(95.7%,26.3%,21.2%);stroke-opacity:1;stroke-miterlimit:10;" d="M 347.699219 236 C 347.699219 242.398438 338.101562 242.398438 338.101562 236 C 338.101562 229.601562 347.699219 229.601562 347.699219 236 Z M 347.699219 236 " transform="matrix(1,0,0,-1,-67,265)"/>
<path style="fill:none;stroke-width:0.8;stroke-linecap:butt;stroke-linejoin:round;stroke:rgb(95.7%,26.3%,21.2%);stroke-opacity:1;stroke-miterlimit:10;" d="M 340.898438 238 L 344.898438 234 " transform="matrix(1,0,0,-1,-67,265)"/>
<path style="fill:none;stroke-width:0.8;stroke-linecap:butt;stroke-linejoin:round;stroke:rgb(95.7%,26.3%,21.2%);stroke-opacity:1;stroke-miterlimit:10;" d="M 340.898438 234 L 344.898438 238 " transform="matrix(1,0,0,-1,-67,265)"/>
<path style="fill:none;stroke-width:0.8;stroke-linecap:butt;stroke-linejoin:round;stroke:rgb(29.8%,68.6%,31.4%);stroke-opacity:1;stroke-miterlimit:10;" d="M 173.699219 156 C 173.699219 162.398438 164.101562 162.398438 164.101562 156 C 164.101562 149.601562 173.699219 149.601562 173.699219 156 Z M 173.699219 156 " transform="matrix(1,0,0,-1,-67,265)"/>
<path style="fill:none;stroke-width:0.8;stroke-linecap:butt;stroke-linejoin:round;stroke:rgb(29.8%,68.6%,31.4%);stroke-opacity:1;stroke-miterlimit:10;" d="M 166.398438 155 L 167.898438 153.5 L 170.898438 158.5 " transform="matrix(1,0,0,-1,-67,265)"/>
<path style="fill:none;stroke-width:0.8;stroke-linecap:butt;stroke-linejoin:round;stroke:rgb(95.7%,26.3%,21.2%);stroke-opacity:1;stroke-miterlimit:10;" d="M 173.699219 136 C 173.699219 142.398438 164.101562 142.398438 164.101562 136 C 164.101562 129.601562 173.699219 129.601562 173.699219 136 Z M 173.699219 136 " transform="matrix(1,0,0,-1,-67,265)"/>
<path style="fill:none;stroke-width:0.8;stroke-linecap:butt;stroke-linejoin:round;stroke:rgb(95.7%,26.3%,21.2%);stroke-opacity:1;stroke-miterlimit:10;" d="M 166.898438 138 L 170.898438 134 " transform="matrix(1,0,0,-1,-67,265)"/>
<path style="fill:none;stroke-width:0.8;stroke-linecap:butt;stroke-linejoin:round;stroke:rgb(95.7%,26.3%,21.2%);stroke-opacity:1;stroke-miterlimit:10;" d="M 166.898438 134 L 170.898438 138 " transform="matrix(1,0,0,-1,-67,265)"/>
<path style="fill:none;stroke-width:0.8;stroke-linecap:butt;stroke-linejoin:round;stroke:rgb(100%,100%,100%);stroke-opacity:1;stroke-miterlimit:10;" d="M 120.898438 264 L 120.898438 128 " transform="matrix(1,0,0,-1,-67,265)"/>
<path style=" stroke:none;fill-rule:evenodd;fill:rgb(80.4%,86.3%,22.4%);fill-opacity:1;" d="M 130.898438 9 C 130.898438 5.132812 127.765625 2 123.898438 2 C 120.035156 2 116.898438 5.132812 116.898438 9 C 116.898438 12.867188 120.035156 16 123.898438 16 C 127.765625 16 130.898438 12.867188 130.898438 9 Z M 130.898438 9 "/>
<path style=" stroke:none;fill-rule:evenodd;fill:rgb(80.4%,86.3%,22.4%);fill-opacity:1;" d="M 130.898438 29 C 130.898438 25.132812 127.765625 22 123.898438 22 C 120.035156 22 116.898438 25.132812 116.898438 29 C 116.898438 32.867188 120.035156 36 123.898438 36 C 127.765625 36 130.898438 32.867188 130.898438 29 Z M 130.898438 29 "/>
<path style=" stroke:none;fill-rule:evenodd;fill:rgb(80.4%,86.3%,22.4%);fill-opacity:1;" d="M 130.898438 49 C 130.898438 45.132812 127.765625 42 123.898438 42 C 120.035156 42 116.898438 45.132812 116.898438 49 C 116.898438 52.867188 120.035156 56 123.898438 56 C 127.765625 56 130.898438 52.867188 130.898438 49 Z M 130.898438 49 "/>
<path style=" stroke:none;fill-rule:evenodd;fill:rgb(80.4%,86.3%,22.4%);fill-opacity:1;" d="M 130.898438 69 C 130.898438 65.132812 127.765625 62 123.898438 62 C 120.035156 62 116.898438 65.132812 116.898438 69 C 116.898438 72.867188 120.035156 76 123.898438 76 C 127.765625 76 130.898438 72.867188 130.898438 69 Z M 130.898438 69 "/>
<path style=" stroke:none;fill-rule:evenodd;fill:rgb(1.2%,66.3%,95.7%);fill-opacity:1;" d="M 148.898438 9 C 148.898438 5.132812 145.765625 2 141.898438 2 C 138.035156 2 134.898438 5.132812 134.898438 9 C 134.898438 12.867188 138.035156 16 141.898438 16 C 145.765625 16 148.898438 12.867188 148.898438 9 Z M 148.898438 9 "/>
<path style=" stroke:none;fill-rule:evenodd;fill:rgb(80.4%,86.3%,22.4%);fill-opacity:1;" d="M 130.898438 89 C 130.898438 85.132812 127.765625 82 123.898438 82 C 120.035156 82 116.898438 85.132812 116.898438 89 C 116.898438 92.867188 120.035156 96 123.898438 96 C 127.765625 96 130.898438 92.867188 130.898438 89 Z M 130.898438 89 "/>
<path style=" stroke:none;fill-rule:evenodd;fill:rgb(80.4%,86.3%,22.4%);fill-opacity:1;" d="M 130.898438 109 C 130.898438 105.132812 127.765625 102 123.898438 102 C 120.035156 102 116.898438 105.132812 116.898438 109 C 116.898438 112.867188 120.035156 116 123.898438 116 C 127.765625 116 130.898438 112.867188 130.898438 109 Z M 130.898438 109 "/>
<path style=" stroke:none;fill-rule:evenodd;fill:rgb(80.4%,86.3%,22.4%);fill-opacity:1;" d="M 130.898438 129 C 130.898438 125.132812 127.765625 122 123.898438 122 C 120.035156 122 116.898438 125.132812 116.898438 129 C 116.898438 132.867188 120.035156 136 123.898438 136 C 127.765625 136 130.898438 132.867188 130.898438 129 Z M 130.898438 129 "/>
<path style=" stroke:none;fill-rule:evenodd;fill:rgb(91.4%,11.8%,38.8%);fill-opacity:1;" d="M 148.898438 29 C 148.898438 25.132812 145.765625 22 141.898438 22 C 138.035156 22 134.898438 25.132812 134.898438 29 C 134.898438 32.867188 138.035156 36 141.898438 36 C 145.765625 36 148.898438 32.867188 148.898438 29 Z M 148.898438 29 "/>
<path style=" stroke:none;fill-rule:evenodd;fill:rgb(80.4%,86.3%,22.4%);fill-opacity:1;" d="M 148.898438 49 C 148.898438 45.132812 145.765625 42 141.898438 42 C 138.035156 42 134.898438 45.132812 134.898438 49 C 134.898438 52.867188 138.035156 56 141.898438 56 C 145.765625 56 148.898438 52.867188 148.898438 49 Z M 148.898438 49 "/>
<path style=" stroke:none;fill-rule:evenodd;fill:rgb(29.8%,68.6%,31.4%);fill-opacity:1;" d="M 148.898438 69 C 148.898438 65.132812 145.765625 62 141.898438 62 C 138.035156 62 134.898438 65.132812 134.898438 69 C 134.898438 72.867188 138.035156 76 141.898438 76 C 145.765625 76 148.898438 72.867188 148.898438 69 Z M 148.898438 69 "/>
<path style=" stroke:none;fill-rule:evenodd;fill:rgb(100%,59.6%,0%);fill-opacity:1;" d="M 148.898438 89 C 148.898438 85.132812 145.765625 82 141.898438 82 C 138.035156 82 134.898438 85.132812 134.898438 89 C 134.898438 92.867188 138.035156 96 141.898438 96 C 145.765625 96 148.898438 92.867188 148.898438 89 Z M 148.898438 89 "/>
<path style=" stroke:none;fill-rule:evenodd;fill:rgb(40.4%,22.7%,71.8%);fill-opacity:1;" d="M 148.898438 109 C 148.898438 105.132812 145.765625 102 141.898438 102 C 138.035156 102 134.898438 105.132812 134.898438 109 C 134.898438 112.867188 138.035156 116 141.898438 116 C 145.765625 116 148.898438 112.867188 148.898438 109 Z M 148.898438 109 "/>
<path style=" stroke:none;fill-rule:evenodd;fill:rgb(47.5%,33.3%,28.2%);fill-opacity:1;" d="M 148.898438 129 C 148.898438 125.132812 145.765625 122 141.898438 122 C 138.035156 122 134.898438 125.132812 134.898438 129 C 134.898438 132.867188 138.035156 136 141.898438 136 C 145.765625 136 148.898438 132.867188 148.898438 129 Z M 148.898438 129 "/>
<path style="fill:none;stroke-width:0.8;stroke-linecap:butt;stroke-linejoin:round;stroke:rgb(95.7%,26.3%,21.2%);stroke-opacity:1;stroke-miterlimit:10;" d="M 231.699219 136 C 231.699219 142.398438 222.101562 142.398438 222.101562 136 C 222.101562 129.601562 231.699219 129.601562 231.699219 136 Z M 231.699219 136 " transform="matrix(1,0,0,-1,-67,265)"/>
<path style="fill:none;stroke-width:0.8;stroke-linecap:butt;stroke-linejoin:round;stroke:rgb(95.7%,26.3%,21.2%);stroke-opacity:1;stroke-miterlimit:10;" d="M 224.898438 138 L 228.898438 134 " transform="matrix(1,0,0,-1,-67,265)"/>
<path style="fill:none;stroke-width:0.8;stroke-linecap:butt;stroke-linejoin:round;stroke:rgb(95.7%,26.3%,21.2%);stroke-opacity:1;stroke-miterlimit:10;" d="M 224.898438 134 L 228.898438 138 " transform="matrix(1,0,0,-1,-67,265)"/>
<path style="fill:none;stroke-width:0.8;stroke-linecap:butt;stroke-linejoin:round;stroke:rgb(29.8%,68.6%,31.4%);stroke-opacity:1;stroke-miterlimit:10;" d="M 231.699219 236 C 231.699219 242.398438 222.101562 242.398438 222.101562 236 C 222.101562 229.601562 231.699219 229.601562 231.699219 236 Z M 231.699219 236 " transform="matrix(1,0,0,-1,-67,265)"/>
<path style="fill:none;stroke-width:0.8;stroke-linecap:butt;stroke-linejoin:round;stroke:rgb(29.8%,68.6%,31.4%);stroke-opacity:1;stroke-miterlimit:10;" d="M 224.398438 235 L 225.898438 233.5 L 228.898438 238.5 " transform="matrix(1,0,0,-1,-67,265)"/>
<path style="fill:none;stroke-width:0.8;stroke-linecap:butt;stroke-linejoin:round;stroke:rgb(95.7%,26.3%,21.2%);stroke-opacity:1;stroke-miterlimit:10;" d="M 231.699219 216 C 231.699219 222.398438 222.101562 222.398438 222.101562 216 C 222.101562 209.601562 231.699219 209.601562 231.699219 216 Z M 231.699219 216 " transform="matrix(1,0,0,-1,-67,265)"/>
<path style="fill:none;stroke-width:0.8;stroke-linecap:butt;stroke-linejoin:round;stroke:rgb(95.7%,26.3%,21.2%);stroke-opacity:1;stroke-miterlimit:10;" d="M 224.898438 218 L 228.898438 214 " transform="matrix(1,0,0,-1,-67,265)"/>
<path style="fill:none;stroke-width:0.8;stroke-linecap:butt;stroke-linejoin:round;stroke:rgb(95.7%,26.3%,21.2%);stroke-opacity:1;stroke-miterlimit:10;" d="M 224.898438 214 L 228.898438 218 " transform="matrix(1,0,0,-1,-67,265)"/>
<path style="fill:none;stroke-width:0.8;stroke-linecap:butt;stroke-linejoin:round;stroke:rgb(29.8%,68.6%,31.4%);stroke-opacity:1;stroke-miterlimit:10;" d="M 231.699219 196 C 231.699219 202.398438 222.101562 202.398438 222.101562 196 C 222.101562 189.601562 231.699219 189.601562 231.699219 196 Z M 231.699219 196 " transform="matrix(1,0,0,-1,-67,265)"/>
<path style="fill:none;stroke-width:0.8;stroke-linecap:butt;stroke-linejoin:round;stroke:rgb(29.8%,68.6%,31.4%);stroke-opacity:1;stroke-miterlimit:10;" d="M 224.398438 195 L 225.898438 193.5 L 228.898438 198.5 " transform="matrix(1,0,0,-1,-67,265)"/>
<path style="fill:none;stroke-width:0.8;stroke-linecap:butt;stroke-linejoin:round;stroke:rgb(95.7%,26.3%,21.2%);stroke-opacity:1;stroke-miterlimit:10;" d="M 173.699219 196 C 173.699219 202.398438 164.101562 202.398438 164.101562 196 C 164.101562 189.601562 173.699219 189.601562 173.699219 196 Z M 173.699219 196 " transform="matrix(1,0,0,-1,-67,265)"/>
<path style="fill:none;stroke-width:0.8;stroke-linecap:butt;stroke-linejoin:round;stroke:rgb(95.7%,26.3%,21.2%);stroke-opacity:1;stroke-miterlimit:10;" d="M 166.898438 198 L 170.898438 194 " transform="matrix(1,0,0,-1,-67,265)"/>
<path style="fill:none;stroke-width:0.8;stroke-linecap:butt;stroke-linejoin:round;stroke:rgb(95.7%,26.3%,21.2%);stroke-opacity:1;stroke-miterlimit:10;" d="M 166.898438 194 L 170.898438 198 " transform="matrix(1,0,0,-1,-67,265)"/>
<path style="fill:none;stroke-width:0.8;stroke-linecap:butt;stroke-linejoin:round;stroke:rgb(29.8%,68.6%,31.4%);stroke-opacity:1;stroke-miterlimit:10;" d="M 231.699219 156 C 231.699219 162.398438 222.101562 162.398438 222.101562 156 C 222.101562 149.601562 231.699219 149.601562 231.699219 156 Z M 231.699219 156 " transform="matrix(1,0,0,-1,-67,265)"/>
<path style="fill:none;stroke-width:0.8;stroke-linecap:butt;stroke-linejoin:round;stroke:rgb(29.8%,68.6%,31.4%);stroke-opacity:1;stroke-miterlimit:10;" d="M 224.398438 155 L 225.898438 153.5 L 228.898438 158.5 " transform="matrix(1,0,0,-1,-67,265)"/>
<path style="fill:none;stroke-width:0.8;stroke-linecap:butt;stroke-linejoin:round;stroke:rgb(95.7%,26.3%,21.2%);stroke-opacity:1;stroke-miterlimit:10;" d="M 347.699219 136 C 347.699219 142.398438 338.101562 142.398438 338.101562 136 C 338.101562 129.601562 347.699219 129.601562 347.699219 136 Z M 347.699219 136 " transform="matrix(1,0,0,-1,-67,265)"/>
<path style="fill:none;stroke-width:0.8;stroke-linecap:butt;stroke-linejoin:round;stroke:rgb(95.7%,26.3%,21.2%);stroke-opacity:1;stroke-miterlimit:10;" d="M 340.898438 138 L 344.898438 134 " transform="matrix(1,0,0,-1,-67,265)"/>
<path style="fill:none;stroke-width:0.8;stroke-linecap:butt;stroke-linejoin:round;stroke:rgb(95.7%,26.3%,21.2%);stroke-opacity:1;stroke-miterlimit:10;" d="M 340.898438 134 L 344.898438 138 " transform="matrix(1,0,0,-1,-67,265)"/>
<path style="fill:none;stroke-width:0.8;stroke-linecap:butt;stroke-linejoin:round;stroke:rgb(100%,100%,100%);stroke-opacity:1;stroke-miterlimit:10;" d="M 178.898438 264 L 178.898438 128 " transform="matrix(1,0,0,-1,-67,265)"/>
<path style=" stroke:none;fill-rule:evenodd;fill:rgb(29.8%,68.6%,31.4%);fill-opacity:1;" d="M 188.898438 9 C 188.898438 5.132812 185.765625 2 181.898438 2 C 178.035156 2 174.898438 5.132812 174.898438 9 C 174.898438 12.867188 178.035156 16 181.898438 16 C 185.765625 16 188.898438 12.867188 188.898438 9 Z M 188.898438 9 "/>
<path style=" stroke:none;fill-rule:evenodd;fill:rgb(29.8%,68.6%,31.4%);fill-opacity:1;" d="M 188.898438 29 C 188.898438 25.132812 185.765625 22 181.898438 22 C 178.035156 22 174.898438 25.132812 174.898438 29 C 174.898438 32.867188 178.035156 36 181.898438 36 C 185.765625 36 188.898438 32.867188 188.898438 29 Z M 188.898438 29 "/>
<path style=" stroke:none;fill-rule:evenodd;fill:rgb(29.8%,68.6%,31.4%);fill-opacity:1;" d="M 188.898438 49 C 188.898438 45.132812 185.765625 42 181.898438 42 C 178.035156 42 174.898438 45.132812 174.898438 49 C 174.898438 52.867188 178.035156 56 181.898438 56 C 185.765625 56 188.898438 52.867188 188.898438 49 Z M 188.898438 49 "/>
<path style=" stroke:none;fill-rule:evenodd;fill:rgb(29.8%,68.6%,31.4%);fill-opacity:1;" d="M 188.898438 69 C 188.898438 65.132812 185.765625 62 181.898438 62 C 178.035156 62 174.898438 65.132812 174.898438 69 C 174.898438 72.867188 178.035156 76 181.898438 76 C 185.765625 76 188.898438 72.867188 188.898438 69 Z M 188.898438 69 "/>
<path style=" stroke:none;fill-rule:evenodd;fill:rgb(1.2%,66.3%,95.7%);fill-opacity:1;" d="M 206.898438 9 C 206.898438 5.132812 203.765625 2 199.898438 2 C 196.035156 2 192.898438 5.132812 192.898438 9 C 192.898438 12.867188 196.035156 16 199.898438 16 C 203.765625 16 206.898438 12.867188 206.898438 9 Z M 206.898438 9 "/>
<path style=" stroke:none;fill-rule:evenodd;fill:rgb(29.8%,68.6%,31.4%);fill-opacity:1;" d="M 188.898438 89 C 188.898438 85.132812 185.765625 82 181.898438 82 C 178.035156 82 174.898438 85.132812 174.898438 89 C 174.898438 92.867188 178.035156 96 181.898438 96 C 185.765625 96 188.898438 92.867188 188.898438 89 Z M 188.898438 89 "/>
<path style=" stroke:none;fill-rule:evenodd;fill:rgb(29.8%,68.6%,31.4%);fill-opacity:1;" d="M 188.898438 109 C 188.898438 105.132812 185.765625 102 181.898438 102 C 178.035156 102 174.898438 105.132812 174.898438 109 C 174.898438 112.867188 178.035156 116 181.898438 116 C 185.765625 116 188.898438 112.867188 188.898438 109 Z M 188.898438 109 "/>
<path style=" stroke:none;fill-rule:evenodd;fill:rgb(29.8%,68.6%,31.4%);fill-opacity:1;" d="M 188.898438 129 C 188.898438 125.132812 185.765625 122 181.898438 122 C 178.035156 122 174.898438 125.132812 174.898438 129 C 174.898438 132.867188 178.035156 136 181.898438 136 C 185.765625 136 188.898438 132.867188 188.898438 129 Z M 188.898438 129 "/>
<path style=" stroke:none;fill-rule:evenodd;fill:rgb(91.4%,11.8%,38.8%);fill-opacity:1;" d="M 206.898438 29 C 206.898438 25.132812 203.765625 22 199.898438 22 C 196.035156 22 192.898438 25.132812 192.898438 29 C 192.898438 32.867188 196.035156 36 199.898438 36 C 203.765625 36 206.898438 32.867188 206.898438 29 Z M 206.898438 29 "/>
<path style=" stroke:none;fill-rule:evenodd;fill:rgb(80.4%,86.3%,22.4%);fill-opacity:1;" d="M 206.898438 49 C 206.898438 45.132812 203.765625 42 199.898438 42 C 196.035156 42 192.898438 45.132812 192.898438 49 C 192.898438 52.867188 196.035156 56 199.898438 56 C 203.765625 56 206.898438 52.867188 206.898438 49 Z M 206.898438 49 "/>
<path style=" stroke:none;fill-rule:evenodd;fill:rgb(29.8%,68.6%,31.4%);fill-opacity:1;" d="M 206.898438 69 C 206.898438 65.132812 203.765625 62 199.898438 62 C 196.035156 62 192.898438 65.132812 192.898438 69 C 192.898438 72.867188 196.035156 76 199.898438 76 C 203.765625 76 206.898438 72.867188 206.898438 69 Z M 206.898438 69 "/>
<path style=" stroke:none;fill-rule:evenodd;fill:rgb(100%,59.6%,0%);fill-opacity:1;" d="M 206.898438 89 C 206.898438 85.132812 203.765625 82 199.898438 82 C 196.035156 82 192.898438 85.132812 192.898438 89 C 192.898438 92.867188 196.035156 96 199.898438 96 C 203.765625 96 206.898438 92.867188 206.898438 89 Z M 206.898438 89 "/>
<path style=" stroke:none;fill-rule:evenodd;fill:rgb(40.4%,22.7%,71.8%);fill-opacity:1;" d="M 206.898438 109 C 206.898438 105.132812 203.765625 102 199.898438 102 C 196.035156 102 192.898438 105.132812 192.898438 109 C 192.898438 112.867188 196.035156 116 199.898438 116 C 203.765625 116 206.898438 112.867188 206.898438 109 Z M 206.898438 109 "/>
<path style=" stroke:none;fill-rule:evenodd;fill:rgb(47.5%,33.3%,28.2%);fill-opacity:1;" d="M 206.898438 129 C 206.898438 125.132812 203.765625 122 199.898438 122 C 196.035156 122 192.898438 125.132812 192.898438 129 C 192.898438 132.867188 196.035156 136 199.898438 136 C 203.765625 136 206.898438 132.867188 206.898438 129 Z M 206.898438 129 "/>
<path style="fill:none;stroke-width:0.8;stroke-linecap:butt;stroke-linejoin:round;stroke:rgb(95.7%,26.3%,21.2%);stroke-opacity:1;stroke-miterlimit:10;" d="M 289.699219 256 C 289.699219 262.398438 280.101562 262.398438 280.101562 256 C 280.101562 249.601562 289.699219 249.601562 289.699219 256 Z M 289.699219 256 " transform="matrix(1,0,0,-1,-67,265)"/>
<path style="fill:none;stroke-width:0.8;stroke-linecap:butt;stroke-linejoin:round;stroke:rgb(95.7%,26.3%,21.2%);stroke-opacity:1;stroke-miterlimit:10;" d="M 282.898438 258 L 286.898438 254 " transform="matrix(1,0,0,-1,-67,265)"/>
<path style="fill:none;stroke-width:0.8;stroke-linecap:butt;stroke-linejoin:round;stroke:rgb(95.7%,26.3%,21.2%);stroke-opacity:1;stroke-miterlimit:10;" d="M 282.898438 254 L 286.898438 258 " transform="matrix(1,0,0,-1,-67,265)"/>
<path style="fill:none;stroke-width:0.8;stroke-linecap:butt;stroke-linejoin:round;stroke:rgb(29.8%,68.6%,31.4%);stroke-opacity:1;stroke-miterlimit:10;" d="M 289.699219 236 C 289.699219 242.398438 280.101562 242.398438 280.101562 236 C 280.101562 229.601562 289.699219 229.601562 289.699219 236 Z M 289.699219 236 " transform="matrix(1,0,0,-1,-67,265)"/>
<path style="fill:none;stroke-width:0.8;stroke-linecap:butt;stroke-linejoin:round;stroke:rgb(29.8%,68.6%,31.4%);stroke-opacity:1;stroke-miterlimit:10;" d="M 282.398438 235 L 283.898438 233.5 L 286.898438 238.5 " transform="matrix(1,0,0,-1,-67,265)"/>
<path style="fill:none;stroke-width:0.8;stroke-linecap:butt;stroke-linejoin:round;stroke:rgb(95.7%,26.3%,21.2%);stroke-opacity:1;stroke-miterlimit:10;" d="M 405.699219 136 C 405.699219 142.398438 396.101562 142.398438 396.101562 136 C 396.101562 129.601562 405.699219 129.601562 405.699219 136 Z M 405.699219 136 " transform="matrix(1,0,0,-1,-67,265)"/>
<path style="fill:none;stroke-width:0.8;stroke-linecap:butt;stroke-linejoin:round;stroke:rgb(95.7%,26.3%,21.2%);stroke-opacity:1;stroke-miterlimit:10;" d="M 398.898438 138 L 402.898438 134 " transform="matrix(1,0,0,-1,-67,265)"/>
<path style="fill:none;stroke-width:0.8;stroke-linecap:butt;stroke-linejoin:round;stroke:rgb(95.7%,26.3%,21.2%);stroke-opacity:1;stroke-miterlimit:10;" d="M 398.898438 134 L 402.898438 138 " transform="matrix(1,0,0,-1,-67,265)"/>
<path style="fill:none;stroke-width:0.8;stroke-linecap:butt;stroke-linejoin:round;stroke:rgb(29.8%,68.6%,31.4%);stroke-opacity:1;stroke-miterlimit:10;" d="M 289.699219 196 C 289.699219 202.398438 280.101562 202.398438 280.101562 196 C 280.101562 189.601562 289.699219 189.601562 289.699219 196 Z M 289.699219 196 " transform="matrix(1,0,0,-1,-67,265)"/>
<path style="fill:none;stroke-width:0.8;stroke-linecap:butt;stroke-linejoin:round;stroke:rgb(29.8%,68.6%,31.4%);stroke-opacity:1;stroke-miterlimit:10;" d="M 282.398438 195 L 283.898438 193.5 L 286.898438 198.5 " transform="matrix(1,0,0,-1,-67,265)"/>
<path style="fill:none;stroke-width:0.8;stroke-linecap:butt;stroke-linejoin:round;stroke:rgb(95.7%,26.3%,21.2%);stroke-opacity:1;stroke-miterlimit:10;" d="M 289.699219 176 C 289.699219 182.398438 280.101562 182.398438 280.101562 176 C 280.101562 169.601562 289.699219 169.601562 289.699219 176 Z M 289.699219 176 " transform="matrix(1,0,0,-1,-67,265)"/>
<path style="fill:none;stroke-width:0.8;stroke-linecap:butt;stroke-linejoin:round;stroke:rgb(95.7%,26.3%,21.2%);stroke-opacity:1;stroke-miterlimit:10;" d="M 282.898438 178 L 286.898438 174 " transform="matrix(1,0,0,-1,-67,265)"/>
<path style="fill:none;stroke-width:0.8;stroke-linecap:butt;stroke-linejoin:round;stroke:rgb(95.7%,26.3%,21.2%);stroke-opacity:1;stroke-miterlimit:10;" d="M 282.898438 174 L 286.898438 178 " transform="matrix(1,0,0,-1,-67,265)"/>
<path style="fill:none;stroke-width:0.8;stroke-linecap:butt;stroke-linejoin:round;stroke:rgb(29.8%,68.6%,31.4%);stroke-opacity:1;stroke-miterlimit:10;" d="M 289.699219 156 C 289.699219 162.398438 280.101562 162.398438 280.101562 156 C 280.101562 149.601562 289.699219 149.601562 289.699219 156 Z M 289.699219 156 " transform="matrix(1,0,0,-1,-67,265)"/>
<path style="fill:none;stroke-width:0.8;stroke-linecap:butt;stroke-linejoin:round;stroke:rgb(29.8%,68.6%,31.4%);stroke-opacity:1;stroke-miterlimit:10;" d="M 282.398438 155 L 283.898438 153.5 L 286.898438 158.5 " transform="matrix(1,0,0,-1,-67,265)"/>
<path style="fill:none;stroke-width:0.8;stroke-linecap:butt;stroke-linejoin:round;stroke:rgb(100%,100%,100%);stroke-opacity:1;stroke-miterlimit:10;" d="M 236.898438 264 L 236.898438 128 " transform="matrix(1,0,0,-1,-67,265)"/>
<path style=" stroke:none;fill-rule:evenodd;fill:rgb(100%,59.6%,0%);fill-opacity:1;" d="M 246.898438 9 C 246.898438 5.132812 243.765625 2 239.898438 2 C 236.035156 2 232.898438 5.132812 232.898438 9 C 232.898438 12.867188 236.035156 16 239.898438 16 C 243.765625 16 246.898438 12.867188 246.898438 9 Z M 246.898438 9 "/>
<path style=" stroke:none;fill-rule:evenodd;fill:rgb(100%,59.6%,0%);fill-opacity:1;" d="M 246.898438 29 C 246.898438 25.132812 243.765625 22 239.898438 22 C 236.035156 22 232.898438 25.132812 232.898438 29 C 232.898438 32.867188 236.035156 36 239.898438 36 C 243.765625 36 246.898438 32.867188 246.898438 29 Z M 246.898438 29 "/>
<path style=" stroke:none;fill-rule:evenodd;fill:rgb(100%,59.6%,0%);fill-opacity:1;" d="M 246.898438 49 C 246.898438 45.132812 243.765625 42 239.898438 42 C 236.035156 42 232.898438 45.132812 232.898438 49 C 232.898438 52.867188 236.035156 56 239.898438 56 C 243.765625 56 246.898438 52.867188 246.898438 49 Z M 246.898438 49 "/>
<path style=" stroke:none;fill-rule:evenodd;fill:rgb(100%,59.6%,0%);fill-opacity:1;" d="M 246.898438 69 C 246.898438 65.132812 243.765625 62 239.898438 62 C 236.035156 62 232.898438 65.132812 232.898438 69 C 232.898438 72.867188 236.035156 76 239.898438 76 C 243.765625 76 246.898438 72.867188 246.898438 69 Z M 246.898438 69 "/>
<path style=" stroke:none;fill-rule:evenodd;fill:rgb(1.2%,66.3%,95.7%);fill-opacity:1;" d="M 264.898438 9 C 264.898438 5.132812 261.765625 2 257.898438 2 C 254.035156 2 250.898438 5.132812 250.898438 9 C 250.898438 12.867188 254.035156 16 257.898438 16 C 261.765625 16 264.898438 12.867188 264.898438 9 Z M 264.898438 9 "/>
<path style=" stroke:none;fill-rule:evenodd;fill:rgb(100%,59.6%,0%);fill-opacity:1;" d="M 246.898438 89 C 246.898438 85.132812 243.765625 82 239.898438 82 C 236.035156 82 232.898438 85.132812 232.898438 89 C 232.898438 92.867188 236.035156 96 239.898438 96 C 243.765625 96 246.898438 92.867188 246.898438 89 Z M 246.898438 89 "/>
<path style=" stroke:none;fill-rule:evenodd;fill:rgb(100%,59.6%,0%);fill-opacity:1;" d="M 246.898438 109 C 246.898438 105.132812 243.765625 102 239.898438 102 C 236.035156 102 232.898438 105.132812 232.898438 109 C 232.898438 112.867188 236.035156 116 239.898438 116 C 243.765625 116 246.898438 112.867188 246.898438 109 Z M 246.898438 109 "/>
<path style=" stroke:none;fill-rule:evenodd;fill:rgb(100%,59.6%,0%);fill-opacity:1;" d="M 246.898438 129 C 246.898438 125.132812 243.765625 122 239.898438 122 C 236.035156 122 232.898438 125.132812 232.898438 129 C 232.898438 132.867188 236.035156 136 239.898438 136 C 243.765625 136 246.898438 132.867188 246.898438 129 Z M 246.898438 129 "/>
<path style=" stroke:none;fill-rule:evenodd;fill:rgb(91.4%,11.8%,38.8%);fill-opacity:1;" d="M 264.898438 29 C 264.898438 25.132812 261.765625 22 257.898438 22 C 254.035156 22 250.898438 25.132812 250.898438 29 C 250.898438 32.867188 254.035156 36 257.898438 36 C 261.765625 36 264.898438 32.867188 264.898438 29 Z M 264.898438 29 "/>
<path style=" stroke:none;fill-rule:evenodd;fill:rgb(80.4%,86.3%,22.4%);fill-opacity:1;" d="M 264.898438 49 C 264.898438 45.132812 261.765625 42 257.898438 42 C 254.035156 42 250.898438 45.132812 250.898438 49 C 250.898438 52.867188 254.035156 56 257.898438 56 C 261.765625 56 264.898438 52.867188 264.898438 49 Z M 264.898438 49 "/>
<path style=" stroke:none;fill-rule:evenodd;fill:rgb(29.8%,68.6%,31.4%);fill-opacity:1;" d="M 264.898438 69 C 264.898438 65.132812 261.765625 62 257.898438 62 C 254.035156 62 250.898438 65.132812 250.898438 69 C 250.898438 72.867188 254.035156 76 257.898438 76 C 261.765625 76 264.898438 72.867188 264.898438 69 Z M 264.898438 69 "/>
<path style=" stroke:none;fill-rule:evenodd;fill:rgb(100%,59.6%,0%);fill-opacity:1;" d="M 264.898438 89 C 264.898438 85.132812 261.765625 82 257.898438 82 C 254.035156 82 250.898438 85.132812 250.898438 89 C 250.898438 92.867188 254.035156 96 257.898438 96 C 261.765625 96 264.898438 92.867188 264.898438 89 Z M 264.898438 89 "/>
<path style=" stroke:none;fill-rule:evenodd;fill:rgb(40.4%,22.7%,71.8%);fill-opacity:1;" d="M 264.898438 109 C 264.898438 105.132812 261.765625 102 257.898438 102 C 254.035156 102 250.898438 105.132812 250.898438 109 C 250.898438 112.867188 254.035156 116 257.898438 116 C 261.765625 116 264.898438 112.867188 264.898438 109 Z M 264.898438 109 "/>
<path style=" stroke:none;fill-rule:evenodd;fill:rgb(47.5%,33.3%,28.2%);fill-opacity:1;" d="M 264.898438 129 C 264.898438 125.132812 261.765625 122 257.898438 122 C 254.035156 122 250.898438 125.132812 250.898438 129 C 250.898438 132.867188 254.035156 136 257.898438 136 C 261.765625 136 264.898438 132.867188 264.898438 129 Z M 264.898438 129 "/>
<path style="fill:none;stroke-width:0.8;stroke-linecap:butt;stroke-linejoin:round;stroke:rgb(95.7%,26.3%,21.2%);stroke-opacity:1;stroke-miterlimit:10;" d="M 115.699219 196 C 115.699219 202.398438 106.101562 202.398438 106.101562 196 C 106.101562 189.601562 115.699219 189.601562 115.699219 196 Z M 115.699219 196 " transform="matrix(1,0,0,-1,-67,265)"/>
<path style="fill:none;stroke-width:0.8;stroke-linecap:butt;stroke-linejoin:round;stroke:rgb(95.7%,26.3%,21.2%);stroke-opacity:1;stroke-miterlimit:10;" d="M 108.898438 198 L 112.898438 194 " transform="matrix(1,0,0,-1,-67,265)"/>
<path style="fill:none;stroke-width:0.8;stroke-linecap:butt;stroke-linejoin:round;stroke:rgb(95.7%,26.3%,21.2%);stroke-opacity:1;stroke-miterlimit:10;" d="M 108.898438 194 L 112.898438 198 " transform="matrix(1,0,0,-1,-67,265)"/>
<path style="fill:none;stroke-width:0.8;stroke-linecap:butt;stroke-linejoin:round;stroke:rgb(29.8%,68.6%,31.4%);stroke-opacity:1;stroke-miterlimit:10;" d="M 173.699219 256 C 173.699219 262.398438 164.101562 262.398438 164.101562 256 C 164.101562 249.601562 173.699219 249.601562 173.699219 256 Z M 173.699219 256 " transform="matrix(1,0,0,-1,-67,265)"/>
<path style="fill:none;stroke-width:0.8;stroke-linecap:butt;stroke-linejoin:round;stroke:rgb(29.8%,68.6%,31.4%);stroke-opacity:1;stroke-miterlimit:10;" d="M 166.398438 255 L 167.898438 253.5 L 170.898438 258.5 " transform="matrix(1,0,0,-1,-67,265)"/>
<path style="fill:none;stroke-width:0.8;stroke-linecap:butt;stroke-linejoin:round;stroke:rgb(95.7%,26.3%,21.2%);stroke-opacity:1;stroke-miterlimit:10;" d="M 347.699219 216 C 347.699219 222.398438 338.101562 222.398438 338.101562 216 C 338.101562 209.601562 347.699219 209.601562 347.699219 216 Z M 347.699219 216 " transform="matrix(1,0,0,-1,-67,265)"/>
<path style="fill:none;stroke-width:0.8;stroke-linecap:butt;stroke-linejoin:round;stroke:rgb(95.7%,26.3%,21.2%);stroke-opacity:1;stroke-miterlimit:10;" d="M 340.898438 218 L 344.898438 214 " transform="matrix(1,0,0,-1,-67,265)"/>
<path style="fill:none;stroke-width:0.8;stroke-linecap:butt;stroke-linejoin:round;stroke:rgb(95.7%,26.3%,21.2%);stroke-opacity:1;stroke-miterlimit:10;" d="M 340.898438 214 L 344.898438 218 " transform="matrix(1,0,0,-1,-67,265)"/>
<path style="fill:none;stroke-width:0.8;stroke-linecap:butt;stroke-linejoin:round;stroke:rgb(29.8%,68.6%,31.4%);stroke-opacity:1;stroke-miterlimit:10;" d="M 347.699219 196 C 347.699219 202.398438 338.101562 202.398438 338.101562 196 C 338.101562 189.601562 347.699219 189.601562 347.699219 196 Z M 347.699219 196 " transform="matrix(1,0,0,-1,-67,265)"/>
<path style="fill:none;stroke-width:0.8;stroke-linecap:butt;stroke-linejoin:round;stroke:rgb(29.8%,68.6%,31.4%);stroke-opacity:1;stroke-miterlimit:10;" d="M 340.398438 195 L 341.898438 193.5 L 344.898438 198.5 " transform="matrix(1,0,0,-1,-67,265)"/>
<path style="fill:none;stroke-width:0.8;stroke-linecap:butt;stroke-linejoin:round;stroke:rgb(95.7%,26.3%,21.2%);stroke-opacity:1;stroke-miterlimit:10;" d="M 347.699219 176 C 347.699219 182.398438 338.101562 182.398438 338.101562 176 C 338.101562 169.601562 347.699219 169.601562 347.699219 176 Z M 347.699219 176 " transform="matrix(1,0,0,-1,-67,265)"/>
<path style="fill:none;stroke-width:0.8;stroke-linecap:butt;stroke-linejoin:round;stroke:rgb(95.7%,26.3%,21.2%);stroke-opacity:1;stroke-miterlimit:10;" d="M 340.898438 178 L 344.898438 174 " transform="matrix(1,0,0,-1,-67,265)"/>
<path style="fill:none;stroke-width:0.8;stroke-linecap:butt;stroke-linejoin:round;stroke:rgb(95.7%,26.3%,21.2%);stroke-opacity:1;stroke-miterlimit:10;" d="M 340.898438 174 L 344.898438 178 " transform="matrix(1,0,0,-1,-67,265)"/>
<path style="fill:none;stroke-width:0.8;stroke-linecap:butt;stroke-linejoin:round;stroke:rgb(29.8%,68.6%,31.4%);stroke-opacity:1;stroke-miterlimit:10;" d="M 115.699219 216 C 115.699219 222.398438 106.101562 222.398438 106.101562 216 C 106.101562 209.601562 115.699219 209.601562 115.699219 216 Z M 115.699219 216 " transform="matrix(1,0,0,-1,-67,265)"/>
<path style="fill:none;stroke-width:0.8;stroke-linecap:butt;stroke-linejoin:round;stroke:rgb(29.8%,68.6%,31.4%);stroke-opacity:1;stroke-miterlimit:10;" d="M 108.398438 215 L 109.898438 213.5 L 112.898438 218.5 " transform="matrix(1,0,0,-1,-67,265)"/>
<path style="fill:none;stroke-width:0.8;stroke-linecap:butt;stroke-linejoin:round;stroke:rgb(100%,100%,100%);stroke-opacity:1;stroke-miterlimit:10;" d="M 294.898438 264 L 294.898438 128 " transform="matrix(1,0,0,-1,-67,265)"/>
<path style=" stroke:none;fill-rule:evenodd;fill:rgb(40.4%,22.7%,71.8%);fill-opacity:1;" d="M 304.898438 9 C 304.898438 5.132812 301.765625 2 297.898438 2 C 294.035156 2 290.898438 5.132812 290.898438 9 C 290.898438 12.867188 294.035156 16 297.898438 16 C 301.765625 16 304.898438 12.867188 304.898438 9 Z M 304.898438 9 "/>
<path style=" stroke:none;fill-rule:evenodd;fill:rgb(40.4%,22.7%,71.8%);fill-opacity:1;" d="M 304.898438 29 C 304.898438 25.132812 301.765625 22 297.898438 22 C 294.035156 22 290.898438 25.132812 290.898438 29 C 290.898438 32.867188 294.035156 36 297.898438 36 C 301.765625 36 304.898438 32.867188 304.898438 29 Z M 304.898438 29 "/>
<path style=" stroke:none;fill-rule:evenodd;fill:rgb(40.4%,22.7%,71.8%);fill-opacity:1;" d="M 304.898438 49 C 304.898438 45.132812 301.765625 42 297.898438 42 C 294.035156 42 290.898438 45.132812 290.898438 49 C 290.898438 52.867188 294.035156 56 297.898438 56 C 301.765625 56 304.898438 52.867188 304.898438 49 Z M 304.898438 49 "/>
<path style=" stroke:none;fill-rule:evenodd;fill:rgb(40.4%,22.7%,71.8%);fill-opacity:1;" d="M 304.898438 69 C 304.898438 65.132812 301.765625 62 297.898438 62 C 294.035156 62 290.898438 65.132812 290.898438 69 C 290.898438 72.867188 294.035156 76 297.898438 76 C 301.765625 76 304.898438 72.867188 304.898438 69 Z M 304.898438 69 "/>
<path style=" stroke:none;fill-rule:evenodd;fill:rgb(1.2%,66.3%,95.7%);fill-opacity:1;" d="M 322.898438 9 C 322.898438 5.132812 319.765625 2 315.898438 2 C 312.035156 2 308.898438 5.132812 308.898438 9 C 308.898438 12.867188 312.035156 16 315.898438 16 C 319.765625 16 322.898438 12.867188 322.898438 9 Z M 322.898438 9 "/>
<path style=" stroke:none;fill-rule:evenodd;fill:rgb(40.4%,22.7%,71.8%);fill-opacity:1;" d="M 304.898438 89 C 304.898438 85.132812 301.765625 82 297.898438 82 C 294.035156 82 290.898438 85.132812 290.898438 89 C 290.898438 92.867188 294.035156 96 297.898438 96 C 301.765625 96 304.898438 92.867188 304.898438 89 Z M 304.898438 89 "/>
<path style=" stroke:none;fill-rule:evenodd;fill:rgb(40.4%,22.7%,71.8%);fill-opacity:1;" d="M 304.898438 109 C 304.898438 105.132812 301.765625 102 297.898438 102 C 294.035156 102 290.898438 105.132812 290.898438 109 C 290.898438 112.867188 294.035156 116 297.898438 116 C 301.765625 116 304.898438 112.867188 304.898438 109 Z M 304.898438 109 "/>
<path style=" stroke:none;fill-rule:evenodd;fill:rgb(40.4%,22.7%,71.8%);fill-opacity:1;" d="M 304.898438 129 C 304.898438 125.132812 301.765625 122 297.898438 122 C 294.035156 122 290.898438 125.132812 290.898438 129 C 290.898438 132.867188 294.035156 136 297.898438 136 C 301.765625 136 304.898438 132.867188 304.898438 129 Z M 304.898438 129 "/>
<path style=" stroke:none;fill-rule:evenodd;fill:rgb(91.4%,11.8%,38.8%);fill-opacity:1;" d="M 322.898438 29 C 322.898438 25.132812 319.765625 22 315.898438 22 C 312.035156 22 308.898438 25.132812 308.898438 29 C 308.898438 32.867188 312.035156 36 315.898438 36 C 319.765625 36 322.898438 32.867188 322.898438 29 Z M 322.898438 29 "/>
<path style=" stroke:none;fill-rule:evenodd;fill:rgb(80.4%,86.3%,22.4%);fill-opacity:1;" d="M 322.898438 49 C 322.898438 45.132812 319.765625 42 315.898438 42 C 312.035156 42 308.898438 45.132812 308.898438 49 C 308.898438 52.867188 312.035156 56 315.898438 56 C 319.765625 56 322.898438 52.867188 322.898438 49 Z M 322.898438 49 "/>
<path style=" stroke:none;fill-rule:evenodd;fill:rgb(29.8%,68.6%,31.4%);fill-opacity:1;" d="M 322.898438 69 C 322.898438 65.132812 319.765625 62 315.898438 62 C 312.035156 62 308.898438 65.132812 308.898438 69 C 308.898438 72.867188 312.035156 76 315.898438 76 C 319.765625 76 322.898438 72.867188 322.898438 69 Z M 322.898438 69 "/>
<path style=" stroke:none;fill-rule:evenodd;fill:rgb(100%,59.6%,0%);fill-opacity:1;" d="M 322.898438 89 C 322.898438 85.132812 319.765625 82 315.898438 82 C 312.035156 82 308.898438 85.132812 308.898438 89 C 308.898438 92.867188 312.035156 96 315.898438 96 C 319.765625 96 322.898438 92.867188 322.898438 89 Z M 322.898438 89 "/>
<path style=" stroke:none;fill-rule:evenodd;fill:rgb(40.4%,22.7%,71.8%);fill-opacity:1;" d="M 322.898438 109 C 322.898438 105.132812 319.765625 102 315.898438 102 C 312.035156 102 308.898438 105.132812 308.898438 109 C 308.898438 112.867188 312.035156 116 315.898438 116 C 319.765625 116 322.898438 112.867188 322.898438 109 Z M 322.898438 109 "/>
<path style=" stroke:none;fill-rule:evenodd;fill:rgb(47.5%,33.3%,28.2%);fill-opacity:1;" d="M 322.898438 129 C 322.898438 125.132812 319.765625 122 315.898438 122 C 312.035156 122 308.898438 125.132812 308.898438 129 C 308.898438 132.867188 312.035156 136 315.898438 136 C 319.765625 136 322.898438 132.867188 322.898438 129 Z M 322.898438 129 "/>
<path style="fill:none;stroke-width:0.8;stroke-linecap:butt;stroke-linejoin:round;stroke:rgb(95.7%,26.3%,21.2%);stroke-opacity:1;stroke-miterlimit:10;" d="M 463.699219 196 C 463.699219 202.398438 454.101562 202.398438 454.101562 196 C 454.101562 189.601562 463.699219 189.601562 463.699219 196 Z M 463.699219 196 " transform="matrix(1,0,0,-1,-67,265)"/>
<path style="fill:none;stroke-width:0.8;stroke-linecap:butt;stroke-linejoin:round;stroke:rgb(95.7%,26.3%,21.2%);stroke-opacity:1;stroke-miterlimit:10;" d="M 456.898438 198 L 460.898438 194 " transform="matrix(1,0,0,-1,-67,265)"/>
<path style="fill:none;stroke-width:0.8;stroke-linecap:butt;stroke-linejoin:round;stroke:rgb(95.7%,26.3%,21.2%);stroke-opacity:1;stroke-miterlimit:10;" d="M 456.898438 194 L 460.898438 198 " transform="matrix(1,0,0,-1,-67,265)"/>
<path style="fill:none;stroke-width:0.8;stroke-linecap:butt;stroke-linejoin:round;stroke:rgb(29.8%,68.6%,31.4%);stroke-opacity:1;stroke-miterlimit:10;" d="M 405.699219 236 C 405.699219 242.398438 396.101562 242.398438 396.101562 236 C 396.101562 229.601562 405.699219 229.601562 405.699219 236 Z M 405.699219 236 " transform="matrix(1,0,0,-1,-67,265)"/>
<path style="fill:none;stroke-width:0.8;stroke-linecap:butt;stroke-linejoin:round;stroke:rgb(29.8%,68.6%,31.4%);stroke-opacity:1;stroke-miterlimit:10;" d="M 398.398438 235 L 399.898438 233.5 L 402.898438 238.5 " transform="matrix(1,0,0,-1,-67,265)"/>
<path style="fill:none;stroke-width:0.8;stroke-linecap:butt;stroke-linejoin:round;stroke:rgb(95.7%,26.3%,21.2%);stroke-opacity:1;stroke-miterlimit:10;" d="M 405.699219 216 C 405.699219 222.398438 396.101562 222.398438 396.101562 216 C 396.101562 209.601562 405.699219 209.601562 405.699219 216 Z M 405.699219 216 " transform="matrix(1,0,0,-1,-67,265)"/>
<path style="fill:none;stroke-width:0.8;stroke-linecap:butt;stroke-linejoin:round;stroke:rgb(95.7%,26.3%,21.2%);stroke-opacity:1;stroke-miterlimit:10;" d="M 398.898438 218 L 402.898438 214 " transform="matrix(1,0,0,-1,-67,265)"/>
<path style="fill:none;stroke-width:0.8;stroke-linecap:butt;stroke-linejoin:round;stroke:rgb(95.7%,26.3%,21.2%);stroke-opacity:1;stroke-miterlimit:10;" d="M 398.898438 214 L 402.898438 218 " transform="matrix(1,0,0,-1,-67,265)"/>
<path style="fill:none;stroke-width:0.8;stroke-linecap:butt;stroke-linejoin:round;stroke:rgb(29.8%,68.6%,31.4%);stroke-opacity:1;stroke-miterlimit:10;" d="M 405.699219 196 C 405.699219 202.398438 396.101562 202.398438 396.101562 196 C 396.101562 189.601562 405.699219 189.601562 405.699219 196 Z M 405.699219 196 " transform="matrix(1,0,0,-1,-67,265)"/>
<path style="fill:none;stroke-width:0.8;stroke-linecap:butt;stroke-linejoin:round;stroke:rgb(29.8%,68.6%,31.4%);stroke-opacity:1;stroke-miterlimit:10;" d="M 398.398438 195 L 399.898438 193.5 L 402.898438 198.5 " transform="matrix(1,0,0,-1,-67,265)"/>
<path style="fill:none;stroke-width:0.8;stroke-linecap:butt;stroke-linejoin:round;stroke:rgb(95.7%,26.3%,21.2%);stroke-opacity:1;stroke-miterlimit:10;" d="M 405.699219 176 C 405.699219 182.398438 396.101562 182.398438 396.101562 176 C 396.101562 169.601562 405.699219 169.601562 405.699219 176 Z M 405.699219 176 " transform="matrix(1,0,0,-1,-67,265)"/>
<path style="fill:none;stroke-width:0.8;stroke-linecap:butt;stroke-linejoin:round;stroke:rgb(95.7%,26.3%,21.2%);stroke-opacity:1;stroke-miterlimit:10;" d="M 398.898438 178 L 402.898438 174 " transform="matrix(1,0,0,-1,-67,265)"/>
<path style="fill:none;stroke-width:0.8;stroke-linecap:butt;stroke-linejoin:round;stroke:rgb(95.7%,26.3%,21.2%);stroke-opacity:1;stroke-miterlimit:10;" d="M 398.898438 174 L 402.898438 178 " transform="matrix(1,0,0,-1,-67,265)"/>
<path style="fill:none;stroke-width:0.8;stroke-linecap:butt;stroke-linejoin:round;stroke:rgb(29.8%,68.6%,31.4%);stroke-opacity:1;stroke-miterlimit:10;" d="M 405.699219 156 C 405.699219 162.398438 396.101562 162.398438 396.101562 156 C 396.101562 149.601562 405.699219 149.601562 405.699219 156 Z M 405.699219 156 " transform="matrix(1,0,0,-1,-67,265)"/>
<path style="fill:none;stroke-width:0.8;stroke-linecap:butt;stroke-linejoin:round;stroke:rgb(29.8%,68.6%,31.4%);stroke-opacity:1;stroke-miterlimit:10;" d="M 398.398438 155 L 399.898438 153.5 L 402.898438 158.5 " transform="matrix(1,0,0,-1,-67,265)"/>
<path style="fill:none;stroke-width:0.8;stroke-linecap:butt;stroke-linejoin:round;stroke:rgb(100%,100%,100%);stroke-opacity:1;stroke-miterlimit:10;" d="M 352.898438 264 L 352.898438 128 " transform="matrix(1,0,0,-1,-67,265)"/>
<path style=" stroke:none;fill-rule:evenodd;fill:rgb(47.5%,33.3%,28.2%);fill-opacity:1;" d="M 362.898438 9 C 362.898438 5.132812 359.765625 2 355.898438 2 C 352.035156 2 348.898438 5.132812 348.898438 9 C 348.898438 12.867188 352.035156 16 355.898438 16 C 359.765625 16 362.898438 12.867188 362.898438 9 Z M 362.898438 9 "/>
<path style=" stroke:none;fill-rule:evenodd;fill:rgb(47.5%,33.3%,28.2%);fill-opacity:1;" d="M 362.898438 29 C 362.898438 25.132812 359.765625 22 355.898438 22 C 352.035156 22 348.898438 25.132812 348.898438 29 C 348.898438 32.867188 352.035156 36 355.898438 36 C 359.765625 36 362.898438 32.867188 362.898438 29 Z M 362.898438 29 "/>
<path style=" stroke:none;fill-rule:evenodd;fill:rgb(47.5%,33.3%,28.2%);fill-opacity:1;" d="M 362.898438 49 C 362.898438 45.132812 359.765625 42 355.898438 42 C 352.035156 42 348.898438 45.132812 348.898438 49 C 348.898438 52.867188 352.035156 56 355.898438 56 C 359.765625 56 362.898438 52.867188 362.898438 49 Z M 362.898438 49 "/>
<path style=" stroke:none;fill-rule:evenodd;fill:rgb(47.5%,33.3%,28.2%);fill-opacity:1;" d="M 362.898438 69 C 362.898438 65.132812 359.765625 62 355.898438 62 C 352.035156 62 348.898438 65.132812 348.898438 69 C 348.898438 72.867188 352.035156 76 355.898438 76 C 359.765625 76 362.898438 72.867188 362.898438 69 Z M 362.898438 69 "/>
<path style=" stroke:none;fill-rule:evenodd;fill:rgb(1.2%,66.3%,95.7%);fill-opacity:1;" d="M 380.898438 9 C 380.898438 5.132812 377.765625 2 373.898438 2 C 370.035156 2 366.898438 5.132812 366.898438 9 C 366.898438 12.867188 370.035156 16 373.898438 16 C 377.765625 16 380.898438 12.867188 380.898438 9 Z M 380.898438 9 "/>
<path style=" stroke:none;fill-rule:evenodd;fill:rgb(47.5%,33.3%,28.2%);fill-opacity:1;" d="M 362.898438 89 C 362.898438 85.132812 359.765625 82 355.898438 82 C 352.035156 82 348.898438 85.132812 348.898438 89 C 348.898438 92.867188 352.035156 96 355.898438 96 C 359.765625 96 362.898438 92.867188 362.898438 89 Z M 362.898438 89 "/>
<path style=" stroke:none;fill-rule:evenodd;fill:rgb(47.5%,33.3%,28.2%);fill-opacity:1;" d="M 362.898438 109 C 362.898438 105.132812 359.765625 102 355.898438 102 C 352.035156 102 348.898438 105.132812 348.898438 109 C 348.898438 112.867188 352.035156 116 355.898438 116 C 359.765625 116 362.898438 112.867188 362.898438 109 Z M 362.898438 109 "/>
<path style=" stroke:none;fill-rule:evenodd;fill:rgb(47.5%,33.3%,28.2%);fill-opacity:1;" d="M 362.898438 129 C 362.898438 125.132812 359.765625 122 355.898438 122 C 352.035156 122 348.898438 125.132812 348.898438 129 C 348.898438 132.867188 352.035156 136 355.898438 136 C 359.765625 136 362.898438 132.867188 362.898438 129 Z M 362.898438 129 "/>
<path style=" stroke:none;fill-rule:evenodd;fill:rgb(91.4%,11.8%,38.8%);fill-opacity:1;" d="M 380.898438 29 C 380.898438 25.132812 377.765625 22 373.898438 22 C 370.035156 22 366.898438 25.132812 366.898438 29 C 366.898438 32.867188 370.035156 36 373.898438 36 C 377.765625 36 380.898438 32.867188 380.898438 29 Z M 380.898438 29 "/>
<path style=" stroke:none;fill-rule:evenodd;fill:rgb(80.4%,86.3%,22.4%);fill-opacity:1;" d="M 380.898438 49 C 380.898438 45.132812 377.765625 42 373.898438 42 C 370.035156 42 366.898438 45.132812 366.898438 49 C 366.898438 52.867188 370.035156 56 373.898438 56 C 377.765625 56 380.898438 52.867188 380.898438 49 Z M 380.898438 49 "/>
<path style=" stroke:none;fill-rule:evenodd;fill:rgb(29.8%,68.6%,31.4%);fill-opacity:1;" d="M 380.898438 69 C 380.898438 65.132812 377.765625 62 373.898438 62 C 370.035156 62 366.898438 65.132812 366.898438 69 C 366.898438 72.867188 370.035156 76 373.898438 76 C 377.765625 76 380.898438 72.867188 380.898438 69 Z M 380.898438 69 "/>
<path style=" stroke:none;fill-rule:evenodd;fill:rgb(100%,59.6%,0%);fill-opacity:1;" d="M 380.898438 89 C 380.898438 85.132812 377.765625 82 373.898438 82 C 370.035156 82 366.898438 85.132812 366.898438 89 C 366.898438 92.867188 370.035156 96 373.898438 96 C 377.765625 96 380.898438 92.867188 380.898438 89 Z M 380.898438 89 "/>
<path style=" stroke:none;fill-rule:evenodd;fill:rgb(40.4%,22.7%,71.8%);fill-opacity:1;" d="M 380.898438 109 C 380.898438 105.132812 377.765625 102 373.898438 102 C 370.035156 102 366.898438 105.132812 366.898438 109 C 366.898438 112.867188 370.035156 116 373.898438 116 C 377.765625 116 380.898438 112.867188 380.898438 109 Z M 380.898438 109 "/>
<path style=" stroke:none;fill-rule:evenodd;fill:rgb(47.5%,33.3%,28.2%);fill-opacity:1;" d="M 380.898438 129 C 380.898438 125.132812 377.765625 122 373.898438 122 C 370.035156 122 366.898438 125.132812 366.898438 129 C 366.898438 132.867188 370.035156 136 373.898438 136 C 377.765625 136 380.898438 132.867188 380.898438 129 Z M 380.898438 129 "/>
<path style="fill:none;stroke-width:0.8;stroke-linecap:butt;stroke-linejoin:round;stroke:rgb(95.7%,26.3%,21.2%);stroke-opacity:1;stroke-miterlimit:10;" d="M 463.699219 256 C 463.699219 262.398438 454.101562 262.398438 454.101562 256 C 454.101562 249.601562 463.699219 249.601562 463.699219 256 Z M 463.699219 256 " transform="matrix(1,0,0,-1,-67,265)"/>
<path style="fill:none;stroke-width:0.8;stroke-linecap:butt;stroke-linejoin:round;stroke:rgb(95.7%,26.3%,21.2%);stroke-opacity:1;stroke-miterlimit:10;" d="M 456.898438 258 L 460.898438 254 " transform="matrix(1,0,0,-1,-67,265)"/>
<path style="fill:none;stroke-width:0.8;stroke-linecap:butt;stroke-linejoin:round;stroke:rgb(95.7%,26.3%,21.2%);stroke-opacity:1;stroke-miterlimit:10;" d="M 456.898438 254 L 460.898438 258 " transform="matrix(1,0,0,-1,-67,265)"/>
<path style="fill:none;stroke-width:0.8;stroke-linecap:butt;stroke-linejoin:round;stroke:rgb(29.8%,68.6%,31.4%);stroke-opacity:1;stroke-miterlimit:10;" d="M 463.699219 236 C 463.699219 242.398438 454.101562 242.398438 454.101562 236 C 454.101562 229.601562 463.699219 229.601562 463.699219 236 Z M 463.699219 236 " transform="matrix(1,0,0,-1,-67,265)"/>
<path style="fill:none;stroke-width:0.8;stroke-linecap:butt;stroke-linejoin:round;stroke:rgb(29.8%,68.6%,31.4%);stroke-opacity:1;stroke-miterlimit:10;" d="M 456.398438 235 L 457.898438 233.5 L 460.898438 238.5 " transform="matrix(1,0,0,-1,-67,265)"/>
<path style="fill:none;stroke-width:0.8;stroke-linecap:butt;stroke-linejoin:round;stroke:rgb(95.7%,26.3%,21.2%);stroke-opacity:1;stroke-miterlimit:10;" d="M 463.699219 216 C 463.699219 222.398438 454.101562 222.398438 454.101562 216 C 454.101562 209.601562 463.699219 209.601562 463.699219 216 Z M 463.699219 216 " transform="matrix(1,0,0,-1,-67,265)"/>
<path style="fill:none;stroke-width:0.8;stroke-linecap:butt;stroke-linejoin:round;stroke:rgb(95.7%,26.3%,21.2%);stroke-opacity:1;stroke-miterlimit:10;" d="M 456.898438 218 L 460.898438 214 " transform="matrix(1,0,0,-1,-67,265)"/>
<path style="fill:none;stroke-width:0.8;stroke-linecap:butt;stroke-linejoin:round;stroke:rgb(95.7%,26.3%,21.2%);stroke-opacity:1;stroke-miterlimit:10;" d="M 456.898438 214 L 460.898438 218 " transform="matrix(1,0,0,-1,-67,265)"/>
<path style="fill:none;stroke-width:0.8;stroke-linecap:butt;stroke-linejoin:round;stroke:rgb(29.8%,68.6%,31.4%);stroke-opacity:1;stroke-miterlimit:10;" d="M 115.699219 136 C 115.699219 142.398438 106.101562 142.398438 106.101562 136 C 106.101562 129.601562 115.699219 129.601562 115.699219 136 Z M 115.699219 136 " transform="matrix(1,0,0,-1,-67,265)"/>
<path style="fill:none;stroke-width:0.8;stroke-linecap:butt;stroke-linejoin:round;stroke:rgb(29.8%,68.6%,31.4%);stroke-opacity:1;stroke-miterlimit:10;" d="M 108.398438 135 L 109.898438 133.5 L 112.898438 138.5 " transform="matrix(1,0,0,-1,-67,265)"/>
<path style="fill:none;stroke-width:0.8;stroke-linecap:butt;stroke-linejoin:round;stroke:rgb(95.7%,26.3%,21.2%);stroke-opacity:1;stroke-miterlimit:10;" d="M 463.699219 176 C 463.699219 182.398438 454.101562 182.398438 454.101562 176 C 454.101562 169.601562 463.699219 169.601562 463.699219 176 Z M 463.699219 176 " transform="matrix(1,0,0,-1,-67,265)"/>
<path style="fill:none;stroke-width:0.8;stroke-linecap:butt;stroke-linejoin:round;stroke:rgb(95.7%,26.3%,21.2%);stroke-opacity:1;stroke-miterlimit:10;" d="M 456.898438 178 L 460.898438 174 " transform="matrix(1,0,0,-1,-67,265)"/>
<path style="fill:none;stroke-width:0.8;stroke-linecap:butt;stroke-linejoin:round;stroke:rgb(95.7%,26.3%,21.2%);stroke-opacity:1;stroke-miterlimit:10;" d="M 456.898438 174 L 460.898438 178 " transform="matrix(1,0,0,-1,-67,265)"/>
<path style="fill:none;stroke-width:0.8;stroke-linecap:butt;stroke-linejoin:round;stroke:rgb(29.8%,68.6%,31.4%);stroke-opacity:1;stroke-miterlimit:10;" d="M 463.699219 156 C 463.699219 162.398438 454.101562 162.398438 454.101562 156 C 454.101562 149.601562 463.699219 149.601562 463.699219 156 Z M 463.699219 156 " transform="matrix(1,0,0,-1,-67,265)"/>
<path style="fill:none;stroke-width:0.8;stroke-linecap:butt;stroke-linejoin:round;stroke:rgb(29.8%,68.6%,31.4%);stroke-opacity:1;stroke-miterlimit:10;" d="M 456.398438 155 L 457.898438 153.5 L 460.898438 158.5 " transform="matrix(1,0,0,-1,-67,265)"/>
<path style="fill:none;stroke-width:0.8;stroke-linecap:butt;stroke-linejoin:round;stroke:rgb(100%,100%,100%);stroke-opacity:1;stroke-miterlimit:10;" d="M 410.898438 264 L 410.898438 128 " transform="matrix(1,0,0,-1,-67,265)"/>
<path style="fill:none;stroke-width:0.8;stroke-linecap:butt;stroke-linejoin:round;stroke:rgb(29.8%,68.6%,31.4%);stroke-opacity:1;stroke-miterlimit:10;" d="M 289.699219 136 C 289.699219 142.398438 280.101562 142.398438 280.101562 136 C 280.101562 129.601562 289.699219 129.601562 289.699219 136 Z M 289.699219 136 " transform="matrix(1,0,0,-1,-67,265)"/>
<path style="fill:none;stroke-width:0.8;stroke-linecap:butt;stroke-linejoin:round;stroke:rgb(29.8%,68.6%,31.4%);stroke-opacity:1;stroke-miterlimit:10;" d="M 282.398438 135 L 283.898438 133.5 L 286.898438 138.5 " transform="matrix(1,0,0,-1,-67,265)"/>
<path style="fill:none;stroke-width:0.8;stroke-linecap:butt;stroke-linejoin:round;stroke:rgb(29.8%,68.6%,31.4%);stroke-opacity:1;stroke-miterlimit:10;" d="M 347.699219 156 C 347.699219 162.398438 338.101562 162.398438 338.101562 156 C 338.101562 149.601562 347.699219 149.601562 347.699219 156 Z M 347.699219 156 " transform="matrix(1,0,0,-1,-67,265)"/>
<path style="fill:none;stroke-width:0.8;stroke-linecap:butt;stroke-linejoin:round;stroke:rgb(29.8%,68.6%,31.4%);stroke-opacity:1;stroke-miterlimit:10;" d="M 340.398438 155 L 341.898438 153.5 L 344.898438 158.5 " transform="matrix(1,0,0,-1,-67,265)"/>
<path style="fill:none;stroke-width:0.8;stroke-linecap:butt;stroke-linejoin:round;stroke:rgb(29.8%,68.6%,31.4%);stroke-opacity:1;stroke-miterlimit:10;" d="M 289.699219 216 C 289.699219 222.398438 280.101562 222.398438 280.101562 216 C 280.101562 209.601562 289.699219 209.601562 289.699219 216 Z M 289.699219 216 " transform="matrix(1,0,0,-1,-67,265)"/>
<path style="fill:none;stroke-width:0.8;stroke-linecap:butt;stroke-linejoin:round;stroke:rgb(29.8%,68.6%,31.4%);stroke-opacity:1;stroke-miterlimit:10;" d="M 282.398438 215 L 283.898438 213.5 L 286.898438 218.5 " transform="matrix(1,0,0,-1,-67,265)"/>
<path style="fill:none;stroke-width:0.8;stroke-linecap:butt;stroke-linejoin:round;stroke:rgb(29.8%,68.6%,31.4%);stroke-opacity:1;stroke-miterlimit:10;" d="M 463.699219 136 C 463.699219 142.398438 454.101562 142.398438 454.101562 136 C 454.101562 129.601562 463.699219 129.601562 463.699219 136 Z M 463.699219 136 " transform="matrix(1,0,0,-1,-67,265)"/>
<path style="fill:none;stroke-width:0.8;stroke-linecap:butt;stroke-linejoin:round;stroke:rgb(29.8%,68.6%,31.4%);stroke-opacity:1;stroke-miterlimit:10;" d="M 456.398438 135 L 457.898438 133.5 L 460.898438 138.5 " transform="matrix(1,0,0,-1,-67,265)"/>
</g>
</svg>
