<?xml version="1.0" encoding="UTF-8"?>
<svg xmlns="http://www.w3.org/2000/svg" xmlns:xlink="http://www.w3.org/1999/xlink" width="310pt" height="209pt" viewBox="0 0 310 209" version="1.1">
<g id="surface26737">
<path style=" stroke:none;fill-rule:evenodd;fill:rgb(69%,74.5%,77.3%);fill-opacity:1;" d="M 15 135 C 15 131.273438 15.867188 127.597656 17.535156 124.265625 L 24.6875 127.84375 C 22.425781 132.375 22.4375 137.710938 24.726562 142.230469 C 27.015625 146.746094 31.308594 149.914062 36.300781 150.769531 C 41.292969 151.625 46.394531 150.066406 50.054688 146.566406 C 53.714844 143.066406 55.503906 138.039062 54.875 133.015625 L 71 131 L 87.125 133.015625 C 86.496094 138.039062 88.285156 143.066406 91.945312 146.566406 C 95.605469 150.066406 100.707031 151.625 105.699219 150.769531 C 110.691406 149.914062 114.984375 146.746094 117.273438 142.230469 C 119.5625 137.710938 119.574219 132.375 117.3125 127.84375 L 124.464844 124.265625 C 126.132812 127.597656 127 131.273438 127 135 L 127 167 L 103 179 L 71 175 L 39 179 L 15 167 Z M 15 135 "/>
<path style=" stroke:none;fill-rule:evenodd;fill:rgb(81.2%,84.7%,86.3%);fill-opacity:1;" d="M 77.707031 142.683594 C 77.707031 138.980469 74.703125 135.976562 71 135.976562 C 67.296875 135.976562 64.292969 138.980469 64.292969 142.683594 C 64.292969 146.386719 67.296875 149.390625 71 149.390625 C 74.703125 149.390625 77.707031 146.386719 77.707031 142.683594 Z M 77.707031 142.683594 "/>
<path style="fill:none;stroke-width:1.2;stroke-linecap:butt;stroke-linejoin:round;stroke:rgb(12.9%,12.9%,12.9%);stroke-opacity:1;stroke-miterlimit:10;" d="M 204.449219 376.316406 L 210.300781 376.316406 " transform="matrix(1,0,0,-1,-137,519)"/>
<path style="fill:none;stroke-width:1.2;stroke-linecap:butt;stroke-linejoin:round;stroke:rgb(12.9%,12.9%,12.9%);stroke-opacity:1;stroke-miterlimit:10;" d="M 210.75 379.917969 C 210.300781 379.917969 209.851562 379.917969 209.101562 379.917969 C 208.351562 379.917969 207.300781 379.917969 206.476562 379.542969 C 205.648438 379.167969 205.050781 378.417969 204.75 377.59375 C 204.449219 376.765625 204.449219 375.867188 204.75 375.042969 C 205.050781 374.21875 205.648438 373.46875 206.476562 373.09375 C 207.300781 372.71875 208.351562 372.71875 209.101562 372.71875 C 209.851562 372.71875 210.300781 372.71875 210.75 372.71875 " transform="matrix(1,0,0,-1,-137,519)"/>
<path style=" stroke:none;fill-rule:evenodd;fill:rgb(100%,59.6%,0%);fill-opacity:1;" d="M 37 55 C 37 47.269531 30.730469 41 23 41 C 15.269531 41 9 47.269531 9 55 C 9 62.730469 15.269531 69 23 69 C 30.730469 69 37 62.730469 37 55 Z M 37 55 "/>
<path style=" stroke:none;fill-rule:evenodd;fill:rgb(29.8%,68.6%,31.4%);fill-opacity:0.3;" d="M 90.199219 161 C 90.199219 156.734375 83.800781 156.734375 83.800781 161 C 83.800781 165.265625 90.199219 165.265625 90.199219 161 Z M 90.199219 161 "/>
<path style=" stroke:none;fill-rule:evenodd;fill:rgb(95.7%,26.3%,21.2%);fill-opacity:1;" d="M 58.199219 161 C 58.199219 156.734375 51.800781 156.734375 51.800781 161 C 51.800781 165.265625 58.199219 165.265625 58.199219 161 Z M 58.199219 161 "/>
<path style=" stroke:none;fill-rule:evenodd;fill:rgb(29.8%,68.6%,31.4%);fill-opacity:1;" d="M 101 63 C 101 55.269531 94.730469 49 87 49 C 79.269531 49 73 55.269531 73 63 C 73 70.730469 79.269531 77 87 77 C 94.730469 77 101 70.730469 101 63 Z M 101 63 "/>
<path style="fill:none;stroke-width:0.4;stroke-linecap:butt;stroke-linejoin:round;stroke:rgb(81.2%,84.7%,86.3%);stroke-opacity:1;stroke-dasharray:1,3;stroke-miterlimit:10;" d="M 206 432 C 206 439.730469 199.730469 446 192 446 C 184.269531 446 178 439.730469 178 432 C 178 424.269531 184.269531 418 192 418 C 199.730469 418 206 424.269531 206 432 Z M 206 432 " transform="matrix(1,0,0,-1,-137,519)"/>
<path style=" stroke:none;fill-rule:evenodd;fill:rgb(91.4%,11.8%,38.8%);fill-opacity:1;" d="M 77 31 C 77 23.269531 70.730469 17 63 17 C 55.269531 17 49 23.269531 49 31 C 49 38.730469 55.269531 45 63 45 C 70.730469 45 77 38.730469 77 31 Z M 77 31 "/>
<path style="fill:none;stroke-width:0.4;stroke-linecap:butt;stroke-linejoin:round;stroke:rgb(81.2%,84.7%,86.3%);stroke-opacity:1;stroke-dasharray:1,3;stroke-miterlimit:10;" d="M 270 488 C 270 495.730469 263.730469 502 256 502 C 248.269531 502 242 495.730469 242 488 C 242 480.269531 248.269531 474 256 474 C 263.730469 474 270 480.269531 270 488 Z M 270 488 " transform="matrix(1,0,0,-1,-137,519)"/>
<path style=" stroke:none;fill-rule:evenodd;fill:rgb(47.5%,33.3%,28.2%);fill-opacity:1;" d="M 141 71 C 141 63.269531 134.730469 57 127 57 C 119.269531 57 113 63.269531 113 71 C 113 78.730469 119.269531 85 127 85 C 134.730469 85 141 78.730469 141 71 Z M 141 71 "/>
<path style=" stroke:none;fill-rule:evenodd;fill:rgb(1.2%,66.3%,95.7%);fill-opacity:1;" d="M 29 15 C 29 7.269531 22.730469 1 15 1 C 7.269531 1 1 7.269531 1 15 C 1 22.730469 7.269531 29 15 29 C 22.730469 29 29 22.730469 29 15 Z M 29 15 "/>
<path style=" stroke:none;fill-rule:evenodd;fill:rgb(69%,74.5%,77.3%);fill-opacity:1;" d="M 183 135 C 183 131.273438 183.867188 127.597656 185.535156 124.265625 L 192.6875 127.84375 C 190.425781 132.375 190.4375 137.710938 192.726562 142.230469 C 195.015625 146.746094 199.308594 149.914062 204.300781 150.769531 C 209.292969 151.625 214.394531 150.066406 218.054688 146.566406 C 221.714844 143.066406 223.503906 138.039062 222.875 133.015625 L 239 131 L 255.125 133.015625 C 254.496094 138.039062 256.285156 143.066406 259.945312 146.566406 C 263.605469 150.066406 268.707031 151.625 273.699219 150.769531 C 278.691406 149.914062 282.984375 146.746094 285.273438 142.230469 C 287.5625 137.710938 287.574219 132.375 285.3125 127.84375 L 292.464844 124.265625 C 294.132812 127.597656 295 131.273438 295 135 L 295 167 L 271 179 L 239 175 L 207 179 L 183 167 Z M 183 135 "/>
<path style=" stroke:none;fill-rule:evenodd;fill:rgb(81.2%,84.7%,86.3%);fill-opacity:1;" d="M 245.707031 142.683594 C 245.707031 138.980469 242.703125 135.976562 239 135.976562 C 235.296875 135.976562 232.292969 138.980469 232.292969 142.683594 C 232.292969 146.386719 235.296875 149.390625 239 149.390625 C 242.703125 149.390625 245.707031 146.386719 245.707031 142.683594 Z M 245.707031 142.683594 "/>
<path style="fill:none;stroke-width:1.2;stroke-linecap:butt;stroke-linejoin:round;stroke:rgb(12.9%,12.9%,12.9%);stroke-opacity:1;stroke-miterlimit:10;" d="M 372.449219 376.316406 L 378.300781 376.316406 " transform="matrix(1,0,0,-1,-137,519)"/>
<path style="fill:none;stroke-width:1.2;stroke-linecap:butt;stroke-linejoin:round;stroke:rgb(12.9%,12.9%,12.9%);stroke-opacity:1;stroke-miterlimit:10;" d="M 378.75 379.917969 C 378.300781 379.917969 377.851562 379.917969 377.101562 379.917969 C 376.351562 379.917969 375.300781 379.917969 374.476562 379.542969 C 373.648438 379.167969 373.050781 378.417969 372.75 377.59375 C 372.449219 376.765625 372.449219 375.867188 372.75 375.042969 C 373.050781 374.21875 373.648438 373.46875 374.476562 373.09375 C 375.300781 372.71875 376.351562 372.71875 377.101562 372.71875 C 377.851562 372.71875 378.300781 372.71875 378.75 372.71875 " transform="matrix(1,0,0,-1,-137,519)"/>
<path style="fill:none;stroke-width:0.4;stroke-linecap:butt;stroke-linejoin:round;stroke:rgb(81.2%,84.7%,86.3%);stroke-opacity:1;stroke-dasharray:1,3;stroke-miterlimit:10;" d="M 342 464 C 342 471.730469 335.730469 478 328 478 C 320.269531 478 314 471.730469 314 464 C 314 456.269531 320.269531 450 328 450 C 335.730469 450 342 456.269531 342 464 Z M 342 464 " transform="matrix(1,0,0,-1,-137,519)"/>
<path style=" stroke:none;fill-rule:evenodd;fill:rgb(29.8%,68.6%,31.4%);fill-opacity:1;" d="M 258.199219 161 C 258.199219 156.734375 251.800781 156.734375 251.800781 161 C 251.800781 165.265625 258.199219 165.265625 258.199219 161 Z M 258.199219 161 "/>
<path style=" stroke:none;fill-rule:evenodd;fill:rgb(95.7%,26.3%,21.2%);fill-opacity:0.3;" d="M 226.199219 161 C 226.199219 156.734375 219.800781 156.734375 219.800781 161 C 219.800781 165.265625 226.199219 165.265625 226.199219 161 Z M 226.199219 161 "/>
<path style=" stroke:none;fill-rule:evenodd;fill:rgb(29.8%,68.6%,31.4%);fill-opacity:1;" d="M 269 63 C 269 55.269531 262.730469 49 255 49 C 247.269531 49 241 55.269531 241 63 C 241 70.730469 247.269531 77 255 77 C 262.730469 77 269 70.730469 269 63 Z M 269 63 "/>
<path style=" stroke:none;fill-rule:evenodd;fill:rgb(40.4%,22.7%,71.8%);fill-opacity:1;" d="M 237 87 C 237 79.269531 230.730469 73 223 73 C 215.269531 73 209 79.269531 209 87 C 209 94.730469 215.269531 101 223 101 C 230.730469 101 237 94.730469 237 87 Z M 237 87 "/>
<path style="fill:none;stroke-width:0.4;stroke-linecap:butt;stroke-linejoin:round;stroke:rgb(81.2%,84.7%,86.3%);stroke-opacity:1;stroke-dasharray:1,3;stroke-miterlimit:10;" d="M 382 488 C 382 495.730469 375.730469 502 368 502 C 360.269531 502 354 495.730469 354 488 C 354 480.269531 360.269531 474 368 474 C 375.730469 474 382 480.269531 382 488 Z M 382 488 " transform="matrix(1,0,0,-1,-137,519)"/>
<path style=" stroke:none;fill-rule:evenodd;fill:rgb(80.4%,86.3%,22.4%);fill-opacity:1;" d="M 301 31 C 301 23.269531 294.730469 17 287 17 C 279.269531 17 273 23.269531 273 31 C 273 38.730469 279.269531 45 287 45 C 294.730469 45 301 38.730469 301 31 Z M 301 31 "/>
<path style=" stroke:none;fill-rule:evenodd;fill:rgb(47.5%,33.3%,28.2%);fill-opacity:1;" d="M 309 71 C 309 63.269531 302.730469 57 295 57 C 287.269531 57 281 63.269531 281 71 C 281 78.730469 287.269531 85 295 85 C 302.730469 85 309 78.730469 309 71 Z M 309 71 "/>
<path style=" stroke:none;fill-rule:evenodd;fill:rgb(1.2%,66.3%,95.7%);fill-opacity:1;" d="M 197 15 C 197 7.269531 190.730469 1 183 1 C 175.269531 1 169 7.269531 169 15 C 169 22.730469 175.269531 29 183 29 C 190.730469 29 197 22.730469 197 15 Z M 197 15 "/>
<path style=" stroke:none;fill-rule:evenodd;fill:rgb(40.4%,22.7%,71.8%);fill-opacity:1;" d="M 53 135 C 53 127.269531 46.730469 121 39 121 C 31.269531 121 25 127.269531 25 135 C 25 142.730469 31.269531 149 39 149 C 46.730469 149 53 142.730469 53 135 Z M 53 135 "/>
<path style="fill:none;stroke-width:0.8;stroke-linecap:butt;stroke-linejoin:round;stroke:rgb(95.7%,26.3%,21.2%);stroke-opacity:1;stroke-miterlimit:10;" d="M 192 363.410156 L 192 366.746094 " transform="matrix(1,0,0,-1,-137,519)"/>
<path style="fill:none;stroke-width:0.8;stroke-linecap:butt;stroke-linejoin:round;stroke:rgb(95.7%,26.3%,21.2%);stroke-opacity:1;stroke-miterlimit:10;" d="M 196.683594 360.703125 L 199.574219 362.375 " transform="matrix(1,0,0,-1,-137,519)"/>
<path style="fill:none;stroke-width:0.8;stroke-linecap:butt;stroke-linejoin:round;stroke:rgb(95.7%,26.3%,21.2%);stroke-opacity:1;stroke-miterlimit:10;" d="M 196.683594 355.296875 L 199.574219 353.625 " transform="matrix(1,0,0,-1,-137,519)"/>
<path style="fill:none;stroke-width:0.8;stroke-linecap:butt;stroke-linejoin:round;stroke:rgb(95.7%,26.3%,21.2%);stroke-opacity:1;stroke-miterlimit:10;" d="M 192 352.589844 L 192 349.253906 " transform="matrix(1,0,0,-1,-137,519)"/>
<path style="fill:none;stroke-width:0.8;stroke-linecap:butt;stroke-linejoin:round;stroke:rgb(95.7%,26.3%,21.2%);stroke-opacity:1;stroke-miterlimit:10;" d="M 187.316406 355.296875 L 184.425781 353.625 " transform="matrix(1,0,0,-1,-137,519)"/>
<path style="fill:none;stroke-width:0.8;stroke-linecap:butt;stroke-linejoin:round;stroke:rgb(95.7%,26.3%,21.2%);stroke-opacity:1;stroke-miterlimit:10;" d="M 187.316406 360.703125 L 184.425781 362.375 " transform="matrix(1,0,0,-1,-137,519)"/>
<path style="fill:none;stroke-width:0.4;stroke-linecap:butt;stroke-linejoin:round;stroke:rgb(95.7%,26.3%,21.2%);stroke-opacity:1;stroke-miterlimit:10;" d="M 189.296875 362.683594 L 188.835938 363.476562 " transform="matrix(1,0,0,-1,-137,519)"/>
<path style="fill:none;stroke-width:0.4;stroke-linecap:butt;stroke-linejoin:round;stroke:rgb(95.7%,26.3%,21.2%);stroke-opacity:1;stroke-miterlimit:10;" d="M 194.703125 362.683594 L 195.164062 363.476562 " transform="matrix(1,0,0,-1,-137,519)"/>
<path style="fill:none;stroke-width:0.4;stroke-linecap:butt;stroke-linejoin:round;stroke:rgb(95.7%,26.3%,21.2%);stroke-opacity:1;stroke-miterlimit:10;" d="M 197.410156 358 L 198.324219 358 " transform="matrix(1,0,0,-1,-137,519)"/>
<path style="fill:none;stroke-width:0.4;stroke-linecap:butt;stroke-linejoin:round;stroke:rgb(95.7%,26.3%,21.2%);stroke-opacity:1;stroke-miterlimit:10;" d="M 194.703125 353.316406 L 195.164062 352.523438 " transform="matrix(1,0,0,-1,-137,519)"/>
<path style="fill:none;stroke-width:0.4;stroke-linecap:butt;stroke-linejoin:round;stroke:rgb(95.7%,26.3%,21.2%);stroke-opacity:1;stroke-miterlimit:10;" d="M 189.296875 353.316406 L 188.835938 352.523438 " transform="matrix(1,0,0,-1,-137,519)"/>
<path style="fill:none;stroke-width:0.4;stroke-linecap:butt;stroke-linejoin:round;stroke:rgb(95.7%,26.3%,21.2%);stroke-opacity:1;stroke-miterlimit:10;" d="M 186.589844 358 L 185.675781 358 " transform="matrix(1,0,0,-1,-137,519)"/>
<path style="fill:none;stroke-width:0.8;stroke-linecap:butt;stroke-linejoin:round;stroke:rgb(29.8%,68.6%,31.4%);stroke-opacity:1;stroke-miterlimit:10;" d="M 392 363.410156 L 392 366.746094 " transform="matrix(1,0,0,-1,-137,519)"/>
<path style="fill:none;stroke-width:0.8;stroke-linecap:butt;stroke-linejoin:round;stroke:rgb(29.8%,68.6%,31.4%);stroke-opacity:1;stroke-miterlimit:10;" d="M 396.683594 360.703125 L 399.574219 362.375 " transform="matrix(1,0,0,-1,-137,519)"/>
<path style="fill:none;stroke-width:0.8;stroke-linecap:butt;stroke-linejoin:round;stroke:rgb(29.8%,68.6%,31.4%);stroke-opacity:1;stroke-miterlimit:10;" d="M 396.683594 355.296875 L 399.574219 353.625 " transform="matrix(1,0,0,-1,-137,519)"/>
<path style="fill:none;stroke-width:0.8;stroke-linecap:butt;stroke-linejoin:round;stroke:rgb(29.8%,68.6%,31.4%);stroke-opacity:1;stroke-miterlimit:10;" d="M 392 352.589844 L 392 349.253906 " transform="matrix(1,0,0,-1,-137,519)"/>
<path style="fill:none;stroke-width:0.8;stroke-linecap:butt;stroke-linejoin:round;stroke:rgb(29.8%,68.6%,31.4%);stroke-opacity:1;stroke-miterlimit:10;" d="M 387.316406 355.296875 L 384.425781 353.625 " transform="matrix(1,0,0,-1,-137,519)"/>
<path style="fill:none;stroke-width:0.8;stroke-linecap:butt;stroke-linejoin:round;stroke:rgb(29.8%,68.6%,31.4%);stroke-opacity:1;stroke-miterlimit:10;" d="M 387.316406 360.703125 L 384.425781 362.375 " transform="matrix(1,0,0,-1,-137,519)"/>
<path style="fill:none;stroke-width:0.4;stroke-linecap:butt;stroke-linejoin:round;stroke:rgb(29.8%,68.6%,31.4%);stroke-opacity:1;stroke-miterlimit:10;" d="M 389.296875 362.683594 L 388.835938 363.476562 " transform="matrix(1,0,0,-1,-137,519)"/>
<path style="fill:none;stroke-width:0.4;stroke-linecap:butt;stroke-linejoin:round;stroke:rgb(29.8%,68.6%,31.4%);stroke-opacity:1;stroke-miterlimit:10;" d="M 394.703125 362.683594 L 395.164062 363.476562 " transform="matrix(1,0,0,-1,-137,519)"/>
<path style="fill:none;stroke-width:0.4;stroke-linecap:butt;stroke-linejoin:round;stroke:rgb(29.8%,68.6%,31.4%);stroke-opacity:1;stroke-miterlimit:10;" d="M 397.410156 358 L 398.324219 358 " transform="matrix(1,0,0,-1,-137,519)"/>
<path style="fill:none;stroke-width:0.4;stroke-linecap:butt;stroke-linejoin:round;stroke:rgb(29.8%,68.6%,31.4%);stroke-opacity:1;stroke-miterlimit:10;" d="M 394.703125 353.316406 L 395.164062 352.523438 " transform="matrix(1,0,0,-1,-137,519)"/>
<path style="fill:none;stroke-width:0.4;stroke-linecap:butt;stroke-linejoin:round;stroke:rgb(29.8%,68.6%,31.4%);stroke-opacity:1;stroke-miterlimit:10;" d="M 389.296875 353.316406 L 388.835938 352.523438 " transform="matrix(1,0,0,-1,-137,519)"/>
<path style="fill:none;stroke-width:0.4;stroke-linecap:butt;stroke-linejoin:round;stroke:rgb(29.8%,68.6%,31.4%);stroke-opacity:1;stroke-miterlimit:10;" d="M 386.589844 358 L 385.675781 358 " transform="matrix(1,0,0,-1,-137,519)"/>
<path style=" stroke:none;fill-rule:evenodd;fill:rgb(100%,59.6%,0%);fill-opacity:1;" d="M 285 134.683594 C 285 126.949219 278.730469 120.683594 271 120.683594 C 263.269531 120.683594 257 126.949219 257 134.683594 C 257 142.414062 263.269531 148.683594 271 148.683594 C 278.730469 148.683594 285 142.414062 285 134.683594 Z M 285 134.683594 "/>
<path style=" stroke:none;fill-rule:evenodd;fill:rgb(91.4%,11.8%,38.8%);fill-opacity:1;" d="M 221 135 C 221 127.269531 214.730469 121 207 121 C 199.269531 121 193 127.269531 193 135 C 193 142.730469 199.269531 149 207 149 C 214.730469 149 221 142.730469 221 135 Z M 221 135 "/>
<path style=" stroke:none;fill-rule:evenodd;fill:rgb(80.4%,86.3%,22.4%);fill-opacity:1;" d="M 117 135 C 117 127.269531 110.730469 121 103 121 C 95.269531 121 89 127.269531 89 135 C 89 142.730469 95.269531 149 103 149 C 110.730469 149 117 142.730469 117 135 Z M 117 135 "/>
<path style="fill:none;stroke-width:0.4;stroke-linecap:butt;stroke-linejoin:round;stroke:rgb(100%,100%,100%);stroke-opacity:1;stroke-miterlimit:10;" d="M 184.628906 416.28125 C 181.507812 410.367188 179.414062 404.902344 178.34375 399.890625 " transform="matrix(1,0,0,-1,-137,519)"/>
<path style="fill-rule:evenodd;fill:rgb(100%,100%,100%);fill-opacity:1;stroke-width:0.4;stroke-linecap:butt;stroke-linejoin:round;stroke:rgb(100%,100%,100%);stroke-opacity:1;stroke-miterlimit:10;" d="M 178.34375 399.890625 L 179.949219 402.617188 L 177.992188 403.035156 Z M 178.34375 399.890625 " transform="matrix(1,0,0,-1,-137,519)"/>
<path style="fill:none;stroke-width:0.4;stroke-linecap:butt;stroke-linejoin:round;stroke:rgb(100%,100%,100%);stroke-opacity:1;stroke-miterlimit:10;" d="M 250.902344 472.476562 C 241.542969 451.46875 246.949219 423.179688 242.789062 400.71875 " transform="matrix(1,0,0,-1,-137,519)"/>
<path style="fill-rule:evenodd;fill:rgb(100%,100%,100%);fill-opacity:1;stroke-width:0.4;stroke-linecap:butt;stroke-linejoin:round;stroke:rgb(100%,100%,100%);stroke-opacity:1;stroke-miterlimit:10;" d="M 242.789062 400.71875 L 244.320312 403.484375 L 242.355469 403.847656 Z M 242.789062 400.71875 " transform="matrix(1,0,0,-1,-137,519)"/>
<path style="fill:none;stroke-width:0.4;stroke-linecap:butt;stroke-linejoin:round;stroke:rgb(100%,100%,100%);stroke-opacity:1;stroke-miterlimit:10;" d="M 345.125 460.203125 C 376.230469 452.261719 396.5 421.933594 404.613281 400.300781 " transform="matrix(1,0,0,-1,-137,519)"/>
<path style="fill-rule:evenodd;fill:rgb(100%,100%,100%);fill-opacity:1;stroke-width:0.4;stroke-linecap:butt;stroke-linejoin:round;stroke:rgb(100%,100%,100%);stroke-opacity:1;stroke-miterlimit:10;" d="M 404.613281 400.300781 L 404.496094 403.460938 L 402.625 402.757812 Z M 404.613281 400.300781 " transform="matrix(1,0,0,-1,-137,519)"/>
<path style="fill:none;stroke-width:0.4;stroke-linecap:butt;stroke-linejoin:round;stroke:rgb(100%,100%,100%);stroke-opacity:1;stroke-miterlimit:10;" d="M 364.46875 471.4375 C 351.363281 453.964844 332.019531 440.859375 338.886719 399.261719 " transform="matrix(1,0,0,-1,-137,519)"/>
<path style="fill-rule:evenodd;fill:rgb(100%,100%,100%);fill-opacity:1;stroke-width:0.4;stroke-linecap:butt;stroke-linejoin:round;stroke:rgb(100%,100%,100%);stroke-opacity:1;stroke-miterlimit:10;" d="M 338.886719 399.261719 L 339.382812 402.382812 L 337.410156 402.058594 Z M 338.886719 399.261719 " transform="matrix(1,0,0,-1,-137,519)"/>
<path style=" stroke:none;fill-rule:evenodd;fill:rgb(40.4%,22.7%,71.8%);fill-opacity:1;" d="M 60.238281 199 C 60.238281 193.898438 56.101562 189.761719 51 189.761719 C 45.898438 189.761719 41.761719 193.898438 41.761719 199 C 41.761719 204.101562 45.898438 208.238281 51 208.238281 C 56.101562 208.238281 60.238281 204.101562 60.238281 199 Z M 60.238281 199 "/>
<path style=" stroke:none;fill-rule:evenodd;fill:rgb(80.4%,86.3%,22.4%);fill-opacity:1;" d="M 100.238281 199 C 100.238281 193.898438 96.101562 189.761719 91 189.761719 C 85.898438 189.761719 81.761719 193.898438 81.761719 199 C 81.761719 204.101562 85.898438 208.238281 91 208.238281 C 96.101562 208.238281 100.238281 204.101562 100.238281 199 Z M 100.238281 199 "/>
<path style="fill:none;stroke-width:1.2;stroke-linecap:butt;stroke-linejoin:round;stroke:rgb(100%,100%,100%);stroke-opacity:1;stroke-miterlimit:10;" d="M 203.664062 320 L 210.976562 320 " transform="matrix(1,0,0,-1,-137,519)"/>
<path style="fill:none;stroke-width:1.2;stroke-linecap:butt;stroke-linejoin:round;stroke:rgb(100%,100%,100%);stroke-opacity:1;stroke-miterlimit:10;" d="M 211.539062 324.5 C 210.976562 324.5 210.414062 324.5 209.476562 324.5 C 208.539062 324.5 207.226562 324.5 206.195312 324.03125 C 205.164062 323.5625 204.414062 322.625 204.039062 321.59375 C 203.664062 320.5625 203.664062 319.4375 204.039062 318.40625 C 204.414062 317.375 205.164062 316.4375 206.195312 315.96875 C 207.226562 315.5 208.539062 315.5 209.476562 315.5 C 210.414062 315.5 210.976562 315.5 211.539062 315.5 " transform="matrix(1,0,0,-1,-137,519)"/>
<path style="fill:none;stroke-width:1.2;stroke-linecap:butt;stroke-linejoin:round;stroke:rgb(100%,100%,100%);stroke-opacity:1;stroke-miterlimit:10;" d="M 210.101562 326.066406 L 205.605469 314.210938 " transform="matrix(1,0,0,-1,-137,519)"/>
<path style=" stroke:none;fill-rule:evenodd;fill:rgb(91.4%,11.8%,38.8%);fill-opacity:1;" d="M 228.238281 199 C 228.238281 193.898438 224.101562 189.761719 219 189.761719 C 213.898438 189.761719 209.761719 193.898438 209.761719 199 C 209.761719 204.101562 213.898438 208.238281 219 208.238281 C 224.101562 208.238281 228.238281 204.101562 228.238281 199 Z M 228.238281 199 "/>
<path style=" stroke:none;fill-rule:evenodd;fill:rgb(100%,59.6%,0%);fill-opacity:1;" d="M 268.238281 199 C 268.238281 193.898438 264.101562 189.761719 259 189.761719 C 253.898438 189.761719 249.761719 193.898438 249.761719 199 C 249.761719 204.101562 253.898438 208.238281 259 208.238281 C 264.101562 208.238281 268.238281 204.101562 268.238281 199 Z M 268.238281 199 "/>
<path style="fill:none;stroke-width:1.2;stroke-linecap:butt;stroke-linejoin:round;stroke:rgb(100%,100%,100%);stroke-opacity:1;stroke-miterlimit:10;" d="M 371.664062 320 L 378.976562 320 " transform="matrix(1,0,0,-1,-137,519)"/>
<path style="fill:none;stroke-width:1.2;stroke-linecap:butt;stroke-linejoin:round;stroke:rgb(100%,100%,100%);stroke-opacity:1;stroke-miterlimit:10;" d="M 379.539062 324.5 C 378.976562 324.5 378.414062 324.5 377.476562 324.5 C 376.539062 324.5 375.226562 324.5 374.195312 324.03125 C 373.164062 323.5625 372.414062 322.625 372.039062 321.59375 C 371.664062 320.5625 371.664062 319.4375 372.039062 318.40625 C 372.414062 317.375 373.164062 316.4375 374.195312 315.96875 C 375.226562 315.5 376.539062 315.5 377.476562 315.5 C 378.414062 315.5 378.976562 315.5 379.539062 315.5 " transform="matrix(1,0,0,-1,-137,519)"/>
</g>
</svg>
